<svg xmlns="http://www.w3.org/2000/svg" id="Layer_1" viewBox="0 0 836.2 629.2"><style>.st0{fill:#221F20;} .st1{fill:#F38222;} .st2{fill:#ED8329;} .st3{fill:#232021;} .st4{fill:#252223;} .st5{fill:#242223;} .st6{fill:#242122;} .st7{fill:#232122;} .st8{fill:#515E68;} .st9{fill:#252324;} .st10{fill:#272224;} .st11{fill:#535F66;} .st12{fill:#546066;} .st13{fill:#566067;} .st14{fill:#292727;} .st15{fill:#535D64;} .st16{fill:#545D65;} .st17{fill:#252424;} .st18{fill:#545D63;} .st19{fill:#535E66;} .st20{fill:#222121;} .st21{fill:#242323;} .st22{fill:#232222;} .st23{fill:#54606A;} .st24{fill:#555E68;} .st25{fill:#57656B;} .st26{fill:#555E62;} .st27{fill:#566263;} .st28{fill:#545E65;} .st29{fill:#555F67;} .st30{fill:#535E63;} .st31{fill:#536064;} .st32{fill:#545E62;} .st33{fill:#576066;} .st34{fill:#566069;} .st35{fill:#545F67;} .st36{fill:#272526;} .st37{fill:#556265;} .st38{fill:#58636B;} .st39{fill:#555E63;} .st40{fill:#565F64;} .st41{fill:#575F63;} .st42{fill:#525E63;} .st43{fill:#545E66;} .st44{fill:#556065;} .st45{fill:#565F66;} .st46{fill:#5C6166;} .st47{fill:#545F65;} .st48{fill:#59676D;} .st49{fill:#566168;} .st50{fill:#272727;} .st51{fill:#54636C;} .st52{fill:#54646D;} .st53{fill:#53616E;} .st54{fill:#586063;} .st55{fill:#586167;} .st56{fill:#546166;} .st57{fill:#596267;} .st58{fill:#606F7A;} .st59{fill:#282526;} .st60{fill:#576369;} .st61{fill:#5A6469;} .st62{fill:#646B71;} .st63{fill:#636C71;} .st64{fill:#63676A;} .st65{fill:#59616A;} .st66{fill:#56666D;} .st67{fill:#545F64;} .st68{fill:#5A626B;} .st69{fill:#222122;} .st70{fill:#222021;} .st71{fill:#5D656F;} .st72{fill:#52626D;} .st73{fill:#58616C;} .st74{fill:#525A62;} .st75{fill:#5F6262;} .st76{fill:#6C6F76;} .st77{fill:#637077;} .st78{fill:#FEFDFD;} .st79{fill:#FAFAFA;} .st80{fill:#FCFCFC;} .st81{fill:#E8E6E7;} .st82{fill:#F2F2F2;} .st83{fill:#F5F3F4;} .st84{fill:#DCDADB;} .st85{fill:#E9E7E8;} .st86{fill:#E6E4E4;} .st87{fill:#E8E6E6;} .st88{fill:#F9FAF9;} .st89{fill:#F3F6F6;} .st90{fill:#F1F4F3;} .st91{fill:#F3F8F6;} .st92{fill:#F7F9F8;} .st93{fill:#FBFBFB;} .st94{fill:#F5F6F4;} .st95{fill:#F5F8F6;} .st96{fill:#F8FAF8;} .st97{fill:#F6F9F8;} .st98{fill:#EDF5F4;} .st99{fill:#E9ECEA;} .st100{fill:#F1F0F0;} .st101{fill:#EFF1F3;} .st102{fill:#F4F7F9;} .st103{fill:#E6EBEA;} .st104{fill:#F2F5F5;} .st105{fill:#EFF5F5;} .st106{fill:#EEF6F6;} .st107{fill:#E2E7E9;} .st108{fill:#E7ECED;}</style><path d="M433.5 359.3c-.3 10.4-2.8 21.2-12.8 28.3-12.2 8.8-25.6 9-38.9 3.4-13-5.5-17.4-17.1-18.2-30.3-.7-11.1.7-21.9 9.2-30 12.3-11.6 27-12 41.8-6.3 13.4 5.2 17.9 16.8 18.7 30.3v4.6h.2zm94.9-4.8c7.6-5.7 17.4-7.6 26.6-5.1 8.8 2.2 15.1 7 16.8 16.3 1.8 9.7-1.4 17.5-9.7 23.3-16.4 11.5-43.6 5-50.9-13-5.9-14.7-5.8-29.7 4.7-42.4s25.1-14.4 40.5-10.9c5.3 1.1 10.3 3.5 14.5 7-3.3 2.8-6.4 5.5-9.5 8.2-1.5 1.4-2.8 1-4.4 0-2.7-1.7-5.7-2.7-8.8-3.1-12-1.1-20.1 6.6-19.8 19.7zm-212 25.1c8.7-.8 17.3-.4 25.8-.6 3-.1 4.3.4 4.3 4 0 10.2.2 10.2-10 10.2-16 0-32 0-48-.1-1.9 0-5.2 1.5-5.5-1.4-.4-3.3-2-7.2 2.1-10 9.1-6.3 18.1-12.9 26.1-20.7 4-3.9 7.6-8 9.2-13.4 1.8-6.4-1-11.3-7.4-12.8-6-1.4-11.4.2-16 3.8-3 2.3-5.2 2-7.6-.5-1.2-1.2-2.5-2.2-4-3-4-2.2-3.9-3.8-.1-6.3 12.9-8.3 26.5-10.1 41-5.4 14.6 4.6 19.8 18.8 11.9 31.9-5 8.2-11.9 14.7-19.2 20.8-1 .8-2.7 1.3-2.9 3.3l.3.2z" class="st0"/><path d="M424.8 307.1H281.4c-2.3 0-5.3 1.1-5.3-3.2 0-2.6.5-4.1 3.5-3.9 3.8.2 7.7.1 11.5.1h276.7c2.4 0 5.6-1.1 5.3 3.5-.2 2.6-1 3.6-3.5 3.5-5-.1-10 0-15 0H424.8z" class="st1"/><path d="M424.6 181.1H281.1c-2.6 0-5.6.7-5.1-3.8.2-2.3 1-3.3 3.3-3.2 1.3.1 2.7 0 4 0 94.3 0 188.7 0 283 .1 2.6 0 6.8-2 6.9 3.6 0 2.3-.8 3.4-3.1 3.4l-145.5-.1z" class="st2"/><path d="M406.2 240c-6.1 14.4-12 28.1-17.8 41.9-1.1 2.6-3 2.1-4.9 2.1s-3.7 0-4.7-2.5c-3.1-7.5-6.5-14.9-10.2-23-3.6 7.9-7.1 15-10.1 22.4-1.1 2.8-2.7 3.2-5.3 3.2s-4.1-.6-5.2-3.3c-5-12.5-10.3-24.9-15.5-37.3-.9-2.2-1.4-3.4 2-3.6 10.1-.3 10.1-.5 13.6 8.9 1.7 4.6 3.5 9.2 5.6 15 3.3-7.5 6.4-13.8 8.6-20.3 1.5-4.3 4.6-3.3 7.6-3.6 3.2-.4 4.3 1.3 5.3 3.9 2.6 6.4 5.4 12.8 8.5 20.1 2.8-7.1 5.5-13.2 7.5-19.4 1.2-3.8 3.2-5 6.9-4.6 2.8.2 5.6.2 8.4 0l-.3.1zm78.7 118.2c0 10.3-.1 20.6.1 30.9.1 3.4-.6 5-4.4 4.6-5-.5-11.9 2.2-14.7-1.1-2.5-2.8-.7-9.5-.8-14.4 0-11.6-.1-23.3 0-34.9 0-3-.7-3.9-3.5-2.8-.6.3-1.2.5-1.9.7-12.8 3.8-13 3.7-11.6-9.8.2-1.5.5-2.5 2-2.9 10.2-2.3 19.8-6.8 30.7-5.8 3.2.3 4.3 1 4.3 4.3-.2 10.5-.1 21-.1 31.4l-.1-.2zm39.5-96.9v-18c0-1.7-.3-3.4 2.3-3.3 8.5.3 17-.9 25.3 1 11.3 2.4 18 12 16.9 24-1 11.1-9 18.1-20.9 18.3-6.3.1-12.6-.1-19 .2-3.6.2-5.1-.7-4.8-4.6.5-5.8.2-11.7.2-17.6zm-52.7.1c0-6 .1-12 0-18 0-2.4.4-3.6 3.2-3.5 7 .2 14-.1 21 .2 6 .2 10.5 3.3 12.5 9 1.8 5.2.9 10.2-4 13.7-1.9 1.3-1.2 1.8 0 3.2 3.8 4.3 5.6 9.7 8.1 14.8 1.1 2.2 0 2.6-1.9 2.5h-1.5c-7 1.2-11.6-1-13.4-8.4-.9-3.6-3-7.1-7.3-8.3-2.4-.7-3.9-.3-3.8 2.7.1 3.5 0 7 .1 10.4 0 2.4-.7 3.4-3.4 3.5-9.8.4-9.8.5-9.8-9v-13l.2.2zm-36.9-21.1c5.8-1.8 8.3 1.2 10.2 6.2 4.4 10.9 9.1 21.7 14.1 32.4 2 4.2.6 4.9-3.2 4.5-1.2-.1-2.3-.1-3.5 0-3.4.5-5.8-.5-6.5-4.2-.7-3.9-3.2-5-6.9-4.5-2.2.2-4.3.2-6.5 0-4.9-.6-8.8.1-9.9 6-.7 3.9-4.1 2.6-6.5 2.6-8 .1-8 0-4.8-7.1 4.3-9.7 8.9-19.3 12.8-29.2 2-5.3 4.4-8.8 10.6-6.7h.1zm-130.9-.3c4.8-1.6 6.9 1.5 8.9 6.3 4.5 11.2 9.5 22.3 14.6 33.3 1.7 3.5.5 4-2.6 3.8-1.5-.1-3-.1-4.5 0-3.5.4-5.8-.6-6.5-4.3-.7-3.5-2.7-5-6.4-4.5-2 .2-4 .2-6 0-5.4-.6-10-.1-11 6.6-.2 1.4-1.4 2.3-2.8 2.1h-.1c-3.5-.3-8 1.5-10.1-.8-1.8-2 1.5-5.6 2.7-8.5 3.8-9 8-17.9 11.9-26.9 3.2-7.2 3.1-7.3 11.7-7.3l.2.2z" class="st0"/><path d="M331.8 100.9c2.3-5 4.4-9 6.1-13.1.9-2.2 2.2-2.9 4.5-2.9 2.5-.1 3.4 1.2 4.3 3.2 1.7 4.1 3.6 8.1 5.8 12.8 2.1-4.8 4-8.7 5.4-12.8s4.4-3.3 7.3-3.1c2 .1 1.2 1.6.8 2.6-3.6 8.2-7.1 16.5-10.9 24.7-1.5 3.2-3.5 3.2-5.2-.1-2.7-5.1-5-10.4-7.9-16.6-2.7 5.8-5 10.9-7.4 15.9-.6 1.3-1 3-3 3-2.3.2-2.6-1.7-3.2-3.2-3.2-7.1-6.4-14.3-9.3-21.5-.5-1.3-3.2-3.5-.3-4.4 2.2-.7 5.6-1.7 7 2.4 1.5 4.3 3.5 8.3 5.7 13.4l.3-.3z" class="st3"/><path d="M337.5 140.9c-4 2.8-5.1 8.2-8.6 7.8-2.6-.3-4.7-4.6-7.4-7.6-1 4.5-.5 8.6-.5 12.6 0 2.7-.3 4.3-3.7 4.3-3.1 0-4-1-3.9-4 .2-7 0-14 .1-21 0-1.4-1.1-3.8 1.2-4.2 2.1-.4 4.6-1 6.4 1.4s4.1 4.4 5.8 6.9c1.9 2.7 3 2.2 4.7-.1s3.7-4.3 5.5-6.5 4.2-2 6.4-1.6c2.6.5 1.5 3 1.5 4.6.1 7-.1 14 .1 21 .1 2.9-.9 3.8-3.7 3.7-2.5-.1-4.1-.4-3.9-3.5.2-4.5 0-8.8 0-13.8z" class="st4"/><path d="M561.3 140.3c-2.6 3-4.4 4.7-5.8 6.7-2 3-3.4 2.3-5.2-.1-1.4-2-3.1-3.7-5.6-6.7 0 5.3-.1 9.3 0 13.2.1 2.9-.2 4.6-4 4.6-3.5 0-3.6-1.6-3.6-4.2.1-6.8-.1-13.6.1-20.4 0-1.5-1.3-4.1 1.3-4.6 2.3-.3 5-.8 6.9 1.7 1.7 2.3 3.8 4.3 5.4 6.6 1.8 2.6 3 2.3 4.7-.1 1.5-2.1 3.5-4 5-6.1 1.9-2.7 4.7-2.5 7.2-1.9 2.2.7 1.1 3.2 1.1 4.8.2 6.8-.1 13.7.2 20.5.1 3.3-1.3 3.8-4.1 3.9-3.1.1-3.5-1.3-3.5-3.9.2-4.1.1-8.2.1-13.7l-.2-.3z" class="st5"/><path d="M455.2 101.9c0-5.3.1-9 0-12.8-.1-2.6.1-4.4 3.6-4.3 3.3 0 3.8 1.3 3.7 4.1-.1 6.8 0 13.6-.1 20.4 0 1.5 1.3 4-1.4 4.5-2.2.3-4.4.5-6.3-1.8-4.3-5.3-9-10.2-14.4-16.4V109c0 2.5.9 5.1-3.7 5.1-4.8-.1-3.3-3-3.4-5.3-.1-6.3-.1-12.6 0-19 0-1.6-1.1-4.2 1-4.8 2.6-.7 5.4-.9 7.7 1.9 3.9 4.8 8.2 9.1 13.4 14.9l-.1.1zM400.1 96c0 6-.2 10.6 0 15.2.2 3.2-1.6 2.9-3.7 2.9-2.3.1-3.7-.1-3.6-3.1.2-7.1 0-14.3.1-21.4 0-1.6-1.3-4.2 1.4-4.6 2.3-.3 4.8-.8 6.8 1.6 4.1 4.9 8.5 9.5 13.8 15.4 0-5.4.1-9.5-.1-13.5-.2-2.8.6-3.8 3.5-3.7 2.6 0 3.8.5 3.7 3.6-.3 7.1 0 14.3-.2 21.4 0 1.4 1.2 3.7-1.4 4-2 .2-4.1.8-5.9-1.4-4.5-5.3-9.2-10.4-14.8-16.7l.4.3z" class="st3"/><path d="M469.3 142.9c-.1-.8-.1-1.7 0-2.5 1.4-3.9-3.5-10.8 2.6-11.6 16.7-2.1 25.4 2.7 26.3 12.4.8 8.8-4.1 15-13.2 16-4.3.5-8.7.3-13 .6-2.3.1-3-1-2.9-3v-12l.2.1z" class="st4"/><path d="M439.1 143.2c0-3.7.2-7.4-.1-11-.3-3.2 1-4 4-3.7 3.6.3 7.3 0 11 .5 7.4.9 10.1 7.6 5.4 13.3-1.3 1.6-1.7 2.4-.4 4.2 1.5 2 2.6 4.3 3.5 6.6.5 1.4 3 3.7.5 4.5-2.3.7-6 2.2-7.5-2.2-1-2.5-2.2-4.9-3.6-7.1-.9-1.4-2.3-2.6-4.2-2-2.1.6-1.2 2.5-1.3 3.8-.1 1.3-.1 2.7 0 4 .3 3-.7 4-3.9 4-3.4 0-3.8-1.5-3.7-4.2.1-3.4-.1-6.9-.1-10.4l.4-.3z" class="st6"/><path d="M529.8 113.7c-5.4 1.7-8.8.1-10.2-5.4-.4-1.1-.9-2.2-1.5-3.2-1-1.9-2.7-3.3-4.9-2.9-2.4.5-1 2.7-1.2 4.2-.2 1.3-.2 2.7 0 4 .5 3.4-1.3 3.6-4 3.7-3.3.1-3.7-1.1-3.6-4 .2-7.2.2-14.3 0-21.5-.2-3.3.8-4.1 3.8-3.9 3.6.2 7.3-.1 11 .1 3.3.1 6.2 2.1 7.3 5.2 1.1 3 .9 6-1.7 8.2-1.8 1.6-1.5 2.7-.2 4.5 2.2 3.3 3.9 6.9 4.9 10.7l.3.3z" class="st7"/><path d="M528.6 157.8c-2.1.1-3.8 0-4.8-2.5-1.1-2.8-12.1-4.8-14.4-2.7-.5.6-.9 1.4-1 2.3-1 4.5-4.6 3-7.3 2.9-1.7-.1-.8-1.8-.4-2.8 3.3-8.1 6.5-16.3 10-24.4 1.3-2.9 8.5-3 9.8-.1 3.8 8.1 7.4 16.3 11 24.5 1.7 3.7-1.2 2.7-2.9 2.8z" class="st3"/><path d="M144.4 490.4c2.1-8.5 4-15.5 5.7-22.7.5-2 1.3-3.8 3.5-3.1 2.7.8.7 2.9.4 4.1-2.2 8.2-4.6 16.3-6.9 24.5-.5 1.8-1 2.9-3.3 2.9s-2.3-1.5-2.6-3c-1.7-6.5-3.3-13.1-6-19.6-1.8 6.4-3.6 12.9-5.3 19.3-.5 1.9-.8 3.5-3.4 3.3s-2.3-2-2.6-3.5c-2.1-7.8-4.2-15.7-6.1-23.6-.4-1.4-2.2-3.7.8-4.4s2.9 1.9 3.4 3.8c1.5 6.8 3.3 13.6 5.6 20.2l5.2-19.9c.5-1.9.6-4.1 3.4-4s2.6 2.6 3 4.4c1.7 6.8 3.2 13.6 5 21.5l.2-.2z" class="st8"/><path d="M305.5 157.9c-2.5-.1-4.5.2-5-1.9-.9-3.9-3.5-4.2-6.7-3.9-4 .3-8.6-1.5-10.2 4.8-.5 2.1-4.3 1.4-6.3.7s-.2-2.6.3-3.8c2.9-7.4 6.1-14.8 8.9-22.2 1-2.5 2.5-3.2 4.9-3s4.8-.4 6.1 2.8c3.2 7.7 6.6 15.3 10.2 22.8 1.7 3.6.1 4-2 3.7h-.2z" class="st6"/><path d="M411.1 142.1c.7-4-2.4-10.6 1.3-13.2 3.4-2.3 9.6-.6 14.6-.3 2 .1 5.4-1.8 5.2 2.9-.1 1.9-.6 2.7-2.6 2.6-2.6-.2-5.3 0-8-.1-2.1-.1-3.5.2-3.4 2.9.1 2.4 1.1 3.1 3.4 3s4.3 0 6.5 0c1.8 0 3.7-.6 3.7 2.5 0 2.8-1.4 2.8-3.4 2.8-2.1 0-4.3.1-6.5 0-2.4-.2-3.6.4-3.6 3.2s1 3.9 3.8 3.7c2.5-.2 5 0 7.5-.1 2-.1 3.2.5 3.2 2.7s-.9 2.9-3 2.8c-5.3-.1-10.6-.2-15.9 0-2.3 0-2.8-1-2.7-3 .1-3.9.1-7.8.1-12.7l-.2.3z" class="st9"/><path d="M473.3 99.7c0-4 .1-8 0-12-.1-2.2.7-2.9 2.9-2.8 5 .1 10 .1 15 0 2 0 3.5.2 3.5 2.9 0 2.5-1.5 2.5-3.3 2.5-2.5 0-5 .1-7.5 0-2.1-.1-3.4.3-3.3 2.9 0 2.5.9 3.2 3.2 3 2.5-.2 5 .1 7.5 0 1.8-.1 2.8.4 2.8 2.5s-.3 3.3-2.7 3.2c-2.2-.1-4.4.1-6.5 0-2.5 0-4.3-.3-4.3 3.5s1.7 3.7 4.2 3.6h7c1.9 0 3.1.3 3.1 2.7s-.9 2.8-3 2.7c-5.3-.1-10.7-.1-16 0-2.4.1-2.8-1-2.8-3V99.8h.1l.1-.1z" class="st5"/><path d="M371.6 136.1c-3.1-1.2-6-2.5-9.2-2.4-1.6.1-3.3.2-3.8 1.8-.6 1.9 1.2 2.5 2.5 3.1 2.1 1 4.3 1.7 6.5 2.7 4 1.9 6.3 4.9 5.5 9.5-.8 4.4-4.1 6.2-8.1 7-3.7.7-7.2-.2-10.8-1.3-3.3-1-3.3-3.3-2.6-5.4 1-2.8 2.7-.2 4 .2 2.7.8 5.3 1.9 8.2.9 1-.3 1.9-.8 2-1.9.1-1-.5-2-1.5-2.4-2.3-1.1-4.6-2-6.9-3-4.2-1.8-7-4.7-6.4-9.6s4.5-6.6 8.9-7.3c2.5-.4 4.9.3 7.4.6 4.4.6 5.3 3 4.1 7.1l.2.4z" class="st7"/><path d="M387.8 145.7v-3.5c0-7.7 0-7.8-7.6-8-2.2-.1-3.3-.3-3.2-2.9.1-2.3.9-2.7 3-2.6 7.6.1 15.3.1 22.9-.1 2.4-.1 2.7 1 2.9 2.9.2 2.4-.9 2.6-2.9 2.7-7.7.4-7.7.4-7.7 8.4 0 4.1-.1 8.3 0 12.4 0 2.5-1.2 3.1-3.4 2.9-1.9-.2-4.2.5-4.1-2.8s0-6.2.1-9.4z" class="st10"/><path d="M732.9 479.9c0 4.5-.1 9 0 13.5.1 2.3-1.8 3.8-2.7 2.5-2.3-3.3-3.5-.5-5.2 0-4.1 1.2-7.9.9-10.8-2.8-3.1-4-3.5-11.2-.7-15.5s6.5-5.3 12.6-3.4c2 .6 2.4.1 2.5-1.6 0-2-.1-4 0-6 .1-1.5-.8-3.7 1.9-3.8 3-.1 2.3 2.3 2.3 4 .1 4.3 0 8.6 0 13l.1.1z" class="st11"/><path d="M750 550.1c2.5-4.9 3-9.2 4.4-13.2.5-1.6.8-4.1 3.3-3.4 2.9.8.6 2.9.3 4-1.5 5.3-3.2 10.5-4.9 15.7-.5 1.4-.8 2.9-2.8 2.9s-2.4-1.3-2.9-2.8c-1.4-4.3-2.8-8.7-4.6-14.1-1.8 5.3-3.3 9.4-4.6 13.6-.5 1.6-.8 3.2-3 3.3-2.4 0-2.4-1.9-2.9-3.3-1.7-5.2-3.3-10.4-4.8-15.7-.4-1.2-1.9-2.9.6-3.5 2.1-.5 2.9 1.1 3.3 2.8 1.2 4.7 2.4 9.4 3.8 15 1.8-5.5 3.2-10.2 4.8-14.8.4-1.3.8-3 2.8-3s2.2 1.8 2.7 3.1c1.4 4.1 2.6 8.2 4.2 13.6l.3-.2z" class="st12"/><path d="M648.8 489.7c1.4-4.3 2.7-8.5 4.2-12.8.5-1.5.3-3.5 2.8-3.5 2.6 0 2.7 2.3 3 3.9.6 4.4 2.2 8.4 4.4 13.2 1.4-5.1 2.6-9.3 3.9-13.5.5-1.9 1-4.5 3.7-3.4 2.6 1 .3 3-.1 4.2-1.4 5.1-3.2 10.1-4.9 15.2-.5 1.4-.5 3.2-3 3.1-2.2-.1-2.3-1.6-2.7-3-1.5-4.6-3-9.1-4.6-14.3-1.7 5.2-3.2 9.8-4.7 14.3-.5 1.4-.7 2.8-2.8 2.8s-2.4-1.3-2.9-2.7c-1.7-5.6-3.4-11.1-5-16.7-.4-1.2-1.2-2.7.9-3.2 1.7-.4 2.6.5 3.1 2.3 1.1 4.6 2.4 9.2 3.6 13.8l1.1.3z" class="st13"/><path d="M544.1 199.2v20.7c0 1.3.8 3.4-1.7 3.2-2.1-.1-1.3-1.9-1.3-3-.1-7.6-.1-15.3 0-23 0-1-.7-2.4.9-2.9s2.4.6 3.3 1.6l16.9 19.6c.4.5.8 1.1 1.1 1.7l1.2-.4c0-5.7-.2-11.3.1-17 .1-1.9-1.5-5.4 1.4-5.4 3.5 0 1.6 3.6 1.7 5.6.3 6.1.2 12.3.1 18.4 0 1.5 1 3.6-.8 4.5-2.5 1.1-3.5-1.3-4.8-2.7-5.9-6.6-11.6-13.2-18.2-20.9h.1z" class="st14"/><path d="M637.8 494.5c.3.5.1 1.1-.4 1.4-.1.1-.2.1-.4.1-1.1.2-2.4.6-3.2-.5-.5-.9-.8-1.8-1-2.8-2.2-6.3-5.2-7.9-11.7-6.5-1.9.4-2.1 1.8-2.6 3.2-.6 1.9-1.1 3.8-1.8 5.7-.5 1.4-1.9 1.2-3 1-2-.3-1-1.7-.6-2.7l9-26.4c.5-1.5 1.2-2.7 3.1-2.6 1.7.1 2.8.4 3.4 2.2 3 9 6.1 17.9 9.1 26.8l.3.9-.2.2z" class="st15"/><path d="M298 556.1c-1.7 0-1.9-.7-1.4-2.2 3.1-8.9 6.1-17.9 9.1-26.9.3-1.5 1.7-2.5 3.3-2.4 2 0 2.9.7 3.5 2.7 2.8 8.5 5.8 17 8.7 25.5.4.9 1.9 2.6-.4 3.2-1.5.3-3 .2-3.4-1.9-.1-.5-.2-1-.4-1.5-2.5-6.9-3.7-7.5-11.2-6.6-3.6.4-2.6 3.6-3.8 5.5-1 1.6-.4 4.7-3.7 4.4l-.3.2z" class="st16"/><path d="M516.7 193.8c9.2.1 15.6 6.3 15.5 15.1-.1 8.5-7.2 15-16 14.8-8.4-.1-15.1-6.9-15.1-15.3.2-8.4 6.8-14.7 15.6-14.6z" class="st17"/><path d="M615.2 534.7v-8.8c0-1.7.2-3.1 2.4-2.9 1.9.1 1.8 1.6 1.8 2.9 0 9.1.1 18.3.1 27.4 0 .9.3 2.1-.9 2.5s-2.2.4-2.6-1.3-1.4-.5-2.1-.2c-5.8 2.7-10 2.3-13-1.3-3.2-3.9-3.3-11.7-.2-16s7-5.1 13.3-2.6c.5.1 1 .1 1.5 0l-.3.3z" class="st18"/><path d="M178 540.4c.3 3.5-.3 7-1.7 10.2-1.7 3.7-4.4 5.8-8.5 5.8-3.8.2-7.3-2.1-8.5-5.8-2.4-5.6-2.6-11.8-.7-17.6 1.5-4.5 4.1-7.7 9.2-7.8 4.6-.1 7.7 2.6 9.3 8.1.7 2.2.9 4.6.7 6.9l.2.2z" class="st19"/><path d="M381.1 193.8c8.8-.1 15.6 6.3 15.6 14.7s-7 15.3-15.8 15.2c-8.4 0-15.2-6.7-15.4-15.1 0-8.5 6.6-14.7 15.6-14.8z" class="st20"/><path d="M333.3 199.8v20.1c0 1.3.8 3.4-1.8 3.2-2.2-.1-1.3-2-1.3-3.1-.1-7.5-.1-15 0-22.5 0-1.2-.9-2.9 1.1-3.4 1.5-.4 2.4.8 3.3 1.8 5.7 6.5 11.3 13 17 19.5.4.5.9.9 2.2 2.1 0-7.1-.1-13.3 0-19.5 0-1.5-1-3.9 1.6-3.9s1.4 2.5 1.5 3.8c.1 7.1.2 14.3.1 21.5 0 1.1 1 2.8-.8 3.4s-2.8-.8-3.8-1.9l-16.6-19.3c-.5-.6-1.1-1.1-2.3-2.2l-.2.4z" class="st21"/><path d="M209.9 538.3c4-1.4 6.8-3.1 10.3-1.3 4.7 2.5 6.6 5.4 5.9 10.7-.6 4.7-3.9 8.1-8.3 8.7-5.4.7-9.1-1.4-11.2-6.1-4.3-10.2 1.5-22.2 11.9-24.3 1.5-.3 4-1.9 4.5.9.4 2.4-2 2-3.6 2.4-4.6 1-7.6 3.7-9.6 9.2l.1-.2z" class="st18"/><path d="M296.5 199.4v20.7c0 1.3.3 3-1.6 3s-1.4-1.9-1.4-3.1c-.1-7.5-.1-15 0-22.5 0-1.2-.5-2.9 1.3-3.4 1.6-.4 2.4.9 3.3 1.9 5.5 6.3 10.9 12.6 16.3 18.9.6.7 1 2 2.2 1.6s.6-1.8.6-2.7c.1-5.5 0-11 .1-16.5 0-1.3-1-3.4 1.7-3.2 2.2.1 1.3 1.9 1.3 3 .1 7.5.1 15 0 22.5 0 1.1.9 2.9-1 3.4-1.4.4-2.4-.8-3.3-1.8-5.3-6.2-10.7-12.4-16-18.5-.8-.9-1.6-1.7-3.2-3.5l-.3.2z" class="st22"/><path d="M338.1 475.2c1.4.5 2-.6 2.8-1 5.9-2.8 11.4 0 12.1 6.5.5 4.3.1 8.6.1 13 0 1.5-.3 2.5-2.2 2.5s-2-1.3-2-2.7v-11c0-3.6-1.7-6-5.4-5.8-3.3.2-5.4 2.3-5.5 5.9s0 7 0 10.5c0 1.5.1 3-2.2 3s-2-1.8-2-3.2v-27c0-1.6 0-3.2 2.2-3 1.8.1 1.9 1.4 1.9 2.8-.1 3.1-.1 6.3-.1 9.3l.3.2z" class="st23"/><path d="M682.1 535.6c10.3-5 15.1-1.9 15.1 9.1v8.5c0 1.6 0 3.1-2.3 2.9-1.9-.2-1.9-1.5-1.9-2.9 0-3.3.2-6.7 0-10s-.9-6.9-5.1-6.7-5.9 3.1-5.8 7.2v9.4c0 1.3 0 2.7-1.9 2.8-2.3.1-2.3-1.4-2.3-3V526c0-1.4-.3-3.2 2-3.3s2.2 1.5 2.2 3.2c-.1 3 0 6.1 0 9.4v.3z" class="st24"/><path d="M430.4 484.4v-8.5c0-1.6 1.4-3.2 2.2-2.3 2.9 3.5 4.9.1 7.2-.4 5.2-1.1 9.5 1.8 10.1 7.5.5 4.3.1 8.6.2 12.9 0 1.6-.5 2.4-2.3 2.4s-2.1-1.1-2.1-2.6c0-3.5-.1-7 0-10.5s-1-6.6-5-6.5-5.7 2.8-5.5 6.8c.1 3.3 0 6.6 0 10 0 1.8-.3 2.9-2.4 2.8s-1.9-1.5-1.9-2.8v-9h-.1l-.4.2z" class="st25"/><path d="M382.1 99.4c0 4-.2 8 0 12s-2.5 2.6-4.3 2.7-3.8.5-3.7-2.7c.2-8.1.3-16.3 0-24.4-.1-3.9 2.5-2.6 4.4-2.7s4-.5 3.8 2.8c-.2 4.2 0 8.3 0 12.5l-.2-.2z" class="st3"/><path d="M280.6 556.5c-.9-.2-3-.6-5.1-1.1-.9-.2-1.5-1.1-1.3-2.1 0-.1 0-.2.1-.3.4-1.2 1.4-1.3 2.4-1 2.3 1 4.8 1.4 7.3.9 2.2-.5 4.1-1.6 4.4-4.2s-.5-4.6-3-5.7c-1.8-.8-3.6-1.8-5.4-2.6-4-1.9-6.4-4.9-5.4-9.5s4.5-6.3 8.8-6.7c.7-.1 1.3-.1 2 0 2.1.4 5.6-.3 5.3 2.7-.3 2.8-3.2.7-5 .8-2.9.1-5.9-.2-6.8 3.5s1.5 5.1 4.3 6.3c.9.4 1.8.9 2.7 1.3 5.8 2.9 7.7 6.1 6.6 10.8s-4.7 6.8-11.9 6.9z" class="st26"/><path d="M578.4 484.5V476c0-1.5 1.2-3.4 2-2.4 2.9 3.6 4.9.1 7.2-.4 5.1-1.1 9.3 1.5 10 7 .5 4.4.2 9 .3 13.5 0 1.7-.7 2.4-2.4 2.4s-1.8-1.1-1.8-2.3l-.2-11.5c0-3.2-1.4-5.6-4.9-5.6s-5.5 2-5.6 5.7c-.1 2.4.3 4.8-.1 7s2.3 6.8-2.2 6.6c-4-.1-1.4-4.4-2-6.8-.2-1.5-.2-3 0-4.5l-.3-.2z" class="st27"/><path d="M265 527.7c-4.3.1-7.8-.7-8.9 3.2-1.2 4 1.8 5.6 4.8 7 1.5.6 3 1.3 4.5 2.1 3.1 2 5 4.8 4.4 8.8s-3.2 6.4-7.1 7.4c-3.3.8-6.7.6-9.8-.5-1-.2-1.7-1.2-1.6-2.2 0-.2.1-.4.2-.5.5-1.2 1.5-1 2.5-.7 2 .8 4.2 1.2 6.3 1 2.4-.3 4.5-1.1 5-4s-.2-5-2.9-6.2c-1.9-.9-3.9-1.7-5.8-2.7-4.8-2.6-6.5-7.6-3.9-11.7 2.5-3.8 11-5.8 14.5-3.3.8.4 1.2 1.3.9 2.1-1.1 2.4-2.8.5-2.9.5l-.2-.3z" class="st28"/><path d="M724.3 544.9c0 6.9-4.4 11.5-10.9 11.6-6.7 0-11.1-4.4-11.1-11.3 0-7.2 4.5-12 11.1-12.1 6.7-.1 10.9 4.5 10.9 11.8z" class="st29"/><path d="M573.2 484.8c0 7-4.6 11.8-11.3 11.7-6.2-.1-10.8-5.1-10.7-11.7.1-6.9 4.8-11.7 11.5-11.7s10.6 4.6 10.5 11.7z" class="st30"/><path d="M268 484.4c.1-6.8 4.8-11.5 11.1-11.3 6.8.1 11 4.9 10.8 12.1-.2 7-4.9 11.6-11.7 11.3-6.3-.2-10.3-4.9-10.2-12.1z" class="st31"/><path d="M466.3 473.1c6.3 0 10.7 4.5 10.8 11.1.1 7.3-4.6 12.4-11.3 12.3-6.5-.1-10.8-4.7-10.7-11.7 0-7.2 4.3-11.7 11.2-11.7z" class="st32"/><path d="M141.3 552.1c2.8 1.3 5.6.3 8.4.7 1.3.2 3.4-.8 3.5 1.5s-1.9 1.8-3.3 1.8h-13c-1.1 0-2.6.3-2.9-1.2-.3-1.2.5-2 1.4-3 3.6-3.7 7.6-7 10.5-11.2 2.1-3 3.4-6.5 1.2-9.8s-5.8-2.6-9-1.2c-1.1.5-2.2 1.1-2.9-.4s.6-2.1 1.5-2.7c3.6-2.5 10-2.2 13.1.8 3.6 3.4 3 7.5 1.4 11.5-1.2 3.1-3.6 5.5-5.9 7.9-1.4 1.5-3.4 2.6-4.1 5l.1.3z" class="st33"/><path d="M520.2 487.1c.1 1.2.1 2.3 0 3.5-.3 2.6 1.9 8-4.5 4.1-.5-.3-1.7.8-2.6 1.1-4.5 1.6-8.8.1-10.2-3.4-1.6-4.2.8-8.2 5.9-9.8 1.3-.4 2.6-.6 3.9-.9s3 .2 3.1-1.6c.1-1.8-1.1-3.3-2.8-3.8-1.7-.6-3.6-.5-5.4.1-1.2.4-2.8 1.2-3.3-.7s1.4-2 2.6-2.4c7.6-2.7 12.9.9 13.1 9v4.5l.2.3z" class="st34"/><path d="M691.9 487.4v4.5c0 3.9 0 3.9-4.1 2.7-1.2-.4-1.7.6-2.6 1-5 2-9.6.6-10.8-3.5s1.3-8.2 6.4-9.6c1-.3 2-.4 2.9-.6 1.4-.4 3.9.7 3.7-2-.1-2.1-1.9-3.8-4-3.8-1.5-.2-3 0-4.4.5-1 .4-2.4 1-2.8-.8-.3-1.5 1.1-1.8 2.2-2.3 7.4-3 13.2.7 13.4 8.6v5l.1.3z" class="st35"/><path d="M456.3 222c-.1.8-.9 1.4-1.7 1.2-.3-.1-.6-.2-.9-.4-.8-.8-1.4-1.9-1.7-2.9-1.2-4.9-4.2-5.9-9-6.1-5.6-.1-8.7 1.4-10 6.8-.3 1.3-.9 3.3-2.9 2.4-2.3-1-.4-2.6.1-3.6 3.2-7.6 6.6-15.1 10-22.7.5-1.2.7-2.8 2.4-2.7 1.3.1 1.6 1.5 2.1 2.5l10.6 23.5c.2.6.5 1.2.9 1.9h.1z" class="st36"/><path d="M475.7 545.7c-1-.1-2-.1-3 0-1.6.2-4.2-1.2-4.6 1.4-.4 2.4 1.2 4.4 3.6 5.4 2.6 1 5.3.6 7.9.3 1-.1 2-.4 2.3 1 .2 1-.4 1.4-1.2 1.9-3 1.6-11.1.5-13.8-2-3-2.8-4.3-9.6-2.3-14s5-7 10.1-6.7c5.1.2 9 4.4 8.8 9.5v.5c-.1 2-1 2.6-2.8 2.5-1.7-.1-3.4 0-5 0v.2z" class="st37"/><path d="M511.1 545v-7c0-4.3 0-4.3 4.1-2.7 1.3.5 1.7-.6 2.5-1 6.5-3.2 12.1-.2 12.6 7.1.3 3.8.1 7.7.2 11.5 0 1.6.3 3.1-2 3.2s-2.2-1.3-2.2-3v-10.5s-1.4-6.1-5.1-6.1c-3.4 0-5.4 2.4-5.6 5.9s-.1 7-.1 10.5c0 1.5.2 3.1-2.1 3.2s-2.1-1.6-2.1-3.1v-8h-.2z" class="st38"/><path d="M406.9 553.2c1.2 1.4 4.6-2.7 4.7 1 .1 2.7-3.7 2.1-5.8 2.2-7.4.5-12.2-4.1-12.3-11.2 0-7.4 4.9-12.6 11.5-12.2 5 .4 8.8 4.8 8.5 9.9-.1 2.3-1.3 2.7-3.3 2.7-2.8-.1-5.6 0-8.5.1-1.2 0-3-.6-3.6.9s.3 3.2 1.5 4.5c1.9 2.2 4.4 2 7.3 2.1z" class="st39"/><path d="M169.1 484.4V478c0-4.3 0-4.3 4-2.5 1.3.6 1.7-.6 2.4-1 6.5-3.3 12.3-.3 12.7 7 .3 4 .1 8 .1 12 0 1.4 0 2.7-1.9 2.8-2.2.1-2.3-1.3-2.3-2.9v-11c0-3.3-1.5-5.5-5-5.5s-5.6 2-5.8 5.5 0 7-.1 10.5c0 1.5.7 3.6-2.2 3.5s-1.9-2.2-1.9-3.6v-8.4z" class="st40"/><path d="M636.9 556.5c-8.3-.1-12.6-4.6-12.3-12s5-12 11.5-11.5c3.2.2 6.1 2.2 7.3 5.2 2.4 5.3 1.2 7.2-4.6 7.4-2 .1-4 0-6 .1-1.4.1-3.3-.8-3.9 1.2-.6 1.7.5 3.2 1.7 4.5 2.5 2.7 5.8 1.9 8.9 1.7 1.2-.1 2.8-1.1 3.1 1 .2 1.8-1.6 1.9-2.8 2.2s-2.6.4-3.2.5l.3-.3z" class="st41"/><path d="M504.4 547.8v4c0 2.8 1.1 6.8-3.9 2.9-1-.8-1.7.5-2.6.9-4.9 2.1-9.3 1-10.6-2.8-1.6-4.6.7-8.5 6-10.2 1.1-.3 2.3-.4 3.4-.7s3.3.6 3.3-1.9c0-2-1.3-3-2.9-3.6-2-.5-4-.3-5.9.5-.8.5-1.8.3-2.3-.5-.1-.1-.2-.3-.2-.5-.5-1.3.6-1.7 1.5-2.1 6.2-2.3 14.2-.6 13.9 7.9-.1 2 0 4 0 6l.3.1z" class="st42"/><path d="M103.5 547.4v4c0 2.7 1.7 7.3-4 3.3-1-.7-1.8.5-2.7.9-4.8 1.9-9.2.6-10.6-3.2-1.6-4.3.8-8.2 5.9-9.8 1.1-.4 2.3-.3 3.4-.6s3.4.6 3.4-1.8c.1-1.9-1.3-3.7-3.2-4-1.8-.4-3.6-.2-5.3.6-.9.3-2 .6-2.4-.8-.3-1.2.3-1.8 1.4-2.2 6.8-2.3 14.3-.7 13.9 8.4v5h.2v.2z" class="st43"/><path d="M593.4 547.7v4c.2 3 1.1 6.7-3.9 3-1.2-.9-2 .8-3 1.2-4.4 1.6-9 .1-10.3-3.3-1.6-4.3.4-7.8 5.4-9.6 1.2-.4 2.5-.7 3.8-1 1.4-.3 3.8.6 3.5-2.2-.1-1.9-1.7-3.4-3.6-3.5-1.5-.1-3 .1-4.5.5-1.1.2-2.5 1-3-.5-.6-1.8 1-2.1 2.3-2.5 7.6-2.6 12.7.8 13 9 .1 1.7 0 3.4 0 5h.3z" class="st44"/><path d="M194.9 484.6v-9c0-1.3 1.1-3 1.8-2.1 2.9 3.6 5.1.2 7.5-.3 4.6-1 9 1.5 9.6 6.3s.3 9.6.4 14.5c0 1.4-.6 2.1-2.1 2.1s-2-.7-2-2.1v-10.5c0-3.7-.9-7-5.3-6.8-4 .1-5.7 2.8-5.6 6.8.1 3.2 0 6.3 0 9.5 0 1.4.4 3.1-2 3.2s-2.2-1.4-2.2-3l-.1-8.6z" class="st33"/><path d="M404.9 484.5c0-2-.1-4 0-6 .1-1.6-.9-3.6.7-4.7 1.7-1.2 2.4.5 3.2 1.9.4.6 1.6-.6 2.5-1.1 6.7-3.5 12.5-.3 12.9 7.3.1 4 0 8 0 12 0 1.3-.2 2.3-1.8 2.3s-2.4-.7-2.4-2.3v-8c-.1-3.9.8-8.5-5-9.1-4.2-.3-5.9 2.5-5.9 9.5v7.5c0 1.6-.3 2.6-2.2 2.5s-2-1.2-2-2.6l-.1-8.9.1-.3z" class="st45"/><path d="M369.7 485.5c-.8-.1-1.7-.1-2.5 0-1.6.3-4.2-1.2-4.5 1.5-.2 2.3 1.1 4.4 3.1 5.3 2.7 1.3 5.5.9 8.3.4 1.1-.2 2.1-.2 2.3 1.1.1.9-.5 1.7-1.3 1.9-3.4 1.7-10.8.6-13.7-2.1-3.2-2.9-4.2-9.4-2.2-14s5.6-6.9 10.7-6.5c4.9.4 8.8 5.3 8.4 10.1-.2 1.7-.8 2.4-2.5 2.3h-6v.1l-.1-.1z" class="st46"/><path d="M231.7 485.5c-1.1-.1-2.3-.1-3.4 0-1.6.3-4.2-1.1-4.7 1.3s1.2 4.4 3.4 5.5c2.7 1.3 5.6.8 8.4.5.8-.1 1.8-.2 2 .8.2.8-.2 1.6-1 2-2.7 1.7-10.5.7-13.3-1.7-3.6-3-4.8-8.8-3-13.8 1.8-4.7 5-7.3 10.2-7.3 2.9-.1 5.6 1.4 7.2 3.9 1.6 2.3 2.9 5.3 1.4 7.5-1.5 2.5-4.8.7-7 1.2l-.2.1z" class="st47"/><path d="M295.2 486.1c-1.1-3 2.3-7.5-2.6-10.1-.3-.5-.3-1.2-.1-1.8 3.7-1.2 2.6-4.8 3.8-7.3 1.5-3.2 4.2-4.6 7.6-4.6 1.3 0 2.9 0 2.8 1.9 0 1.6-1.3 1.7-2.6 1.6-1.7-.3-3.4.7-4 2.3-.9 2.4-2 5.1 2.4 5 1 0 2.1.2 2.2 1.5.1 1.6-1.1 2-2.3 1.8-3.4-.3-3.3 1.8-3.2 4.1.1 3.8.1 7.6 0 11.5 0 1.5.7 3.6-2 3.7-3.2.1-2.1-2.3-2.2-3.9-.1-1.8 0-3.6 0-6l.2.3z" class="st48"/><path d="M489.8 491.5l5.2-14.9c.6-1.8 1.2-3.9 3.6-3 2.8.9.7 2.8.2 4-2 5.3-4.1 10.5-6.2 15.8-.5 1.4-.7 2.8-2.9 2.8-1.9 0-2.5-.9-3.1-2.5-2.1-5.6-4.3-11.2-6.4-16.8-.4-1-1.8-2.6.4-3.3 1.9-.6 3 .2 3.7 2.3 1.6 4.8 3.4 9.7 5.5 15.6z" class="st49"/><path d="M414.2 216.6l8.4-19.8c.6-1.4 1-3.4 2.9-2.6 2.3 1 .2 2.6-.2 3.6-3.4 8.4-7 16.8-10.8 25.8-3.1-4.5-4.3-9.2-6.3-13.5s-3.8-8.9-5.6-13.3c-.4-1-1.5-2.3.3-2.9 1.4-.5 2 .6 2.5 1.8 2.8 6.5 5.6 13.1 8.8 20.6v.3z" class="st50"/><path d="M527.1 483.4c-.6-1.7 2.3-5.8-2.7-7.2-.2-.5-.3-1.1-.2-1.7 3.2-.9 2.9-3.9 3.8-6.1.2-.5 1.3-.8 2.1-.9.8 0 1.4.6 1.4 1.3v.3c-.4 3 .7 4.7 4 4.3.8-.1 1.5.5 1.6 1.3v.2c.1.8-.5 1.6-1.3 1.7h-.6c-3.9-.5-3.8 2.1-3.8 4.6 0 2.1-.2 4.3-.1 6.4.1 2.5.1 5.1 3.7 5.2.9 0 1.7.7 1.7 1.6v.3c-.1 1.3-1.3 1.3-2.2 1.4-3.7.2-6.7-.6-7.1-5-.3-2.3-.4-4.6-.7-8l.4.3z" class="st51"/><path d="M319.2 484.3c-.4-2.9 1.8-6.8-2.8-8.3-.1-.6-.1-1.2 0-1.8 4.6-.1 1.3-6.7 5.6-6.9.8-.1 1.6.4 1.7 1.2v.7c-.5 3 .6 4.3 3.7 4.1.9-.1 1.8.5 1.9 1.4.1.9-.5 1.8-1.4 1.9h-.6c-3.5-.5-3.7 1.7-3.6 4.3 0 2.1-.2 4.3-.1 6.4 0 2.7 0 5.5 4 5.6 1.2 0 1.6 1 1.5 2.1s-1.1 1-1.9 1.2c-4.1.8-6.8-.9-7.5-5.2-.3-2.3-.5-4.7-.6-7l.1.3z" class="st52"/><path d="M553.8 556.4c-3.6 0-5.7-1.8-5.9-5.4-.2-3.3 0-6.6-.1-10-.1-1.8.8-4.2-2.4-4.5-.7 0-1.3-1.2-1.1-1.3 3.5-1.5 2.7-6.1 5.7-7.8 1.6-.8 2 .3 1.9 1.7-.2 2.7.2 4.7 3.6 4.1.9-.2 1.8.4 2 1.2v.3c0 1.6-1.3 1.9-2.5 1.8-3.3-.4-3.4 1.6-3.3 4 .1 2.8.1 5.6 0 8.4-.1 2.1.6 3.5 2.9 3.8 1.1.1 2.7-.1 2.5 1.6-.2 2-2.1 1.7-3.6 1.7l.3.4z" class="st53"/><path d="M380.9 544.4c-.9-2.6 2.2-7-3.1-8.3-.2-.6-.2-1.2-.2-1.8 4.3-.3 2.3-8.1 5.8-6.4 2.3 1.1 3.4 5.8 7.2 7.2.6.2-1 1.9-2.2 1.7-3.6-.6-3.7 1.5-3.5 4.1s.1 5 0 7.5.2 4.8 3.5 4.8c1.1 0 1.9.6 1.7 1.8s-1.3 1.3-2.3 1.4c-4.1.6-6.7-1.5-7-5.7 0-2 .1-4 .1-6.3z" class="st54"/><path d="M665.1 556.4c-.8 0-1.5 0-2.3-.2-1.7-.5-4.8.4-4.3-2.6.5-2.8 2.7-.4 4.1-.4 2.1 0 4.7.7 5.5-2 1-3.2-1.6-4.3-4-5.3-3.8-1.6-6.7-4-5.1-8.7 1.1-3.3 6.1-5 10.3-3.7 1 .3 2.6.3 2.2 2-.3 1.5-1.3 1.6-2.7 1.2-2.3-.7-4.9-1.3-5.8 1.8s2.1 3.7 4.1 4.6c3.7 1.7 6.5 4 5.4 8.4-1 4.1-4.4 5.1-7.4 5v-.1z" class="st55"/><path d="M117 556.4c-3.7-.2-6-1.9-6.1-5.8-.1-3.5 0-7-.1-10.4 0-1.4.4-3-1.8-3.4-1.4-.2-2.1-2.2-1.3-2.3 4.4-.5 2.3-8.6 5.7-6.5 2.3 1.5 4.1 5.3 7.2 7.4.7.5-1.7 1.6-2.9 1.4-2.4-.4-2.8.9-2.8 2.9.1 3.3.1 6.6.1 9.9 0 2 .6 3.3 2.6 3.6 1.3.2 2.9 0 2.5 2.1s-2.1 1.1-3.2 1.4l.1-.3z" class="st56"/><path d="M445.4 536.5c-5.8-.5-9.4 2.6-9.4 8.2 0 5.8 3.4 8.8 9.7 8.3 1.2-.1 3.2-1.7 3.4 1.1.1 2.1-1.9 2-3.3 2.2-4.9.7-9.5 0-12.3-4.5-2.7-4.3-2.5-8.9-.1-13.2 2.6-4.6 7-5.7 12-5.3 1.6.1 3.8-.1 3.6 2.2-.3 2-2.3 1.4-3.6 1z" class="st57"/><path d="M397.7 480.1v12.4c0 1.5.6 3.5-2.1 3.6s-2.4-1.6-2.4-3.3v-25.3c0-1.4-.3-3.2 2-3.2s2.4 1.5 2.4 3.4c-.1 4.1 0 8.3 0 12.4h.1z" class="st58"/><path d="M469.9 194.1h9.5c1 0 2.6-.5 2.5 1.5-.1 1.3-1.1 1.4-2.2 1.5-2.6.2-6.1-1.2-7.6.6-2 2.4-.6 6.1-.7 9.2-.1 4 .1 8-.1 12-.1 1.5 1.4 4.3-1.7 4.2-2.6 0-1.4-2.6-1.4-4-.1-5.8-.3-11.7 0-17.5.3-3.8-.8-5-4.6-4.8-1.9.1-5.6 1.7-5.6-1.6 0-2.6 3.5-.9 5.4-1.2 2.2-.2 4.4-.2 6.5-.1v.2z" class="st59"/><path d="M357.1 534.1c1 .1.6 2.3 2.8 1 7.8-4.5 13.3-1.1 13.5 7.9.1 3.3.1 6.7.2 10 0 1.4.4 3.1-2 3.2-2.6.1-2.5-1.6-2.5-3.3 0-3.2-.1-6.3 0-9.5s-.5-6.3-4.3-6.7-5.7 2-6.5 5.5l-.3 2c-3.7-2.5-4.1-5.8-.9-10.1z" class="st60"/><path d="M194.9 540.9c0 3.6.1 7.3 0 10.9-.1 1.6 1.1 4.1-1.9 4.2s-2.1-2.4-2.1-4c-.1-6.1-.1-12.3-.1-18.4 0-2.2.1-4.4-3.1-2.3-.9.6-1.9.8-2.5-.3-.5-.7-.4-1.6.3-2.2h.1c2.2-1.1 4.2-2.7 6.7-3s2.6 1.4 2.6 3.2v11.9z" class="st61"/><path d="M562.3 544.5V536c0-1.5 1.1-3.5 1.9-2.6 2.8 3.1 4.8.5 7.1-.3.8-.4 1.9-.1 2.3.7 0 .1.1.2.1.3.3 1 .3 2.4-.7 2.6-8 1.4-5.6 7.6-6.3 12.6-.3 2.3 2.3 6.7-2.4 6.6-4-.1-1.5-4.2-2-6.4-.1-1.7-.1-3.4 0-5z" class="st62"/><path d="M418.3 544.5V536c0-1.5 1.2-3.4 2-2.5 2.8 3.3 4.8.2 7.1-.3 1-.2 2.1-.2 2.4 1.1.3 1 .3 2.4-.8 2.6-7.4 1.1-5.9 6.7-6.1 11.5-.1 1.6-.1 3.3 0 5s-.4 2.8-2.5 2.8-2-1.3-2-2.7v-9h-.1z" class="st63"/><path d="M698.3 484.6v-8.4c0-1.7 1.4-3.8 2.2-2.6 2.7 3.8 4.2.5 6.2-.3 1.1-.4 2.4-.6 3 .8.5 1.2.2 2.5-1.2 2.8-5.7.9-5.7 5.1-5.6 9.4v7.4c0 1.6-.6 2.4-2.3 2.4s-2.1-1-2.1-2.5v-8.9h-.1l-.1-.1z" class="st64"/><path d="M454.1 539.5v-13.4c0-1.6 0-3.1 2.2-3.1s2 1.8 2 3.2c0 9 0 17.9.1 26.9 0 1.6 0 3-2.2 3s-2-1.7-2.1-3.2v-13.4z" class="st65"/><path d="M346.9 540.1v13c0 1.6 0 3-2.3 3-1.9-.1-2-1.4-2-2.8v-26c0-1.4 0-2.8 1.9-2.8 2.2 0 2.3 1.4 2.3 3.1l.1 12.5z" class="st66"/><path d="M245.1 540.4v13c0 1.3.1 2.7-1.9 2.8-2.3.1-2.2-1.4-2.2-2.9v-25.4c0-1.5-.2-3.2 2.1-3.1s2 1.8 2 3.2v12.4z" class="st67"/><path d="M244.1 484.4V476c0-1.6 1.2-3.3 2-2.4 2.6 3.1 4.3.4 6.4-.2 1.1-.4 2.4-.9 2.8.9.2 1 .2 2.3-.9 2.5-6.5 1.1-5.9 6.2-6 10.8-.1 1.8 0 3.6-.1 5.5 0 1.5.2 3-2.2 3s-1.9-1.8-1.9-3.2c-.1-2.9-.1-5.7-.1-8.5z" class="st68"/><path d="M284.1 208.6v13c0 1.4 0 2.6-2 2.6s-2-1.2-2-2.6v-25c0-1.5.1-2.5 2.1-2.5s2 1.2 2 2.6l-.1 11.9z" class="st69"/><path d="M493.1 209.5v12c0 1.3.2 2.6-1.9 2.6s-2.1-1-2.1-2.5v-24.9c0-1.4-.1-2.6 1.9-2.7 2.4-.1 2.1 1.6 2.1 3v12.5z" class="st70"/><path d="M324.8 558.1c-1.4-.2-1.5-1.1-1.1-2.2l11.7-30.1c.5-1.2 1.3-2.1 2.6-1.6 1.9.7.5 2 .2 2.8-3.5 9.3-7.1 18.5-10.7 27.8-.5 1.2-.7 3-2.7 3.1v.2z" class="st71"/><path d="M541.9 484.6v-9c0-1.4.5-2.2 2-2.2 1.1-.1 2 .7 2.1 1.7V494c0 1.5-.6 2-2.1 2.1s-2.1-.6-2.1-2.1l.1-9.4z" class="st72"/><path d="M158.1 484.8v-9c0-1.7.9-2.4 2.5-2.4s1.8 1.3 1.8 2.5v17.9c0 1.4-.3 2.2-1.9 2.3s-2.3-.6-2.3-2.3c.1-3 0-6-.1-9z" class="st73"/><path d="M357.1 534.1c-.9 3.5-2.3 7 1 10l.2 9.4c0 1.5-.2 2.6-2.2 2.5-1.5-.1-1.9-1-1.9-2.3 0-6.2-.1-12.3 0-18.5 0-2.4 1.3-2.3 2.9-1.3v.2z" class="st74"/><path d="M763.6 550.9c1.8.1 2.7 1 2.7 2.8 0 1.5-.6 2.6-2.3 2.7s-2.9-.5-3-2.4.9-2.9 2.6-3.1z" class="st75"/><path d="M546.4 466.9c0 1.5-.6 2.6-2.2 2.7-1.3.2-2.5-.7-2.7-2v-.3c-.3-1.2.5-2.4 1.7-2.6.2 0 .4-.1.5 0 1.3-.2 2.5.7 2.7 1.9-.1.1-.1.2 0 .3z" class="st76"/><path d="M162.8 467.2c0 1.3-1 2.4-2.3 2.5h-.2c-1.2.1-2.3-.8-2.4-2.1v-.4c-.1-1.2.7-2.3 1.9-2.4h.5c1.3-.1 2.4.9 2.5 2.2v.2z" class="st77"/><path d="M384 355.8c-.1-3.7.3-7.4 1.3-11 1.7-6.8 6.2-10.4 13.1-10.6 6.5-.3 11.1 2.7 13 9.4 2.8 10 3.1 20.2-.8 30.2-2.1 5.3-6.3 7.4-11.7 7.5s-9.5-2-12-7.1c-2.5-5.5-2.6-11.3-2.7-18.4h-.2z" class="st78"/><path d="M552.1 370.6c0 7-3.9 11.2-10.4 11.3-8.3.1-12-6.8-13.3-14.1-.6-3.3 7.3-7.6 13.1-7.5 6.8 0 10.6 3.7 10.6 10.3z" class="st79"/><path d="M537.5 261.1c-.1-1.3-.1-2.7 0-4 .5-2.8-1.8-7.2 1.3-8.1 4.4-1.3 9.1-.5 12.8 2.2 4.3 3.2 5.5 12.6 2.5 18-2.3 4-10.3 6.7-15.1 5.1-1.8-.6-1.5-2-1.5-3.2v-10z" class="st80"/><path d="M484.8 253.1c.9-1.5-2-5.6 3.1-5 3.6.4 7.7.3 8 5.4.3 3.6-2.5 5.4-7.8 5.3-3.3 0-3.3 0-3.3-5.7z" class="st81"/><path d="M434.9 251.5l6.1 15.1c-.2.2-.4.3-.7.4-12.4.8-12.4.8-7.6-10.7.6-1.4 1.3-2.7 2.2-4.8z" class="st82"/><path d="M302.5 251.5c1.1 2.3 1.9 3.7 2.5 5.2 4.7 11.5 4.6 11.6-8.5 10l6-15.2z" class="st83"/><path d="M480.6 152.1c-3.4.9-4.1-1-3.9-4.3.3-3.1.3-6.3 0-9.4-.4-3.7 1.2-4.5 4.5-4.3 6.4.4 9.9 3.6 9.7 9.4-.1 5.6-3.6 8.6-10.3 8.6z" class="st79"/><path d="M449.5 140.7c-3.1.4-3-1.6-3.1-3.8-.1-2.4.8-3.3 3.2-3.1s4.6.2 4.7 3.1c.1 3.3-2.5 3.4-4.8 3.6v.2z" class="st84"/><path d="M514.5 97c-2.6.6-2.5-1.4-2.5-3.3 0-2.2-.1-4 3-3.6 2.3.3 4.6.5 4.6 3.3.1 3-2.3 3.5-5.1 3.6z" class="st85"/><path d="M515.5 136.4c1.6 1.6 2.1 3.6 2.8 5.4 2.3 5.5 2.3 5.5-3.7 5.2-2.2-.1-3.2-.5-2.3-2.8l3.2-7.8z" class="st86"/><path d="M291.6 136.4c2.2 1.9 2.2 4.3 3.3 6.1 2.5 4.2.5 4.8-3.4 4.7-3.1-.1-4.4-.6-2.6-3.9 1.1-2.3 2-4.6 2.7-6.9z" class="st87"/><path d="M728.5 484.5c0 5.9-2.2 8.8-6.4 8.7-3.8-.1-6.1-3.1-6.2-8.1 0-5.3 2.7-8.8 6.7-8.7s5.9 2.8 5.9 8.1z" class="st88"/><path d="M624.8 469.1c1.4 3.9 2.2 6.6 3.4 9.1 1.7 3.8.9 5.1-3.5 5-3.8-.1-4.6-.9-3-4.4 1.3-2.7 1.9-5.6 3.1-9.7z" class="st89"/><path d="M304.5 542.7L309 529c1 3.1 1.6 4.9 2.2 6.7 2.5 8 2.5 8-6.7 7z" class="st90"/><path d="M516.9 196.9c7 .1 12.3 5.3 12.1 11.9-.2 6.7-5.7 11.9-12.4 11.8-6.5.1-11.9-5.2-12-11.7v-.4c.2-6.9 5.2-11.7 12.3-11.6z" class="st80"/><path d="M615.2 544.8c0 5.5-2 8.3-6.2 8.3s-6.6-3.2-6.6-8.2 3-8.8 6.8-8.7 6 3.2 6 8.6z" class="st91"/><path d="M173.9 540.3c0 3.7-.3 6.8-1.6 9.7-.9 2-2.3 3.2-4.5 3.3-1.9.1-3.6-1.1-4.2-2.9-2.6-6-2.7-12.8-.1-18.8.7-1.9 2.6-3.2 4.7-3.1 2.2.1 3.6 1.7 4.3 3.6 1.1 2.6 1.6 5.4 1.4 8.2z" class="st92"/><path d="M380.9 196.9c7.1-.1 12.1 4.6 12.3 11.6s-5.2 12.2-12.4 12.1c-6.4 0-11.7-5.1-11.7-11.6v-.1c-.2-7 4.6-11.9 11.8-12z" class="st93"/><path d="M217.1 553.3c-3.9.2-7.3-2.8-7.5-6.8v-.8c.1-4 2.4-6.1 6.2-6.4s6.2 2.4 6.2 6.7c0 3.8-1.2 6.9-4.9 7.3z" class="st94"/><path d="M720.1 544.9c0 5.1-2.9 8.6-7.1 8.5-4-.1-6.6-3.5-6.6-8.4s3-8.8 6.8-8.8 6.9 3.7 6.9 8.7z" class="st95"/><path d="M569.1 484.8c-.1 5.1-3 8.6-7 8.4s-6.5-3.5-6.4-8.9c.1-5.2 2.6-8.2 6.6-8.2s6.8 3.7 6.8 8.7z" class="st96"/><path d="M285.7 484.8c-.1 5.3-2.8 8.5-7 8.4-4-.1-6.6-3.4-6.6-8.3 0-5.1 2.9-8.7 6.8-8.7 4.2 0 6.8 3.5 6.8 8.6zm180-8.7c3.8-.1 6.8 3.3 7 8 .2 5-2.5 8.9-6.4 9.1-4.3.2-7.1-3-7.2-8.2s2.7-8.7 6.6-8.9z" class="st97"/><path d="M511.7 493.3c-3.3.1-4.9-.7-4.9-3.3 0-4.3 3.1-4.9 6.4-5.2 2.1-.2 3 .5 2.9 2.8-.2 3.4-1.8 5.4-4.4 5.7z" class="st98"/><path d="M687.9 488.7c-.4 2.9-3 4.9-5.9 4.6-2.7-.1-4.1-1.8-3.7-4.2.7-4 4.2-4.3 7.3-4.6 2.6-.3 2.3 1.7 2.3 4.1v.1z" class="st99"/><path d="M442.5 198.8l5.3 12h-10.5l5.2-12z" class="st100"/><path d="M473.7 543c-2-1.1-5.3 1.3-5.5-2-.1-3 2.4-4.9 5.6-5s5.4 1.7 5.2 4.7c-.2 3.8-3.7 1-5.3 2.3z" class="st101"/><path d="M403.6 543c-1.9-1.1-5.3 1.2-5.3-2.2 0-2.8 2.5-4.6 5.5-4.7s5.6 1.7 5.3 4.7c-.3 3.6-3.9.9-5.5 2.2z" class="st102"/><path d="M634.4 542.9c-1.9-.8-5.2 1.3-5.2-2 0-2.9 2.4-4.9 5.7-4.9 3.1 0 5.4 1.5 5.2 4.6-.3 4.2-4 1.2-5.7 2.3z" class="st103"/><path d="M497.8 544.7c2.2-.4 2.6.8 2.6 2.6-.1 3.7-1.7 6-5.6 6.1-2.4 0-3.8-1.2-3.7-3.7.1-4.5 3.7-4.3 6.7-5z" class="st104"/><path d="M99.4 547.1c0 3.8-1.5 6.1-5.2 6.3-2.6.2-4.3-1-4.2-3.8.2-4 3.3-4.3 6.3-4.8 2.1-.4 3.2.3 2.9 2.3h.2z" class="st105"/><path d="M589.3 547.6c-.1 4-2.2 5.7-5.7 5.7-2.5.1-3.8-1.3-3.7-3.7.2-4.4 3.8-4.3 6.8-4.9 2.8-.6 2.3 1.6 2.4 2.8l.2.1z" class="st106"/><path d="M368.1 483c-1.7-1.3-5.4 1.6-5.3-2.4 0-2.8 2.5-4.5 5.5-4.7s5.5 1.6 5.5 4.5c0 4.3-3.8 1.4-5.7 2.6z" class="st107"/><path d="M229.1 483.1c-1.7-1.4-5.4 1.5-5.4-2.5.1-2.8 2.5-4.5 5.6-4.6s5.6 1.5 5.5 4.5c0 4.4-3.9 1.1-5.7 2.6z" class="st108"/></svg>