<svg xmlns="http://www.w3.org/2000/svg" viewBox="0 0 512.4 76.63">
    <defs>
        <style>.a{fill:#fefefe;}.b{fill:#d6161f;}.c{fill:#d5161f;}.d{fill:#faf9f8;}.e{fill:#292629;}.f{fill:#272229;}.g{fill:#312823;}.h{fill:#28272a;}.i{fill:#27252a;}.j{fill:#2c2926;}.k{fill:#2b262d;}.l{fill:#2c2629;}.m{fill:#2f2627;}.n{fill:#2b2a2d;}.o{fill:#2a2931;}.p{fill:#371d05;}.q{fill:#312d32;}.r{fill:#26282d;}.s{fill:#373334;}.t{fill:#382f33;}.u{fill:#26243f;}.v{fill:#411701;}.w{fill:#3a3937;}.x{fill:#f8f4de;}.y{fill:#421801;}.z{fill:#432e04;}.aa{fill:#413d3b;}.ab{fill:#f6f0dc;}.ac{fill:#393738;}.ad{fill:#421803;}.ae{fill:#441c06;}.af{fill:#eff2ed;}.ag{fill:#f2f1ef;}.ah{fill:#f8f8f8;}.ai{fill:#eaedeb;}.aj{fill:#461b01;}</style>
    </defs>
    <path class="b" d="M71.32 64.57c-5.6-.05-11.23-.33-16.83-.08-3.4.1-4.4-1.6-4.9-4.3-1.9-9.3-6.2-17.5-11.4-25.5-1.5 1.1-1.7 2.6-2.1 3.9-2.3 7.2-4.7 14.4-6.8 21.7-.8 2.5-2 3.3-4.5 3.3-4.8-.1-9.5 0-14.3 0-2.7.1-3.5-.7-2.7-3.5C12.7 43.4 18 26.8 23.9 10.5a2.9 2.9 0 0 1 2.86-1.32 54.35 54.35 0 0 0 14.16.2c5.25-.5 7.8 3.3 10.6 6.5a63.8 63.8 0 0 1 6.1 8.5c.5.8.8 2.07 2.04 1.82s1.3-1.43 1.6-2.36a77.42 77.42 0 0 1 3.8-9.74c1.24-2.7 3.1-4 6.1-3.96 4.5.1 9-.08 13.5.05 4.1.1 5.2 1.5 4 5.5-2.3 7.6-5 15.1-7.42 22.8-2.04 6.5-4 13.1-6.4 19.5-.84 2.3-1.3 5-3.8 6.4z"/>
    <path class="c" d="M193.55 11.88a41.9 41.9 0 0 1 15 8.18c2.3 2 3.2 3.64.33 5.94-2.42 2-4.6 4.22-6.8 6.4-1.53 1.5-2.76 1.67-4.37-.05-7.4-7.94-16.5-8.5-26.1-5.57-5.3 1.62-8.3 6-8.2 10.8a12.58 12.58 0 0 0 8.9 11.66c9.1 2.8 17.6 1.48 25.2-4.2 1.9-1.4 3.4-1.7 5.4-.65a97.93 97.93 0 0 1 10.9 6.3c2.1 1.4 1.5 2.4.6 3.7a20.85 20.85 0 0 1-7.5 6.9c-14.75 7.6-30.1 8.3-45.1 1.7-11.7-5-18.7-14.2-17.6-27.7-.86-1.6-.1-2.9.33-4.3 3.6-12 17.3-22.2 29.3-21.5 4.17.2 8.4.1 12.63 0a12 12 0 0 1 7.3 2.3z"/>
    <path class="e" d="M353.82 62.7c-2.9 1.26-3.5-.68-3.86-2.56-.57-2.88-1.94-3.86-5.06-3.93-3.3 0-4.44 1.3-5 4a11.72 11.72 0 0 1-.72 2.2c-.46 1.1-1.5.9-2.24.7-1.23-.3-.38-1.2-.2-1.7 2-5.9 4-11.7 5.95-17.6a2.2 2.2 0 0 1 2.4-1.7c1.4 0 1.9.78 2.2 2 2.1 6.3 4.3 12.6 6.4 18.9z"/>
    <path class="f" d="M243.02 42.05c2.07-.76 2.88.68 3.76 2.1 2.8 4.55 5.64 9.07 8.54 13.73.92-1.2 0-2.6.52-3.74 1.05-4-.34-8.1.73-12.08 2.36-.42 1.55 1.42 1.57 2.4q.1 7.85 0 15.7c0 1 .77 2.4-.84 2.84a2.6 2.6 0 0 1-3.14-1.38 10 10 0 0 1-3.48-5.65l-5.86-10.17v14.53c0 1 .77 2.84-1.37 2.67s-.93-1.82-1-2.87c.7-4.55.12-9.13.33-13.68 0-1.47-.38-2.98.24-4.4z"/>
    <path class="g" d="M360.02 49.43c1.3-1.9 3.5-2.78 5.15-1.63 2.57 1.8 4.37 1.12 6.88 0 2.86-1.26 5.16.46 6 3.4.92 3.4.37 7 .48 10.43a1.24 1.24 0 0 1-1.3 1.44c-1.18.07-1.5-.52-1.48-1.57v-7.1s-.6-4.58-3.33-4.52c-2.54.06-3.44 2.08-3.37 4.5.05 2 .08 4 0 6-.05 1.07.7 2.78-1.47 2.68s-1.25-1.8-1.32-2.82c-.14-2 0-4-.08-6-.14-3.87-1.34-4.75-5.13-3.86-.93.2-1.18-.17-1.03-.95z"/>
    <path class="h" d="M289.22 63.3c-4.77 0-8.2-1.53-9.95-5.5-1.93-4.43-1.66-8.88 1.6-12.66 3-3.42 6.92-4.23 11.25-3.35.86.1 2.25 0 1.94 1.6s-1.56.9-2.4.7c-7.88-1.5-11.72 4.2-10.1 11.3.93 4 4.3 5.8 9.4 5.4 1-.1 2.75-1.7 3 .5s-1.87 1.4-3 1.7a8.06 8.06 0 0 1-1.74.1z"/>
    <path class="i" d="M264.03 42.04c1.87-.46 1.68.87 1.7 2v7c4.3-2.55 5.25-8.62 11.08-8.6a40.24 40.24 0 0 1-3.8 4.47c-2.8 2.6-3.3 5-.5 8 2 2.3 3.5 5.1 5.3 7.8-2 .8-3.2.5-4.2-1.3-1.2-2.1-2.7-4.1-4.1-6.2-.5-.7-.8-2.2-2-1.8a2.76 2.76 0 0 0-1.6 2.7v5.3c0 1.2-.3 2-1.7 1.6a135.78 135.78 0 0 1 0-20.8z"/>
    <path class="j" d="M389.85 56.02a10.56 10.56 0 0 0-1.86 0c-1.1.2-2.8-.85-3.2.9s.9 3 2.5 3.72 3.4.42 5.1.17c.6 0 1.3-.2 1.5.6a1 1 0 0 1-.8 1.5c-3.1.7-6.3 1.2-8.9-1s-3.2-5.6-2.3-8.9a6.94 6.94 0 0 1 6.3-5.4c3.7-.4 7 3 6.82 6.8-.06 1.3-.45 1.9-1.7 1.9h-3.76z"/>
    <path class="k" d="M318.17 55.45c-.07 4.8-3 7.9-7.5 7.9s-7.54-3.33-7.47-8 3.55-8.16 8-8c4.12.23 7.04 3.57 6.97 8.1z"/>
    <path class="l" d="M438.7 53.06c-.57-3.54-2.77-4-5.74-3.06-.78.25-1.8.83-2.1-.48s.86-1.27 1.64-1.56c5-1.84 8.6.6 8.83 5.94.1 2.48.1 5 .2 7.45 0 1-.34 2.26-1.16 1.63-2.1-1.63-3.7.13-5.48.33-2.4.3-4.3-.3-5.1-2.7a4.52 4.52 0 0 1 2-5.7c2.1-1.3 4.4-1.4 6.8-1.7a2.8 2.8 0 0 1 0 2.8 9 9 0 0 1-2.8.7c-1.3.3-2.6.8-2.2 2.4s1.9 1.2 3 .7a5.15 5.15 0 0 0 1-.5 6.27 6.27 0 0 0 .9-6.1z"/>
    <path class="m" d="M321.88 56.17c-.84-2.05 1.6-5.14-1.85-6.7a.46.46 0 0 1-.2-.3 1.1 1.1 0 0 1 .57-1.23c2.92-2.06 1.6-8.33 7.43-7.5.7.1 1.6-.17 1.74.9s-.55 1.45-1.6 1.4c-2.28-.1-3 1.3-3.2 3.3s1.16 1.74 2.4 1.8a1 1 0 0 1 1.2 1.08 1.07 1.07 0 0 1-1.3 1c-2.57-.25-2.36 1.45-2.33 3.13v8.24c0 .9 0 1.7-1.28 1.8s-1.65-.7-1.6-1.9c.06-1.6.02-3.3.02-5.1z"/>
    <path class="n" d="M423.13 63.3c-3.37-.04-5.8-1.38-7-4.36-1.25-3.23-1-6.43 1.5-9a8 8 0 0 1 8.22-2.17c.73.2 1.93.17 1.44 1.56-.5 1.2-1.3.7-2.2.63-4.4-.42-6.7 1.45-6.7 5.37-.1 3.76 2 5.72 5.7 5.7 1 0 2.8-1.23 3 .72.1 1.76-1.8 1.16-2.9 1.45a7 7 0 0 1-1.2.1z"/>
    <path class="o" d="M483.96 52.5c2-4 5.6-5.83 9.36-4.8.75.2 1.94.07 1.76 1.4s-1 1-2 .94c-4.55-.4-6.78 1.3-7 5.12s2 5.78 6.84 5.73c.75 0 1.9-.7 2 .7.13 1.2-.9 1.2-1.74 1.4-4.06.9-6.84-.2-9.12-3.9-.02-2.3-.2-4.5-.1-6.8z"/>
    <path class="p" d="M462 52.86v7.87c0 1 .45 2.4-1.46 2.32-1.58-.06-1.33-1.17-1.33-2.12V44.07c0-1-.2-2.1 1.4-2.16 1.9 0 1.5 1.3 1.5 2.4v8.6z"/>
    <path class="q" d="M470.26 49.54a4.93 4.93 0 0 1 5.9-1.8c2.5.76 3.52 2.75 3.7 5.08.2 2.84 0 5.7.12 8.55.1 2.43-1.62 1.54-2.82 1.64-1.8-2.2-.54-4.8-.83-7.2-.23-1.9.35-4-1.52-5.5-1.3-1.1-2.4.1-3.6.3a1.23 1.23 0 0 1-.9-1z"/>
    <path class="r" d="M400.24 47.84c1.6 3.1 3.06 0 4.73-.34a1 1 0 0 1 1.42.78c.1.72.3 1.66-.7 1.83-4.9.9-3.6 4.8-4.2 8-.3 1.7 1.7 4.8-1.3 4.8s-1.1-3.1-1.3-4.8a63.64 63.64 0 0 1-.2-8.2c0-.8-.3-1.8 1.3-2z"/>
    <path class="s" d="M360.02 49.43l.94 1c-2.56 3-1.25 6.63-1.6 10-.1 1.05.73 2.73-1.4 2.7s-1.42-1.67-1.45-2.74v-9.3c0-1-.6-2.3.6-3 1.6-1.1 1.9 1 3 1.3z"/>
    <path class="t" d="M408.96 55.54v-6c0-1 .3-1.67 1.45-1.72s1.5.56 1.5 1.6v12c0 1-.1 1.7-1.3 1.7a1.33 1.33 0 0 1-1.5-1.58v-6h-.1z"/>
    <path class="u" d="M470.26 49.54l.9 1c-2.42 2.92-1.1 6.42-1.5 9.66-.15 1.08 1 3.06-1.63 2.77a32.5 32.5 0 0 1 0-14.92c1.52-.65 1.17 1.46 2.23 1.5z"/>
    <path class="v" d="M468.04 48.05v14.92a2.74 2.74 0 0 1-1-.3 90.1 90.1 0 0 1 0-14.35 2.87 2.87 0 0 1 1-.27z"/>
    <path class="w" d="M447.32 59.22c.75 0 1.54 0 1.43.54a16 16 0 0 1-2.73 6.77 2.1 2.1 0 0 1-1.37.2.65.65 0 0 1-.36-.53c.5-2.15 1-4.3 1.7-6.4.1-.36 1-.5 1.3-.58z"/>
    <path class="x" d="M474.82 50.3c2.25.58 2.17 2.46 2.24 4.16.1 2.85.1 5.7.12 8.57-1.4-.67-2.35-1.37-1.9-3.34a18.9 18.9 0 0 0-.46-9.4z"/>
    <path class="y" d="M264.03 42.04v20.9c-1.12 0-1-.86-1-1.56V43.62c-.02-.7-.08-1.54 1-1.58z"/>
    <path class="z" d="M243.02 42.05c0 4.85.05 9.7 0 14.54 0 1.2.37 2.5-.67 3.5l-.14-16.7c.1-.6 0-1.3.9-1.4z"/>
    <path class="aa" d="M501.2 61.2c0 1.33-.57 2-1.76 2.1a1.7 1.7 0 0 1-2-1.7 1.88 1.88 0 0 1 2-2.16 1.7 1.7 0 0 1 1.76 1.77z"/>
    <path class="ab" d="M250.7 55.97a15.84 15.84 0 0 1 3.47 5.65c-.72-.06-1.43 2.3-2.24-.23-.6-1.8-1.76-3.4-1.24-5.5z"/>
    <path class="ac" d="M412.32 43.44a1.63 1.63 0 0 1-1.5 1.7 1.5 1.5 0 0 1-1.9-1.64 1.45 1.45 0 0 1 1.62-1.57 1.6 1.6 0 0 1 1.78 1.5z"/>
    <path class="ad" d="M256.58 42.05c-.4 4 .8 8.13-.73 12.08-.07-3.47-.16-6.95-.2-10.42 0-.6-.2-1.5.93-1.6z"/>
    <path class="ae" d="M483.96 52.5c1 2.22.75 4.5.2 6.77a7.3 7.3 0 0 1-.2-6.78z"/>
    <path class="b" d="M78.2 64.44a7.1 7.1 0 0 1 .24-4q7.52-23.1 15-46.24c.6-1.85 1.45-3.1 3.6-3q7.7.16 15.38.2c2.55 0 2.9 1.36 2.3 3.44-1 3.2-2 6.38-2.8 9.63-.17.78-1.2 1.87-.17 2.6.87.63 1.57-.32 2.27-.82 4.6-3.3 9.5-6.27 13.76-9.95a19.35 19.35 0 0 1 15.38-5c3.47.35 7 0 10.5.1.8 0 1.87-.47 2.34.56.55 1.2-.52 1.8-1.28 2.4-4.2 3.27-8.45 6.5-12.64 9.8-2.7 2.14-5.27 4.46-8 6.53-1.9 1.4-1.63 3.1-1.06 5 2.5 8.3 4.85 16.7 7.48 25 .94 3 .3 4.2-2.85 4.2-5.12-.1-10.25-.2-15.37-.1a3 3 0 0 1-3.3-2.4c-1.35-4-2.87-8-4-12.1-.78-2.8-1.77-2.8-3.73-1.1-4.6 3.9-10.3 6.8-11.74 13.5-.3 1.7-1.8 1.7-3.2 1.7-6-.1-12-.1-18-.2z"/>
    <path class="af" d="M344.86 44.83l3 8.8a1.6 1.6 0 0 1-.4.35c-5.88.75-5.88.75-4.1-4.63.47-1.27.87-2.55 1.5-4.52z"/>
    <path class="ag" d="M388.43 54.2c-1.08-.95-3.4 1.04-3.5-1.28-.1-1.92 1.52-3.3 3.67-3.38s3.83 1.14 3.68 3.22c-.2 2.6-2.6.55-3.85 1.43z"/>
    <path class="ah" d="M315.26 55.3c0 3.36-1.78 5.85-4.34 5.96s-4.7-2.36-4.8-5.57c-.1-3.4 1.94-6.1 4.6-6.1s4.5 2.2 4.54 5.7z"/>
    <path class="ai" d="M438 60.04a11.76 11.76 0 0 1-2.3 1.16 2.52 2.52 0 0 1-3.3-1.65c-.53-1.52.16-2.62 1.53-3.38a8 8 0 0 1 4.73-.66c1 1.7.58 3.2-.65 4.6z"/>
    <path class="aj" d="M438 60.04a8.06 8.06 0 0 0 .66-4.54v-2.44c.9 2.43 2.38 4.93-.65 6.98z"/>
</svg>