<svg xmlns="http://www.w3.org/2000/svg" viewBox="0 0 450.9 136.64"><defs><style>.a{fill:#fefefe;}.b{fill:#3296db;}.c{fill:#3295db;}.d{fill:#3396db;}.e{fill:#d8020b;}.f{fill:#db030a;}.g{fill:#da040d;}.h{fill:#3397dd;}.i{fill:#3799dd;}.j{fill:#FFF;}.k{fill:#3597dc;}.l{fill:#fdfefe;}.m{fill:#fcfdfe;}.n{fill:#fbfdfd;}.o{fill:#fbfcfd;}.p{fill:#f7fafd;}.q{fill:#f4f9fc;}.r{fill:#edf5fb;}.s{fill:#f8fbfd;}.t{fill:#f2f8fc;}.u{fill:#e7f1f7;}</style></defs><path class="b" d="M225.85 132.07c-64.73 0-129.47-.18-194.2.15-13 .07-25-9.36-24.84-24.92.24-25 0-50 .07-75 0-14.87 9.81-24.63 24.7-24.63h388.78c14.74 0 24.45 9.69 24.46 24.37 0 25.24-.27 50.49.11 75.73.21 14.18-11.15 24.48-24.5 24.42-64.86-.28-129.72-.12-194.58-.12z"/><path class="a" d="M226.22 125.43H33.91a36.27 36.27 0 0 1-7.46-.44c-7.57-1.61-12.72-7.74-12.78-15.93q-.27-39.17 0-78.35c.06-8.7 6.15-15 14.79-16.15a39.23 39.23 0 0 1 5.24-.23l384.62-.01a26.46 26.46 0 0 1 9.23 1.21c6.54 2.4 10.54 8.22 10.56 15.71q.09 38.42 0 76.85c0 10.69-6.6 17.14-17.32 17.35H226.22z"/><path class="c" d="M156.87 56.32c0 7.86-.77 14.48-5.26 20-7.12 8.76-21.82 7.34-26.72-2.84-4.56-9.47-4.77-19.52-1.3-29.35 3-8.63 8.68-11.75 18-11.07 6.77.5 12.67 6.49 14.38 14.65a30.76 30.76 0 0 1 .9 8.61zm77.97.32c.07 7.69-.8 14.29-5.32 19.79-7.06 8.6-21.56 7.26-26.5-2.75-4.84-9.81-5-20.2-1.1-30.35 3.08-8 8.34-10.76 17.46-10.25 6.16.34 11.87 5.33 13.93 12.28a30.85 30.85 0 0 1 1.53 11.28zm-69.77.68c0-6.87.1-13.75-.05-20.62-.05-2.34.65-3.07 3-2.91 5.45.4 10.93-.51 16.38.76 9.64 2.24 13.55 14.21 6.44 21-1 1-1.63 1.44-.12 2.73 4.56 3.89 5.62 8.38 3.73 13.69-2.09 5.9-6.62 8.6-12.46 9.06-4.72.38-9.5 0-14.24.13-2.23.07-2.7-.77-2.67-2.81.06-7.03-.01-14.03-.01-21.03zm-66.75 8.07c0 4.32-.1 8.65 0 13 .07 2.1-.57 2.72-2.72 2.77-9.28.16-9.28.26-9.28-8.84 0-11.73.08-23.47-.06-35.2 0-2.64.69-3.53 3.33-3.29 5.19.47 10.46-.73 15.61.74a14.21 14.21 0 0 1 6.26 24c-1.48 1.47-1.42 2.5-.79 4.15 1.94 5.08 3.76 10.2 5.62 15.31.68 1.87.95 3.09-1.95 3.18-9.7.28-9.69.4-12.94-8.7-.85-2.39-1.72-4.77-2.58-7.16zm-49.5-8.07c0-6.87.1-13.75-.05-20.62 0-2.31.61-3.11 2.94-2.92 5.31.45 10.74-.86 16 .72 7.66 2.31 11.45 8.7 10.38 17.14-.87 6.88-6.82 12-14.34 12.11-2.27 0-3.07.57-3 2.92.19 3.86 0 7.75.09 11.62.07 2-.43 2.78-2.66 2.83-9.38.23-9.38.32-9.38-9.19q.02-7.3.02-14.61zm322.5 7.6c0 4.49-.11 9 0 13.48.07 2.17-.72 3.16-2.75 2.63-2.87-.75-6.29 1.87-8.74-1.52-.4-.56-1 .36-1.47.65-5.69 3.4-11.25 2-14-4a27.75 27.75 0 0 1-.15-23.07c2.41-5.75 10.09-7.71 14.29-4 .8.7 1.25 1.1 1.7-.39.2-.66 9.88-.89 10.5-.4.83.65.54 1.6.54 2.43.08 4.7.08 9.45.08 14.19zm-108.73-7.41c-.66-10.78 6-21.76 16.39-24.09a29.65 29.65 0 0 1 9.65-.14c1.45.15 2.89.86 2.46 2.93a14.08 14.08 0 0 0 0 2.24c-.08 2 .48 4.36-.42 5.85-1.28 2.11-3.6 0-5.49 0-4.54-.06-7.84 3.2-9.4 9.43-1.8 7.24 1.46 14.64 7.15 16.45a7.21 7.21 0 0 0 3.67.23c4.48-.88 4.48-.9 4.48 3.7 0 7.72 0 7.72-7.82 7.7-9.55 0-17.9-7.1-19.92-16.91-.53-2.58-1.09-5.11-.75-7.39zm115.48 7.03c0-4.62.06-9.24 0-13.85 0-1.82.32-2.8 2.43-2.65s4.49 0 6.74 0a2.2 2.2 0 0 1 1.09 0c2.13 4 4 .31 5.77-.32 6.08-2.2 11.71 1.31 11.75 7.65v22.84c0 2-.39 2.8-2.64 2.85-8.65.2-8.65.29-8.65-8.4V61.8c0-1.93-.51-3.84-2.57-3.87s-2.71 1.81-2.7 3.77c0 5.37-.15 10.74.07 16.1.11 2.71-.82 3.29-3.37 3.27-7.94-.08-7.94 0-7.94-8q.02-4.23.02-8.53zm-47.61 3.03c-1.5 0-3-.06-4.49 0-1.07.06-2.61-.58-3.1.47-.64 1.39.27 2.88 1 4.16s2 1.77 2.94.35c2.59-3.84 6.34-1.38 9.52-1.87 1.12-.17 1.22.9.89 1.89-1.51 4.51-4.09 8.16-9 9-5.09.91-10.14.32-13.33-4.44-4.8-7.16-5.07-14.91-1.61-22.63 2.61-5.82 7.64-8.22 13.67-7.21 4.85.82 9.59 5.67 10.54 10.82v.75c1.49 8.71 1.5 8.71-7.03 8.71zm-24.39-11.25c0 7.36-.08 14.73 0 22.09 0 2.16-.67 2.69-2.76 2.73-8.54.17-8.54.24-8.54-8.13 0-12.73.08-25.46-.06-38.18 0-2.66.74-3.33 3.34-3.3 8 .08 8 0 8 8q.02 8.36.02 16.79z"/><path class="b" d="M230.56 96.08v13.72c0 1.13.46 2.65-1.54 2.77-2.21.13-1.92-1.45-1.92-2.78 0-5.36-.07-10.72 0-16.08 0-1.28-.93-3.33 1.43-3.6 2.05-.24 4.22-.54 5.45 2 2 4 4.11 8 6.2 11.92a20.55 20.55 0 0 0 1.32 1.79V92.54c0-1.53.09-2.68 2.14-2.59s1.68 1.37 1.68 2.6V109c0 1.39.52 3.19-1.71 3.52-1.85.27-3.49 0-4.47-1.88l-7.18-13.51c-.22-.42-.46-.83-.69-1.24zm-108.48 5.08c0-2.87.08-5.74 0-8.61-.07-2 .72-2.71 2.64-2.54 2.84.25 5.73-.45 8.53.54 4.36 1.53 5.83 6.95 2.26 9.79-2.07 1.64-1.51 2.25-.34 3.88a24.57 24.57 0 0 1 2.49 5.4c.37.93 1.42 2.29-.22 2.8-1.3.4-3 .73-3.84-1.19s-1.64-4.17-2.65-6.16a3.35 3.35 0 0 0-3.7-2c-1.77.38-.86 2.05-1 3.16s0 2 0 3c-.06 1.54.49 3.42-2.18 3.38-2.51 0-1.87-1.84-1.9-3.2-.14-2.76-.09-5.5-.09-8.25z"/><path class="d" d="M158.32 112.57c-2.15.38-2.45-1.39-2.73-2.76-.81-3.93-3.85-2.19-6-2.44-1.9-.21-4.13-.58-4.54 2.37a5.69 5.69 0 0 1-.79 2.07c-.74 1.23-2 .88-3 .65-1.64-.37-.7-1.55-.42-2.37 2-6 4.21-12 6.16-18 .59-1.82 1.63-2.27 3.32-2.18s3.06-.12 3.75 2.09c1.9 6 4 12 6.21 18 .7 2.08.16 2.78-1.96 2.57z"/><path class="b" d="M206.84 89.83c4.31 0 6.22 1.78 7.12 6.06a24.54 24.54 0 0 1-.05 10.34c-.95 4.45-3.56 6.59-8.16 6.45-4-.12-6.55-2.51-6.91-6.84a49.44 49.44 0 0 1 0-8.59c.48-5.07 3.18-7.46 8-7.42z"/><path class="d" d="M185.49 99.39l2-.59c4.06-1.15 7.45.2 8.36 3.31 1.34 4.58-.57 9-4.46 10.26-4.48 1.47-8.54-.3-9.74-4.31a20.64 20.64 0 0 1 .13-12.15c1.51-5 6-7.26 11.34-6 1.28.32 2.12.89 1.86 2.27-.29 1.53-1.55.86-2.43.84-5.62-.11-7 1.03-7.06 6.37zm-17.98 0c.81-.24 1.4-.43 2-.6 4-1.14 7.45.22 8.35 3.34 1.32 4.59-.6 9-4.49 10.25-4.49 1.46-8.53-.32-9.73-4.34a20.72 20.72 0 0 1 .15-12.15c1.47-4.82 5.56-7 11-6 1.19.22 2.27.49 2.24 2 0 1.93-1.51 1.21-2.49 1.18-5.6-.16-7.01 1.01-7.03 6.32z"/><path class="c" d="M248.52 69.07h-.75c-8.18 0-8.13 0-7.75-8.13.08-1.7.45-2.45 2.3-2.4q6.35.17 12.7 0c1.82 0 2.25.64 2.33 2.37.42 8.16.47 8.16-8.83 8.16z"/><path class="e" d="M377.32 120.07c-3.26 1-5.44.34-5.86-3.55a3.62 3.62 0 0 0-1.93-3.21 26.7 26.7 0 0 0-1.09 4.25c-.26 2.89-2.17 3.07-4.25 2.66-2.77-.54-.77-2.36-.6-3.48a38.1 38.1 0 0 1 1.65-6.51c.49-1.46-.2-3.68 2.41-4s4.62.41 5.65 3l.54 1.38c1.31-1.07 1.27-2.78 2-4.15 5.48-.63 6.07-.1 4.67 5.13-.83 2.91-.69 6.21-3.19 8.48z"/><path class="d" d="M263.56 105.64v3.73c0 2.4 0 4.73-3.3 2.21-1-.8-1.48.39-2.21.6-2.49.74-4.92 1-7-.93a4.47 4.47 0 0 1-1-5.19c1-2.41 3.37-3 5.84-3.33 1.23-.14 2.89.75 3.58-1a2.26 2.26 0 0 0-.59-2.42c-1.24-1.21-2.7-.75-4.2-.65s-3.13 2.56-3.94.18 1.76-2.51 3.39-2.94c6.58-1.75 9.42.4 9.43 7.14q.01 1.28 0 2.6z"/><path class="f" d="M381.84 106.58c4.77-.46 4.77-.46 4.66 3.37 4.7-3.71 4.7-3.71 8.22-3.21a1.51 1.51 0 0 1-.94 1.46c-3.65 2.31-3.62 5.34-2.08 8.91.41.94 2 2.69-.2 3.28-1.59.42-3.86.9-4.42-1.89a14.92 14.92 0 0 0-.77-2.11 3.3 3.3 0 0 0-2.37 2.69c-1.13 2.43-3.33 1.57-4.8 1s-.71-2.44-.27-3.62c1.18-3.23 1.02-6.87 2.97-9.88z"/><path class="d" d="M274.96 108.5c1.23-3.87 2.34-6.88 3.13-10 .54-2.1 1.61-3.18 3.67-2.49 2.29.76.44 2.36.18 3.31-1 3.69-2.44 7.26-3.55 10.92-.59 1.93-1.78 2.41-3.61 2.38s-2.91-.33-3.45-2.43c-1-3.84-2.47-7.54-3.66-11.33-.31-1-1.68-2.45.54-2.89 1.49-.3 2.91-.19 3.46 1.83.88 3.33 2 6.59 3.29 10.7z"/><path class="g" d="M401.96 120.66c-4.44-.13-7.9-2.5-8.72-5.67s.36-5.65 2.91-7.52a8.14 8.14 0 0 1 9.78 0c.79.61 2.24 1.14 1 2.59-.8 1-1.52 2.06-2.91.57a3.76 3.76 0 0 0-2-.84 4.08 4.08 0 0 0-4 1.49 2.7 2.7 0 0 0-.21 3.18 4.07 4.07 0 0 0 3.84 1.87c1.2 0 2.05-.76 3.06-1.23 1.67-.78 3 .57 3.76 1.61s-.79 1.6-1.52 2.16a8.87 8.87 0 0 1-4.99 1.79z"/><path class="d" d="M110.21 103.18a31.52 31.52 0 0 1 2.78-13.37c.71-1.72 1.83-2.53 3.42-1.87s.27 2 0 2.83a37.29 37.29 0 0 0 0 24.8c.3.9 1.59 2.16 0 2.87-1.4.63-2.52-.06-3.24-1.58a29.77 29.77 0 0 1-2.96-13.68z"/><path class="b" d="M301.67 103.08a31.31 31.31 0 0 1-2.92 13.61c-.65 1.48-1.63 2.38-3.14 1.8-2-.76-.46-2.1-.13-3.07a37.22 37.22 0 0 0 .08-24.48c-.3-.92-2-2.29.07-3 1.7-.62 2.66.42 3.32 2.07 1.71 4.31 2.92 8.66 2.72 13.07zm-11.86 1.24v6c0 1.16 0 2.26-1.67 2.29-1.51 0-2.34-.44-2.32-2.11 0-4.23.06-8.47 0-12.7 0-1.56.8-1.87 2.09-1.9 1.48 0 1.94.74 1.92 2.09-.05 2.11-.03 4.22-.02 6.33z"/><path class="h" d="M335.12 112.67c0-1.12-.06-2 0-2.86s-.45-2.14 1-2.41 1.45.87 1.56 1.86c.16 1.39 1 .54 1.6.45 3.25-.44 3.87 1.82 3.78 4.16s-1 3.62-4.13 3.87c-5.17.42-3.61-2.81-3.81-5.07z"/><path class="i" d="M348.49 113.7c1.52-1 .23-5 3.23-3.83 1.73.7-.35 3.16-.81 4.77-.54 1.89-.89 3.94-2.38 5.43a2.7 2.7 0 0 1-3.72.37c-1.31-1.28.27-1.43 1.19-2.08 1.51-1.06-.07-2.43-.21-3.69-.19-1.69-2.74-4-.77-4.8 2.98-1.29 1.66 2.88 3.47 3.83z"/><path class="j" d="M381.84 106.58c-.77 3.24-1.6 6.46-2.29 9.72-.26 1.23-1.64 2.9-.24 3.67a3.39 3.39 0 0 0 4.62-.89c-1.75 3.39-4.25 1.75-6.62 1 .73-3 1.44-6 2.18-9 1.15-4.69 1.16-4.69-3.7-4.6 2.04-1.42 4.05-.82 6.05.1z"/><path class="k" d="M290.32 91c0 1.61-.89 2.1-2.35 2.12s-2.27-.59-2.28-2.17.85-1.86 2.12-1.86 2.51.17 2.51 1.91z"/><path class="l" d="M134.4 57.46c-.47-2.92.2-5.74.82-8.5.45-2 1.34-4.41 3.79-4.48s3.53 2.24 4 4.27a35.9 35.9 0 0 1 .65 14.4 16.25 16.25 0 0 1-.74 3.61c-.75 1.85-1.77 3.88-4.12 3.64-2.18-.22-3.4-2-3.69-4.12-.36-2.96-1.2-5.83-.71-8.82zm87.6.26c.45 2.78-.29 5.46-.78 8.12-.41 2.25-1.58 4.59-4.14 4.56s-3.59-2.21-4-4.61a40.06 40.06 0 0 1 0-16.23c.53-2.29 1.29-5.08 4-5s3.65 2.73 4.11 5.09c.6 2.67 1.23 5.31.81 8.07z"/><path class="m" d="M176.76 67.02c1-1.61-.91-4.26 1.48-4.45 2.17-.17 4.66.93 4.81 4 .11 2.39-2.28 4.87-4.81 4.43s-.15-2.95-1.48-3.98zm.39-14.7V43.8c2.65.25 4.94.78 5.13 3.9.21 3.49-2.24 4.22-5.13 4.62z"/><path class="n" d="M98.41 53.76v-9.63c3.18-.2 4.13 1.82 4.37 4.33.27 2.86-.84 4.86-4.37 5.3z"/><path class="o" d="M60.92 43.82c3.54.52 4.52 2.61 4.36 5.34s-1.27 4.46-4.36 4.49v-9.83z"/><path class="m" d="M360.32 64.41c-.83 2.89.18 7.32-3.68 7.29-3.4 0-3.22-4.21-3.23-7s-.34-7.21 3.25-7.29c3.77-.09 2.8 4.44 3.66 7z"/><path class="p" d="M325.45 61.44c-2.32.34-3.22-.21-2.81-1.89.36-1.48.36-3.82 2.28-3.63s1.73 2.7 2 4.26c.4 1.86-1.27 1.22-1.47 1.26z"/><path class="q" d="M128.43 93.15c2.58 0 4.29.7 4.35 3.31s-1.65 3.18-3.89 3.42c-3 .33-2.75-1.55-2.74-3.48s-.2-3.71 2.28-3.25z"/><path class="r" d="M150.6 94.81a44.22 44.22 0 0 0 1.92 5.51c1.64 3.3.36 3.92-2.8 3.84-2.59-.07-3-.86-2-3.08.85-2 1.42-4.14 2.11-6.22z"/><path class="o" d="M210.1 100.66c-.18 2.63.16 4.51-.6 6.31-.63 1.51-1.51 2.61-3.29 2.48a3 3 0 0 1-2.81-2.56 21.27 21.27 0 0 1-.07-11c.47-1.72 1.36-2.85 3.38-2.79s2.62 1.33 2.9 2.84c.33 1.78.39 3.65.49 4.72z"/><path class="s" d="M185.32 104.75c-.26-2.79 1.82-3.17 3.65-3.19 2.28 0 3.2 1.54 3.1 3.78s-.66 4.11-3.27 4.13c-3.22.04-3.2-2.52-3.48-4.72zm-18.14-.78c-.34-1.75 1.66-2.31 3.53-2.42 2.22-.12 3.38 1.24 3.33 3.56s-.56 4.4-3.41 4.37-3.08-2.36-3.45-5.51z"/><path class="t" d="M258.45 105.03c.22 0 1.16.12 1.16 1.77 0 2.31-1.55 3-3.34 3.21a2.08 2.08 0 0 1-2.51-2.14c.09-2.26 1.81-2.69 4.69-2.84z"/><path class="u" d="M340.47 113.32c-.07 1.11-.25 2.07-1.3 2.17s-1.44-.92-1.44-1.77a1.51 1.51 0 0 1 1.46-1.79c.97-.02.98.91 1.28 1.39z"/></svg>