<svg version="1" 
    xmlns="http://www.w3.org/2000/svg" width="1321.333" height="1321.333" viewBox="0 0 991.000000 991.000000">
    <path d="M322.1 139.9c-.6.4-2.7.6-4.6.5-2.5-.2-3.5.1-3.5 1.1 0 .8-.6 1.5-1.4 1.5-1.7 0-2.2 2.8-1.7 8.7.2 2.6.8 4.3 1.6 4.3.7 0 1.8.7 2.5 1.5 1.1 1.3 6 1.5 32.6 1.5H379v32l-16.2.1h-38.7c-21.3 0-22.3.1-22.8 2-.5 1.6-1.4 1.9-6.9 1.9-5 0-6.4.3-6.4 1.5 0 1.5-3.9 2-11.2 1.5-1.6-.1-3.5.6-4.4 1.4-.8.9-2.5 1.7-3.7 1.7-3.9.2-4.3.4-6.1 2.1-1 1-2.6 1.8-3.6 1.8s-2.2.4-2.5 1c-.3.5-2.4 1-4.7 1-3.1 0-4.1.4-4.5 2-.3 1.1-1.2 2-2.1 2-.8 0-2.3.6-3.1 1.4-.9.8-4.7 3-8.6 5.1-3.8 2-7.4 4.1-7.9 4.6-.6.5-2.1.9-3.4.9-1.5 0-2.6.7-2.9 2-.3 1.1-1.2 2-1.9 2-.8 0-1.7.7-2 1.5-.4.8-1.4 1.5-2.3 1.5-1.7 0-10.1 7.6-10.1 9.1 0 .5-.7.6-1.5.3-.9-.4-1.8.1-2.2 1.2-.8 2.3-12.3 13.8-14.6 14.7-1 .3-1.7 1.2-1.7 1.8 0 .6-1.3 2.7-3 4.6-1.6 1.8-3 4.2-3 5.3 0 1.2-1.3 2.6-3.1 3.6-2.5 1.2-3 2-2.6 4.1.3 1.7-.1 2.6-1.2 3-2.4.9-5.4 4.3-7.2 8.3-3.2 6.7-5.9 13.9-5.9 15.5 0 .9-.7 2.3-1.5 3.2-.8.8-1.3 1.8-1 2.3.4.6.6 268.7.5 513.4 0 2.5-.5 3.5-1.9 3.9-1.8.4-1.9 1.8-1.9 22.6 0 16 .3 22.4 1.1 22.7 2.3.8 33.7.9 33.7.1 0-.5.5-.5 1.1-.1 1.5.9 34.9 1.1 34.9.2 0-.4.7-.5 1.5-.2 2.2.9 22.5 1 22.5.2 0-.4.7-.5 1.5-.2 2.1.9 38.5 1 38.5.2 0-.4.7-.5 1.5-.2 2.2.9 22.5 1 22.5.2 0-.4.6-.5 1.4-.2 2.3.9 34.6 1 34.6.1 0-.5.5-.5 1.1-.1 1.5.9 34.9 1.1 34.9.2 0-.4.7-.5 1.5-.2 2.2.9 22.5 1 22.5.2 0-.4.6-.5 1.4-.2 2.3.9 34.6 1 34.6.1 0-.5.5-.5 1.1-.1 1.5.9 34.9 1.1 34.9.2 0-.4.7-.5 1.5-.2 2.2.9 22.5 1 22.5.2 0-.4.7-.5 1.5-.2 2.1.9 38.5 1 38.5.2 0-.4.7-.5 1.5-.2 2.2.9 22.5 1 22.5.2 0-.4.6-.5 1.4-.2 2.3.9 34.6 1 34.6.1 0-.5.5-.5 1.1-.1 1.5.9 34.9 1.1 34.9.2 0-.4.7-.5 1.5-.2 2.2.9 22.5 1 22.5.2 0-.4.6-.5 1.4-.2 2.3.9 34.6 1 34.6.1 0-.5.5-.5 1.1-.1 1.5.9 34.9 1.1 34.9.2 0-.4.7-.5 1.5-.2 2.2.9 22.5 1 22.5.2 0-.4.7-.5 1.5-.2 2.3.9 38.5 1 38.5.1 0-.5.5-.5 1-.2.6.4 3.7.7 6.8.7 4.8.1 6.2-.3 8.4-2.4l2.7-2.4-.1-19.3c0-16.7-.2-19.4-1.7-20.2-1.2-.8-1.5-2.3-1.4-5.7.2-5.6-.4-8.2-2-8.2-.9 0-1.1-59-.9-253.7.2-210.9 0-254-1.1-254.8-.8-.6-1.7-2.2-2.1-3.8-.3-1.5-1.3-2.7-2.1-2.7s-1.5-.8-1.6-1.8c-.3-5.9-.6-7.6-1.7-8-.7-.2-1.2-1-1.2-1.8s-.6-1.4-1.2-1.4c-1.5 0-7.9-10.6-8.1-13.3-.1-1.1-1.2-2.3-2.4-2.8-1.3-.5-2.3-1.3-2.3-1.8s-1.3-2.2-2.9-3.8c-2.2-2.3-2.7-3.3-1.9-4.6.7-1.4.4-1.8-2.1-2.3-2.1-.5-3.3-1.5-4-3.6-.6-1.6-1.5-2.7-2-2.3-1.5.9-8.2-5.7-8.4-8.3-.1-1.3-.6-2.1-1.3-1.8-1.6.6-4.9-2.4-4.9-4.4 0-.8-1.1-1.7-2.4-1.8-3.8-.6-10.1-5-10.1-7.2 0-2.4-.8-2.9-5.3-3.2-2.1-.1-3.7-.5-3.7-.9s-1-1.1-2.2-1.5c-1.2-.3-2.8-1.2-3.5-1.8-3.3-2.9-4.8-4.1-4.8-3.7 0 .2-2-.2-4.4-.9-3.3-.9-4.6-1.8-5.4-4-.9-2.4-1.8-2.9-5.8-3.4-2.6-.4-5.2-1.3-5.9-2.1-.7-.8-2-1.5-3-1.5-.9 0-2-.3-2.4-.8-.4-.4-1.2-.8-1.7-.8-.5-.1-1-.3-1.1-.4-.2-.1-1.5-.3-2.9-.4-1.5-.1-3.4-.7-4.2-1.4-.8-.7-3.5-1.4-5.9-1.5-2.3-.1-4.7-.7-5.3-1.3-.5-.7-4.1-1.4-7.9-1.8-4.8-.4-7.3-1-7.9-2.1-.7-1.3-2.7-1.6-11-1.5-5.6.1-22 .1-36.4.1L590 191v-32h32.1c31 0 32-.1 31.4-1.9-.4-1.4-.1-1.9 1.2-1.7 1.5.1 1.9-.8 2.1-5 .2-3.6-.2-5.6-1.2-6.7-.8-.8-1.2-1.7-.9-2 .3-.3-.5-.8-1.8-1.1-4.1-.9-10.9-1.2-10.9-.5 0 .3-1.2.5-2.7.2-1.6-.2-4.3-.3-6-.3-5.3.1-5.5.1-11.6-.1-3.1-.1-6 .1-6.4.4-.3.4-1.2.2-2-.4-.9-.8-1.3-.8-1.3-.1 0 .7-1 .8-2.9.2-1.6-.4-3.2-.6-3.5-.3-.2.3-2.2.5-4.2.5-4.6 0-8.4 3.1-8.4 6.9v2.7l-24 .1-24 .1v-2.5c0-4-4.5-7.7-9-7.6-.8.1-3.7.1-6.5.1-2.7-.1-7 0-9.5 0h-6c-1.8 0-5.1.1-10.8.4-2.4.1-4.5-.1-4.8-.5-.2-.4-1.7-.4-3.3.1-1.5.4-3.4.4-4.2 0-.7-.5-1.7-.6-2.2-.3-.5.3-3.5.5-6.6.4-3.1-.1-7.6-.1-10.1-.1h-6c-1.8 0-5.1.1-10.8.4-2.4.1-4.5-.1-4.8-.5-.2-.4-1.7-.4-3.3.1-1.5.4-3.4.4-4.2 0-.7-.5-1.7-.6-2.2-.3-.5.3-3.4.5-6.5.6-6.8 0-11.2 3.1-10.4 7.3l.4 2.4-17.8.1c-30.9.1-30.4.2-30.7-4.1-.1-1.3-.9-2.5-1.9-2.8-1-.2-1.8-.8-1.8-1.2 0-1.2-5.9-3-6.5-2-.3.5-1.8.5-3.3.1-1.5-.4-4-.4-5.7-.1-1.6.4-3.9.3-5 0-1.1-.4-2.9-.4-4 0s-3.4.4-5.1 0c-1.8-.4-3.8-.4-4.5.1-.7.4-2 .4-2.8 0-.9-.5-2.5-.5-3.6-.1s-3.4.4-5.1 0c-1.8-.4-3.7-.4-4.3-.1zm139.6 20.6c.2.6-1 1.6-2.7 2.3-2.3 1.1-3 2-3 4.2 0 3.2-1.8 7.7-3.8 9.9-.8.8-1 1.6-.4 2 .6.4.4 2.5-.4 5.6-.7 2.7-1.3 5.3-1.4 5.7 0 .5-10.3.8-22.9.8h-22.9l-.4-2.5c-.3-1.4-.2-2.7.1-2.9.8-.5.5-7.1-.4-8.5-.3-.6-.1-1.1.5-1.1.7 0 .8-.6.1-1.9-.6-1-.8-2-.6-2.3.7-.7.8-7.8.1-10.5l-.5-2.2 29.1.2c18.5.1 29.3.6 29.5 1.2zm94.3 64.2c-.8.3-2.4 1.3-3.5 2.2-2 1.6-2 1.6-.1-.7 1.1-1.2 2.6-2.2 3.5-2.1 1.4 0 1.4.1.1.6zm38.5 1.3c.3.5-.1 1-1 1s-1.3-.5-1-1c.3-.6.8-1 1-1 .2 0 .7.4 1 1zm-17.5 1.8c0 .5-.7.9-1.5.9s-1.2-.4-.9-.9c.3-.4.9-.8 1.5-.8.5 0 .9.4.9.8zm-54 4.2c0 .5-.5 1-1.1 1-.5 0-.7-.5-.4-1 .3-.6.8-1 1.1-1 .2 0 .4.4.4 1zm-9.5 8c-1 1.1-2.1 1.7-2.4 1.4-.3-.3.3-1.2 1.3-2 2.8-2 3.2-1.7 1.1.6zm230 0c.3.5.1 1-.4 1-.6 0-1.1-.5-1.1-1 0-.6.2-1 .4-1 .3 0 .8.4 1.1 1zM468 250c0 .5-.5 1-1.1 1-.5 0-.7-.5-.4-1 .3-.6.8-1 1.1-1 .2 0 .4.4.4 1zm-18.7 40.5c-.3.9-.8 1.4-1 1.1-.3-.3-.2-.9.2-1.5.9-1.6 1.5-1.3.8.4zm-98.6 453.7c-.3.8-.6.5-.6-.6-.1-1.1.2-1.7.5-1.3.3.3.4 1.2.1 1.9zm287.3-.8c0 .2-.7.7-1.6 1-.8.3-1.2.2-.9-.4.6-1 2.5-1.4 2.5-.6zM553.5 779c-.3.5-1.2 1-1.8 1-.7 0-.6-.4.3-1 1.9-1.2 2.3-1.2 1.5 0zm-273 1c1.3.6 1.5.9.5.9-.8 0-2.2-.4-3-.9-1.8-1.2-.2-1.2 2.5 0zm64.5-.6c0 .3-.4.8-1 1.1-.5.3-1 .1-1-.4 0-.6.5-1.1 1-1.1.6 0 1 .2 1 .4zm71.7.2c-.3.3-1.2.4-1.9.1-.8-.3-.5-.6.6-.6 1.1-.1 1.7.2 1.3.5z"/>
</svg>