<svg xmlns="http://www.w3.org/2000/svg" viewBox="0 0 184 184">
  <path fill="#49FE48" fill-rule="evenodd" d="M183.7 175.68c0 7.97 0 7.97-7.93 7.97-56.5 0-113-.1-169.5.15-5.14.02-7.07-1.06-5.96-6.13 5-4.27 7.5-10.15 9.6-15.95 3.7-10.05 7.9-19.84 13-29.24 4.1-8.94 9.2-17.36 12.6-26.6l.5-1.34c.8-1.98 1.9-3.76 3.3-5.38 1.8-1.54 1.5-3.64 1.4-5.65-.5-2.8 1.7-5 2.1-7.6 1.8-4.4 3.2-8.9 6.4-12.6 5.2-6.6 7.9-14.5 11.1-22.1 7-16.5 16.1-31.7 28.9-44.3 1.4-1.4 3-2.1 5-1.4 2.1 1.2 2.8 3.3 3.4 5.3 2.1 6.8 5.5 12.8 8.9 18.9C112.3 40 118 50.3 122 61.4c1.4 3.7 3.5 6.8 6.4 9.4.8.9 1.5 1.9 2.6 2.5 1.6 1.4 3.54 2.6 4.2 4.77 2.24 7.3 7.4 13.1 10.1 20.17.5 2.6 1.65 5 2.18 7.6 3.85 8.57 7.57 17.17 11.34 25.75 3.43 8.3 8.58 15.7 12.26 23.8 3.33 7.4 7.9 14 12.8 20.4z" clip-rule="evenodd"/>
  <path fill="#FD00ED" fill-rule="evenodd" d="M127.76 72.1c-4.37-1.34-6.33-5.24-7.27-8.85-2.2-8.3-6.9-15.3-10.6-22.82-5.6-11.33-13.1-21.75-16.1-34.25-.6-.9-.5-1.8 0-2.7 3-3.68 7.2-2.58 10.7-1.96 10.9 1.94 21.9 2.9 33 2.7 13.1-.28 26.2-.1 39.3-.06 2.5 0 5-.06 6.9 2.07V84c-1.1 1.07-2.4 1.9-3.9 1.93-10.7.28-21.4 0-32.1.42-3.2-3.55-1.7-7.76-1.7-11.76.5-2.1.2-4.1.5-6.2 1.6-3.3 2-6.8 1.8-10.4-.1-.9.1-1.7.4-2.4 2.6-3.6 1.1-7.7 1.6-11.6.1-.8.4-1.6 1-2.2.6-.6 1.4-.7 2.2-.7 3.7 1.3 7.5 2.4 11.3-.1 1.9-1.5 4-2.7 5.5-4.8.8-1 2-1.1 3.1-1.4-1.2-1.2-2.5-2.1-3.6-3.4-2.5-3.1-5.7-5.5-8.2-8.5-1.6-1.9-3.9-1.4-5.9-1.68l-1.4.1c-1.6.3-3.3.4-4.9 0-1.5-.2-2.6.9-3.8 1.5-1.1.45-2.3.7-3.5.5-2.1-.2-4.2-.2-5 2.33-3.8 5.74-4.5 12.34-5.2 18.9-.4 3.9.3 7.93-.5 11.9-.2 3.8.1 7.63-.2 11.43-.2 2 0 4.7-3.6 3.7z" clip-rule="evenodd"/>
  <path fill="#FC01C9" fill-rule="evenodd" d="M183.7 6.24c-20.85 0-41.7.12-62.54-.1-5.68-.06-11.27-1.57-16.72-3.27-3.7-1.15-7.1-.88-10.27 1.46-7.72 2.57-15.84 3.42-23.8 3.76-16.02.6-32.08.2-48.13.2-2.66 0-5.28-.4-7.87-.8-4.52 1.4-2.1 4.9-2.26 7.6.3 3.6.5 7.2-.3 10.8-2.3 3.9-2.3 8-1.5 12.3-.6 4.9-.9 9.8 0 14.7.6 3.1-.2 6.2-1.1 9.2-1.2 4.4-.5 5 4 5.6 9.5 1.2 18.8-.5 28.2 0 2 .1 4.1-.2 5.9.7 2.1 1 4.4 2.1 3 5.2-3.1 3.5-2.7 8.8-6.2 12.1-1 1.4-2.5 1.5-4 1.4-2.6.1-5.3-.2-8 .3-7.7.8-15.5-.4-23.2 2-2.7.83-6 .72-8.3-1.8V62C2 58.68 2 55.36.5 52.03.4 35.77.4 19.5.3 3.23.23.75.8.2 3.3.2c59.13.08 118.27.1 177.4 0 5.96 0 1.77 4.16 3 6.04z" clip-rule="evenodd"/>
  <path fill="#24B4FC" fill-rule="evenodd" d="M148 85.75c2.06-1.97 4.63-1.77 7.18-1.76h28.52v25.9c-2.23 2.2-5.08 1.2-7.68 1.5-1.47.2-2.93.3-4.34-.4-3.72-2.7-7.98-1.5-12.03-1.7-4.65-.7-9.44-.9-13.6-3.5-2.3-2.2-2.26-5-2.24-7.8-.7-4.9.8-9 4.2-12.5z" clip-rule="evenodd"/>
  <path fill="#FDA500" fill-rule="evenodd" d="M37 106.07c-2.76 9.7-8.27 18.06-12.96 26.82-7.77 3.9-15.67 4.5-23.74.9v-29.9c1.07-1.1 2.27-2 3.84-2 7.17-.1 14.36-.8 21.5.4 2.15 1.2 4.34 2.2 6.94 2 1.66-.2 3.3 0 4.4 1.6z" clip-rule="evenodd"/>
  <path fill="#FEA400" fill-rule="evenodd" d="M146.03 106c4.78-.93 9.17.9 13.67 1.95 2.15 1.6 4.64.75 6.98.94 1.73.1 3.55-.4 5.1.8l3.9.3c2.4 1.8 5.7-.3 8.03 1.8v19.9c-.9.9-2 1.8-3.3 1.9-6.4.3-12.8.3-19.2 0-1.4-.1-2.4-1-3.4-1.8-2 .1-2.7-2-2.8-2.8-1-7.6-6.3-13.3-8.3-20.4-.3-.9-.3-1.9-.4-2.9z" clip-rule="evenodd"/>
  <path fill="#24B4FD" fill-rule="evenodd" d="M26.17 104.08L.3 103.92V87.97c7.98 1.1 15.52-2.64 23.45-2.12 2.8.18 5.6.14 8.4.2 2.7 1.43 5.37 1.35 8.06.06h3.7c1.5 3.1-2.1 5-1.7 7.9-1.6 1.8-.1 4.4-1.8 6.1l-2.9 5.1c-3.7-.5-7.5.7-11.1-1z" clip-rule="evenodd"/>
  <path fill="#B5FE01" fill-rule="evenodd" d="M157.64 131.98l26.06-.15v43.86c-5.88-2.9-9.22-8.1-11.66-13.8-3.38-7.9-7.97-15.2-12.06-22.7-1.3-2.4-2.47-4.6-2.34-7.3z" clip-rule="evenodd"/>
  <path fill="#FDDC03" fill-rule="evenodd" d="M.3 133.82c7.94.42 15.83-.47 23.74-.94-.62 5.12-4.36 8.8-6.18 13.44-3.63 9.24-6.88 18.67-11.7 27.42-1.3 2.4-2.6 4.55-5.85 3.93v-43.85z" clip-rule="evenodd"/>
  <path fill="#E7325C" fill-rule="evenodd" d="M.3 52.1c2.92 2.74 2.92 6.93 0 9.96V52.1z" clip-rule="evenodd"/>
  <path fill="#C6A941" fill-rule="evenodd" d="M183.7 111.9c-2.75-.3-5.95 1.44-8.04-1.82l8.04-.2v2z" clip-rule="evenodd"/>
  <path fill="#0115FC" fill-rule="evenodd" d="M10.18 26.02c.1-3.9.2-7.8.32-11.7 1.6-3.1 0-6.8 1.85-9.86 9.36 2.77 18.94.97 28.42 1.38 10.24.44 20.6 1.64 30.72.2 7-1 14.2-1.1 21-3.14 1.2-.37 1.1.92 1.6 1.43l-.4 1.85c-1.2.14-2.3.12-3.2 1.1C79.4 19.73 70 33.45 63 48.6c-3.67 8.04-6.2 16.6-11.16 24.06-.53.8-1 1.14-1.8 1.26-.7-2.77-2.46-4-5.3-4-12 0-24.06-.5-36.04.98-2.7.33-2.5-1.1-2.6-2.9C6 62.86 9 58.08 8 52.9c-.94-4.98-.56-9.86.38-14.76 1.7-3.88.05-8.25 1.78-12.12z" clip-rule="evenodd"/>
  <path fill="#04810F" fill-rule="evenodd" d="M148 85.75c-.98 4.3-1.78 8.65-4.2 12.47-3.07-6.06-7.73-11.28-9.64-17.95-.72-2.5-2.34-4.26-4.2-5.9 1.3-6.16 1.57-12.33 0-18.5.25-7.8-.45-15.6 1.68-23.3.88-3.18 2.87-5.52 4.4-8.22 1.48-2.13 4.28-.37 5.93-2 1.34-.1 2.7-.17 4.03-.26.83-.5 1.55-.4 2.06.4.45.7.24 1.6.26 2.4.1 4.6-1.27 9.4 2.04 13.6 1.26 1.6.36 3.8.45 5.7 0 1.2.2 2.5-.6 3.6-3.3.4-6.1-1.9-9.4-1.4l-.4-.2c-.7-.5-1.5-.7-2.2-1 .8.2 1.6.4 2.3.9 3.6.6 7.3.6 10.3 3.1.4 2.2.8 4.5-.6 6.5l-.2 1.83c-1.7 2.34-.2 5.2-1.1 7.63-2 2.5-2.3 5.2-.9 8.1l.4 12z" clip-rule="evenodd"/>
  <path fill="#F0F9F3" fill-rule="evenodd" d="M47.94 115.98C41 111 42.06 103.5 50.96 99.18c3.48-1.67 6.9-3.5 10.4-5.16 6.58-3.1 13.6-2.03 20.5-2.2 11.44-1.67 22.9 0 34.34-.04 4.23.35 8.67-1.4 12.68 1.25.3.52.26 1-.14 1.43-2.3 1.74-5 1.47-7.64 1.48-8.75.05-17.5-.04-26.48.06 8.73 12.45 9.24 16.5 3.1 23.27-.97.8-1.94 1.6-2.67 2.65-.73.76-1.6 1.2-2.64 1.4-2.6.06-5.2-.2-7.8.08-2.9.3-4.6-.87-5.6-3.53-4.4-6.47-4.4-10.13 0-16.7.6-.83 1.2-1.63 1.5-2.6.4-1.23 1.4-2.57.6-3.76-1-1.4-2.7-.8-4.1-.5-7 1.1-13.8 2.7-20.2 6.2-7.7 4.3-8.1 4.3-5.8 12.2-.4 1.6-1.3 2.3-2.9 1.4z" clip-rule="evenodd"/>
  <path fill="#E1F7E8" fill-rule="evenodd" d="M47.94 115.98c1.15-.16 2-.68 2.17-1.93 3.4-1.64 6.1.87 8.8 1.84 7 2.4 14.4 1.2 21.4 2.9 2.7 6.4 8.3 3.3 12.8 4 4.3-1.7 8.6-4.3 13.2-.9-1.2 1.2-2.8 1.5-4.5 1.5-15.9.4-31.8 1.4-47.3-3.5-2.5-.9-5-1.6-6.4-4.1z" clip-rule="evenodd"/>
  <path fill="#EBF8EF" fill-rule="evenodd" d="M128.73 94.23l.14-1.2c4.2 2.5 4.7 7.34 7.02 11.02.1.24.1.83 0 .94-3.7 2.8-4.5 7.8-8.1 10.6-2.8 2.1-5.3 5.1-9.5 4.3-1.5.3-2.9.8-4.3.7-2.2-.2-3-1.2-1.4-3.2 1.5-1.4 3.5-1.9 5.4-2.3 5.6-1.4 8.1-5.9 10.6-10.5 1.1-2-.2-3.5-.9-5.2-.8-2-2.1-4.1.8-5.5z" clip-rule="evenodd"/>
  <path fill="#CDF3D2" fill-rule="evenodd" d="M116.2 91.78l-34.35.05c1.08-.4 2.15-1.06 3.25-1.14 10.4-.8 20.77-.4 31.1 1z" clip-rule="evenodd"/>
  <path fill="#E315DE" fill-rule="evenodd" d="M129.97 55.86c1.75.67 1.67 2.22 1.7 3.67.1 4.06.1 8.13.2 12.2.02 1.4-.1 2.62-1.92 2.66-1.23-.3-2.44-.6-2.2-2.3 2.26-.5 2-2.3 2.04-3.9 0-4.2.1-8.3.1-12.4z" clip-rule="evenodd"/>
  <path fill="#E1F7E8" fill-rule="evenodd" d="M113.94 118.1c-.36.6-1.95 1.4.14 1.73 1.4.22 2.87.14 4.3.2-2.83 2.25-6.2 1.58-9.42 1.7-.73-1.33-3.98-.28-3-3.22 2.54-2.5 5.17-3.3 7.98-.4z" clip-rule="evenodd"/>
  <path fill="#EBF8EF" fill-rule="evenodd" d="M105.67 119.7c1.05.76 3.74-1.2 3.3 2l-2.76.3c-4.4-.87-8.7 1.3-13.2.85l1.1-2c3.1-1.52 6.5-1.34 9.7-1.96.8 0 1.5.2 2 .8z" clip-rule="evenodd"/>
  <path fill="#D2B630" fill-rule="evenodd" d="M26.17 104.08c3.73.05 7.54-.85 11.1 1l-.3 1c-3.54-.95-7.78 1.84-10.8-2z" clip-rule="evenodd"/>
  <path fill="#65FE61" fill-rule="evenodd" d="M41.3 176.47c3.26-2.4 6.4-1.9 9.48 0h-9.5z" clip-rule="evenodd"/>
  <path fill="#37C5C8" fill-rule="evenodd" d="M40.24 100.02c.2-2.16-1.14-4.78 1.83-6.1-.27 2.13 1.3 4.8-1.83 6.1z" clip-rule="evenodd"/>
  <path fill="#057F0E" fill-rule="evenodd" d="M170.2 37.06c.04 1 3.3 2.24.02 2.9-1.83.36-2.45 2.55-4.42 2.28-1.38.9-2.77 1.12-4.18.08-1.06-5.73-1.9-11.47-1.24-16.34.5-1.6 1.4-.84.77-1.1-.28-.1-.44-.07-.47.1-.7 4-.66 8 .1 11.98.33 1.8.8 3.52.17 5.32-1.1.84-2.23.85-3.4.2-2-2.7-2.47-5.8-2.2-8.98.4-4.4-1.1-8.88.44-13.25 5.1-.33 12.5 5 14.9 10.8-2 1.86-1.9 3.88-.5 6z" clip-rule="evenodd"/>
  <path fill="#02810A" fill-rule="evenodd" d="M148.87 20.3c1.98 0 3.97-.04 5.95-.06 1.77 4.56.75 9.3.9 13.96.03 1.44-.74 2.45-2.2 2.84-1.35.3-2.5-.23-3.57-.97-4-5-2.08-10.4-1.08-15.76z" clip-rule="evenodd"/>
  <path fill="#1EA830" fill-rule="evenodd" d="M148.87 20.3l-.06 10.28c0 1.83.1 3.64 2.1 4.56.7 2.3 2.1 4.5 1 7.05l-.1 1.8c-.5.7-1 .7-1.6.1-.7-4.1-.5-8.8-5.4-10.3 3.2-3.8 2.6-7.8 1.3-11.8.3-1.8 1.5-1.8 2.9-1.8z" clip-rule="evenodd"/>
  <path fill="#F90498" fill-rule="evenodd" d="M170.2 37.06c-1.54-.82-3.13-1.58-4.63-2.48-.8-.47-2.8-.2-1.78-2.04.5-.92 1.5-1.95 2.8-1.03 1.6 1.2 2.7.2 4-.4.4.3.9.4 1.3.7 1.9 1.6 5.5 3.4 4.8 5.5-1 2.9-3.2-1.7-5.3-.6-.5.2-1 .4-1.4.5z" clip-rule="evenodd"/>
  <path fill="#1EA830" fill-rule="evenodd" d="M152.8 36.14c2.27-.43 2-2.18 2-3.8 0-4.03 0-8.07.03-12.1h.95c1.9 7.13.22 14.6 2.03 21.75-.5.6-1.2.7-2 .5-1.5-1.9-3.3-3.6-3-6.4z" clip-rule="evenodd"/>
  <path fill="#027E0F" fill-rule="evenodd" d="M152.8 36.14c2.66 1.1 3.4 3.16 3 5.83-.6.68-1.28.76-2.04.3l-1.9-.07c-1.35-2.2-2.18-4.5-.98-7.05l1.93 1z" clip-rule="evenodd"/>
  <path fill="#9B3997" fill-rule="evenodd" d="M150.03 44.16l1.64-.15c-.38 4.1 2.04 8.6-1.78 12.2l-.3-7c-.3-.2-.4-.4-.3-.7.1-.2.2-.3.3-.3l.3-3.9z" clip-rule="evenodd"/>
  <path fill="#B52FB6" fill-rule="evenodd" d="M153.76 42.27l2.03-.3 2 .03 2.7.05c.4-.56.8-.58 1.2-.07l4 .27c-3.3 2.72-8.8 2.73-12.1.02z" clip-rule="evenodd"/>
  <path fill="#F6048E" fill-rule="evenodd" d="M173.6 51.86c.67-2.96 3.12-4.9 4.3-7.6 2.24-1 2.5-.03 1.88 1.88-1.25 2.67-3.14 4.75-5.78 6.1l-.4-.38z" clip-rule="evenodd"/>
  <path fill="#F7037A" fill-rule="evenodd" d="M174 52.23c-1.77 3.4-6.23.98-8.26 3.82l.04.04c-.33-6.9 5.2-2.9 7.82-4.3.1.1.23.3.4.3z" clip-rule="evenodd"/>
  <path fill="#FA04BF" fill-rule="evenodd" d="M179.78 46.14c-.22-1.04-.68-1.84-1.9-1.87.13-1.55-.96-3.38.8-4.5.42-.28 1.73.18 2.14.7 1.75 2.18.34 3.95-1.04 5.67z" clip-rule="evenodd"/>
  <path fill="#5C5358" fill-rule="evenodd" d="M147.54 66.04c.8-2.66-1.3-6.07 2.13-8.04-.08 3.46.6 7.05-1.76 10.12-.6-.6-.7-1.3-.3-2.08z" clip-rule="evenodd"/>
  <path fill="#FC03BD" fill-rule="evenodd" d="M175.83 58c2.32 1.02 2.6 2.68.63 4-2.18 1.47-4.05.82-4.57-2.08 1.1-.88 2.5-1.4 3.9-1.9z" clip-rule="evenodd"/>
  <path fill="#FC03BE" fill-rule="evenodd" d="M172.1 64.1c.98.06 2.07.02 1.8 1.54-.22 1.2-.65 2.23-2.1 2.22-1.13 0-1.85-.55-1.9-1.74-.04-1.5.9-1.94 2.2-2.02z" clip-rule="evenodd"/>
  <path fill="#642721" fill-rule="evenodd" d="M147.54 66.04l.37 2.08-.3 5.62c-3.1-2.56-2.6-5.13 0-7.7z" clip-rule="evenodd"/>
  <path fill="#F90592" fill-rule="evenodd" d="M165.75 56.05c-.08 2.43.4 4.9-.92 7.24-.7-2.5-2.8-5.1.95-7.2l-.03-.1z" clip-rule="evenodd"/>
  <path fill="#7A507E" fill-rule="evenodd" d="M141.97 22.34c-1.24 2.86-3.95 1.35-5.93 2 1.06-3.4 3.75-1.94 5.93-2z" clip-rule="evenodd"/>
  <path fill="#F90374" fill-rule="evenodd" d="M175.83 58c-.35 2.64-2.3 1.98-3.94 1.92.9-1.48.9-4.68 3.9-1.9z" clip-rule="evenodd"/>
  <path fill="#3013EB" fill-rule="evenodd" d="M10.18 26.02c-.04 4.12 1.36 8.45-1.8 12.1.32-4.06-.72-8.34 1.8-12.1z" clip-rule="evenodd"/>
  <path fill="#5612EC" fill-rule="evenodd" d="M12.35 4.46c-.52 3.3 1.43 7.08-1.85 9.86 0-3.4-.8-6.96 1.85-9.86z" clip-rule="evenodd"/>
  <path fill="#5E84EF" fill-rule="evenodd" d="M40.22 86.1c-2.7 2.9-5.38 2.9-8.05-.05l8.05.05z" clip-rule="evenodd"/>
  <path fill="#3FB2D1" fill-rule="evenodd" d="M171.77 109.78c-3.22-.04-6.44-.14-9.66-.1-1.3 0-2.1-.4-2.4-1.73 4.1.53 8.6-2.03 12.1 1.83z" clip-rule="evenodd"/>
  <path fill="#267E04" fill-rule="evenodd" d="M49.75 40.55c-6 4.43-9.47 10.83-13.22 16.98-2.8 4.6-7.3 7.3-11.57 9.9-2.3 1.42-6.54 1.92-6.78-3.3-1.54-.98-.02-3.24-1.74-4.14-2.33-6.7 3.27-10.2 6-14.7 3.08-5.1 4.32-11.1 7.8-16 .58-.8 1.05-1.1 1.86-1.2 1.2.3 1.94 1.2 2.5 2.2 2.58 4.3 6.3 6.9 11.32 7.7 1.5.2 3.35.3 3.83 2.4z" clip-rule="evenodd"/>
  <path fill="#4DF806" fill-rule="evenodd" d="M49.75 40.55c-6.3-.67-12.34-1.73-16-7.87-.86-1.44-1.67-2.78-1.66-4.48v-.06c.9-3.63 4.5-4.68 6.4-3 2.6 2.36 8 1.76 8 7.07 0 .6 1.1.3 1.6.8 1.1 1.6 4.6.9 4 4.3-.3 1.8-.4 3.2-2.5 3.4z" clip-rule="evenodd"/>
  <path fill="#4EF30C" fill-rule="evenodd" d="M40.25 12.4c2.9-1.8 2.8.45 2.88 2.2.15 3.22.18 6.44.26 9.66-2.6 3.9-5.9.62-8.8.7-1.9.04-1.7-1.6-1.2-2.98 1.4-3.8 3.9-6.8 6.8-9.58z" clip-rule="evenodd"/>
  <path fill="#259F05" fill-rule="evenodd" d="M35.5 21.43c-.04 1-2.82 2.32.43 2.9 2.5.44 4.98 1.46 7.45-.08.64.04 1.28.1 1.92.13.73 2.03 2.1 3.75 2.7 5.84l.2 2.7c-1.17.45-2.34.9-4.58 1.72 2.44-2.5 2-4.1.07-5.38-2.5-1.65-2.2 1.75-3.9 2.02-.8-1.47 2.3-3.8-.6-4.7-2.6-.82-5.2-.96-7.1 1.57l-.2-4.96c.4-2.2 1.8-2.2 3.5-1.8z" clip-rule="evenodd"/>
  <path fill="#D1E5D0" fill-rule="evenodd" d="M35.5 21.43l-3.53 1.74c-.77-.05-1.9.18-1.76-1.03.5-4.47 5.2-8.92 10.1-9.74.2 3.92-3.3 5.93-4.7 9.03z" clip-rule="evenodd"/>
  <path fill="#4AE913" fill-rule="evenodd" d="M48 30.22c-2.53-1.18-6.3-1.8-2.7-5.84.32-.06.63-.14.95-.18 2.35-.32 5.04-.17 5.58 2.3.4 1.92-1.94 3.05-3.82 3.72z" clip-rule="evenodd"/>
  <path fill="#216B39" fill-rule="evenodd" d="M16.43 60c.57-.16 1.23-1.74 1.65-.18.37 1.35.08 2.87.1 4.32-2.8-.46-1.8-2.5-1.75-4.15z" clip-rule="evenodd"/>
  <path fill="#1DAF33" fill-rule="evenodd" d="M137.78 51.3c2.18.72 4.36 1.46 6.54 2.2-2.57.7-4.82.2-6.9-.96.1-.42.23-.83.36-1.25z" clip-rule="evenodd"/>
  <path fill="#14AE2A" fill-rule="evenodd" d="M149.7 48.1c0 .34-.02.68-.04 1.02-3.22-1.17-6.8-1.17-9.8-3.05l-.04.03c3.5-.35 6.78.4 9.88 2z" clip-rule="evenodd"/>
  <path fill="#20BF39" fill-rule="evenodd" d="M139.85 46.08c-2.26.16-4.28-.1-5.12-2.95 2.8-.67 3.25 2.38 5.1 2.98h.02z" clip-rule="evenodd"/>
  <path fill="#44FE8C" fill-rule="evenodd" d="M105.67 119.7c-.58.1-1.15.18-1.73.26-2.73-.14-5.8 2.23-8.1-1.08 5.4-5.35 5.84-10.88 1.13-16.56-2.25-2.72-4.77-5.22-7.43-8.1h39.2c-1 1.48-.5 2.6.48 4 2.3 3.24 2.4 5.9-.04 9.96-3.73 6.22-8.52 9.1-15.23 9.9-2.9-.1-5.83-.5-8.28 1.62z" clip-rule="evenodd"/>
  <path fill="#44FD8C" fill-rule="evenodd" d="M80.24 118.85c-2.38 2.47-5.3 1-7.98 1-7.87.05-15.25-2-22.15-5.8-5.1-4.48-4.6-7.32 1.4-10.9 8.9-5.26 18.1-8.88 28.6-8.96 3.6-.1 5.2.7 3.2 4.5-1.3 2.5-2.1 5.3-4.3 7.5-2.8 2.8-2 7.9 1.4 12.6z" clip-rule="evenodd"/>
  <path fill="#4CFC49" fill-rule="evenodd" d="M87.64 118.08c-3.37.72-5.2-1.18-6.7-4.2-1.47-2.95-.65-5.06 1.57-6.97 1.6-1.3 2.3-3.1 3-5 1.4-3.7 3.8-3.4 5.9-1 1.7 2 4 3.4 4.8 6.2 1.6 5.3-.6 11.8-8.4 11.1z" clip-rule="evenodd"/>
  <path fill="#E1F7E8" fill-rule="evenodd" d="M95.85 118.88c2.44 2.3 5.44.4 8.1 1.08-3.23 1.3-6.52 1.8-9.93.88l1.83-1.96z" clip-rule="evenodd"/>
  <path fill="#25BD38" fill-rule="evenodd" d="M161.78 41.97l-1.24.07c-.5-5.85-1.44-11.7-.15-17.6-.1 5.9 1 11.68 1.3 17.53z" clip-rule="evenodd"/>
</svg>
