<svg xmlns="http://www.w3.org/2000/svg" viewBox="0 0 512 512">
  <g fill-rule="evenodd" clip-rule="evenodd">
    <path fill="#231F20" d="M19.3 321.32c1.87-.92 3.35.2 4.82.8 27.4 11.16 54.73 22.42 82.16 33.48 2.66 1.08 3.78 2.6 4.5 5.18 8.9 31.74 37.07 51.38 70.45 49.17 30.34-2 55.87-26.13 60.5-57.17.06-.33.2-.68.12-1-1.9-9.33 3.92-13.67 10.73-18.3 22-15.03 43.65-30.54 65.35-46 3.12-2.2 6.18-3.28 10.04-3.4 46.67-1.23 84.54-39.2 85.8-85.8 1.16-41.9-29.56-80.06-70.98-88.18-48.48-9.5-94.3 19.98-105.3 67.75-.7 2.9-1.6 5.95-1.4 8.85.6 8.2-3 14.5-7.57 20.9-15.76 22.1-31.2 44.42-46.63 66.73-1.9 2.73-3.83 3.83-7.26 3.8-12.06-.03-23.36 3.15-33.66 9.47-2.4 1.47-4.3 1.6-6.9.53-39.8-16.35-79.63-32.65-119.5-48.77-3.23-1.3-3.7-2.85-3.37-5.9C23.4 129.4 96.5 49.38 199.3 27.72 306.8 5.06 418.33 61.88 462.92 162.04c58.3 130.98-15.2 283.35-154.32 319.9-120.4 31.63-243.7-32.4-285.08-148.08-1.48-4.15-2.82-8.36-4.22-12.54z"/>
    <path fill="#231F20" d="M325.02 137.7c33.1.23 59.3 26.65 59 59.52-.3 32.22-27.27 58.06-60.3 57.78-32.33-.28-58.8-26.96-58.6-59.08.2-32.32 27.07-58.44 59.9-58.22zM129.75 365.3c10.8 4.38 20.4 8.48 30.12 12.2 21.34 8.17 44.18-3.87 49.5-25.9 4.02-16.74-4.8-34.23-21.1-41.38-8.38-3.66-16.94-6.87-25.37-10.38-1.48-.62-3.28-.8-4.3-2.33 23.2-9.2 51.16 2.17 62.2 25.3 11.15 23.4 2.1 51.56-20.62 64.3-23.84 13.4-55.72 5.9-70.43-21.8z"/>
    <path fill="#252122" d="M504 90.78c0 13.07-9.6 22.65-22.73 22.72-13.2.07-23.23-9.94-23.04-23.02.2-12.94 10.02-22.5 23.1-22.46 13.07.05 22.7 9.7 22.67 22.76z"/>
    <path fill="#DDB" stroke="#FFF" stroke-miterlimit="10" d="M324.84 240.16c-24.57.06-44.6-19.44-44.76-43.58-.18-24.3 19.95-44.4 44.5-44.46 24.7-.07 44.7 19.74 44.64 44.22-.05 24.3-19.75 43.76-44.38 43.82z"/>
    <path fill="#FEFEFE" d="M461.9 90.4c.1-11 8.4-19.14 19.4-19.06 11.25.08 19.37 8.46 19.15 19.77-.23 11.26-8.2 19.06-19.4 19-11.33-.04-19.25-8.2-19.14-19.66z"/>
    <path fill="#262223" d="M473.76 90c0-.98-.1-2 .02-2.98.3-2.57-1.32-6.57.83-7.43 3.56-1.45 7.9-1.2 11.66.54 3 1.4 4.5 6.2 2.03 8.5-3.78 3.55-1.2 6 .12 9 .5 1.15 2.77 2.53.8 3.7-1.93 1.16-3.3-.5-4.12-2.33-.68-1.5-1.54-2.93-2.2-4.45-.88-1.98-2.56-1.8-4.23-1.7-2.57.14-1.3 2.15-1.58 3.38-.14.64.06 1.34-.05 2-.22 1.26.83 3.44-1.72 3.26-2.32-.16-1.43-2.23-1.5-3.53-.12-2.66-.03-5.33-.03-8z"/>
    <path fill="#EFEFEF" d="M477.06 85.84c-.5-2.6.27-4.02 3.3-3.7 2.56.3 5.34.4 5.2 3.78-.14 3.1-2.7 3.6-5.36 3.87-3.27.3-3.46-1.55-3.14-3.98z"/>
  </g>
</svg>
