<svg xmlns="http://www.w3.org/2000/svg" id="Layer_1" data-name="Layer 1" viewBox="0 0 184.19 184.19">
    <defs>
        <style>.cls-1{fill:#626262;}.cls-2{fill:#222;}.cls-3{fill:#e0e0e0;}.cls-4{fill:#dedede;}</style>
    </defs>
    <path d="M.1.1q90 0 180-.1c3.42 0 4.1.67 4.1 4.1q-.2 88 0 176c0 3.42-.67 4.1-4.1 4.1q-88-.2-176 0c-3.42 0-4.1-.67-4.1-4.1Q.2 90.1.1.1z" class="cls-1"/>
    <path d="M92.1 183.1c-28.48 0-57-.1-85.45.1-4.37 0-5.67-1.2-5.66-5.62q.2-85.45 0-170.9C1 2.3 2.14 1 6.6 1q85.45.22 170.9 0c4.37 0 5.68 1.18 5.67 5.62q-.2 85.45 0 170.9c0 4.37-1.17 5.7-5.6 5.67-28.47-.2-56.96-.1-85.47-.1z" class="cls-2"/>
    <path d="M85.93 109.05c-.9-5.75 1.56-11.33 5.6-16.57 4.17-5.4 8.1-11 11.9-16.64 3-4.38 3.25-9.16.17-13.57-3.24-4.64-7.9-6.6-13.53-5.32s-8.5 5.1-9.07 10.55c-.36 3.5-1.64 5.2-5.28 4.45a2.5 2.5 0 0 0-.5 0c-10.1 0-11.27-1.46-7.92-11.4 3.5-10.4 11-16.8 21.74-18.22 11.23-1.5 20.93 2.33 27.05 12.25 5.9 9.58 5.8 19.62-.33 29.2a121.33 121.33 0 0 1-9.48 12.87c-4.53 5.36-7.1 11.2-6.2 18.3.34 2.74-.6 4.1-3.53 3.68a14.2 14.2 0 0 0-2 0c-8.65 0-8.65 0-8.65-9.58z" class="cls-3"/>
    <path d="M100.1 135.7c0 7.4 0 7.4-8.77 7.4-5.42 0-5.5 0-5.4-9.17.08-6.65-1.07-4.8 9.32-5.48 7-.46 4.38 4.2 4.85 7.24z" class="cls-4"/>
</svg>