<svg xmlns="http://www.w3.org/2000/svg" id="Layer_1" data-name="Layer 1" viewBox="0 0 184.62 184.39">
    <defs>
        <style>.cls-1{fill:#0979e1;}.cls-2{fill:#0b5bbc;}.cls-3{fill:#91adbb;}.cls-4{fill:#0c78d4;}.cls-5{fill:#647f90;}.cls-6{fill:#1381e6;}.cls-7{fill:#8aa7b6;}.cls-8{fill:#60b3e6;}.cls-9{fill:#0678e4;}.cls-10{fill:#309be4;}.cls-11{fill:#0474e6;}.cls-12{fill:#0658d1;}.cls-13{fill:#8ba8b6;}.cls-14{fill:#89a4b0;}.cls-15{fill:#0549d0;}.cls-16{fill:#076de4;}.cls-17{fill:#158cf4;}.cls-18{fill:#0f7ed8;}.cls-19{fill:#8acbf8;}.cls-20{fill:#3599e6;}.cls-21{fill:#0c6bca;}.cls-22{fill:#34a3e8;}.cls-23{fill:#a1bcca;}.cls-24{fill:#94ccf8;}.cls-25{fill:#0a70e0;}.cls-26{fill:#0576e7;}.cls-27{fill:#3a93d6;}.cls-28{fill:#0871de;}.cls-29{fill:#4690cd;}.cls-30{fill:#a4bbc6;}.cls-31{fill:#0657dd;}.cls-32{fill:#88a4ad;}.cls-33{fill:#0d6dcc;}.cls-34{fill:#075ee2;}.cls-35{fill:#49a6e7;}.cls-36{fill:#4a80bc;}.cls-37{fill:#7795a9;}.cls-38{fill:#1a65b5;}.cls-39{fill:#0e75cc;}.cls-40{fill:#258de4;}.cls-41{fill:#0f99f2;}.cls-42{fill:#617d8e;}.cls-43{fill:#78c2f5;}.cls-44{fill:#60b6f2;}.cls-45{fill:#769fbd;}.cls-46{fill:#7794a4;}.cls-47{fill:#7d9096;}.cls-48{fill:#83bbe4;}.cls-49{fill:#508fc0;}.cls-50{fill:#198adf;}.cls-51{fill:#08295d;}.cls-52{fill:#54aadb;}.cls-53{fill:#429ddd;}.cls-54{fill:#166bb4;}.cls-55{fill:#2b99d7;}.cls-56{fill:#507b99;}.cls-57{fill:#708995;}.cls-58{fill:#c0d6d9;}.cls-59{fill:#74b4e1;}.cls-60{fill:#064582;}.cls-61{fill:#d1f0fc;}.cls-62{fill:#0f8ae4;}.cls-63{fill:#faf5ad;}.cls-64{fill:#178ae1;}.cls-65{fill:#349ee5;}.cls-66{fill:#178ae2;}.cls-67{fill:#0b5ac9;}.cls-68{fill:#106ad8;}.cls-69{fill:#d2bfa1;}.cls-70{fill:#0c0e11;}.cls-71{fill:#eff3f2;}.cls-72{fill:#f9ee8b;}.cls-73{fill:#5d9ed2;}.cls-74{fill:#4893d0;}.cls-75{fill:#3c90d4;}.cls-76{fill:#2e7bca;}.cls-77{fill:#6693bb;}.cls-78{fill:#3ca1e1;}.cls-79{fill:#0987e6;}.cls-80{fill:#2691e0;}.cls-81{fill:#0a6ccc;}.cls-82{fill:#72bdf2;}.cls-83{fill:#2382db;}.cls-84{fill:#2f90dc;}.cls-85{fill:#326696;}.cls-86{fill:#457092;}.cls-87{fill:#0665cc;}.cls-88{fill:#0c63c2;}.cls-89{fill:#0f73ce;}.cls-90{fill:#5495cc;}.cls-91{fill:#6faedb;}.cls-92{fill:#5aa5db;}.cls-93{fill:#0989ed;}.cls-94{fill:#0b85dd;}.cls-95{fill:#218fe6;}.cls-96{fill:#71b9e1;}.cls-97{fill:#67a0ca;}.cls-98{fill:#4bace3;}.cls-99{fill:#5db7e8;}.cls-100{fill:#2c73b8;}.cls-101{fill:#0765df;}.cls-102{fill:#89b1ca;}.cls-103{fill:#0856cb;}.cls-104{fill:#2b81d7;}.cls-105{fill:#ccf5fe;}.cls-106{fill:#3495dd;}.cls-107{fill:#42a1e5;}.cls-108{fill:#3d90d2;}.cls-109{fill:#1a69b9;}.cls-110{fill:#d0733d;}.cls-111{fill:#397e9c;}.cls-112{fill:#369de4;}.cls-113{fill:#097ee2;}.cls-114{fill:#f4e675;}.cls-115{fill:#1d97e7;}.cls-116{fill:#1865b9;}.cls-117{fill:#47acee;}.cls-118{fill:#e6d47e;}.cls-119{fill:#206dad;}.cls-120{fill:#c5ac68;}.cls-121{fill:#4b93b9;}.cls-122{fill:#fbec62;}.cls-123{fill:#87b188;}.cls-124{fill:#4aa9e5;}.cls-125{fill:#ccd3d4;}.cls-126{fill:#916548;}.cls-127{fill:#c38c42;}.cls-128{fill:#73bdef;}.cls-129{fill:#50aeef;}.cls-130{fill:#1166ba;}.cls-131{fill:#1a6dd1;}.cls-132{fill:#29a8e3;}.cls-133{fill:#446d7b;}.cls-134{fill:#379eea;}.cls-135{fill:#1f96e7;}.cls-136{fill:#765a39;}.cls-137{fill:#2a8db9;}.cls-138{fill:#687572;}.cls-139{fill:#157fdd;}.cls-140{fill:#1793ec;}.cls-141{fill:#0859d1;}.cls-142{fill:#0d419a;}.cls-143{fill:#256da4;}.cls-144{fill:#25729d;}.cls-145{fill:#1f82ca;}.cls-146{fill:#0b60c3;}.cls-147{fill:#167ac2;}.cls-148{fill:#1c8fcb;}.cls-149{fill:#13a2f8;}.cls-150{fill:#1590d0;}.cls-151{fill:#1fa3e7;}.cls-152{fill:#337a9e;}.cls-153{fill:#1c7fba;}.cls-154{fill:#0968d4;}.cls-155{fill:#1550a3;}.cls-156{fill:#966c49;}.cls-157{fill:#9e4c3f;}.cls-158{fill:#7c5729;}.cls-159{fill:#44799e;}.cls-160{fill:#976735;}.cls-161{fill:#274c93;}.cls-162{fill:#5d2819;}.cls-163{fill:#f2bb6d;}.cls-164{fill:#773912;}.cls-165{fill:#fad28c;}.cls-166{fill:#f8f9f9;}.cls-167{fill:#cec187;}.cls-168{fill:#a58d7b;}.cls-169{fill:#8bc792;}.cls-170{fill:#f5d466;}.cls-171{fill:#835c38;}.cls-172{fill:#aecfa4;}.cls-173{fill:#644435;}.cls-174{fill:#e3b65a;}.cls-175{fill:#1a79c8;}.cls-176{fill:#4b6e6f;}.cls-177{fill:#72796d;}.cls-178{fill:#efd16a;}.cls-179{fill:#4087a5;}.cls-180{fill:#8caf97;}.cls-181{fill:#d7b45c;}.cls-182{fill:#b0803d;}.cls-183{fill:#73c78c;}.cls-184{fill:#2583a8;}.cls-185{fill:#c99650;}.cls-186{fill:#21689d;}.cls-187{fill:#2e506a;}.cls-188{fill:#ae7344;}.cls-189{fill:#9f7a55;}.cls-190{fill:#faf2a5;}.cls-191{fill:#f1cd4b;}.cls-192{fill:#99382e;}.cls-193{fill:#dc7d59;}.cls-194{fill:#e0a451;}.cls-195{fill:#ba7f4e;}.cls-196{fill:#da8047;}.cls-197{fill:#eceff0;}.cls-198{fill:#131314;}.cls-199{fill:#d0ba7f;}.cls-200{fill:#7e4511;}.cls-201{fill:#b48930;}.cls-202{fill:#9c7b4e;}.cls-203{fill:#cd904b;}.cls-204{fill:#efdd6c;}.cls-205{fill:#e8c567;}.cls-206{fill:#f5e382;}.cls-207{fill:#efd661;}.cls-208{fill:#d4ae51;}.cls-209{fill:#e5b756;}.cls-210{fill:#f7e679;}.cls-211{fill:#f4ce5a;}.cls-212{fill:#f1d36f;}.cls-213{fill:#e9bb54;}.cls-214{fill:#d9aa5b;}.cls-215{fill:#e6bb5e;}.cls-216{fill:#fcef8e;}.cls-217{fill:#f9ea6d;}.cls-218{fill:#cf914b;}.cls-219{fill:#724421;}.cls-220{fill:#fbf29d;}.cls-221{fill:#f5db6c;}.cls-222{fill:#ad7130;}.cls-223{fill:#cd964e;}</style>
    </defs>
    <path d="M184.3 54.2v23c-2.74 1.53-3.83-.74-5.14-2.32-1.15-1.38-1.88-3.4-4-3.43-4.25 0-8.2-.48-11.36-3.87-1.2-1.3-2.32.5-3.42 1.05-6.53.22-9.8-1.9-12.35-7.56-.86-1.93-.62-4.3-2.35-5.85-1-.87-2.1-1.65-3.13-2.5-1.8-1.63-3.1-3.9-5.7-4.52a44.23 44.23 0 0 1-7.76-2.76 9.48 9.48 0 0 1-3.6-2.2c-1.7-1.73-2.8-4.05-5.2-5.04-6.9-1-12.5-5.56-19.4-6.7a3 3 0 0 1-2.2-3.92c.5-1.93 2.1-2.37 4-2.1 3.4.55 6.5-.7 9.4-2.28a5.34 5.34 0 0 1 1.5-.4c16.3-3.25 30.5 2.58 44.5 9.9 2 1.1 4.3 1.5 6 3.08 1.5 3.7-2 6.08-2.5 9.28s1.6 4 4.1 4.5c3.9 1.4 7.4 4.1 12 2.93 2.3-.1 4.5-.1 6.3 1.7z" class="cls-1"/>
    <path d="M.3 150.2v-34c1.8-1.37 3.2-.18 4.37.9 5.8 5.44 12.36 8.73 20.58 7.65a3 3 0 0 1 1.83.7c2.42 3 4.7 6.08 4.33 10.27-.2 1.2-.7 2.37-1 3.57a12 12 0 0 1-3.3 5.5c-6 1.6-10.5 5.1-13.2 10.8a4.36 4.36 0 0 1-2.5 2.2c-5.3-.2-8.5-3.5-10.9-7.7z" class="cls-2"/>
    <path d="M33.3.2h11c3.4 5.77 1.75 11.9 1.26 17.93-.74 2.32-2.74 3-4.75 3.8-6 2.44-12.3 4.33-18.1 7.22a5.76 5.76 0 0 1-1.5.4A27.64 27.64 0 0 0 7.9 32.5c-1.94 1-4 1.47-6.1.4-1.63-2.4.23-3.6 1.75-4.78a22.1 22.1 0 0 1 4.82-2.63c3.14-1.4 4.12-3 1.32-5.9a4.5 4.5 0 0 1 0-6.8c2-2 3.2-4.6 5.5-6.5C21 3.9 27.2 2.2 33.3.1z" class="cls-3"/>
    <path d="M.3 80.2v-20c3.34-1.3 5.74.92 8.37 2.24a6.13 6.13 0 0 1 1.5 1.68c1.45 3.6 3.28 6.92 6.7 9 6.5 4 12.2 2.85 18.7-3.58 1.84-1.82 3.3-4.5 6.63-2.76a3.62 3.62 0 0 1 1.27 3.62c-1.8 7.5-.83 15.28-2.28 22.8-1.6 2.48-2.7.78-3.7-.45s-.7-2.9-2.2-4c-2.1 1.54-2.2 3.4-1 5.5.8 1.4 2.2 2.44 2.3 4.24-.8 2-2.4 2.3-4.3 2-3.3-1.9-2.7-6-4.8-8.5a21.3 21.3 0 0 0-7.8-7.9 20.34 20.34 0 0 0-4.8-2.1 4 4 0 0 1-1.1-.9c-2.7-3.1-6.2-1.2-9.4-1.2-1.3 0-2.7 1.2-4.2.3z" class="cls-4"/>
    <path d="M44.24 19.14L44.3.2h34c2.54 3.67 2.3 7.75 1.73 11.88-2.7 4.06-7.28 2.38-10.94 3.36-2.7.7-5.5 1-8.2 1.86-5 1.4-10.3 2-15.4 3.28-.9-.07-1.5-.4-1.3-1.44z" class="cls-5"/>
    <path d="M184.3 146.2v1a10.73 10.73 0 0 0-1.57 4.6c-.87 5.26-3.86 8.55-9.3 9.34-6-.72-11 2.9-16.46 4.28-8.54 1.16-16.23 5.6-24.87 6.37-6.43 1.5-12.87 3.1-19.54 1.5-4-3.1-3.94-6.2.38-8.7 3.2-1.9 6.88-2.4 10.46-3.1 7.48-1.4 15.14-1.8 22.36-4.6 1.87-.7 3.93-.5 5.92-.4 4.44-.1 8.27-2.2 12.24-3.8 5.7-1.9 11.54-3.3 16.72-6.5 1.12-.7 2.38-1.3 3.67-.2z" class="cls-6"/>
    <path d="M79.2 12.27A59.2 59.2 0 0 1 78.3.2h37c2.47 4.2 2.2 8.4-.1 12.6-11.2 3.67-22.65 3.76-34.2 2.4a2.66 2.66 0 0 1-1.8-2.95z" class="cls-7"/>
    <path d="M58.3 184.2h-14a18.94 18.94 0 0 1-8.14-7.88c-.3-1.87-2.15-3.57-.65-5.64 2.7-1.55 5.8-1.6 8.7-1.86 6.4-.56 11.1-2.92 12.7-9.56a2.25 2.25 0 0 1 1.5-.6c5.6 1.78 8 5.88 8.5 11.4s-1.6 9.94-6.4 12.9a12.34 12.34 0 0 0-2.1 1.23z" class="cls-8"/>
    <path d="M73.3 184.2h-2c-.92-1-.66-2.15-.36-3.27 1.7-6.3.73-12.06-3.35-17.23a6 6 0 0 1-.6-1.45 26 26 0 0 0-2.2-8.87c-2.4-4.5-3.7-9.23-2.9-14.36.3-2 1.3-4.2 3.4-2.64 4.5 3.26 9.5 6 12.2 11.3a4.34 4.34 0 0 1 .3 2.92c-1.5 1.65-2.2 3 .6 4.16 1.6.67 4 1 3.8 3.77-4 4.06-2 10.4-5.9 14.92a24.07 24.07 0 0 1 12.6-1.68c3.1.3 6.3.73 7.7 4.3 0 1.7-1.2 2.72-2.4 3.6-5.4-.22-10.6 2.17-16.1 1.16-2.7-.5-3.1 2.76-5.1 3.36z" class="cls-9"/>
    <path d="M164.3 36.2a9.53 9.53 0 0 1-6-1.96c-5.57-5.82-13-7.48-20.46-9-5.3-1.1-9.65-5-9.73-9.2a3.74 3.74 0 0 1 3-.95 5.07 5.07 0 0 1 1.6.4c4.7 4.2 10.4 5.3 16.5 5.5a4.5 4.5 0 0 1 1.4.4c5.7 3.3 10.8 3 15.2-2.2a8.27 8.27 0 0 1 3.2-.5 48.2 48.2 0 0 1 15.5 3.4v3c-1.8 3.8-6.3 4.4-8.8 7.3a7.12 7.12 0 0 1-1.1.8 51.57 51.57 0 0 1-10.1 2.8z" class="cls-10"/>
    <path d="M94.3 179.2c-.05-1.5 1.34-2 2-3 2.73-2.15 6.08-1.92 9.23-2.5 9.2 1.28 18.45.4 27.67.66 3.93 2.25 7 5.22 8.12 9.83h-38c-2.48-2.7-6.34-2.8-9-5z" class="cls-11"/>
    <path d="M164.3 154.2c-3.8 1.85-7.43 4.22-11.94 4-2.25-3-1.87-5.23 1.78-8 3.15-2.43 6.88-4 9.76-6.87 8.62-8.16 16-16.92 14.48-30a3.66 3.66 0 0 1 .86-3.24c3.13.1 3.28 2.7 3.83 4.9s.08 4.3 1.26 6.2v7a51.83 51.83 0 0 1-10.27 18.5c-2.88 3.2-6.3 5.2-9.75 7.5z" class="cls-12"/>
    <path d="M126.3.2h23c6.17 2.48 6.77 5.3 2.16 10.1a12.5 12.5 0 0 1-3.38 2.86 7.77 7.77 0 0 1-1.72.5 69.54 69.54 0 0 1-16.12 0c-1.85-.2-3.54-.64-4.65-2.3-1.5-3.84-2-7.6.7-11.17z" class="cls-13"/>
    <path d="M15.3 7.2c-1 2.38-1.8 4.74-4.34 6.35-2.92 1.86-1.7 4.17.45 6.1 3.9 3.37 3.7 3.93-.7 6.4-3.2 1.84-7.3 2.52-9.4 6.15a.6.6 0 0 1-1 0v-13c1-1.07 1.9-2.15 2.8-3.3-.9-.44-2 0-2.8-.7v-9a13.66 13.66 0 0 1 9-4.87c4.1-.64 6.3 1.6 6 5.86z" class="cls-14"/>
    <path d="M184.3 121.2c-3.12-3-1.67-8.1-5-11a1.62 1.62 0 0 1-1.88-.64c-3.47-5-6.12-10.7-12.65-12.68a2.68 2.68 0 0 1-1.68-3.68c1.5-3.93-.2-5.5-3.9-6a4.46 4.46 0 0 1-2.9-1.84c-1.5-2.74-.2-4 2.4-4.5 4.1-.85 10.7 1.68 13 5.23a32.68 32.68 0 0 0 7.5 8.4c2.2 1.7 3.3 4.4 5 6.6v20z" class="cls-15"/>
    <path d="M160.3 68.2a3 3 0 0 1 2.16-3.5c1.75-.57 2.43.64 3 1.86 1.58 3.34 4.93 4 7.58 3.28 4-1 5.54.7 6.94 3.67.87 1.9 2 3.5 4.32 3.7v15c-2.5 1.5-3.67-.5-4.82-2-3.3-4-7.75-7.1-10.14-12-.9-1.8-2.48-1.8-4.23-1.5-2 .4-4.2 1.2-5.7-1.2-.6-2.5-1-5 1-7.2z" class="cls-16"/>
    <path d="M173.3 160.2c4.5-1.53 7.9-4 8.1-9.3.07-1.83 1.43-2.88 2.92-3.7v17c-5 2.5-7.68 7-9.92 11.85-3.87 3.32-7.87 6.2-13.36 3.73-3-4.32-2.76-5.84 1.52-8.85a7.08 7.08 0 0 0 2.06-.94c1.86-1 2-2.8 2.58-4.5.98-2.9 2.36-5.6 6.1-5.3z" class="cls-17"/>
    <path d="M164.3 172.2c-5.48.4-4.2 3.7-3 7 .32 4.44-4.08 3.24-6 5h-14c-2.26-3-6-4.94-7-9 1-1.5 2.8-1.7 4.32-2.3 6.3-.88 12.75-.56 18.92-2.38a8.46 8.46 0 0 0 1.14-.94c1-1.2 1.78-3.35 3.73-2.27 1.7 1 3.2 2.6 1.9 4.9z" class="cls-18"/>
    <path d="M.3 100.2v-12c1-1.7 2-3.28 4.2-3.4 3.3-.78 6.58-1.6 10-.65 1.57 1 3 3.32 5.07.66a2.5 2.5 0 0 1 1.43.4c6.12 6.3 5.4 12-1.78 14.3-5.73-2.2-11.32-2.6-16.65 1.2a1.83 1.83 0 0 1-2.26-.3z" class="cls-19"/>
    <path d="M.3 108.2v-7c3.44-.37 6.77-.65 9.88-2.7 2.4-1.58 5.38-.73 8.06.2a4.3 4.3 0 0 1 1.44.3 4.12 4.12 0 0 1 1.86 1.32 9.1 9.1 0 0 1 .6 8.23c-3.8 1.06-4.4 5.18-7 7.38-6.05 1.35-8.74.42-12-4.32a15.1 15.1 0 0 0-2.83-3.4z" class="cls-20"/>
    <path d="M.3 108.2c1.38-.1 3.3-1.25 3.75 1 1.37 6.67 6.37 6.1 11.26 5.93 7.9-2 11-.4 11.7 6.1.2 1.72.9 3.5-.7 5-9.6 1.56-17.2-2.27-23.7-9.08a6.18 6.18 0 0 0-2.2-.96v-8z" class="cls-21"/>
    <path d="M37.3 176.2l7 8h-17c-5.8-1.14-11.8-1.87-16.2-6.54-.5-2.6-2.4-5-1-7.88 2.4-2.05 4.55-.84 6.77.43 3.83 2.2 7.67 4.5 12.32 4.4 2.8-.1 5.7-.5 8.1 1.6z" class="cls-22"/>
    <path d="M148.3 12.2a16.57 16.57 0 0 1 1.7-2.93c4.37-4.9 4.4-4.86-.68-9.06h13c3.63 2.5 4.5 5.9 3.54 10-3 3.5-7.23 4.7-11.5 5.3-2.48.4-5.54.6-6.05-3.2z" class="cls-23"/>
    <path d="M184.3 35.2v3c-.92.66-.72 1.32 0 2v10c-3.24 2.8-6.9 1.53-10.5 1.07-4.4-3.34-5.28-7.2-2.4-11.44 1.3-1.88 2.27-4.1 4.38-5.32 2.96-1.2 5.93-2.5 8.53.7z" class="cls-24"/>
    <path d="M164.3 154.2c2.5-3.5 6.28-5.6 9-9 3.57-4.45 6.67-8.94 8.63-14.25.45-1.2.66-2.65 2.4-2.73v18a63.72 63.72 0 0 1-20.02 7.97z" class="cls-25"/>
    <path d="M155.3 184.2c1.17-2.7 4.87-2.34 6-5 5.17 1.47 8.7-2.43 12.95-3.94a5 5 0 0 1 2.84.28c2.2 1.27 5.2.65 7.2 2.65 1.1 5.1-.9 6.5-6 6.1-7.7-.6-15.4-.2-23-.2z" class="cls-26"/>
    <path d="M8.3 63.2l-8-3v-12c3.7-2.43 5.18-7.65 10.34-8.25 4.94 4 5.37 4.72 1.55 9.1s-2.8 9.4-3.9 14.15z" class="cls-27"/>
    <path d="M94.3 179.2c3.95 0 7.78.14 9 5h-30c1-4 2.7-6.76 7.5-4.38 1.5.74 3-.2 4.3-.76 3.14-1.36 6.15-.78 9.2.13z" class="cls-28"/>
    <path d="M10.3 40.2c-3.6 2.3-4.8 7.65-10 8v-4c1.32-2.64 3.65-4.2 6-5.8 6.38-4.4 13.34-7.7 20.2-11.2 4.77-1.1 9-3.68 13.72-5 1.43-.4 2.74-1.1 4.23-.32a3.35 3.35 0 0 1 1 2.15 4.2 4.2 0 0 1-.57 2.32c-2.2 2.62-5.4 3-8.44 3.7-7 1.52-13.27 4.9-19.6 8.1-2.07 1.04-4.02 2.5-6.53 2.04z" class="cls-29"/>
    <path d="M15.3 7.2c-2.38-5.24-3.48-5.64-8.5-3.4-2.1.93-4.33 1.6-6.5 2.4-1.13-5.14.83-6.47 6-6.16 9 .54 18 .15 27 .15-5.28 4.1-11.53 5.8-18 7z" class="cls-30"/>
    <path d="M184.3 101.2c-5.16-4.16-10.27-8.4-13.83-14.1-1.82-2.93-9.7-6.07-12.74-4.77-1.7.73-.74 1.84-.4 2.87-1 2.85-2.62 1.72-3.88.35a5.6 5.6 0 0 1-1.65-5c6-4.45 14.92-3.77 20.7 1.9 4.13 4 7.5 8.8 11.8 12.7v6z" class="cls-31"/>
    <path d="M165.3 9.2a36 36 0 0 0-3-9h2c2.35 1.6 5 .75 7.53 1 1.66.16 3.65-.64 4.7 1.48a1.16 1.16 0 0 1-1.37 1 11.8 11.8 0 0 1 9.15 2.5v5c-2.9 2.55-6 .7-8.9.1-2.8-.58-5.5-1.38-7.8 1.06-2.5.23-1.6-1.95-2.2-3.15z" class="cls-32"/>
    <path d="M.3 150.2c3.74 2.2 6.4 6.1 11 7 1.27 2.26-1.05 4.34-.33 6.58 0 1.85 0 3.7-1.1 5.33-4.47 1.9-6.8-1.5-9.54-3.9v-15z" class="cls-33"/>
    <path d="M184.3 95.2a16.72 16.72 0 0 1-8.56-6.94c-4.23-7.24-9.37-9.82-20.92-8.16a23.46 23.46 0 0 1-2.46.1 2 2 0 0 1-.6-1.25 2.4 2.4 0 0 1 .6-1.28 11.1 11.1 0 0 1 4.57-1.8c1.15-.1 2.32-.46 3.4.32a10.93 10.93 0 0 0 2.9-.6c4.3-2.1 6.17-1 8.6 3.5a38.12 38.12 0 0 0 12.48 13v3z" class="cls-34"/>
    <path d="M68.26 162.2q0 .47.1.94c1.52 3.5 3 7 2.43 11-.7 4.34-2.4 7.92-6.5 10h-6a5.6 5.6 0 0 1 .8-1.73c8.8-8.5 8.6-15.6-.8-23.2a.9.9 0 0 1 0-1.2c2.2-.8 4.2.6 6.3.9 1.9.4 2.8 1.9 3.6 3.4z" class="cls-35"/>
    <path d="M26.3 28.2c-2.7 4.12-7.87 4-11.6 6.62A146.72 146.72 0 0 1 .3 44.2v-7c5.88-5.65 13.63-6.92 21-9h1c1.34-.67 2.7-1.1 4 0z" class="cls-36"/>
    <path d="M167.3 12.2c0-3.3 1.28-4.23 4.62-3.37 4.05 1 8 2.7 12.37 2.38v5c-4.2 3-8.9 1-13.3 1.4a4.6 4.6 0 0 1-1.6-.5 5 5 0 0 1-2.2-4.8z" class="cls-37"/>
    <path d="M176.3 35.32c-3 4.54-8.1 8.65-3 14.82 1.25 1.44 4.73.7 4 4.08a15.13 15.13 0 0 1-12-4c-.44-3.85 2.2-6.66 3.36-10 .72-2.06 2.1-3.76 2.9-5.76.87-.82 2.2-1 2.78-2.22v-.08c3.34-1.75 6.68-2.78 10 0v1c-2.52 1.38-5.82-.28-8.03 2.16z" class="cls-38"/>
    <path d="M11.3 177.14l16 7.05h-10c-6.1-1.3-12.3-2.3-17-7v-4c4.54-1.2 8 .8 11 3.9z" class="cls-39"/>
    <path d="M64.3 184.2c5.8-6.16 5.38-13.5 4-21 6.47 6.22 6.13 13.42 3 21h-7z" class="cls-40"/>
    <path d="M11.3 177.14l-11-3.95v-8c3.44.3 5.74 3.2 9 4 .92-.3 1.25.1 1 1-.1 2.3 3 4.3 1 6.9z" class="cls-41"/>
    <path d="M126.3.2l.16 11a1.18 1.18 0 0 1-.3 1.45 5.57 5.57 0 0 1-5.53.3 3.17 3.17 0 0 1-1.15-1.16c-.4-3.9-3.25-7.5-1.17-11.6h8z" class="cls-42"/>
    <path d="M184.3 178.2c-2.9 0-6.16 1.33-8.22-2.08-1.18-6.15 2.78-10.45 8.23-8.93v11z" class="cls-43"/>
    <path d="M19.3 99.2c-4.73-.1-9.46-.64-13.23 3.54-2.37 2.63-3.22-3.07-5.73-1.58v-1c3.6-2 6.63-4.94 11.53-4.2 2.7.4 5 1.6 7.47 2.22a.6.6 0 0 1 .24.68.43.43 0 0 1-.27.33z" class="cls-44"/>
    <path d="M21.3 28.2l-21 9v-5h1a12.76 12.76 0 0 0 7.14-1.52 23.66 23.66 0 0 1 12.87-2.5z" class="cls-45"/>
    <path d="M118.3.2c.52 4 2.9 7.67 2 11.9-1.62 1.67-3.27 1.6-5 .07V.2h3z" class="cls-46"/>
    <path d="M176.3 3.06c-2.17-1.6-4.67-.7-7-.85-1.92-.1-4 .2-5-2 5.34 0 10.7.3 16-.1 3.47-.2 4.77.7 4 4.1-3 1.8-5.37-.2-8-1.1z" class="cls-47"/>
    <path d="M15.3 85.2a41 41 0 0 0-11 1c-.63-2.2 1.48-2 2.45-2.8.6-.3-.5-.62 0-.16a.23.23 0 0 1-.15.43C4.36 83.6 2.95 86.9.32 85.22v-3c4.52-3.15 9.2-4.66 14.3-1.24l.65.32c1.13.85-2.27 1.9.13 2.7a1.2 1.2 0 0 1-.1 1.2z" class="cls-48"/>
    <path d="M169.3 16.2h15v4c-5.24 2.08-10-.24-14.77-1.8-.8-.26-.7-1.4-.22-2.2z" class="cls-49"/>
    <path d="M184.3 32.2h-10c2.45-3.62 6.65-4.72 10-7v7z" class="cls-50"/>
    <path d="M14.6 80.95c-5-1.83-9.56.44-14.3 1.24v-2c4.17-2.7 8.8-2.3 13.4-2 2.35.2 3.1 1 .9 2.7z" class="cls-51"/>
    <path d="M169.3 16.2c1.6 3.46 4.82 2.66 7.65 3 2.44.27 4.8 1.3 7.32 1v2c-5.55.82-10.6-2.23-16.06-2.07-1.2-1.14-2.2-2.33-1.1-4.1a1.76 1.76 0 0 1 2.2.16z" class="cls-52"/>
    <path d="M177.3 54.2l-4-4h11v4z" class="cls-53"/>
    <path d="M184.3 167.2c-5.75.7-7.12 2.2-8.22 8.92l-1.82-.87c1.35-7.24 3.85-10 10-11.06v3z" class="cls-54"/>
    <path d="M.3 177.2l17 7h-7c-3.12-1.84-7.58-.37-10-4v-3z" class="cls-55"/>
    <path d="M.3 180.2c3.72.38 7.18 1.4 10 4a38.2 38.2 0 0 0-6 .05c-3.44.55-4.75-.64-4-4.06z" class="cls-56"/>
    <path d="M.3 15.2c1.92-.35 4.47-3 5.5-.84 1.27 2.6-2.6 3-4.1 4.5a3.08 3.08 0 0 1-1.4.32v-4z" class="cls-57"/>
    <path d="M176.3 3.06l8 1.13v2c-3.83.2-7.1-2-10.8-2.9z" class="cls-58"/>
    <path d="M.3 85.2c2.43 0 4.2-2.5 7-1.77-.74 1.26-2.6 1.2-3 2.74-1.67 0-2.6 1.45-4 2v-3z" class="cls-59"/>
    <path d="M176.3 35.32c1.92-3.56 5.28-1.65 8-2.13v2c-2.67-1-5.33-.4-8 .1z" class="cls-60"/>
    <path d="M184.3 40.2c-1.23-.28-3.53.85-3.38-1.32s2.07-1.2 3.4-.7v2z" class="cls-61"/>
    <path d="M44.3 26.2l.12-1.95c3.5 0 7.06-1 10.4.83 3.85 3.2 5.44 3 7.9-1.1.6-1 .96-2.04 2-2.68 6-2.42 12.4-3.24 18.83-3.76 7.2 6 15.3 7.66 24.33 5.34a4.1 4.1 0 0 1 4.43 1.3c-2.4 2.8-5.7 2.94-9 2.75-1.4-.08-3.3-1.1-3.4 1.2-.1 1.8 1.3 2.86 3.4 2.6 3.6-.48 6.3 3.64 10.1 2.2.6 5.35 5.9 1.82 8 4.2.7 1.3.2 2.33-.7 3.3a3.6 3.6 0 0 1-1.3.53c-1.2.14-2.3-.4-3.5-.38-3.2-.15-5.7-1.93-8.3-3.4-1.3-.92-2.5-1.53-3.1.63-.7 1.5-.4 3.2-1.4 4.5s-2.9 1.4-4 2.5c-1.9.9-4.3 1.3-3.7 4.4a4.16 4.16 0 0 1-.4 1.4 7.07 7.07 0 0 1-2.7 2.4 4.82 4.82 0 0 1-3.5 0c-1.52-.4-2.9-3.1-4.6.3-1.3 2.6-2.9.2-4.3-.6-5.04-6.6-11.5-9.1-19.74-7.2a35.7 35.7 0 0 1-10.4.6c-3.6-.2-5.4.6-5.26 4.5A2.63 2.63 0 0 1 43 53a4.35 4.35 0 0 1-4.7-.5c-2-4.7.25-8.7 2.33-12.7 1.9-1.2 3.84-.4 5.8-.1a30.22 30.22 0 0 0 15.3-.8 8.1 8.1 0 0 0 4.8-3.5 82.6 82.6 0 0 0-17.6 2c-2.7.5-5.4 1.1-6.4-2.6a18.5 18.5 0 0 1 2.1-8.5z" class="cls-62"/>
    <path d="M126.18 42.3l3 1.9c3.3 2.85 8.4 4.3 7.83 10.14-6.7 5.35-16.7 3.85-20.7-3.45-1.1-2-.1-3.5 1.3-4.8 1.3-1.2 3.1-1.3 4.2-2.6 1.4-.7 2.4-2.9 4.4-1.2z" class="cls-63"/>
    <path d="M128.3 16.2c1.5 4.64 5.75 6.63 9.6 7.6 4.6 1.2 8.82 3.43 13.5 4.34 3.25.64 5 3.5 6.9 6-8.34-6.52-18.93-7-28.4-10.46-5.3-1.94-11.08-.2-16.63.4-.28-3.73 2.2-6.12 4.28-8.72a4.78 4.78 0 0 1 1.58-.58c3.18-.28 6.45-1.16 9.18 1.4z" class="cls-64"/>
    <path d="M117.3 16.2c.23 3.42-2.62 5.3-4 7.93l-1 .06c-4.8-.4-9.43 1.3-14.28 1-6-.4-10.87-2.4-14.6-7.1-1.1-.5-1.77-1.2-1-2.4 2.48-1.4 4.4-.2 6.24 1.3 4.94 3.6 9.84 6.3 16.34 4 3.22-1.2 5-3.5 7-5.8 1.95-.7 3.77-.8 5.3.9z" class="cls-65"/>
    <path d="M160.3 76.2l-3.15.9a3.34 3.34 0 0 1-.5-1.26c.14-2.36-1.1-3.7-3.26-4.25a7 7 0 0 1-3.9-2.2c-1.9-2.4-4-4.6-4.3-7.8a10.85 10.85 0 0 1-.7-2.8c0-1.7.1-3.4 1.5-4.7 1.3-1 1.9 0 1.9 1 .4 7.7 5 11.5 12.1 12.8v8z" class="cls-66"/>
    <path d="M172.3 34.2c-1.64 5.6-3.57 11.1-7 16-4.75 1.4-5.28-1.4-5-5 2.17-3.38 5.1-6.1 7.72-9.1 1.08-1.23 2.34-2.4 4.3-1.9z" class="cls-67"/>
    <path d="M172.3 34.2c-4.46 3.12-7.18 8.16-12 11 .58-3.36 2.9-5.93 4-9 2.45-3.63 6.85-2.2 10-3.9a2 2 0 0 1-2 1.9z" class="cls-68"/>
    <path d="M136.3 54.13c-.54-4.62-5-6.47-7.12-9.93l8.17 3c1 3.2 3.22 5.86 4 9.16a7.3 7.3 0 0 1 .28 2.15 3.9 3.9 0 0 1-1 2.8c-4.16 0-3.23-3.3-3.73-5.8a3.2 3.2 0 0 0-.6-1.3z" class="cls-69"/>
    <path d="M140.47 57.77l-.3-1.65c-1.17-3.28.86-4.07 3.45-4.4l2.57 2.66-.4 4.56c-2.6 3.25-4 1.1-5.4-1.17z" class="cls-70"/>
    <path d="M143.62 51.7c-1 1.62-4.3 1.4-3.46 4.42l-3.7-6.7c-.65-1.14-1-2.15.9-2.25 3.2.02 4.36 2.77 6.26 4.54z" class="cls-71"/>
    <path d="M126.18 42.3l-3.87 1.9-.5-.4a7.07 7.07 0 0 1-1.5-3.7l1.2-3c3 .53 3.2 3.58 4.9 5.2z" class="cls-72"/>
    <path d="M26.2 144.13l3-5c1.25-3.15 3.5-4.75 6.94-4.32 4.38.6 8.32 3 8.7 7.1.63 6.9 2.5 11.9 10 13.2 1.05.2 1.72 1.5 1.7 2.8a2.8 2.8 0 0 1-3.5 1.3c-6.04-2.2-13.04-1.9-18.27-6-3.55-2.8-6.06-1.2-9 .5a3.3 3.3 0 0 1-2.8-1 3.47 3.47 0 0 1-.6-2.2c.14-2.8 2.5-4.1 3.83-6.2z" class="cls-73"/>
    <path d="M56.3 158.2c-1.93-3-5.2-3.75-8.22-3.84-3.8-.1-4.4-1.6-3.86-4.9a16.44 16.44 0 0 0-.23-6.42c-1.8-6.88-9.2-8.76-14.8-3.87.1-1.1 0-2.24 1-3 1.5-5.4 5.6-6.9 10.4-3.68 2.7 1.8 4.7 4.6 7.3 6.6 3.1 4.2 6.3 8.4 9.2 12.8 1.2 1.8 3 3.7 1.1 6.2v1h-1a1.14 1.14 0 0 1-1-1z" class="cls-74"/>
    <path d="M47.3 140.2c-1.92-1.77-3.84-3.54-5.78-5.3-4.45-4-7.92-3.6-11.2 1.28.44-4-2.7-6.66-4-10l-.8-4c3.8-4 8-4 12.46-1.28a7.18 7.18 0 0 1 3.37 3.46c1.7 4.73 3 9.63 6.37 13.6a1.72 1.72 0 0 1-.4 2.23z" class="cls-75"/>
    <path d="M26.2 144.13c-.32 2.33-1.8 4.1-2.88 6.07a34.26 34.26 0 0 1-14 13c-.32-2.3 1.13-4.06 1.93-6l4.67-7.4c2.4-3.8 6.1-5.17 10.28-5.67z" class="cls-76"/>
    <path d="M26.3 28.2h-4c6.78-4.35 14.63-6 21.96-9l.9 1a1.45 1.45 0 0 1 .47 1.87.94.94 0 0 1-1.24.2c-6.2 1.6-11.6 5.52-18.1 5.92z" class="cls-77"/>
    <path d="M44.3 26.2c1.8 2.9-.88 5.27-1 8-.9 1.92.4 4.56-2 6-.88 4-2.92 7.68-2.9 11.88a3.68 3.68 0 0 0 1.18 2.43c-1.56 2.7-4.55 4.5-4.53 8a3 3 0 0 1-.88 1.2c-3.32 1.5-6.73 2.6-9.93 4.4-6.82 3.7-10.56 2.7-15-3.7l-.94-1.1c-2.34-5.6-1.14-10.7 2.77-15 2.18-2.4 3.6-4.1-.15-6.2-.4-.2-.42-1.1-.6-1.8 8.92-5.3 17.83-10.5 28.34-12.2a35.37 35.37 0 0 0 5.65-1.8z" class="cls-78"/>
    <path d="M80.3 52.2l2.66 1c1.1-1.4-.8-2.85.3-4.62 1.4 1.86 4.55.83 5.2 3.78l-.3.56a7.88 7.88 0 0 0-2.56 4.18c-.8 2.57-1 5 1 7.22a5.13 5.13 0 0 1 .83 4.6c-1.42 4.1-5.13 5.18-8.6 6.57a7.68 7.68 0 0 0-6.73 3.4c-1.58.9-3.33.7-5 .7-2.56.3-3.9-3-6.6-2.2-2.9 2.5-6.93.2-9.92 2.3-1.37 4.5.27 8.8.73 13.2.4 3.2 1.8 6.4.7 9.7-1.7 1.9-3.2.3-4.7-.4s-3.2-1.6-4.8-2.3a5.67 5.67 0 0 1-1.7-1.6c-.8-1.4-1.5-2.8-.3-4.3-.1-7.5-.4-15.1 1.4-22.5.4-1.6 1.2-3.2-.3-4.6a1.18 1.18 0 0 1-.1-1.4c2.2-2.6 4.3-5.2 7.8-6 6.8-.8 13.5-2 20.3-2.7 4.3-.5 8.2-1.6 11.1-5z" class="cls-79"/>
    <path d="M41.3 66.2v1c-3.8.2-4.77 4-7.16 6-4.37 3.58-8.72 4.8-14.06 3.13-6-1.9-9.85-5.68-10.82-12.06 7 7.93 13.84 2.82 20.6-.48 1.53-.8 2.8-1.7 4.46-.6 1.5-.8 2.53.4 3.73.9 1.06.7 2.56.8 3.26 2z" class="cls-80"/>
    <path d="M40.3 94.2l1.08 4c-1.68 3.5-3.36 2.16-5 0-5.06-4.07-5.88-6.63-3.22-10.13.94-1.24 2.12-2.13 3.78-1.7 1.8.47.56 1.88.8 2.84.4 1.9.45 4 2.57 5z" class="cls-81"/>
    <path d="M19.3 99.2v-1c4.4-1.42 5.68-4.1 3.44-8.28-.84-1.57-1.6-3.17-2.42-4.76a1.24 1.24 0 0 1 0-1.88c3.83 1.45 6.26 4.35 8.1 7.86a5.73 5.73 0 0 1 .77 3.25c-2.6 5.5-4.7 6.5-9.9 4.8z" class="cls-82"/>
    <path d="M36.3 98.2c1.7.72 3.38 1.76 5 0l1 1a4.7 4.7 0 0 1 2.1 4c-.7 3.3-2.86 4.3-5.8 3.22-2.16-.78-4.57-.6-6.53-2a3.43 3.43 0 0 1-.82-2.22 2.74 2.74 0 0 1 1.06-2z" class="cls-83"/>
    <path d="M32.3 100.2v2c-3.62 2.4-4.1 2.2-5.33-2.23-.3-2.12 1.57-3.72 1.4-5.82q0-1.5.08-3c2.65 2.42 2.35 6.12 3.86 9.04z" class="cls-84"/>
    <path d="M20.3 83.3v1.88l-1 .1c-1.63 1.16-2.73.2-3.78-1-1.7-.4-3.68.45-5.5-1.33 1.53-1.52 4 0 5.26-1.72a5.64 5.64 0 0 1 5.03 2.07z" class="cls-59"/>
    <path d="M45.26 22.1l-.1-1.93c4.57-3.1 10-2.9 15.12-4 2.56-.38 5.08-1.28 7.7-.48 2 2.9-.13 4.2-2.2 5.2-1.44.6-3.18.8-4.7 1.4-1.48.4-3 .8-4.46 1.1-3.9.5-7.4-2.3-11.36-1.4z" class="cls-85"/>
    <path d="M68.3 16.27l-8.07-.15c4.43-2.4 9.47-1.9 14.2-2.87 1.57-.32 3.25-.2 4.73-1l1.3 1.8c.94.94 1.64 1.88.14 2.94-4.14 1.3-8.3 1.9-12.3-.8z" class="cls-86"/>
    <path d="M164.3 144.2c-1.56 3-4.53 4.07-7.2 5.66-3 1.8-6.53 3.6-4.76 8.3-1.83 0-3.88-.46-5.45.2-10 4.28-21.2 3.44-31.4 6.76-4.8 1.54-5.8 3.6-3.3 7.06-3.2 1.94-4.5-.3-5.6-2.57-1.7-3.5-4.3-4.3-7.7-2.6-1.2.6-2.5 1.3-2.4 2.9s1.5 1.9 2.7 2.5c2 1 5.1-.5 5.8 3-3 .3-5.9 1.5-9 1-6-4.1-12-4.8-18.3-.5-.9.6-2 1.5-3.1.3a2.58 2.58 0 0 1-.3-3.2c2.4-3.5 4-7.1 3.7-11.5-.1-2.2 2-2.7 3.9-3 1.3-.8 2.6-.3 3.8 0 11.4 3.3 22.2 1.5 32.7-3.5a4.62 4.62 0 0 1 3.3-.7c3.22 2.2 6.5 3.9 10.6.7-2.25-1.4-4.1-.7-6-.3s-3.57 1.35-4.87-.83c1.8-4.3 3.55-5 10.5-4.67 4.95 1 8.6-.56 10.7-5.3a7.5 7.5 0 0 1 7.16-1.94c2.7 3.24 5.6 2 8.4.36 1.6-.9 3-2.2 5-1.7 2.64.7 3.45 2.07.86 4z" class="cls-28"/>
    <path d="M105.3 175.2c-2.43-2.07-5.8-.28-8.4-2.18-2.8-2-3.93-3.67-.64-6.34 5-4 9.14-3.14 11.78 2.92a3.84 3.84 0 0 0 4.27 2.6c6.8.52 13.4-.66 20-2 1.6 1.93 4.9 1.36 6 4-1 1.32-2.6.88-4 1a90.33 90.33 0 0 1-29 0z" class="cls-87"/>
    <path d="M138.3 174.2c-2.3-.9-5.5-.4-6-4 6.7-.6 12.6-4 19.1-5.3a27.63 27.63 0 0 1 5.9-.7c1.4-.9 2.23-.18 2.88 1a21.17 21.17 0 0 1-.87 7c-6.8 1.72-13.9 2.04-21 2z" class="cls-88"/>
    <path d="M159.3 165.25l-2-1.06c5.2-1.9 9.9-5.8 16-4-2.7 1.9-5.16 3.9-5.15 7.7 0 1.5-1.38 2.5-2.76 3.2-.8-3.3-3.5-4.6-6.1-5.9z" class="cls-89"/>
    <path d="M81.3 16.12l-.8-2c7.28 0 14.6.38 21.84-.08 4.3-.27 8.44-2.5 13-1.84l5-.07v.16c.8 2-1 2.7-2.07 3.8l-1 .1h-6a1.47 1.47 0 0 1-.33.3c-4.37 2.3-18 3.2-22.64 1.6-2-.6-3.52-2.7-6-2a.73.73 0 0 1-1-.2z" class="cls-90"/>
    <path d="M56.3 158.2l1 1c-.14 6.88-1.5 8.6-8.26 10.2-4.5 1.08-9 2-13.72 1.78-4.63 1.66-8.13-.5-11.48-7-2.82-5.52-2.44-8.38 1.46-11 4.47-5.33 5.33-5.4 10.73-.8.63.54 1.3 1.4 2 1.43 6.35.4 11.94 4 18.28 4.4z" class="cls-91"/>
    <path d="M25.3 153.2c-4.26 7 1.45 17.26 10 18 .93 1.56 2.38 2.93 2 5h-9a19.53 19.53 0 0 1-7.4-20.3 5.86 5.86 0 0 1 2.4-3.7z" class="cls-92"/>
    <path d="M122.3 154.2c-12.68 7.76-25.93 9.93-40 4-2-1-4.1-2-6.12-3.1-1-.55-2.34-1.23-2.13-2.47.3-1.7 2-1.36 3.26-1.46 5.8-3.1 11.7-4.68 18.2-2.94a2.62 2.62 0 0 1 1.1 1 1.63 1.63 0 0 1-.4 1.35 4 4 0 0 1-3.3.6c1.1 0 2.4 1.4 4 1.4 1-.1 2 .16 3 .15 1.6 0 3.6 2 4.5.38a4.64 4.64 0 0 0-1-6.2 43.28 43.28 0 0 0-5.3-3.2c-1.4-.8-2.8-1.7-1.8-3.7a3.6 3.6 0 0 1 2.1-.9c5 .4 9.3 3.3 14.3 3.7 4.3.2 8.4-.8 12.5-1.8a9.9 9.9 0 0 1 4.8.3 3.84 3.84 0 0 1 1.8 1.4c.4 2.6 2.2 4.9 1.8 7.7-4 .4-8.7-1.3-11 4z" class="cls-93"/>
    <path d="M96.26 149.2c-4.95.2-10.08-1-14.67 2-1.4.87-2.9.16-4.3 0-.9-3.7-2.4-6.86-6.3-8.14-3.2-1-3.2-6-7.3-5.86-1.6 5.75 0 11 2.5 16-4.7-.4-4.8-4.18-5.7-7.47-.1-3.9-.6-7.83.6-11.66 1.6-2.65 3.6-1.28 5.5-.45 3.6 1.54 6.2 4.93 10.4 5.6-2.3-2.2-5.4-3.2-7.7-5.26-2.1-1.9-3-3.77.8-4.86 3.5.26 6.7 1.7 10 2.95 1.8.83 3 2.38 4.7 3.4 3.5 2 6.4 4.9 10.1 6.64 1.9 2.1 3.5 4.2 1 7.1z" class="cls-94"/>
    <path d="M62.3 146.2c0 3.07 1.77 5.2 4 7a13.17 13.17 0 0 1 1.96 9c-1.32-.67-2.24-2.08-3.9-2.08-2.58-2.64-4.75-5.5-4.56-9.43.08-1.9-.27-4.1 2.5-4.5z" class="cls-95"/>
    <path d="M167.3 16.2l.95 3.88-2.94.1c-2.5 1.17-5.2 1.56-7.8 2.62-3.6 1.5-6.5-.7-9.6-2-1.6-1.4-3-2.88-1.3-5.14a4.37 4.37 0 0 1 1.7-.72 42.7 42.7 0 0 0 10.8-.33c2.9-.5 6-.8 8.4 1.6z" class="cls-96"/>
    <path d="M147.3 16.2l-1 .07c-4.65 3-9.3 2.38-13.93 0l-1.1-.06c-1.42-1.5-5.36 0-4.94-3.8l.16-1c6.8 2.1 13.8.5 20.8 1a2.85 2.85 0 0 1 0 3.9z" class="cls-97"/>
    <path d="M132.3 16.2h14c0 1.67 1.4 2.6 2 4 .58.54 1.66.84 1 2-6.38.07-12.8.2-17-6z" class="cls-98"/>
    <path d="M149.3 22.2l-1-2c4 2.25 8 2.67 11.87-.27 1.82-1.38 3.44.2 5.17.28-4.54 6.6-8.03 7-16.03 2z" class="cls-99"/>
    <path d="M126.3 12.2c.8 2.36 4.14 1.52 4.95 3.88l-2.94.1-10-.08c0-1.64 1.5-2.54 2.1-3.86z" class="cls-100"/>
    <path d="M164.3 144.2c.25-.9 1.23-1.93 0-2.63s-3-.78-3.55.5c-1.14 2.53-3.6 2-5.4 2.94-2.94 1.5-4.72.6-5-2.7a3 3 0 0 1 1-1c10.1-3.3 16.08-10.7 20-20.2.9-1.9 1.58-3.7 1.08-6-.6-2.8.6-5.4 2.42-7.7 2.06-1 2.5 1 3.47 2l1 1c3.8 14.4-4.46 24-13.14 33.4a4.43 4.43 0 0 1-1.87.6z" class="cls-101"/>
    <path d="M147.3 16.2v-3.94h1c6.7 4.86 11.62-.38 17-3l2 3a5.74 5.74 0 0 1 2 4l-2 .1z" class="cls-102"/>
    <path d="M178.3 109.2l-3-2c-3.1.76-4.73-1.77-6.82-3.2-4.33-3-6.65-1.88-7.5 3.33-.6 3.64-2.57 6.82-4.57 9.8-.8 1.25-2.5 3.46-4.8 1.52-1-1.9-.5-4-.7-6 .3-2.7-1.1-5.37-.1-8.08.6-2.93-1.6-4.34-3.2-6.1-1-1.3-2.2-2.56-2.2-4.44a3.74 3.74 0 0 1 1.9-2.94c2.5-1.4 1.9-3 .4-4.6-1-1.4-2.1-2.6-1.6-4.5 1.5-2.5 3.4-3.9 6.4-2.9l.2 1c.7 1.6 1.4 3.2 2.2 4.8s1.8 1.1 2.8.1a23.47 23.47 0 0 0 3.3 1c5.5.7 5.9 1.3 4 6.4-.6 1.5-1.3 3.1 1 3.4 7.5 1.2 9.4 7.7 12.7 13.1z" class="cls-103"/>
    <path d="M159.3 165.25c1 .3 2.2 1.3 2.93-.4s1.88-2.08 3.74-.82c-4.2 2.12.52 4.74-.63 7.1l-1.03 1.06c-.2-1.9-1.8-2.8-2.6-4.3-2 .9-.7 3.3-2.3 4.2v-6.9z" class="cls-104"/>
    <path d="M15.5 84.3l3.78 1c0 1.47.18 3.33-1.73 3.44-2.3.14-2.1-1.94-2.2-3.52q.05-.48.14-.9z" class="cls-105"/>
    <path d="M32.3 104.2c2.44.16 4.86-.92 7.26 1.27 1.45 1.32 3.26-.2 3.75-2.3 3.4-.05 6.7.18 9.7 2.1a26 26 0 0 1 5.8 9.36 3.76 3.76 0 0 1-1.3 2.23 12.2 12.2 0 0 0-1.6 2c-.5.9-.3 1.93-.5 2.87-.7 2.86-2.3 3.35-4.6 1.7a35.63 35.63 0 0 1-5.9-5.14c-2.5-2.9-4.2-2.7-5.3 1.1a5.2 5.2 0 0 1-1.9 2.8c-3.9-3.6-7.82-.7-11.8 0 .3-4.4-1-7-6-6a6.3 6.3 0 0 1-4.2-1c.7-1.8 1.4-3.6 2-5.4 1-3.2 2.5-2.2 4-.6 4.7 4.2 4.7 4.2 8-1.2.9-1.5 1.4-3.2 3.1-3.9z" class="cls-106"/>
    <path d="M32.3 104.2a13.4 13.4 0 0 1-2.85 6.2c-1.22 1.53-1.52 4.53-4.33 4-2.6-.5-3.4-2.85-3.8-5.22-.2-3 .62-6.14-1-9a20.32 20.32 0 0 1 8-1.05c-.4 3.3 1 4.23 4 3v2.06z" class="cls-107"/>
    <path d="M28.3 99.2c-2.48 1.57-5.27.9-8 1.04l-1-1c4.06.17 7.23-1.25 9.06-5.06 1.5 1.67-.5 3.3-.05 5z" class="cls-44"/>
    <path d="M23.3 152.2c-2 8-1.92 15.67 4.38 22.1a4.86 4.86 0 0 1 .63 1.9 22.32 22.32 0 0 1-12.1-4.63 5.83 5.83 0 0 0-5.9-1.38l-1-1q0-3 .1-6c4.1-5 9.2-8.9 14-13v2z" class="cls-108"/>
    <path d="M45.26 22.1c2.1-1.73 4.22-3.2 6.73-.58 1.2 1.26 2.8.45 4.2.72.6 1.9-.5 2.62-2 3-3.3-.56-6.8 2.27-9.8-.94v-2z" class="cls-109"/>
    <path d="M157.52 76.08l-.37 1-4.78 1.1c-1.9 1.12-4.07 1.13-6.15 1.52-6.58-.46-13.18 1.1-19.75-.2-5.08-1.8-3.85-3.93 1.3-8 5.63-.77 11.14.34 16.67 1.2 3.66-.53 7.32.94 11 0 1.8.44 2.65 1.5 2.08 3.38z" class="cls-110"/>
    <path d="M146.8 78.13l5.57.08-.2 1-6.13 3.2c-1.33.6-2 0-2.4-1.2-.27-2.4 1.87-2.2 3.17-2.9z" class="cls-111"/>
    <path d="M37.3 122.2a11.6 11.6 0 0 1 .2-2c2-7.62 2.8-7.83 8.52-2.36.95.9 2 1.72 3 2.53 1.37 1.07 2.65 3.32 4.27 2.7 2-.8 0-2.86.1-4.35.1-1.33 1.1-.74 1.8-.55a2.2 2.2 0 0 1 1.8 1.54 24.8 24.8 0 0 0 5 10.2 2.9 2.9 0 0 1 .3 3.3v13a9.33 9.33 0 0 0 .3 9.5c.8 1.5 1.9 2.8 1.7 4.6l-6-2c-.6-5.3-4.8-8.5-7.4-12.5-1.2-1.8-2.5-3.7-3.7-5.6 0-1.9-1.4-2.9-2.6-4a9.86 9.86 0 0 1-3.5-7.4 7.23 7.23 0 0 0-4-6.4z" class="cls-112"/>
    <path d="M80.3 52.2c.63 3.74-2 5.26-4.78 5.63-9.07 1.23-18.06 3.1-27.25 3.35-1.27-1-1.34-2.5-1.44-3.94 0-2.52-3.44-2.78-3.52-5.26-1.1-1.83-.7-3.83-.4-5.75.2-1.57.9-2.53 3-2.18 5.6.93 11.2.3 16.7-.7 7.3-1.28 13.7 1.92 17.8 8.84z" class="cls-113"/>
    <path d="M102.17 42.08c.3-1.65-.8-3.6 1.1-4.9a3 3 0 0 1 1.75.55c.87.6 1.6.8 1.8-.6a1.14 1.14 0 0 1 .72-.84c3.33-.2 5.35 3.5 8.8 3a2.43 2.43 0 0 1 0 3.5 6.55 6.55 0 0 0-1.7 5.7c.42 3-2.38 2.8-4.45 3-2.5-.2-4.8 1.1-7.2 1a33.6 33.6 0 0 0-3.5.6c-2.3 0-3.6 2.3-5.9 2.1-2.1-2-.2-3.6.5-5.4a4.17 4.17 0 0 1 0-.9c1-1.2-.1-3.4 2-3.9 2.7.3 3.8-2.4 5.8-3.3z" class="cls-114"/>
    <path d="M41.3 40.2a9.78 9.78 0 0 1 2-6c.2 2.84 2 2.6 3.88 1.9 5.66-2.1 11.75-1.54 17.55-2.8 1.27-.28 3.37-.87 4 .9s-.86 3-2.3 4c-6.45 4.27-13.53 4.45-20.77 3.08-1.48-.3-2.8-1.2-4.35-1.1z" class="cls-115"/>
    <path d="M110.24 50.2c1.88-.25 5.3.64 2.16-3.14-1-1.2-1-2.22.75-3.13s3.35-2.24 3.18-4.6c1.26-.48 2 .5 2.94 1a13.34 13.34 0 0 0 3 3.73l.04.13a3.8 3.8 0 0 1-.3.9c-1.3 1.9-6.1 1-4.4 5s6.4 5.6 10.9 5.1c2.7-.3 5.5.7 8-1.2l1.1.1a6.48 6.48 0 0 1 .2 3.8c-2.8 2.6-6.3 1.1-9.5 1.3-2.5.2-4.9.7-7.4.5-4.1-2.5-7.3-6-10.4-9.7z" class="cls-72"/>
    <path d="M81.3 16.12l1.08.15 1 1.94c-6.12 2.5-12.74 2.6-19.08 4.1a2.9 2.9 0 0 1-4-1.2c2.74-1.5 7-.4 8-4.8z" class="cls-116"/>
    <path d="M60.37 21.06l4 1.2c.13 3.78-1.45 6.35-5.34 6.9-2.87.43-4.8-.7-4.8-4l2-3z" class="cls-117"/>
    <path d="M94.24 50.1c.73 1.7-1.47 3.35-.1 5.06.82.9.53 1.9.25 2.9-2.2 2.4-.4 6.68-4 8.34a3 3 0 0 1-1.3-1.75c0-2.22-1.5-4-1.8-6.1a4.94 4.94 0 0 1 .2-1.4c.8-2.37 3-3.52 4.6-5.14a2.35 2.35 0 0 1 2.1-1.9z" class="cls-118"/>
    <path d="M43.3 52c1.64 1.47 4.66 1.35 5 4.33a3.3 3.3 0 0 1-1.36.6c-2.76-.26-5.48-.63-7.7-2.53-1.63-.3-1.48-1.2-.8-2.3z" class="cls-119"/>
    <path d="M102.17 42.08c.77.14 1.66.1 1.74 1.22-2.8-.38-3.8 4.43-7.2 2.53-.9-1.6 1.5-.75 1.3-1.75.5-2.53 2.6-1.77 4.2-2z" class="cls-120"/>
    <path d="M104.3 38.3l-1-1.1c.17-1.4-.1-3.2 1.8-3.45 1.56-.2 1.63 1.7 2.48 2.56a1.43 1.43 0 0 0 .16.9c-.56 2.2-1.9 1.9-3.43 1.2z" class="cls-1"/>
    <path d="M98 44.08l-1.3 1.75c-1.35.75.24 3.56-2.4 3.4-3.42-5.04 1-4.45 3.7-5.15z" class="cls-121"/>
    <path d="M122.22 44.1c-2.83.2-5-.1-3-3.74a2.77 2.77 0 0 1 .94-.25c2.6.4 2.05 2.4 2.06 4z" class="cls-122"/>
    <path d="M92.14 52.02c-.35 2.4-1.93 3.88-3.85 5.1a3 3 0 0 1-1.1-2.85 3.4 3.4 0 0 1 1.2-2z" class="cls-123"/>
    <path d="M88.3 18.2c7.7-.48 15.25-2.26 23-2 .83 1.44 1.1 2.85-.7 3.75-5.24 2.62-10.5 5.9-16.43 2.08-1.93-1.22-4.97-.92-5.86-3.84z" class="cls-124"/>
    <path d="M140.47 57.77c1.86 0 3 3.26 5.34 1.17l.7 2.27a1.5 1.5 0 0 1 0 1.5c-2.5 4.4-3.6 4.5-6.9.9a2.5 2.5 0 0 1 .6-2.2z" class="cls-125"/>
    <path d="M157.52 76.08a3.38 3.38 0 0 0-2.47-2.77c-2.38.5-4.4-.7-6.5-1.4a2 2 0 0 1-.67-1.2 2.2 2.2 0 0 1 1.07-1.7 1.5 1.5 0 0 1 1.33.1c1.9 1.6 4.8.7 6.5 3 1 1.5 2.25 2.4.74 4.1z" class="cls-126"/>
    <path d="M150.3 69l-1 .32c-5.63-.22-3.88-3.8-3.15-6.94l.34-1.17c.2 3.1 3 5 3.8 7.8z" class="cls-1"/>
    <path d="M140.17 61.32l.07 2a6.1 6.1 0 0 1-1.74 4.1c-4.05 3.82-8.43 3.92-13.06 1.15-1-2.22 1.12-2.4 2.17-3.3 3.7-1.82 8.4-2.12 9.8-7.1l.1-3.94c1.4 2.22.6 5.22 2.7 7.1z" class="cls-127"/>
    <path d="M39.2 54.4c2.9-.4 5.5.58 8 1.9 1.74 3.95-.43 5-3.8 5.2-1.6-.18-3.12-.57-4.63.57a3.36 3.36 0 0 1-4.46.12c-1.4-4.5 1.6-6.3 4.9-7.8z" class="cls-128"/>
    <path d="M34.3 62.2a5.13 5.13 0 0 0 4.3-1.77c1.1-1.12 2.37-1.73 3.73-.28-.44 2.92-.13 6.6-5 5.06l-3-2v-1z" class="cls-129"/>
    <path d="M58.2 115.2l-5.84-9c-.77-.85-1.7-1.64-1-3-.84-6.9-2.9-13.62-3-20.62 0-1.67-.75-3.87 2-4.4 3.93 1.06 2.74 5.26 4.66 7.55.7 1.45 1.05 3.06 2.12 4.33.5 2 2.08 3.67 1.93 5.9-.77 6.78 4.4 11 7.06 16.28a12.37 12.37 0 0 0 1.9 2.25c4.2 4.8 4.16 5.7-.65 10.4-5.12-1.4-7.74-5-9.18-9.8z" class="cls-130"/>
    <path d="M78.3 74.2c2.88-1.86 6.95-2.14 8.16-6.2a1.9 1.9 0 0 1 2.14 0 3.6 3.6 0 0 1 .85 1.3c1 8 .3 9.1-6.46 10.18a5.4 5.4 0 0 1-1.6-.34 8.62 8.62 0 0 1-3.6-2.82 2 2 0 0 1 .3-2.13z" class="cls-131"/>
    <path d="M88.42 68.13l-2-.1c-.08-.8.12-2.14-.3-2.36-4.54-2.45-2.33-6.07-1.78-9.4 1.3-.6 2-2.3 3.75-2l.2 2.82a5.57 5.57 0 0 0-.1.9c-1.2 2.6 1.5 4 1.9 6.1l.1 1.7a2.3 2.3 0 0 1-1.8 2.2z" class="cls-132"/>
    <path d="M54.23 86.34c-3.27-1.77-1.24-6.1-3.93-8.15.88-3.4 3.8.9 5-1.4 1.94 1.8 3.4-.4 5.1-.6a2.77 2.77 0 0 1 .93 2.1 3.2 3.2 0 0 1-2.17 2.9c-1.94.4-3.32 1.3-3.62 3.5a2.67 2.67 0 0 1-1.3 1.6z" class="cls-133"/>
    <path d="M37.3 65.2c2.17.05 3.63-.72 3.4-3.15-.15-1.37.58-1.73 1.66-1.92 2.76.16 5.57.38 4.87-3.84h1v4.8c-3 .6-3.56 4.8-6.94 5-1.4-.1-2.9.4-4-1z" class="cls-134"/>
    <path d="M51.3 103.2l1 3c-2.75-1.77-6.8.37-9-3l-1-4c3.75-.3 6.1 2.5 9 4z" class="cls-135"/>
    <path d="M60.37 78.26v-2c.44-.62.43-2.08 1.8-.67 1.16 1.1 2.22 2.7 4.2 2.7 1 1.4 3.8 0 4.13 2.5-4.43 2.7-6.73 2.1-10.13-2.7z" class="cls-136"/>
    <path d="M78.3 74.2v1.9c-.5 1.28-1.74 1.78-2.72 2.56a3.24 3.24 0 0 1-2.55.23 1.63 1.63 0 0 1-.86-1c.4-4 3.35-3.7 6.14-3.8z" class="cls-137"/>
    <path d="M70.03 80.26c-1.43-.27-3.3.3-3.68-2l5.87-.35a1.63 1.63 0 0 1 .1.6c.55 2.4-.57 2.5-2.3 1.8z" class="cls-138"/>
    <path d="M88.1 54.28c-1 1.2-2 2.23-3.76 2 1-1.75.84-4.6 4.1-4z" class="cls-62"/>
    <path d="M151.3 142.2h-1l-7 2a3.14 3.14 0 0 1-3.62.6c-2.1-2.62-.3-5.2.08-7.8a3.9 3.9 0 0 1 3.95-1.73 6.9 6.9 0 0 1 2 .7c2 1 3.7 1.12 3.9-1.8a22.28 22.28 0 0 1-.5-2.72 52.07 52.07 0 0 1 2.4-10.12c1.8-1 2.3-4.72 5.4-2.66 2.7 1.73 2.9 4.26 1.9 7.08a37.1 37.1 0 0 0-1.6 5.23c3-2 3.8-4.8 3.8-8.17 0-2.4-.6-5 1.6-7 3.1-.3 3.1 2 3.1 3.9.2 11.9-.5 15.9-14.2 22.5z" class="cls-139"/>
    <path d="M139.3 144.2h4c-.55 5-4.32 7.3-10 6-1.15-2.18-4.37-3.76-2-6.96 2.9-1.8 5.5-.92 8 .95z" class="cls-140"/>
    <path d="M122.3 154.2c3.44-1.16 6.8-2.6 10.6-2 2.44.37 2.7 1.47 1.45 3.36-2.76 4.2-9.45 3.44-12-1.37z" class="cls-141"/>
    <path d="M144.24 136.3a6.36 6.36 0 0 0-4 1c-2.87 4.28-7.2 2-10.94 2.45-1.26.27-2.54.37-3.8.7-4.34 1.43-9.14 1.25-13.2 3.73-5-.08-9.27-2.78-14-4-2.56-1.32-2.46-3.73-2.52-6.1a2.72 2.72 0 0 1 .8-1.38c4.63-2.53 9.24.68 13.86 0 5.64.47 11.1-.6 16.5-2h6.42c2.18.46 3.7-.7 5.32-1.94s2.9-2.7 4.67-3.6a4.1 4.1 0 0 1 5 .77c1 1 1.44 2.7.5 3.6-2.07 1.97-2.22 5.13-4.6 6.76z" class="cls-142"/>
    <path d="M96.26 149.2c.6-2.67-.77-4.77-2-6.9a1.9 1.9 0 0 1-.14-2.2 1.73 1.73 0 0 1 2.2.1c.73 3 4 2.28 5.78 3.8.82.68 2.12.76 2.26 2.17 1.15 2.17 2 4.88-.43 6.16-2.63 1.4-5.45.17-7.47-2.2l-.2-.94z" class="cls-143"/>
    <path d="M128.3 138.37c4-.64 8.1.7 11.94-1.12.76 2.45 0 4.7-.94 6.9-2.73.3-5.34-.38-8-.9l-1-1c-.64-1.34-2.25-2.14-2-3.88z" class="cls-144"/>
    <path d="M96.45 150.2a6.32 6.32 0 0 1 2.4.2c5 2.7 6.13.45 5.5-4.17 3.82 2.36 1.72 5.88 1.52 8.9-.08 1.22-2 1.36-2.9.52-2-1.8-4.32-1.32-6.6-1.42a2.85 2.85 0 0 1-.17-4z" class="cls-145"/>
    <path d="M112.3 144.2c2.92-5.38 8.64-3.4 13-5a2 2 0 0 1 0 2.92 25.2 25.2 0 0 1-13 2.07z" class="cls-146"/>
    <path d="M96.3 140.2h-2c-2.55 1.18-3.86-.63-4.28-2.44-.56-2.38 1.6-2.8 3.42-3.07 1-.2 1.9-.5 2.87-.6 1.9 1.6.4 4.3 2 6h-2z" class="cls-147"/>
    <path d="M125.25 142.12v-2.93a2.94 2.94 0 0 1 3-.9c.95 1.1 3.5 1.4 2 3.8z" class="cls-148"/>
    <path d="M96.2 150.2l.18 4-7-3v-1h6.78z" class="cls-149"/>
    <path d="M62.3 133.2c-3.04-4.67-6.77-9-7-15l1-2c1.65.16 2.53 1.44 3.52 2.5 2.8 3 5.26 6.22 9 8.2 1.1.6 2.13 1.64 1.54 3.23-1.52.35-2.32 1.06-.6 2.14 2.35 1.48 4.9 2.67 7.28 4.1 1.67 1 4 2.24 2.86 4.52-1.27 2.5-2.9.1-4.48-.4-4.97-1.5-7.93-6.4-13.1-7.4z" class="cls-150"/>
    <path d="M70.3 130.2c-5-4.38-10.1-8.54-14-13.96l1.9-1c3.1 3 4.94 7.15 9.1 9 5.12-2.72 8.57-1.16 13.8 6.26a2.52 2.52 0 0 1-.83 2.68z" class="cls-151"/>
    <path d="M96.3 134.2c-.52 3.24-3.62 1.2-5.36 2.72a4.48 4.48 0 0 0 3.37 3.27v2c-4.3-.3-6.9-3.7-10-6.1-1.1-3.7 2.5-3.3 4-4.7a8.53 8.53 0 0 1 8 2.7z" class="cls-152"/>
    <path d="M88.3 132.2c.1 2.8-4.16 1.26-4.06 4.07-1.85-.35-2.7-2-4-3.08q0-1.5.1-3a3.2 3.2 0 0 1 2-1.3c2.72-.2 4.97.4 5.97 3.2z" class="cls-153"/>
    <path d="M162.3 116.2c0 2.8-.36 5.67.1 8.4.78 4.85-3.5 6.3-5.65 9.12a1.84 1.84 0 0 1-2.7-.14c-.66-.77-.07-1.6.56-2.13 2.1-1.77 1.6-4.64 3-6.7s.3-3.76-1.3-5.15c-2.3-2-2.3 1.62-3.8 1.63a1.4 1.4 0 0 1 0-2c3.5-2.57 4.7-6.6 6.7-10.12a4.24 4.24 0 0 0 .9-2.2c-.2-1.6-3.1-3.3.3-4.6 3-1.1 5.9-3 8.9.2 1.8 1.9 4.2 3.2 6.3 4.8-2.6 4.3.5 9.9-3 14-3.7-3.8-5.2-9.1-8.4-13.2-.3-.6-.4 0-.4 0 2.5 3.2.9 5.8-1.2 8.3z" class="cls-154"/>
    <path d="M162.3 116.2l1.6-11.34c3.35 6 7.28 10.38 8.42 16.33.15 3-1.6 5-3.05 7.4-2.5 4.2-6.26 7-9.4 10.4-1.96 2.1-5.4 2.9-8.56 3.1 1.2-2 3.3-2.8 5-4 6-4.1 9.8-14.2 7.7-21.1-.1-.4-1-.6-1.6-.9z" class="cls-28"/>
    <path d="M152.3 119.2v2c.47 3.9-2 7.28-2.1 11.1-1.1 1.65-2.8 2.72-4 4.3a3.18 3.18 0 0 1-1.2.54l-.83-.88c1-2.34-.15-5.68 3.48-6.84.83-.27.83-1.93 0-2.6-1.32-1.05-2.8-1.64-4.4-.17-1.95 1.77-4.1 3.3-6 5.1a2.4 2.4 0 0 1-3.14.3c-1.1-1.94.6-3 1.4-4.42 2.9-3.42 7.5-5 9.8-9.07 2.2-2 3.6-4.65 5.7-6.62a1.1 1.1 0 0 1 1.3.25z" class="cls-155"/>
    <path d="M148.3 98.2c2.6 1.18 4.65 2.7 3.9 6-2.22 1.4-3.73-.07-5.3-1.3-1.6-2.67-5-3.72-6.2-6.72a2.2 2.2 0 0 1 3-2.8 2.85 2.85 0 0 1 1.16.8c.27 2.12 1.96 3 3.45 4z" class="cls-156"/>
    <path d="M144.2 81.2a1.6 1.6 0 0 0 1.84 1.1l2.27 3.9a2.24 2.24 0 0 1 .5 2.83c-2.8 1.1-4.8-.32-6.7-2.07 0-2.35-2.2-4.48-.7-7 1.5-.77 2.4-.1 3 1.23z" class="cls-157"/>
    <path d="M147.1 102.06l5.1 2.17c-1.32 2.66.24 5.3.1 7.94a2.16 2.16 0 0 1-.8-.16c-2.4-1.2-2.68-4-4.4-5.7-.84-1.1-1.76-2.2-1.18-3.8a1 1 0 0 1 1.18-.4z" class="cls-158"/>
    <path d="M148.3 92.12a2.16 2.16 0 0 0-2.13 2.22 1.3 1.3 0 0 1-1.86-.15 3.17 3.17 0 0 1-.4-4c1.2-1.3 2.5-1 3.9-.6 2.1.3 2.3 1.2.6 2.5z" class="cls-159"/>
    <path d="M144.3 94.2l1.86.16c-.18 1.77 2.55 1.94 2.1 3.85-2.8.2-4.14-1.1-3.95-4z" class="cls-160"/>
    <path d="M148.3 92.12c.17-.65.9-1.3 0-2-.4-.16-.53-.34-.4-.53a.5.5 0 0 1 .36-.3v-3.2c2.92 2 3.36 4 .05 6z" class="cls-161"/>
    <path d="M144.2 81.2a3.53 3.53 0 0 0-2.9-1c-1.88 3.87-5.46 3.37-8.83 3.43a25 25 0 0 1-4.16-.26 17.2 17.2 0 0 1-8-3.73c-1.7-1.55-2.6-3.25.7-4.18 1.9.2 2.5 2.65 4.6 2.62H147c-.75 1.1-2.56 1.38-2.6 3.1z" class="cls-162"/>
    <path d="M148.16 70.38a5 5 0 0 1 .34.73c-.64 2.1-3.07 1.7-4.2 3.1l-16.17-2c0-2.3 1.87-1.8 3.22-2.1 2.45-.4 4.92-.9 6.6-3 4.66-2.7 7.04 1.5 10.2 3.4z" class="cls-163"/>
    <path d="M138.47 67.27c-1.13 2.67-3.67 2.84-6 3.44-1.48.4-3.35-.3-4.33 1.6a28.9 28.9 0 0 1-3.3 3.6c-1.93 1.5.2 1.7.64 2.4-1.93.6-3-.7-4.2-1.9a1.15 1.15 0 0 1-.32-.8.57.57 0 0 1 .1-.4c2-1.8 2.45-4.7 4.3-6.6 4.52.4 9.24 2.1 13-2.1a.66.66 0 0 1 .35.7.43.43 0 0 1-.2.4z" class="cls-164"/>
    <path d="M144.3 74.2c.34-2.5 2.4-2.63 4.2-3.1a11.62 11.62 0 0 1 6.55 2.2c.06 1.76-1 1.7-2.32 1.57-2.8-.28-5.6-.45-8.42-.68z" class="cls-165"/>
    <path d="M99.4 51.9a3.74 3.74 0 0 1 3-.65c2.63 1.44 5.46-.92 8.16.52 1.58.84 3.35 1.34 4.44 2.9.7 2.24.42 4.6.46 6.87.1 5.62-3.7 9.32-9.58 10-2.12.25-4.9-.86-5.7 2.6-.14.57-1.45.65-2.3.6-5.7-3-7.2-8.5-4.33-16.1a13.48 13.48 0 0 1 5.86-6.73z" class="cls-166"/>
    <path d="M114.26 55.3c-3-4.1-8.07-2.25-11.88-4.05l7.86-1c4.48 1.7 7.36 5.22 10 8.94a5.32 5.32 0 0 1 2 4.9c-.4 1.5-.48 3.1-1.77 4.2-2.37.1-2.42-1.9-2.83-3.3a75.86 75.86 0 0 0-3.38-9.7z" class="cls-167"/>
    <path d="M99.4 51.9l-5 6.4a1.2 1.2 0 0 1-1-1l.7-2.12a6 6 0 0 1 5.3-3.27z" class="cls-168"/>
    <path d="M104.3 38.3c1.17-.3 2.63.25 3.4-1.17 1.1.66 1.87 1.87.73 2.6-1.55 1-3.4.9-4.12-1.42z" class="cls-169"/>
    <path d="M121.3 64.33l-1-5.14c5.6-1.9 11.35-1 17-1 1 3 .27 4.9-3.04 5.7a50.13 50.13 0 0 0-5.9 2.2c-1.1.8-2.47.4-3.7 1-3.86 1.8-3.9 1.7-3.35-2.9z" class="cls-170"/>
    <path d="M93.45 57.28l1 1c-1.62 6-2 11.73 3.88 15.94 1.95.16 3.23 1.43 4.52 2.7 1 2.87 4.9 1 6 3.66-.23 3.23-2.64 2.88-4.77 2.84-1.85 0-3.45-1.22-5.3-1.3s-3.5-2.32-5.72-1.08a5.57 5.57 0 0 1-2.84.07 3.3 3.3 0 0 1-2.15-1.8 11.78 11.78 0 0 0 .45-11.2 2.43 2.43 0 0 1 1.78-2.2c1.68-2.5.7-6.2 3.15-8.5z" class="cls-171"/>
    <path d="M90.12 64.2c-1.7-1.72-4.82-3-1.93-6.15.4 2.14 3.1 3.53 1.9 6.14z" class="cls-172"/>
    <path d="M138.47 67.27l-.16-1.08c.5-1.1.8-2.3 1.9-2.9 2.7 4.2 4.2 1.3 5.9-1 .3 2.7-1 6 3.2 6.9l-1 1c-3.6.4-5.8-4.1-9.6-3.1z" class="cls-173"/>
    <path d="M121.3 64.33c.16 1.63-.63 4.1 2.7 2.27 1.18-.64 2.9-.27 4.37-.36-.7 1.13-2.54.57-3 2 .2 3.2-.34 6-3.94 7.05-3.14.8-3.2-1.4-3.44-3.5 0-1.5.4-2.9 2-3.5.5-1.3-.2-3 1.3-4.1z" class="cls-174"/>
    <path d="M82.3 130.2h-2c-.53-.37-1.07-.72-1.6-1.1-3.47-2.45-6.15-6.73-11.46-4.87 1.57-.84-.9-4 2.58-4.15.9 0-.6-1.82-1.3-2.58a57 57 0 0 1-11.2-18.3c-.48-1.22-1.47-2.5.74-3a2.47 2.47 0 0 1 1.57 1.3c1.86 2.58 3 5.67 5.52 7.8 3.32 2.86 4 7.7 7.75 10.27 1.67 1.9 3.7 3.53 4.7 6 .96 3.2 6.05 4.16 4.7 8.62z" class="cls-175"/>
    <path d="M58.3 98.07l-.23-1.88c-.32-2.1-2.46-3.6-2-6a1.42 1.42 0 0 1 1.36-.4 7.25 7.25 0 0 1 3.14 3.2c.87 1.7 1.28 3.5-.1 5.2a1.63 1.63 0 0 1-2.17-.3z" class="cls-176"/>
    <path d="M57.2 90.2l-1.1.06c-2.06-.64-1.65-2.45-1.88-4l.25-2.34c1.47 0 2.08 1 2.7 2.1.47 1.45 1.14 2.82.03 4.17z" class="cls-177"/>
    <path d="M90.3 80.3l3-.17c4.57.66 6.72 4.54 9.7 7.3a5.92 5.92 0 0 1 1.12 1.9 4.1 4.1 0 0 1-.22 2.94 5.1 5.1 0 0 1-3.55 2.58 3.57 3.57 0 0 1-1.42-.3 3 3 0 0 1-1.14-.92c-5.8-9.87-14-8.73-22.8-5.26-2.1.82-4.5 1.94-6.3-.7-2.2-5.18-2-5.5 3.6-5.88 1.5-.1 2.9 0 4.4-.1 3.3.3 1.1-3 2.6-3.9a1.76 1.76 0 0 1 1.9.3 2.42 2.42 0 0 0 .7.1 9.64 9.64 0 0 0 2.8 1.3 5.54 5.54 0 0 0 5.4.7z" class="cls-178"/>
    <path d="M83.97 80.26a2.57 2.57 0 0 1-1.87-2c6-.84 6-.84 6.36-10.14 3 3.4 3 7.53 0 11.2-1 2.74-2.83 1.45-4.5.94z" class="cls-179"/>
    <path d="M81.3 78.2l-2 .18c-1.2.9-2.13 2.6-4 1.67-.7-.36-.63-1.34-.1-2.07.17-2.08 1.84-1.65 3.13-1.87a3.38 3.38 0 0 1 2.98 2.1z" class="cls-180"/>
    <path d="M77.3 83.2h-8.48c-1.78 1.86 5 1.74.5 4a2.27 2.27 0 0 1-1.88.74c-3.68-1-7.8.84-11.24-1.74L54.48 84c-.58-3.22.74-4.37 3.86-3.57 5.1.65 10.14 2.07 15.4.5 1.23-.36 3.4-.13 3.57 2.26z" class="cls-181"/>
    <path d="M77.3 83.2c-3-1.8-6.34-.7-9.52-.9s-6.47-.1-9.47-1.87a2.63 2.63 0 0 0 2-2.17c3.2 1.16 5.7 5 9.7 2 1.1-.14 2.3-.22 2.3-1.74l2.9-.56c1.1 3.07 2.9-1.05 4.1.4-.1 1.9 3.4 2.3 2.1 4.27-.4.75-2.6.4-4 .56z" class="cls-182"/>
    <path d="M145.26 136.4a5.27 5.27 0 0 1 5-4.08l.83 1.93c-1.3 2.58-3.1 3.73-5.9 2.14z" class="cls-183"/>
    <path d="M145.26 136.4a7.56 7.56 0 0 0 5.85-2.15c-.6 4.1-1.5 4.55-6 2.92a6.06 6.06 0 0 0 .2-.78z" class="cls-184"/>
    <path d="M127.08 132.14c-5.38 2.1-11 2.36-16.62 1.8a.8.8 0 0 1-.25-.8.5.5 0 0 1 .3-.4 44.85 44.85 0 0 1 6.8-3.33c2.9-.2 5.6-1.3 8.4-2 2.6-2.5 6-4.1 8.8-6.3 1.6-2.5 2.7-5.8 6.8-4.2 2 5.7-2.7 8.2-5.6 11.6-2.2 2.8-5.7 2.5-8.5 3.8z" class="cls-185"/>
    <path d="M110.76 133.1a2.1 2.1 0 0 0-.3.85c-3.12.88-6.06-.57-9.1-.7-1.72-.08-3.6-.57-5.06.9-2.88.2-5.26-1.65-8-2-2-.5-3.52-2.63-5.95-2-.8-3.62-5.4-4.57-6-8.37a3.4 3.4 0 0 1 3-.42c5.56 3.1 10.95 6.6 17.38 7.77 3.88 1.55 8.18 1.2 12.1 2.6a3.4 3.4 0 0 1 1.93 1.36z" class="cls-186"/>
    <path d="M127.08 132.14l8.14-4.18a1 1 0 0 1 1.25.2l-2.32 4z" class="cls-187"/>
    <path d="M136.47 128.2l-1.25-.2c3.43-2.85 4.83-6.8 6-10.9a.93.93 0 0 1 .28-1.14c1.72-.4 3 .47 4.18 1.5a3 3 0 0 1 .8 1.78c-1.9 4.6-6.55 6.08-10 8.95z" class="cls-188"/>
    <path d="M146.42 119.2l-1.1-.9c0-4.47-.48-9 2.77-12.8a11.12 11.12 0 0 1 3.3 6.53c-.7 3.07-2.7 5.25-5 7.16z" class="cls-189"/>
    <path d="M147.1 102.06a3.83 3.83 0 0 0-.86.1c-1.47 1.53 0 3.94-1.62 5.43-2.67 2-5.72 1.8-8.8 1.4a4.55 4.55 0 0 1-2.77-4.6c1.35-3.7 2.94-7.2 6.8-9a3 3 0 0 1 1.46.5c1.7 2.3 5.5 2.5 5.8 6z" class="cls-190"/>
    <path d="M141.3 95.98h-1c-2-.47-3.86-.54-5.42 1.12-2.37 2.5-4 1.17-5.38-1.1a5.84 5.84 0 0 1-.1-3.68 5.15 5.15 0 0 1 1.7-2.52 4.1 4.1 0 0 1 2.16-.6 9.84 9.84 0 0 1 4.17 1.27c1.4 1.13 3.34 1.72 3.94 3.72z" class="cls-191"/>
    <path d="M141.3 94.2c-1.4-.93-3.75-.44-4.17-2.82-.27-1.62-.32-3.2 1-4.42 2.8-.26 5.22.22 6.3 3.28l-.12 3.95h-3z" class="cls-160"/>
    <path d="M132.2 82.33c3.2-.08 6.33-.3 9.1-2.13-.36 2.13 3.58 3.53 1 6-1.7 1.5-3.34-.38-5-.06-2-.86-4.72-.8-5.1-3.8z" class="cls-192"/>
    <path d="M137.3 85.08l5 1.16c1.86 1.32 4.45 1.2 6 3.1a2.08 2.08 0 0 1 0 .84l-3.84.05c-1.66-1.9-4.15-2-6.26-2.9a1.18 1.18 0 0 1-1.4-1.05 1.7 1.7 0 0 1 .5-1.2z" class="cls-193"/>
    <path d="M144.36 107.3c.6-1.72-1.36-4.38 1.88-5.13a4.78 4.78 0 0 0 1.9 3.33c-1 4.26-.1 8.9-2.8 12.8l-4-2c-.6-3.55 2.1-6 3.02-9z" class="cls-194"/>
    <path d="M133.42 90.08l-2.1.1c-5.3 2.24-10.44-.42-15.27-1.4-4.42-.92-7.92-1.82-11.56 1.16a3.93 3.93 0 0 1-1.3-.57l-.9-1.18c0-3.2-4.2-3.9-4.1-7.1 1.7-1.7 2.9.3 4.3.5 2 .2 4.4 1.9 5.6-1.4.5-1.6 1.9-2.1 3.3-2.5a4.72 4.72 0 0 0 3.6-4.5c.8-1.7 1.8-3.4 4.2-2.2 0 1.7-.5 3.7 2.1 4.2a8.07 8.07 0 0 0-.2.8c-1.3.2-2.6.7-.8 2a26.52 26.52 0 0 0 7.8 3.9c.6 1 1.9 1.1 2.3 2.2-.6 2.6 2.8 3.4 2.7 5.8z" class="cls-195"/>
    <path d="M130.46 84.36a2.25 2.25 0 0 1-2.15-2.27l3.9.2 5.2 2.7v1.1c-3 2-5.2 1-6.8-1.9z" class="cls-196"/>
    <path d="M119.3 71.1c-2.2-.2-2.44 1.6-3.07 3-3.24 4.65-8.47 5.86-14 3.24-2.1 0-3-1.62-4-3.1 1.8-4 5.5-4.1 9.1-4.65a7.43 7.43 0 0 0 6.43-9c-.46-2 .28-3.6.44-5.3 5 3 3.93 8.7 5.77 13.1a3.08 3.08 0 0 0-.66 2.6z" class="cls-197"/>
    <path d="M106.1 64.85a5 5 0 0 1-4.77 4c-2.5.08-4.26-1.6-4.74-4.16-.5-2.4.7-4.2 2.7-5.3 1.2-.7 6.9 3.8 6.8 5.4z" class="cls-198"/>
    <path d="M102.24 77.36c4.86-.23 10 .68 14-3.24 0 5.6-5 4.7-8.07 6.2-2-.9-5.86 1.87-5.93-2.96z" class="cls-199"/>
    <path d="M98.2 81.2c1.1 2.5 6.33 2.6 4.1 7.05l-9-8.1c2.5-3.75 3.14 1.32 4.9 1.04z" class="cls-200"/>
    <path d="M83.97 80.26c1.42-.68 3.17.24 4.5-.92l1.87 1c-2.15 2.6-4.27 2.16-6.37-.08z" class="cls-201"/>
    <path d="M72.3 116.26c-4.54-1.9-4.93-6.92-7.64-10.2-1.1-.2-.92-.94-.75-1.7 1.8-1.64 3-.36 4.3.8s2.5 2.68 3.7 4.07a6.3 6.3 0 0 1 1.3 2.53c.2 1.55.5 3.15-.7 4.5z" class="cls-202"/>
    <path d="M72.3 116.26c-.05-1.37-1-2.73 0-4.1 4.68 1.13 6.38 3.63 6.9 10.16l-2.82-.52z" class="cls-203"/>
    <path d="M64.44 103.82l.27 2.23c-3.7-1.4-4-5.45-6.3-8l2.5.44c2.6.8 4 2.5 3.7 5.3z" class="cls-130"/>
    <path d="M56.2 86.2c3.7.4 7.58-1 11.17.9-.13.7 0 1.53.73 1.55 5.33.16 6.2 3.27 5.26 7.68a8.2 8.2 0 0 1 .06 2.16 5 5 0 0 1-.45 1.4c-3.8 2.8-6 2.5-9-1.3-1.5-1.9-2.2-4.5-4.8-5.4l-2-3z" class="cls-204"/>
    <path d="M59.18 93.26c2.8-.18 4.26 1 5.54 3.7 1.35 2.86 3.77 6 7.6 2.23 3.87 3.5 3.34 9.1-1 11-3.15-1.2-3.67-5.2-6.85-6.4l-3.68-5.3a11.75 11.75 0 0 0-1.7-5.3z" class="cls-205"/>
    <path d="M72.3 96.2c-.63-.13-1.72-.5-1.36-1 3.94-5.56-.35-4.88-3.68-5-1.1 0-2.62.13-2.57-1.56s1.6-1.26 2.6-1.5l2 .07c4.1 2.1 7.8-.5 10.9-2 5.5-2.5 10.2-1 14.2 1.6 2 1.3 3.6 4.6 4.9 7.4-4 3.7-9 3.8-14 3.4-2.5-.2-5-.4-7.4-.8-2-.1-3.9.2-5.7-.5z" class="cls-206"/>
    <path d="M100.23 94.2c1.05-.67 1.6-2.1 3.1-2.06a1.15 1.15 0 0 1 .84-.47c8.1 2.83 16.65 3.34 25 5 1.15 2.07-.57 3.1-1.7 4.1-3.52 3.06-10.78 3.78-14.9 1.66a11.4 11.4 0 0 0-2.28-1c-2.8-1.2-5-3.5-8.1-3.9-1.2-.78-2.4-1.56-2-3.34z" class="cls-207"/>
    <path d="M100.23 94.2c.73 1 2.2 1.37 2.1 2.94-1.5 1.9-4 1.27-5.8 2.27a23.68 23.68 0 0 1-6.23 1.2c-3.06.4-6.13.2-9.2.3a8.34 8.34 0 0 1-5.3-2c-.76-1.7.07-2.8 1.5-3.7 7.37.5 14.77 1.7 22-1q.45.1.93.1z" class="cls-208"/>
    <path d="M129.3 97.2c-9 .07-17.78-.86-26-5l-.1-2.82 1.1-.2a25.94 25.94 0 0 1 12.2 3.4c3 1.72 6.12.62 9.17-.17 1.54-.4 3-1.6 4.64-.2v4a1.1 1.1 0 0 1-1 1z" class="cls-209"/>
    <path d="M110.76 133.1l-2.35-.5c-.5-3-.3-6.16-.5-9.22-.2-3.56 3.2-5.78 5.2-8.5 4.7-2.13 9.9-.25 14.6-1.87.6-.2 1.2.6 1.5 1.2a12.83 12.83 0 0 1 1 4.2c.1 2-.5 3.9-2.3 4.6-4.1 1.7-7 5-10.5 7.4a8.43 8.43 0 0 1-6.5 2.9z" class="cls-210"/>
    <path d="M129.3 118.2c-1.36-1.1-.9-2.62-1-4 1.6-3.44 5.24-4.16 8-6l8-.9c1.8 3.9-1.87 6-3 9a3.35 3.35 0 0 1-.2.75c-3.6-.16-4.5 2.77-5.87 5.13-2 1.36-3.28-1.56-5.18-.9-.8-.85.26-2.23-.74-3.1z" class="cls-211"/>
    <path d="M129.3 118.2c1.1.73 1 1.88 1 3 .3 3.47-3.13 5-4.07 7.88-3.08-.4-5.74 2.37-8.93 1.16a12.76 12.76 0 0 1 8.45-7.86 4.6 4.6 0 0 0 3.56-4.2z" class="cls-212"/>
    <path d="M126.26 129.1c0-3.36 2.73-5.26 4.08-7.9 2.77-5.25 3.27.88 5 1-2.8 2.6-6.78 3.65-9.08 6.9z" class="cls-213"/>
    <path d="M71.3 110.2c3.86-3.35 1.55-7.27 1-11v-.96c2.4-1.38 2.6.64 3.15 2.06.4 1.1-.17 2.22.1 3.32 0 .12.13.56.2.38a1.8 1.8 0 0 1 .86-1c2 .65 2 2.4 2.1 4 .8 8.9 6.3 14.2 15.2 14.72h2.5c2.4-.17 4.7-1 7 .2 1.5 2.25.3 3.75-1.6 4.74s-3.6 2.67-5.6 3.73c-6.3-1.3-12.2-3.4-16.9-8-2.1-3.5-2.8-8-6.9-10.2z" class="cls-214"/>
    <path d="M96.15 130.36c0-2.4 1-3.9 3.53-4.48 1.82-.43 4-.9 3.66-3.64.4-2.67 2.44-4.15 4.2-5.84 1.36-.68 2.25-2.06 3.73-2.57a1.68 1.68 0 0 1 1.93 1.4c-3.37 5-4.2 10.57-3.67 16.45a2.9 2.9 0 0 1-1.1.9c-4.22-.08-8.44-.1-12.28-2.22z" class="cls-215"/>
    <path d="M113.2 115.24l-1.82-1c-2.24-.2-1-1.58-.92-2.6 1.92-2.78.88-5.22-1.33-7-2.93-2.4-5.8-5.1-10-5.1a3.18 3.18 0 0 1-3-1.46c1.9-1.5 4.14-.55 6.2-.9 3.77-1.94 5.3 2.1 8 3a20.45 20.45 0 0 1 3.27 2.2c4.07 4.3 7.6 4.55 12 0 3-3.05 6.1-.47 8.7 1.73 0 1.7.26 3.3 2 4-1.18 4-5.2 4.2-8 6-4.93 1.9-10 1.6-15.1 1.2z" class="cls-216"/>
    <path d="M134.3 104.2c-1-.1-2.3.2-2.86-.32-3-2.7-4.9-1.07-6.95 1.26-3.8 4.3-5.2 4.3-8.8.07-1.6-1.8-4.4-2.4-5.4-5 1.2.5 2.6.7 3.6 1.4 2.4 2 4 2 7 0 2.4-1.6 6.2-1.4 8.3-4.4l1-1c1.2.2 2.3 3.3 3.7-.5 1.6-4.3 4.1-.5 6.2.3z" class="cls-217"/>
    <path d="M130.3 92.2c-9.5 6.34-17.6.27-26-3 2.83-4.82 6.47-5.12 10.73-1.94a3.88 3.88 0 0 0 3.3.84c4.68-1.3 8.58 2.06 13 2.05z" class="cls-218"/>
    <path d="M130.46 84.36a14.6 14.6 0 0 0 6.83 1.9l.9 1.07c0 1.46.3 3-1.1 4a5.8 5.8 0 0 1-3.8-1.28c-.9-1.95-7.4-.98-3-5.7z" class="cls-219"/>
    <path d="M76.43 103.07c-.13.63-.06 1.54-.45 1.83-.93.7-.86-.5-1.18-.9-1.38-1.68 1-4.94-2.44-5.76q0-1-.07-2.07c1.4-1.57 3.3-.8 5-1a6.42 6.42 0 0 0-1 4 2.6 2.6 0 0 1 .1 3.9z" class="cls-205"/>
    <path d="M96.1 98.1c6.1-1.27 10.6 2.22 14.68 5.65 2.3 1.94 4.38 5.37.56 8.44-2.55 1.7-4.84 4-7.87 5a7.1 7.1 0 0 1-1.3.4c-3 .6-12.55-3-14-5.4a2.38 2.38 0 0 1-.1-2.8c.8-1.1 2-1 3.17-.9 2.37.2 4.75 1.7 7.3-.1-.93-1.7-2.87-1.5-4.15-2.3-2.5-1.6-5.3-3-3.9-6.8z" class="cls-220"/>
    <path d="M90.47 99.38c1.14 4.22 4.3 6 8.26 6.7 1.12.22 2.67.1 2.82 1.5s-1.22 2.34-2.35 3c-2.6 1.45-5.14.34-7.7-.38-.93-.26-2.32-1.5-2.85.37-.37 1.33 1.1 1.26 1.88 1.78 1.93 1.3 4.33 1.6 5.83 4s4-.1 6 0c.15 2.17-1.4 3-3 3.14-8.67.6-16.62.6-18.92-11.3-.92-2.7-3.2-5.3-.17-8 3.23-2.3 6.8-.7 10.2-.9z" class="cls-221"/>
    <path d="M80.25 100.2c-.68 2.47 0 4.73 1.07 7-.4 7 3.13 11.2 10.35 12.33 4.22.65 4.22.65 4.62 3.64a18 18 0 0 1-14.4-5c-2.8-2.65-5-5.6-4.7-9.86.1-1.7.4-3.6-.8-5.2l-.1-3.8c1.7-1.2 2.6.5 3.9 1z" class="cls-222"/>
    <path d="M96.3 123.2c-.32-2.46-2.3-1.8-3.82-2-8.35-1.4-13.2-6.5-12.8-13.32.1-1.65 1-.66 1.66-.62 1.78 1.4.8 3.68 1.84 5.44 3.32 5.6 13.66 7.7 19.23 3.67a8.35 8.35 0 0 0 .9-.18 12.27 12.27 0 0 1 3.6-1.3c1.8-.3 2.2.7 1.5 2.3-1.7 1.6-2.7 3.9-5 5-2.3.4-4.5 1.2-7 .9z" class="cls-223"/>
    <path d="M108.3 117.2c-1-3.76-3.53.3-5-1 2.1-1.9 5.25-2.38 6.66-5.3.32-.66 1.17.53 1.37 1.32-.22.7-1 1.4 0 2.1-.7 1.2-1.2 2.73-3.02 2.87z" class="cls-210"/>
</svg>