<svg xmlns="http://www.w3.org/2000/svg" id="Layer_1" data-name="Layer 1" viewBox="0 0 184.27 184.52">
    <defs>
        <style>.cls-1{fill:#c3dff8;}.cls-2{fill:#dbe8f6;}.cls-3{fill:#deecf4;}.cls-4{fill:#d1e6f1;}.cls-5{fill:#d4e8f9;}.cls-6{fill:#cfe4f3;}.cls-7{fill:#d6e5eb;}.cls-8{fill:#f4f9f8;}.cls-9{fill:#0b0805;}.cls-10{fill:#cbdde7;}.cls-11{fill:#eef0f4;}.cls-12{fill:#dcbcac;}.cls-13{fill:#223647;}.cls-14{fill:#d1b7a7;}.cls-15{fill:#44494f;}.cls-16{fill:#c8ac95;}.cls-17{fill:#b7a69a;}.cls-18{fill:#ddc1ab;}.cls-19{fill:#382b20;}.cls-20{fill:#e9c7bb;}.cls-21{fill:#cdaca1;}.cls-22{fill:#90999f;}.cls-23{fill:#eccfc0;}.cls-24{fill:#707e87;}.cls-25{fill:#1d201f;}.cls-26{fill:#707f8b;}.cls-27{fill:#6d848a;}.cls-28{fill:#607178;}.cls-29{fill:#4a5840;}.cls-30{fill:#4c5b52;}.cls-31{fill:#576969;}.cls-32{fill:#454e40;}.cls-33{fill:#666853;}.cls-34{fill:#2f362d;}.cls-35{fill:#2d363b;}.cls-36{fill:#364230;}.cls-37{fill:#545a49;}.cls-38{fill:#0a0e07;}.cls-39{fill:#3b3a23;}.cls-40{fill:#252826;}.cls-41{fill:#302e23;}.cls-42{fill:#1a2111;}.cls-43{fill:#493d36;}.cls-44{fill:#504c2a;}.cls-45{fill:#191e15;}.cls-46{fill:#af9984;}.cls-47{fill:#65623a;}.cls-48{fill:#222013;}.cls-49{fill:#323624;}.cls-50{fill:#71694a;}.cls-51{fill:#8e8780;}.cls-52{fill:#888060;}.cls-53{fill:#b19d82;}.cls-54{fill:#545a4e;}.cls-55{fill:#7b6e5c;}.cls-56{fill:#cdc7c6;}.cls-57{fill:#636a6b;}.cls-58{fill:#576450;}.cls-59{fill:#3c4b38;}.cls-60{fill:#181c0e;}.cls-61{fill:#070f06;}.cls-62{fill:#546350;}.cls-63{fill:#5a6a5a;}.cls-64{fill:#4c5b45;}.cls-65{fill:#647463;}.cls-66{fill:#3a432d;}.cls-67{fill:#a8998b;}.cls-68{fill:#767e64;}.cls-69{fill:#d0beaf;}.cls-70{fill:#4b533c;}.cls-71{fill:#59634d;}.cls-72{fill:#434b36;}.cls-73{fill:#515a44;}.cls-74{fill:#687360;}.cls-75{fill:#757d6e;}.cls-76{fill:#5b654f;}.cls-77{fill:#525d4f;}.cls-78{fill:#6d7152;}.cls-79{fill:#455037;}.cls-80{fill:#68725e;}.cls-81{fill:#473e34;}.cls-82{fill:#594a3f;}.cls-83{fill:#66574f;}.cls-84{fill:#3f3c33;}.cls-85{fill:#575551;}.cls-86{fill:#a79685;}.cls-87{fill:#56503e;}.cls-88{fill:#8a875c;}.cls-89{fill:#727a69;}.cls-90{fill:#717672;}.cls-91{fill:#656f5b;}.cls-92{fill:#7e857b;}.cls-93{fill:#869283;}.cls-94{fill:#768572;}.cls-95{fill:#3e382b;}.cls-96{fill:#50493d;}.cls-97{fill:#342e23;}.cls-98{fill:#24291b;}.cls-99{fill:#5c6852;}.cls-100{fill:#515d46;}.cls-101{fill:#424d3e;}.cls-102{fill:#717d6c;}.cls-103{fill:#7e8878;}.cls-104{fill:#868f82;}.cls-105{fill:#7d8679;}.cls-106{fill:#889288;}.cls-107{fill:#798175;}.cls-108{fill:#6d7567;}.cls-109{fill:#5e6853;}.cls-110{fill:#8d9489;}.cls-111{fill:#a0a59c;}.cls-112{fill:#615f51;}.cls-113{fill:#687262;}.cls-114{fill:#7a847a;}</style>
    </defs>
    <path d="M184.06 1.1v22c-2.2 6.4-4.2 7.54-10.73 4.87a11.8 11.8 0 0 0-10.88.6c-5.36 2.9-11.8 3.26-16.7 7.37-1.72 1.43-4.13.7-6.27.24-5.92-1.27-11.8-1.4-17.6.7-2.5.34-4.44-1.14-6.58-2-18-7-35.34-5.3-52.2 3.6A47.76 47.76 0 0 0 51.53 47c-1.24 1.3-2.46 2.82-4.63 2.35a2.66 2.66 0 0 1-.7-4c2.1-3 .44-4.84-1.55-6.85-1.52-1.53-2.9-3.2-4.47-4.7a6.85 6.85 0 0 0-6.9-1.82 40.45 40.45 0 0 1-7.78 1.68c-1.18.1-2.55.4-3 1.5-2.4 5.8-8.43 8.3-11.76 13.38-3.44 5.23-6.48 6-10.66 4.52V1.1C1.64.2 3.34.63 4.98.63h174.2c1.62 0 3.32-.42 4.88.47z" class="cls-1"/>
    <path d="M184.06 36.1v35c-2.52 2.2-5.84 2.27-8.82 3.23-4 1.27-7.33 3-9.13 7.1-1 2.23-2.5 4-5.4 3.36-2.6-.7-1.8-5-5.1-4.9a10.5 10.5 0 0 1-5.4-5c-.7-4-3.3-7.6-3.3-11.8 1.2-5.9 2.7-11.6 7.2-16.1 2-2 1.9-4.9 1.8-7.6-.3-6.2 4-9.2 8.4-11.8 4-2.4 7.8-.5 10.7 2.6 2.6 2.9 6.3 3.6 9.2 5.7z" class="cls-2"/>
    <path d="M.06 78.1v-7a67.92 67.92 0 0 0 14.12-17.2c3.8-6.4 13-6.9 18.88-2.22 2.54 2 6.27 2.54 7.67 6 .32 2.36-.8 4.42-1.4 6.6-.73 2-1.84 3.9-2.28 6.05-1.35 5.3-3.2 10.24-8 13.56-1.46 1-2.18 2.8-2.87 4.5a32.06 32.06 0 0 0-1.15 3.5c-.25 1-.42 1.9-.6 2.9-.73 4-2.3 5.1-6.2 4-3-.9-6.15-1.4-8.94-2.9-2-1.6-2-3.6-1.5-5.8.8-2.4 1.3-4.9.1-7.3C6.5 79.1 1.8 81 0 78z" class="cls-3"/>
    <path d="M160.17 84c1.85.28 3.62-.3 4.2-2 3.3-9.67 11.87-9.57 19.7-10.93v41c-3.1 1.4-6.45 1.37-9.74 1.58-9.25.6-10.42 1.78-10.67 10.87 0 .66-.13 1.32-.12 2 .07 2.36.52 4.8-1.48 6.7-3-.77-2.46-3.2-2.58-5.36-.2-12.33 1-24.7-.77-37-.3-2.08-.4-4.3.8-6.28z" class="cls-4"/>
    <path d="M40.06 58.1c-6.1-3-10.37-10.23-19.1-7.24-3.9 1.32-7.3 3.57-7.84 6.7C11.77 65.46 5.64 67.82.05 71.1v-18c5.28.45 8.33-3.05 10.72-6.8a18.36 18.36 0 0 1 5.76-5.9c.7-.44 1.9-.84 2-1.4 1.32-8.53 9.16-6.26 14.18-8.46 2.8-1.2 5.7-.66 8.2 1.73 2.9 2.65 4.7 6.38 8.4 8.3 1.6.82.4 2.3-.4 3.33-1.3 1.5-2.8 2.93-1.6 5.22-.7 4.28-2.8 7.46-7 8.98z" class="cls-5"/>
    <path d="M184.06 36.1c-4 .5-6.9-1.26-9.63-4-5.5-5.6-9.3-4.86-14.43.73-3.22 3.5-2.07 7.3-2.93 11-.26 1.1-.07 2.74-.75 3.26-5.44 4.1-6.4 10.5-8.43 16.4-3-.3-3.4-3-4.7-4.9a34.4 34.4 0 0 0-11.1-13.4 8.9 8.9 0 0 1-1.1-.8c-2.3-3.5-7.4-3.9-9.1-8.1 2.8-3.9 7.2-2.6 10.8-2.6 2.8 0 5.9-.1 8.7 1.4 1.5.8 3.4.1 4.6-1 5.8-5.6 14.1-5.3 20.7-8.9 2-1.1 4.5-.1 6.2 1 5 3.1 8.3 1.4 10.9-3.3v13z" class="cls-6"/>
    <path d="M184.06 158.1c0 8 0 16-.05 24 0 .63 1 2.15-.9 2-1.7-1.2-3.9.14-5.6-1.07-5.6-2.32-9.5-7-14.6-10a4.92 4.92 0 0 1-2.4-3.58c2.7-5.3 4.9-11.08 12.7-10.1 3.8.47 7.1-3.03 11.1-1.25z" class="cls-7"/>
    <path d="M162.3 126.1c-.05-1.3-.13-2.62-.15-3.94-.08-7.1.57-8.57 7.48-9.5 4.7-.64 9.57-2.25 14.43-.5v16c-2.1 1.88-4.38 1.36-6.34.04-2.76-1.84-5.38-1.78-8.36-.7-2.5.87-5.18 1.36-7.06-1.4z" class="cls-8"/>
    <path d="M177.83 182.2c1.2 2.14 4.1-.42 5.23 1.9q-89.5 0-179-.1c-1.26 0-4.3 2-4-1.9a4.9 4.9 0 0 1 3.65-1.4h3.1a32.82 32.82 0 0 1 3.7 0h1.4c3-1 5.8 1 8.8.1 1-.08 2.1-.08 3.1-.15 2.6-.53 5.1.32 7.6-.17 3.3-.25 6.5.07 9.7.1 2.7-.45 5.3.07 7.9 0a38.24 38.24 0 0 1 7.7.08 87.18 87.18 0 0 1 12.4 0 12.37 12.37 0 0 1 3.5.2c.6.07 1.2.2 1.8.32 12.4.7 24.7 1.3 37-.4 5.6-.8 11.2-.43 16.9-.33a441 441 0 0 0 44.7 1.26c1.7.2 3.5-.6 5.1.5z" class="cls-9"/>
    <path d="M184.06 158.1c-5 1.75-9.9 3.56-15.32 3-1.6-.16-3.67.5-3.7 1.8-.13 3.2-3.72 4.1-4 7-2.36 1.3-2.5-.3-2.6-2 2.3-4.46 1.68-9.3 1.88-14 .22-5.08-.9-10.23.93-15.2 2.44-1.7 2.92.5 3 1.9.26 3.8 2.67 4.57 5.82 5.42 5.06 1.38 10.24 2.86 13.94 7.06v5z" class="cls-10"/>
    <path d="M162.3 126.1c.62.2 1.38.7 1.85.52 6.9-2.73 13.38-.35 19.9 1.52v11c-8 1.84-15.5 1.26-22.07-4.22a1.87 1.87 0 0 1-.07-1.55z" class="cls-11"/>
    <path d="M161.93 134.1c5 1.9 9.5 5.26 15.42 4.1 2.1-.4 4.46.55 6.7.88v14c-6.4-1.9-11.9-6.37-19-6.33-1.66 0-1.85-2-2-3.53-.1-1.74.6-3.68-1-5.12a2.8 2.8 0 0 1-.12-4z" class="cls-7"/>
    <path d="M.06 162.1v-10c1.3-2.34 3.68-3.14 5.92-4.1 2.9-1.27 5.53-2.83 7.2-5.64a5.63 5.63 0 0 1 2-2.8 3.12 3.12 0 0 1 4.22 1.6c2.3 4.43 6.5 6.82 10.12 9.84a3.38 3.38 0 0 1 .2 1.45c-1.63 3.64-4.32 3.26-7 1.5s-4.9-1.78-7.34 0c-3.93 1.6-8 2.78-10.22 7.13a3.22 3.22 0 0 1-5.1 1.02z" class="cls-12"/>
    <path d="M184.06 1.1H.06c-.34-1.6.9-1 1.5-1h181c.6 0 1.84-.6 1.5 1z" class="cls-13"/>
    <path d="M28.84 151.1c-3.9-1.8-8.25-2.92-9.4-8.17-.2-.8-1.8-3.65-4.4-2.83-4.55 3.2-9.34 5.25-15 3v-2A7.93 7.93 0 0 1 6.3 138c-2.3-.3-4.47.7-6.26-.9v-3a8.83 8.83 0 0 1 5.18-2.32 27.93 27.93 0 0 1 6.6.15 4.62 4.62 0 0 1 2.95 2.5c-.94 3.62 1.64 3.52 4 3.7a7.26 7.26 0 0 1 2.47 1.3c1 .95 1.72 2.2 2.78 3.1 1.78 2.76 5.45 4.47 4.82 8.57z" class="cls-14"/>
    <path d="M.06 110.1v-12c2.8-2.6-.38-6.36 1.8-9.08 1.47-.52 2.2.55 3 1.38 6.24 5.62 3 12.4 2.3 18.86a6.08 6.08 0 0 1-1.9 2.08c-1.93.52-3.58-.24-5.2-1.24z" class="cls-15"/>
    <path d="M.06 162.1c2 .2 4-.55 4.55-2.22 1.8-5.1 6.4-5.45 10.4-6.95l.4.56a3.83 3.83 0 0 1-2.2 3.6c-4.3 2.2-3.7 6.4-4.3 10.2-2.3 4.7.1 10-1.7 14.8h-3c-2.4-2.4-2.2-5.4-1.8-8.3.5-3.3.1-6.2-2.1-8.7v-3z" class="cls-16"/>
    <path d="M.06 128.1v-13a8 8 0 0 1 1.44-1 5 5 0 0 1 5 .83c1.43 2.1 1.13 4.35.6 6.63-2.22 2.35-2.04 7.24-7.04 6.54z" class="cls-17"/>
    <path d="M.06 165.1c3.85.84 4.47 4 3.82 6.85-.8 3.5-.06 6.78.18 10.15h-4v-17z" class="cls-18"/>
    <path d="M.06 128.1c3.6-.34 2.9-5 5.93-5.9a3.7 3.7 0 0 1 1.4 3.06c-.2 2.8 1 6-2.5 7.8a9.83 9.83 0 0 1-5 1v-6z" class="cls-19"/>
    <path d="M.06 143.1c5.17-.1 10.05-1.66 15-3l-1 3c-4.38 2.46-8.37 6-14 5v-5z" class="cls-20"/>
    <path d="M.06 148.1c4.77-1.38 8.92-4.47 14-5-1.88 5-6.92 5.54-10.77 7.76A22.17 22.17 0 0 1 0 152.1v-4z" class="cls-21"/>
    <path d="M2.2 89.1c-1.22 2.88 3 7-2.14 9v-17c1.56-1.14 3-1.37 4.3.44-.6 2.56-.45 5.32-2.17 7.56z" class="cls-22"/>
    <path d="M.06 137.1c2.2-1.2 4.8.34 7-1.2 1-.7 2 .42 2.22 1.3.38 1.27-.76 1.82-1.73 1.77-2.78-.15-4.9 1.77-7.5 2.13v-4z" class="cls-23"/>
    <path d="M4.06 82.1c-1.07-1.37-2.58-1-4-1v-3c3.13 1.1 7.3-.3 9.1 3.9-1.66 1.7-3.36 1.64-5.1.1z" class="cls-24"/>
    <path d="M1.06 114.97l-.46.16-.54-.03v-5c2-1.2 3.4.2 4.92 1.14 2.08 4.86-2.55 2.6-3.92 3.73z" class="cls-25"/>
    <path d="M122 36.33c3.35 2.6 7.58 4 10.15 7.7-2.74 2.14-4.7-.26-6.7-1.36-8.34-4.57-16.8-8.1-26.46-9.54s-18.6-.08-27.5 3.2c-2.8 1-5.3 2.92-8.5 2.5a1.92 1.92 0 0 1-1.2-1c18.1-10.5 36.9-11.3 56.1-3.4 1.4.56 2.7 1.26 4 1.9z" class="cls-26"/>
    <path d="M40.06 58.1l7-9c5-3.67 8.75-8.95 14.76-11.28l.32.4c.23 3.7-3.87 4.04-5.1 6.62a9.3 9.3 0 0 1-1.48 1.43c-5.92 4.22-9.68 10.3-13.76 16.1-1 1.08-1.9 2.26-3.65 1.73-.16-2.25 1.46-3.93 1.9-6z" class="cls-27"/>
    <path d="M56.06 44.1c1.16-2.85 4.72-3.24 6.06-5.9 6.82-1.85 12.87-5.9 20.1-6.72a66.9 66.9 0 0 1 31.58 3.8c6.48 2.4 11.64 7.1 18.32 8.73 4.73 4.1 8 9.5 12.16 14l3.62 5.4c.64 4 3.4 7.4 3.32 11.6a1.36 1.36 0 0 1-1.34.3c-1.94-2.1-3.92-4.3-4.93-7.1-.36-1.6-.37-3.3-1.75-4.5-6.42-5.4-10.87-13.2-19.4-16.1-7.66-2.6-14.43-7.2-21.74-10.7-3.3-2.1-6.74-2-10.46-1.2-5.76 1.3-11.2 4-17.22 4.2-1.64 0-2.57 1.4-3.82 2.1-4.5 2.8-9.2 4.3-14.5 2.4z" class="cls-28"/>
    <path d="M150.06 75.1l1.14-.08 4.86 4.08a2.3 2.3 0 0 1 1.24 1.7 2.25 2.25 0 0 1-.86 1.1 9.32 9.32 0 0 1-4.33.8c-5.5.23-6.6 1.72-5.4 7.07s-.1 7.4-5 8.8a9.44 9.44 0 0 1-4.7-.75 4.32 4.32 0 0 1-1.7-1.8c-1.2-6.46-3.1-12.63.5-19.3 4.1-7.37 8.8-8.3 14.4-1.62z" class="cls-29"/>
    <path d="M157.06 81.1l-1-2c5.6-1.88 2.1 3.77 4.06 4.9l-.3.27c-2.13.03-2.76-1.3-2.76-3.17z" class="cls-4"/>
    <path d="M25.06 88.1a4.9 4.9 0 0 1 1.92-3.88c4.95-3.52 7.3-8.6 8.92-14.17 1.16-2.54 2.75-4.2 5.95-3.74 2.87.5 4.5-2.5 7.1-3.1a4.7 4.7 0 0 1 2.2.1c3.7 3.1 3.7 5.5-.5 7.9A47.68 47.68 0 0 0 40.4 79c-3.5 3.5-3.67 5.37.08 8.6 3.4 2.93 6.64 5.44 4.55 10.67-.55 1.37.83 2.77 1.47 4.1s1.87 2.92.13 4.47c-3.4 1.17-7 1.25-10.46 2.22-3.93 1.1-5.7-2.23-7.24-5.24a11.94 11.94 0 0 1-1.33-6.24 15.9 15.9 0 0 0-2.54-9.42z" class="cls-30"/>
    <path d="M49.06 64.1c-2.9 2.27-5.37 5.35-9.9 3.46-1.53-.64-1.87 2-3.3 2.5a10.4 10.4 0 0 1 2.3-5.94l2.88-2c4.86-5.5 9.35-11.3 14-17l1-1c5.58-1.14 10.94-2.18 16.33-4.93 4.68-2.4 10.88-3.2 16.46-4.5 3.92-.9 7.5-2.5 11.54-.8a4.44 4.44 0 0 1 2.7 2c-.67 2.5-2.57 2.5-4.66 2.5-2.4-.2-4.9-.4-7.2.7A59.93 59.93 0 0 1 79 41.5a13.72 13.72 0 0 0-8.1 3.18 10.38 10.38 0 0 1-1.22.86c-8.44 4.76-10 6.13-15.63 14.58a13.13 13.13 0 0 1-4.96 4z" class="cls-31"/>
    <path d="M25.06 88.1c3 .47 4 2.4 4.07 5.27.1 3.26-.74 6.64 1 9.75 1.73 6.36 3.12 7.12 9.26 5 2-.72 4-.67 5.4 1.07s.5 3.3-.9 4.7c-.6.5-.9 1.4-1.4 2-2.7 2.8-6.2 3.7-9.8 4.4-5.4.9-8.3-2.4-10.7-6.4-1.5-5.3-1.5-10.5 1-15.4 1.2-2.6 0-5.3.9-7.8z" class="cls-32"/>
    <path d="M23.85 90.75c.9 6.27-1.17 12.37-1.16 18.6a29.42 29.42 0 0 0 .4 4.78c1.5 3.28 2.5 6.56.1 9.88-.9.6-1.5.1-1.9-.6-.7-1.5-.5-3.7-2.9-4a10 10 0 0 1-1.3-.4c-3.6-.1-6.7-1.3-8.9-4.2a5.2 5.2 0 0 1-2.5-2.4c-.3-2.6 2.6-2.9 3.4-4.7 1.8-1.7 4.3-3.4.3-5.4a2.87 2.87 0 0 1-.3-2c1.4-2.9 3.2-1.3 4.7-.5-.9-2-5.6-.7-4.7-4.8l4.3 1.2c2.6.8 5.6 2.6 7.9 2 3.1-.8.4-5.1 2.3-7.2z" class="cls-33"/>
    <path d="M9.37 94.75c2.33 3.44 7 4 9.45 7.63-3.66 1.37-5.2-4.46-8.8-2.34-1.16 1.67.7 3.16.32 4.7-.54 2.22.27 5.95-4.24 4.35-.14-6 3.78-12.6-2.06-18a6.18 6.18 0 0 1-.78-2.9c-.27-3 .78-5.6 4.1-5.6 3.64 0 1.75 3.1 2.16 4.9a4.8 4.8 0 0 1-.34 2.9z" class="cls-34"/>
    <path d="M9.17 90.6a11.8 11.8 0 0 0-.13-2c-.4-1.76 1.13-4.8-1.48-5.05-2.88-.3-3.15 2.8-3.47 5.1A20.7 20.7 0 0 0 4 91.1l-1.84-2c.34-2.4-1.2-5.3 1.87-7l5.1-.1c1.38 2.87.7 5.74-.03 8.6z" class="cls-35"/>
    <path d="M161.93 134.1a6.62 6.62 0 0 0 .08 4c.1 7.92 0 15.85.2 23.77.1 2.64-.1 5-2.7 6.37-1.9 2.8-1.4 6.12-1.9 9.22-.3 2-.3 4-2.4 5-4.3.17-8.7.5-13.1-.24.7-2.5 2.7-2.18 4.1-2.74 3.5-1.36 4.5-4.5 2.4-7.52a3.46 3.46 0 0 1-.8-1.17c-2.1-9.5-.4-18.9-.3-28.4.1-5.9-.3-6.2-5.7-3.5-2.2 1.1-4.2 2.7-6.6 3.4a16.68 16.68 0 0 1-4.8.2c-4-.5-8-1.8-12.1-.4-1.8.1-3.5-.2-4.2-2.3.9-2.6 3.2-2 5.1-2.3h5.8a24 24 0 0 0 11.3-1.6c4.3-1.5 7.6-4.3 10.8-7.2 4.2-2.9 5.7-6.4 4.2-11.5a12.88 12.88 0 0 1 1.4-10.6c.8-1.2 1.6-2.3 3.2-2a3.1 3.1 0 0 1 2.7 2.6c.5 2.5 1.7 5.1.4 7.8a1.8 1.8 0 0 0-.23.8c2.5 3.7 2.1 8 2.9 12.1l.8 5.2a.54.54 0 0 0 0 .7z" class="cls-36"/>
    <path d="M161.12 128.1c-1.37-1.08-1-2.62-1.05-4 0-2.15 0-4.1-2.6-5.12-2.07-.8-1.7-2.43-.4-3.88 1.76.53 2.3-.4 2-1.88-1-4.07 1-9-.76-12.05-3.1-5.33-.4-10.67-2-15.7-.4-1.53-.7-2.88.6-4.07l.2-.3 2.8 3.16a404.14 404.14 0 0 1 1.3 43.84z" class="cls-29"/>
    <path d="M144.27 58.03c-5.5-3.4-8.7-8.83-12.16-14 5.7 3.28 9.5 8.2 12.2 14z" class="cls-26"/>
    <path d="M155.06 182.1a13.73 13.73 0 0 0 1.2-8.05c-.32-3 .85-4.55 3.18-5.76a1.36 1.36 0 0 0 1.62 1.6l16.77 12.3-3.64.8c-3.4-.9-6.8-.2-10.1-.4-2.6-.3-2.7-2.6-4-4.6-.7 1.8-1.1 3.8-3.2 4.4a1.83 1.83 0 0 1-2-.4z" class="cls-37"/>
    <path d="M128.06 182.1c-16.6 0-33.14 1.7-49.75 1-1.7-.08-3.6.5-5.2-.83 1.3-1.8 3.2-1.7 5-1.65 4.7-.18 9.5-.57 14.2-.06 1.1.1 2.1.08 3.2.07 2.7-.14 5.3 0 8 0 4.8 0 6.9-3.6 9.3-6.7.6-.78-.3-1.48-1.1-1.86-13.5-.77-27-2.8-40.5-.58-2.7.4-5.6-.8-8.2.8-.6 3.1 2.5 3.5 3.9 5 1.3 1.3 3.2 2.3 2.6 4.6H57.3c-3-2.9-5.3-6.3-8.1-9.3a8.08 8.08 0 0 0-4.52-2.7c-3-.7-6.1-1.4-8.5-3.5-1.4-1.1-3.54-2.6-.4-4.4a5.7 5.7 0 0 1 2.65 0c8.25 2.9 16.84 3.3 25.46 3.3H110c3 0 6.1-.2 9.1.2 4.87 1.6 9.9.3 14.84.9 2.85 1.1 5.93.6 8.85 1.2 2.1.4 4.2 1.1 5.5 3l-.2.2a1.72 1.72 0 0 1-1.1 2.4c-6.8 1.8-12.1 6.7-18.8 8.5z" class="cls-38"/>
    <path d="M35.06 163.1c.53 4.13 4.54 3.47 7 4.94.85.5 2.24.08 3 1.1 5.3 2.85 5.7 4.28 3.87 12.92h-7.9a12.16 12.16 0 0 1-3.54-2.68c-4-5.4-9.4-3.85-14.7-3a2.33 2.33 0 0 1-1.3-.6c-2.7-5.44-.8-11.1-.7-16.65 0-.8 1-1.27 1.8-1.4 2.2.6 2.4 2.48 2.6 4.32.2 1.62.1 3.36 2.1 4.26 2.3-1.5 2-5.5 5.5-5.8 1.3.4 2.3 1 2 2.7z" class="cls-39"/>
    <path d="M23.06 158.1c-1.88 4.75-1.23 9.72-1.24 14.62a34.22 34.22 0 0 0 .33 3.45l-.35.58a4.1 4.1 0 0 1-2.4 1.17c-1.54.55-4-1.77-4.67 1.47-.47 1.3-1.9 1.7-2.67 2.7h-1a9.43 9.43 0 0 1-1-1.3c-.86-6.4-2.28-12.7-.2-19.2 1.55-4.9 5.45-8.2 10.87-7.8a5.14 5.14 0 0 1 1.47.5c2.37 2.2 2.45 2.6.86 3.7z" class="cls-40"/>
    <path d="M59.97 172.17c-1.23-1.76.08-1.93 1.32-2a281.2 281.2 0 0 1 50.5.2 3.72 3.72 0 0 1 1.2.73c-6.3 2.07-11.8 7.37-19.2 4.56a13 13 0 0 1-5.6-.73c-1.8-1.18-2.7-3.4-5.6-3.4-5.9 0-6.6.28-8 6.08-.4 1.8-.7 3.6-2.6 4.5l-3 .1-3.1-3.9c.7-4.7-2-6.1-6-6z" class="cls-41"/>
    <path d="M128.06 182.1c5.66-4.2 11.47-8.12 18.6-9.48.5-.1.85-.92 1.28-1.4 1.63-.06 3.42-.52 4.52 1.18 1.2 1.87-1.33 2.5-1.45 3.6-.5 5-3.9 5.55-7.8 6.07h13.9c2-1.14 4-1.72 6 0 3.7.4 7.6-.87 11.2.92-15.4.3-30.7.2-46.1-.9z" class="cls-42"/>
    <path d="M72.13 182.02c.3-1.1.7-2.18.9-3.3 1.94-10.73.13-8.2 10-8.64 3-.14 4.68 1 5 4a1.48 1.48 0 0 1-1.18.78c-5.08-1-7 1.9-7.93 6.18-.3.37-.6.72-.92 1.06l-5 .17a7.2 7.2 0 0 0-.87-.25z" class="cls-43"/>
    <path d="M23.06 176.1l.95-2.2c3.9 2.24 9-2.24 12.5 2.53 1.4 1.95 3.8 3.15 4.6 5.66h-10c-2.6-2.1-5.8-3.4-8-6z" class="cls-44"/>
    <path d="M48.94 182.02c-.4-1.23-1.56-3-1.12-3.62 3-4.4-.5-6.63-2.75-9.3 6.36 2.15 9.58 7.2 12 13z" class="cls-45"/>
    <path d="M10.97 181.1a7 7 0 0 1 .12 1h-4c-.7-5-2.3-10.15 1-14.94 1.5-.25 1.5.9 1.4 1.84-.3 4.1.9 8.1 1.4 12.1z" class="cls-46"/>
    <path d="M23.06 176.1c3.54.85 6.84 2 8 6h-8c-2-1.7-3-3.55-1-5.9a8.3 8.3 0 0 0 1-.1z" class="cls-47"/>
    <path d="M12.06 182.1c-.1-1.5 1.25-2 2-2.92 1.84-2 4.42-.8 6.56-1.5 1.46 1.63 1.48 3.1-.5 4.33-2.66 1.5-5.38-1.7-8.06.1z" class="cls-48"/>
    <path d="M20.14 182.04c.46-1.32 1.63-2.66-.08-3.94q-.52-.3-.35-.62a.47.47 0 0 1 .4-.32 2.12 2.12 0 0 1 2.1-1c-.4 2.1.6 3.95 1 5.9z" class="cls-39"/>
    <path d="M28.84 151.1l-5.8-8a5.54 5.54 0 0 1-.93-2.32c-1-3.78 1.3-7.5.3-11.28a2 2 0 0 1 .9-1.73c3.6-3.55 14-.77 15.1 4.18 1.9 8.3.9 16.15-4.7 23a1.82 1.82 0 0 1-2.6-.4 6.7 6.7 0 0 1-1.2-1.52c-.2-.36-.4-.74-.5-1.1a.94.94 0 0 0-.3-.83z" class="cls-49"/>
    <path d="M29.2 151.9a1.6 1.6 0 0 1 .8.38c2 3.7.08 4.86-3.3 5-1.8-.17-3.1-1.5-4.7-2.13-2-1.86-4.87-.52-6.92-2.08l-.13-.16c2.65-2.8 5.43-2.4 8.2-.2 2.32 1.9 4.36 2.2 6.04-.7z" class="cls-16"/>
    <path d="M23.06 141.17v1.93c-1.4-.46-1.73-1.7-2-2.92-1.52-1.3-.82-5-4.37-4.07a3.7 3.7 0 0 1-2.7-.9l-2-2c-1.4-1.7-5 1.3-5.4-2.4 3-1 4.6-4.2 7.3-5.3a4.23 4.23 0 0 0-3.8 2.1c-.8 1.1-1.7 2.7-3.5 1.5.4-3.2.1-6.8 4-8.4 3.7.7 7.4.5 11.1 1.4l.2 2.4c1.4 3.7.7 7.5.7 11.3-.1 1.9-.7 3.8.2 5.7z" class="cls-50"/>
    <path d="M7.06 130.1c.28 3.22 3.9 1 4.92 3l-7-.1c1.4-2.5.7-5.3 1-7.94 1-1.3.26-2.85.58-4.25.46-2 1-3.9 3.77-3.2 1.57 1 1.73 2.2.6 3.7-2.67 2-2.9 5.1-3.92 7.9a.58.58 0 0 1 .3.7.44.44 0 0 1-.2.4z" class="cls-51"/>
    <path d="M17.1 135.2c4-1.24 4-1.24 3.9 5l-2-1c-1.66-.87-3.52-1.6-1.9-4z" class="cls-52"/>
    <path d="M17.1 135.2a6.37 6.37 0 0 0 1.9 4c-2.54-.23-6.2 1-5-4z" class="cls-53"/>
    <path d="M6.06 109.1c2.53.26 3-1.16 3-3.33 0-1.92-.68-4 .88-5.7l.12 2.03c1.77 2 1.17 3.92 0 5.88 0 2.6-3.38 2.26-3.83 4.46.46.9.65 1.77-.37 2.46H.96c1.1-1.46 4.87-.12 4-3.73a2.58 2.58 0 0 1 1.1-2.07z" class="cls-54"/>
    <path d="M15.06 153.1c2.45.23 5.38-1.14 6.93 2.08-8.8-.6-12.6 3.63-12.1 12.58.2 4.47 1.8 8.83 1 13.37-2.7-4.3-.8-9.57-3-14-1.3-.92-2.6-1.85-.9-3.47a6.08 6.08 0 0 0 1.1-.86c-1.7-5.97 5-6.14 6.7-9.7z" class="cls-55"/>
    <path d="M5.9 114.94l.38-2.46 2.78.62c1.93 1.33 1.88 3 .9 4.88-4.07.84-1.7 5.24-3.92 7.1l-.07-2.9z" class="cls-56"/>
    <path d="M55.06 45.1a39.75 39.75 0 0 1-14 17 44.76 44.76 0 0 1 14-17z" class="cls-28"/>
    <path d="M91.06 38.1c2.32-1.87 5.06-1.1 7.52-.8a6.3 6.3 0 0 0 4.48-1.2c9.27 3.78 18.64 7.85 27 12.86a46.64 46.64 0 0 1 15.55 15.78c.6.9.3 2.26.4 3.4-2.2 1.27-2.9-.67-3.8-1.87a12.44 12.44 0 0 0-7.5-5.1c-4.5-1.58-8.4-.3-12 2.5-2.8.17-3.6-1.6-4-3.94.3-2.43 0-4.6-2.5-6a4.3 4.3 0 0 1-2.1-2.72c-1.5-6.7-6.4-8.7-12.6-9-3-2.3-7.3-1.6-10.4-3.9z" class="cls-57"/>
    <path d="M135.06 60.1c4.17 0 6.67 2.63 8.72 5.76.64 1 .84 2.16 2.26 2.3 1 2.5 4.2 3.75 4 6.95a13.9 13.9 0 0 0-6.22-2.8c-2.93-.4-5.78-.5-5.86 3.8a5 5 0 0 1-1.07 2.7 9.6 9.6 0 0 0-1.3 10.1c.8 2.2.3 4.9.4 7.3-2.1 1.8-4 1.5-5.7-.5a50.75 50.75 0 0 1-1.5-16.6c.2-4.7 1.2-9.4.8-14.2-.3-3.3 1.1-5.9 5.4-4.7z" class="cls-58"/>
    <path d="M156.8 81.35c-.2 2.9 1.72 5.27 1.64 8.36-.06 2.3-.86 3.6-2.55 5.6 4-.2 4.3 1.9 4.1 4.7-.2 4.6-.2 9.2 0 13.8.1 3.5-1.4 2.5-3 1.3 1.9-2.7.1-5.5-.4-8.1-.4-2.1-2-1.6-3 .1-2.2 3.4-2.6 7.6-1.2 10.6 3.1 6.8-.5 9.7-5.4 12.6-2-1.8-1.7-4.2-1.5-6.5.3-5.4.1-10.9 1.1-16.2 3.7-4.3 3.5-5.5-1.6-7.6-1.3-.5-3.1-.4-3.1-2.5 4.3-.7 4.6-3.7 3.4-7-2.3-6.3.1-9.3 7-8.7a38.28 38.28 0 0 0 4.4-.1z" class="cls-59"/>
    <path d="M131.06 95.2c1.5 1.3 3.3.9 5 .92l1.1.9c-1.27 1.92-3.52 1.14-5.2 1.92-1.93.7-4 .72-5.9 1.48-2.85 1.93-5.7 4.1-8-.63a1.78 1.78 0 0 0-1.15-1c-8-1.9-16.3-2.5-23.8.7-3.6 1.5-5.3 1.6-7.6-1-6 .9-12.2-.8-18.2.7-4.9-.8-6.5 2.8-8.4 6.2a5.77 5.77 0 0 1-6.5-.7c-2.7-5.1-2.1-6.9 3.5-9.9 3-1.2 6.4 0 9.4-1.3 5.1-1.2 10.3.7 15.4-.9a9 9 0 0 1 1.7-.3c2.3-.5 4.7.2 7-.3a45.35 45.35 0 0 1 7.2 0c6.5.4 13-.2 19.5.2 3.2 1.2 6.5.9 9.7.8 2 0 4 0 5.5 1.6z" class="cls-60"/>
    <path d="M131.06 98.1c1.8-1.72 4.08-.58 6.1-1l4.77.15c2.2.7 4.4 1.4 6.57 2.12 2.67.9 2.54 3.07 2.47 5.32-.1 2.8-2.16 2.4-3.92 2.5-3.74 1.8-7.24.5-10.74-.8-2.3-2.5-2.5-6.3-5.2-8.4z" class="cls-61"/>
    <path d="M56.06 96.2c-3.4 1.77-5.7 4-3.1 8.07-.83 3.6-1.6 3.84-5.94 1.83-1.8-3.8-6.22-7-2.6-12 .58-.8 0-1.48-.8-2a19.3 19.3 0 0 1-2.35-1.77c-7.28-5.87-7.35-8.6-.23-14.23 2.82-2.22 5.27-4.85 8.9-6.13 2.92-1 4.26-3.27 1.08-5.9A27 27 0 0 1 65.4 57.4c2.26-.27 2.8 2 2.9 3.9.15 2.67-.6 4.96-3 6.44a5.9 5.9 0 0 1-2.1.62c-5.23-.44-7.88 3-5.9 9.08a13.3 13.3 0 0 1-.1 9c-1.08 3.23.16 6.67-1.14 9.76z" class="cls-62"/>
    <path d="M65.06 67.1c.27-.42.5-.86.8-1.25 1.7-2.2 2.16-5.22.52-6.85-1.88-1.87-5.64.08-6.5 1.32-1.9 2.78-4 2.78-6.7 2.73-.7 0-1.4.7-2.1 1.08h-2c3.17-3.8 6.2-7.64 7.15-12.72a4.93 4.93 0 0 1 4.18-3.7c3.5-.6 6.5-2.3 9.7-3.5 7.5 1.6 10.1 6.5 6.5 12.4a18.56 18.56 0 0 0-1.6 4.6c-1.3 4.4-5.2 6.7-9.8 6z" class="cls-63"/>
    <path d="M47.06 106.1c2-.54 4.77 1.4 5.95-1.83a9.6 9.6 0 0 0 6.1.57l.5.62c1.3 7.1 2 14.22.2 21.35-4.4 1.1-13-3.1-15.5-7.8-.7-1.3-1.6-2.5-2.2-3.8a10.77 10.77 0 0 1 .6-2.3c.5-1 3.1-.8 1.6-2.7-1.1-1.4-2.6-1.5-4.4-.7-6.4 3-9 1.3-9.6-6.1 1.8 4.4 4.4 6.4 9.2 3.6 2.4-1.3 5.2-.4 7.9-.5z" class="cls-64"/>
    <path d="M65.06 67.1c4.2-1.56 9.2-2.32 8.48-8.7a3 3 0 0 1 .37-.9c.8-2.4 4.9-3.8 3.8-5.9-1.6-3-5-5-7.5-7.47 2.1-3.76 5.7-3.87 9.4-4.1s7.8-1.24 11.7-1.9c4-.1 8-.53 11 3 .6 3.3-1.7 4.84-4.1 5.82a11.13 11.13 0 0 0-5.4 4.7A83.38 83.38 0 0 0 85 59.4c-2.75 2.9-5.3 5.8-9 7.6-3.35 1.6-3.48 4.1-.24 5.9s3.4 4 2.14 7a12.73 12.73 0 0 0-.8 3.4c-.3 2.5-1.53 4.9-1.36 7.3.24 3.3 4.64 1 5.8 3.5-5.3 1.32-10.7.52-16.06.9-2.8 1-4.25.14-3.65-2.9 1-5.2 1.7-10-.7-15.35-1.15-2.55-1.4-7.2 2.2-9.8z" class="cls-65"/>
    <path d="M42.06 115.1c1 .07 2.42-.2 2.7.83 1.92 7.45 9 8.13 14.3 11.16 2.5-.5 3.86.7 4.48 3a1.9 1.9 0 0 1-1.44 1.6 3.5 3.5 0 0 1-1.5-.1c-11-4.8-12.06-4.7-15 7-1.93 7.5-5.88 14.3-7.06 22.1a3.27 3.27 0 0 1-1.5 2.4l-1.98-.1-2.1-2c-1.6-1.8-2.25-3.8-.9-6 5-6.9 6.42-14.5 5-22.8-.44-2.7-2.2-3.7-4.35-4a49.66 49.66 0 0 0-7.4-.2c-1 0-2.4.7-1.8 1.6 2.7 4-1.5 7.5-.4 11.3-2-5.6-.3-11.4-.9-17 1.9-3.2.5-6.7 1-10 7.2 6.2 10.4 6.4 19 .9z" class="cls-66"/>
    <path d="M9.98 118a6.74 6.74 0 0 0-.92-4.9c2.17 3.2 5.48 4.3 9 4.92a2.64 2.64 0 0 1-2.53 1.14 4.18 4.18 0 0 0 3.34-.86c2.14.2 3.6 1 3 3.5-3.72 1.23-7.4 1.75-10.9-.62.1-1.17.2-2.38-1-3.17z" class="cls-67"/>
    <path d="M10.1 108.03v-5.88c1.6 0 3.93-.54 4.32 1.36.6 3-2.8 3.1-4.3 4.6z" class="cls-68"/>
    <path d="M18.93 118.33c-.5 3.2-3.3 1.9-5.08 2.54a1.13 1.13 0 0 1-1.45-.95 1.33 1.33 0 0 1 1.33-1.66c1.46-.13 2.93-.15 4.4-.2a6.23 6.23 0 0 1 .8.27z" class="cls-69"/>
    <path d="M136.06 105.1c3.5 1.6 7.45.84 11 2.1.52.9 1.94 1.2 1.52 2.78-1.8 6.6-1.52 13.37-1.53 20.1-2.55 3.46-6.2 5.33-10 7-1.87-2.9-2.1-6.3-2-9.52.25-7.1-.63-14.1-1.58-21.1a2.9 2.9 0 0 1 .43-1.5 1.66 1.66 0 0 1 2.16.14z" class="cls-70"/>
    <path d="M134.06 105.2c2.92 6.68 2.6 13.8 2.42 20.77-.1 3.77 1.77 7.36.58 11.12-3.68 2.6-7.87 2-12 1.9 1.73-2.7 1.5-5.4 1.16-8.6-.95-8.9-2.46-18 1-26.9 2.7-1.3 4.96-.6 6.84 1.6z" class="cls-71"/>
    <path d="M148.06 171.04l-14.14-2.87c1.63-2.2 5.75-1.12 6.23-4.9.75-6-.63-11.5-3-16.86-.78-1.7-2.8-3-2.1-5.2a47.9 47.9 0 0 1 9-5.1c3.86-1.6 5.1-.8 5 3.8-.23 6.7-.4 13.5-1.06 20.1-.4 3.8 1.8 7.5 0 11.2z" class="cls-72"/>
    <path d="M135.06 141.1c5.26 5 6.64 11.62 6.95 18.44.4 7.9-.3 8.4-8 8.6-5-.33-10 .58-15-1 2-2.23 4.7-1.73 7.3-1.64 4.2.1 3.9-3.16 3.7-5.6-.3-4.65-.2-9.3-.4-13.93-.1-1.65-.3-3.33.7-4.84z" class="cls-73"/>
    <path d="M127.06 104.2v22c0 2-.25 4.07 1 5.75 3 4.13 1 6-3 7h-6a1 1 0 0 1 0-1.32c.33-.35.94-.83.8-1.16-3.2-8.48-.93-17.26-1.38-25.88-.13-2.6-.62-5.4 1.9-7.3 2.37-.5 4.68-1.4 6.68.9z" class="cls-74"/>
    <path d="M114.2 140a5 5 0 0 0 3.8 1 1.14 1.14 0 0 1 1.56.37c.9 6.36 2.5 12.63 2.2 19.13-.25 5.7-.64 6.07-6.45 6.1h-4.4a6 6 0 0 1-1.6-.18c-1.1-1.12-.7-2.4-.3-3.68 2-7.45 3.9-14.92 3.1-22.73a1.86 1.86 0 0 1 2.3 0z" class="cls-75"/>
    <path d="M119.06 141.1L118 141c4-2.12 8-.28 12 .16 1.63 7.46 1 15 1.1 22.56 0 3.06-1.6 3.65-4.14 3.3-2.6-5-2.9-10.44-2.55-15.86.4-4.67-.1-8.5-5.3-10.06z" class="cls-76"/>
    <path d="M114.2 140l-2.14.2c-1.64 1.7-3.74 1.48-5.8 1.4-.87-.1-1.75-.15-2.6-.33-3.73-1.2-7.56-.54-11.34-.72-2-.1-4 .3-5.78-.9a1.78 1.78 0 0 1-.62-1.6 4.18 4.18 0 0 1 2.32-1.35 32.8 32.8 0 0 1 8.16-.18c6.74.7 13.5-.67 20.24.22a3.62 3.62 0 0 1 2.37 1.4q0 .47.1.93c-1.6.33-3.5-.54-4.9.93z" class="cls-77"/>
    <path d="M163.06 182.1h-6c2-2 1.3-4.9 2.6-7.47 2.28 2.1 2.65 4.86 3.4 7.47z" class="cls-78"/>
    <path d="M109.06 166.1a3.36 3.36 0 0 0 .9.1c.37.1.5.24.44.44a.4.4 0 0 1-.27.33c-19.8 0-39.63.27-59.44 0a26.34 26.34 0 0 1-13.7-3.7 40.66 40.66 0 0 1 3.2-13.32c2.7-6.25 4.2-13.1 5.9-19.76.5-2 1.2-3 3.1-3 4.4-.3 8.5.7 11.7 4-.3 10.4-1 20.9 1.5 31.2.9 3.6 4 1.7 6.1 2.2 2.2-.4 4.4-.1 6.7 0 4.8-.3 9.7.5 14.5-.2 4.6-.2 9.2-.2 13.8 0 1.8.2 3.8 0 5.2 1.5z" class="cls-79"/>
    <path d="M110.13 166.96q-.07-.4-.17-.78c10.26-.3 10.37-.3 10.05-10.74-.1-4.78-2.7-9.4-1-14.33 7 0 7.4 0 6.9 6.9-.4 6.5 1.6 12.7 1 19.1l-8 .2z" class="cls-80"/>
    <path d="M94.06 174.1c4 .4 8.1 2.65 11.48-2.3 1.33-2 5-.4 7.6-.78 2.84 0 3 1 1.5 3.26-4.4 7-10.64 9.32-18.56 7.78-3.02-2.04-3.22-4.8-2.02-7.96z" class="cls-81"/>
    <path d="M94.06 174.1l2 8h-3c-1.93-3.67-4.56-4.47-8.52-2.9-2 .82-4 2.36-6.46 1.95a23.8 23.8 0 0 0 .6-3.37c.15-4.64 2.57-5.48 6.52-4.1a15.42 15.42 0 0 0 2.9.45z" class="cls-82"/>
    <path d="M78.06 181.1c2.55-3.87 7.16-3.56 10.8-4.64 3.4-1 4.32 2.5 4.2 5.6h-15v-.96z" class="cls-83"/>
    <path d="M59.97 172.17c2.2-1.65 4.87-1.86 6.65-.13s.78 4.2-.62 6.14a9.5 9.5 0 0 1-6.03-6z" class="cls-84"/>
    <path d="M32.06 155.1c.36 2 1.36 3.86.88 6a6 6 0 0 0-2.7 4.52c-.3 1.78-.7 3.43-2.88 3.24-2-.17-2.64-1.92-3-3.52-.55-2.38.16-5-1.32-7.2 1.25-1.54-1.1-1.8-1-2.9 1.52-.45 2.77.32 4.06.9a6.4 6.4 0 0 1 1.6 3.27c2.1-1.7 2.8-4 3.4-6.2z" class="cls-55"/>
    <path d="M20.06 177.16v.94c-1.65 2.25-4 .5-6 1.1-1.7-1.9-1-3 1.28-3a22.8 22.8 0 0 1 4.72.96z" class="cls-85"/>
    <path d="M31.06 153.1c-.32 2.08-.63 4.17-1 6.25-.25 1.56-1.07 3.17-2.6 3.14-2.28 0-1.22-2.2-1.42-3.5a17.65 17.65 0 0 1 0-3c2.9.3 4.44-.7 3.93-3.8z" class="cls-86"/>
    <path d="M7.06 130.1v-1c2.6-4.17 5.74-7 11.4-4-3.05 1.4-6.44 1.8-7.9 5.3-.6 1.48-2.3.18-3.5-.3z" class="cls-87"/>
    <path d="M17.9 129.24c.64 0 1.43 0 1.52.76.15 1.3-1.05 1.45-1.9 1.68a.93.93 0 0 1-1.23-1 1.42 1.42 0 0 1 1.6-1.44z" class="cls-88"/>
    <path d="M120.06 59.1c-.07 2.14.48 3.82 3 4 4.38 1.15 5.78 4.38 5.12 8.38-.84 5.1-1.25 10-.23 15.27.86 4.4-.8 9.1-7.63 7.77-5.7-3.83-7.9-14.86-3.7-20.12 2.8-3.5.83-7 1-10.56.33-1.82-.56-4.28 2.44-4.74z" class="cls-89"/>
    <path d="M120.06 59.1c-1.57 1.42-.8 3.3-1 5-3.05.46-3.85-2.2-5.07-3.94-5.9-8.28-11.1-10.5-20.7-8.45a2.22 2.22 0 0 1-1.3-.6c.2-2.3 1.4-4.2 3.7-4.7 3.1-.6 4.7-2.8 6.2-5.2 8.9 0 9.9.7 13 8.7.5 1.4.9 3 2.6 3.3 3.9.9 3.2 3.4 2.3 6z" class="cls-90"/>
    <path d="M119.92 93.95c5.82.1 8.17-2.7 6.4-8.26-1.17-3.7-1.62-7.1-.3-10.7 1.74-4.7.88-8.7-3-12 2.13-4.5 5.53-5.3 12-3-4.8-.1-4.5 3.5-3.76 6.2.93 3.4.45 6.5-.37 9.7-1.7 6.4 1 12.7.1 19.1-5.1-.2-10.2.4-15.2-1 1.2-1.5 2.6-1 4-.3z" class="cls-91"/>
    <path d="M119.92 93.95l-4 .27-19.86-.18c-.18-1.63 1.1-1.84 2.18-2.15a24 24 0 0 1 4.43-.4c2.05-.2 5 1 5.92-1.1s-1.8-3.7-2.9-5.5a19.2 19.2 0 0 1-2.6-4.8c-.9-3.4-.5-6 3.7-6.5 1.3-.4 3.5-.2 1.6-2.5-1.3-1.6-1.8-3.5-2.6-5.3-3.5-7.3-10.2-8.8-15.9-3.5-1.9 1.7-4 3-5.6 4.9-2.3 2.7-1.8 4.7 1.5 6 5.6 2.2 6.4 3.3 3.3 8.5-2.5 4.2-1.7 8-.5 12.1l-7 .1c-2.5-3.7-1.9-7.4.3-10.8 1.9-3 1.9-4.7-1.2-7-6.2-4.6-5.8-9.7.9-13.6a17.57 17.57 0 0 0 6.4-6.1c1.3-2.1 2.3-4.5 4.8-5.6 2.3-2 4.7-1.8 7.7-1.4 7.2.7 11.8 4.5 15.1 10.7.7 1.3 1.4 3 3.1 3.7.7 4.8 2.9 9.9-3.2 13-.9.4-1 1.8-.6 2.7 1.9 4.7 1.8 9.9 4.7 14.1z" class="cls-92"/>
    <path d="M89.06 94.05c-5.4-3.9-3-8.24-.7-12.55 1.96-3.57 3.2-6.35-3-6.67-4-.2-5.52-4.32-2.77-7.34a55.9 55.9 0 0 1 10.8-9.4c4.6-3 12.9 2.2 13.6 8a2.76 2.76 0 0 1-2.9.7c-2.6-1.1-4.8-3-7.8-3.1-3.3-.1-5.4 1-5.8 4.6s2 4.4 4.8 4.8c3.3.4 6.5-1.1 9.9-.5 1.2.3 2.7.4 2.6 2.3-4.4-.4-4.9 2.1-3.3 5.2 1.2 2.4 3.3 4.5 4.7 6.9.8 1.5 3 2.8 2.1 4.7-.9 2.1-3.2.9-4.9 1.1-3.6.5-7.3-1-10.7 1h-7z" class="cls-93"/>
    <path d="M93.06 51.1c-3.17 5.94-5.63 12.26-13.26 14.46-3.38 1-1.67 7.86 2.45 10.1 4.76 2.57 5.2 4.05 1.6 8.05-2.92 3.3-1.3 7-1.8 10.5l-.37.1h-.4c-2.54-.7-5.8 1.1-7.6-1.1s1.22-4.5 1.38-7a28.82 28.82 0 0 1 .9-5.3c.8-3 1.73-5.3-2.5-7.1a3.9 3.9 0 0 1 .32-7.4c7-2.4 9.78-9 14.94-13.2 1-.8 1.9-1.8 3.35-1.9h1z" class="cls-94"/>
    <path d="M63.06 67.1c-.3 4.3-2.24 8.3.87 12.94 2.07 3.1.56 8-.85 11.8-1 2.6-.3 3.33 2.14 3.34-2.9 1.45-6.07.75-9.1 1-2.23-4.4-.8-8.74.52-13 .6-1.9 1.3-3.33-1-4.48-1.26-.62-1.4-1.75-.37-2.84.9-.94.77-2.1.84-3.26.4-6.64.4-6.64 7-5.5z" class="cls-63"/>
    <path d="M127.06 104.2l-7-.1c-2 1.8-4.36 1.75-6.8 1.2a5.2 5.2 0 0 1-1.6-.7c-1.84-2.26-3.7-2.9-6.84-1.83-5 1.7-10.48 1.06-15.68.45-3.13-.36-5-2.53-3.12-6.06 2.73-.42 2.22 2.08 3.14 4.12 3-6.7 9-4.08 13.6-5s9.2 0 13.76.85c1.22.23 2.37.43 2.8 1.67 1.38 4 3 4 4.95.4.4-.74 1.15-.24 1.74 0 .7 1.8 1.2 2.74 3.7 1.86 4.5-1.6 5-.94 4.4 4v.23c-2.4-.2-4.5-1.6-7-1.1z" class="cls-95"/>
    <path d="M86.06 97.17c-.07 3.88 2 5.37 5.65 4.94 5-.5 10.1 1.1 15-1.7 2.4-1.3 4.8.6 5.5 3.5-4.8 1.2-9.6.6-14.5.7-2.8.1-5.6 0-8.4 0a61 61 0 0 0-11.9.9c-3.2.3-6.4.7-9.5-.3a3.47 3.47 0 0 1-1.3-1.1 4.77 4.77 0 0 1 .6-5.8 9.1 9.1 0 0 1 5.3-1c4.6 0 9.2 0 13.8.1z" class="cls-96"/>
    <path d="M67.06 98.1v5.83c-2.47 1.82-5 3-8.05 1.24v-.38c.3-6.7.3-6.7 8.1-6.7z" class="cls-97"/>
    <path d="M134.06 104.98c-.46-2.25-.06-5.23-4.08-2.6-3.4 2.2-4.58.26-4-3.23l5.08-1.05c4.4.42 4.65 3.75 5 7z" class="cls-98"/>
    <path d="M59.06 105.2l8.05-1.23v.3c-.1 1.7-1 3.14-.1 5.16 3 7.28 1.4 14.5-1.3 21.55-1.2.78-1.9.14-2.4-.92l-4-3c-.1-6.2-.1-12.4-.4-18.6a6.3 6.3 0 0 1 .4-3.25z" class="cls-99"/>
    <path d="M68.06 166.02c-1.5 0-3 0-4.48.07-2.08 0-3.63-.1-2.8-3a11.36 11.36 0 0 0-.7-7.4 19.13 19.13 0 0 1-1-10.8c.68-3.6 1.32-7.1-.38-10.7-1-2.2.4-3 2.34-3.3h1c3 1.5 7.94.2 8.43 5.6-3.45 6.2-2 12.8-1.28 19.3.4 3.4 1.4 6.9-1.2 10z" class="cls-100"/>
    <path d="M70.06 136.1c-1.85-3-6-2.27-8-5l1-1 2 .95c2.1-1.35 3.7 0 5.32 1a27.54 27.54 0 0 0 8.38 3.75c2.25 1.28 5.3.1 7.22 2.37v.9l-.57.64c-5.7 1.6-11.1 1.4-15.3-3.6z" class="cls-101"/>
    <path d="M113.06 104.26l7-.16c0 8.2.1 16.4-.06 24.6-.07 3.35.55 6.25 3.36 8.67-1.52 1.16-3 .5-4.35.78l-2-.08c-3.7-10.56-7-21.18-4.8-32.6a2.82 2.82 0 0 1 .9-1.2z" class="cls-102"/>
    <path d="M109.06 166.1l-5-.06c-1-2.26-1.13-4.8-2.4-7-.5-.86-.9-2.12-.38-2.85 2.65-3.7 2.23-6.1-2.13-8.1-1.5-.7-.34-2.7.78-3.8a27.4 27.4 0 0 1 6.07-4.2h6c1.83 2 2.72 4.4 1.87 6.9-2.12 6.2-1.16 13.2-4.8 19.1z" class="cls-103"/>
    <path d="M96.06 138.02h-8c-.9-.6-2.27-.34-2.83-1.56a2.55 2.55 0 0 1-.46-1.4c1.9-8.74-.07-17.8 2.33-26.54 1-3.7 2.88-5.4 6.7-4.93a11.9 11.9 0 0 0 3 0c4.4-.6 7.16.6 6.62 5.7a1.8 1.8 0 0 0 .38 1.4c7.13 6.3 3.16 15.4 5.8 22.8 1.06 3-.5 4.1-3.62 4-3.3-.1-6.64-.6-9.92.3z" class="cls-104"/>
    <path d="M96.06 138.02c3.1-1.8 6.48-.72 9.72-.87 2.56-.12 3.13-.88 2.37-3.33-1.3-4.2-3.06-8.3-.87-13 .88-1.88-.87-4-2.53-5.57-2.34-2.2-4.54-4.5-2.95-8.2a2.45 2.45 0 0 0-.44-2.25c-3.15-1.4-6.5-.74-9.77-.55-2.5.14-2.1 2.4-2.7 4.1a27.65 27.65 0 0 0-1 14.58c.8 4.7-2.9 9.17-1.8 14.13-4.6.6-5.7-.1-5.3-4.3.6-7.47.3-15 1.4-22.42.8-5.8 1-6.2 6.8-7.12 6.2-.65 12.5.7 18.6-1 1.8-.52 2.6 2 4.4 1.63a9 9 0 0 0 .9.38c-.7 9.86 1.7 19.35 3.5 28.9.3 1.6.3 3.27.5 4.9z" class="cls-105"/>
    <path d="M106.06 140.17c-.64.94-1.07 2.22-1.95 2.77-3.8 2.4-6.8 4.37.3 6.46 2.1.62 2.4 3 .3 4.22-3.3 1.95-2.7 4.16-.9 6.5a4.74 4.74 0 0 1 .4 5.9l-14-.1c-1.4-.83-3.4.38-4.7-1.23a3.73 3.73 0 0 1-.7-1.9c0-7.4 0-14.9.7-22.3a2.17 2.17 0 0 1 1.5-1c5.8.1 11.6-.5 17.3.4z" class="cls-106"/>
    <path d="M89 103.25c-4.13.8-4.57 3.53-5.17 7.36-1.18 7.6.2 15.2-1.6 22.6-.77 3.3 1 4.2 3.84 3.9l2 1-2 .2c-2.67-.2-5.47.5-8-1.1-3.15-1.6-4.33-4.2-3.9-7.7.8-6.7-.12-13.5 1.1-20.2.33-1.8.42-3.6 1.78-5 3.9-1.5 7.95-.8 11.95-.8z" class="cls-107"/>
    <path d="M104.06 140.03l-18 .07a.54.54 0 0 1-.23-.64.4.4 0 0 1 .23-.36c6 .5 12.1-1.14 18 .93z" class="cls-108"/>
    <path d="M86.06 139.1v1a6.4 6.4 0 0 1-4.6 1.57c-3.2-.7-4.52.8-4.74 3.86-.37 5.06-1.36 10.08-.82 15.2.18 1.75.6 3.62-.77 5.18l-7 .1a115.9 115.9 0 0 0-1.8-19.7c-.64-4 1.1-7.3 3.76-10.2a28.76 28.76 0 0 0 15.9 3.1z" class="cls-109"/>
    <path d="M75.14 165.93c-2.13-7.45-.34-14.9.08-22.35.2-3.67 3.1-3.68 5.86-3.44-1.1 6.94 2 13.7.88 20.65-.47 3 2.9 2.7 4.1 4.2 1.4.1 2.86-.3 4 .8h-15z" class="cls-108"/>
    <path d="M104.06 66.1h3c1.87 1.48 2.5 3.85 4.12 5.65 2.27 2.52-.94 3.15-3.12 3.35-.75-1.1-1.9-1-3-1-1.4-2.54-3.25-5-1-8z" class="cls-110"/>
    <path d="M104.06 66.1l1 8c-4.06-.38-7.94 1.9-12.2.3-2.18-.8-4-.9-3.82-3.87s-.5-6.8 3.4-7.9c4.35-1.26 8.7-1 11.62 3.47z" class="cls-111"/>
    <path d="M116.9 98.4c1.25.16 1.58 1.2 1.7 2.15.2 1.53-.95 1.56-2 1.22s-2.2-.53-2-1.78c.13-1.1 1.3-1.4 2.3-1.6z" class="cls-112"/>
    <path d="M77.06 104.1c-.47 8.92-.75 17.86-1.5 26.75-.25 2.8 1.5 4.25 2.5 6.25-5-.52-8.25-4.87-13-6 .64-5 1.33-10 1.9-15 .22-2.12.25-4.22-1.5-6-2.6-2.62-2.22-4.66 1.5-5.73z" class="cls-113"/>
    <path d="M86.06 165.1c-4.43.5-7.14-.22-5.45-5.84 1-3.48 0-7.22-1-10.7a9.35 9.35 0 0 1 1.5-8.46h5c1.5 8.34-.2 16.66 0 25z" class="cls-114"/>
</svg>