<svg xmlns="http://www.w3.org/2000/svg" id="Layer_1" data-name="Layer 1" viewBox="0 0 184.23 184.23">
    <defs>
        <style>.cls-1{fill:#30321e;}.cls-2{fill:#57694f;}.cls-3{fill:#222619;}.cls-4{fill:#799192;}.cls-5{fill:#403b2a;}.cls-6{fill:#769295;}.cls-7{fill:#819894;}.cls-8{fill:#859993;}.cls-9{fill:#272924;}.cls-10{fill:#8d9d9a;}.cls-11{fill:#6b7b67;}.cls-12{fill:#657963;}.cls-13{fill:#89988a;}.cls-14{fill:#688074;}.cls-15{fill:#627967;}.cls-16{fill:#698282;}.cls-17{fill:#312a25;}.cls-18{fill:#7c8f86;}.cls-19{fill:#3e4134;}.cls-20{fill:#633a34;}.cls-21{fill:#23271d;}.cls-22{fill:#a66658;}.cls-23{fill:#86928b;}.cls-24{fill:#808f7b;}.cls-25{fill:#604f40;}.cls-26{fill:#93896e;}.cls-27{fill:#49543b;}.cls-28{fill:#727061;}.cls-29{fill:#445343;}.cls-30{fill:#29231d;}.cls-31{fill:#4e5d53;}.cls-32{fill:#494339;}.cls-33{fill:#313323;}.cls-34{fill:#96a99a;}.cls-35{fill:#a79b7f;}.cls-36{fill:#4a5856;}.cls-37{fill:#453029;}.cls-38{fill:#929886;}.cls-39{fill:#546663;}.cls-40{fill:#4b5854;}.cls-41{fill:#92897b;}.cls-42{fill:#8a6453;}.cls-43{fill:#583e34;}.cls-44{fill:#495746;}.cls-45{fill:#95a090;}.cls-46{fill:#98826e;}.cls-47{fill:#ad946d;}.cls-48{fill:#483e33;}.cls-49{fill:#5e5042;}.cls-50{fill:#7a8e8a;}.cls-51{fill:#86998a;}.cls-52{fill:#c5aa8f;}.cls-53{fill:#3b403f;}.cls-54{fill:#5d5f55;}.cls-55{fill:#b4bbaf;}.cls-56{fill:#45443b;}.cls-57{fill:#3f4542;}.cls-58{fill:#667875;}.cls-59{fill:#7c8372;}.cls-60{fill:#3b3b26;}.cls-61{fill:#beae6e;}.cls-62{fill:#48482f;}.cls-63{fill:#c69d7b;}.cls-64{fill:#a4914d;}.cls-65{fill:#a66947;}.cls-66{fill:#585b3a;}.cls-67{fill:#2d2d20;}.cls-68{fill:#6b7c61;}.cls-69{fill:#353d2f;}.cls-70{fill:#2a2f24;}.cls-71{fill:#2c3023;}.cls-72{fill:#3a3f2e;}.cls-73{fill:#7f999b;}.cls-74{fill:#526661;}.cls-75{fill:#728783;}.cls-76{fill:#a1a595;}.cls-77{fill:#2f2b1f;}.cls-78{fill:#976351;}.cls-79{fill:#829c9a;}.cls-80{fill:#4f4d33;}.cls-81{fill:#77887f;}.cls-82{fill:#555641;}.cls-83{fill:#544830;}.cls-84{fill:#666e5b;}.cls-85{fill:#979d8c;}.cls-86{fill:#694c3f;}.cls-87{fill:#765341;}.cls-88{fill:#94a095;}.cls-89{fill:#8d9a8a;}.cls-90{fill:#323026;}.cls-91{fill:#41402e;}.cls-92{fill:#4c503a;}.cls-93{fill:#6a643d;}.cls-94{fill:#898d78;}.cls-95{fill:#a5a089;}.cls-96{fill:#86947b;}.cls-97{fill:#535a47;}.cls-98{fill:#899c8f;}.cls-99{fill:#1f2419;}.cls-100{fill:#758c86;}.cls-101{fill:#424031;}.cls-102{fill:#33382a;}.cls-103{fill:#576d5c;}.cls-104{fill:#94a496;}.cls-105{fill:#5f7367;}.cls-106{fill:#6d8579;}.cls-107{fill:#a1b0a7;}.cls-108{fill:#87a19e;}.cls-109{fill:#706951;}.cls-110{fill:#4a3c32;}.cls-111{fill:#6d7568;}.cls-112{fill:#a99f90;}.cls-113{fill:#82897c;}.cls-114{fill:#62442b;}.cls-115{fill:#a68355;}.cls-116{fill:#816845;}.cls-117{fill:#302f24;}.cls-118{fill:#29281e;}.cls-119{fill:#9a433b;}.cls-120{fill:#d6a287;}.cls-121{fill:#bc7262;}.cls-122{fill:#ca8573;}.cls-123{fill:#6c898b;}.cls-124{fill:#414031;}.cls-125{fill:#bfc6ba;}.cls-126{fill:#52605c;}.cls-127{fill:#65524a;}.cls-128{fill:#c9cdb4;}.cls-129{fill:#af9b84;}.cls-130{fill:#929083;}.cls-131{fill:#786157;}.cls-132{fill:#55423c;}.cls-133{fill:#bfc6b3;}.cls-134{fill:#8e8365;}.cls-135{fill:#a9b09a;}.cls-136{fill:#484435;}.cls-137{fill:#474437;}.cls-138{fill:#5d5a48;}.cls-139{fill:#bbcabc;}.cls-140{fill:#a9af9e;}.cls-141{fill:#7d674c;}.cls-142{fill:#a87c59;}.cls-143{fill:#42432e;}.cls-144{fill:#282718;}.cls-145{fill:#8e8661;}.cls-146{fill:#6b653c;}.cls-147{fill:#e5dbbf;}.cls-148{fill:#b3af8c;}.cls-149{fill:#ab6a4a;}.cls-150{fill:#8c5a40;}.cls-151{fill:#bcbfa8;}.cls-152{fill:#3a4134;}.cls-153{fill:#a19771;}.cls-154{fill:#ccd5c1;}.cls-155{fill:#404c43;}.cls-156{fill:#b1a880;}.cls-157{fill:#838c73;}.cls-158{fill:#758574;}.cls-159{fill:#6c806f;}.cls-160{fill:#c9b48d;}.cls-161{fill:#97a197;}.cls-162{fill:#8d8065;}.cls-163{fill:#aaa28a;}.cls-164{fill:#859994;}.cls-165{fill:#a6997b;}.cls-166{fill:#272b23;}.cls-167{fill:#694636;}.cls-168{fill:#3e3829;}.cls-169{fill:#424a42;}.cls-170{fill:#373b35;}.cls-171{fill:#985a44;}.cls-172{fill:#3e2e25;}.cls-173{fill:#b5765c;}.cls-174{fill:#794b3e;}.cls-175{fill:#4b4e40;}.cls-176{fill:#aebbae;}.cls-177{fill:#d1d4c1;}.cls-178{fill:#a2a693;}.cls-179{fill:#879183;}.cls-180{fill:#b19c73;}.cls-181{fill:#29281f;}.cls-182{fill:#a9b89e;}.cls-183{fill:#725d52;}.cls-184{fill:#a1aca0;}.cls-185{fill:#b6bfaf;}.cls-186{fill:#a5b2a3;}.cls-187{fill:#657867;}.cls-188{fill:#d8c29b;}.cls-189{fill:#465343;}.cls-190{fill:#62543b;}.cls-191{fill:#2b2f25;}.cls-192{fill:#394136;}.cls-193{fill:#404b3f;}.cls-194{fill:#ab8653;}.cls-195{fill:#c0c2ae;}.cls-196{fill:#b6a178;}.cls-197{fill:#56553e;}.cls-198{fill:#643930;}.cls-199{fill:#657b7a;}.cls-200{fill:#3e3d32;}.cls-201{fill:#92a79d;}.cls-202{fill:#7c4f49;}.cls-203{fill:#28271f;}.cls-204{fill:#a8b3a4;}.cls-205{fill:#dfc2a4;}.cls-206{fill:#a96f3a;}.cls-207{fill:#3b2e20;}.cls-208{fill:#c5865e;}.cls-209{fill:#935b2e;}.cls-210{fill:#797d6c;}.cls-211{fill:#9ea79a;}.cls-212{fill:#775f4a;}.cls-213{fill:#c4876c;}.cls-214{fill:#c0795f;}.cls-215{fill:#905744;}.cls-216{fill:#d5a38b;}.cls-217{fill:#2f312d;}.cls-218{fill:#7c989a;}.cls-219{fill:#50574f;}.cls-220{fill:#6e8a8d;}.cls-221{fill:#a2aa98;}.cls-222{fill:#899678;}.cls-223{fill:#513127;}.cls-224{fill:#d0bb8c;}.cls-225{fill:#78684c;}.cls-226{fill:#5d3c32;}.cls-227{fill:#8c7e5f;}.cls-228{fill:#23251d;}.cls-229{fill:#26271d;}.cls-230{fill:#33362c;}.cls-231{fill:#2f2e1e;}.cls-232{fill:#555437;}.cls-233{fill:#a3976c;}.cls-234{fill:#aba181;}.cls-235{fill:#727256;}.cls-236{fill:#676352;}.cls-237{fill:#858069;}.cls-238{fill:#c28e72;}.cls-239{fill:#b9b18e;}.cls-240{fill:#6f644f;}.cls-241{fill:#a89c7a;}.cls-242{fill:#7b7354;}.cls-243{fill:#505349;}.cls-244{fill:#5c6652;}.cls-245{fill:#918463;}.cls-246{fill:#b7c1af;}.cls-247{fill:#a2a992;}.cls-248{fill:#5a3d30;}.cls-249{fill:#c7cfbb;}.cls-250{fill:#b0bda8;}.cls-251{fill:#be894b;}.cls-252{fill:#c39a63;}.cls-253{fill:#cfa870;}.cls-254{fill:#b08855;}.cls-255{fill:#bf9c64;}.cls-256{fill:#333837;}.cls-257{fill:#3d3e30;}.cls-258{fill:#576257;}.cls-259{fill:#4e5f5d;}.cls-260{fill:#474d46;}.cls-261{fill:#7f8470;}.cls-262{fill:#343c37;}.cls-263{fill:#687670;}.cls-264{fill:#383c36;}.cls-265{fill:#3a3b2d;}.cls-266{fill:#353930;}.cls-267{fill:#21221c;}.cls-268{fill:#91a097;}.cls-269{fill:#45504b;}.cls-270{fill:#759090;}.cls-271{fill:#424e4f;}.cls-272{fill:#b2bcaf;}.cls-273{fill:#729090;}.cls-274{fill:#464031;}.cls-275{fill:#718e8e;}.cls-276{fill:#5c706b;}.cls-277{fill:#495147;}.cls-278{fill:#8c7f6d;}.cls-279{fill:#474436;}.cls-280{fill:#6f8071;}.cls-281{fill:#86978a;}.cls-282{fill:#4b4632;}.cls-283{fill:#778c7f;}.cls-284{fill:#3d3f2c;}.cls-285{fill:#3b453a;}.cls-286{fill:#8b9789;}.cls-287{fill:#96a89f;}.cls-288{fill:#5c4f32;}.cls-289{fill:#c7b58d;}.cls-290{fill:#505c53;}.cls-291{fill:#726544;}.cls-292{fill:#5e554c;}.cls-293{fill:#c8d3c9;}.cls-294{fill:#ccb295;}.cls-295{fill:#6f8d90;}.cls-296{fill:#c3d0c9;}.cls-297{fill:#bf8a4c;}.cls-298{fill:#4b402e;}.cls-299{fill:#bec6b2;}.cls-300{fill:#a2614f;}.cls-301{fill:#794a3a;}.cls-302{fill:#e1c9a9;}.cls-303{fill:#aa9472;}.cls-304{fill:#c89d80;}.cls-305{fill:#647261;}.cls-306{fill:#606753;}.cls-307{fill:#d9ad87;}.cls-308{fill:#3a4338;}.cls-309{fill:#798a7c;}.cls-310{fill:#697668;}.cls-311{fill:#3f4536;}.cls-312{fill:#748275;}.cls-313{fill:#c6c9b3;}.cls-314{fill:#8b9071;}.cls-315{fill:#604633;}.cls-316{fill:#a6a88f;}.cls-317{fill:#a96241;}.cls-318{fill:#7f3d2c;}.cls-319{fill:#9a9c86;}.cls-320{fill:#798e88;}.cls-321{fill:#2a2d26;}.cls-322{fill:#52615e;}.cls-323{fill:#94453a;}.cls-324{fill:#414e4c;}.cls-325{fill:#9daba1;}.cls-326{fill:#384136;}.cls-327{fill:#acbdb5;}.cls-328{fill:#4f3e32;}.cls-329{fill:#52574e;}.cls-330{fill:#3b3e34;}.cls-331{fill:#5e6b60;}.cls-332{fill:#769394;}.cls-333{fill:#7c928d;}.cls-334{fill:#78887c;}.cls-335{fill:#5f574b;}.cls-336{fill:#637268;}.cls-337{fill:#594a3b;}.cls-338{fill:#614433;}.cls-339{fill:#a86a52;}.cls-340{fill:#5a6b63;}.cls-341{fill:#566861;}.cls-342{fill:#63796f;}.cls-343{fill:#292d23;}.cls-344{fill:#5c6752;}.cls-345{fill:#4a5a52;}.cls-346{fill:#576d62;}.cls-347{fill:#637468;}.cls-348{fill:#475851;}.cls-349{fill:#3f3428;}.cls-350{fill:#8f5f48;}.cls-351{fill:#be877d;}.cls-352{fill:#5e3c30;}.cls-353{fill:#a08868;}.cls-354{fill:#e0d1b4;}.cls-355{fill:#be9c79;}.cls-356{fill:#7a8e83;}.cls-357{fill:#242921;}.cls-358{fill:#e2c7a7;}.cls-359{fill:#79908a;}.cls-360{fill:#88988d;}</style>
    </defs>
    <path d="M48.16 184.15h-45c-2-3.08-.07-5.26 1.72-7.44 1.46-1.7 3.63-2.8 4.78-4.9a6.05 6.05 0 0 1 5.55-2.6c4.7.2 6.6-2.1 6.9-6.5a3.62 3.62 0 0 1 1-2.2c1.4-.9 2.6-1.7 2.8-3.6 1.5-9.7 7.2-13.1 16.4-10.8a5.75 5.75 0 0 1 1.9 1.3 12.27 12.27 0 0 1 2.5 4.6c.1 2.5-1.4 4.8 1.5 7.1 2.4 1.9.8 4.5-1.5 6.1a5.9 5.9 0 0 1-5.1.9c-3-.5-4.8 1.7-7 3a2.53 2.53 0 0 0-.7 3.9c1.6 1.7 1.8 4.9 5 4.8a8.16 8.16 0 0 0 2.8-.8c1.3-.6 2.3-1.3 1.6-3a3.06 3.06 0 0 1 .5-3.6 18.07 18.07 0 0 1 6.6-4.4c4.2-1.6 5.5-.6 5.4 4.1-1.8 3-4.7 5.3-3.7 9.6.5 2.4-2.3 3.3-3.6 4.9z" class="cls-1"/>
    <path d="M24.16 161.15c0 1.65-.08 3.3-.08 4.95 0 4-2.22 5.8-5.9 5.6a11.64 11.64 0 0 0-7.1 1.36c-4.12 2.1-7.74 1.34-10.92-1.9v-15a23.94 23.94 0 0 0 0-18v-21c2.67-1.2 4 .23 5 2.46a10.25 10.25 0 0 1 .33 1.46c2.4 9.15 4 10.34 13.1 9.77 1.7-.1 2.4-1 2-2.65-.5-2-.5-3.68 1.9-4.36 3.9-.24 4.7 2.37 4.8 5.42.2 5.94-.9 11.8-1.2 17.72-.2 2.27-.5 4.6-.7 6.87a5.33 5.33 0 0 1-.4 1.56c-2.4 2.5-3.9.6-4-1.4-.3-5.2-2.6-7.4-7.8-7a5.4 5.4 0 0 1-3.3-1.3 10.44 10.44 0 0 1 7.1 7.2c1 3.4 5.5 3.2 7.7 5.6a2.3 2.3 0 0 1-.9 2.7z" class="cls-2"/>
    <path d="M48.16 184.15c.12-2.6 2.6-5.16-.2-7.9-1.1-1.05.2-2.43 1.22-3.37l4-3.74a11.07 11.07 0 0 0 3.82-3.8c3.13-5.25 8.18-6.12 13.68-5.93a16.42 16.42 0 0 0 8.1 3.3 8.84 8.84 0 0 1 6.13 2.7 4.75 4.75 0 0 0 5.5 1c1.8-.5 3.6-.6 5.3-1.2 2.2-.8 4.3-1 5.5 1.5s.2 4.4-2.1 5.8a10.1 10.1 0 0 0-1.2.8c-1.3 1.2-2.3 2.8-3.7 3.9-2.2 1.9-4.5 2.3-7.1.5-3.3-2.3-5.2-1.8-7.4 2a9.38 9.38 0 0 1-3.7 3.7 6.63 6.63 0 0 0-1.7.9h-26z" class="cls-3"/>
    <path d="M.16 11.15v-4c2.24-1.07 3.4.22 4.27 2 1 2.08 2.3 4.06 2.76 6.35a4.8 4.8 0 0 0 4.1 4.24c3 .7 3.4-1.78 4.8-3.2a3 3 0 0 1 1.5-.4A44 44 0 0 0 29 18.6a17.46 17.46 0 0 1 8.7 2.9c1.86 2.36-.2 4.65-.1 7-.7 3.7-2.67 5.2-6.66 6-7 1.32-13.84-1.5-20.4.3 3.1 3 3.26 4.13-.3 6.27-1.68 1-1.18 1.9-1.26 3.16-.17 2.6 1.1 5.3-.52 7.8-1.6 1.5-1.8 3.74-2.9 5.52-1.4 2.3-2.93 3.42-5.46 1.66v-41c1.62-2.3 1.33-4.6 0-7z" class="cls-4"/>
    <path d="M92.16.15h12c3.55 3.23 5.54 7.47 7.53 11.7-.5 2.65.3 5.35-.2 7.95-.7 3.75 1.2 4.66 4.4 4.86s6.7-1.07 9.6 1.3a20.23 20.23 0 0 0 9.9 5.7c2.5.6 4.7 1.82 2.9 5.1-2.4 1.67-5.9.16-7.9 2.73a20.38 20.38 0 0 0-9.1 5.6 3.63 3.63 0 0 1-1.5.1c-1.5-1.5-3.6-.8-5.3-1.5s-3-1.9-3-4.1c-.8 2.2 2.8 4.2.3 6.5-4.2 1.2-8.1-.7-9.6-5a14 14 0 0 0-2.1-4.5c.9-6.7 1.4-13.4-2.3-19.6.4-2.6-.1-5.3.6-7.9a10.73 10.73 0 0 0 0-1.3C97.8 6 96 5.3 94.8 4.1S91.2 2.6 92 0z" class="cls-5"/>
    <path d="M.16 59.15c4.43-.83 4.67-5.33 7-8C10.8 54 14.8 54.9 19.5 54.7c2.18-.08 4.14 2.6 3.64 5.63-.52 1.2-1.28 2.26-1.72 3.53-.62 1.8-.43 2.37 1.63 3 4.4 1.4 5.15 4.72 2.4 8.7-1.93 1.66-4.34 1-6.53 1.26a13.32 13.32 0 0 0-6.75 2.43c-4 1-8-.32-12-.13V59.15z" class="cls-6"/>
    <path d="M109.16 12.15c-2.62-3.6-5.2-7.23-5-12h18a11.93 11.93 0 0 0 2.54 1.35c1.9.35 3.73 1 5.63 1.44 3 .65 4.63 2.35 3 5.62a8.33 8.33 0 0 1-2.14 1.93 39.33 39.33 0 0 1-5.5 3.2c-2.3 1-2.8 2.6-1.4 4.8a12.6 12.6 0 0 1 1.5 1.5 8.16 8.16 0 0 1 .8 4.3c-.3 2.2-2 2.3-3.7 2.2-3.3-.2-6.3-1.5-9.4-2.4-1.6-.5-2.1-2-2-3.6.1-3.1-1.1-5.8-2.4-8.5z" class="cls-7"/>
    <path d="M20.16.15h22C44.63 1.97 47 3.95 49.94 5a3.6 3.6 0 0 1 2.6 3.2c0 2.88-1.58 4.92-3.5 6.8-1.8.87-3.6 1.78-5.46 2.5-2.25-.36-3.15 2.9-5.58 2.1a2.2 2.2 0 0 1-1-1c-2.45-5.73-4.54-7-11-6.86-.82 0-1.87.84-2.32.4-4.2-4-5.72-.08-7.73 2.5-3-.2-4-2.2-3.75-4.72.37-3.25 1.27-6.5 4.56-8.1 1.12-.55 2.47-.67 3.4-1.67z" class="cls-8"/>
    <path d="M184.16 158.15c0 7.83-.1 15.67.07 23.5 0 2.15-.4 2.7-2.57 2.56-3.48-.2-7 0-10.5 0-1.77-1.5-1.46-3.6-1.5-5.5-.14-6.9-.66-13.8.93-20.7a10 10 0 0 1 7.1-2.6c3.6-2.3 4.8.7 6.4 2.9z" class="cls-9"/>
    <path d="M20.16.15c-.92 2.66-3.24 4.36-4.55 6.83-1.4 2.8-1.4 4.9.6 7.2a2 2 0 0 1 0 3c-.1 1.8 1 3.04 2.8 5-3.2 0-5.7-.1-8.3 0-4.1.16-6.5-.66-6.2-5.82.2-3.3-1.6-6.66-4.2-9.2 0-7 0-7 7-7h13z" class="cls-10"/>
    <path d="M130.16 184.15h-3c-1-1.68 0-2.85 1.1-3.88 2.78-2.53 4.33-5.8 5.7-9.2a4.88 4.88 0 0 1 2.63-2.37c3.7.35 7-.53 9.1-4 2.4-.94 3.8 1.23 5.8 1.74 1.7 2 1.1 3.84-.6 5.53-.3.42-1 .7-.5 1.4 1.4.28 2.6-.94 4-.7 1.9-.26 3.7-1.1 5.7-1a7.13 7.13 0 0 1 2.9.47c2.1 4.55.8 8.42-3.5 10.3-1.5.65-3.3.57-4.6 1.73H136c-2-2.2-4-1.07-6-.02z" class="cls-11"/>
    <path d="M21.34 124.9c1.46 1.35 2.78 2.7 2.77 5 0 4.05-1.8 5.68-5.5 4.06-3.2-1.4-5.9-2.2-9.2.1-2.6 1.8-4.4-.3-4.8-4.38-.4-4.45-.2-9.27-4.3-12.5v-7c1.4-.9 2.5-.25 3.6.58a5.92 5.92 0 0 0 6.5.57c2.4.25 4.2-.38 5.2-2.67.8-1.64 1.6-3.32 3.9-3.07 3.4 3.2 3.4 5.5 0 8.9a11.4 11.4 0 0 1-3.2 2.1c-1.1.5-2 1.2-1.7 2.6.3 1.2 1.4 1.2 2.4 1.2a10.5 10.5 0 0 1 3.2 1.1 2.74 2.74 0 0 1 1.4 3.2z" class="cls-12"/>
    <path d="M.16 94.15v-13c4.35-2.76 7.16-2.84 10.3.16s6.38 6.2 11.56 5.3a5.05 5.05 0 0 1 4.4 2 2.3 2.3 0 0 1 .13 2.2c-.5.9-1.27 1.5-1.82 2.3-1.8 2.3-1.8 5.9-5.2 6.9-3.26.2-6.57-.4-9.77.6a15.75 15.75 0 0 1-9.6-6.3z" class="cls-13"/>
    <path d="M26 89.15c-7.6.8-14.27-.36-19.08-7.35-1.15-1.68-4.45-.56-6.76-.7v-2c3.23-3 7.28-1.38 10.93-1.95 4.9-1.2 10.1-.33 15-1.93a2 2 0 0 1 1.8.7c1.8 2.77.2 5.4-.4 8.04-.9 1.73 1 3.64-.3 5.35a1 1 0 0 1-1.2-.1z" class="cls-14"/>
    <path d="M.16 94.15a23.1 23.1 0 0 1 9 4c4.53 2.24 9.8.77 14.37 2.87a3.5 3.5 0 0 1 1.07 4.55c-1.62 2-3.55 1.37-5.48.6-1 4.4-3.77 7-8.08 8-1.7-5.73-8-7.3-10.9-12v-8z" class="cls-15"/>
    <path d="M132.16 8.15c.34-1.8-.26-2.82-2.23-3a14.3 14.3 0 0 1-6.73-3 4.82 4.82 0 0 1 5.5-.5c3.93 1.9 7.23.87 10.46-1.45h3c5.15 2.74 10.64 1.9 16.08 1.5a4.7 4.7 0 0 0 3.92-1.55h7c.65 5.9-1.07 8.7-6.7 11a55.18 55.18 0 0 0-8.5-.56c-1.33-.2-2.64-.4-3.95-.7-4.2-.8-8.5-1.9-12.9-.5-1.6.5-3.6.5-4.9-1.4z" class="cls-16"/>
    <path d="M184.16 78.15v5c-1.55 2.72-3.58 4.57-7 3.92-1.05-.45-1.3-1.56-1.9-2.36-1.22-1.3-2.9-2-4.32-3a6.13 6.13 0 0 1-1.34-3.6 3.5 3.5 0 0 1 .22-2.4 18.6 18.6 0 0 0 1.82-6.6c.56-5.3 1.62-5.8 6.55-3.4 2 1.5 4.3 2.6 6 4.6v7q-1.1.5-.1 1z" class="cls-17"/>
    <path d="M51.16 8.15c-4.27-1.23-8.17-2.88-9-8h21a4 4 0 0 1 1.48 3.6 9.93 9.93 0 0 1-.2 2.42 18 18 0 0 1-3.78 5.12 5.08 5.08 0 0 1-1.52.5c-1.6 0-3.22.7-4.78-.2-1.6-.7-2.08-2.4-3.2-3.5z" class="cls-18"/>
    <path d="M162.94 173.27l-2.8-.18c-.9-1-.3-2.5-.8-3.6a4.52 4.52 0 0 1-.6-3.2c.2-2.3 2-3.1 4.3-3.9-3.7-.6-7.12 2.4-9.77-1.2-1.33-4.6 2.4-4.5 5-5.5.82-.1 1.65-.1 2.48-.1 3.6.3 7.35 0 10.45 2.5 2.3 1.8 3.9 3.3.74 6.4-1.87 1.8-.67 5.4-.74 8.2-.1 3.8 0 7.6 0 11.4h-1c-2-2.7-.47-5.7-1-8.2-.53 2.4 1 5.5-1 8.1h-1c-2.63-2-2.55-5.1-3.23-7.9-.3-1.1.26-2.4-1.03-3.1z" class="cls-19"/>
    <path d="M184.16 35.15v21c-1.44 1.6-3.3 1.6-5.2 1.36-3.88-2.1-1.9-4.9-.8-8-1.85-.9-4.45-.5-5.6-3.1-.93-2.1-.56-4.2-.77-6.3 1.1-3.9 4.7-5.2 7.6-7 1.9-1.2 3.7.1 4.7 2.1z" class="cls-20"/>
    <path d="M74.16 184.15l1-1c3.08-2 6.3-3.7 10.1-3.64 3.85-.6 7.63-2.2 11.64-1 2.4.1 4.4-1 6.4-2.1 4-2.2 6.3-1.2 8.22 3.3.16 3.1-2.66 3.3-4.38 4.5H74.16z" class="cls-21"/>
    <path d="M92.16.15l4.1 2.87c2.15 1.28 2.86 3.8 4.7 5.35l.4.77c-2.08 1.67-2.66 4.3-4.06 6.4a2.7 2.7 0 0 1-3.22-1.4 3 3 0 0 1-.38-1.43c.6-7.1-3.2-9.9-10.1-7.3-.47.2-.94.4-1.42.5a10.07 10.07 0 0 0-2.5 1 9.36 9.36 0 0 1-2.5 1c-3.1 1-6.3 0-9.58 1-2.74.9-3.93-1.6-2.48-4.5a11.67 11.67 0 0 1 6-4.2h21z" class="cls-22"/>
    <path d="M184.16 35.15a8.28 8.28 0 0 0-10.37 6.34 11.16 11.16 0 0 0-1 1.4c-2.4 4.2-.6 8.8-1.2 13.3-.3 2 .5 4.3-2.9 3.8-2.3-3.6-.4-7.7-1.2-11.5a11.05 11.05 0 0 0-1.5-5.2 3.3 3.3 0 0 1 1.1-3.2 6.87 6.87 0 0 0 2-7.3c-.6-1.9.2-3.2 1.3-4.5 3-1 5.6-3.2 9-2.9 1.6 0 3 .3 3.2 2.3A1.8 1.8 0 0 0 184 29v6z" class="cls-23"/>
    <path d="M.16 102.15c2.3.9 4.6 1.76 6.88 2.7 4.32 1.78 6.26 4.63 4 9.27-4.92 2.23-8.26.1-10.9-4v-8z" class="cls-24"/>
    <path d="M184.16 158.15c-1.88.3-3-2.74-5.16-1.2-3.6-1.64-4.77-4.46-4.4-8.3.16-1.73.6-3.57-.22-5.3a6.64 6.64 0 0 1-1.8-3.78 30.47 30.47 0 0 1 .25-3.93c4-4.6 7.06-3.6 10.07 3.27.18 2.4-1.38 4.7-.27 7a3.94 3.94 0 0 0 .68 2.4l.9.9v9z" class="cls-25"/>
    <path d="M184.16 98.15v2c-1.38 4.24-6.45 5.45-7.9 9.62a2.8 2.8 0 0 1-1.82 1c-1.67-.14-3.1-1.22-4.8-1.24-2.1-.23-2.62-2.2-3.77-3.47a3.48 3.48 0 0 1-1-2.84 8.1 8.1 0 0 1 2.36-3.87 21.35 21.35 0 0 1 2.43-1.73 4.68 4.68 0 0 1 3.45-1c1.5.1 3.1.44 4.4-.3 3-1.68 5-.42 6.7 1.83z" class="cls-26"/>
    <path d="M.16 171.15c3.8-.18 7.3 1.2 10.92 1.93-2.66 3.68-6.43 6.56-7.92 11.07-1.65 0-3.52.66-3.1-2.5.45-3.5.1-7 .1-10.5z" class="cls-27"/>
    <path d="M184.16 29.15c-1.65 2.9-5.5 2.67-7.07 5.68l-1.1-1.08c1.3-1.3 2.7-2.6 4.1-3.93 1-.92 2.3-1.88-.1-2.75a9.16 9.16 0 0 1-.8-1.13c-.3-2.07-1.7-3-3.6-3.47s-3.5-.88-4-3c-.5-1.63-.2-2.92 1.5-3.6s3.6 1.55 5.2-.32a5.8 5.8 0 0 1 .7-1c.9-1 1.2-2.45 2.6-2.95a2.32 2.32 0 0 1 1.3.15c1.4 2.3-.6 5.06 1 7.34v10z" class="cls-28"/>
    <path d="M162.94 173.27c4.93 2.26 4.08 6.76 4.22 10.88h-12l1.42-5.1c.93.33.47 2.43 1.76 1.83 3.14-1.46 4.1-4.45 4.6-7.6z" class="cls-29"/>
    <path d="M175.16 109.15c-.87-2.34-.58-4 2.08-5.13a64.6 64.6 0 0 0 6.92-3.87v8c-1.1 1.36-1.37 3.16-2.42 4.55s-2.3 2.76-4.38 1.57c-1.75-1.25-.86-3.68-2.2-5.12z" class="cls-30"/>
    <path d="M135.24 172.15c-.95 5.17-4.64 8.47-8.08 12h-7c-1.67-1.86-.15-3.43.45-5.1 1.6-2.44 4.8-1.48 6.6-3.23 2.7-1.22 5-3.26 8.1-3.67z" class="cls-31"/>
    <path d="M178 113.23c3.1-.4 3.16-4.53 6.16-5.08v7c-.6.64-.8 1.55-1.42 2.2-3.1 3.1-3.2 8-6.38 11a1.78 1.78 0 0 1-2.1-.72c-1.1-3.25-.65-6.6-.45-9.87.2-2.34 1.3-4.46 4.2-4.53z" class="cls-32"/>
    <path d="M.16 138.15a3.06 3.06 0 0 1 1.4.3c2.92 2.83 1.92 15-1.4 17.7v-18z" class="cls-33"/>
    <path d="M122.35 180.3c-.56 1.38-2.2 2.14-2.2 3.85h-13l3.1-3.8c1-1.87.46-5 3.9-4.9 2.32 2.3 6.43 1.6 8.2 4.85z" class="cls-34"/>
    <path d="M184.16 98.15c-2.74-.5-5.4-.72-7.93 1-1.23.82-2.47.78-3.12-.9-.4-1.26-1.4-2.44-.6-3.9a2.5 2.5 0 0 1 1.1-.92 7.65 7.65 0 0 0 5.4-1.68c1.9-1.32 3.6-1.32 5.2.44v6z" class="cls-35"/>
    <path d="M159.34 3.32c-5.18 1.83-10.18.25-15.18-.6a2.6 2.6 0 0 1-2-2.57h13c.84 1.8 3.66 1 4.18 3.17z" class="cls-36"/>
    <path d="M176.97 86.15l7.2-3v6c-2.88 1.47-5.22 5.56-9.14 1.83-.23-1.97-1.05-4.16 1.94-4.83z" class="cls-37"/>
    <path d="M182.28 140.05a21 21 0 0 0-3-4.28c-2-1.87-3.53-1.93-4.93.53-3.1-2.1-2.7-4.38-.33-6.74 1.56-.76 3.14-.27 4.7 0 4.8-.25 3.74 4.32 5.45 6.6v5c-1.15.5-1.63-.12-1.9-1.1z" class="cls-38"/>
    <path d="M139.16.15c-1.16 4.35-4.14 5-8 3.9-2.64-.76-5.1-2.2-8-1.95l-1-2h6c3.33.4 6.67 1.9 10 0h1z" class="cls-39"/>
    <path d="M161.1 8.3c6.27.82 5.8-5 8.06-8.15h3c1.35 1.73.47 3.6.36 5.43a10.1 10.1 0 0 1-4.33 6c-3.1.3-6.2.8-7.1-3.3z" class="cls-40"/>
    <path d="M178.1 131.46c-1.15.07-1.63-.72-2.06-1.6-.17-1.47 1.35-2.43 1.2-3.9 1.2-3.6 1.3-7.72 5.1-10l1.82-.8v3c-1.5 3.48-1.42 7.47-3.5 10.76-.4 1.3-1.88 1.52-2.56 2.54z" class="cls-41"/>
    <path d="M179.25 128.3c1.18-3.6 2.4-7.2 4.9-10.15v9c-.82 1.2-.6 3.23-2.82 3.3-1.6.05-1.56-1.3-2.08-2.15z" class="cls-42"/>
    <path d="M176.34 91.15l7.82-2v3a8.32 8.32 0 0 0-5.88 1.77c-1.6 1.07-3.22 1.5-4.82 0-1-3.02.24-3.63 2.88-2.77z" class="cls-43"/>
    <path d="M168.16 184.15V169.9h2v14.25h-2z" class="cls-44"/>
    <path d="M178.08 55.64l6.08.5v6c-1.18.82-2.15.2-3.12-.43-1.83-2.1-4.62 1-6.46-1.1a3.83 3.83 0 0 1-.1-4.4 2.66 2.66 0 0 1 3.6-.5z" class="cls-45"/>
    <path d="M184.16 70.15c-2.3-.35-4.53-.9-6.17-2.73-1.8-2-2.6-4 .4-5.73 2.2.1 3.7 1.9 5.7 2.4v6z" class="cls-46"/>
    <path d="M71.16.15c-1.92 1.38-2.16 4.35-4.8 5a6.28 6.28 0 0 1-3.1-.87l-.1-4.13h8z" class="cls-47"/>
    <path d="M182.28 140.05l1.88 1.1v8h-.64c-1.76-.16-1.7-1.72-2.2-2.85-1.83-2.43-1.33-4.48.96-6.25z" class="cls-48"/>
    <path d="M179.25 128.3c2.27 2.3 3.5.2 4.9-1.15v9c-3.07-.2-2-5.7-6.05-4.7z" class="cls-49"/>
    <path d="M171.04 5.3l1.12-5.15h3c1.3.9 3.1 1.5 2.37 3.7-1.83 1.97-3.83 3.2-6.5 1.45z" class="cls-50"/>
    <path d="M130.16 184.15a25.64 25.64 0 0 1 6.07-5c1.43 1.93-.07 3.42-.07 5h-6z" class="cls-51"/>
    <path d="M184.16 64.15c-2.9 2.56-4.52 1.8-5-1.9.24-1.57 1-2.5 2.72-2.14l2.3 2v2z" class="cls-52"/>
    <path d="M159.34 3.32c-2-.3-4-.5-4.18-3.17h7a2.93 2.93 0 0 1-2.82 3.17z" class="cls-53"/>
    <path d="M177.04 3.04l-1.88-2.9c3 .66 6.22-1.27 9 1-1 .88-.94 2.48-2.2 3.17a3.8 3.8 0 0 1-3.12.3 2.66 2.66 0 0 1-1.8-1.5z" class="cls-54"/>
    <path d="M184.16 19.15c-2.4-2-.44-4.7-1.16-7-1.64-3.58-2.8-7.1 1.16-10v17z" class="cls-55"/>
    <path d="M184.16 78.15a12.3 12.3 0 0 1-2.17 1.2c-1.6.5-2.9-.2-2.9-1.73 0-1.7 1.6-1.28 2.6-1.16a13.92 13.92 0 0 1 2.4.7v1z" class="cls-56"/>
    <path d="M138.16.15c-3.33 3.73-6.67.84-10 0h10z" class="cls-57"/>
    <path d="M.16 11.15c2.34 2.33 3.1 4.67 0 7v-7z" class="cls-58"/>
    <path d="M184.16 2.15c-2.33 3.12-.46 6.73-1.16 10l-.67-.1a2.46 2.46 0 0 1-1.5-1.92c-.15-.85-.2-1.72-.28-2.58-.64-1.95.42-3.34 1.54-4.7a3.2 3.2 0 0 1 2-1.7v1z" class="cls-59"/>
    <path d="M70.16 161.15c-4.47 1-8.7 2.4-12.1 5.88-1.13 1.18-3.23 1.43-4.9 2.1.3-.58.9-1.26.78-1.7-.38-1.3-1.28-.43-1.9-.14-2.6 1.2-5.2 2.5-7.78 3.8-1.74.2-2.67-.8-3.37-2.2a3.7 3.7 0 0 1 0-4.7A18.73 18.73 0 0 0 45 163c1.53-.9 4.16-1.65.1-3.58-3.54-1.68.24-4.82.08-7.32 1.66-1.15.07-4.24 2.83-4.73 1.8 0 3 1.35 4.6 1.93 2.1 1.72-.1 4.74 2 6.46a5.76 5.76 0 0 0 2.2 2.36c3.5 1 5.3-2.1 7.9-3.14 3.2-1.27 5.9-4.06 9.8-2.94 1.7 1.46 3.6 2.66 4 5.1-.6 5.68-5.2 3.34-8.3 4z" class="cls-60"/>
    <path d="M40.87 164.3l1.46 3.85c0 1.53-.74 3 .33 4.6 1.26 1.8.82 3.7-.38 5.43-7.06 3.64-6.74 3.48-10.2-3.54-2.25-4.53-1.23-6.83 3.22-8.37 1.86-.64 3.45-2.04 5.57-1.96z" class="cls-61"/>
    <path d="M24.16 161.15l-.22-3.13a1.4 1.4 0 0 1 0-1.88l.36-1.16c1.1-1.64 1.14-3.57 1.4-5.4.62-4.15 2.5-7.35 6.4-9.2 2.5.27 5-.22 7.5-.25a3.34 3.34 0 0 1 1.94 2.22c.16 1.6 2 3.1.3 4.8l-2.44.25c-9.4.83-10.45 1.73-12.15 10.9-.3 1.85-.2 3.9-3.1 2.85z" class="cls-62"/>
    <path d="M41.9 147.15c-.4-1.5-2.13-2.37-1.86-4.15 3.57-3.43 7.25-6.56 12.78-5 2.73 2.1 5.83 3.94 5.7 8.06a5.1 5.1 0 0 1-1.28 2.68 5.93 5.93 0 0 1-5.23 1.34 3.5 3.5 0 0 1-4-1.76c-1.6-1-3.3 1.5-4.9-.17z" class="cls-63"/>
    <path d="M42.3 178.15l-3.14-.9c.23-1.5 3.18-1.08 2.27-3.27-.4-1-1.24-1.83-2.3-1.5-2.6.84-3-.57-2.6-2.47s1.75-3 3.94-1.8a4.3 4.3 0 0 0 1.9 0l1.93 3c0 2.5 3.06 5.9-2 7z" class="cls-64"/>
    <path d="M43.05 148.15c2.52-.86-.66-2.5.55-3.62 2.58-.08 3.36 2 4.38 3.8-.9 1.83.56 3 1.17 4.48.47 1.2 1.76 2.7.15 3.4s-2-1.2-2.7-2.1c-.47-.6-.94-1.3-1.4-2z" class="cls-65"/>
    <path d="M25.54 170.6c1.07 2.82.1 5.46 2.18 7.77 1.33 1.48-.27 1.9-1.24 2.37-1.63.8-2.27-.26-2.15-1.53.26-2.8.83-5.7 1.2-8.6z" class="cls-66"/>
    <path d="M33.08 142.15c-3.23 1.78-4.54 4.9-5.8 8.1-.68 1.77-.77 3.92-2.93 4.77a155.58 155.58 0 0 1 .64-24.4c.2-2.66.3-5.57-3.7-5.7l-2-1.84a3.42 3.42 0 0 1-1.3-3.64c1.6-2.2 4.4-2.7 6.3-4.43a6 6 0 0 1 1.4-.2c3-.2 4.9 2 7.4 3.1a4 4 0 0 1 1.1 1.1c1.8 3.8 4 7.4 5.4 11.4-.6 5 .2 10.6-6.8 12z" class="cls-67"/>
    <path d="M24 156.15v1.88c-5.2.6-9.22-.47-10.15-6.62a2.93 2.93 0 0 0-4.07-2.4c-1.66.5-3 .5-3.48-1.5-.52-2.3-2.1-4.9-.25-7.1 1.56-1.8 4.56-1.3 5 .6 1 4.6 3.5 4.2 6.92 3.6 3.1-.5 5 1 5.2 4.5.1 2.5-.36 5 .82 7.3z" class="cls-68"/>
    <path d="M114.16 176.15c-2 .75-1.83 3.5-3.9 4.16-1.33-2.8-3.4-3-6.05-1.9a22.5 22.5 0 0 1-8 1.8c-2.5 1-3.1-.8-2.1-2.3 1.2-1.8.8-4.1 2.2-5.7a29.13 29.13 0 0 0 2.3-2c.8-.8 1.8-1.8.9-3s-2.2-.3-3 .5c-2 1.8-4.1.6-6.1.6-3.2-3.3-3-4.3 1.2-7.8 1.4-.6 1.6-1.6.7-2.8 0-2.7-2.5-4.2-3.3-6.5a2.53 2.53 0 0 1 1.7-2.2c1.7-.6 3-2 4.8-2.5 6.56 1.7 9.65 6.6 8.4 13.3-.84 4.64 1.9 7.9 6.28 7.46a8.24 8.24 0 0 1 5.8.68c.9.5 1.8 1 2.67 1.6 1.17 1 1 2.4.9 3.7-.9 2.36-2.33 3.7-4.9 3.36z" class="cls-69"/>
    <path d="M93.58 162.08c-2.78 1.1-5.05 2.5-3.45 6.1-3.12 1.26-6 1.6-8.33-1.6a3.38 3.38 0 0 0-2.52-1.26c-3.86.3-6.45-2-9.1-4.16 1.8-2.26 5.05-1.92 7-3.92 2.12-4.54 6.37-5.72 10.7-6.77a2.14 2.14 0 0 1 1.3.68c2.32.17 4.78.13 6 2.64.92 1.8-1.2 2.4-1.84 3.6 1.4 1.5 1.68 3 .24 4.6z" class="cls-70"/>
    <path d="M96.16 172.15c-.4 2.87 3.3 1.7 3.66 3.34-.14 2.7-5.68.4-3.7 4.6-3.3.9-6.83-.7-10.08.9-1.32-1.6-2.95-1.6-4.72-1-1.33.4-2.53.5-3.25-1 2.54-5.4 5.63-6.5 9.93-3.3 2 1.5 3.57 1.2 5.16-.4l3-3.3z" class="cls-71"/>
    <path d="M78.1 179.04c2.65.72 6.52-3.37 8 2-3.83-.36-7 2.56-10.9 2.07.8-1.4 1.06-3.3 2.9-4z" class="cls-72"/>
    <path d="M22.16 60.07c-1.92-3-4.16-4.26-7.9-2.62-5.57 2.44-5.65 2.2-6.24-4a9.76 9.76 0 0 0-.86-2.3c-1.18-3.43 1-8-4.24-10.17-1.5-.6.65-2 1.84-2.23 1.9-.43 3.9 1 6.17-.33-1.25-2.8-3.74-2.67-6.1-2.8-1.06-.07-2.16-.4-2.1-1.64.1-1.5 1.33-1.23 2.26-.9 2.6.9 5-.42 7.2-1 6.2-1.7 12.3 1.42 18.5-.27 2.1-.5 4.1-.6 5.3-2.6a1.6 1.6 0 0 1 2 .6c1.2 3.8 5.2 5.7 6.2 9.7-.8 2.4-2.7 4.2-3.5 6.7a16.42 16.42 0 0 1-1.9 1.1 3.5 3.5 0 0 1-1.7 1c-7.3 1.5-7.3 1.5-7.7 9-1.6 2.1-3.1 4.5-6.3 4.2a2.4 2.4 0 0 1-1.2-1.1z" class="cls-73"/>
    <path d="M36.9 22.03c-5.26-.62-10.53-1.28-15.8-1.82-2-.2-3.5-.9-4-3a6.7 6.7 0 0 1-.3-4.3c.25-1.6 1.57-3.2 3-2.4 3.6 2.2 7.58.8 11.23 1.8 3.88 1.1 7 3 6.95 7.7a2.1 2.1 0 0 1-1.07 2.1z" class="cls-74"/>
    <path d="M37.3 20.15c-1.22-5.2-5.72-5.88-9.83-6.93-1.55-.4-3.5.34-4.85-.32-5.15-2.56-5.5.56-5.52 4.3l-.94-.05v-3c.55-6.93.58-6.85 7.23-4.2 1.8.76 4.2.48 6.3.65 7.3.57 8 1.26 8.6 8.5.1.83-.2 1.16-1.1 1.05z" class="cls-75"/>
    <path d="M37.3 20.15l1-1c.52-1.2 1-2.4 1.54-3.6.42-1 .44-2.67 1.86-2.5 1.7.18 1.3 2 1.53 3.18a3.1 3.1 0 0 1 1.46 1.72c1 2.57 2.7 5 1.7 8-1.3 2.36-4 2.5-6 3.78-1.1.46-2.1 1.27-3.3.47l-1-1a20.35 20.35 0 0 1 .7-7.1z" class="cls-76"/>
    <path d="M101.43 36.15c1.63.46 2.3 1.7 2.83 3.2 1.3 3.63 3.8 5.78 7.82 5.85a3.14 3.14 0 0 1 3.23 1.72c.1 2.9 1.6 5.6 1 8.7-1 5.43-2.1 6.05-6.9 3a7.52 7.52 0 0 0-1.3-.62 4 4 0 0 1-1.5-1.6c-1.2-3.26-2.8-3.1-4.5-.32-.4.8-.5 1.84-1.2 2.54-5 1.2-5.7.85-8.1-4.36.6-4.13 2.3-7.9 3.5-11.84 1.5-2.27 1.7-5.76 5.4-6.27z" class="cls-77"/>
    <path d="M101.43 36.15c-1.17 2.28-1.3 5-3.27 7-1.16.68-2.23 1.6-3.7 1.55a5.3 5.3 0 0 1-1.53-.54c-2.56-3-3.38-6-.12-9 1-1.53 3-1.85 3.8-3.55.1-1.7-.9-2.3-2.4-2.3-1.3 0-2.6-.2-3.5-1.4a3.14 3.14 0 0 1-.4-1.3c2-3.8 2.4-8.8 7.6-10.4a1.1 1.1 0 0 1 1.3.2c6.7 5.9 4.6 12.9 2.5 19.9z" class="cls-78"/>
    <path d="M119.76 44.33l1.36-.1a9.62 9.62 0 0 1 8.24-2.08c6.78 3.37 7.1 4.4 2.58 10.06-2.37 3-5.24 5.5-7.6 8.6-1.9.5-3.5-.2-3.9-2-.94-4-4.08-7.1-4.4-11.2.12-2.3 1.2-3.6 3.72-3.1z" class="cls-79"/>
    <path d="M130.16 44.34l-9-.1c1.37-3.8 4.33-5.8 8-7 3.65-.44 7.42-1.5 10.28 2-.5 4.74-1.43 5.58-5.87 5-1.2-.1-2.3.24-3.4.1z" class="cls-80"/>
    <path d="M109.16 12.15c2.9 2.1 3.38 5.52 4.57 8.53 1.67 4.2 8 6.1 11.48 3.42 2 .25 1.8 1.53 1.3 2.9a.9.9 0 0 1-1.3.15c-3.6-.3-7.2-1-10.8-.8-4.6.23-5.6-2.4-5-5.85.6-2.88 0-5.58-.1-8.35z" class="cls-81"/>
    <path d="M125.16 27.15a2.27 2.27 0 0 1 .9-.22c2.36-2.7 5.05-3.1 8.07-1.1 1.33 1.75 3.3 2.58 5.18 3.58s3.4 2.2 2.8 4.6c-1.6 4.5-2.3 4.9-4.9 2.2.2-3.8-3.3-3.1-5.2-3.8-3-.9-5.5-2-6.7-5.2z" class="cls-82"/>
    <path d="M114.06 47.3l-2-2.07c-.45-1.85-4.15-1.85-2.83-4.58a74 74 0 0 1 4.56-7.8c.3-.5 1.2-.2 1.7.43a2.35 2.35 0 0 1-.2 2.8c-1.6 2.15-3 4.25.1 6.26a4.4 4.4 0 0 1-.2 5.06 1.2 1.2 0 0 1-1.3-.1z" class="cls-83"/>
    <path d="M137.16 36.15c3.57 1.76 2.57-2.1 3.87-3.15l.75.42c2 2.62.8 4.8-1 6.9a2.14 2.14 0 0 1-2.4 0c-2.27-3.5-6.18-2.16-9.3-3.14-1.46-1.28-1.06-2 .72-1.9 2.48.23 4.9.62 7.36.87z" class="cls-84"/>
    <path d="M114.97 47.15a3.3 3.3 0 0 1 .52-4.8c2-.5 4.2-1.7 4.2 2l-2.5 3.08a1.12 1.12 0 0 1-1.3 1.2 1.1 1.1 0 0 1-1-1.48z" class="cls-85"/>
    <path d="M99.02 16.24h-1.07c-.7-.06-1.12-.32-.77-1.1-.56-3.4 1.84-4.7 4.2-6 .63 1.4-1.3 2.7.86 4.7 1.92 1.75-2.62.8-3.22 2.4z" class="cls-86"/>
    <path d="M100.96 8.37c-4.27.6-2.58-4.05-4.7-5.35 2.4 1.05 4.35 2.5 4.7 5.35z" class="cls-87"/>
    <path d="M22.16 60.07l1 .08a18.12 18.12 0 0 0 3.56 4.05c2.68 2 2.67 4.68 2.22 7.54 0 1.4-.16 2.76-1.5 3.6-1.15.25-2.34.6-2.38-1.25.65-3.7 0-5.9-4.56-5.2-3.4.5-4.67-.9-2.16-3.8 1.46-1.6.3-5.1 3.82-5.1z" class="cls-88"/>
    <path d="M25.16 74.15l2 1a.84.84 0 0 1-.07 1.1c-5.2 2.66-10.7 1.23-16 1 4.2-2.95 9.5-1.24 14-3.1z" class="cls-89"/>
    <path d="M161.1 8.3a23.53 23.53 0 0 0 7.24 1.5 8 8 0 0 1 4.45 0c3.2 1.53 8 .93 8.2 6.35l.1 1a2.22 2.22 0 0 1-2.7.56c-1.8-.8-3.6-1.8-5.6-1.7-3.6.3-7.2-.6-10.8.2 1.8.6 3.8.5 5.7.5 2.3-.4 3.6 1.4 5.3 2.4 2 1.1 4 2.2 6.1 3.3 1.7 1 2.4 2.2 1 4a95.75 95.75 0 0 0-16.4 2c-3.1.6-5.7.9-8.6-.1-2.1-.6-3.2.8-4.4 2a11.87 11.87 0 0 1-2.7 1.2 9.4 9.4 0 0 1-6.8-3.1 4.17 4.17 0 0 1-.7-1.3c-.6-3.4 1.3-6.1 2.9-8.8 2-3.5 1.7-4-2.1-5.4-3.3-1.2-6.2.4-9.3.5-1.97-.6-5-.5-2.26-3.9l2-1.1c6.7-.2 13.3-1.9 20-.8 1 .16-.2 2.9 1.95 1.6 2.1-2.5 4.6-.4 6.93-.53z" class="cls-90"/>
    <path d="M133.16 11.15c5.14-1.72 10.1-1.5 14.7 1.57 2.3 1.53 3.58 3.26.3 5.15-3.65 2.1-4.45 6-6.07 9.4a9.7 9.7 0 0 1-8.7-1c-3.4-1.88-7.3-2.6-10.3-5.14l-1-1c0-4.54 1.6-6.26 6.6-6.93 1.6-.27 3.7.5 4.3-2.05z" class="cls-91"/>
    <path d="M133.16 11.15c1.3.52 3.4.5 3 2.56-.3 1.5-2.08 1.3-3.38 1.5-4 .5-8.45.3-10.5 5-2.17-5.3.5-8.9 8-10.8-.36 2.5 1.63 1.6 2.88 1.8z" class="cls-92"/>
    <path d="M123.16 21.1c6.6 1.2 12.2 5.37 18.93 6.13a2.4 2.4 0 0 1 .3 3.07c-3.5.66-6.3-1-9.3-2.23-1.9-3.3-4.7-1-7.1-1.1a3.1 3.1 0 0 0-.8-2.84z" class="cls-93"/>
    <path d="M43.28 18.15q0-1-.06-1.93l4.74-2.07c3 .06 2.76-4.9 6.3-4l5.08.1a8.5 8.5 0 0 1 .2 5.3 3.27 3.27 0 0 1-.72 1.35c-2 1.18-4.26 1.73-6.33 2.72-2.5.7-5-.52-7.4-.27a4.5 4.5 0 0 1-1.9-1.2z" class="cls-94"/>
    <path d="M54.24 10.15c-2.43.8-2.58 5.2-6.3 4 1.42-1.8 2.8-3.64 3.2-6a4.5 4.5 0 0 1 3.1 2z" class="cls-95"/>
    <path d="M177.43 140.96c.16 1 .8 2.22.42 2.84-3 4.74-1.34 9 1.15 13.15l-7.84 1.2c-3.68.6-7.2-.6-10.78-1a1.86 1.86 0 0 1-.87-2 6.17 6.17 0 0 1 1.8-2.37c2.4-2.12 3-4.53 1.2-7.32-.7-1.14-1.2-2.28-.5-3.63a7.57 7.57 0 0 1 4.2-1.9 3.16 3.16 0 0 1 1.5.47c1.3 1 1.4 2.67 2.2 4 1.2 1.7.8 3.57.6 5.08-.1-1.76 1.1-3.36 2-5.08 1.7-1.25 3.7-1.9 5.2-3.44z" class="cls-96"/>
    <path d="M158.4 157c-.46 2.3-4.6 1-4.1 4.22 1.3 2.43 4.65 2.4 5.86 4.93l.93 2.9c0 2.08-1.6 2.24-3.1 2.75s-3.4.38-3.8 2.43c-1.8.08-2.9 4.1-5.2.8a2.63 2.63 0 0 1 0-3.78c1.5-1 2.5-2.24 1.1-4.07-2.3-1.74-2-4.44-2.5-6.84.1-3.86 2.9-5.43 5.9-6.22 2-.52 4.3.14 4.8 2.9z" class="cls-97"/>
    <path d="M135.24 172.15c-2.15 2-4 4.45-7.2 4.8a2.1 2.1 0 0 1-.76-2c1.2-2.43 4.6-3.4 4.42-6.75.8-1.75 2.35-2.56 4-3.32 1.28-.6 2.84-1.24 2.4-3.13-.9-3.8 1.36-5.07 4.42-5.8a3.46 3.46 0 0 1 2.74 1.4 9.65 9.65 0 0 1 1.32 4.6c-.92 5.28-5.55 6.25-9.4 8.1z" class="cls-98"/>
    <path d="M154.16 174.23c-1-.3-2.6-.08-2.56-1.72 0-1.2 1.3-1.3 2.25-1.5l7.2-1.9c1.17.4 3.24-.1 3.22 1.5 0 2.4-3 1.3-4.17 2.6z" class="cls-99"/>
    <path d="M137.16 170.15c1.64-3.77 6.72-4.13 8.1-8.17 2 .4 1.8 1.6 1.1 3 .45 7.97-5.4 4.74-9.2 5.17z" class="cls-100"/>
    <path d="M146.37 164.98l-1.1-3-1.18-3.8c3.5-2.18 3.3 2.07 5.1 3 4.4 1.38-.2 4.15.9 6-2.6 1.56-3.1-.6-3.9-2.2z" class="cls-101"/>
    <path d="M149.07 171.26v3.78a7.4 7.4 0 0 1-1.42.3c-1.3 0-3.16 1.38-3.65-.7-.36-1.57 1.2-2.46 2.73-2.84.77-.2 1.56-.36 2.34-.54z" class="cls-102"/>
    <path d="M19.22 119.15l.17 3.87c-.9 0-1.9-.24-2.4.17-3 2.3-4.5 1.3-5.8-1.9-1.4-3.5-.9-5.9 2.8-6.9 4.4-1.2 6.5-3.7 5-8.4 1.5-1 3.2-1 4.9-1a2.7 2.7 0 0 1 2.4 2.1c.5 2.9 3.6 5.9-.2 8.7l-1.1-.1c-2.9-.5-4.2 1.9-6 3.3z" class="cls-103"/>
    <path d="M25.2 107.22l-1.14-2a5.53 5.53 0 0 0-2-3c-.5-1.42-2.14-2.32-1.9-4.08.9-2.34.62-5.25 3.18-6.82a7.55 7.55 0 0 1 4.42 3.44c1 3.84 4.6 6.06 6.06 9.62a1.64 1.64 0 0 0 2.08.94c4.58-1.37 5.44 1.5 5.82 5 .33 1.7 1.24 3.3.7 5.1a11.76 11.76 0 0 1-1.45 2.76c-1.2 1.22-3 .74-4.35 1.6a3.2 3.2 0 0 1-3.58-.58l-.35.14-.4-.13a2 2 0 0 1-.3-2.7c1.3-2.1.6-3.6-1.5-4.3-2.6-.9-3.9-3-5.5-4.9z" class="cls-104"/>
    <path d="M39.95 110.26c-1.34-.82.2-4.3-3.06-3.33-.2 0-7-2.62-7-2.75a9 9 0 0 0-3.9-5.4c-1.1-.68-.7-2.44.1-3.66 1.3-1.88-2.1-3-.8-4.86l.7-1.07 1.3-.2a6.1 6.1 0 0 1 6.1-.5c1.7 1.8.4 3.7.2 5.5-.2 2.1 1.2 2.9 2.8 3.5s3 1.2 3.5 3c.3 1.1 0 2.5 1.3 3.1a6 6 0 0 1 1 .9 4.1 4.1 0 0 1 .9 5.4c-.9 1.5-2.3.8-3.5.2z" class="cls-105"/>
    <path d="M20.16 98.1a4.92 4.92 0 0 1 1.9 4.07c-4.57-.5-9.13-1.06-12.92-4z" class="cls-106"/>
    <path d="M25.3 90.27c.3 1.6 3.82 2.7.8 4.86-.44-1.63-2.6-2-2.74-3.86z" class="cls-14"/>
    <path d="M27.07 76.25l.1-1.1.05-4c2.07-.78 2.52-3.32 4.52-4.2a4.47 4.47 0 0 0 3.85-2.48c1.6-2.88 3.4-2.54 5.1.08.4 1.8-.1 3.58 0 5.37a17.78 17.78 0 0 1-.3 3.17c-.6 1.5-1.8 2.6-2.5 4.1a3.94 3.94 0 0 1-.9 1.4c-2.7 1.3-4 3.6-4.8 6.4-.6 1.8-2 3.1-4.2 2.5-1.7-.5-4.4-.3-3.2-3.5z" class="cls-107"/>
    <path d="M25 84c2.53 3.3 4.74 2.48 6.2-.8 1.2-2.7 2.16-5.45 4.82-7.12 1.9 3.6.67 9-3 13-1.9 1-3.8 1.25-5.68 0-.86-1.7-5.74-1.45-2.33-5.07z" class="cls-108"/>
    <path d="M154.16 8.9c0 1.08.2 2.22-1.2 3.2-1.16-1.5-.73-3.22-.75-4.83z" class="cls-109"/>
    <path d="M171.16 76.38l-.25 2.1c-1.8 3.62.3 7.35-.3 11-.4 3.3 1.2 6.94-1.6 9.82-2.3.42-2.4-2.27-4-2.9-1.2-1.76-2.6-3.4-3.3-5.5a18.38 18.38 0 0 1-2.1-3.7c-1.3-2.6-3.4-5-1.9-8.24a5.43 5.43 0 0 1 .5-1.32 8 8 0 0 0 1.7-2.84c1.4-3.06 3.6-5.88 3.1-9.57a3.48 3.48 0 0 1 .8-1.3c5.4-3.08 6.7-2.47 7 3.36a51.6 51.6 0 0 0 .5 5.4l.3 1.4a6.92 6.92 0 0 1-.2 2.2z" class="cls-110"/>
    <path d="M171.16 76.38l-1.13-1.1c1.07-3.5.1-7.16.73-10.65.4-2.2 0-5.8 4.32-4.54 2.24.4 4.5-3.4 6.73 0-.8.8-1.4 1.9-2.7 2.1a5.9 5.9 0 0 0-1.1 5.2c-3.1-2-4.7-1.7-4.6 2.5.1 2.3 1.1 5.2-2.2 6.4z" class="cls-111"/>
    <path d="M169.47 88.15c0-3.3-3.6-7.15 1.5-9.66l1.1 2.7a5.14 5.14 0 0 1 1.3 5.1 4.8 4.8 0 0 1-2.6 2.2 1.66 1.66 0 0 1-1.3-.4z" class="cls-112"/>
    <path d="M176.34 91.15c-1.28.58-2.74 1-2.88 2.74l-.35.4c-3.8-1.2-1.4-3.7-1.2-5.7a15.37 15.37 0 0 0 1.4-4c.5-2.2 1.9-2.7 3.8-1.2l-.1 2.7a9.38 9.38 0 0 0-.6 5z" class="cls-113"/>
    <path d="M177.04 83.46c-1.77-.42-2.9 0-2.9 2.1 0 1.27.17 2.67-1 3.64-1.44-.68-2-1.65-1-3.1.6-1.64-1-3.25-.06-4.9 1.8.4 3.7.65 4.96 2.26z" class="cls-110"/>
    <path d="M63.26 4.33c1.32-.75 2.38-.57 3.1.87-.47.92-1.06 2.26.64 2a4.43 4.43 0 0 0 3.62-3.06C71.12 2.3 72.1.74 74 1.5c3.04 1.2-.7 2.9 0 4.47 1 .42 2.2-.8 3.23.17 4 2.92 2.6 6.32.88 9.74l-.6 1.34c-2.1 2.6-5.7 4.16-5.8 8.25a8.37 8.37 0 0 1-.2 2.2c-.7 1.8-1.7 3.2-3.9 3.2-2.5-.84-3.3-3.55-5.3-5a3.54 3.54 0 0 1-.5-1.33c.2-1.82-.1-3.67.1-5.5.5-2.75 3.3-5 1.8-8.18a5.3 5.3 0 0 1-.2-4.73z" class="cls-114"/>
    <path d="M63.32 6.1l2 3.88a1.62 1.62 0 0 1 0 1.6c-2.33 1.9-4.47 3.07-5.22-1.3.06-2.2 1.38-3.4 3.22-4.18z" class="cls-115"/>
    <path d="M60.16 10.26c1.38 1.93 3.2 1.3 5 .9a2.27 2.27 0 0 1-.52 2.9c-2 1-3.75 3.57-6.37 1.12a7.15 7.15 0 0 1 1.08-4.93h.8z" class="cls-116"/>
    <path d="M149.25 161.15c-2.42.24-3.17-2.46-5.17-3l-2-.94c-3.4-.9-2.7-3-1.46-5.1 1.05-1.9 3.28-2.5 4.74-3.9 2.94-2.3 5.57-.7 8.22.7 2.42 1.9 5.95 2.6 6.5 6.4l.28 1.9h-2c-4.45-1.8-7.48-.4-9.1 4.2z" class="cls-117"/>
    <path d="M160.16 166.15a29.48 29.48 0 0 1-3 0c-1.54-.16-3.5 1.35-4.54-.56-1-1.8.8-3 1.66-4.4 3.2-.7 6.38-1.5 9.6-1.9 2.18-.3 4.82.1 5.2 2.5.4 2.6-2.52 2.4-4.24 3-1.5.5-3.1.8-4.68 1.2z" class="cls-118"/>
    <path d="M178.08 55.64l-3 1.5c-2 .88-3.1-.38-3.12-1.9-.1-4.7-1.4-9.5 1-14a2.94 2.94 0 0 0 .8.24c.07 3.85 1.5 5.84 5.74 4.54 1.76-.54 3.45-.24 3.52 2.13 0 1.66 1 4.06-2 4.05-2.6-.05-1.7 2.54-2.94 3.44z" class="cls-119"/>
    <path d="M97.16 15.15l.77 1.1c-2.25 3.33-3.13 7.56-6.72 10-1.6 2.27-2.2 1-2.8-.27-.2 2.1.9 4.1 2.7 5.85 1.3 1.33 3.3 2.2 3 4.55-2.8 1.86 0 4.54-1 6.67-1.3 3.74-5.4 4.6-7.7 7.37-3.4-1.06-7.5.2-10.6-2.7-1.4-2.46-1-5.1-.7-7.7.6-1.7 2-1.94 3.6-2.08 3.1-.28 4.2-2 2.8-4.74-2-4.1-2.6-7.72 1.7-10.85 2.1-1.53.3-4.1 1.2-6 1.3-1.82 3.4-.9 5-1.72 2.4-.4 4.3-3.42 7.1-1.5z" class="cls-120"/>
    <path d="M95.16 13.1c-2.75.7-3.7 4.36-7 4.24a1 1 0 0 1-1.46-1c1.74-1.86 3.26-3.82 3.1-6.57 1.28-3.1.62-4.32-3-3.6-2 .4-5 2.12-5.74-1.9 2.63-.22 4.4-2.94 7.37-2.34 6.4 1.22 8.25 4.22 6.73 11.17z" class="cls-121"/>
    <path d="M81.16 4.25c2.43 1.54 4.86.17 7.3 0 1.8-.1 3.33.32 4.1 2.14.7 1.6.42 2.9-1.3 3.7a2.7 2.7 0 0 1-2.66.9c-1.88-1.6-3.54-3.8-6.5-1.8-.82.5-1.9 0-2.66-.7A2.77 2.77 0 0 1 79.1 5z" class="cls-122"/>
    <path d="M79.05 5.15l1.15 3c1.37 3 2.68 5.9-1.23 8.06-1 .5-2 .8-2.9-.1 1.26-3.2 3.15-6.4 1.12-10z" class="cls-121"/>
    <path d="M164.32 65.26q-.12.4-.2.8c-.62 1.15-1.3 2.2-2.8 2.35a16.86 16.86 0 0 0-3-.2c-1.75.2-3.14-.9-4.72-1.3-5.62-1.5-5.85-2-3.8-7.5 4.16-7 9.22-13 17.1-16 2.07.6 2.25 2.2 2.24 3.9-1.83 1.7-1.46 3.8-1.35 6a13 13 0 0 1-3 9.7 3.2 3.2 0 0 0-.6 2.6z" class="cls-123"/>
    <path d="M155.97 25.24c2.24 1.65 4.1 1 6.84.46 5.6-1.17 11.8-2.6 17.5.54l-.1.84c-3 .76-5.5 3.18-8.8 3.23-2.2 1.3-4.6 2-6.9 3.2a10.3 10.3 0 0 1-2.3.2c-2.7.2-5.3 0-7.4-2.1-.8-2.3-.9-4.5 1.4-6.2z" class="cls-124"/>
    <path d="M173 41.23c.9 4.07-.14 8.17.18 12.25.1 1.44-.8 3.54 1.92 3.66 1.2 1 .62 2 0 3-4.25 2.28-2 6.38-2.73 9.65-.44 2 1.3 4.8-2.32 5.5l.1-.2c-1.07-2.9-.55-5.9-.43-8.8a4.3 4.3 0 0 0-2.8-4.5c0-1.5.87-1.9 2.13-2 1.82-4.1.76-8.4.93-12.6.18-2.6.24-5 3-6.2z" class="cls-125"/>
    <path d="M164.08 31.87c2-2.54 4.73-1.43 7.22-1.56a1.84 1.84 0 0 0-.32.9c2.43 5.3-.2 8.9-4.1 12-3.56 4.2-8.48 7-11.75 11.6-1.25 1.8-2.15 3.3-1.87 5.4-4.18 0-3-3.3-3.48-5.5a15 15 0 0 1 1.74-4.4c5.1-2.6 8.23-7.5 12.63-10.9 2.23-1.7 2.36-3.8.23-5.9a4.33 4.33 0 0 1-.3-1.3z" class="cls-126"/>
    <path d="M169.08 59.85l-1.92 1.3c-1.06 2.17-2.42 3.64-5 2.08a15.86 15.86 0 0 0 4-13.08c-.24-1.92.9-3.1 3-3.1q-.07 6.4-.08 12.8z" class="cls-127"/>
    <path d="M168.1 145.4c-1.12-1.25-.92-2.78-1-4.27 2.6-3.42-.45-6.64-.35-10a15.74 15.74 0 0 0 .5-5.34c.55-2 .4-4 .72-6a11.7 11.7 0 0 1 .34-1.6c2.5-2.3 1.6-6 3.7-8.3 1.7-.3 2.3 1.1 3.3 2 1.3 2.7-1.3 4.9-1 7.6s-.6 5.5 1 8.1l1.1-.5a1 1 0 0 1 1.7.1l-1.9 2.6c-3.2 1.4-1.5 4.2-1.7 6.4l-.1 4c-.4 1.6-.6 3.3-2 4.5-1.1 1.7-2.5 1.2-4 .6z" class="cls-128"/>
    <path d="M171.38 143.24c.14-1.73 1.48-2.32 2.77-3 .8 1.56 2.8-2.48 3.28.68-.3 2.55-1.54 4.15-4.25 4.3-1.83.46-1.3-1.23-1.8-1.98z" class="cls-129"/>
    <path d="M181.32 146.28c1.56.3 1.74 1.7 2.2 2.85-.7 1.35-1.5 3.84-3.05 2.56-1.4-1.2.24-3.6.85-5.5z" class="cls-130"/>
    <path d="M170.3 120.22l-.36 6.6c-2.37 1.6-2.88 6-7.12 4.76-2.17-2.53-.68-5.6-1.17-8.36-.08-1.73.07-3.47-.06-5.2a6 6 0 0 1 .2-1.38 4.18 4.18 0 0 0-.1-4.37 4.18 4.18 0 0 1-1.4-2.46c.8-3.6 3.4-4.8 6.8-4.6l3.1 3a19.25 19.25 0 0 1-.1 12.1z" class="cls-131"/>
    <path d="M175.16 127.66c-3.2-3-2-6.73-1.46-10.16a23.64 23.64 0 0 0 .46-5.35 1.12 1.12 0 0 1 .14-1.9l.86-1.1c2.36.36 3.07 1.9 2.87 4.07-4.22 4.2-2.53 9.5-2.87 14.44z" class="cls-132"/>
    <path d="M172.16 86.15l1 3.1c-.1 1.7-1.34 3.4 0 5.1-.18 1.3 3.32 2.6 0 3.9l-2.8.6c-1.24-3.5-.75-7.07-.2-10.63a2.45 2.45 0 0 1 2-2.07z" class="cls-133"/>
    <path d="M167.16 105.2c-1.3 2.54-4.72 2.45-6.1 4.9a1.73 1.73 0 0 1-2.12.28 3.1 3.1 0 0 1-.7-3c2.16-5.32 4.08-6.3 7.84-4z" class="cls-134"/>
    <path d="M166.16 103.4c-3.93-.74-5.3 1.67-6 4.9a3.5 3.5 0 0 1-4.5-2c1.1-5.34 5.8-5.9 9.78-7.37a3.12 3.12 0 0 1 2.15.6l.5.52z" class="cls-35"/>
    <path d="M174.32 110.26l-.16 1.9-2.16-1.95c-1 3.3.4 6.8-.86 10q-.43.1-.86.1c-.14-4-.76-8 .05-12 1.75 0 3.83-.8 4 2.1z" class="cls-135"/>
    <path d="M170.16 88.15l.2 10.64-2.24 1.2-.18-.2a.74.74 0 0 1 .3-.9c2.63-3.4.5-7.3 1.26-10.9z" class="cls-35"/>
    <path d="M167.16 18.08c-2.3.15-4.62 0-6.8 1.13-1.72 1-3.86 1.4-4.6-.9-.88-2.7 1.2-4.1 3.53-4.2 6.1-.2 12.2-.2 18.1 1.9l3.7 1.3c0 1.9-.8 2.8-2.7 1.9-1.5-.6-2.9-1.3-4.3-2-2.4.2-4.9-1.2-7 1z" class="cls-136"/>
    <path d="M181.07 16.15c-1.93-3.47-6-3.22-8.84-5.08 3.08-2.52 6.3-3.47 9.88-.95l.3 2z" class="cls-137"/>
    <path d="M167.16 18.08c-1.1-1-3-.38-4-2 3.95-1.5 7.52-.65 11 1a1.26 1.26 0 0 0-1 2z" class="cls-138"/>
    <path d="M128.02 175.34V177c-1.46 1.85-4 1.93-5.7 3.3a42.64 42.64 0 0 0-4.28.4c-4 .77-5-1-3.92-4.53l3.06-4c2-1 2.08-4.54 5.28-3.88a3.2 3.2 0 0 1 2.08 2.8c-.47 2.7 3.2 2.1 3.48 4.2z" class="cls-139"/>
    <path d="M177.96 127.26l-1.66-.1c.55-4.07 2.23-7.75 4-11.4.72-1.44 1.54-1.73 2 .22-2.3 3.43-4.14 7.03-4.34 11.28z" class="cls-140"/>
    <path d="M182.1 10.15l-9.87.95a4.7 4.7 0 0 1-3.9-1.27l2.7-4.5 6-2.25 2.28.28a6.24 6.24 0 0 0 2.8 5.06z" class="cls-141"/>
    <path d="M182.05 8.38c-2.1.2-4.2.48-6.3.58-.94 0-2.16 0-2.4-1.2s.9-1.57 1.73-2.04c1.4-.82 2.82-1.6 4.24-2.4l2.77-.43q-.1 2.7-.1 5.4z" class="cls-142"/>
    <path d="M74.24 153.15c-7.33 2-13.35 7-20.7 9.5.18-1.93 2.14-2.14 2.6-3.48-1-1.56-.14-2.73.84-3.87a12.87 12.87 0 0 1 5-3.76c.6-.35 1.15-.77 1.78-1.08 1.5-.5 4.16-.94 2.67-3-2.4-3.3-.85-6.32-.62-9.5a3.2 3.2 0 0 1 1.3-1.74 6.06 6.06 0 0 1 3.6-.43c.8.1 2.3.5 2.2-.2-.7-4.3 3.1-6.2 4.4-9.4 2.2-1.2 3.4-3.4 5.3-4.9 4.3-3.1 9.3-4 14.2-5.2a4.38 4.38 0 0 1 1.6.1 6.1 6.1 0 0 1 3 1.1 2.47 2.47 0 0 1 .6 1.5 2.85 2.85 0 0 1-1.8 2.4 7.9 7.9 0 0 1-1.4.2c-3.3-.2-5.5 1.4-6.7 4.3a14.7 14.7 0 0 1-2.3 3.6c-2.4 3.6-.8 7.3-.2 11-1 4.6-6 3.8-8.6 6.3-2.4 1.1-5.1 1.9-5.5 5.2a2.4 2.4 0 0 1-.9.9z" class="cls-143"/>
    <path d="M63.16 153.15l-5 3a4.94 4.94 0 0 1-4.88.2c-2.24-1.7-3.5-3.58-1.3-6.2 1.26-1.2.4-2.35-.12-3.62 1.6.24 2.4 2.4 4.26 1.65 1.58-1 3-2.92 5.12-1.43s2.6 3.87 1.92 6.4z" class="cls-144"/>
    <path d="M74.24 153.15l.06-1c1.46-3.6 4.73-4.53 8-5.4 3.2-.06 5.6.9 6 4.55l-11.12 6c-.8-1.56-3.02-2.05-2.94-4.15z" class="cls-145"/>
    <path d="M53.32 156.3c1.57-1.4 3.16-2.47 4.88-.2-.1 1.4-1.24 2.12-2 3l-4.6 1.38c-.44-2.07 1.65-2.64 1.72-4.18z" class="cls-146"/>
    <path d="M33.06 119.15l2.87-.84a5.6 5.6 0 0 1 4.9 2.8c2.7 4 5.5 7.7 10.48 9.3 2 .6 3 2.9 4.1 4.8a5.73 5.73 0 0 1 0 2.4c-.6 1.4-1.5 2.3-3.1 2-4.3.5-7.4 4.9-12.2 3.7l-1-1.7c-3-3.3-.4-7.6-1.9-11.1s-4.3-6.8-4-11z" class="cls-147"/>
    <path d="M37.16 130.15c2.17 3.46.8 7.53 1.9 11.16-2 .2-3.68 2.8-6 .9 4.46-3 3.95-7.6 4.1-12z" class="cls-148"/>
    <path d="M52.28 139.3l1.75-2.2c1.3-1.13.14-4.3 2.7-4s2.6 3.1 3.86 4.74c.5 2.18 2.5 4 1.5 6.57-1.2 1.7-2.9 1.9-4.8 1.8-.8-3-4.5-3.8-5.1-6.8z" class="cls-149"/>
    <path d="M57.38 146.15a8.25 8.25 0 0 1 4-2c2.92-.86 4.1 1.12 5 3.23s-.34 3.63-2.1 4.76l-1.12 1c-1.54-2.78-1.92-7.2-7-5z" class="cls-150"/>
    <path d="M25.2 107.22c3.38 1.72 7.3 2.1 10.32 4.77 2.52 2.2 3.28 3.6-.57 4.9a4.2 4.2 0 0 0-2.6 2.2c-3.94 2.7-3.72-2.7-6-3.1z" class="cls-151"/>
    <path d="M19.22 119.15c.16-2.2 1.8-3.4 3.23-4.73 2.34-2.2 2.52-.24 2.8 1.5-1.66 1.75-3.5 3.12-6.03 3.23z" class="cls-152"/>
    <path d="M95.03 148.07l-4 1.86c-2.17-.74-3.3-2-2.75-4.5a13.62 13.62 0 0 0 .26-5.93c.45-3.7 3.9-4 6.28-5.4a22.86 22.86 0 0 1 8.54-3.42l1.44-.23c5.23.25 10.24-1.6 15.44-1.7a3.2 3.2 0 0 1 2.93 3.25c-1.4 4-5.06 5.5-8.26 7.5-3.8.53-8.6-1.16-10.4 4.4a8.34 8.34 0 0 1-1.2 1.77c-2.3 2.03-5.4 1.48-8.1 2.4z" class="cls-153"/>
    <path d="M117 169.98a1.75 1.75 0 0 1-2-.74c-.7-2.27-4.43-1.22-4.5-4.15-.17-11.7 8-18.8 20.87-18.2 1.76.4 2.53 2 3.58 3.2a1.8 1.8 0 0 1 .37.9c-.24 3.5-7.24 12.1-10.52 12.2s-5 1.7-6 4.5a3.28 3.28 0 0 1-1.8 2z" class="cls-154"/>
    <path d="M95.03 148.07c2.18-1.6 4.37-3.2 7.07-3.84 1.2 3.06 4.9 4.32 5.58 7.74.75 2.6 2.38 5-.28 7.72-1.62 1.6-.33 3.3 1.26 4.7 1.26 1.1 3.28 2.4 1.5 4.7-6.4 0-9.6-3.8-8.6-10.3.88-5.6-.9-8.5-6.53-10.8z" class="cls-155"/>
    <path d="M89.03 140.08c2.93 1.5 3 4.05 1.77 6.43a2.82 2.82 0 0 0 .27 3.5l-1.9 1.2a2.63 2.63 0 0 0-.9.1c-1.9-1.3-4.62-1-6.13-3.1-1-.9-3.55-.3-3-2.9l9.02-5.1a.64.64 0 0 1 .87 0z" class="cls-156"/>
    <path d="M110.16 169.15c-.25-1.88-2-2.55-3.1-3.7-1.64-1.67-2.73-3.8-1.44-5.76 1.65-2.6 1-4.9.74-7.4a3.53 3.53 0 0 1 .86-1c2.4-.4 3.9-2.2 5.56-3.7 1.65-1 3.2-2.3 5.36-1.7 2.56 1.7 1.6 3.3-.46 4.4-4 2.1-4.88 6.4-6.92 9.8-1 1.7.6 3.4 1.35 5 .2 2 3.4 1.7 2.9 4a5.82 5.82 0 0 0-4.8-.2z" class="cls-157"/>
    <path d="M117 169.98l.24-2.6c2.73-1.36 4.32-4.48 7.86-4.7 2.57-.14 2.9.84 2.22 2.9-1.28 1.88-3.37 2.5-5.3 3.37-1.4 1.4-2.7 2.9-4.8 3.22z" class="cls-158"/>
    <path d="M93.58 162.08a6.9 6.9 0 0 1-.22-4.62c3.25 0 3.2 2.72 3 4.55s-1.8.4-2.78.1z" class="cls-159"/>
    <path d="M32.37 68.27c-1 2.32-2.14 4.25-5.17 2.86 0-1.85 0-3.85-2.06-4.62-3.5-1.3-3.24-3.6-1.94-6.3l4.93-4.1c1.13-5.7 5.24-8.6 10.1-10.8l1.77-.2c2-2.2 3.8-4.7 6.56-6.2a3.26 3.26 0 0 1 3.05.9c1.4 2 .7 3.8-.8 5.4-4.2.9-7.2 3.5-9.4 7.1a4.38 4.38 0 0 0-.9 5.4 15.42 15.42 0 0 1-6.1 10.8z" class="cls-160"/>
    <path d="M38.23 45.22c-4.44 2.63-5.36 8.52-10.1 10.88 0-1.48 0-3 .06-4.45.2-3.28-.3-7.13 5.3-5.32 1.3.42 3.1-.7 4.7-1.1z" class="cls-161"/>
    <path d="M37.16 30.15l2.14-2.08c2.9-.74 3.4 2.1 4.92 3.36s2.6 2.54 4 3.74a2.4 2.4 0 0 1 .5 2c-.67 1.54-2.42 1.56-3.5 2.5A1.78 1.78 0 0 1 43.3 39c-2.26-2.76-5.4-4.97-6.14-8.85z" class="cls-162"/>
    <path d="M43.27 39.07h1.9c.9-.14 1.33.14 1 1.1a12.62 12.62 0 0 1-6.14 4.85c.13-2.47 1.95-4.06 3.24-5.95z" class="cls-163"/>
    <path d="M47.03 36.02c-4.3-1-6.07-4.38-7.72-7.92 1.4-2.48 3.3-3.25 5.9-1.95 6.4 3.5 7 6.72 1.9 9.87z" class="cls-164"/>
    <path d="M47.03 36.02c3.73-4.1-.66-6.7-1.86-9.87.3-2.9-1.5-5.3-1.9-8l1.93.13c1.88 1.4 4.76 1 6.1 3.43a24.45 24.45 0 0 1 .84 3.4c2.27 4.8 2.14 9.1-2.1 12.7a1.74 1.74 0 0 1-1.84-.7z" class="cls-165"/>
    <path d="M101.27 118.25l-3-.23c-.7-3.7-5.28-5.3-5.22-9.43-.78-4.3-.32-8.6-.4-12.9a32.9 32.9 0 0 0 .33-4.8 19 19 0 0 1 2.05-10.1 22.1 22.1 0 0 0 2.25-8.1 15.3 15.3 0 0 1 1.17-2c3.3-1.7 3.1-5 3.72-7.9.2-.7.48-1.4.73-2.1a3.26 3.26 0 0 0-.2-2.4 2.9 2.9 0 0 1 1-3.9c1.6-1.1 3-.7 4.37.5l1 1c2.7 4.9 5.57 9.7 4.06 15.7-.36 1.4.58 2.5 1.2 3.6.5 1.7.6 3.5 2 4.9.58.6 1.17 1.6.85 2.2-2.25 4.2-.22 8.3-.2 12.4a11.84 11.84 0 0 0 1.5 5.8c-.12 4.4-3.22 8-3.82 12.3 0 .4-.1.8-.15 1.3 0 2.1-1.7 3.8-1.5 6a9.15 9.15 0 0 1 .8 2.4c.7 2.9-.6 4.3-3.4 4.7-1.6.3-3.1.45-4.5-.8-1.3-.87-2.2-2.4-4.2-1.87-1.6.43-2.8-.4-3.4-1.9a2.9 2.9 0 0 1 1-2.8l2.1-1.2c1.6-1 3.9-1.54 3.1-4.27a37.06 37.06 0 0 1-4.5-12.2c.2 4.63 3.5 8.9 4.5 13.9a2.8 2.8 0 0 1-3 1.8z" class="cls-166"/>
    <path d="M94.3 43.25l3.86-.1-3 11c-1.22 2.84 1.7 6.23-1.2 8.84-5.17 3.1-9-.7-13.13-2.7-1.82-.4-3.64-.9-5-2.4-1.83-6.1-1.42-7.1 2.95-7.2 4.25 3.8 6.45 3.6 7.6-1.7 1.05-5.1 3.95-5.8 7.9-6z" class="cls-167"/>
    <path d="M112.16 77.15l-3-21 3.94 2.92a23.14 23.14 0 0 0 1-11.77l.9-.12 1.2 1c5.17 7.38 6 15.15 2.1 23.35-1.38 2.62-2.5 5.47-6.14 5.62z" class="cls-168"/>
    <path d="M108.16 55.15c-6.56-.06-2.2 4.66-3.1 7.08-1.63.6-2.5 1.88-3.4 3.3-1.32 2.1-3 3.84-5.95 3.1-2.7-5.16-1.7-8.1 3.4-9.83.8-.27 1.6-.52 1.2-1.62a11.4 11.4 0 0 1 .7-2.35c.9-1.55 1.5-3.8 3.5-3.76 2.3 0 3.1 2.08 3.7 4.08z" class="cls-169"/>
    <path d="M100.24 57.15c.8 2.25-1.47 2.14-2.34 3.12-2 2.28-2.14 5-1.7 7.9 1.64 1.46 1.25 3 .17 4.57-1.37 1.24-2.86 1.73-4.6.8a3.33 3.33 0 0 1-1.3-.93c-1.42-4 1.45-7.1 2.6-10.6l2-7.8c.33 3.5 2.1 4.4 5.17 3.1z" class="cls-170"/>
    <path d="M94.3 43.25c-3.94.7-6.33 2.72-6.82 7-.28 2.5-1.75 5-4.17 5.7-2.8.87-3.4-2.43-5.1-3.8a1.2 1.2 0 0 1-.3-1.28c1.9-2.85 5.3.48 7.3-1.74 1.2-3.83 2.6-7.4 7.8-6.08z" class="cls-171"/>
    <path d="M91.26 27.3c3 .9 8.7-2.66 7.76 4.73-.48 1.14-.48 3-2.33 2.54-3.1-.77-6.6-1.1-7.6-5a2.7 2.7 0 0 1 2.1-2.26z" class="cls-172"/>
    <path d="M91.26 27.3l-1.23 1.8c-1.37 1.35 1.37 2.8-.1 4.18-1.4 0-2.67 0-2.76-1.92-.23-4.52.4-8.74 4.17-12.47.82 2.3-1 3.3-1.4 4.7s-1.12 2.7 1.28 2.6z" class="cls-173"/>
    <path d="M89.93 33.28c-.27-1.4-1.08-2.82.1-4.2 2.6 2.16 5 4.9 9 2.94.1 3.54-2.93 3.42-5.08 4.33a5.45 5.45 0 0 1-4.02-3.07z" class="cls-174"/>
    <path d="M116.16 71.15c2.56-7.64 3.5-15.27 0-22.9l1.08-.78c2.27 4.24 3 9.3 6.9 12.68a2.17 2.17 0 0 1 1.22-.57c4.3 1.4 1.18 5.23 2.53 7.6 1.1 2.72 3.3 2.77 5.7 2.4 1.4-.17 2-1.35 2.8-2.3 2.2-1.42 3.7-.68 4.7 1.56 1.4 3.33 2.6 6.7 1.7 10.44a3.8 3.8 0 0 1-4.2 1.4c-1.4 0-2.4-1.13-3.8-1s-2.6-.78-4-.84c-2.8.05-4.7-2-7.2-2.65l-1.4-.3c-3.1-.4-4.6-2.9-6.4-4.9z" class="cls-175"/>
    <path d="M125.22 60.15h-1.06c.3-4.48 4.26-6.43 6.7-9.35s2.68-4.6-.7-6.42c1.72-.9 2.78-3.32 5.54-1.64 1.82 1.1 2.45-.72 2.7-2.3l1.62-.42a2 2 0 0 1 1.76 1.14c-.43 3.84-3.3 6.2-5.47 9-2.3 1.6-3.6 4.05-5.2 6.3a8.1 8.1 0 0 1-5.8 3.7z" class="cls-176"/>
    <path d="M133.16 28.04c3.2 0 6 1.5 9.05 2.1 1.9-1.25 3.5-.65 5 .6 1 1.5 0 2.4-1 3.3-1.7 1.43-3.2 1.16-4.6-.55l-.5-.5c-1.2-2-3.2-2.6-5.3-2.9-1.3-.2-2.7-.3-2.5-2.2z" class="cls-84"/>
    <path d="M141.5 33.5c1.25.24 2.54.8 3.67-.32 2.8-1 3.24.7 2.48 2.66a8.5 8.5 0 0 1-4.42 5 4 4 0 0 1-2.37.24l-.85-1.1z" class="cls-177"/>
    <path d="M155.97 25.24c-.17 1.67 1.43 3.62-.8 5-1 1.67-2.35 2.46-4.3 1.58a2.5 2.5 0 0 1-1-3c1.36-6.2 1.36-6.2 6.1-3.58z" class="cls-178"/>
    <path d="M149.88 28.77L151.2 31c-.42 3.15-.4 6.34-.92 9.48-1.62 2.83-3.68 4.48-7 2.65-1-.8-1.06-2-1.17-3.1l4-4.26s1-2.24-.8-2.6l2.1-1.86a1 1 0 0 1 .9-1.2z" class="cls-179"/>
    <path d="M148.1 30.15l-.85 1.2-5.1-1.2q0-1.47-.08-2.94z" class="cls-91"/>
    <path d="M50.16 22.3c-2.43-.4-4.74-.94-5-4a7.28 7.28 0 0 1 7-.17 7.13 7.13 0 0 0 5.88-1.94l.2-1 5.9-2.2c0 4.1-2.83 7.2-4 10.9-3.5.6-7.14 2-9.98-1.7z" class="cls-115"/>
    <path d="M58.05 16.15c-1 3.47-3.28 3.25-5.88 1.95a11.7 11.7 0 0 1 5.88-1.95z" class="cls-180"/>
    <path d="M162.16 142.2c3.7 1.27 6.2 9 3.84 12.3-1.25 1.76-2.48-.34-3.75-.44-3.56-.28-5.83-3.07-8.8-4.52-1.9-.9-3.72-1.86-3.18-4.5 1.4-2 3.5-3 5.53-4.12a6.78 6.78 0 0 1 1.53-.26c1.52.1 3.16-.4 4.46.85z" class="cls-181"/>
    <path d="M171.38 143.24l1.8 2c.12 2.08.16 4.16.4 6.22.25 2.3-.36 5-2.58 4.83-2.54-.2-4-2.6-3.2-5.6.47-1.8 1-3.6.3-5.4a4.36 4.36 0 0 0 3.28-2.1z" class="cls-182"/>
    <path d="M168.16 131.15c1.52 1.5 1.32 3.7 2.43 5.54 1.5 2.4-1.2 3.8-3.5 4.4l-.5-.1h-.5c-1.3-.6-2.7-1-4-1.5a2.64 2.64 0 0 1-1.7-1.4c.7-4.4 3.1-6.8 7.6-7.1z" class="cls-183"/>
    <path d="M154.22 149.15l8 5-2.06 1-7-5c-.27-.9 0-1.4 1.06-1z" class="cls-184"/>
    <path d="M163.26 138.22c2.2-.32 4.24-.43 3 2.87-1.13 1.2-2.72.8-4.13 1.1H162c-1.2-1.9 0-3 1.26-4z" class="cls-185"/>
    <path d="M122 168.95c.42-2.3 2.52-2.8 4.1-3.85a.64.64 0 0 1 .7.34 1.73 1.73 0 0 1 .37-.07 1.88 1.88 0 0 1 0-.4 4.65 4.65 0 0 1 1.46-1.4c5.57-2.5 5.15-8 6.3-12.64a3 3 0 0 1 1.05-1 7.26 7.26 0 0 1 5.86.42 1.75 1.75 0 0 1 .5 2.07c-1.16 1.56-1.68 3.15-.2 4.82-.53.6-1.63 1.37-1.52 1.82 1.65 6.5-4.14 7.3-7.5 10-3.17 4.5-5.78 5.3-10 3.05z" class="cls-186"/>
    <path d="M123.16 172.08c3.74.35 6.76-1.67 10-3.05.85 4.15-2.52 4.9-5.08 6.32-2.06-.54-5.08.45-4.92-3.27z" class="cls-187"/>
    <path d="M54.16 135.15a18.53 18.53 0 0 0-7.23-5c-5.56-2.06-7.7-7.55-11-11.88l3.76-1.22c2.7-1.9 4.4-.46 6 1.67s2.3 5.4 4.8 7.1c1.5 1 2.5 2.46 4 3.5a3.5 3.5 0 0 1 .8 2.14 5.3 5.3 0 0 1-1.4 3.7z" class="cls-188"/>
    <path d="M39.95 110.26c3.6-.95 2.14-3.13 1.27-5.17.52-3-.6-6-.35-9 .2-2.3-.17-4.9 3.18-5.3a.92.92 0 0 1 .4.2c1 6.4 3.63 12.3 5 18.6-2.9 1.3-2.73 5.8-6.47 6.3a2.35 2.35 0 0 1-1.92-1z" class="cls-189"/>
    <path d="M41.05 115.15l2.06.07c2.4-.13 3.5 2.5 5.8 2.5a3.72 3.72 0 0 1 2.1.8 8.16 8.16 0 0 1 1.6 2.82 6.38 6.38 0 0 1-2.7 7.28c-2.5-2.27-3.5-5.58-5.5-8.24-1.2-1.62-2.1-3.4-4.5-3.3z" class="cls-190"/>
    <path d="M44.26 91.24c-1.8 2.72-.76 5.8-1.1 8.7-.22 1.9.5 4.1-1.94 5.15-1.3-1-3-1.9-2.27-4-1.37-.4-2.73-.9-4.1-1.2-3.18-.9-4.3-2.6-2.62-5.7 1.25-1.2 2.16-2.5 1.92-4.3-.53-4 2.22-7 3.68-10.4 1.08-2.5 3.5-1.8 5.4-.2 1.28 1.3 1.5 3.2 2.13 4.8.34 1.9 1.43 3.7 1.1 5.7a3.17 3.17 0 0 1-.8 1.2 1.38 1.38 0 0 1-1.4 0z" class="cls-191"/>
    <path d="M42.16 80.15c-2.7.5-7 6.15-7 9.63 0 2.2-.23 4-2.88 4.38-.22-.85-4.33-1.5-.1-2.62 1-.27 1-1.53.9-2.5l3-13h.3c3.26-2.52 5.42-1.42 6.84 2.1a2.3 2.3 0 0 1-1.06 2z" class="cls-192"/>
    <path d="M38.95 101.04l2.27 4c-1.6 0-3.3.63-4.8-.6-.07-1.8 1.55-2.38 2.53-3.4z" class="cls-193"/>
    <path d="M39.28 73.15l-.12-3.13c.83-3.6 3.26-6.25 5.4-9.08a3.1 3.1 0 0 1 1.12-1c1.73-.27 3-2.28 5-1.45 2.17 1.4 3.36 3.3 2.44 6.1a24.9 24.9 0 0 1-2.8 6.4 6.46 6.46 0 0 1-2.74 1.3 4.1 4.1 0 0 1-1.45-.1c-1.33-.8-2.3-.5-2.92 1-.7 1-1.2 2.4-2.8 2a1.44 1.44 0 0 1-1.1-2.2z" class="cls-194"/>
    <path d="M32.37 68.27c.36-4.24 4.64-6.77 4.86-11.08a1.82 1.82 0 0 1 1.93-.6c3 1.8.66 4.3.83 6.4a1.9 1.9 0 0 1-1 .9c-2.3 0-2 2.1-2.9 3.3-1.1 1.3-2 2.8-3.8 1z" class="cls-195"/>
    <path d="M38.95 63.93q.16-.42.3-.85c2.45-4.2 3.2-4.3 6.78-1-1.8 3.07-4.4 5.44-6.84 7.93z" class="cls-196"/>
    <path d="M39.28 73.15c2.23 2.53 1.53-1.3 2.64-1.22a2.13 2.13 0 0 1 3 .7 5 5 0 0 1-1.15 5.5 1.43 1.43 0 0 1-1.6.1c-2-.5-3.43-2.7-5.84-2.1a6.6 6.6 0 0 1 2.95-2.98z" class="cls-197"/>
    <path d="M166.16 100.15l-9.8 5.9c.12 1.5-.87 1.77-2 1.85a3.1 3.1 0 0 1-2-1.14 41.47 41.47 0 0 1-.3-12.07c.33-4.2 4.15-4 6.9-5a8.8 8.8 0 0 1 3.4.2 3 3 0 0 0 1.3.2l3.56 3.7c-.3 2.1.54 4.3-1.06 6.2z" class="cls-198"/>
    <path d="M158.98 78.4l2.13 8.83c-1.3 1.9-3.2 1.25-5 1.4-2.1.17-3.5-1-4.6-3.28-.3 1.9-.4 3.15-.7 4.4-.4 2.88-1.9 4.1-4.8 2.9-2.3-4.6-1-9.55-1.4-14.35a3.05 3.05 0 0 1 1.3-1.3 10.73 10.73 0 0 1 3.7-.73c3.3.04 7.1-1.8 9.5 2.13z" class="cls-199"/>
    <path d="M158.98 78.4l-9.82-.25c-2.55-3-1.6-5.6 1.63-6.58 3.6-1.13 6.8-3.34 10.4-4.46l2.9-1c1.6 3.9-.7 6.5-2.9 9.1-1.4.5-.8 2.3-1.9 2.9z" class="cls-200"/>
    <path d="M162.16 63.23c2.1.3 3.33-1.43 5-2.08 3.14 1.18 3.2 3.8 3.12 6.53-.08 2.47-.08 4.95-.1 7.42-1.27-2.28-.7-4.78-.8-7.18-.25-5.32-.18-5.32-5.08-2.67a2.22 2.22 0 0 1-2.14-2.02z" class="cls-201"/>
    <path d="M166.16 100.15c.1-2.12-.2-4.3 1-6.24 1.1 1.6 1 3.4 1 5.2l-.3.9z" class="cls-202"/>
    <path d="M159.3 78.05c.23-1.24-.82-3.3 1.9-2.9 0 1 0 2-.1 3a4.83 4.83 0 0 1-.5 1.25z" class="cls-203"/>
    <path d="M155.4 87.37l5.72-.14c1.1.76 2.25 1.5 2.52 3h-.48c-2.65-.37-5.43-.07-7.88-1.5a.87.87 0 0 1 .1-1.36z" class="cls-204"/>
    <path d="M76.08 16.08l2-1.16c1.72.06 3.44.22 5.16.27a2.28 2.28 0 0 1 .93.9c1.88 3.7 3 7.2-1.93 9.6-1.73.8-1.58 2.3-.85 3.8.5 1 1 2.1 1.5 3.1 2 3.3 3.7 5.6-2.2 7.8-3.4 1.3-4.3 1.2-5.7-1.5-3.5-2-1.9-6.3-4-8.9a7.8 7.8 0 0 1-.8-3.2l-.2-1.6c1.8-3.2 5.3-5.3 6.1-9.2z" class="cls-205"/>
    <path d="M59.16 23.07c.54-3.9 3.45-6.63 5-10l1-1.88.18-1.2c3.9 4.1-1.65 6-2.18 9.1-1.15 1.7.77 3.3.16 5l.1.8c3.2 2.7.87 6 1 9.1a3.22 3.22 0 0 1-.88 1.1 4.65 4.65 0 0 0-3.8 4.4l-.16 1.5c-3.5 3.3-2.57 9.2-6.82 12.2-3.9 0-4.16-2.1-3.53-5.3.5-2.5 2.62-5.3-.38-7.7l-2.67-.2-1-1.1a3.46 3.46 0 0 1 3-2.1l2 .1c1.26-1.5 2.76-2.8 2.52-5.1-.45-4.3 1.55-7.3 5.2-9.3a1.43 1.43 0 0 1 1.26.2z" class="cls-206"/>
    <path d="M70.4 27l2.66 1.3a43 43 0 0 1 .67 14c.4 3-1.4 5.37-2.4 7.94-.8 2.12-2.65 2.2-4.54 1.18-4.7-6.93-2.9-14-.4-21l.7-.22z" class="cls-207"/>
    <path d="M76.16 16.1c.93 5-1.52 7.8-6.1 9.13-.78-1.8-1.17-3.57 1.16-4.46s2.94-3.43 4.94-4.67z" class="cls-208"/>
    <path d="M63.2 34.15l.2-9.14c2.37 1 3.3 2.9 3.83 5.2-1.65 1.1-1.24 4.2-4.02 4zm.1-10a3.85 3.85 0 0 1-.17-5c.34 1.67 2.8 3.28.16 5z" class="cls-209"/>
    <path d="M154.22 149.15l-1.06 1.07c-2.32-.1-4.34-2.12-6.84-1-1.17.33-1.47-.42-1.65-1.33.56-3.4 2.77-4.2 5.78-3.7a2.4 2.4 0 0 1 1.2 1.2c-.2 1.9 1.72 2.4 2.57 3.7z" class="cls-210"/>
    <path d="M145.16 148.25l1.16.92c.1 2.8-3.26 1.4-4 3.25l-1.1-1.27c-1.82-1.6-2.08-3.56-.14-4.9s3.28.08 4.08 2z" class="cls-211"/>
    <path d="M72.05 42.15c2.52-4.46.62-9.25 1-13.86l3.85-.9c-3.7 4-2.24 7.8-1.77 11.6a17.28 17.28 0 0 0 1.13 7.9c.15 1.6 2.83 2 1.9 4.1v1c-1.3-.3-2 .2-1.44 1.5s.7 2.4-.54 3.4l-.8.3c-5.56-2.3-3.07-7.5-4-11.4a6.2 6.2 0 0 1 .67-3.8z" class="cls-212"/>
    <path d="M84.16 16.15l-.93-.14c-3.23-3.7-2.75-5.3 2-7 3 1.7 4.92 3.7 1.92 7l1 1.3c-1.64 1-2.67-.6-4-1.1z" class="cls-213"/>
    <path d="M78.16 51.1c-.93-1.26-2-2.46-1.9-4.15 2.75 1.57 6.23.17 8.88 2.16-1.53 3.5-4.34 2.4-6.98 2z" class="cls-214"/>
    <path d="M87.16 16.07c-1.77-1.72.83-4.16-1-5.87a1.6 1.6 0 0 1 2-.43l3 .36c.16 2.95.32 5.94-4 5.94z" class="cls-215"/>
    <path d="M88.16 9.77l-2 .43c-3.5.64-4 2.84-3 5.8l-3.13 3.15-2-4.17c2.86-1.58.3-4.86 2.12-6.77 2.17-1 4.3-2.4 6.88-1.4 1.44.6 3.04 1.2 1.13 3z" class="cls-216"/>
    <path d="M146.16 77.9l-1 .3a2.28 2.28 0 0 1-1.18.73 2 2 0 0 1-1.83-.85c-1.6-1.72-1.17-4-1.74-6-.4-1.54-.5-3.6-2.7-4-3.6-1.84-4.3-4.78-1.4-7.5a21.5 21.5 0 0 0 5.3-7.9c.8-3 2.3-5.33 5.9-5 3.8.66 3 3.85 3.6 6.32 1.6 1.7.5 4.42 2.2 6.1.6 2.6-1.9 2.5-3.4 3.54 3.1 2.06 6.7 1.08 9.7 2.36-1.4 3.67-4.8 4.28-8.1 4.65-3 .34-5.7.34-4.1 4.64.4.9-.5 1.8-1.1 2.6z" class="cls-217"/>
    <path d="M146.16 77.9c-.3-.94-.32-2.27-1-2.75-4.7-3.54-2.32-5.85 1.14-8.26 1.5-1 2.53-2.8 2.73.8.1 1.5 1.92.7 2.9.4 2.54-.7 5-1.5 7.56-2.2l1.7 1.1c-1 3.8-3.5 5.7-7.3 6-3 .2-4.9 1.7-4.8 5a3.72 3.72 0 0 1-3-.2z" class="cls-203"/>
    <path d="M151.04 53.97c-3-.27-2-3.7-3.85-4.84a7.93 7.93 0 0 1-5.3-4c-.8-1.3-1.3-2.92 1.3-3 2.7.4 4.3-1.62 6-3.12 3-4.5 6.2-8.9 12.8-7.2l2 .1 1.1.4c1 1.4 1.5 3 .1 4-5.6 3.9-7.7 10.4-12 15.2z" class="cls-218"/>
    <path d="M162.08 31.8c-3.44 0-6.52.22-7.28 4.65-.53 3.14-3.25 2.63-5.54 2.55-2.8-3.5-1.76-6.07 1.94-8l4-.82c2.05 1.52 4.77.26 6.88 1.62z" class="cls-219"/>
    <path d="M153.24 51.33c.5-5.13 4.18-8.94 5.68-13.65a3.67 3.67 0 0 1 3.35-2.56 3 3 0 0 0 2.87-2.9c5.7 3.77 5.8 4.66.77 8.86-4.1 3.48-8.4 6.84-12.6 10.25z" class="cls-220"/>
    <path d="M168.16 131.15c-3.13 1.48-5.2 4-6.92 6.93.6 3.35-2.7 2.64-4.08 3.93l-1.12.2a2.8 2.8 0 0 1-2.43-.8 2.6 2.6 0 0 1 0-2.6c.7-1 1.8-1.3 2.5-2.2 2.8-1.2 3.1-5.8 7.2-5.2 2.5-1.1 3.7-4.1 6.7-4.4a7.23 7.23 0 0 1-1.7 4.3z" class="cls-221"/>
    <path d="M171.16 120.15c.1-3.33-.55-6.72.86-9.93-.2 3.3.9 6.74-.86 9.93z" class="cls-222"/>
    <path d="M163.28 131.28a19.65 19.65 0 0 1-6.36 6.53c-.93.5-1.4-.1-1.86-.7a14.68 14.68 0 0 1-.4-4.4c.94-4.3-1.43-7.9-2.53-11.7-.7-3.2-.5-6.1 3.38-7.2 1.6-.6 3.2-1.1 4.5.4 1.7 2.8.8 6.4 3.1 8.9 1.8 2.8 1 5.6.2 8.4z" class="cls-223"/>
    <path d="M163.1 122.92c-2 .57-3.06 0-3.1-2.3a50.4 50.4 0 0 0-.65-5.3c.22-1.5.58-3.2 2.54-2.44 2.1.84 1.5 2.82 1 4.54z" class="cls-224"/>
    <path d="M162.96 117.4c-.93-1.16.46-6.33-3.6-2.08-1-1.13-2.12-.46-3.2-.16-1.36-.9-2-2.1-1.14-3.65s2.43-1.9 4.14-1.3l2-.1 2 1.1a5 5 0 0 1 .22 5.7z" class="cls-225"/>
    <path d="M163.4 116.9l-.24-5.75c2.8.7 2.87 2.3.25 5.75z" class="cls-226"/>
    <path d="M159.16 110.15c-1.53 1.33-3.94 2.14-3 5-3.28 1.08-1.56 3.85-2 5.9a1.15 1.15 0 0 1-1.26.4 16.94 16.94 0 0 0-5.38-4.8 8.6 8.6 0 0 1-1.7-3.45 5.4 5.4 0 0 1 .25-2.33c2-2.94 5.16-3.25 8.22-3.86l2.1-1a4.56 4.56 0 0 1 3.7 2.3z" class="cls-227"/>
    <path d="M99.16 120.22v2.93c-.1 1.7 1.1 2.35 2.4 2.9 1.18 1.9 6.72 2 2.62 6.13l-15.14 8-.88-.03c-2.43-3.82-4.53-7.67-1-12 3.15-3.37 7-5.7 11-7.9z" class="cls-228"/>
    <path d="M67.65 137.15l-.88 1c-.67 1.2-1.52 2-3 1.78a3.3 3.3 0 0 1-1.72-1.34c.37-3.5-2.1-6.3-2-9.6a6.9 6.9 0 0 1 2.87-3.5c1.87-1 1.73-4.7 4.35-4.2 4.4.8 9.26-1.3 13.27 2 .38 1.5-.73 2.2-1.64 3a48.34 48.34 0 0 0-6 6.7c-1.66 1.5-2.67 3.8-5.25 4.1z" class="cls-229"/>
    <path d="M95.34 109.15c.88 3 4.7 5 3 8.9l-1.18.1a2.15 2.15 0 0 1-2.07.38c-3.2-.66-6.2-.73-9 1.16-1.9 1.2-4 1.1-6.2 1a3.7 3.7 0 0 1-2.1-.9 2.72 2.72 0 0 1-.4-2.9 8 8 0 0 1 1.4-2.7c1.6-1.1 2.7-2.7 4.4-3.6a7.65 7.65 0 0 1 8.2-1.6 15.27 15.27 0 0 0 3.6 0z" class="cls-230"/>
    <path d="M64.43 139.15l2.34-1c.56 1.28 2.1 2.34.92 4a2.35 2.35 0 0 0-.2 2.74c2.9 5.3 2.8 5.5-3.2 7.2 1.4-3.6-.7-5.8-3-8l-3.1-5.1a6.56 6.56 0 0 1 1.1-.8c1.8-.4 3.3 1.2 5.1.9z" class="cls-231"/>
    <path d="M72.16 132.15a28.48 28.48 0 0 1 5.94-6 .75.75 0 0 1 0 1.3c-.8 1.23-1.58 2.5-2.45 3.7s-1.42 2.42 0 3.45c1.7 1.24 3 2.53.9 4.3-1.9 1.65-3.9 1.87-5.4-.72a5.2 5.2 0 0 0-1.07-1c-.92-2.37 2.15-3.03 2.08-5.03z" class="cls-232"/>
    <path d="M79.22 145.26c1 .93 2.54 1.35 3 2.9-1.2.75-2.93 1.06-3.22 2.7-.7 3.85-2.84 1.8-4.64 1.25-2-2-2.43-3.7.9-4.9a33.9 33.9 0 0 0 3.96-1.9z" class="cls-233"/>
    <path d="M98.16 120.24c-2.57 4.17-7.44 5.13-11 7.9 2.8-3.8 5.5-7.8 11-7.9z" class="cls-166"/>
    <path d="M95.1 117.84l2.06.3c-4.46 2.2-10.2.9-13.94 5.07a.82.82 0 0 1-1.33-.2c1.1-4.3 5-4.4 8.3-5.2a10.93 10.93 0 0 1 4.9.1z" class="cls-234"/>
    <path d="M72.16 132.15c1.6 2.6-1.46 3.3-2 5a2.23 2.23 0 0 1-2.48 0z" class="cls-235"/>
    <path d="M101.27 118.25l1.94-2.05c1-1.36 2.2-2.6 3.9-.78-1.3 2.2-2.8 4.05-5.7 3.64a4.24 4.24 0 0 1 0-.8z" class="cls-236"/>
    <path d="M82.16 123.15h1.1c-1.42 1.74-2.9 3.42-5.1 4.2v-1.3l2.1-2c.32-.77.8-1.44 1.9-.9z" class="cls-237"/>
    <path d="M59.27 138.86l-1.06.1a5.53 5.53 0 0 0-1.5-4.65l-2.6 2.8.2-1.9.2-4.3c3.6-1 6.1 0 7.3 3.7-.3 1.7-.6 3.4-2.2 4.4z" class="cls-238"/>
    <path d="M120.02 130.03c-1.4 1.4-2.24 2.57-5.1 2s-6.43.62-9.72.23c.52-3.56 3.1-4.54 6.15-4.93a17.9 17.9 0 0 0 4.9-3.7c1.22-1.13 3-1.12 4.3-2 1.82-.47 2.68-2.92 5-2.38a3.9 3.9 0 0 1 2.73 2.43c.65 3-1.13 4.8-3.55 5.7a32.35 32.35 0 0 0-4.7 2.65z" class="cls-239"/>
    <path d="M113.87 138.07c2.33-2.52 6.37-2.82 8-6.2a26.2 26.2 0 0 1 4.36-2.92 3.12 3.12 0 0 1 2.23.5c1.92 1.6.35 4 1.32 5.86-.08 1.9-.2 3.7-2.32 4.5a3.22 3.22 0 0 1-1.4.1c-1-.2-1.65-1.2-2.77-1.2-1.5-.1-2 1.4-3.1 1.8a7.82 7.82 0 0 1-5.6-1.1 2.6 2.6 0 0 1-.8-1.2z" class="cls-240"/>
    <path d="M128.1 130.06l-2 .5c-1.65-.44-3.48 1.1-5-.44l-1.07-.1c.74-2 .33-4.76 4-4.48 1.9.15 2.34-2 3.17-3.4a2.7 2.7 0 0 1 2.9-2c3.3 1.27 2.44 3.67 1.43 5.93-.5 1.14-1.74 1.9-2.2 3.14a2.5 2.5 0 0 1-1.23.9z" class="cls-241"/>
    <path d="M113.87 138.07l1.3.08c-.4 3.46-4.18 6.5-9.23 7.42-1.48-.15-2.07-1.34-2.77-2.4-.94-1.9-.1-2.87 1.64-3.8 2.9-1.62 6-1.22 9.1-1.3z" class="cls-242"/>
    <path d="M112.16 128.15l-7 4.08-1-.1c1.1-3.44-2.53-3.38-3.76-5.08.53-4.6 4-.9 5.73-2l4 1.2c.72.54 1.9.66 2.03 1.9z" class="cls-243"/>
    <path d="M103.16 143.15c1.12-.44 2.45-1.3 2.2 1.08 2.1 1.8 4 3.65 2.92 6.82a2.5 2.5 0 0 1-1.15 1.08l-.74.16c-1.5-2.7-7.3-3-4.3-8.1z" class="cls-244"/>
    <path d="M121.1 130.15c1.65.35 3.6-2.7 5 .43a4.14 4.14 0 0 1-4.24 1.3z" class="cls-245"/>
    <path d="M127.16 166.2l-1.1-1.1c-.62-3-2-.73-2.62-.2-1.86 1.5-3.4 3.53-6.24 2.47 1.75-3.1 2.44-7.5 7.83-5.86a2 2 0 0 0 2.3-1.4c.54-4.3 4.3-5.9 6.75-8.7a.6.6 0 0 1 1 .1c2.16 3 .37 6.6 1.36 9.8.47 1.6-1.7 2.6-3.4 2.9-2.07.5-4.2.8-5.9 2.2z" class="cls-246"/>
    <path d="M112.1 165.15c-2.1-2-3.15-3-2.2-7.27 1.32-5.8 6.94-6.33 8.23-10.82 1.25-4.7 5.86-3.26 8.83-4.83 2.4 1.62 5.52 2.8 4.34 6.74-12.14-.72-19.2 5.24-19.2 16.18z" class="cls-247"/>
    <path d="M131.3 149c-1.48-1.9-4.46-2.7-4.14-5.84l-.14-.72c1.35-3.28 3.3-6.3 4.3-9.72a3 3 0 0 1 1.28-.78c3-.27 3.7 1.6 4.48 4 1.34 4.16-.62 8.35.54 12.45a3.5 3.5 0 0 1-1.46 2.6l-1 .3-1-.1z" class="cls-248"/>
    <path d="M127.16 143.15c-2.28 3-6.47 1.58-9 3.92l-4.87 2.18c-1.8.34-2.7-.57-3.3-2.12.7-6.42 6-5.83 10.3-6.77 2-1.12 3.9-2.13 6.2-.73 1.6.9 1.4 2.14.6 3.47z" class="cls-249"/>
    <path d="M111 146.96l2.26 2.3c-1.87 1.35-2.64 5-6.15 2.86q.2-.46.2-.93c.9-1.8.3-4.8 3.7-4.3z" class="cls-250"/>
    <path d="M48.83 40.35c4.44 1.17 4.17 4.35 3.27 7.76-.36 1.4-2.48 2.8.15 4a2.53 2.53 0 0 1 1.1 2c-.58 2-.23 4.6-3.2 5a5.6 5.6 0 0 1-3.72 2c-2.38-.4-1.6-3.1-3.2-4.1-1.9-1.5-4.33-2.6-4.43-5.6 2-3.3 5.6-4.7 8.26-7.3.74-1.1 1.83-2.1 1.77-3.6z" class="cls-251"/>
    <path d="M39.16 51.15c2.92-.2 3.56 2.45 5 4-.26 4.55-2.74 3-5.1 1.87l-1.9.1c-1.44-.27-2.94 2.08-4 .52s.83-2.9 1.9-4.05a33.78 33.78 0 0 1 3.1-2.5.6.6 0 0 1 1 0z" class="cls-252"/>
    <path d="M39.16 51.15h-1c2.17-3.37 4.56-6.47 8.93-7-1.3 3.84-5.2 4.74-8 7z" class="cls-253"/>
    <path d="M58.24 23.24c.78 1.64-.1 2.06-1.5 2.8-2.4 1.3-4.16 3.6-3.13 6.43 1.4 3.74-.9 4.17-3.4 4.7a30.62 30.62 0 0 1 1.1-3.7c1-2.4 1.3-4.37-1.8-5.4-2-.68-2.3-1.74-.2-2.85a62.8 62.8 0 0 1 9-1.98z" class="cls-254"/>
    <path d="M58.24 23.24c-2.92 1.06-5.42 4-9 2l.95-2.93c2.5 0 5 1.3 7.5-1 .9-.8 1.3.9 1.4 1.8l-1 .2z" class="cls-255"/>
    <path d="M116.16 71.15c4-2.8 4.78 1.6 6.88 3.08.47.46 1.22.92 1.15 1.55-.9 8.2-1.9 16.38-4.8 24.14a3.14 3.14 0 0 1-1.6 1.16l-.8.18c-1.5-1.25-2.6-2.9-2-4.77.7-2.5 0-3.8-2.1-4.8-1.4-.7-2.2-2.4-1.3-3.3 3.6-3.8 1.7-7.5.4-11.3z" class="cls-256"/>
    <path d="M107.02 115.42l-3.8.78c-5-6.36-5.14-13.74-4.36-21.4 2.67 6.9 4.1 14.35 8.16 20.62z" class="cls-257"/>
    <path d="M94.93 91.05a5.23 5.23 0 0 1-.7 4.12c-2 3 0 6.22-.5 9.34-.32 2.1-.15 4.1-3.15 3.5-.8-.4-1.5-1.1-1.2-1.9 1.17-2.8-.52-4.6-2.2-6.4-.13-3 .5-6 .7-9.1 1.1-3.1-.1-8.2 6.08-6.9 1.86 2.3-.35 5.1.97 7.4z" class="cls-258"/>
    <path d="M95.16 72.15l1-4c1.62-1.8 4-2.66 4.4-5.88.36-2.6 2.88-.18 4.44-.08l-.55.9c-2.13 2.6-3.7 5.4-3.32 9l-.57 1c-2 .7-2.3 6.4-6.1 2.1a3.3 3.3 0 0 1 .7-3.2z" class="cls-259"/>
    <path d="M121.16 123.15l-3.92 2.15c-2.45.2-3.88-1.3-5.13-3.1a1 1 0 0 1-1-1.06c2.6-1.78.8-4.83 2-7q0-.48.1-1c.8-2.8.8-6.3 5.4-5.28 1.2 1.36.7 2.84.1 4.18-1.9 4.14-.4 7.23 2.9 9.8a1.4 1.4 0 0 1-.3 1.3z" class="cls-260"/>
    <path d="M90.38 107.32c4.7-1.84 2.76-5.6 2.28-8.7-.27-1.77-1-3.2 1.57-3.45 0 4.68-.36 9.4 1.1 14 0 .5 0 1-.1 1.46-.23 1.67.8 4.3-1.44 4.63s-1.7-2.76-2.8-4c-1.7-1.1-2.5-2.3-.7-3.94z" class="cls-261"/>
    <path d="M118.16 108.15c-3.2.14-3 3.6-4.9 5-1.92-3.87 2.44-6 2.58-9.4 0-.87.82-1.7 1.26-2.57l.18-.08c3-.9 5 .8 6.7 2.9a3.53 3.53 0 0 1-.63 3.25c-1.55 1.5-3.08 3-5.2.9z" class="cls-262"/>
    <path d="M95.3 75.3c2.58 1.3 3.42-1.7 5.3-2.14-2.43 5.8-6.16 11.18-5.67 17.9-2.4-2.07 0-4.84-1-7.1a2.5 2.5 0 0 1-1.74-1.22c.3-2.78-2.3-6.78 3.1-7.44z" class="cls-263"/>
    <path d="M106.16 125.03c-.5 4.64-4.15.4-5.73 2-1.57-.95-3.7-1.7-1.26-3.95 2.4.28 5.23-.86 7 1.95z" class="cls-264"/>
    <path d="M112.16 122.15l5.13 3.1-5.2 2.9-2-1.94c2.4-.4 2.4-2.1 2-4z" class="cls-265"/>
    <path d="M101.16 72.15c-2.3-4.26.52-6.63 3.32-9z" class="cls-263"/>
    <path d="M113.16 114.15c-.52 2.37 2.37 5.7-2 7a18.63 18.63 0 0 1 2-7z" class="cls-262"/>
    <path d="M76.16 57.07c1.68.16 3.46-.14 4.9 1.08 1.5 4.16.88 8.2-.66 12.2a4.75 4.75 0 0 1-1.93 1.5C71.17 75.4 66.22 75.33 66.1 66a25.7 25.7 0 0 0-.55-2.92c-.32-2.68-3.57-5.37-.24-8 3.1-2.48 5.5.32 8.1 1.42.9.37 1.7 1.14 2.8.8z" class="cls-266"/>
    <path d="M79.32 69.94c-.3-4.06-.2-8.07 1.8-11.78 3.9 1.6 7.36 4.5 12 3.85 1.86 3.9-.12 7-1.93 10.2-3.6 4-7.3 2-11 .4a2.8 2.8 0 0 1-.9-2.5z" class="cls-267"/>
    <path d="M80.22 71c3.66.25 7.17 1.9 10.93 1.12a.64.64 0 0 0 .62.2c2.34 4 .77 7.47-1.27 10.93-1.43.83-2.8 1.83-4.6 1.45-3.56-.37-7.35.7-10.57-1.77a6.4 6.4 0 0 1-.94-1.4C74.2 74.3 75.5 72 80.2 71z" class="cls-268"/>
    <path d="M88.93 81.92c3.42-2.47 2.5-6.22 2.84-9.6l3.4-.17.13 3.13c-2.1 2.22-.26 5.5-2.1 7.8-1.76.9-3.28.8-4.27-1.16z" class="cls-269"/>
    <path d="M144.16 54.15c-1.62 2.42-2.72 5.2-5.53 6.72-3.44 1.87-1.74 4.65-1 7.22-.83 4.6-.83 4.6-3.44 4.1-1.3-4-5.6-3.3-8.1-5.3-3.7-1.8.6-4.7-1-6.8a54.52 54.52 0 0 1 9.4-11c.8-.3 1.7-.9 2.5.1.4 1.2-1.3 1.7-1 2.8a3 3 0 0 1 1-2 33.85 33.85 0 0 0 1.6-3 2.55 2.55 0 0 1 2.7-1.6c1.2.2 2.4 1.1 2.3 2.1-.4 2.2 1.8 4.3.4 6.5z" class="cls-270"/>
    <path d="M122.9 104.27c-2.52.08-4.6-.63-5.65-3.14 1.14-9.16 5.28-17.66 5.8-26.95h1.1c1.26 1.37 2.37 2.8 1.9 4.84a22.7 22.7 0 0 0-.16 4.4c-.4 1.68 1.1 3.13.6 4.84a13.66 13.66 0 0 0-.5 8.24c.2 1.4.4 2.8.7 4.17a3.8 3.8 0 0 1-1.7 3.2 2.9 2.9 0 0 1-2.2.4z" class="cls-271"/>
    <path d="M135.16 78.15c.5-1.33.4-2.95 2.17-4 1.3 1.48.48 3.36.94 4.9 3 4.2 3.55 9.13 4.17 14a21.72 21.72 0 0 0-2.77 11.32 12.37 12.37 0 0 1-.4 4c-2.4 3.2-4 2.63-4.55-1.1-.9-6.08-1-12.25-2.08-18.3.06-2.1.48-4.2.07-6.3a4.2 4.2 0 0 1 2.5-4.52z" class="cls-272"/>
    <path d="M141.16 93.15c-3.13-4.24-3.33-9.1-2.9-14.06 1.36-.1 2.84.3 3.9-1l2.1.2c1.7 3.5.6 7.2.86 10.9-.08 1.8-1.2 3-2.45 4a1.43 1.43 0 0 1-1.5-.1z" class="cls-273"/>
    <path d="M126.16 66.97c1.12-.26 2.24-.6 3.38-.78 6.3-1 6.93-.2 4.72 6a30 30 0 0 0-4.35 0c-4.7.6-5.5-1.4-3.7-5.3z" class="cls-274"/>
    <path d="M124.4 79.98l-.24-5.83a20.4 20.4 0 0 1 7.17 2.86c1.5 2.4.83 4.1-1.55 5.3-2.38.6-4.24 0-5.38-2.3z" class="cls-275"/>
    <path d="M129.16 81.4a6.33 6.33 0 0 0 2.17-4.37l3.83 1.12-.8 5c-2.5 1.7-4.2 1-5.2-1.76z" class="cls-276"/>
    <path d="M137.16 50.15l-2.5-1c2.8-2.13 4.3-5.27 6.23-8.08l1.2-1.06 1.1 2.1c-1 3.7 2.7 4.7 4 7-3.6.2-1.5 3.7-3 5a24.35 24.35 0 0 0-.5-3c-.5-1.5-.3-3.8-2-4.3-2-.6-1.6 2.2-2.7 2.9a5.14 5.14 0 0 1-1.9.5z" class="cls-277"/>
    <path d="M157.16 142c.8-1.88 2.8-2.52 4.08-3.92l2 .14-1.26 4zm-2.83-.66l1.75.82c-1.54 1-2.54 2.8-4.5 3.22l-1.35-.23c-1.14-1.26-1.47-2.55-.14-3.9 1.4-1.1 2.8-.5 4.2.1z" class="cls-278"/>
    <path d="M150.16 142.25c.83.93.42 1.92.12 2.9l-5.12 3.1c-3.07-1.4-4.26-.28-3.9 2.92-1.7 1.6-3.36.5-5-.1v-2.76a14.26 14.26 0 0 1 1-3.8 8.4 8.4 0 0 1 2.95-3.4 6 6 0 0 0 1.6-1c1.2-1.1 1.2-3.5 3.6-3.3 2.1.8 2.9 3 4.4 4.3a3 3 0 0 1 .5 1.3z" class="cls-279"/>
    <path d="M127.16 166.2c1 .1 2.25-.5 2.74.54s-.57 1.82-1.46 2.22c-1.17.53-2.14 1.67-3.75 1.3-1-2.43 1.4-2.84 2.4-4.06z" class="cls-280"/>
    <path d="M49.8 128.6l1.36-7.45c-.62-.68-.14-1.24.2-1.8a7.65 7.65 0 0 0 4.45-5.58c2.3-7.8 5.3-15.4 6.3-23.52 3.2-4.35 3.5-4.4 9.3-1.82 3.3 4.6-.3 8.17-1.7 12.07-2 3.87 0 7.5.7 11.2-.6 2.06-2.7 1.73-4.1 2.63a15.1 15.1 0 0 0-8 8.56c-.6 2.3-2.3 3.9-3.6 5.8a3.4 3.4 0 0 1-1.7 1.1z" class="cls-281"/>
    <path d="M52.85 129.9l.5-1.63c3-2.3 5.67-2.2 8 1 2.6 2.44 2 5.6 1.9 8.63-2.55.8-3.06-.68-3-2.74-.8-3-3.42-3.6-5.9-4.34z" class="cls-282"/>
    <path d="M44.26 91.24a2 2 0 0 1 .74-.3c2.6 3.15 1.82-2.1 3.44-1.38a2.8 2.8 0 0 1 2.72 1.27 6 6 0 0 1 .5 3.2c-.1 5.6-.42 11.2 1.66 16.56-.67 3-.16 6.4-3.35 8.3h-1.63c-3-2.9-3.07-5.9-.2-8.9-2.32-6.1-5.26-12-3.88-18.9z" class="cls-283"/>
    <path d="M48.16 110.15l.2 8.86c-.47 1.8-1.14 2.9-2.6.8-1-1.4-1.78-3-2.66-4.5 1.46-1.9.4-6.3 5.06-5.1z" class="cls-284"/>
    <path d="M49.98 118.95l1.18-7.8c.76-1.06 1.82-2.44 1.08-3.5-2-2.8-.45-5.67-.56-8.5.18-2.82.14-5.63.53-8.48s-1.1-6.9-3.6-9.68a3.3 3.3 0 0 1-.2-3.5c1.2-1.2 1.1-3 1.9-4.4 3.5-4 5.6-9.3 10.7-11.7 1.4-.9 2.8-1.5 4.4-.4 4.2 5.1.4 8.8-2.2 12.7-1.4 1.6-1.2 3.3-.5 5.1-1 4 2.6 7.2 1.8 11.1a70.08 70.08 0 0 1-7.2 25c-1.7 1.5-3 3.6-5 4.8l-.9 1.1z" class="cls-285"/>
    <path d="M49.8 77.97a1.46 1.46 0 0 0 0 2.32 14.74 14.74 0 0 1 .6 6.8c-.56 1.5-2.35 1.9-3.1 3.3a1.72 1.72 0 0 1-2.1-.3c.07-2.1-1.8-3.2-2.38-4.9 2.13-2.5 1.52-4.9 0-7.3A7.3 7.3 0 0 1 44 73c.48-1 .82-2.05 2.2-2l1.38.22c.9 2.16 4.06 3.6 2.23 6.65z" class="cls-286"/>
    <path d="M42.86 77.92c1.35.53 2.9.8 4 1.66 1.92 1.5 1.14 3.58.4 5.37-1.2 2.86-2.9.7-4.4.27-1.1-1.57-.16-3.42-.73-5.07v-1.93zm2.4 12.23l2.1-.16.44-.2.22.4c.42 2.6-.2 5.1-1 7.8-2.28-2.1-1.63-4.8-2.06-7.2a1.56 1.56 0 0 1 .3-.8z" class="cls-287"/>
    <path d="M61.22 63.15c-4.2 2.87-5.28 8.6-10 11-2.57-.5-3.15-2-2.08-4.26-.44-2.3 1.1-3.9 2.1-5.6a4.32 4.32 0 0 1 1.72-1.3 5.06 5.06 0 0 0 1.64-1.8c2.12-3.9 2.72-4 6.45-1.1a2.85 2.85 0 0 1 .17 2.8z" class="cls-288"/>
    <path d="M39.16 57.15c1.6-.93 4 .4 5.1-1.87 1.13-.55 2.2-2.28 3.44-1.35 1.56 1.17.08 2.63-.42 4a30 30 0 0 0-.84 3.3l-.4.94c-2.47-1.06-4.65-.18-6.78 1-2.32-2.02.36-4.08-.1-6.02z" class="cls-289"/>
    <path d="M53.07 64.15l-1.84.2c.93-2-.44-3.5-1.07-5.16l1.94-5.1c2.1 0 3 1.3 3.53 3.1-.47 2.4-.63 4.9-2.56 6.8z" class="cls-206"/>
    <path d="M49.16 69.86l2 4.3c.56 1.64 1.22 3.33-1.4 3.83-.56-2.3-3.13-3.9-2.18-6.7z" class="cls-290"/>
    <path d="M46.25 71.08a2.85 2.85 0 0 1-2.2 2l-2.13-1.13c.37-2.66 2.7-3.87 4.07-6.32 1.7 2.2.1 3.85.2 5.45z" class="cls-291"/>
    <path d="M146.02 92.15c2.44-.1 3.56-1.33 3.28-3.8 1.44-1.47 2.85-1 4.23.1 1.74 2.14 5.3-.1 6.72 2.8-2.14-.46-.77 6.1-4.9 2.34-.9-.9-.88 1.5-1 2.5-.46 3.3 1.78 6.8-1.07 9.9-1.5 2.7-4.23 3.3-6.94 3.8-3.13-2-1.06-5.5-2.3-8.1-.12-3.4-1.8-7.1 1.98-9.7z" class="cls-292"/>
    <path d="M160.25 91.26c-2.64-.2-5.36.35-7.9-.84a2.9 2.9 0 0 1 3.08-2.14 9.3 9.3 0 0 1 7.73 1.87c-.45 1.82-1.92.8-2.9 1.1z" class="cls-293"/>
    <path d="M146.23 109.15c2.6-.42 4.8-1.76 7-3.06l1 1c-1.7 2.4-4.76 2.7-7 4.2-1.38 1.7-2.82 2.7-4.6.5a2.6 2.6 0 0 1 0-1.6c.9-1.5 2.22-1.5 3.6-1.1z" class="cls-294"/>
    <path d="M155.43 88.27a2.76 2.76 0 0 1-3.08 2.14l-3.06-2c-1.2-3-3-7.1.9-8.5s2.8 3.7 4.2 5.8c.3.6.6 1.2 1 1.7a7.1 7.1 0 0 0 0 .9z" class="cls-295"/>
    <path d="M146.02 92.15c-.72 3.28-2.06 6.58.3 9.77.15 1.9-.9 2.84-2.6 2.55-1.5-.26-1.74-1.6-1.67-3.07a35.9 35.9 0 0 1 .33-4.27c.52-2.3.4-4.74 1.6-6.88l.28-11.93a2 2 0 0 1 .92-.13c1.78 4.5-.02 9.3.84 13.9z" class="cls-296"/>
    <path d="M53.07 64.15l1.16-6.92c-.28-6.05 2.82-11.32 4-17a5.38 5.38 0 0 0 .14-.7c1.9-1.5 2.92-3.8 4.87-5.25 1.34-1.32 2.06-3.26 4-4-1.17 6.66-.4 13.3 0 20-.7 4.75-2.35 8.87-7.13 11-1.6-.6-3.2-1.72-4 1-.4 1.33-1.6 1.72-2.9 1.87z" class="cls-114"/>
    <path d="M58.16 40.15a26.67 26.67 0 0 1-4 17l-2.14-3.1.16-2c1.9-4 3.12-8.36 5.98-11.9zm5-6c-1.06 2.28.1 6.6-4.87 5.26a4.85 4.85 0 0 0 .1-1.4c-1.1-4.5 1.3-4.9 4.7-3.8z" class="cls-209"/>
    <path d="M60.9 29.9a2 2 0 0 1-2.33 2c-.9 0-1.72-.42-1.42-1.5a2.54 2.54 0 0 1 2.35-2.2c1-.05 1.35.8 1.4 1.7z" class="cls-297"/>
    <path d="M60.1 61.15l7.13-11c1.92.67 2.72-.2 2.92-2a12.26 12.26 0 0 1 1.9-6 35.1 35.1 0 0 0 4.1 15.1c-2.6.5-5.57 4.48-7.6-.82a2 2 0 0 0-1.76-.18c-1 .44-.9 1.32-.2 2 1 1.2 1.6 2.45.7 4h-2.2l-3.9.92z" class="cls-298"/>
    <path d="M156.16 137.15l.74.67a1.4 1.4 0 0 1-1.74 1.33c-1.42-.5-2.8 1.1-4.24.08-1.6-1.2-1.78-3.4-3.24-4.7-.5-.58-.94-1.18-1.38-1.8a6 6 0 0 1-.36-3.15 3.46 3.46 0 0 1 3-2.46c3.5.55 3.72 4 5.48 6.13.26 1.44.44 2.9 1.74 3.9z" class="cls-278"/>
    <path d="M150.97 137.9c1.45.22 3.07-.1 4.2 1.24l-.83 2.2c-1.2 1.24-2.78.72-4.2.9a3.86 3.86 0 0 0-.84-.14c-1-2.02-.9-3.6 1.67-4.2z" class="cls-299"/>
    <path d="M153.23 121.05h.93c3.62 3.15 2.24 7.2 2 11.05-2.16.8-3.08-.72-4-2.15-.84-2.1-.18-4.45-1.12-6.52a3.14 3.14 0 0 1 .28-1.53 1.65 1.65 0 0 1 1.9-.85z" class="cls-300"/>
    <path d="M153.3 130.28c1.86-.84 2 1 2.83 1.8v5c-2.18 0-3-1.25-3.27-3.2-.2-1.2-.9-2.5.43-3.6z" class="cls-301"/>
    <path d="M146.92 113.55l2.14 1.66c1.87 2.1 1.38 4.4.35 6.6a4.05 4.05 0 0 1-3.6 2.2 7.57 7.57 0 0 1-3-.9c-.8-.3-.7-1.5-1.6-1.7a4.42 4.42 0 0 1-1.5 1.5c-3 .4-5.2-1.9-8-2.3a10.76 10.76 0 0 0-1.5-.4c-3.6-2.2-1.3-4.4.1-6.6a4.25 4.25 0 0 1 2.1-.8c1.2-.2 2.4-.5 3.5-.8a17.38 17.38 0 0 0 3.3-1 8.53 8.53 0 0 1 1.4 0c2.3.9 3.8 3.4 6.6 2.9z" class="cls-302"/>
    <path d="M146.92 113.55c-3.57 5.86-4.9.8-6.8-1.4a1.28 1.28 0 0 1 .93-1.67 2.28 2.28 0 0 1 2 .55c1.32 1.15 2.74.8 4.18.27z" class="cls-303"/>
    <path d="M148.16 121.15l.94-5.9c2.32 1.28 4 3 4.16 5.83l-1 1.26c-1.74.6-3.23.67-4.1-1.2z" class="cls-304"/>
    <path d="M56.16 122.15c.86-1.58 1.8-3.13 2.57-4.74 2.5-5.1 2.48-5.1 6.27-4.3 3.7.6 7 3.2 10.94 2.6a3.34 3.34 0 0 1 3.22 1.5l-.83 1.9c0 .4-.5 1.1.25 1.2a2.3 2.3 0 0 0 1.58-1c4.45 1 8.08-3.4 12.6-1.9.77.3 1.55.5 2.32.7-4.78.7-9.93.4-13 5.3l-1.92 1c-4.13-2.5-8.6-.1-12.95-.8-1.9-.3-1.7 3-2.2 4.8-4.4.3-6.3-3.2-8.8-5.9z" class="cls-305"/>
    <path d="M56.16 122.15c3.44-1.27 5.35.83 6.9 3.34.57.9.82 2 2 2.6-.93 1.3-2.4.9-3.68 1.1-3 2.1-5.18-1.7-8-1z" class="cls-306"/>
    <path d="M60.16 135.15l3 2.74 1.22 1.2c-1.83 2-3.5 1-5.16-.3z" class="cls-307"/>
    <path d="M90.38 107.32l.68 3.83c-2.3.33-4.88-1.3-6.92.95-3.14.1-6.37 3.65-9.4-.27a2.72 2.72 0 0 1-.2-1.55 2.64 2.64 0 0 1 .8-1.24 7.77 7.77 0 0 1 2.76-1c5.15-1.18 5.68-2.37 3.34-7.1 0-2.24 1.33-3.42 3.4-3.93a3.3 3.3 0 0 1 3.3 2c4.02 1.1 4.78 3.8 2.24 8.4z" class="cls-308"/>
    <path d="M80.16 119.15a4.75 4.75 0 0 1-.38.9c-2.1 3.1-5.1 2.14-7.94 1.67a1 1 0 0 1-.58-1.6c1.94-2.8 4.53-1.77 7-1.05z" class="cls-309"/>
    <path d="M75.1 110.96c2.7 2.63 6.22-.7 9 1.18l-4 3.15c-3.26.6-6 .4-6.44-3.8a1.1 1.1 0 0 1 1.43-.6z" class="cls-310"/>
    <path d="M74.3 111.2c1.06 2.64 3.92 2.7 5.85 4.1l-1 1.85-4-.12c-1.2-1.26-4.16-.66-3.9-3.44.12-1.7.8-3.2 3.04-2.4z" class="cls-311"/>
    <path d="M132.86 113.82l-1.8.43c-3 1-2.9 5.06-6.06 5.8-.93 1.44-1.85 2.9-3.8 3.07l-.2-.94c-6.17-6.33-5.86-7.65 2.48-10.8.76-.27 1.45-.72 2.24-1 2.56.77 5.85 0 7.14 3.44z" class="cls-312"/>
    <path d="M125 120.05c-1.28-5.36 2.85-5.1 6.04-5.8-.24 1.7-2.34 3.48.28 5 .3 1.08-.45 1.48-1.23 1.85l-3 1.05a3.12 3.12 0 0 1-2.2-2.1z" class="cls-313"/>
    <path d="M111 146.96l-3.7 4.2c.12-2.55-2.3-4.37-2-7l9.86-6c1.72-1.1 3.32-.7 4.86.4 1.5.72 2.17 1.76 1.23 3.38-3.7 1.14-7.82 1.37-10.26 5.02z" class="cls-314"/>
    <path d="M128.1 130.06a7.4 7.4 0 0 0 .3-.82 11.76 11.76 0 0 1 8-5.33 2.82 2.82 0 0 1 2.6 1.6 3.17 3.17 0 0 1 .2 1.6c-.44 1.6-1.82 2.4-2.76 3.6-1.18 1.3-3.07 1.4-4.3 2.6l.08-.1c-1.2 1-1.73 3.1-3.93 2.2-1.7-1.6-.4-3.4-.2-5.2z" class="cls-315"/>
    <path d="M128.3 135.25c1.3-.73 2.13-2.3 3.92-2.14.13 4.3-2.54 7.1-5 10l-1.14-3a.58.58 0 0 1 .15-.9 7.6 7.6 0 0 0 2.06-3.9z" class="cls-316"/>
    <path d="M126.16 139.23q-.06.45-.15.9c-2-.54-2.8 2.2-4.8 1.78l-1.2-3.3 3.1-4.3c1.4 1.2 1.2 3.4 2.8 4.5l.4.6z" class="cls-317"/>
    <path d="M125.85 138.72c-3.66.2-2.3-2.72-2.8-4.48 1.7 1 3.26 2.1 2.8 4.48z" class="cls-318"/>
    <path d="M136.16 125a19.94 19.94 0 0 1-7.77 4.24c-1.6-3.15 3.5-4.9 1.7-8.14l1.2-1.85a6.78 6.78 0 0 1 .9.05 8.32 8.32 0 0 1 4.5 2.7c1.1 1.2 1.1 2.27-.6 3z" class="cls-245"/>
    <path d="M132.16 133.15c.83-1.46.23-4.08 3.14-3.86 3.84-.1 6.68 1.1 7.18 5.4-.25 1.3-1.27 2.2-2 3.2-1.13 2.1-1.16 4.6-1.95 6.9a5.55 5.55 0 0 1-2.4 3.3c-1.56-1.8-.36-3.8-.38-5.7-.04-3.5-.22-7.1-3.6-9.4z" class="cls-319"/>
    <path d="M88.16 99.15a3.63 3.63 0 0 1-2.82-1.12c-2.78-.6-3.7-2.88-4.63-5.16.1-3.22-.1-6.57 4-7.62 3.8.22 4.5 2.78 4.5 5.9 3.7 3.16.4 5.44-1 8z" class="cls-320"/>
    <path d="M89.16 91.15L85.3 86a1.63 1.63 0 0 1-1.53-2 .92.92 0 0 1 1.4-.85l3.75-1.26 4.3 1.1.7.8c-2.2 1-4 2.2-2.96 5.2.4 1.1-.73 1.7-1.8 2z" class="cls-321"/>
    <path d="M125.32 112.1a12.6 12.6 0 0 1-1.54 1.18c-1.7.94-3.9 1.44-5 2.82-1.73 2.1 2.9 1.9 2.1 4.16a5.1 5.1 0 0 0 .13 1.93c-6-2.5-6.9-6.8-2.8-14a5 5 0 0 0 3.8-2c2.9.9 4.4 2.7 3.4 5.9z" class="cls-322"/>
    <path d="M125.32 112.1c-1.48-1.8-3.66-3.18-3.37-6l.94-1.87 1.3-1.14c3.5-.9 6.1-.1 7.1 3.7.4 1.8 1.8 2.6 3.3 3.2s2.7 1.3 1.6 3.2c-1.1.9-2.3.6-3.5.4z" class="cls-323"/>
    <path d="M65.16 62.15a1.56 1.56 0 0 1 2.16 0c1.83 9.3 1.83 9.3 12 7.7l.9 1c-4.25 2.62-3.15 7.12-3.84 11 .2 1.38.42 2.77-.73 3.9-1.13.86-2.45.76-3.74.76-5.4-1-5.3-1-4.2-6.4.6-2.7-1.4-4-3.5-5.1-1-.2-2.2.1-3-.9.1-2 1.4-3.2 2.7-4.4 2.2-2 2.9-4.5 1.3-7.4z" class="cls-324"/>
    <path d="M85.16 83.15c-1.48 1-.4 1.88.17 2.77-2.3 1.86-2.1 4.8-3.18 7.2.25 1.58-.84 2-2 2.4-3.2.2-4.72-1.6-5.36-4.46-.4-3.24 2.3-5.67 2.3-8.83 2.6.53 5.6-1.83 8 .92z" class="cls-325"/>
    <path d="M77.16 82.26c2.46 3-.16 5.27-1 7.8-.36.75-.7 1.5-1.75 1.3-3-2.3-1.4-4.17.6-6L76.4 82z" class="cls-326"/>
    <path d="M137.16 50.15c-.06 2.52.4 5.12-1.4 8.55-.6-3.8-2-6.55 1.4-8.55z" class="cls-327"/>
    <path d="M134.16 112.24c-3-.67-6.15-.86-5.54-5.6.26-2-3.16-1.94-4.36-3.5l.83-3.23c.1-2.7 2.2-2.9 4.1-3.5 4.6 0 6 1.1 6.4 5.3a22 22 0 0 1-1.5 10.6z" class="cls-328"/>
    <path d="M129.16 81.4l5.2 1.75c1.5 1.76 1 3.48-.1 5.2-.9 1.64-1.27 3.86-3.92 3.64a8.92 8.92 0 0 1-3.75-1.5 2.46 2.46 0 0 1-.9-2c1.4-2.3-.3-3.8-1.6-5.3a2.23 2.23 0 0 1 .2-3.2z" class="cls-329"/>
    <path d="M124.2 83.15l9 1.3c-2.4 2.2-4.55 3.5-7.2 3.84l-.5.1-.32-.4a8.87 8.87 0 0 1-.97-4.9z" class="cls-330"/>
    <path d="M126.98 89.28l3.23.93c1.2 2.9 1.3 5.6-1.1 7.9l-4 1.8a3 3 0 0 1-1.7-3c2.3-2 1-5.7 3.6-7.6z" class="cls-331"/>
    <path d="M126.98 89.28c-.6 2.84-.33 6.1-3.63 7.66 1.15-2.84-.17-6.2 1.83-8.85a3.22 3.22 0 0 0 .8.2z" class="cls-332"/>
    <path d="M129.08 98.15c-2.6-3.06-.7-5.47 1.13-7.9 1.9.45 2.9-.95 4.1-1.9 2 5.85 2 11.9 2 18 0 .8-1.1 3.6 1.8 1.88 1.9 1 1.2 2.65 1 4.14l-2.6 1.08c-.2-1.32-1-1.53-2.2-1.17a3.67 3.67 0 0 1-.1-3.7c3.2-6.43 1.9-9.14-4.9-10.43z" class="cls-333"/>
    <path d="M141.16 93.15h1a2.12 2.12 0 0 1 .6 1.22c-1.85 3.4-.28 7.15-1 10.66a1.72 1.72 0 0 1-2.47.3l-1-1c0-2.58-.1-5.15-.1-7.7 0-2.07.5-3.6 2.9-3.48z" class="cls-334"/>
    <path d="M138.38 104.28q.45 0 .9.06c1.1 2.1 3 4 1.87 6.7l-1 1.1-1.1.2c-1-1.23-.64-2.76-.93-4.14z" class="cls-335"/>
    <path d="M141.94 94.47l.22-1.32c.14-1.24.4-2.4 1.78-2.86l.13 6.8c-.48.8-1.07 1.7-2.1.8-1.16-1.1-.55-2.3-.03-3.5z" class="cls-336"/>
    <path d="M150.97 137.9l-1.67 4.2c-2.38-.7-3.36-2.64-4.2-4.7l.2-.63c1.7-.68 2.37-2.5 3.82-3.45 2.2.83 1.8 2.83 1.85 4.58z" class="cls-337"/>
    <path d="M138.53 144.97c0-2.72-.58-5.52.88-8.1 5.1.28 2.7 3.77 2.7 6.2z" class="cls-338"/>
    <path d="M142.07 143.08c-1.27-1.9-.36-4.74-2.65-6.2a2.37 2.37 0 0 1 1.88-1.78 1.42 1.42 0 0 1 1.5 0c1.83 2.15.67 4.54.54 6.84z" class="cls-339"/>
    <path d="M143.34 141.97c0-2.34.3-4.74-1.25-6.8-.3-1.7.9-1.55 2-1.44a2.33 2.33 0 0 1 1.1 3.34l-.2.33z" class="cls-337"/>
    <path d="M64.1 73.15c.76-.7 2.36-2.28 2.4-1.47.2 3.62 5.3 6 2.5 10.24-1.66 2.55 1.68 2 2.17 3.23 2.32 2 2 3.35-1 4-1.34 1.13-1.6 3.35-3.9 3.66-1.1-1 .4-2.5-.3-3.4-1.28-1.6-.94.8-1.66.9-2.2-3.3-5.6-6.4-3.2-11.1a6.44 6.44 0 0 1 1-.8c2.2-.4 1.5-2 1.2-3.3a3 3 0 0 1 .9-1.8z" class="cls-340"/>
    <path d="M70.16 89.15a3.43 3.43 0 0 0 1-4l3.75.22c.2 1.9-1.3 3.85.2 5.7 1.5 2.7 1.2 6.13 3.4 8.58a3.7 3.7 0 0 1-1.6 3.45c-3.8 1.8-7 1.78-8.5-3l-2.7-1.3c4.6-1.93 5.9-5.18 4.7-9.65z" class="cls-341"/>
    <path d="M68.3 100.15c2.65.6 4.8 3.08 7.9 2a2.42 2.42 0 0 1 .8 1.13c-.3 2.26.77 4.7-.82 6.8l-1.08.24c-2.1-.67-3.7 1.75-5.82 1-1.2-2.62-4.14-1.52-6.14-2.83 2.22-2.6 2.6-6.2 5.15-8.4z" class="cls-342"/>
    <path d="M69.28 111.3c1.3-4 3.58-2.45 5.82-1v.64q-.4.14-.8.25c-4.1 2.5 1.32 3.7.85 5.8-4 .1-7.9.2-10.15-4 1.08-1.4 3.27-.1 4.28-1.8z" class="cls-343"/>
    <path d="M52.06 120c.6-2.77 1.33-5.38 5.07-4.86-1.12 2.2-1.14 5.57-5.07 4.85z" class="cls-344"/>
    <path d="M48.98 87.06c.18-2.27-.18-4.6.88-6.77 2.75 2.4 2.92 6.7 6.48 8.7.68.3.7 2.2-.33 2.5-4.5 1.3-2.7 4.8-2.8 7.6-3.2-.4-1.5-3.6-2.8-5l-.3-3c.2-1.5-1.9-2.5-1-4.1z" class="cls-345"/>
    <path d="M50.3 94.15l2.82 5c.65 2.83-1.4 5.67.36 8.65.8 1.36-1.13 2.48-2.35 3.32-1.78-5.58-1.23-11.28-.82-16.97z" class="cls-346"/>
    <path d="M48.98 87.06c.6 1.3 2.5 2.3 1 4.1l-1.94-.9-.66-.27a4.33 4.33 0 0 1 1.6-3z" class="cls-347"/>
    <path d="M64.1 73.15v1.92c.48 2 .48 3.7-2.14 4h-.9c-.7-1.66-1.15-3.3.08-4.93z" class="cls-348"/>
    <path d="M141.94 94.47c.16 1.34-.85 3.66 2.17 2.6 0 1.63-.5 3.35-.2 4.9.7 2.8 1.6.7 2.5 0 1.2.28 3.8.58 1.5 2.1-2.5 1.6-1 3.42-1.5 5.1l-3 1c-2.4-1-2.3-3.07-2-5.15-.6-3.6-3.8-7.34.7-10.55z" class="cls-272"/>
    <path d="M141.23 104.97c2.35 1 1.6 3.33 2 5.14a5 5 0 0 0-.2 1h-1.93c-2.1-1.8-2-4.2-1.86-6.7z" class="cls-349"/>
    <path d="M144.16 134.15l-2.1 1.05-.8-.08c-1-3-3.66-4.22-6-5.76l2.84-2.23c2.68.5 3.8-1 4.22-3.35.77-.93 2.08-.84 3-1.56l2.84-1.07c1.6-.46 2.78.54 4.06 1.2q0 .3-.06.63c-.4 2 0 4.4-2.75 5.14l-2.4 2.14a17.13 17.13 0 0 1-2.1 3.63z" class="cls-350"/>
    <path d="M149.36 128.08c.76-1.8 1.06-3.84 2.75-5.14 1.8 2.23.9 4.9 1.2 7.34l-.4 3.64z" class="cls-351"/>
    <path d="M145.24 137.07l-1.08-2.92c1.34-.54 1.83-2.9 3.9-1.84l1 1c0 2.6.26 5.4-3.82 3.8z" class="cls-350"/>
    <path d="M148.07 132.3c-.92 1.45-1.76 3-3.9 1.85.22-1.8.45-3.6 2.78-3.92z" class="cls-352"/>
    <path d="M136.16 125c0-2.8-2.73-3.74-4-5.7 3.4-1.86 4.55 2.08 7 2.68 1.86-.23 3.06.45 3.34 2.4-.6 2.47-2.17 2.73-4.23 1.87-.37-.92-1.26-1.04-2.1-1.25z" class="cls-353"/>
    <path d="M141.9 124.24l-2.7-2.25 1.1-2c1.56-1 2.27 0 2.85 1.2l2.1.8-1.88 2a1 1 0 0 1-1.47 0z" class="cls-354"/>
    <path d="M143.16 121.32l-2.85-1.24c-1-1-2.6-1.37-3-3 3.6.28 4.4.86 6 4.24z" class="cls-355"/>
    <path d="M76.16 110.07c-2.17-2.44-4-4.86.23-7.1 1.7-1.3 3.2-3 5.7-1.82 2.2.46 5.6.52 4.7 3.53-1 3.65-4.7 5.32-8.4 6.1-.7.15-1.6-.45-2.4-.7z" class="cls-356"/>
    <path d="M82.16 101.15c-1.7 1.3-3.5 2.33-5.76 1.82a3.7 3.7 0 0 0-.24-.82l.9-3c-1.47-3.27 1.07-3.94 3.18-4.9l1.92-1.1c2.8.48 2.5 3 3.14 4.83z" class="cls-357"/>
    <path d="M141.9 124.24h1.48c.37 2.25.4 4.37-2.27 5.28-2.1.74-2.3-1.24-3-2.4q.1-.43.3-.85c1-1 2.9-.54 3.6-2.03z" class="cls-358"/>
    <path d="M80.26 94.23l-3.17 4.92c-3.3-1.67-3.6-3-2-8l1-1c.6 2.06 1.7 3.72 4.1 4.08z" class="cls-359"/>
    <path d="M61.97 79.1l2.14-4a3.3 3.3 0 0 1 2.3 5.1c-1.2 2-3.3 1.04-4.4-1.1z" class="cls-360"/>
</svg>