<svg xmlns="http://www.w3.org/2000/svg" id="Layer_1" data-name="Layer 1" viewBox="0 0 184.17 184.15"><defs><style>.cls-1{fill:#fefefe;}.cls-2{fill:#040404;}.cls-3{fill:#f2f2f2;}.cls-4{fill:#d6d6d6;}.cls-5{fill:#e3e3e3;}.cls-6{fill:silver;}.cls-7{fill:#d1d1d1;}.cls-8{fill:#ebebeb;}.cls-9{fill:#545454;}.cls-10{fill:#a2a2a2;}.cls-11{fill:#a1a1a1;}.cls-12{fill:#828282;}.cls-13{fill:gray;}.cls-14{fill:#030303;}.cls-15{fill:#242424;}.cls-16{fill:#d4d4d4;}.cls-17{fill:#8f8f8f;}.cls-18{fill:#606060;}.cls-19{fill:#181818;}.cls-20{fill:#e1e1e1;}.cls-21{fill:#3c3c3c;}.cls-22{fill:#c6c6c6;}.cls-23{fill:#ddd;}.cls-24{fill:#131313;}.cls-25{fill:#eaeaea;}.cls-26{fill:#bebebe;}.cls-27{fill:#1e1e1e;}.cls-28{fill:#1a1a1a;}.cls-29{fill:#939393;}.cls-30{fill:#dfdfdf;}.cls-31{fill:#1d1d1d;}.cls-32{fill:#e4e4e4;}.cls-33{fill:#f0f0f0;}.cls-34{fill:#cacaca;}.cls-35{fill:#d8d8d8;}.cls-36{fill:#626262;}.cls-37{fill:#4a4a4a;}.cls-38{fill:#979797;}.cls-39{fill:#6b6b6b;}.cls-40{fill:#575757;}.cls-41{fill:#b0b0b0;}.cls-42{fill:#949494;}.cls-43{fill:#bdbdbd;}.cls-44{fill:#818181;}.cls-45{fill:#636363;}.cls-46{fill:#787878;}.cls-47{fill:#d7d7d7;}.cls-48{fill:#999;}.cls-49{fill:#858585;}.cls-50{fill:#6e6e6e;}.cls-51{fill:#f6f6f6;}.cls-52{fill:#efefef;}.cls-53{fill:#cecece;}.cls-54{fill:#d5d5d5;}.cls-55{fill:#7e7e7e;}.cls-56{fill:#c4c4c4;}.cls-57{fill:#e6e6e6;}.cls-58{fill:#f1f1f1;}.cls-59{fill:#f3f3f3;}.cls-60{fill:#dcdcdc;}.cls-61{fill:#e5e5e5;}.cls-62{fill:#303030;}.cls-63{fill:#161616;}.cls-64{fill:#d3d3d3;}.cls-65{fill:#cbcbcb;}.cls-66{fill:#1b1b1b;}.cls-67{fill:#6d6d6d;}.cls-68{fill:#a9a9a9;}.cls-69{fill:#292929;}.cls-70{fill:#5c5c5c;}.cls-71{fill:#717171;}.cls-72{fill:#090909;}.cls-73{fill:#e2e2e2;}.cls-74{fill:#272727;}.cls-75{fill:#b1b1b1;}.cls-76{fill:#444;}.cls-77{fill:#7d7d7d;}.cls-78{fill:#919191;}.cls-79{fill:#1f1f1f;}.cls-80{fill:#171717;}.cls-81{fill:#4d4d4d;}.cls-82{fill:#eee;}.cls-83{fill:#aeaeae;}.cls-84{fill:#a7a7a7;}.cls-85{fill:#dbdbdb;}.cls-86{fill:#e9e9e9;}.cls-87{fill:#b7b7b7;}.cls-88{fill:#d2d2d2;}</style></defs><path d="M184.1 66.06c0 38.17 0 76.33.07 114.5 0 3-.6 3.6-3.58 3.58q-88.5-.17-177 0c-3 0-3.6-.6-3.6-3.58.1-24.5.1-49 .1-73.5a1.17 1.17 0 0 1 1.3-.13c2.7 2.3 2.7 5.52 2.9 8.66s0 6.2 3.6 8.5c2.5 1.6 2.2 5.8 2.2 8.8-.2 6.8 5.1 10.3 8.4 15 .6.9 2.1.7 3.3.7 2.7 0 4.8.8 5.5 3.9a3.7 3.7 0 0 0 3.4 3c5.6.7 8.5 4.7 10.7 9.2.2.6.5 1.5 1.1 1.4 5-.1 10 1.7 15 .4a7 7 0 0 1 5.8 2.2c3 3.7 7.8 3.9 11.6 5.8 2.5 1.2 6.6.7 10 .1s6.8-.7 10-3.2 6.5.1 9.6 1.6c4 3.3 6.1 4.8 11.3-1 1.4-.6 1.4-2.9 3.2-2.9 2.5.7 3.8-1.6 5.7-2.3 4.5-1.6 8.8-3.7 13.7-3.5 1.4 0 4.2 4.3 4-1.3.2-1.8.8-3.3 2.7-3.9 1.7-.2 2.5 1.1 3.5 2.3 1.2-1.5.8-3.7 2.5-4.7a10.36 10.36 0 0 1 4.6-1.5c2.5-.7 2.8-3.2 4-5 .7-4.7.7-4.7 4.8-6-3.8-3.2-2.8-7.1 2.6-9.3.6.3 1.6.2 1.4 1.4.7-.6.1-1.3.3-2a12.76 12.76 0 0 0 .7-4.2 19.17 19.17 0 0 1-.3-5.9c.2-1.6.7-3.2 2.7-2.9 2.9.4 3.2-1.2 2.6-3.2-1.1-3.6 1.3-7.7-1.4-11.1a1.18 1.18 0 0 1 .1-1.4c5.1-6.1 2-13.7 3.6-20.5.6-2.8.2-5.9 2.3-8.4 1.5-2 .5-4.5 1-6.8.2-1.8-.3-4.5 3-3.5zm-184-1c0-20.67.04-41.33-.08-62C.02.56.6 0 3.1 0q89 .12 178 0c2.5 0 3.07.56 3.06 3.06-.13 17.67-.07 35.33-.07 53a5.1 5.1 0 0 1-4.7.36c-1.1-3.3.5-6.76-.6-10.07a10.8 10.8 0 0 1 0-1.4c4.2-7-1.1-13.14-1.8-19.7-1.2-1.87-.4-5.58-1.7-5.85-3.6-.74-6.5-2.86-10.3-3.3-8-.94-15.5.85-23.1 2.7a3.14 3.14 0 0 0-1 .25c-3 1.92-5.5 3.76-9.5 4.64a29.5 29.5 0 0 1-11.2.8 22.4 22.4 0 0 0-6.7-.3 46.4 46.4 0 0 0-21.2 8c-2 1.3-3.6 1-5.5-.2-6.8-4.5-14-6-21.7-2.7-3.6 1.5-6.9.5-8.7-2.7C52.7 20 46.8 18.8 40 19c-4.35.1-8.95-1.7-12.4 2.7-.52.7-1.9.6-2.9.4-3.53-.4-6.5.9-9.23 3a3.84 3.84 0 0 0-3.42 4 4.74 4.74 0 0 1-1 2.8c-6.84 6.5-5.3 14.5-4.3 22.5a8.34 8.34 0 0 1-.2 3.9c-1 1.9-3.2 2.8-4.07 4.8-.6.9-1.04 2.3-2.6 1.8z" class="cls-1"/><path d="M184.1 66.06c-2.6-.05-2.25 1.82-2.18 3.4.1 2.26 1.3 5.7.28 6.54-6.17 5.2-2 12.3-3.94 18.2a16 16 0 0 0-.12 7.43c.54 3.16-.62 4.27-4.1 4 1.68 1 3.63.54 2.27 3.5-1.1 2.5.3 6.1.5 9.2.1 1.53 1.4 3.45-.3 4.46-1.9 1.1-3.5-.4-5.6-2.8 1.2 4-.6 7 1.2 9.8-2.4.8-2.3 3.6-4 5-3.2.8-4 3.5-3.9 6.2.1 3 3.5.7 4.7 2.3-1.1 1.3-2.8.4-4.1.8-1.9.6-2.3 1.8-1.5 3.7.7 1.7-1 1.5-1.9 2-3.2.6-1.8 4.5-4 5.9-1.7-.1-3.5-.1-5 1-2.7-1.4-3.8 1.9-6 2-1.8.8-1.8 2.5-1.9 4.1-1.3 1.6-3.4.1-4.9 1-2.1 3-6.1-.3-8.4 2.5-1.8 2.2-6.3-.6-7.5 3.8-.3 1.2-2.8 1-4.1-.5-1.9-.9-2.2.8-3.1 1.7-3.3 2.4-6.6 4.5-10.9 2.2-.8.1-1.7.4-2.4.2-6.2-2.7-6.2-2.8-9.6 2.4a1.42 1.42 0 0 1-2.4.2c-1.3-3.3-3.3-1.6-5.1-.8s-3.2 2.7-4.6-.4c-.4-.8-.9.2-1.4.3-2.6.5-5.9 4-7.1-1.6a1.24 1.24 0 0 0-.2-.4c-6.6 2.7-8.2-6.6-14-5.9-4.8-1.2-9.7-.8-14.6-1-1 0-2 0-2.7-.9a19.72 19.72 0 0 0-7.3-8.6c-1-.6-1.7-2.4-3 .2-.3.7-4.3-1.9-4.2-3 .7-6-3.5-4.7-6.5-4.6-2.4 0-4.2.2-3.7-3.1a2.28 2.28 0 0 0-.4-1.8c-8.7-3.4-5.5-11.8-7.5-18-.3-.8.5-2.3-.7-2.5-5.1-.6-4-4.7-4.3-7.7-.3-3.4-.2-6.9-1.8-10-.5-3.7-.4-7.4-.8-11.1-.2-4.3.6-8.6-.5-12.8v-6c1.3-2.4 1-5 1-7.5a10.08 10.08 0 0 1 1.4-6c.8-2.5 4-2.3 5-4.5 1-1.2 1.5-2.6 2.3-3.9 1.6-.7 3.2-1.4 4.6.3-.4 1.5 2 1.8 1.5 3.4 0 1.8-2.1 2.2-2.4 3.7a4.15 4.15 0 0 1-1.6 1.9c-2.3 2.1-.3 5.4-2.1 7.6-1.8 3.1 1.5 5.7.9 8.6-.3 1.5 0 3-.1 4.5-.7 1.8 1.4 3.7 0 5.6-1.8 1.4-.9 4.1-2.4 5.7-3.1.7-1.7 2.2-.6 3.7.1 1.6-2.1 4.2 1.8 4.4 3.1.8 3.6 2.9 2.7 5.6a8 8 0 0 1-2.5 3.9c1.7-.8 3-2 4.7-1 3 2.9 2.5 6.7 2.8 10.3.1 1.4.9 2.9 2.2 3.2 5.6 1.4 5.5 5.7 5.4 10.1-.2 1.2-1.7 1.7-1.7 3.1a4.7 4.7 0 0 0 1 2.7c1.7 2.7 3.3 3.5 5 0 .3-1.4.3-2.9 1.9-3.6 3.1-.1 4.6 2.4 6.6 4.1.7 4 3.3 6.5 6.7 8.6-.3-3.7-3.1-6.7-2.6-10.4a2.34 2.34 0 0 1 2.1-1.6 21.6 21.6 0 0 1 4.1.3A2.78 2.78 0 0 1 50 143a4.52 4.52 0 0 0 2 5.1c1 0 1.9-1 3-.3.8 1.2 1.4 2.7 3 3.1a9.24 9.24 0 0 1 2.62 2c2.2 2 4.94 2.5 7.7 2.8 1.54-1.1-.4-3.2 1.2-4.2 6.78-2.5 8.5-1.7 10.2 5.1 2.65-1.7 5.2-2.2 6.9 1.2.55 1 1.6 1.8 1.2 3.2-.64 1-2.04.3-2.8 1.2.9.7 1.76 1.5 3 1.3 1.2-1.9.9-5.4 4.7-4.8 3.7-1.2 7.15-3.8 11.4-.52 1.35 1 4.4.4 6.7.5 2.8.13 2.65-1.2 1.3-3a3.83 3.83 0 0 1-.3-2.1c.56-1.7 1.2-3.3 3.47-3.1 1 .23 1.9 1.6 3.1.6 3.6-2.96 3.9.25 4.7 2.5a17.2 17.2 0 0 1-.5 2.4c-.1.4-.4 1 .2 1 .2 0 .4-.8.7-1.2a2.53 2.53 0 0 1 1.2-.35c1.9.28 2.2-.8 1.9-2.3.3-2.33.3-4.8 2.5-6.43 5.3 1.9 6.4 6.5 3 11.1-.6-2.85 5.1-.1 4-4 .1-1.4 1.3-1.7 2.2-2.2 1.2-.53 2-1.8 3.2-2.34a14.75 14.75 0 0 0 8.3-3.7c4.7.76 5.6-3.8 8.2-5.94 2.7-3.76 4.9-7.64 2.9-12.47-.6-1.4-.8-2.9.7-3.43 3.6-1.3 4.3-4.5 5.4-7.5 2-4 1.1-8.63 2.5-12.8-.2-1.9.3-3.9-1.3-5.5-.6-5.7.5-11.1 1.9-16.5 1-3.5 3.6-5.4 6.1-7.5a4.36 4.36 0 0 0 1.8-2.46c.7-2.9-1.2-5.5-.8-8.36a4.16 4.16 0 0 1 .5-1.22c1.2-1.1 2.5-2.2 4.3-2 1.5 1 1 3 2 4.23v2z" class="cls-2"/><path d="M3.18 63.06c-.8 2.65-1.47 5.26-1 8.12.4 2.24.2 4.5-2.13 5.86V65.06l1.83-2a.76.76 0 0 1 1.3 0z" class="cls-3"/><path d="M1.1 97.06c.63 3.3 1.67 6.6.2 9.94l-1.2.06v-10c.33-.47.68-.5 1 0z" class="cls-4"/><path d="M184.1 64.06c-2-.65-1.15-2.67-1.83-4-.47-1.54-2.22-2.25-2.56-3.88 1.5-.43 2.9-1.1 4.4-.17v8z" class="cls-5"/><path d="M1.1 97.06h-1v-14c2.12 4.53.45 9.34 1 14z" class="cls-6"/><path d="M105.1 174.06c4.15.84 7.37-1.5 10.8-3.15 1.73-.1 1.85.8 1.3 2.1-2.55 3-4.73 6.5-9.68 3.9a5.54 5.54 0 0 1-2.43-2.8z" class="cls-7"/><path d="M40.9 166.12c5.85-.24 11.7-.3 17.27 1.9-5.66 2.37-11.3-1-17-.12-.88.16-1-1.02-.27-1.78z" class="cls-8"/><path d="M146.1 159c3.38-4 3.74-4.12 6-2-2.1 1.64-.34 5.45-2.4 6.17-2.95 1.07-.33-4.44-3.6-4.18z" class="cls-9"/><path d="M168 134.97c0-2.7-.54-5.9 4-5a48.45 48.45 0 0 0-1.54 5c-.83 4.2-1.67-.6-2.47 0z" class="cls-10"/><path d="M157.1 156.06c.35-.73 1.22-1.8 1-2.15-3.2-4.8 1.2-3.2 3.07-3.7-.98 2.3-1.2 5-4.08 5.9z" class="cls-11"/><path d="M139.18 164.15c.9-3.8 3.4-.2 4.94-1.06 1 2.6-1.77 2.3-2.76 3-1.8 1.2-.7-2.1-2.18-2z" class="cls-12"/><path d="M117.2 172.96a2 2 0 0 0-1.28-2.07c-.1-.6-.64-1.4.2-1.6a2.37 2.37 0 0 1 3 .7c-1.53.4.72 3.2-1.9 2.9z" class="cls-13"/><path d="M179.7 56.23c2.45.25 3.94 1.12 2.57 3.88l-3.88 2a5.77 5.77 0 0 1-4.2-.5c-1.6-1.1.1-3-1-4.2-1.7-.2-1.7 2.6-3.5 2-3-1.7-6.6-2.6-6.9-7.3-.1-1.5-2.2-2.8-4.1-3.3-8.6-2.3-15.7-6.6-19.5-15.2a4.32 4.32 0 0 0-4.2-2.3c-6 .1-11.5-3.7-17.6-2-5.1-4.5-9.4.3-14 1.3a13.12 13.12 0 0 0-5.6 2.2 7.34 7.34 0 0 0-4.3 3.8C92.4 39.1 90 40.1 88 38c-4.05-4.3-9.5-4.9-14.65-6.3-2.8.15-5.7-.3-8.1 1.77C59.65 36.9 53 36.9 47 39.1c-.35.1-1-.9-1.2-.4-2.2 4.8-7.07 6-11 8.4-7 3.5-12.67 9.2-19.86 12.5l-1-3.43c1.15-1.85-1-2.3-1.47-3.44-.2-1.4.67-2.1 1.75-2.66 1.3-.8 3.43-.9 3-3.3-1.6-8.16 3.24-12.9 9-17.1a6.85 6.85 0 0 0 2.6-3.4c4.2-.7 8.3-3.68 12.62-.4l1.2.6a56.7 56.7 0 0 1 5.7 2.5c1.13.5 2.8 1.63 3.2-.94-2.87-3.4-7.5-1.3-10.7-3.6-4-.8-8-.75-11.67 1.4-3.03.5-6.3 1.8-7.9 4-3.8 5.23-9.1 9.7-10.26 16.6 0 2.05.8 4.05.7 6.15a3.43 3.43 0 0 1-1.6 2.3c-.2 1.8.4 4-2.4 4.32a1.4 1.4 0 0 1-1.8-.14c1.4-4.33-2.2-8-1.3-12.5.6-2.8 1.2-5.87.4-8.9a1.88 1.88 0 0 1 1.5-2.6c3.4-.94 4.4-3.85 5-6.9a36.9 36.9 0 0 1 3.7-3.3c2.6-3.26 5.8-5 10.2-4.25 1.2.2 3.1.8 3.6-.7 1.8-4.7 4.6-3.3 7.9-1.9 2.6 1.1 5.8.7 8.1.2 6.6-1.4 9.8 2.7 12.4 7 2.9 4.8 6.5 4.3 10 2.1a7.27 7.27 0 0 1 5-1.1c5.9.7 12.1 1 16.8 5.2 1.4 1.3 2.5 1 3.3.2 7.1-6.9 16.5-8 25.5-9.1 2.5-.3 6.3 1.2 9.6 1.5.9.1 2.2.7 2.7.1 1.1-1.5-1.7-.7-1.3-1.5 1.1-2.2 3-2.3 4.9-1 .9.6 1 2.6 2.6.3 1.1-1.5 2.4-4.4 2.7-4.4 7.1 1 13.1-4.1 20.1-3.3 2.7.3 5.3.4 8 .5 2.2 0 4.2-.2 5.3 2.5s3.2.6 4.8.1l1.1 7.9c.4 2.8 1.7 5.7-.2 8.4-2.1.4-3.2-.5-4.1-2.4-1.8-3.7-2.3-8.7-8.5-8.1-1.8.2-2.3-3.4-4.8-3-5-.6-10-2.2-14 3-1.2 1.6-3.7 2.1-5.5 3.3 3.3 1.9 4.8-.6 6.7-2.4 1.4-1.4 2.3-4.6 5.4-2.3 4 1.7 8.5 1.6 12.4 4.4 3.4 2.5 5.4 5.3 6 9.2a55.72 55.72 0 0 1 .8 9.9c2.3 2.5 5.6-.3 8 1.3 0 3.4 1.6 6.8-.3 10.1z" class="cls-14"/><path d="M177.1 33.06c2.5-2.44-.6-5.47.84-8 0 1.25 3.2 1 1.36 3.45-.75 1-.92 3 1.45 4.8 2.1 1.6 2 5.9.16 9a12 12 0 0 0-.8 2.8 1.65 1.65 0 0 1-2 .3c-1.7-2.4-.8-5.8-3.9-8-1.5-1 1.5-3 3-4.2z" class="cls-15"/><path d="M5.93 59.06l1.8.15c1.7 5.1-3.52 2-4.54 3.9H1.9c.66-2 1.16-4.1 4-4z" class="cls-16"/><path d="M178.04 45.06h2l-.07 1.18c-3 1.44-6.06.95-9.14.56a.36.36 0 0 1-.13-.3 1.63 1.63 0 0 1 .3-.4c2.17-1.57 4.4-2.73 7.04-1.04z" class="cls-17"/><path d="M15 24.92c-.07 2.4-2 2.64-3.68 3.28 1.37-.93-.46-5.44 3.67-3.28z" class="cls-18"/><path d="M103.14 29.3c3.75-1.37 7.66-2.35 11.32-5 1.1 2.25 1.76 5.62 5.75 2.6 1.2-.84 4.2.88 6.2 1.5 4.5 1.42 9.8 0 13.6 3.68 1.9 1.78 2.7 4.36 4.1 6.5 1.5 2.33 2.6 3.63 5.4 4s3.7 4.62 6.7 4.37c3.7-.3 7 1.6 7.6 4.06.9 3.9 3.9 5 6 7.3.2.3.5.5.7.8a3 3 0 0 1 1.3 1.5 34.06 34.06 0 0 0 5.8 13.5c.7 2.7-2.2 2.1-3.2 3.4-3.8 4.9-4.9 10.3-4.3 16.3.2 1.4-1.3 2.6-.8 4.2-2.6 2.9-2.2 6.7-3.2 10-.7 2.4 1.9 2.5 2.8 3.8-.2 1.8.5 3.6-.5 5.3-.5.4-1.5.8-1.5 1.2 0 3.6.1 3.7-4.3 6.6-1.5 1-1.3 1.4-.2 2.4 2.1 1.9 3.5 4.2.1 6-1.8 1-.3 1.9-.4 2.8-.2 2.2-.3 4.8-3.6 4.5l-.5-.4c-1.2-1.2-1.2-4.5-4.3-2.3-1.2.4-2.5.3-3.6 1.2s-.5 2-.7 3a2 2 0 0 1-1.6 1.9c-2.6-1-5-1.4-6.7 1.5-2.7 2.3-1 5.4-1.7 8.1-1.1 0-2.5-.9-2.8 1 .5.8 2.2.3 2 1.7-.2 1-1.3.7-2.1.8-1.3.1-2.5-.2-2.4-1.8.3-2.6-1.1-4.7-2.1-7a1.47 1.47 0 0 0-2.4-.6l-2.3 7c-.6 1.1-1 2.5-2.8 2-.7-.6-1.5-1-1.7-2-.8-1.1-.9-2.8-2.2-3.4-2 .6.2 3.5-2.1 3.3a3.37 3.37 0 0 1-2.9-2.9c-2.6-1.3-4.3.7-6.2 1.6-1.5.7-3-.3-4.8-.3 2 3.5 5.4 2.4 8 3.4.6.6 2.2-.3 1.7 0-2.5 2 3.2 2.8.5 4.4s-14.2-1-16.5-3.7c-.3 3.8-2.8 3.9-5.6 3.5-2.2-1.5-4.9.6-7.1-.8-1.5-2.7-1.4-2.6-4-.7-1.3 1-4.1 1.1-3.7-.8 1.5-8.8-4.4-5.3-8.2-5.3-.5 1.9-1.3 3.6-3.4 4.2-1.9-.6-1.9-2.4-2.4-4-1.5.3-1.9 3.2-4.1 1.6l-2-1.9c-.7-1.2-.2-2.3.3-3.4a3.3 3.3 0 0 1 1.6-1.4c1.7-.6 3.6-.1 5.9-1-2.4-1.5-4 .5-5.7.3-3.4-1-6.2-.9-7.1 3.4a5.4 5.4 0 0 1-3.5-7.2c.7-1.8-1.6-1.3-1.6-2.5-1-2.6-2 .9-3 .1-1-.4-1.8-.4-2 .8-.7 1.5-.3 3.8-2.4 4.4-1.8.4-1.9-1.3-2.4-2.4-3 .2-3.5-3.4-6-4a2.86 2.86 0 0 1-.8-1.1 6.13 6.13 0 0 1 0-1.8c0-.5.8-1.2 0-1.4-.4-.1-.8.8-1.2 1.3a6.2 6.2 0 0 1-1 1c-1.3.8-2.6 1.3-3.9.1a3.68 3.68 0 0 1-.4-.9c-.5-4.5-1.7-8-6.7-9.7-1.4-.5-3.1-4.5-1.8-7.2.5-1.1 1.3-2.5.7-3.1-1.9-1.9-.8 1.1-1.6 1.2.1-1.37-1.3-2.6-.4-4-.6-1.36-2.1-2-2.8-3.3.3-2.1.5-4.1-2.1-5-1.4-1.4-1.1-3.3-1.3-5a4.56 4.56 0 0 1-.2-2.3c1-2.44 2.4-4.5 5.5-3.7.5 0 1.2.5 1.3.1.2-.84-.7-.7-1.2-.95-1.5-.6-3.5-.73-3-3.13 1.1-1.7-3-3.3-.1-5 1.8-1.1 2.9-2.4.6-4.1a8.6 8.6 0 0 1 0-2.8 2.58 2.58 0 0 1 1.2-.8c2.27-.2 3.07-1.4 3-3.6S14.2 71 12 70.9c-1.3-.74-.86-2-.9-3.1.54-1.8 4.27-2.2 2.2-5.1-.8-2.3 2.83-.8 2.4-2.8 2.76-2.8 7.37-3.9 8.14-8.6 2.3.8 3.6-2 5.8-1.72 2.45.23 4-1.1 5.1-3 1.08-.7 2.17-1.9 3.4-.5 1.7 1.82 2.7 4.22 1.5 6.4-1.3 2.5-.4 4.4.6 6.43-.3 3.3-2.6 1.6-5.3 1.3.4.1 1.3 1 1.1.4-.1-.3.1-.4.4-.2 2 1.7 4.1.6 6.1 0 4.4-1.3 6.1 0 5.67 4.5-.2 2.8-1.2 5.5-1.2 8.3-1 2-4.1 2.8-3.1 5.8 2.2 2.7.3 4.9-1.1 6.7-2 2.6-3.9 4.8-2.5 8.4.5 1.1-1.2 1.9-1.2 3.1a1.24 1.24 0 0 0 1.8 0c2.5-4.2 7.5-6 9.6-10.8 1.6-3.8 4.5-8.1 7.8-9.3 4.4-1.5 7.7-4.7 12.1-5.9 3.4-1 5.6 1.4 5 4.9-1.4 8.5-5 16.4-8.1 24.3a3.77 3.77 0 0 0-.4.8c4.8 4-.7 9.7 2.5 13.9-.6 1.9-.1 2.9 1.9 2.9a8.72 8.72 0 0 1 2.2 1.6c1.1.9 2.5.7 3.8.8 2.5.3 3.5 1.6 2.9 4-1.7 4-6.4 4.1-8.9 7-4.2 3.2-9.4 3.4-14.3 4.5 7.3 2.2 14-1.1 20.9-1.8 1.5 2 1.5 2 .4 5.3.8-1.4.9-2.9 1.6-4.2 6.4-4.3 13.4-2.9 20.2-2a30.8 30.8 0 0 1 15.5 7 2.9 2.9 0 0 0 2.8.5c-2.6-5.1-8.7-7.8-24.3-10.8-1.5-2.4.3-5.6-2.1-7.7a2.94 2.94 0 0 1 0-3.4c1.8-3.1 4.3-4.6 7.9-3.3 1.2 1.2.2 3.6 2.4 4.1 1.2-2.7 4.4-2.3 6.2-4 4.6-1.7 6.2-6.2 9.4-9.3 1.3-.6 2.7-.1 4-.4 2.8-.5 4.6-3.4 2.7-5.5-2.3-2.6-2.4-5.6-2.1-8.3.4-4.2-1.7-6-5-7.3-1.2-.4-2.2-1.5-3.4-2-5-2.2-6.6-5.8-5.4-11.7a5.12 5.12 0 0 1 3.4-1.4c7 4.4 14.8 3.9 22.6 3.7 5.1-.2 7.4-3 6.8-8a8.86 8.86 0 0 1 .6-4.8c2.4-5.4 1.2-8.1-4.5-9.7-2.7-.8-5.4-1.6-8-2.5-1.42-3.5-2.3.9-3.52.3-7 1.3-11.6 5.6-16.6 10.5-4.1 4-5.3 6.8-4 12.1.7 2.7-1.03 6 .5 9 .3 2.5-.2 4.7-2.8 5.7-3.8 1.5-3.9 6.7-7.9 8-4.4 1-9.2-.6-13.4 2.3-1.7 1.1-3.1-.4-3.7-2.2-.3-2-1.9-3.4-2.4-5.2.2-3.2 2.5-5.5 3.3-8.5A2.18 2.18 0 0 1 81 78c2.1.9 2.5-.5 2.9-2a7.9 7.9 0 0 0-.57-4.5c-.54-3.3-.53-6.7-1.6-10-.34-2.46 1.3-5.63-1-7.24-2-1.4-5 .9-7.53-.22-2.86-1.6-3.1-3.9-1.82-6.67A38.62 38.62 0 0 1 73 43.7c2.2-3.72 1.24-7.1-1.3-10.3-.14-1.4 1-2.14 1.6-3.13 5.5 1.24 11.3 1.47 15.27 6.64 1.9 2.5 4.38 1.8 4.8-1.4.47-3 2.16-3.5 4.6-3.5 1.8-.8 4.4.1 5.35-2.5z" class="cls-1"/><path d="M177.3 74.06c-6.1-3.26-5.8-9.53-7.08-15 1.67-.62-.35-5.74 3.9-3.2.16 1.73-2.36 3.58.22 5.2 1.43 0 2.94-.25 4.05 1a2.62 2.62 0 0 0-.3.48c-1.9 3.38 1.1 6.26.9 9.47a1.66 1.66 0 0 1-1.8 2.1z" class="cls-19"/><path d="M37.1 143.06c3.37 3.62 3.13-1.54 4.83-2 1.22 3 .82 6.75 3.94 9.05 1.72 1.3-.1 2.4-.66 3.3-.8 1.6-1.6.2-2.2-.3-2.2-1.9-4.4-3.9-6.5-5.9-1.6-1.5 0-2.7.7-4z" class="cls-20"/><path d="M168.03 110.88c-1 0-2-.07-2.12 1.4a1.37 1.37 0 0 1-1.1.48.8.8 0 0 1-.3-1.45c1.3-1.2.5-2.4-.1-3.6-.3-.6-1.7-1.4-.2-1.7 4.6-1-1.1-8.1 4.9-8.1 2.1 1.3 1.3 3.6 2.1 5.4-2.3 2.1-1.7 5.3-2.9 7.7z" class="cls-21"/><path d="M75.1 163.9c.06 2.1-.86 1.46-1.9 1.53-4.1.26-7.16-2.52-10.86-3.3-1.23-.27-1.15-.87-.7-1.72.38-.6.74-1.3 1.1-2 .92.5 2.46.9 2.66 1.6.54 2 .37 3 1.66.2.66-1.4 3-1.1 4.07-.3 1.62 1.1 2.8 2.9 3.96 4.1z" class="cls-22"/><path d="M147.24 143.06l.85-2a1.2 1.2 0 0 1 1.6.7 13 13 0 0 1 .8 3.2 1.48 1.48 0 0 1-.5 1.1c-1.9 3.9-5.5 4-9 4.08-3 .64-2.6-1-1.6-2.55.6-1 1.9-1.5 1.5-3a9.18 9.18 0 0 1 6.1-1.6z" class="cls-23"/><path d="M112.1 155.7c-3.22 1.36-6.08 1.3-8.8-1.37-1.4-1.35-1.42-2.7-.68-3.87 1-1.52 2 0 2.8.6a5.32 5.32 0 0 0 3.67 1c2.1-.6 2.4 1.13 3 2.47z" class="cls-24"/><path d="M129.1 147.18c1.82-2 3.15-3.06 3.63 1 .26 2.26 2.1 4.16 1.74 6.8-.16 1.1 1.7 1.28 2.32.82.8-.67-.9-1-.8-1.75 1 .53 3-.74 2.9 1.56-.1 1.8-1.5 1.3-2.7 1.1-2.2-.2-4.1.2-4.2 2.9-.1 2.3-1.6 1.5-2.9 1.4 4.5-8.9 4-10.1-.2-13.7z" class="cls-25"/><path d="M150.1 146.06a1.9 1.9 0 0 1 0-.84c2.04-5.7 3.55-6.66 8.1-5.14l-.1-.02c.05 3.53-4.46 4.4-4.2 7.95-1.8-.2-1.86-2.8-3.8-1.9z" class="cls-26"/><path d="M30 143.24c0 3.45-2.77 2.53-4.53 2.7-2.7.22-1.8-2.5-2.65-3.85 2.9-2.9 3.6-2.8 7.18 1.1z" class="cls-23"/><path d="M30 143.24c-2.45 0-4.25-4.1-7.18-1.15-2.5-.4-1.52-1.7-.77-2.9a2.5 2.5 0 0 1 2.5-1.1c2.44.1 3.27-.4 3.5-2.1 1.92-.6 2 1.3 2.93 2.1a.65.65 0 0 1 .12.8c-1.43 1.1-.84 2.7-1.1 4.1z" class="cls-27"/><path d="M59.1 154.06c2.9.88 1.56-5.35 5-3.12 1.53 1-.73 4.16 2 5.14 1.15-.7 2-.66 2.12.94a11.62 11.62 0 0 1-9.13-2.96z" class="cls-28"/><path d="M85.1 159.06c2.45-.6 5.07-2.57 7.08.8-3.16.6-3.16.6-1.94 3 .22.44.22.44-2.22 2.07-.84-1.12-3.28.45-3.34-2 0-1.65 1.83-1.08 2.4-2z" class="cls-29"/><path d="M52.1 149.9c.25-1.5-1.78-3.66.24-4.34s4.48-2 6.46.4c.6-.36 1.14-.34 1.35.38.25.9-.47 1.3-1.06 1.74l-.9.82c-1.6 1.25-2.7-.67-4.1-.68-1.4-.16-1 1.6-2 1.7z" class="cls-30"/><path d="M141.2 145.06c-1.43.92 4 1 .27 2.23-1.77.6-3.35 1.4-.37 2.8-.78.9-.56 2.6-2.2 2.8-2.46-2.6-.86-5.4-.35-8.1l1.6.2a.67.67 0 0 1 1.04 0z" class="cls-31"/><path d="M11.14 110.06c2.66-.4 3.17 1.07 2.82 3.28-2.65-.46-3.73 1.85-5.5 3.4-.3-2.96 1.12-4.85 2.68-6.68z" class="cls-32"/><path d="M168.03 110.88c.2-2.86-.36-6 3-7.7-1.8 4.4-.65 9.4-2.93 13.66z" class="cls-33"/><path d="M33.8 152.06c.38-3.95-6.5.3-5.12-4.6.2-.7.4-2 1.42-1.54 2.34 1.14 4.26 2.77 3.7 6.14z" class="cls-34"/><path d="M81.6 172.6c.24 1.54-1 1.63-1.1 1.53-1.34-2-5.07-1.12-5.35-4.26-.1-1 1.73-2 1.8-1.78.7 2.5 4 2.6 4.64 4.5z" class="cls-35"/><path d="M10.1 90.06c.53 2.2 2.45 1.83 4 2.14-.38 2.35-2.44.74-3.5 1.48-.65.06.2 1.08 0 .46-.1-.28 0-.5.25-.42 1.14.3 3.15-1.43 3.2 1.37-3-.9-4.65.9-6 3.2a1.52 1.52 0 0 1 0-2.1c.3-2.2-.95-4.9 2.05-6.2z" class="cls-36"/><path d="M11.22 67.18c-.18 1.06-.32 2.1.8 2.78 1.24.3 2.58.47 2.2 2.3a4.5 4.5 0 0 1-2.6 1.54c-1.7 0-3.38 0-2.7-2.54 1.72-1 .9-2.57.9-4 0-1.72-.4-3.75 2.07-4.35 1.7 1.8.1 3-.7 4.3z" class="cls-37"/><path d="M8.93 71.27c.07 2.12 1.62 2 3.06 2 .9 1.93.1 3.6-.9 5.2l.4 2.57a1.33 1.33 0 0 1-1.6 0c1.3-2-.9-3.2-1.3-4.84s-1.5-3.33.1-4.93z" class="cls-38"/><path d="M13.86 136.16c1.1-2.43-4.4-5.45 1-7.87.23 2.9.97 5.5-1 7.8z" class="cls-39"/><path d="M8.17 99.74c2.35 1.44.56 3.56.88 5.33-1.5-.17-3.67 1.1-4.35-.76-.6-1.6 1.9-2.6 2.4-4.2a.72.72 0 0 1 1.07-.3z" class="cls-40"/><path d="M28.1 136.06c1.2 7.08-4.4 1.4-6 3.2-.78-1.94-.78-1.94 2.1-2.17z" class="cls-41"/><path d="M54.1 148.23c1.78-2.28 2.76.3 4.1.68l-1.1 3.2c-3.77.9-2.9-1.8-3-3.8z" class="cls-42"/><path d="M10 81.06h1.57l3.4 1.38c-1.1 2.08-2.54 3.14-4.93 2.6C11 83.7 7.4 82.4 10 81.07z" class="cls-43"/><path d="M112.1 154.58c-1.82.16-2-1.6-3-2.47 1.36-3.8 3.56-3.1 6-1-2.8-.3-1.82 2.5-3 3.6z" class="cls-44"/><path d="M122.3 154.06c1.63-.2 1.88.77 1.78 2-1.8.15.94 3.25-1.8 2.77a5.34 5.34 0 0 1-1.74-.4c-.07-1.7-.04-3.43 1.77-4.37z" class="cls-45"/><path d="M179.1 72c.06-3.2-5.3-5.85-.95-9.47.25 3.16 2.02 6.17.94 9.47z" class="cls-42"/><path d="M10.17 54.88l.78-2.06c.83 0 1.7-.6 2.5.1.82.17 2.08-1 2.4.17s-.63 2.2-1.75 3c-.8-2.2-3 .3-3.93-1.3z" class="cls-46"/><path d="M8.17 99.74l-1.08.32c-.7-1-3.3.2-2.6-2.7.7-3.14 2.4-.82 3.5-1.13v2.1z" class="cls-47"/><path d="M11.22 67.18l.68-4.25.95-.66c1.16.2 2.22.6 2.16 2-.1 2.43-2.3 2.18-3.7 2.9z" class="cls-48"/><path d="M87.1 160.94c-3.13 2.14.75 2.63.93 4-3.6 1.55-3.85-2.36-6-3.7z" class="cls-32"/><path d="M68.2 157c-.4-1-1.3-.9-2.12-.95 1.08-1.22 1.36-3.07 3-3.83a17 17 0 0 0 .65 3.6c1.14 2.72-1.12.65-1.52 1.17z" class="cls-44"/><path d="M43.96 140.27a1.54 1.54 0 0 1 .37-.3c2.48-.95-2.74-3 .38-3.4 1.9-.22 1.5 2.4 2.3 3.64-1 .1-1.9 1.8-3 .1z" class="cls-49"/><path d="M124.1 156.06c1.25-.2.84-2.73 2.77-2 1.47.63 1.68 1.7.48 2.6-1.03.7-2.45 1.14-3.26-.6z" class="cls-50"/><path d="M39.1 58.12c-2-1.37-4.18-2.23-1.44-5.38 2.54-2.9.37-6.62-3.38-6.67 2.54-2.76 6.5-2.94 9.43-5.56 2.5-2.2-.8-4 1.3-5.6s1.2 3.7 3.7 1.3c1.3-1.3 3.3 1.1 5 .5 3.9-1.4 7.7-3 11.6-4.6 3-.7 1.3 3.3 3.5 3.3.7 1.9-.3 3.2-1.4 4.5a35.7 35.7 0 0 0-5.7 8.6c-1.6 3.7-6 4.7-9.2 5.9-4.2 1.6-8.5 3.5-13.2 3.8z" class="cls-51"/><path d="M178.04 45.06c-2.47-.52-4.54 1.84-7.06 1-1-5.22.26-10.8-2.7-15.76-1.87-3.1-9.13-6.8-12.6-6-1.6.35-4 1.15-3.48-2.17.52-2.62-3.18-.5-3-3.12a32.37 32.37 0 0 1 11.8.2c.43 1.6 1.93-2.1 2.55.6.37 1.7 1.78 3.6 4.38 1.8 1-.6 2.24.3 2.83 1.5 1.14 2.2 1.75 4.7 4.43 5.7a1 1 0 0 1 .1 1.7c-2.7 2.9 1.6 1.7 1.7 2.9.7 2.4-2 2.2-3 3.8 6.1.4 3.3 5 3.9 8.1zm-149.1-19.3c.73 1.74.65 2.75-1.3 4.1-3.85 2.67-7.37 6-9 10.6-.56 1.62-.84 3.95-.1 5.3 2.4 4.3-.86 4.37-3.35 5.18-.9-2.54-2.9-3.85-5.2-4.75-1.2-3.2 2-7.2 2.5-7.4 4.8-2.2 4.4-8.3 8.7-10.7 2.5-1.4 4.7-3.2 7.8-2.3z" class="cls-52"/><path d="M160.98 19.06h-11.1c2.82 1.32 2.82 1.32 2.33 3-1.2-1.76-1.4-1.23-2.3.5-3 5.65-6.4 6.74-11.7 4.07 2.6-2.13 6.8-2.74 8.3-5.06 4.3-6.72 9.7-2.62 14.6-2.5z" class="cls-53"/><path d="M41.1 27.06c-2.2-.16-4-4.44-6.8-.2-.8 1.28-3.38-1.22-5.35-1.08l.1.12c.1-2.3 1.3-3.14 3.58-3 3.15.18 6.3.16 9.46.22 1.1 1.68.7 2.94-1 3.94z" class="cls-54"/><path d="M9.97 46.2c4-.88 6.76-.44 5.2 4.74-.8.47-2.2.4-1.73 2-.84.12-1.7 1.23-2.5-.1z" class="cls-55"/><path d="M41.1 27.06a6.67 6.67 0 0 0 1-3.94c2.27 2 5.13 1.56 7.8 1.87 1.9.2 3.56.5 3.06 3a2.5 2.5 0 0 1-3.5.8c-2.4-1.4-5.1-1.3-7.67-1.8l-.4.1z" class="cls-4"/><path d="M68.23 35.06c-2.52.53-1-3.14-3.08-3 2.06-3.14 5.5-.53 8-1.92.2 1.3-.7 2.18-1.23 3.2-.54 2.1-1.56 3.13-3.7 1.72z" class="cls-56"/><path d="M41.8 27.16c3.85-1.4 7.38 1.26 11.16.9-.2.66 1.48 1.15-.27 2.15-2.5 1.5-5.6.4-6.1-.6-1.3-2.3-3.3-1.6-4.8-2.4z" class="cls-16"/><path d="M174.34 61.06c-2.36 1.3-2-1-2.25-1.92-.4-1.57-.8-3.53 2-3.3 3.7 1.57-.6 3.5.2 5.22z" class="cls-53"/><path d="M103.14 29.3c-.07 4.4-2.46 4-5.34 2.6.6-3.28 3.72-1.4 5.34-2.6z" class="cls-57"/><path d="M68.23 35.06a5.26 5.26 0 0 0 3.67-1.7c4 3.08 4.13 6 1.63 11.27-1.17 2.48-4.33 5.5-.44 8.48a2.3 2.3 0 0 0 1.3.5c2.1.2 4.4-.7 6.2.4 2.6 1.6-.1 3.7 0 5.6 0 .6.9.9 1.1 1.5 3 2.8 1.6 6.7 2.4 10a4.58 4.58 0 0 1-3.2 4.8c1.4-.4 2.7-1.2 3.8.5a15.45 15.45 0 0 1-1.1 2.7c-1.9 2.8-2.9 1.7-3.4-2-2.4 4.3-3 8.2-5.6 11.1 1 2.1-.7 3.2-1.7 4.6-.5 1.1-.2 2.1.9 2.1s0-1.5.9-2.1c.9-.8 1.8-1.7 3-.3 0 1.7 1.6 3.7 2.3 2.4 2.7-4.6 6.7-1.6 9.9-2.4a28.8 28.8 0 0 1 4.9-.4c1.3-.3 2.7-.3 3.3-2.2 1.1-3.1 3.3-1.5 5.3-.8 1 .3-.7 2 1 1.5.9-.3 2.1-.9 1.5-2.1-1.2-2.6-.8-5.6-2.6-7.9-2.4-5.3-.2-10.9-1.2-16.4-.6-2.6.5-4.9 3.9-4.9a1.7 1.7 0 0 0 2-1c2.8-7.8 9.4-9.8 16.7-10.8a2.7 2.7 0 0 1 3.1-.1c4.5 1.5 9.8.2 13.3 5.4 1.8 2.7 3 3.9.7 7-.9 1.2-2.3 2.7-1.5 4.7 2.3 5.9-.6 9.9-6.8 10-2.8 0-5.6-.1-8.4 0-5.3.3-10.3-.2-14.4-4-2.1-2.9-.6-5.8-.3-8.4-1.5 2.8-2 6.1-2.7 9.5a46.94 46.94 0 0 1 .9 6.8c0 1.7 1 2.9 2 2.6 2.8-.8 4.2 1.1 5.9 2.6 2.6 2.4 1.3 3.9-.8 5.4 5.1 3.2 5.7 10.5 1.1 17.6a20.12 20.12 0 0 1-9.3 9.8 17.2 17.2 0 0 1-8.7-.9c-1.7-.6-3.4-1.6-5.4-1.6.4 2.3-2.1 3.6-1.9 5.7-1.7.8-.8 1.4.1 2 .8 2.6-.4 5.4.9 7.9 8.7-1.2 15.9 3.4 23.4 6.5 1.7.7 2.6 3.2 3.7 5a1 1 0 0 1-.8 1.5c-1.8.2-4 .9-5.3-.4-8.2-8.3-18.8-8.2-29.3-8.3-2 0-3.9 1.2-5.9 1.9-.6-.3-.6-1.8-1.8-.8-6.1 2.5-12.7 2.6-19 4.2a3.64 3.64 0 0 1-4-3.1c-.3-3.1 2.2-2.2 3.3-2.2a29.23 29.23 0 0 0 12.7-2.9 23.67 23.67 0 0 1 9.9-2.2c4.7-.1 6.6-2.1 6.1-6.7-.1-1 .4-1.9.3-2.9-1.6 1.7-3.1 3.6-5.8 3.3-2.8-2.3-6.4-.3-9.4-1.7l-1.2-2.2a5.48 5.48 0 0 1-2.2-2.7c-3-3.8-2.3-7.6.3-11.4-5.4-1.2-5.4-1.2-1.6-5.4 2.2-2.4-.1-5.6 2-8.2 3.5-4.6 3.5-10.6 5.2-16 .4-1.4-.6-1.6-1.2-2-1.8-1.4-8.3 1.6-8.3 3.8 0 .8 1.3 1.8-.5 2-.7.1-2-.1-2.2-.5-1.7-4-3.5-.5-3.8.3-1.5 4-6.1 6.5-8.1 11.6-1.1 2.7-5.3 5.9-8.5 8.5a3.16 3.16 0 0 1-4.1-.4c-1.3-1.5 0-2.6 1.6-3.2a1.2 1.2 0 0 0 .6-2c-4.3-3.7.7-5.4 2-7.4s2.4-3.9 1.5-6.4c.9-2.2 1.4-4.7 3.7-6-1.2-1.7-.7-3.4-.2-5.2.7-2.6 1.4-5.3.2-8.1-3.7 2.1-7.5 3.8-11.2-.1 1-1.2 3.8 1.6 4.3-1.5 1.3-2.4 3.8-2.5 5.9-2.9 4.7-.8 8.5-3.5 13-5 .7-.2 2.1-.6 2.1-1 .5-5.7 5.5-8.6 7.9-13.2a2.88 2.88 0 0 0 0-1z" class="cls-14"/><path d="M117.4 106.06c1.72-4 1-8.4 1.8-12.55s-4.06-2.5-4.83-5.1c2.37-.8 3.86-2.4 2.62-5.3 3.1 1.6 6.8 2.4 5.6 7.8-.5 1.9-1.6 5.8 2.5 7.7 2.3 1.1 0 7.4-3 8.1a7.9 7.9 0 0 1-4.7-.5z" class="cls-58"/><path d="M81.1 121.06a15.14 15.14 0 0 1 7.32-3.75c-2.44 3-.2 6.2-1.13 9.3-.7 2.1-1.1 2.4-3.1 2.4-4.7.2-9.4.9-14.1 1.3 2.3-1.2 3-4.8 6.6-4.4 1 .1 1.1-1 1.3-1.8 1-.9 1.5-2.4 3-2.9z" class="cls-59"/><path d="M103.63 80.18c3.44 2.66 3.05 7.14 5.5 10.73-2.72-.1-5 .8-7.07-.8l1.83-.5c-3.9-2.3-5.3 4.2-8.9 2.3a2.9 2.9 0 0 0 1-1c-1.2-4.6 3-5.3 5.4-6.6 2.1-1.1 1.9-2.4 2.1-4z" class="cls-60"/><path d="M92.1 119.06c.4-3.28 1.1-6.53.63-10.23 3.07 7.42 10 5.44 15.3 7.15-1.42 2.52-5.74 1.3-6.3 4.9-1.07-1.52-1-3.64-2.68-4.83-3.2-1.08-5.3.4-6.96 3z" class="cls-61"/><path d="M81.94 61.06c-1.6.3-2.7-.93-4.06-1.23-.22-1.58 1-1.53 1.86-1.82 1.23-.4 1.28-1.3 1.2-2.4-.14-1.5-1.54-.9-2.33-1.2-1.7-.8-4 1-5.5-1.1 1.7.2 3.7.7 4.9-.4 3.4-3.2 3.6 2.8 6 2 0 0 .4.9-.2 1.1-3.2 1-1.6 2.4-.2 3.7.7.6.7 1.1 0 1.5a3.52 3.52 0 0 1-1.5.1z" class="cls-62"/><path d="M158.16 140.06c-2.35-.92-4-.2-5.28 2-.7 1.24-1.15 2.77-2.82 3.16-1.27-.78-.8-2.05-.9-3.17.62-1 1.57-1.72 2.25-2.66a8.68 8.68 0 0 1 1.7-2.4c.5-1.5 1.3-3 3-2.4 2.4.8 1.2 3.6 2.2 5.3z" class="cls-63"/><path d="M108.17 71.06c-3.22-5.24 2.3-7.74 3.24-11.7.5 3.67-.8 7.1-.3 10.67z" class="cls-64"/><path d="M59.1 148.06c.08-.73 1-1.57-.3-2.12 1.16-1.18 3-1 4.22-2.4 1.06-1.22 1.9.25 2.7 1.07s1.73 1.2 1.33 2.4-1.5 1.1-2.5 1.1z" class="cls-65"/><path d="M141.2 145.06h-1.1c.9-4.63 3.25-5.3 7.1-2-1.58 1.8-3.87 1.7-6 2z" class="cls-66"/><path d="M11.15 78.48a7.44 7.44 0 0 1 .84-5.2 2.56 2.56 0 0 1 2.1-1.36c3.2 3.3 1.1 4.84-2 6.05z" class="cls-67"/><path d="M71.97 91.97l2.9-4c.92 1.48 3.84 1.53 3.05 4.25l-2.94.78c-1.5 1.06-2.37.35-3-1.03z" class="cls-68"/><path d="M12.15 77.97c1.76-1.66 4.54-3 2-6.05l-2.12-2c3.82-1.6 3.9 1.17 4.08 3.6.2 2.8.3 5.6-3.9 4.45z" class="cls-69"/><path d="M93.15 128.88c-4.24-2.18-1.26-5.17-.9-7.87 2.38 2.4 2.43 5.1.9 7.9z" class="cls-4"/><path d="M163.25 78.87c2-.52 2.84-3.75 5.4-2.32a2 2 0 0 1 .35 2.7c-1.86 1.3-3.8.44-5.75-.38z" class="cls-70"/><path d="M127.65 139.48c-1.95 1.54 3 3.76-1 4.08-1.57.12-2.3-1.75-2.18-3.36.1-1.17.57-2.37 2.1-2.2s1.3 1.06 1.08 1.48z" class="cls-71"/><path d="M99.1 116.06c4.35-.3 3.34 2.34 2.66 4.82-3.94.08-2.1-3.04-2.67-4.82z" class="cls-72"/><path d="M31 138.2c-1.74.3-1.7-1.8-2.93-2.17.57-2.63 1.8-4.2 4.9-2.93-.36 1.83-2.8 2.87-1.98 5.1z" class="cls-41"/><path d="M85 76.28c-1.84-1-3.4.2-5.2.72 1.63-2 3.46-3.72 4.57-5.94 1.5 1.6.55 3.46.62 5.22z" class="cls-73"/><path d="M81.1 121.06c-.8 1.2-1.3 2.7-3 3 .44-1.94.74-3.56-2.32-3.25-1.42.2-3.26 1-4.46-.7 3.3.1 6.7-.8 9.77 1.1z" class="cls-74"/><path d="M45.9 72.98c-.66.3 2.16 3.44-1.43 1.68-.5-.25-.2 3.5-2.3 4.36-1.2-2.58.4-5.17 3.72-6.04z" class="cls-75"/><path d="M14.1 95.06c-.95-1.56-2.8-.43-4.23-1.47 1.28-1.3 3.3 0 4.28-1.5 2.9-1 1.86 1.4 1.94 2.5 0 .6.7 2.1-1 1.9-.5 0-.7-1-1-1.6z" class="cls-28"/><path d="M152.1 139.8c-.27 1.7-1.53 2.12-3 2.3l-1-1.04c.42-1-1.67-2.77 1-3 1.23.18 3.6-1.6 3 1.74z" class="cls-76"/><path d="M77.3 134.26c1.33-1.2 1.33-1.2 1.8.84.24 2.48-.2 4.58-3.55 5.6.98-2.3 2.92-4.07 1.75-6.44z" class="cls-77"/><path d="M15.83 98c.15 2.44-1.67 4.58.05 6.67-3.1-2.54-3.12-2.97-.05-6.68z" class="cls-78"/><path d="M67.94 115.12a2.66 2.66 0 0 1 2.18 2.7c-1.93 1.33-3.45.45-4.9-.66.1-2.1 2.65-.2 2.72-2.04z" class="cls-79"/><path d="M165.7 91.36l-2.27-4.48c.66 1.5 5.28.78 2.28 4.48z" class="cls-80"/><path d="M142.3 39.15c-2.2 1.13-2.4 3.53-4.78 3.43-.36-3.08 1.4-3.66 4.78-3.43z" class="cls-81"/><path d="M152.1 139.8c-.14-2.12-2.76.08-3-1.75.9-2 2.22-2.24 4-1 .36 1.13.26 2.13-1 2.75z" class="cls-11"/><path d="M128.18 46.97l-3.1.1c2.1-.8 1.76-3.07 2.45-4.93 1.84 1.76 1.18 3.3.65 4.83z" class="cls-44"/><path d="M77.1 114c1-1.35.53-2.63.22-4.14-.56-2.68.68-5.15 3.46-5.53 3.38-.47 3.15 3.67 5.22 5.07-1.5 1.55-.08 5-3.45 5.33-1.8.18-3.6.33-5.4.5a.83.83 0 0 1-.28-.8.5.5 0 0 1 .22-.44z" class="cls-73"/><path d="M104.1 95.06c3.3-1.27 6 1 8.92 1.7 1.8.45 3.27 2 1.33 4.58a19.55 19.55 0 0 1-3.85 4.4c-.52-1.53-1.38-2.9-1.36-4.24 0-3.12-1.27-4.05-4.13-3.34-.6-.9-3.8-1.1-.9-3.1z" class="cls-82"/><path d="M102.1 105.3c1.6 1 3.35-.8 5 .37.82.58 2.2.14 2.22 1.95s-1.42 1.75-2.24 2.1c-2.93 1.2-5.6 1-7.17-2.34-.6-2.07 1.1-1.75 2.2-2.08z" class="cls-16"/><path d="M104.1 95.06c-1.3 1.5.3 2.15.9 3.1-3.37-.7-6.62.54-9.94.73a.73.73 0 0 1-.38-.8.47.47 0 0 1 .23-.5c1.7-2.5 4.8-.9 6.9-2.2a7.36 7.36 0 0 1 2.4-.5z" class="cls-83"/><path d="M136.1 66.26c0 1.72.43 3.4-1.94 3.44-1.06 0-2.33-.15-2-1.43.44-1.8 1-4.16 3.07-4.4s-.3 2 .86 2.4z" class="cls-22"/><path d="M47.8 70.46c2.3-.6 1.1-4.4 3.84-3.1 1.17.56 2.56 3.45 2.1 4.14-1.65 2.45-3.24-.24-5.94-1.04z" class="cls-35"/><path d="M102.1 105.3l-2.13 2.08c-1.88-.12-3.73-.27-3.82-2.8 0-1 .3-1.27 1.42-1.36 2.9-.22 3.45-.1 4.52 2.08z" class="cls-65"/><path d="M77.1 114l.04 1.22c-5.5.77-5.68.58-5.14-6.94 1.44 2.6.46 7.04 5.1 5.7z" class="cls-84"/><path d="M86.65 98.16c1.72-.6 2.5-.12 2.63 1.4a1.67 1.67 0 0 1-2.06 2 2.77 2.77 0 0 1-2.82-2.36c-.24-2.32 2.1.2 2.25-1.04z" class="cls-34"/><path d="M136.1 54.06c1.3 1.16 4.37 2.78 3.67 3.36-2.4 2-3.6-1.86-5.8-2.16-.13-1.9.83-1.86 2.12-1.2z" class="cls-85"/><path d="M71.97 91.97a4.24 4.24 0 0 0 3 1.08c-.38 1 1.38 2.24-.15 3a2.3 2.3 0 0 1-2.78-.37c-1.02-1.16-1.8-2.44-.07-3.7z" class="cls-86"/><path d="M71.02 64.74c-.5.9-.9 2.23-2.25 2a2.12 2.12 0 0 1-1.6-2.15c0-1.3 1.06-1.4 2.06-1.4s2 0 1.8 1.5z" class="cls-87"/><path d="M71.76 105.76c.1-2.13-.18-4.5 3-5.57-.3 2.5-1.06 4.3-3 5.5z" class="cls-40"/><path d="M94.92 97.74l.15 1.2-2.3 3.82c-.88-5.05-.88-5.05 2.15-5.02z" class="cls-48"/><path d="M136.1 54.06a2.18 2.18 0 0 0-2.12 1.2l-4.84-1.47c2.45-.3 4.82-1.2 6.95.2z" class="cls-88"/></svg>