<svg xmlns="http://www.w3.org/2000/svg" id="Layer_1" data-name="Layer 1" viewBox="0 0 184.82 184.63">
    <defs>
        <style>.cls-1{fill:#238ea5;}.cls-2{fill:#142a88;}.cls-3{fill:#2391a5;}.cls-4{fill:#c22e32;}.cls-5{fill:#c12c2f;}.cls-6{fill:#dec6c4;}.cls-7{fill:#0e1115;}.cls-8{fill:#dec7c2;}.cls-9{fill:#181414;}.cls-10{fill:#98cdd4;}.cls-11{fill:#a6d2d9;}.cls-12{fill:#dcc9c1;}.cls-13{fill:#60b4c2;}.cls-14{fill:#78bfc8;}.cls-15{fill:#89c7ce;}.cls-16{fill:#131214;}.cls-17{fill:#5cb5c0;}.cls-18{fill:#2992a3;}.cls-19{fill:#502119;}.cls-20{fill:#2a8fa5;}.cls-21{fill:#8f3e3f;}.cls-22{fill:#81332d;}.cls-23{fill:#0d2b6a;}.cls-24{fill:#0a2531;}.cls-25{fill:#cabb98;}.cls-26{fill:#295f6a;}.cls-27{fill:#3e5862;}.cls-28{fill:#0d1112;}.cls-29{fill:#09232d;}.cls-30{fill:#398691;}.cls-31{fill:#0c1b2b;}.cls-32{fill:#114e65;}.cls-33{fill:#062530;}.cls-34{fill:#64acb1;}.cls-35{fill:#0e6580;}.cls-36{fill:#387486;}.cls-37{fill:#532d52;}.cls-38{fill:#1f2366;}.cls-39{fill:#0e205b;}.cls-40{fill:#532f4b;}.cls-41{fill:#322138;}.cls-42{fill:#a0212b;}.cls-43{fill:#b92f38;}.cls-44{fill:#26394c;}.cls-45{fill:#90313a;}.cls-46{fill:#4ba8b6;}.cls-47{fill:#191211;}.cls-48{fill:#8e3330;}.cls-49{fill:#8e3930;}.cls-50{fill:#8c1023;}.cls-51{fill:#a43037;}.cls-52{fill:#762828;}.cls-53{fill:#bb8171;}.cls-54{fill:#9f373e;}.cls-55{fill:#961f27;}.cls-56{fill:#763435;}.cls-57{fill:#1b1710;}.cls-58{fill:#a41d46;}.cls-59{fill:#241e4a;}.cls-60{fill:#222b80;}.cls-61{fill:#a01f3c;}.cls-62{fill:#803934;}.cls-63{fill:#66171d;}.cls-64{fill:#9b7e78;}.cls-65{fill:#967d76;}.cls-66{fill:#5d3439;}.cls-67{fill:#ddc8c4;}.cls-68{fill:#71bec7;}.cls-69{fill:#a08d83;}.cls-70{fill:#0f2628;}.cls-71{fill:#468088;}.cls-72{fill:#7bc4cb;}.cls-73{fill:#dec8c3;}.cls-74{fill:#dac9c2;}.cls-75{fill:#dcc7bf;}.cls-76{fill:#211d19;}.cls-77{fill:#dfd8d0;}.cls-78{fill:#d3c9c5;}.cls-79{fill:#cbbbb6;}.cls-80{fill:#ab3540;}.cls-81{fill:#846e68;}.cls-82{fill:#ddd4cb;}.cls-83{fill:#b64b2f;}.cls-84{fill:#221913;}.cls-85{fill:#b5aea3;}.cls-86{fill:#d2c9c4;}.cls-87{fill:#b8ada9;}.cls-88{fill:#ada49e;}.cls-89{fill:#827871;}.cls-90{fill:#3d2c24;}.cls-91{fill:#ada89f;}.cls-92{fill:#c2beb9;}.cls-93{fill:#7a2115;}.cls-94{fill:#4f5e65;}.cls-95{fill:#8a857d;}.cls-96{fill:#6fa7a7;}.cls-97{fill:#b0aaa5;}.cls-98{fill:#6b6b63;}.cls-99{fill:#735f57;}.cls-100{fill:#443d36;}.cls-101{fill:#463e36;}.cls-102{fill:#ba1845;}.cls-103{fill:#ba7a70;}.cls-104{fill:#a59b97;}.cls-105{fill:#803857;}.cls-106{fill:#812e3b;}.cls-107{fill:#923439;}.cls-108{fill:#392148;}.cls-109{fill:#f5d8d1;}.cls-110{fill:#8c2a3d;}.cls-111{fill:#e1ddd6;}.cls-112{fill:#e0d7cc;}.cls-113{fill:#837368;}.cls-114{fill:#6b4346;}.cls-115{fill:#4c463d;}.cls-116{fill:#837769;}.cls-117{fill:#937e77;}.cls-118{fill:#94837a;}.cls-119{fill:#9c8b86;}.cls-120{fill:#6e5851;}.cls-121{fill:#a09086;}.cls-122{fill:#877a73;}.cls-123{fill:#817165;}.cls-124{fill:#988684;}.cls-125{fill:#3f372b;}.cls-126{fill:#2c251b;}.cls-127{fill:#271a20;}.cls-128{fill:#2d1f1a;}.cls-129{fill:#d2c6be;}.cls-130{fill:#7a605e;}.cls-131{fill:#e2d5cd;}.cls-132{fill:#948781;}.cls-133{fill:#4c3a35;}.cls-134{fill:#bc3139;}.cls-135{fill:#614d46;}.cls-136{fill:#368596;}.cls-137{fill:#4c2d35;}.cls-138{fill:#bbb0a5;}.cls-139{fill:#897b74;}.cls-140{fill:#e0d1d9;}.cls-141{fill:#742429;}</style>
    </defs>
    <path d="M.53 18.1c0-5.17.14-10.34-.07-15.5C.36.44.86 0 3.03.03c8 .17 16 .07 24 .07q76.75 0 153.5-.1c3.43 0 4.12.67 4.1 4.1-.17 31.67-.1 63.33-.1 95-1.87 3.36-5.3 3.83-8.54 4.63-5.5-.45-6.3-2-3.3-6.68 1.5-2.35 3.1-4.6 3.1-7.58 1.2-6.15 4.1-11.8 3.8-18.44-.6-12.73-9.3-24.6-21.6-28.17a44 44 0 0 0-13.3-1.78c-8.6.18-16.3-2.9-23.5-7.38-.5-1.77-.6-3.6-3.6-3.3a7.3 7.3 0 0 1-5.4-1.92 2 2 0 0 1-.2-1.4 3.1 3.1 0 0 1 1.6-1.3 13.83 13.83 0 0 1 2.9-.17 2 2 0 1 1 .5 0c-.7.2.4-.4-.1 0s-.7-.6-.6 0c-10.5-2.2-21-4-31.6-.7-1.7.5-3.9.9-4.9-1.1s.2-3.5 1.4-5a11 11 0 0 1 2.5-2.4c3.1-1.2 5.3-4.5 8.5-4.2-3.8 1.2-8.6 1.1-12.6 3.6-1.4.5-2.9.8-4.3 0-1.4-2 .7-2.4 1.5-3.4-1.9 1.7-3.9 3.2-6.6 3.4-4.1 1.6-8 3.4-10.65 7.1-5.4 4.8-9.4 10.3-9.8 17.9-.1 1.7-.2 3.9-2.9 3.9-1.6-2.7-2.4-5.8-3.9-8.6-.9-1.6.2-4.4-2.9-4.8-5.4-6.6-13.14-8.1-21-8.7-5-.3-9.8-1.4-14.8-1.7-1.76-.1-3-1.3-4.25-2.4z" class="cls-1"/>
    <path d="M184.53 152.1v11a15 15 0 0 0-1 5.72 8 8 0 0 1-3.1 6.93 9.3 9.3 0 0 0-3.9 8.35h-56c-.6-1.5.34-2.38 1.3-3.25a18.74 18.74 0 0 1 9.22-3c5.62-.46 10.22-4.14 15.47-5.93-5 1.73-9.44 4.68-14.63 5.9-3.7.85-5.9-.32-6-4.38.8-4.7 2.8-9 4.1-13.57.6-2.08 1.9-3.85 4.3-4.18 4.3 0 8.8-1 12.8 1.5 3.4 2.3 7.4 3.5 11.1 5.3 2.9 1.4 4.3.4 5-2.4 4.6-7.5 1.8-14.8-.7-22.1-2-7.4-1.2-8.4 7.7-8.6 10.1 1.8 12.3 4.3 13.1 14.2.2 2.8-.1 5.6.9 8.3z" class="cls-2"/>
    <path d="M.53 113.1v-36a45.18 45.18 0 0 1 26.94-6.66c4.18 1.22 7.35 5.54 12.44 4.08a1.86 1.86 0 0 1 1.2.93c-.2 5.54-1.8 7.2-6.7 7.22-2.7-.74-4.4-.57-2.5 2.87 3.4 6 7.6 11.64 10.4 18a12.9 12.9 0 0 1 .7 1.88c1.3 7 1.2 7.14-6 7.18-5.7 0-11.6-.86-16.7 2.93a6.9 6.9 0 0 1-1.5.74 10.34 10.34 0 0 1-2.5.3c-5.3-.34-10.6-.92-15.5-3.47z" class="cls-3"/>
    <path d="M63.53 184.1h-5c-1.73-3.1-4.43-2.1-6.9-1.5s-4.82.78-6.8-1.22c-1.63-3.52-2.16-7.54-4.86-10.57a6 6 0 0 1-1-3c-1.7-5.1-3.13-10.3-2.94-15.8.06-1.6-.2-3.3 1.05-4.7 3.94-1.7 3.5 2 4.72 3.8.24.6.35 1.3.6 1.9 1.68 4.4 2.57 4.5 5.5.9 3.35-4.1 6.8-8.2 12.17-9.9 6.76 1 13.25 3.9 20.28 3.2 2.12.4 4.12 1.2 6.2 1.8 2.6.7 4 2.2 3.43 5.1-2.17 4-4.35 8-.9 12.4a17.05 17.05 0 0 1-5.85 9.7c-7.57.3-13.87 3.7-19.7 8.2z" class="cls-4"/>
    <path d="M44.53 184.1h-31c-1.64-1.55-1.48-3.58-1.5-5.56V160.7c-.14-3.9 3-6.55 3.8-9.8-.86 1-.74 3.67-3 3.27s-2.67-2.65-2.75-4.73c-.1-2.82.13-5.65-.23-8.46a8 8 0 0 1 .23-2.26c2.3-6.2 2.42-6.27 8.34-3.84a27.2 27.2 0 0 1 5.65 3c1.48 1.36 3.13 2.76 5.2 2.24 4.07-1 5 1 4.87 4.4-.06 8.67 2.75 16.73 5.22 24.86 1.95 4.22 4.3 8.26 5.8 12.7a2.2 2.2 0 0 1-.63 2.02z" class="cls-5"/>
    <path d="M82.53 174.97l5.65-8.73a10.07 10.07 0 0 1 9.13-8.83 26.8 26.8 0 0 1 23.2 8c5 4.9 3.5 13-2.9 18.8h-39c-1.5-4.3.7-7 4-9.1z" class="cls-6"/>
    <path d="M184.53 152.1c-1.45-3.17-1.63-6.62-2.08-10-.94-7.05-6-9.52-12-11a25.47 25.47 0 0 1-16.67-8.2 9.16 9.16 0 0 1-1.66-2.48 6.62 6.62 0 0 1-.92-2.94c1-2.43-.36-6 3.55-7 2.6 1.27 3.74 4 5.8 5.75 1.16 1 2.9 4.26 4.72.37 4.1-2.4 2.5-6.26 2.5-9.7 1.32-3.86 5.4-3 8-4.75l8.76-3.05v53z" class="cls-7"/>
    <path d="M.53 118.1v-4c5.26-1.32 9.94 1.7 15 2 6.38 0 12.26 2.5 18.42 3.6a21.65 21.65 0 0 1 2.92.7c1.4.5 2.87.72 4.3 1.1a29.57 29.57 0 0 0 4.55 1.25c4.4 1.32 6.45 4.47 6.7 8.85a8.08 8.08 0 0 1-5.45 8.58 8.38 8.38 0 0 1-5.6.4c-2.07-.5-4-1.27-6.07-2-1.46-.48-3.1-.74-4.12.55-2.6 3.25-4.8 1.46-7.1-.32-1-.9-2.57-1.1-3.3-2.4-.44-2.8 1.94-4.4 2.8-6.3-1.6 1.6-1.94 4.5-4.37 5.8-1.7-.2-3.3-.7-3.3-3a22.08 22.08 0 0 1 2.2-4.2c-.9 1.3-1.4 3-2.8 4-1.8.4-2.7-.6-3.4-2.1a5 5 0 0 1 .4-3.6c.5-1.2 2.6-2.4.2-3.8-3.8-2.1-8.6-1.6-11.8-4.9z" class="cls-8"/>
    <path d="M117.53 184.1c1-2.6 1.84-5.3 3.06-7.8 2.3-4.7 1-8.18-3-11.17a31.17 31.17 0 0 0-19-6.4c-5.1-.05-7.4 4.5-10.5 7.5-4.8-4.68-4.8-5.85.3-12.2 1.8-1.2.8-4.08 3-5.13 7.3-1.22 14.5-2.85 21.9.6 4.8 2.28 10.2 2.65 15.4 4 1.8.5 4 .52 5.5 2a1.13 1.13 0 0 1 .1 1.54c-1.6.2-2 1.45-2.4 2.74-1.5 4.8-3 9.58-4.6 14.37-.9 3.16-1.6 6.4-5 7.93a3.52 3.52 0 0 0-2 2.06h-3z" class="cls-9"/>
    <path d="M.53 26.1v-6c4.25-1 8.3-.2 12.3 1.28 1.4 1.16 1.9 2.8 2.46 4.42.3 3.82 1.6 5.76 6.2 5.8 5.3 0 9.7 6.36 10.2 13 .2 3.5-2.2 6.4-7.6 8-6 1.76-11.4 5.7-18 5.7-2 0-4 .36-5.6-1.24v-3c2.8-3.82 7.3-4.88 11.4-6.5 5-2 5.2-2.5 1.6-6.43a11.8 11.8 0 0 1-3-7.18c-.6-6.22-.6-6.25-6.6-6.5A4.6 4.6 0 0 1 .5 26.1z" class="cls-10"/>
    <path d="M.53 26.1a15.8 15.8 0 0 0 2-.07c8.84-1.42 9.8-.75 9.94 8.26.05 3.7 2.1 5.9 4.8 7.5 3.5 2.1 3.23 3.9-.26 5.4C11.6 49.6 6 51.7.6 54V26z" class="cls-11"/>
    <path d="M11.53 184.1c-3.67 0-8.76 1.43-10.6-.4s-.4-6.93-.4-10.6v-25c6.7 1 9.56 6 12 11.5v19.3c0 1.77.32 3.65-1 5.2z" class="cls-12"/>
    <path d="M40.77 75.2H39.6c-2.06 1.37-3.9.1-5.3-1-1.8-1.4-4-.93-5.78-2.08-8.1-.64-15.6 2-23.1 4.4a16.3 16.3 0 0 1-4.9.58v-6c2-3 5.2-3.95 8.45-4.84 8.52-2.35 17.3-3.23 26-4.62 4.76 1.5 7.2 5.66 9.56 9.4 1.33 2.12-.76 4.28-3.76 4.16z" class="cls-13"/>
    <path d="M35.47 62.3c-1.47 3.2-4.8 2.17-7 2.4A131 131 0 0 0 .53 71.1v-9a9.8 9.8 0 0 1 7-3.36c8.72-.5 16.2-4.5 23.86-8 3.9 1.2 2.4 5.48 4.5 7.76.4 1.32.5 2.6-.5 3.8z" class="cls-14"/>
    <path d="M31.74 50.8c-.3 1.26-.33 2.6-1.9 3.2-4.62 1.74-9.1 4-13.84 5.3-5 1.37-10.3 1.9-15.48 2.8v-5c8.85.13 16.43-4.37 24.53-6.9 2.47-.78 5.64-1.76 5.1-5.66-.88-6.4-4.43-11.24-9.26-11.3-5.2-.08-7.3-2.36-7.4-7.16 5.6 1.6 11.7 1 16.3 6.27 3.1 3.55 3.9 7.42 4.9 11.5-.1 2.35 1.8 4.67.1 7.06-1.1 1.2-2.1-.1-3.2-.1z" class="cls-15"/>
    <path d="M11.38 158.36c-3.85-3.2-6.63-7.48-10.85-10.26v-12c2.1-4.8 6.42-7.76 9.6-11.67a2.3 2.3 0 0 1 2.72-.57c1.13.9 1.56 2 .7 3.28l-.95 3c.64 3.12-.77 6-1.13 9v2c-.58 4.82-1.37 9.66 1.4 14.15a2.6 2.6 0 0 1 0 2.7 1.24 1.24 0 0 1-1.5.3z" class="cls-16"/>
    <path d="M12.45 22.1c-3.83-1.55-7.95-1.36-11.92-2v-2c10 2.32 20.54 1.3 30.46 4.15 4.5 1.32 9.8 2.57 10.5 8.8.5.86 1 1.92.6 2.76-2.4 4.7-1.7 9.8-2.7 14.7-2.2 2-2.9.2-3.3-1.5s-.3-3.3-2.3-4a3.13 3.13 0 0 1-.9-1.1c-.4-9.6-5.1-14.8-14.6-15.9a7.92 7.92 0 0 1-6-3.9z" class="cls-17"/>
    <path d="M.53 133.1v-14c4 .26 7.88 1.07 11.26 3.42-3 4.36-6 8.74-11.3 10.58z" class="cls-18"/>
    <path d="M82.53 174.97l-4 9.13h-6c.22-2.88-1-2.7-2.93-1.48-.94.6-2.16.73-3.07 1.48h-3c4.63-6.6 11.1-9.36 19-9.13z" class="cls-19"/>
    <path d="M184.53 171.1c0 2.33-.33 4.73.07 7 .92 5.17-.94 7.14-6.07 6-2.53-2.83-2.62-5.63.52-8 2.02-1.47 2.62-4.46 5.48-5z" class="cls-20"/>
    <path d="M11.38 158.36l1.3.15a.64.64 0 0 1 .9.6l-.05 25.1h-2c-.66-8.5.87-17.1-.15-25.7z" class="cls-21"/>
    <path d="M44.53 184.1l-.1-2a1.32 1.32 0 0 1 1.15-1.14 7.92 7.92 0 0 0 6.47-.3c4.3-2 6.93-.35 6.48 3.4h-14z" class="cls-22"/>
    <path d="M184.53 171.1c-3.15 3.8-7.78 6.92-6 13h-2c-1.08-1.77-3.2-3.82-.8-5.6 5.24-3.94 6.65-9.83 8.8-15.4v8z" class="cls-23"/>
    <path d="M.53 133.1c4.2-2.72 7.1-6.85 10.87-10.05a.88.88 0 0 1 1.12-.2 1.07 1.07 0 0 1 0 1.2c-4.13 3.9-7.24 8.8-12 12.05v-3z" class="cls-24"/>
    <path d="M66.53 184.1c2.76-3.45 6.1-5.82 11-5.94-1 2.85-4.9 2.82-5 5.94h-6z" class="cls-25"/>
    <path d="M15.53 116.9l-15-2.8v-1c5.53-.5 10.65 2.13 16.12 2.1.38 1.02-.36 1.36-1.12 1.7z" class="cls-26"/>
    <path d="M12.7 123h-1.3c-3.3-2.22-7.3-2.44-10.86-3.95v-1a55.72 55.72 0 0 1 13.15 3.72c.4 1.07-.2 1.33-1 1.23z" class="cls-27"/>
    <path d="M35.47 62.3c-.46-1-1.3-1.8-1-3-.5-1.5-.9-3 .2-4.4a3.27 3.27 0 0 1 2.94.06c.5.18 1 .74 1.2.62.7-.28.2-1 .3-1.55a52.34 52.34 0 0 1 .6-13.2c.4-1.88.6-4.33 2.9-4.73 2.6-.46 1.8 2.67 3.2 3.7a21.56 21.56 0 0 1 .9 4.3c.3 1.36.8.33 1.3.22.5-7.32 2-14.32 7.4-19.85a44.9 44.9 0 0 1 4.2-3.4c3.2-4.64 9-2.3 12.9-5a3.5 3.5 0 0 1 3.3-.77l3.9-1.2a8.7 8.7 0 0 1 4.3-.65c2.5.15 3 1.58 1.9 3.7l-5 6c13-4.24 25.5-2.44 38 1.2 1.3.7 2 1.6.1 2.23-1.3.47-3-.14-4.4.5l-1.5.15c-.7.64-1.4 1.38-2.5 1.35a.73.73 0 0 0-.4.08c.5-.4.2.7.3 0s1.1.37.5.12c2.2 1.53 4.9.74 7.2 1.64a7.86 7.86 0 0 1 4 2.58c2.8.1 5 1.73 7.5 2.76 5 2.1 10.2 3.55 15.9 3.3A36.46 36.46 0 0 1 169 46.1c11.7 8.7 15.9 23 11 36.83-.86 2.34-1.64 4.7-2.44 7.06-3.37 5.8-5.8 12.4-11.2 16.9a3 3 0 0 1-3.36-1c-1-1.7-.67-3.6-.4-5.3.57-3.4-.6-5-4.17-4.6-2.3-.8-3.34-2.8-4-4.8s-2-2.5-3.58-3c-1.63-1-1.77-2.9-2.2-4.4a13.23 13.23 0 0 0 .4 1.7 2.44 2.44 0 0 1-1.4 3c-3.38-.1-4.8-2.4-5.73-5.2.85-3 .56-6 .7-9.1.27-1.5.73-2.8 1.1-4.3-.4 1.7-1.14 3.4-1.16 5.2.24 3.1-.6 6.2-1.2 9.3a2.5 2.5 0 0 1-1 1c-3.45.2-3.8-2.2-3.34-4.6.33-1.7.38-3.3.57-4.9-.4 13.4-4.6 11.3-13.4 6.7-1.3-.7-2.8-.8-4-1.5a4 4 0 0 1-1.1-1c-1.3-2.4 1-3.8 1.4-5.8a6.07 6.07 0 0 1-3.7 4 4 4 0 0 1-3.1-.9c-1.1-.9-2.4-.6-3.6-.7-4.4-1.3-7.9-3.6-10-7.8-1.7-2-3.6-3.7-4.2-6.5-.5-2-2.2-2.8-3.9-3.5a7.4 7.4 0 0 1-2.3-2.1c-.5-.6-.9-1.3-1.8-1-1.7 2.2-.5 5-1.4 7.4a4.44 4.44 0 0 1-1 1.8 7.18 7.18 0 0 0-1 1.1c-3.5 5.2-4 5.3-8.7 1-2.6 3.1-4.3 7.2-8.9 8.2-1.7.3-.3 1.6-.1 2.4.4 2.1.5 3.8-2.5 3.4-1.5-.7-3.1-.9-4.6-1.5-4.4-2.7-6.3-2-7.14 2.9-1 6 1.3 10.3 6.5 13.3a6.05 6.05 0 0 1 2.2 3c.45 1.8-.45 3.4-1 5.1-4.17 1.4-1.45 4.9-2.18 7.4a2.8 2.8 0 0 1-1 1.1 4.72 4.72 0 0 1-4.2-.7 14.42 14.42 0 0 1-2-2c-1.4-2.3-3.7-3.8-5.6-5.6-3.4-5.6-6.4-11.5-9.94-17-1.1-1.7-2.8-3.4-1.1-5.7 1.64.9 2.6.4 3.34-1.3s1.85-3.4 2.8-5c3.07-2.1 4-3.9 0-6.2-2.6-1.6-3.9-4.4-5.33-6.9z" class="cls-28"/>
    <path d="M44.33 41.1l-1.6-4.6c-2.4 4.65-4 8.9-2.66 13.86a25.37 25.37 0 0 1 .37 4.88c-2.15 0-2.42-1.8-3.06-3.25a3 3 0 0 1 1-3 39.36 39.36 0 0 1 3.15-17.9l2.63-4 .45 8c.2 1.9 1.8 4-.2 5.9z" class="cls-29"/>
    <path d="M167.3 105.9c-.67-1.53.2-2.52 1.16-3.5 3.63-3.7 6-8.36 9-12.47.3 3.5-2.18 5.78-3.82 8.4-.66 1.08-2.15 1.86-1.12 3.42.86 1.3 2.18.13 3.24.48-2.38 1.7-4.46 4-7.64 4.25a.86.86 0 0 1-.83-.6z" class="cls-30"/>
    <path d="M85.53 17.1c-.3-4.55-3.9-2.4-6.15-3 4.84-3 10.16-3.38 16.94-3z" class="cls-31"/>
    <path d="M121.67 32.94c-3.9-1.84-8.75-.5-12.23-3.7.78-1.15 1.56-2.3 3.15-1.1 3.4 0 6.7 1.58 10.7.3z" class="cls-32"/>
    <path d="M73.45 16.98c-2.06 1.86-5.12 2.12-7.4 5.36.35-2.92.84-5.52-2.48-3.55-1.37.8-2.35 2.3-4.2 2.2 2.82-3.8 6.9-5.5 11.14-7 2.3-.2 2.2 1.8 3 2.9z" class="cls-33"/>
    <path d="M44.33 41.1l.3-6a13 13 0 0 1 3.1 9.2c0 1.42.83 2.85-.1 4.55-1.87-2.37-2.55-5.06-3.3-7.75z" class="cls-34"/>
    <path d="M73.45 16.98c-1.83-.13-3.43-.5-2.93-2.95 4.1.43 6.28-3.88 10.47-4.25-1.2 2.8-4.6 3-5.5 5.44z" class="cls-35"/>
    <path d="M114.17 26.97c.82-1.87 4.46.7 4.3-2.73a3 3 0 0 1 3.06 1.56c-2.23 1.86-4.84 1.3-7.36 1.17zm-1.57 1.13l-3.16 1.1-4.8.23a16.4 16.4 0 0 1 8-2.34l-.05 1z" class="cls-36"/>
    <path d="M164.53 138.1a10 10 0 0 0 1.36 4.66c3 6.34 1.6 12.4-1.3 18.36-1.4-.6-1.8-1.9-2.2-3.13-.5-2.3.1-4.6.1-6.9.1-9.9-4.7-16.5-13.3-20.7-1.7-.8-4.1-.8-3.8-3.7 6.9-2.9 12.9-.7 15.8 5.8a39.2 39.2 0 0 0 3.1 5.5z" class="cls-37"/>
    <path d="M164.53 138.1a7.5 7.5 0 0 1-3-3.23c-3.45-6.72-9-8.94-16.2-7.6a3.74 3.74 0 0 1-3.9 1.14c-4.28-3.2-.3-3.3 1.6-4.3 4.2 1.1 8-.2 11.64-2.1a72.65 72.65 0 0 0 15.8 9.1h-.5c-7.44.1-7.56.3-5.44 7z" class="cls-38"/>
    <path d="M122.53 182.04l5-7.93c.1 3.5 2.1 3.3 4.43 2.3 5.65-2.3 11.28-4.6 16.9-7l3-1.1c-1.6 4.2-5 5-8 6.2-4.72 2.1-9.07 5.5-14.74 4.7-2.76-.4-3.98 2.9-6.6 2.9z" class="cls-39"/>
    <path d="M163.7 158.1l.9 3c-.23 3.33-2.53 4.5-5.14 3.56-4.12-1.48-8.7-2.22-12-5.6-1.32-3.3 1.6-3.13 3.27-4a6.52 6.52 0 0 1 5.06 1.46 9 9 0 0 0 7.9 1.58z" class="cls-40"/>
    <path d="M151.53 156.26c-1.12 1.24-3.76.36-4 2.84-4-2.8-8.68-1.5-13-2.1q0-.46.1-.94c4.33-3.03 12.83-2.96 16.9.2z" class="cls-41"/>
    <path d="M34.66 81.5c3.3 5.67 6.5 11.42 10 17a13.8 13.8 0 0 1 2.15 5.4c-.5 2.24-1.3 4.27-3.4 5.5-2.6-1.32-.3-5.1-3.1-6.33L29.6 85.7c-1.06-1.75-2.2-3.6-.38-5.38 2.24-2.22 3.85-.3 5.44 1.17z" class="cls-42"/>
    <path d="M36.53 121.98l-2.3-.68c-4.07-2.25-8.78-2.2-13.08-3.64-1.46-.5-3-.47-2.7-2.6a2.7 2.7 0 0 1 .17-.84c7.36-2.76 14.86-3.74 22.57-1.65q2.7 6.37-4.7 9.4z" class="cls-43"/>
    <path d="M41.53 113.1c-7.74-2.3-15.27-.2-22.84 1.1 5.2-3.84 11.2-3.2 17.1-3.24 2 0 3.9.2 6.1.32a27.42 27.42 0 0 0-1.8-8.24c3.3.8 1.7 4.25 3.3 6a2.75 2.75 0 0 1 1.8 2.35 2.47 2.47 0 0 1-.9 2.1 2.52 2.52 0 0 1-3-.4z" class="cls-44"/>
    <path d="M18.48 115.1c3.26 3.27 7.8 2.78 11.75 4.05 1.47.48 3.52-.1 4 2.17l-18.7-4.4 1.08-1.73z" class="cls-45"/>
    <path d="M28.53 72.1c4.54-2.05 7.28 2.43 11.08 3.06-4.9 3.34-7.6-1.06-11-3.06z" class="cls-46"/>
    <path d="M40.6 138.87h6.3c2.65.5 5.1 2 7.9 1.84a8.22 8.22 0 0 1 4 1.7c.74.8 1.28 1.6.7 2.7a50.73 50.73 0 0 0-10.1 9.5c-1.45 1.8-2.26 5.2-5.35 4.2-2.68-.9-3.15-3.9-3.43-6.6a53.78 53.78 0 0 1-1.76-11.7c.23-.9.67-1.6 1.75-1.5z" class="cls-47"/>
    <path d="M38.53 170.17c-4.5-8.1-5.44-17-5.86-26 1.7-.33 2.1.8 2.37 2.07.1 1.88 0 3.77.1 5.65-.1-1.8-.07-3.5 0-5.2.54-1.4 1.34-.9 2.15-.3l.2.6c-1 7.3 1.9 14 3 21a3 3 0 0 0-1.2 1.3 1.93 1.93 0 0 1-.9.7z" class="cls-48"/>
    <path d="M38.53 170.17V169c1.3-.66 1.37 1.6 2.6 1.12a13.9 13.9 0 0 1 4.4 10.87l-1.1 1.1c-3.3-3.3-4.7-7.6-5.9-12z" class="cls-49"/>
    <path d="M59.53 145.1l-1.1-1.9a2 2 0 0 1 1.65-.94c6.9 1 14 1.2 20.4 4.45a1.25 1.25 0 0 1 0 1.6c-5.5 1.4-10.54-.8-15.72-1.9-1.78-.4-3.5-.9-5.23-1.3z" class="cls-50"/>
    <path d="M39.65 139.9c1.58 4 .5 8.14 1 12.2-1.92-1.12-.14-4.53-3.1-5-1.9-3.16-1.84-5.75 2.1-7.2z" class="cls-51"/>
    <path d="M80.44 148.25l.1-1.15c.87-.76 1.9-.5 2.9-.4 2.65.62 5.74.4 7.14 3.54.92 2.18-.6 3-2.12 3.8.77-2.1 0-3.35-2.18-3.74a14.4 14.4 0 0 1-5.84-2.05z" class="cls-52"/>
    <path d="M41.18 170.1c.15.78.4 2.26-.1 2.2-1.66-.25-1.48-2.32-2.52-3.3 0-.63-.14-1.57.18-1.8.93-.64 1.08.75 1.75.96z" class="cls-53"/>
    <path d="M39.65 139.9c-1 2.32-2.7 4.43-2.15 7.2l-1.9-1h-1.07l-1.9-1.9c-.37-1.4.82-4.14-2.72-2.52-2.5 1.18-4.7-.38-6.4-2.4a1.15 1.15 0 0 1 1-.93c2.4 1.83 4.6 2.82 6.1-.83.9-2 2.1-2 3.8-1.24 2 .94 4.2 1.75 6.2 2.62z" class="cls-54"/>
    <path d="M13.6 159.1l-.9-.56c-1.9-5.7-3.2-11.47-1.24-17.46.63 4-.7 8.2 1.26 12.48 3.4-2.1 2.63-6.12 5.78-8.1z" class="cls-55"/>
    <path d="M24.53 138.32l-1 .94c-1.74-.9-3.55-1.7-5.2-2.72-3.46-2.17-5.95-2.05-6.83 2.54-.4-3.1.4-6 1.13-9 .93.65 1.35 2.07 2.83 1.9a.57.57 0 0 1 1 .12 3 3 0 0 0 3.2 3c1.1-.6 1.37.3 1.76 1z" class="cls-56"/>
    <path d="M151.53 87.1c2.36-.18 3.7 1.07 4.5 3.15.66 1.7.94 3.57 2.44 4.84 1.32 2.4-1.5 3.5-1.67 5.4-1.42 2.4.1 4.2 1.22 6.1.43 1.8-.45 3.1-1.65 4.3a2 2 0 0 1-1.3.2c-2.65 1.6-1.32 4.7-2.58 6.9-2.6.1-2.7-2.3-3.9-3.7a28.13 28.13 0 0 1-.7-18.5c1-3 1.3-6.3 3.5-8.9z" class="cls-57"/>
    <path d="M167.3 105.9l.86.6c3.63 7 3.26 8.6-2.54 11.06-4.9 1.16-6-2.75-7.8-5.8.2-3.4 1.56-5.82 5.25-6.32 1.32.92 2.82.2 4.22.45z" class="cls-58"/>
    <path d="M150.7 114.1l1.83 4 .9 2c-2.5 3.2-5.6 5.28-9.84 5.15-.9.66-2.5.23-2.7 1.74a4.35 4.35 0 0 0 .8.3c-.8 2.6-2.7 2.4-4.7 2.1-3.1-1.7-1.7-3.5 0-4.9 1.3-1.1 3.2-1.7 4.3-3.1 3.6-1.9 5.9-5.3 9.3-7.4z" class="cls-37"/>
    <path d="M158.53 110.87c2.66 1.92 3.42 5.86 7.1 6.7l2.33 2.68c-5.37.83-10.5-2.9-12.84-9.1a.64.64 0 0 1 .5 0 2.14 2.14 0 0 1 2.9-.28z" class="cls-59"/>
    <path d="M143.53 125.17c3.46-1.38 5.64-5.2 9.84-5.15l1.17 2c-1.45 4.35-4.4 5.2-11 3.15z" class="cls-60"/>
    <path d="M54.53 142.1c-3.08.15-6.28.62-7.62-3.27 4.1-2 4-5.76 3.7-9.36-.3-3.42-2.8-5-6-5.6-.6-3.2 1.7-3.3 3.6-2.94 4.7.94 9.5.46 14.2.68 1.4.1 2.8.3 3.6 1.7-2 4.5-6 2-9.2 2.7 1.3 5.5 1.8 11.2-2 16.2z" class="cls-61"/>
    <path d="M41.53 113.1l3.15.12c1-.8 2-1.2 3.12-.2.25 3.14-1.08 5.74-2.77 8.23-1.2 1.23-2.86 1.24-4.38 1.6l-4-.9a28 28 0 0 0 4.88-8.85z" class="cls-62"/>
    <path d="M40.6 122.88l3.88-1.84c2.27-2.2 4.8-2 7.43-.8 3.5.8 7.3-1.3 10.5 1.34a1.14 1.14 0 0 1 .2 1.52c-5-.24-10.1.68-15-.8-1.4-.42-2.6-.1-3 1.58-1.6.7-2.5-.93-3.9-1z" class="cls-63"/>
    <path d="M21.37 136.15l-1.77-1 4.88-8.38c.78 3.9-2.77 6.03-3.1 9.38z" class="cls-64"/>
    <path d="M16.4 132.1a2.54 2.54 0 0 1-1-.1 22.34 22.34 0 0 1 5.3-8.17c-.4 3.27-2.43 5.76-4.3 8.27z" class="cls-65"/>
    <path d="M12.7 123l1-1.2c6 1.93.26 3.57-.12 5.34l-1-3.1z" class="cls-66"/>
    <path d="M136.8 128.3l4.93-1.06 3.5.06c14 2.26 22.83 16.38 18.48 30.8-3 4-4.2 4.1-9-.06-1-.88-1.6-2-3.2-1.78l-17-.2c-8.7-.68-17.3-2.34-25.3-6a11.12 11.12 0 0 0-6.7-.56 96.16 96.16 0 0 1-11.9.75L82.2 148c-.84-1.9.42-3.1 1.47-4.34a16.6 16.6 0 0 0 3.67-6.33c1.57-4.26-1.68-7.46-2.45-11.2a2.9 2.9 0 0 1 1.1-1.93 5.13 5.13 0 0 1 3.7-.8c3.6 1.73 7.9 2 11.2 4.44a35.85 35.85 0 0 0 16.6-.06c2.2-.26 4.5 0 6.7-.3 3.1-.86 6.1-.12 9.2.27 1.1.03 2 1.1 3.2.54z" class="cls-67"/>
    <path d="M12.45 22.1a11.24 11.24 0 0 0 6.47 2c9.7.08 15.36 6.35 14.64 16v2a1.34 1.34 0 0 1-.16 2c-1.2-4-1.76-7.94-5.68-11.06-3.06-2.44-5.05-4.67-9.33-3.33-2.6.8-3.3-2.3-4.9-3.6z" class="cls-68"/>
    <path d="M3 182.03l3.57-5.32A4.6 4.6 0 0 1 3 182.1z" class="cls-69"/>
    <path d="M35.27 55.1c-1 1.24-.55 2.77-.82 4.15-2.1-2.45-1.36-5.8-2.7-8.5.75-.7 1.25-.27 1.7.4 1.83.8 3.25 1.75 1.82 3.95z" class="cls-70"/>
    <path d="M35.27 55.1l-1.8-4c2-2.37-.6-4.7-.08-7l.1-2h1c2.4 3.62 2.1 8.16 3.8 12a2.32 2.32 0 0 1-1 2.1c-.8-.2-1.8-.1-2.2-1.1z" class="cls-71"/>
    <path d="M37.66 53.95c-1.65-3.8-3.14-7.62-3.06-11.86 1.5-.3 2.95-.6 2.92 1.8 0 1.7-.44 3.6.84 5.1l.37 2.7c.08.9 1 2.3-1.07 2.2z" class="cls-72"/>
    <path d="M58.44 97.2c-7.2-4-9.44-9.25-7-16.48 1.9-5.63 5.1-6.22 9.16-1.68 2.64 2.05.14 5 1.2 7.06 0-2.24-1.14-5.2 2.78-6a3.45 3.45 0 0 0 1.26.7.75.75 0 0 0 .6-1.3c-1.9-1.62-2.33-4.34-5-5.8a5 5 0 0 1 4.07-.13c1.6.43 4.3 2.4 3-1.83 4.4-.48 4-5.24 6.7-7.3 1.8-1.4 3-1.34 3.3 1.2.2 1.27.5 2.52.8 3.9 3-.68 2.8-4.1 5-5.2 1.4.45 1.4 2 1.9 2.67-1-1 0-2.6-.7-3.9-.4-3.5-.8-7 2-10 3.1 2.4 1.9 6.2 3.1 8.6.3-1.5-1.9-3.6 0-5.7l2 2.1c1.3 1.3 2.9 2.5 3.2 4.2.8 3.9 2.4 6.3 6.8 6-1.5 2.8 1.4 3.4 2.6 4.5 1.6 1.4 3.6 2.3 5.5 3.4 1.7 1.7 1.2 3.5.4 5.3a20.2 20.2 0 0 0-4 11.1c.2 1.2-.4 2.4-.3 3.5 1.3 11.3-5.5 17-14.6 21a4.35 4.35 0 0 1-1.5.3c-8.1-1.9-15-6.6-22.3-10.2a6.7 6.7 0 0 1-3.6-4.5c-.6-3.5-3.2-4.6-6.1-5.3z" class="cls-73"/>
    <path d="M150.7 114.1c-.26 5.15-5.1 5.72-8.1 8.13a23 23 0 0 1-5.76 2.48c-2.2.8-3.8.4-4.6-2 1.9-2.6 5.23-1.4 7.3-2.6-2.14.8-4.8.9-7.27 1.8-1.53 1-3.35 1.1-4.95 1.9a11.16 11.16 0 0 1-5.7 0 9.8 9.8 0 0 1-6.4-6 14.32 14.32 0 0 0-1.5-6.1c-2.82-5.1-1.77-9.7.93-14.3 1.18-1 2.67-1.1 4.14-1.2 4.2-.2 4.1-3.7 4.8-6.5-.1-1.2-1-1.9-1.8-2.6-1.6-3 .2-4.4 2.7-5.4 3.2 1.3 6.7 4 9.5 3.4 3.5-.73 1.3-5.8 2.8-8.6.7-1.4.4-3.34 2.4-4.6-.4 3.27-.8 6.2-1.2 9.1-.3 2.2-.7 4.38 2.4 4.8.9 1.3.5 2.7.4 4-.7 1.8-2.3 2.8-3.4 4.18-2.2 2.6-1.5 5.1.2 7.5l1.8 1.78c3.1 1.5 3.1-1.1 3.8-2.8.9-2.3 1-5.1 3.5-6.45 1.4-.1 2.8-.24 2.6 1.88-.8 6.4-1.5 12.8 1 18.9z" class="cls-74"/>
    <path d="M90.34 116.16l1.1-.07a2.48 2.48 0 0 1 1.93 1.1 4.4 4.4 0 0 1 .47 2.3c-.5 2.6-1.84 4.4-4.74 4.5l-2.73.9c-7.76-2.6-16.1-.3-23.86-2.8l-11.7-.5c-1.6-2.4-.1-4.3 1.7-5 2.4-1 3.6-3 5.2-4.7v-.3c.8-2.5-.9-5.6 1.8-7.7l1.4-4.8c1.6-2 3.4-2.3 3.8.4 1 5.2 4.8 7.1 8.9 9.1 5 2.4 10.3 4.6 15 7.7 1.2.7 1.3-.3 2-.5z" class="cls-75"/>
    <path d="M92.4 117.1l-1-1c.52-.36 1-.75 1.55-1.08 7.22-4.5 13.83-9.3 12-19.43-.2-1 .43-2.3.68-3.4a6 6 0 0 0 1.07-2.4 38.36 38.36 0 0 0 2.24-6.4 26 26 0 0 1 .26-2.6c.82-1.5 2-3 1.3-4.9 1.43-1.3 2.87-2.9 3.85.4 1.92 8.1 1.05 16.1-.94 24a28 28 0 0 0-.6 9.8c-2.6 5.1-7.8 5.2-12.4 6.5-1.5.3-2.8 1.2-4.3 1.6a4.23 4.23 0 0 1-3.6-1.4z" class="cls-76"/>
    <path d="M146.64 93.98a12.14 12.14 0 0 1-2.12 7c-1.35 2.27-2.83 4.3-6 3l-1-1.88c-.86-1.82.2-3.3 1.15-4.53a5.88 5.88 0 0 0 1.13-5.1 9.27 9.27 0 0 1 .73-3.37c-2.1-1.27-.17-2.53 0-3.8l.44-1.2a1 1 0 0 1 1.56-1l5 5.2c2.1 2.27 1.55 4.13-.9 5.68z" class="cls-77"/>
    <path d="M111.83 111.1a12.08 12.08 0 0 1-.34-6.38 115 115 0 0 0 2-26.1c0-.84 0-1.66.8-2.14l2.1 1.56c1.2.52 1.5 1.72 1.9 2.8 0 1.76-.3 3.54.4 5.24a24 24 0 0 1-3.3 11c-3.9 6.83-.2 13.3 1 19.88-2.8 1-3.3-1.37-4.3-2.92a18 18 0 0 1-.5-2.94z" class="cls-78"/>
    <path d="M158.53 110.87l-2.92.24c-.4-1.8 1.8-2.3 1.9-3.8-.5-1.8-2.1-3.6-.3-5.6.6-1.2 1.8-2 1.8-3-.7 1.1-1.2 2.9-2.9 3.7a1.5 1.5 0 0 1-.5-2.4c.3-2.1 2.2-3.1 3-4.9 5.1-1.8 7.2-.4 6.4 4.9a34.78 34.78 0 0 1-1.7 5.5z" class="cls-79"/>
    <path d="M57.53 112.1c-.2 2.4 1.38 5.76-3.57 5.45-1-.06-3.56 1.76-3.25 4.27-1.9-1.44-4.1-.52-6.2-.8.4-2.9.9-5.72 3.2-7.8a6.17 6.17 0 0 1 5.8-2 4.72 4.72 0 0 1 4.1.88z" class="cls-80"/>
    <path d="M90.34 116.16c.2 2.54-2 3.2-4 4.68 3.08-3.87.46-4.65-2.22-5.83-4.26-1.8-8.38-4-12.52-6.1-3.45-1.8-6.76-3.8-7.5-8.1-.4-2.3-2-1.6-3.36-1.5l-2.34-2.1c4.45-1.1 7.35-.1 7.84 5.2.22 2.4 2.6 3.4 4.5 4.3 6.52 3.3 13.07 6.4 19.6 9.6z" class="cls-81"/>
    <path d="M115.6 97.05c-.8-4.25 2.38-7.88 1.9-12.08.13-2.26.77-4.16 3.35-4.66 1.3 0 2.8-.9 3.67.9 1.05 2.4-3 2.6-2.08 4.9a3.52 3.52 0 0 1-.4 1.3c-2.5 2.6-.54 6.8-3.3 9.4-.92 1.3-2.08.4-3.14.4z" class="cls-82"/>
    <path d="M44.44 111.1l-1-2c0-2.47.3-4.7 3.34-5.2 3.43.13 4.4 2.88 5.7 5.32 1.3 2.25-.66 2.56-1.93 2.78a8.2 8.2 0 0 1-6.1-.9z" class="cls-83"/>
    <path d="M102.47 68.3c-3.9-1.33-4 3.07-6.9 4.5.8-5.5-1.28-10.05-3-14.7a5.3 5.3 0 0 1 4.6 3.8c.8 3.12 3 4.7 5.3 6.4z" class="cls-84"/>
    <path d="M146.64 93.98c.92-1.8.7-3.78.9-5.7.18-1.08 1.4-1.88.87-3.15 0-1.1-1.5-2.7 1-2.87 0 1.92-.3 4 2.2 4.83 2.2 3.3-1.4 5.4-1.9 8.1-.7-1.1-1.8-1.2-2.9-1.3z" class="cls-85"/>
    <path d="M142.53 83.1l-1.5.94c-1.06-3.07-.5-6 .65-8.93.42-.7.84-1.5 2-1-.15 3.1 2.78 6.5-1.15 9z" class="cls-86"/>
    <path d="M117.36 81.1c-1-.82-.8-2-.85-3.1 2.8-2.38 3.7-6 5.8-8.87.5 4.1-1 7.54-2.8 10.9a2.16 2.16 0 0 1-2.1 1.07z" class="cls-87"/>
    <path d="M100.4 60.97c.76-1.48-1-4.47 1.35-4.5 2.5 0 2.4 3.14 2.66 5.15a2.82 2.82 0 0 1-3.3 3.28c-2-.45.4-2.63-.6-3.93z" class="cls-88"/>
    <path d="M90.53 56.03c0 3.7 1.8 7.36-.07 11.2a70.94 70.94 0 0 0-2.93-14.13c2.13-.2 2.86 1.07 3 2.93z" class="cls-89"/>
    <path d="M64.53 80.1c-.43 3-3.2 5.3-2.35 8.7-1.84-3.1-1.27-6.5-1.63-9.75 1.5-.1 3.15-1.02 3.98 1.05z" class="cls-90"/>
    <path d="M143.6 74.1l-2 1c-.2-4 1.3-7.5 3.95-12-.02 4.7-.13 8-1.94 11z" class="cls-91"/>
    <path d="M71.53 53.2c5.63 4.14 5.86 5.88 1.05 8.12a8.7 8.7 0 0 1-1.05-8.1z" class="cls-92"/>
    <path d="M44.44 111.1c.9-.55 1.52-1.15 2.9-.42 1.8.95 4.07 1.34 5.15-1.42l1 2.06c-1.7 1.54-3.4 2.76-5.8 2h-3q-.2-1.22-.3-2.22z" class="cls-93"/>
    <path d="M59.37 104.1c-.46 2.6-.3 5.34-1.77 7.7l-2.48-7.87c1.56-1.1 2.87 1.94 4.25.17z" class="cls-94"/>
    <path d="M126.7 72.32a12 12 0 0 1-2.5 6.14c-1.25-3.84 0-6.2 2.34-8.23a1.77 1.77 0 0 1 .15 2.1z" class="cls-95"/>
    <path d="M37.66 53.95l1.08-2.18 1.7 3.5 1 3.85a5.68 5.68 0 0 1-3.92-2.92z" class="cls-96"/>
    <path d="M71.53 53.2l1.05 8.12c-.47 1.32-1.7 2.42-1.9.37-.25-2.8-.87-5.9.85-8.5z" class="cls-97"/>
    <path d="M126.7 72.32l-.16-2.1c-.36-2.3.46-4.12 2.7-6.16-.05 3.43-1.7 5.74-2.55 8.26z" class="cls-98"/>
    <path d="M85.53 63.1c1.6 1.72 1.45 3.8.9 6.06l-2.12-4.8z" class="cls-99"/>
    <path d="M149.43 82.26l-1 2.87c-1.45-2.07-1.14-4.12-.23-6.4 1.85.95 1.28 2.37 1.23 3.53z" class="cls-100"/>
    <path d="M117.36 81.1l2.08-1.06 1.4.24-3.3 4.7c-3-1.2 1.38-2.62-.18-3.88z" class="cls-101"/>
    <path d="M89.1 138.02c-.56 4.5-4.86 6.43-6.85 9.94l-1.72-.86c-7.6-.1-14.86-2-22.14-3.9l-3.9-1.1c-1-3.53 1.5-6.63 1.1-10.18-.4-3.13.5-6.6-5.2-5.8l.5-1.7 14.4-.32c5.4-1.9 10.9-.92 16.4-.56a4.15 4.15 0 0 1 3.3 2.76c2.1 3.6 4.5 7.1 3.9 11.7z" class="cls-102"/>
    <path d="M34.53 146.1h1.06c-.9 3.72 1.3 7.3.5 12.5-2.5-4.92-1.1-8.86-1.7-12.5z" class="cls-103"/>
    <path d="M155.45 99.97l.56 2.1a.86.86 0 0 1 1.6.1c-1.1 1.65 1.9 3.44-.1 5-2.6-1.82-4.3-3.97-2-7.2z" class="cls-104"/>
    <path d="M132.53 122.1c.94 2.84 3 1.73 4.84 1.35s3.48-.8 5.22-1.2a8 8 0 0 1-4.1 3c-1.1.42-3 .94-1.7 3l-2.3.7c-3.2-1.6-6.5-3-7.1-7.1a8 8 0 0 1 5.1-.75q.5.3.4.65a.5.5 0 0 1-.4.35z" class="cls-105"/>
    <path d="M85.46 127.28c-3-3.83-7.3-3.26-11.43-3.2h-8.47a4 4 0 0 0-3.06-1v-.83c7.36.48 14.8-1.22 22.1 1 1 .3 2 .4 1.76 1.8a.8.8 0 0 0-.82 1 .7.7 0 0 1-.08 1.23z" class="cls-106"/>
    <path d="M89.1 124.1c1-1.82 3.28-2.82 3.38-5.22 1.34-.6 2.74-.07 2.5 1.22-.68 3.54 1.8 3.44 3.93 4.1a27.36 27.36 0 0 0 9.8.87c5.2-.27 10.1.84 15.2 1.43a1.92 1.92 0 0 1 1.1 2.67l-7.4.08c-6 .27-12 1.12-17.9-.45-2.9-2.78-7.8-1.3-10.5-4.7z" class="cls-107"/>
    <path d="M124.9 129.18l-1.24-2.2c-2 .22-3.4-.46-3.83-2.57a2.23 2.23 0 0 1 1.6-2.2l6-.3a26.92 26.92 0 0 1 7.06 7.1z" class="cls-108"/>
    <path d="M99.53 128.8c6 .44 12-.53 17.9.46-5.95 1.18-11.9 1.84-17.9-.45z" class="cls-109"/>
    <path d="M85.46 127.28l.1-1.26c3.17 3.4 4.92 7.25 3.53 12-.2-3.92-2.9-7.02-3.7-10.74z" class="cls-110"/>
    <path d="M83.66 75.9c2 2.2 3.43 4.48.83 7.22a50.25 50.25 0 0 1-2 6l-2.4 1.17c-3.7.9-6.6 0-8.7-3.3-1.6-3.3-.3-6.2 1-9.2.8-1.8 2.5-2.5 3.9-3.7 2.8-1.4 5.5-2.2 7.2 1.6z" class="cls-111"/>
    <path d="M103.53 79c.94 2.4 3.1 4.84-.3 7-2.27 0-1.9 1.62-1.76 3.07 0 2-1.77 1.55-2.9 2-4.05-1.83-4.58-4-2.16-8.8l2.3-5.45c1.9.17 5.1-2.63 4.9 2.2z" class="cls-112"/>
    <path d="M56.58 91.1c.1-3.76-2.63-7.05-1.83-10.92.13-.62-1.25-1.6.3-1.82a2.36 2.36 0 0 1 2.3.38c2.1 2.08 2.37 9.66.37 12.25a.7.7 0 0 1-1.14.1z" class="cls-113"/>
    <path d="M94.28 103.38a5 5 0 0 1-.22 1.23c-1.7 1.8-3.86 1.8-5.94 1.2-1-.3-.6-1.2-.1-2 2-2.6 4.04.2 6.26-.4z" class="cls-114"/>
    <path d="M82.53 89.1c-1-2.54-1.2-4.82 2-6 .64 2.46 1.58 5-2 6z" class="cls-115"/>
    <path d="M107.47 91.05a1.54 1.54 0 0 1-1.8 1.17c0-4.13.92-8 3.56-11.28l1.2 2.22a18.13 18.13 0 0 0-2.96 7.9z" class="cls-116"/>
    <path d="M75.67 92.44c-3.27 2.53-6 .56-8.35 1.32 2.07-2.34 4.65-1.75 8.35-1.32z" class="cls-117"/>
    <path d="M96.45 82.28c-.55 3.25-1.7 6.64 2.17 8.8-2.1 1.7-3.1-.17-3.55-1.5-.82-2.55-1.63-5.37 1.38-7.3z" class="cls-118"/>
    <path d="M83.66 75.9c-1.9-2.76-4.64-1.7-7.16-1.6 3.5-2.65 6.62-2.26 8.28 1a.44.44 0 0 1-.16.4 6.35 6.35 0 0 1-.96.2z" class="cls-119"/>
    <path d="M94.1 98.63c.1-3 .1-3-1.32-5.65 4.82 1.57 4.84 1.63 1.33 5.65z" class="cls-120"/>
    <path d="M103.53 79c-.5-3.25-3.34-1.25-4.88-2.17 1.57-1.32 3.25-2.56 5.1-.66.78.75 2.16 2.1-.22 2.84z" class="cls-121"/>
    <path d="M71.53 87.1c2.56 1.92 5.28 3.4 8.62 3.24-4.04 1.93-6.92.87-8.62-3.24z" class="cls-122"/>
    <path d="M56.58 91.1l1.16-.1c1.46 0 3.12-.37 3.47 1.72a1.37 1.37 0 0 1-.7 1.14c-2.2.5-3.2-.98-3.9-2.76z" class="cls-123"/>
    <path d="M72.53 77.95c-.56 3-1.4 6-1 9.16-2.6-3.3-1.35-6.3 1-9.1z" class="cls-124"/>
    <path d="M101.53 89.1c-1.95-1.7-1.43-3.6.2-4.8 1.08-.78 1.3.9 1.56 1.74z" class="cls-125"/>
    <path d="M118.74 96.7c-.42-3.87-.52-7.66 2.74-10.58 1 1.43 3 1.66 4 3-.62 2.2-1.08 4.47-1.9 6.6-1 2.64-2.72 3.12-4.84.98z" class="cls-126"/>
    <path d="M121.44 122.17l-1 2.18c-2.46 2-4.76 1.07-7-.37-1.13-.95-1.45-2.38-2.1-3.6a11.34 11.34 0 0 1-.28-1.65c-.25-2.24-.73-4.57 2.15-5.62 1 1.4 1.8 3 3.4 3.9a11.26 11.26 0 0 0 4.9 5.3z" class="cls-127"/>
    <path d="M141.53 92.1c.52 4.08-1.34 7.2-4 10-4.33-.84-4.74-5.35-.94-10.1 1.6.9 3.3-.85 4.9.1z" class="cls-128"/>
    <path d="M141.53 92.1c-1.66.25-3.48 7.06-5-.12.82-1.67 2.55-2.08 4-2.9z" class="cls-129"/>
    <path d="M132.53 122.1v-1l11.3-3c-3.2 3.14-7.3 3.33-11.3 4z" class="cls-130"/>
    <path d="M125.53 89.1c-1.77-.74-1.86 2.12-3.75 1.68l-.25-4.68a6.86 6.86 0 0 0 1-.07c2-.03 3.06.97 3 3.07z" class="cls-131"/>
    <path d="M138.53 103.97c2.58.2 4.1-1.78 6-3-1.12 4.46-2.08 4.94-6 3z" class="cls-132"/>
    <path d="M120.87 104.92c-.93-4.7 2.1-4.46 4.7-5.74-.6 3.38-3.6 3.2-4.7 5.74z" class="cls-133"/>
    <path d="M113.68 122.9l6.76 1.45 3.22 2.63c-3.15 2.37-6.36-.1-9.55 0-6 .18-12.2.9-18.1-1.48-2.3-.92-4.8-.82-2.1-4.14 1-1.26 0-2.1-1.3-2.47q0-.9-.1-1.8l4.1-.2c3.6 0 5.2 4.3 8.9 4 2.7 1.2 5.9-.2 8.3 1.9z" class="cls-134"/>
    <path d="M70.1 119.68c-3.86-3.1-5.24-6-6-9.2 3.36 1.7 4.2 4.87 6 9.2z" class="cls-135"/>
    <path d="M63 108.35l-1.43-7c1 2.24 3.82 4 1.42 7z" class="cls-81"/>
    <path d="M113.18 113.1c-1.37 1.78-.27 3.9-.8 5.8a7.87 7.87 0 0 1-8 2.26c-5.06-.87-5.5-1.44-4.6-5.92 4.4-.22 7.9-3.16 12-4.12z" class="cls-136"/>
    <path d="M99.78 115.24c0 3.2 1.1 5.47 4.86 5.16a1.37 1.37 0 0 1 .45 1 1.4 1.4 0 0 1-.6.9c-4.1.33-5.9-2.68-8-5.3z" class="cls-137"/>
    <path d="M107.47 91.05c-.46-3.17-.22-6.08 3-7.88a15.5 15.5 0 0 1-3 7.88z" class="cls-138"/>
    <path d="M157.6 102.18l-1.6-.1c1.4-2.8 2.86-5.53 6.42-6.18-2.15 1.7-2.9 4.4-4.82 6.28z" class="cls-139"/>
    <path d="M104.76 121.03a3.9 3.9 0 0 0-.13-.64l7.75-1.5.44 1.3c-2.35 3-4.64 3.2-8.06.8z" class="cls-140"/>
    <path d="M104.76 121.03c2.86 1.5 5.63 2.1 8.06-.8l.86 2.68c-3.07 0-6.2.9-9.16-.6z" class="cls-141"/>
</svg>