<svg xmlns="http://www.w3.org/2000/svg" id="Layer_1" data-name="Layer 1" viewBox="0 0 184.26 184.27">
    <defs>
        <style>.cls-1{fill:#b5aaa1;}.cls-2{fill:#baaca3;}.cls-3{fill:#0d1111;}.cls-4{fill:#827c79;}.cls-5{fill:#aca19a;}.cls-6{fill:#706b69;}.cls-7{fill:#080b0b;}.cls-8{fill:#9f9792;}.cls-9{fill:#a89d98;}.cls-10{fill:#aca199;}.cls-11{fill:#1a1d1d;}.cls-12{fill:#9d928c;}.cls-13{fill:#3a3e3e;}.cls-14{fill:#b6aca3;}.cls-15{fill:#191c1d;}.cls-16{fill:#25292a;}.cls-17{fill:#716e6b;}.cls-18{fill:#1d2020;}.cls-19{fill:#161a1a;}.cls-20{fill:#a49a95;}.cls-21{fill:#968f8a;}.cls-22{fill:#1b1f20;}.cls-23{fill:#5e5d5c;}.cls-24{fill:#7e7a75;}.cls-25{fill:#343739;}.cls-26{fill:#313333;}.cls-27{fill:#3e4141;}.cls-28{fill:#282c2d;}.cls-29{fill:#71706d;}.cls-30{fill:#0f1213;}.cls-31{fill:#454846;}.cls-32{fill:#3a3d3e;}.cls-33{fill:#0e1213;}.cls-34{fill:#736e68;}.cls-35{fill:#232728;}.cls-36{fill:#ada299;}.cls-37{fill:#363a3a;}.cls-38{fill:#706b68;}.cls-39{fill:#111415;}.cls-40{fill:#b7aea6;}.cls-41{fill:#5f5f5f;}.cls-42{fill:#313536;}.cls-43{fill:#232627;}.cls-44{fill:#343738;}.cls-45{fill:#6e6a67;}.cls-46{fill:#5c5c5a;}.cls-47{fill:#282c2c;}.cls-48{fill:#736d68;}.cls-49{fill:#222526;}.cls-50{fill:#7b726c;}.cls-51{fill:#464543;}.cls-52{fill:#55595a;}.cls-53{fill:#97918d;}.cls-54{fill:#615d5b;}.cls-55{fill:#434747;}.cls-56{fill:#343838;}.cls-57{fill:#424546;}.cls-58{fill:#75706d;}.cls-59{fill:#928a85;}.cls-60{fill:#78726f;}.cls-61{fill:#646362;}.cls-62{fill:#655f59;}.cls-63{fill:#64605b;}.cls-64{fill:#5d564e;}.cls-65{fill:#938982;}.cls-66{fill:#88817d;}.cls-67{fill:#535452;}.cls-68{fill:#958d88;}.cls-69{fill:#665f59;}.cls-70{fill:#998f87;}.cls-71{fill:#78746e;}.cls-72{fill:#998e85;}.cls-73{fill:#282b2c;}.cls-74{fill:#292c2d;}.cls-75{fill:#292b2b;}.cls-76{fill:#242828;}.cls-77{fill:#1a2020;}.cls-78{fill:#222627;}.cls-79{fill:#26292a;}.cls-80{fill:#2f2f2f;}.cls-81{fill:#7d7874;}.cls-82{fill:#5c5a56;}.cls-83{fill:#2e3232;}.cls-84{fill:#3c3936;}.cls-85{fill:#887f7b;}.cls-86{fill:#62635f;}.cls-87{fill:#191d1c;}.cls-88{fill:#aba49e;}.cls-89{fill:#878582;}.cls-90{fill:#090908;}.cls-91{fill:#323130;}.cls-92{fill:#8a8481;}.cls-93{fill:#97908c;}.cls-94{fill:#0f1314;}.cls-95{fill:#b4aaa1;}.cls-96{fill:#3f4344;}.cls-97{fill:#968f89;}.cls-98{fill:#5b5754;}.cls-99{fill:#434444;}.cls-100{fill:#c2b7ad;}.cls-101{fill:#aca198;}.cls-102{fill:#2b2f2e;}.cls-103{fill:#3d3f40;}.cls-104{fill:#313232;}.cls-105{fill:#6f6c69;}.cls-106{fill:#272725;}.cls-107{fill:#97928d;}.cls-108{fill:#323231;}.cls-109{fill:#444240;}.cls-110{fill:#727270;}.cls-111{fill:#070807;}.cls-112{fill:#242625;}.cls-113{fill:#4e4c4a;}.cls-114{fill:#b7b4b0;}.cls-115{fill:#a29f9d;}.cls-116{fill:#36393a;}.cls-117{fill:#686562;}.cls-118{fill:#4e4f4f;}.cls-119{fill:#565755;}.cls-120{fill:#181919;}.cls-121{fill:#4f5354;}.cls-122{fill:#3e3d3c;}.cls-123{fill:#c6b8ab;}.cls-124{fill:#979087;}.cls-125{fill:#908881;}.cls-126{fill:#2d3031;}.cls-127{fill:#1f2020;}.cls-128{fill:#1a1c1b;}.cls-129{fill:#d7c8bd;}.cls-130{fill:#b1ada9;}.cls-131{fill:#4b4d4f;}.cls-132{fill:#404344;}.cls-133{fill:#535555;}.cls-134{fill:#434445;}.cls-135{fill:#181c1c;}.cls-136{fill:#545657;}.cls-137{fill:#1c1e1e;}.cls-138{fill:#35393a;}.cls-139{fill:#777570;}.cls-140{fill:#767371;}.cls-141{fill:#3e4142;}.cls-142{fill:#474645;}.cls-143{fill:#3f403f;}.cls-144{fill:#363837;}.cls-145{fill:#b0ada8;}.cls-146{fill:#1d1c1c;}.cls-147{fill:#31312f;}.cls-148{fill:#6d6f6f;}.cls-149{fill:#121312;}.cls-150{fill:#272a2b;}.cls-151{fill:#6f6b68;}.cls-152{fill:#3c3f3f;}.cls-153{fill:#c8baaf;}.cls-154{fill:#7a7069;}.cls-155{fill:#99918b;}.cls-156{fill:#0e1110;}.cls-157{fill:#807b78;}.cls-158{fill:#565656;}.cls-159{fill:#888582;}.cls-160{fill:#625c58;}.cls-161{fill:#83817e;}.cls-162{fill:#beb3aa;}.cls-163{fill:#525455;}.cls-164{fill:#636868;}.cls-165{fill:#8c8581;}.cls-166{fill:#7b7875;}.cls-167{fill:#9e9e9b;}.cls-168{fill:#585855;}.cls-169{fill:#63605e;}.cls-170{fill:#2d2d2c;}.cls-171{fill:#797977;}.cls-172{fill:#b0a69e;}.cls-173{fill:#76716d;}.cls-174{fill:#131616;}.cls-175{fill:#bfb4ab;}.cls-176{fill:#6f6c68;}.cls-177{fill:#878683;}.cls-178{fill:#7e7c7a;}.cls-179{fill:#4c4945;}.cls-180{fill:#ede3d7;}.cls-181{fill:#888481;}.cls-182{fill:#706f6c;}.cls-183{fill:#67645e;}.cls-184{fill:#ded7cf;}.cls-185{fill:#827c74;}.cls-186{fill:#050504;}.cls-187{fill:#dbd0c6;}.cls-188{fill:#8d8784;}.cls-189{fill:#66635f;}.cls-190{fill:#626161;}.cls-191{fill:#2c2c29;}.cls-192{fill:#2f2b24;}.cls-193{fill:#3f3c3a;}.cls-194{fill:#292c2c;}.cls-195{fill:#373633;}.cls-196{fill:#dad1c5;}.cls-197{fill:#e2e0da;}.cls-198{fill:#a59c94;}.cls-199{fill:#5c5953;}.cls-200{fill:#cfc4bb;}.cls-201{fill:#dccfc4;}.cls-202{fill:#978e84;}.cls-203{fill:#5e574f;}.cls-204{fill:#aba29a;}.cls-205{fill:#c9bcb1;}.cls-206{fill:#dbcec2;}.cls-207{fill:#3a322a;}.cls-208{fill:#4d4b46;}.cls-209{fill:#979189;}.cls-210{fill:#040404;}.cls-211{fill:#d2c6ba;}.cls-212{fill:#d5cabf;}.cls-213{fill:#777068;}.cls-214{fill:#585551;}.cls-215{fill:#e5ddd4;}.cls-216{fill:#938c84;}.cls-217{fill:#c1b7b0;}.cls-218{fill:#2c2c26;}.cls-219{fill:#65645b;}.cls-220{fill:#23221d;}.cls-221{fill:#8d8985;}.cls-222{fill:#b9ada2;}.cls-223{fill:#7f7a73;}.cls-224{fill:#615e58;}.cls-225{fill:#959089;}.cls-226{fill:#4f4a42;}.cls-227{fill:#4e4a44;}.cls-228{fill:#1d1b16;}.cls-229{fill:#9d948b;}.cls-230{fill:#e5d8cb;}.cls-231{fill:#b5aca4;}</style>
    </defs>
    <path d="M.18 28.18C.18 19.74.3 11.3.1 2.88.04.4.7.08 2.95.1c11.74.13 23.5.06 35.23.06 1.8 2.24.8 4.78.6 7.14a19.9 19.9 0 0 0 3.2 13.6 14.48 14.48 0 0 0 7 5.12c2.1 1 4.32.37 6.48.58 4.2-.36 4.14 2.47 4 5.34-2.05 7-5.58 13.4-7.85 20.3-.9 3.66.5 8.15-3.9 10.52a5.66 5.66 0 0 1-1.3.57c-3 .26-3.7 2.3-3.9 4.8-.2 2.93 1.7 4 4 4.78 1.3 1.5 1.7 3 0 4.5-2.6-.1-5.1 1.1-7.8.6-1.9-4.7-.5-9.6-.9-13.7a5.43 5.43 0 0 1-1.2 2.2c-3.5 4.9-7 9.7-13.5 10.7a2.4 2.4 0 0 0-1.7.9c-2.8 5.3-7.5 5.6-12.6 5a1.67 1.67 0 0 0-2 1.7c-.2 2.9.6 5.9-.5 8.7-3.7 1.3-5.3.2-4.5-3.5.6-2.3.4-4.1-1.4-5.7v-4c2.9-5.7 7.3-7.8 13.9-8.2 7-.4 11.9-6.5 13.3-13.8.3-1.3.2-2.6.5-4 .6-2.6 1.3-5.4 4-6.5 3-1.2 4.1 1.9 6.2 3.3-2.4-4.6-5-8.9-6.8-13.5-.5-1.4-1-2.8-3-2.9-2.5-.5-4.1-1.9-4.1-4.6-.1-2.1 1.6-3.5 1.9-5.5a4.23 4.23 0 0 0-1.9-4.6 3 3 0 0 0-4.4 0c-1.5 1.5-1.3 3.2-.6 5.1s2.7 2.5 3.3 4.3c-.9 3.7-3.4 3-5.8 1.9-4.6-2-6.1-5.2-5.7-11.3-1.8-1.7-1.5 0-1.5 1 .1 2.5.9 5.1-1 7.4-2.7-2.2-5.5 1.7-8.2.1z" class="cls-1"/>
    <path d="M5.47 83.33c2.1-3.13 5.27-2.4 8-1.75 2.54.6 3.9 0 4.5-2.35a4.55 4.55 0 0 1 4.16-3.77c6.46-.3 9.45-4.68 12.16-9.57a.63.63 0 0 1 .4 0 1.65 1.65 0 0 1 .4.2c2.6 1 3.7 2.7 3.2 5.7-.3 2-1.5 4.4.7 6.2 1.8-4.2 4.3-3.3 7-1a2.9 2.9 0 0 1 1 3.2c-1.7 7.1 0 14.4-1.5 21.4.3 2.3-1.3 4.6-.4 7a6.33 6.33 0 0 1-.1 1.4c-.6 1.4-.6 3-1.8 4.1a2.52 2.52 0 0 1-1.5.3 3.43 3.43 0 0 1-2.4-1.6c-.6-2.7-.2-5.4-.9-7.6a20.1 20.1 0 0 1 0 9.3c-.3 1.7-.9 3-2.9 3-3.6-2.3-1.3-5.7-1.6-8.1-.9 2 .4 5.2-2.1 7.3-7.2 1-14.4 1.3-21.5 2-4 .4-7.9-2.1-10.4-5.8V84.2c3.4.68 5.3 2.17 2.8 5.7-2 2.88 1.4 2.88 2.1 4.3 1.1-.25 2.2-.76 3.5 0-4.5-2.74-1-7.6-3.2-10.85z" class="cls-2"/>
    <path d="M43.18 184.18h-4c-.67-1-1.33-1-2 0h-2c-3.9-1.33-5.76-5-8.63-7.5-.88-.77-.8-2.12-.8-3.28.5-3.08-2.17-5-2.9-7.56a7.2 7.2 0 0 0-1.3-3.12c-1.87-2.18-1.6-4.46-.34-6.8a5.7 5.7 0 0 1 1.5-1.6c1.6-1 4-1.28 4.1.55.2 3.82 5.3 5.92 2.3 10.68 4.6-3.3 3.3-5.56.1-7.6a4 4 0 0 1-.1-4.87c.4-1.1 2.4-1.5 1.6-2.95-.5-1-1.7-.1-2.5 0-1.2.16-2.7.1-3-1-1.2-4.5-6.6-6.36-7-11.36.4-4.44 3.3-7.76 7.7-7.83 3 0 4.7-1 5.7-3.66 3.5-2.66 6.9-5.38 11.6-5.5 3.3 1.72 3.7 4.76 3.8 8s-.4 6.24.9 9.23c0 6.9 2.2 13.4 2.8 20.2-.5 1.7-1.5 2.5-4.4 1.9 4.3 2 4.6 5.6 6.4 8.2.4 1.2 1 2.4 1.4 3.5.7 4.2 3.9 8.3.5 12.6h-8c-1.7-.8-3.2-2-3.2-3.4.2.7 1.1 2 .2 3.5z" class="cls-3"/>
    <path d="M87.18.18h9c1.27 1.06.75 2.8 1.4 4.28 1.47-1.26 1.1-3.35 2.6-4.28h2c1.2 1.17 2.86 1.57 4.17 2.62 4.17 3.34 5.13 7.66 2.54 12.27a20.07 20.07 0 0 1-1.5 2c-3.8 5.1-3.8 5.1 2 7.4a22.78 22.78 0 0 1 3.2 1.36c1.1.66 2.6 1.34 2.4 2.8-.3 1.92-2.1 1.73-3.6 1.76a5.43 5.43 0 0 1-1.4-.4 28.66 28.66 0 0 0-13.9-2.4c-10.2.2-19.8 2.6-28.4 8.2-3.9.3-4.7-2.4-4-5.1a13.38 13.38 0 0 0-2.3-11.5c-.1-2.4 1.4-3.6 3.1-4.6a4.15 4.15 0 0 1 1.4-.2c1.7.5 3.5.4 5.1 1.4a6.7 6.7 0 0 1-1.8-5.8 32 32 0 0 1 9-7.9C80 1.7 81.4.8 83.1.9c2.04 2.98 2.9.3 4.04-.8z" class="cls-4"/>
    <path d="M.18 28.18c2.6-1.43 6.33-1.82 5.15-7.08 2.94 2.32.74 5.56 3 7.05 2.2-1.53 1-3.86 1.38-5.8.5-2.5.9-5.2 4.6-3-2.7 2.38-3.1 5.18-.4 7.54 2.3 1.9 4.3 6.1 8.4 2.3a1.63 1.63 0 0 1 1.9-.3 17.48 17.48 0 0 0 2.6 7.7c.9-1.2 1.3-2.6 2.5-3.5 1.3-1 2.2-1.6 2.7.7 1.3 5.9 4.5 10.8 7.7 15.8 1 1.5 1.8 2.7-.1 4.1-2.5 1.9-2-1-2.9-1.7-1.5-1.1-2-4.3-4.2-3.4-1.8.7-3 3.2-3 5.3.1 5.1-1.3 9.5-4.8 13.1-1.5 1.6.5 2.7.1 4.2-6.1-.1-11.5 3.9-17.8 2.9a2.26 2.26 0 0 0-2.5 2.5C4.9 80.2 2.6 80 .4 80v-8C2 68.15 4 65.25 8.97 65.16c3.1-.07 7.6-6.77 8.3-9.96 1.7-7.3 1.6-14-5.83-18.6-.32.24.08 2.45-1.7 2.5S6.97 38 6.3 36.6c-1.5 2.3-2.8 4.68-6.17 3.6V28.18z" class="cls-5"/>
    <path d="M111.18 29.18l3.64-.28c-3.4-2.76-7.06-3.07-10.25-4.46-2.3-1-3.88-2.2-1.17-4.56 1.6-1.4 2.15-3.5 3.75-5.06 3.13-3.05 2.37-7.6-1.15-10.3-1.58-1.22-3.3-2.28-3.8-4.4h10c5.32 1.28 10.8 1.64 16 3.3 2 1 2.82 2.88 3.9 4.6a8.9 8.9 0 0 1 .46 3.7 29.28 29.28 0 0 0 .52 7.8c.5 3-.58 4.72-4.2 4 2.37 1.57 4.82 2.76 6.84 4.54 1.18.88 2.4-.62 3.6 0 2.85 4.2 4.16 8.7 2.57 13.73-3 2.4-5-.2-7.2-1.5-5.1-2.4-9.6-5.8-15.1-7.5a32.9 32.9 0 0 0-6.8-1.5c-1-.3-2-.8-1.7-2.2z" class="cls-6"/>
    <path d="M147.18 184.18h-7c-3.5-1.64-2.07-5.62-3.9-8.17-4.75-6.6-7.1-14.4-9.6-22-.67-2.6-.6-6.2-4.86-2.7-1.3 1.1-3 .7-3.1-1.4a6.16 6.16 0 0 0-1.6-4c-.92-2.9-4.93-5-2.3-8.8 3.24-.8 3.44-2.9 2.37-5.5a5 5 0 0 1 .1-1.4c.9-2.8 3.2-4.5 5-6.7 2.3-1.7 3-5.5 6.8-5.3.7.8 1 2.2 2.6 2 1.6 1 2 2.4 2 4.2.1 4.8 0 9.7.6 14.5.4 3.8.6 7.6 4.1 10.3a6.1 6.1 0 0 1 2.1 4.9c-.1 4.8 1.5 9.2 2.8 13.6.8 4.1 2.2 8 3.3 12 .5 1.6 1.3 3.2.4 4.8z" class="cls-7"/>
    <path d="M.18 40.18c3.94-1.3 5.67-4.18 5-9.75 2.93 3.17 1 6.9 4.48 8-.5-2.68 1-4.57 3.1-8.2.2 6.56 2.9 10.22 7.17 12.77a1.1 1.1 0 0 1 .5.83c-.55 3.5-1.26 7-1.7 10.47-.4 3.16 1.47 7.16-3.74 8.3-1 .23-1.7 1.92-2.7 2.83s-2.5 2.6-3 2.36c-5-2.3-6.4 2.5-9.2 4.4v-32z" class="cls-8"/>
    <path d="M131.13 12.18v-4c-.8-1.48-1-3.38-3-4-5.92 1-10.82-2.06-16-4h36c2.8 3.13 1.93 6.8 1.6 10.4a109.47 109.47 0 0 0-5 24.73c-.2 2 .57 3.9 1 5.8.35 1.8.84 3.7-1.45 4.6-2.18 0-3.43-1-3.3-3.3 1.12-5.1-1.3-9.6-2.6-14.3a2.85 2.85 0 0 1-1.8-2.1 46 46 0 0 1-5.45-13.7z" class="cls-9"/>
    <path d="M.18 113.18c2.7 1.5 5.95 1.72 8.42 3.8 2.18 1.85 4.47.22 6.54-.36 5.7-1.6 11.37-.84 17.08-.44 1.34-.7 2 .78 3 1 1.87-.2 2-1.58 2-3 1-.36 1.73-1.5 3-1l2 .9c.66 3.57-2.63 8.44-7.07 10.36a21.36 21.36 0 0 1-9.25 1.45c-2.55-.1-4.94-.1-5.4 3.5a3.24 3.24 0 0 1-4.25 2.5c-3.6-1.1-6 .5-8.38 2.7-2.42 1.8-3.87 5.2-7.67 4.6v-11.1a3.94 3.94 0 0 1 1.06-1c3.58-1.4.83-1.7-.33-2.3a3.6 3.6 0 0 1-.75-.7v-11z" class="cls-10"/>
    <path d="M184.18 145.18v21a3.25 3.25 0 0 1-3 .9 3.36 3.36 0 0 1-1.86-1.34 7.56 7.56 0 0 0-6-6.18 5.5 5.5 0 0 1-3.62-2.25 2.48 2.48 0 0 1 0-2c.62-.8 1.63-1 2.6-1.3-2.42-1.6-5.93-.2-7.6-3.2 0-1.9-1.14-3.2-2.2-4.7-1.74-2.4-1.48-4.3 1.67-4.6-4.32 0-8.94-.2-11.44-5.2a2 2 0 0 1 1.3-1.6c1.53-.6 3 .2 4.54.1a46 46 0 0 1 10.93 3.4c2.3 2.2 5.5 1.4 8.2 2.4a4.43 4.43 0 0 1 2.6 2.8c.5 2.6 2.62 1.5 3.8 2.2z" class="cls-11"/>
    <path d="M184.18 57.18v55c-2.6.87-4.18-.57-5.6-2.43-.14-3.53-3.82-6.74-.7-10.4-2.1-1.16-3.34 0-4.68 1-1.13.86-2.37 2.07-3.78.3-1.22-5.85 1.85-11 2.7-16.54a43.18 43.18 0 0 1 3.78-11.3c1.23-2.7.6-5.5.87-8.3.5-4.9 2.78-7.1 7.4-7.2z" class="cls-12"/>
    <path d="M134.18 184.18h-20a1.86 1.86 0 0 1-.46-1.42c4.5-6.15 5.07-13.44 6-20.62a11.77 11.77 0 0 1 1.8-5.17c1.86-1.8 3.52-1.05 4.38.84 3.2 7 8.4 13 10.5 20.6.73 2.6 1.22 4.9-2.22 5.8z" class="cls-13"/>
    <path d="M47.18.18h11c1.22 2.94 2.25 5.77 4.43 8.44 4 4.92-1.8 13.3-9.5 14.08-1.7.2-3.2-.6-4.7-1.38-4.8-3.15-4.7-8.1-4.7-13 0-3.23.9-6.14 3.6-8.14z" class="cls-14"/>
    <path d="M22.18 156.27c-.76 2.15-1.47 4.3 1 5.92-1.15 1.4-.1 2.2 1 3 0 3 5.36 4.1 2.95 8-2.2 1.5.3 4.6-1.9 6.1-3.44-.4-3.58-4.1-5.75-5.8-1.12-1.4-1.54-3.3-3.85-4.2 2.54 5.6-.58 10-2.43 14.7H3.18c-2.3-3.3-1.83-7.9 1.62-9 2.8-1 2.67-2.2 2.28-4.3a4.46 4.46 0 0 1 1.06-3.2c1.87-4.4 5.2-7.3 9.3-9.4.76-1.7.88-4.2 3.8-3.1a2.55 2.55 0 0 1 .94 1z" class="cls-15"/>
    <path d="M159.18.18h5c3.26 3 7.1 5.4 9.5 9.3 2.14 2.34 3.2 5.64 6.8 6.75 2 .6 2.36 2.92 1.53 4.66-1.3 2.7-1.8 6-4.4 8.1-3.1 2-4.6-.3-6.2-2.4-1.3-2.5.2-5.8-2.1-8a10.53 10.53 0 0 1-1-1.7c-.5-1.2-1-2.3-2.3-2.8-2.3-1.4-4.9.6-7.2-.4-3-1.6-3.4-4.2-3-7.2 2.3-1.6 1.2-5 3.7-6.5z" class="cls-16"/>
    <path d="M77.18 184.18h-2c-2.42-1.34-4.76-2.74-4.35-6.1 1-1.65 2.6-3.12 1.13-5.32-1.78-2.66-3.94.12-5.86-.45-.5 0-1.3-.2-1.33-.5-.44-4.3-3.83-7.9-2.88-12.5 4.3 2.5 7.2-.6 10.3-2.7 3 .5 3.4 3.2 4.1 5.5.6 1.9.8 3.8 1.3 5.7 1.3-.1 2.2-1 3.3-1.1 2.8-1.2 5.5-.4 8.2.4a3.83 3.83 0 0 1 2.9 4.6c-.3 2.2-1.9 3-3.9 3.2s-4.4-.6-6.1 1.2a6.15 6.15 0 0 0-.7 2 3.5 3.5 0 0 1-1.1 1.8c-3.4 0-1.1 3.9-3.2 4.7z" class="cls-17"/>
    <path d="M54.18 184.18c.88-4.55-2.1-8.5-2-12.9-.36-6.65-.6-13.22-2.32-19.8-1.13-4.28.72-9.07 0-13.73-.42-2.92-.6-5.9-1.17-8.82-.3-2.13-1.4-4.4.9-6.13 5.2 2.28 7.4 6.64 8.3 12a6.4 6.4 0 0 1-.6 1.3c-2 5.43-.1 11-.7 16.48.8 4.43.6 9 2 13.35a49.72 49.72 0 0 1 2.1 10.72c.5 2.75.4 5.37-1.7 7.56h-5z" class="cls-18"/>
    <path d="M.18 148.18v-5c5.57-3.58 11.16-7.13 18.27-4.6 1.26 2.73.52 6.12 4.1 8.18 2.18 1.25-.16 5.57-3.2 5.12-4.07-.6-6.33 3.1-10.08 3.28-1.47.07.68 3.63-1.26 5-2.3 1.8-3.9 5.33-7.8 3v-9.98c.9-4.27 4.7-5.37 8-7.07-2.7.8-4.7 3.8-8 2.1z" class="cls-19"/>
    <path d="M184.18 18.18v28c-1.28 3-1.33 6.35-3.4 9-1.36 1.73-2.64 3.43-5.22 2.25-2.92-4.36-2.85-9.4-2-14.06a115.34 115.34 0 0 1 3.62-13.78c2.23-2.9 3.4-6.3 4.9-9.5.44-1 .45-2.4 2.1-2z" class="cls-20"/>
    <path d="M53.18 21.26c5.8-.7 9.66-5.06 9-10.2-.1-.78-.35-2.15-.7-2.2-6.17-1-4.6-4.88-3.3-8.68h14c.95 3.8-.48 7-2.83 9.75a28.2 28.2 0 0 0-4.1 5.42l-3 3.9c.17 4.8.42 9.62-4 13-.34-1.9 1.1-5.14-3.12-4.14-2.27-1.8-3.24-4-1.95-6.8z" class="cls-21"/>
    <path d="M147.18 184.18a43.6 43.6 0 0 1-5.05-17c2.33-2.16 4.4-4.72 8-4.7 2 .34 3.32 2.4 5.56 2 3.9 3.25 3.7 3.32-.7 5.48-3.1 1.54-2.5 4-.3 6.2a38 38 0 0 1 2.2 3.2c1.4 2.4.7 4-1.9 4.78h-8z" class="cls-22"/>
    <path d="M180.18 165.3l.9 1a6.57 6.57 0 0 1 .93 5.22 7.22 7.22 0 0 0 2.2 6.66v5c.1 2-1.4.6-2 1-.9-1-2.1-1.72-2.5-3.1-1.1-2.86-4-2-6-3-1.2-.38-1.9-1.8-3.4-1.63-1 2.47.5 5.64-2 7.7h-2c-2.2-1.62-3-4-3.5-6.54 0-1.5-.8-3-.7-4.5.3-6.7 2.3-8.3 8.7-6.6 1 .3 1.9.6 2.9.8 2.6 1 3.2-1.8 4.8-2.6a1.6 1.6 0 0 1 1.9.6z" class="cls-13"/>
    <path d="M134.18 184.18c.52-1 2.25-1.46 1.5-2.84-2.67-5-2.5-11.4-7.47-15.26-2-1.56-2-4.1-3-6.18-.6-1.32-.3-3.7-3-2.7-1.8-2-1.8-4.07.5-5.5 2.1-1.3 4.2-.83 5.5 1.5 3 7.9 4.6 16.46 10.6 23.06 2 2.25-.5 5.55 1.5 7.9h-6z" class="cls-16"/>
    <path d="M47.18.18l-2.15 8c-.48 4.33-2.24 8.43-2.25 12.85a1.1 1.1 0 0 1-1.6 1.15c-5.77-6.7-5-14.27-3-22h9z" class="cls-23"/>
    <path d="M59.18 184.18l.16-7.87c1.5-1.5-.92-4.3 1.75-5.4 2-.5 2.7 2.1 4.6 1.9 4.1-.6 4.9.1 5.4 5.5l4 6h-16z" class="cls-24"/>
    <path d="M98.18 184.18h-6c-.64-1.52-2.3-2.4-2.6-4.14.1-1.5 1.1-2.4 2.1-3.3 3.9-4.68 5.18-10.54 7.35-16 .83-1.67 1.14-3.65 2.9-4.75 3.13.2 2.38 2.5 2.18 4.3-.1 1.3-.3 2.4 1.6 1.9 1.8 0 3.5-1 5.4-.5a2.14 2.14 0 0 1 1 1.8 4.1 4.1 0 0 1-.3 1.3c-1.1 3.1-5.3 2.1-6.7 5-2.1 2.4-7.2 2.9-5.1 8a5.88 5.88 0 0 1-1.7 6.2z" class="cls-11"/>
    <path d="M156.18 6.06c1.34 2.23.33 5.44 3 7.1l-.24.63c-1 .8-1.6 2.2-2.93 2.7-2.7-.9-6-.2-8.2-2.6a4.12 4.12 0 0 1 .3-2.8l.1-11h8c1.5 2 1.9 3.9 0 5.8z" class="cls-25"/>
    <path d="M18.1 139.27c-6.5-1.1-11.78 3.4-17.92 3.9v-4c1.95-2 4.7-3.14 6.08-5.75 3.44-1.3 6.92-2.35 10.67-1.8 2.06.08 1.92 1.45 1.33 2.68a2.8 2.8 0 0 0 .35 3.1 1.62 1.62 0 0 1-.5 1.87z" class="cls-26"/>
    <path d="M184.18 18.18c-2.45 3.48-2.65 8.14-5.88 11.2a1.67 1.67 0 0 1-1-.6l-.17-.6c1.06-2.22 2.28-4.4 3.14-6.7.74-2 3-5.38-2.35-3.6a1.48 1.48 0 0 1-1.86-1.24c-.36-2.75-2.83-4.18-3.83-6.5 1.66-1.22 2-3.63 4-4.52 1.48-.38 2.86.16 3.1 1.54.54 2.87 2.92 3.67 4.86 5v6z" class="cls-27"/>
    <path d="M184.18 12.18c-3.22.16-6.92 1.07-5.85-4.5.24-1.23-1.16-1.35-2.13-1.5-5.17.22-6.36-1.2-5-6h10c1.45 1 1.24 3.23 3 4v8z" class="cls-28"/>
    <path d="M114.37 183.05l-.2 1.13h-8c-1-2.73 1.95-3.64 2.54-5.63a16.13 16.13 0 0 0 1.2-2.9c.4-2.12-.4-4.27.2-6.4a27.66 27.66 0 0 0 1.2-5h.1c2.1-1.5 4-1.57 5.8.5 1 6.37-.5 12.38-2.6 18.3z" class="cls-29"/>
    <path d="M20.18 173.18c3.16.73 3.2 4.1 5 6 2.34 1.25 5.74 1.25 6 5h-15c-1.76-4.3-.7-7.2 4-11z" class="cls-30"/>
    <path d="M110.18 179.18l-4 5h-2a4.06 4.06 0 0 1-3.2-3.8c-.13-1.38-.48-3.2-2.76-2.27-.83-3.8.5-6 3.78-7 .83-.2 1.4-1.3 2.1-2 3.7-.5 4.77 1.5 4.54 4.8-.15 2-.18 4 1.54 5.4z" class="cls-31"/>
    <path d="M20.18 173.18c-.66 3.92-4.77 6.56-4 11h-3c.32-3.06-.7-6.4 1.92-9 1.42-1.4.05-2.38-.77-3.35-1.3-1.56-2-3.62-.46-4.92 2-1.6 3.13.8 4.45 1.9a5.23 5.23 0 0 1 1.86 4.4z" class="cls-32"/>
    <path d="M164.18 177.18l2 7h-11c1.3-1.17 2.43-2.33.54-4a4.48 4.48 0 0 1-1.5-4 3 3 0 0 1 1.3-1.15c3.14-.34 6.4-1.28 8.66 2.15z" class="cls-33"/>
    <path d="M184.18 145.18c-2-.14-1.78 2.67-4.16 2.82 1.38-2.93-1.33-4.4-2-6.67.56-1.33 1.2-2.66-.12-3.94a16.8 16.8 0 0 1-3.1-3.7c-.77-1.5-2-2.9-.8-4.7 3.5-1.5 5.32 1.3 7.62 2.9 1.1.9 1.5 2.3 2.6 3.2v10z" class="cls-34"/>
    <path d="M.18 163.18c3.38.5 4.55-2.92 7.06-4 3.27 1.44 3.44 3.86 2.15 6.75a30.45 30.45 0 0 0-2.8 5.77c-1.2 3.1-3.2 4.6-6.5 2.44v-5c1.4-1.67 1.8-3.33 0-5v-1z" class="cls-35"/>
    <path d="M184.18 135.18a3.2 3.2 0 0 1-3-2c-1-3.36-1.13-6.87-1.72-10.3-.33-1.9-.34-4-2.43-5.15a6 6 0 0 1-1.6-4.63 2.68 2.68 0 0 1 .75-1.2 5.5 5.5 0 0 1 3.53.1c2.3.58 3.5 2.27 4.5 4.18v19z" class="cls-36"/>
    <path d="M.18 174.18c3.3.55 4.83-1.28 5.8-4.12.56-1.7 1.44-3.3 2.18-4.92 1.27.7 1.12 1.93 1.1 3.1-1.24 2-1.7 4 .46 5.65a1.88 1.88 0 0 1 .5 2.9c-1.17 1.7-1.73.2-2.6-.4-3-2.2-2.8.9-3.9 2.2-1.5 1.8-1.05 3.6-.55 5.5-1.65 0-3.64.6-3.08-2.5.4-2.5 0-5 0-7.5z" class="cls-37"/>
    <path d="M176.18 57.18c3.27 0 2.84-3.13 4.1-4.8 1.45-1.95 2.6-4.1 3.88-6.17v11c-4.53 1.8-6.23 5.1-6.05 9.8.1 2.1.7 4.4-.8 6.3-2.1-1.5-1.4-3.9-1.5-6-.1-1.8.1-3.6-.6-5.4a4.75 4.75 0 0 1-.2-1.7 3.5 3.5 0 0 1 1.4-3z" class="cls-38"/>
    <path d="M168.18 184.18c0-2.33-.1-4.66 0-7 0-1.3-1.63-3.1.67-3.8 1.63-.52 2.8.68 3.77 1.9l1.56 1.9c3 1.65 2.94 4.2 2 7h-8z" class="cls-39"/>
    <path d="M65.23 15.34a3.1 3.1 0 0 1 1-4.32c4.48-2.38 3.84-7.32 6-10.84h4c.58 1.4 3.53.46 3 3-3.07 2.24-5.3 5.53-8.94 7.06-1 2-.9 4.8-4.1 4.88a4 4 0 0 0-1 .22z" class="cls-40"/>
    <path d="M171.18.18c-.3 3.65 2 5.08 5 6-.57 2.1-.7 4.62-4 4-2-3.9-7.26-5.1-8-10h7z" class="cls-41"/>
    <path d="M31.18 184.18c-1.35-2.43-5.23-1.86-6-5 1.42-1.72-3.5-5.47 1.9-5.9.5 1.33-1.08 5 2.84 2.5.88-.56 1.8-2.07 2.8-.6s-.32 2.33-1.57 2.94c-.55.27-1.34.28-1.28 1.53 2.15.85 5 1.28 5.27 4.56h-4z" class="cls-42"/>
    <path d="M184.18 178.18c-5.56-2.5-5.63-2.76-3.12-11.93l3.12-.07v12z" class="cls-43"/>
    <path d="M80.04 179.05l.16-1.8c4.52-1.7 6.15-.83 7.15 3.75.12.57.82.33 1.24.55 1 .6 2 1.15 1.5 2.62h-9c-2.3-1.28-2.6-3-1.2-5.12z" class="cls-11"/>
    <path d="M.18 148.18c2.45-.24 4.3-1.72 6.13-3.13 2.2-1.67 4.2-1.3 7 0-4.6 3.06-9.8 4-13 8.16v-5z" class="cls-44"/>
    <path d="M100.18.18V3.1c-.08 1.6.4 3.4-1.3 4.42-1.07.62-1.77-.23-2.48-.93-1.42-1.4-2.1-2.8-.47-4.6.36-.4.2-1.3.27-1.9h4z" class="cls-45"/>
    <path d="M98.18 178.1c.16-1.35 1-2.2 2.28-1.78a3.46 3.46 0 0 1 2.38 3.66c-.3 1.82-.07 3.1 1.3 4.2h-6c-.7-2 1.44-4 .04-6.07z" class="cls-46"/>
    <path d="M176.18 184.18l-2-7c2.82-.14 5.63-.25 6.92 3.07-1.25 1.35-2.07 3.13-3.9 3.9h-1z" class="cls-47"/>
    <path d="M.18 124.18c2.12.07 4.35-.46 6.24.95.64.48 1.45 1.06 1.16 2s-1.32.9-2.06.6c-1.9-.76-3.57.3-5.34.45v-4z" class="cls-48"/>
    <path d="M43.18 184.18c-.65-2-1.4-4-1.9-6.08-.2-.85-.3-2.2 1.1-2.3 1.2-.1 1.68 1 1.66 2a9.24 9.24 0 0 0 2.14 6.38h-3z" class="cls-49"/>
    <path d="M184.18 116.18l-4.95-3.12c-1.46-1.1-3.6-2-1.37-4.26a1.7 1.7 0 0 1 1.3.4l5 3v4z" class="cls-50"/>
    <path d="M80.04 179.05c.38 1.7.06 3.57 1.14 5.13h-4c0-1.3.1-2.6 0-3.88-.4-3.6 1.77-1.12 2.86-1.25z" class="cls-51"/>
    <path d="M156.18 6.06V.18h3c-1.5 1.7 2.3 6.08-3 5.88z" class="cls-52"/>
    <path d="M79.18 3.18c-.8-1.2-3-1-3-3h9c.1 1.63-.76 1.6-1.9 1.1-1.46.44-2.4 2-4.1 1.9z" class="cls-53"/>
    <path d="M83.28 1.28a2.1 2.1 0 0 0 1.9-1.1h2c.68 2.15 0 4.25-2 4.57-2.33.36-1.46-2.16-1.9-3.47z" class="cls-54"/>
    <path d="M184.18 4.18c-5.62 2.13-2.43-2.35-3-4 4-.93 2.9 2 3 4z" class="cls-55"/>
    <path d="M177.18 184.18c1-1.57.8-4.4 3.9-3.9l1.1 3.9h-5z" class="cls-39"/>
    <path d="M90.18 184.18l-2-1.9c.14-1.2.26-2.43 2-2.15 2.28.55 5 .87 2 4.05h-2z" class="cls-56"/>
    <path d="M37.18 184.18c.47-1.47-2.42-3.85.32-4.25 2.17-.3 1.54 2.6 1.68 4.25h-2z" class="cls-32"/>
    <path d="M.18 164.18c1.3.2 2.7.48 2.6 2.14a2.74 2.74 0 0 1-2.6 2.86v-5z" class="cls-57"/>
    <path d="M58.18 32.18c1.56-4.25 1.75-8.93 4-13 4.26 3 5.17 6.4 3.1 11.3-.8 2.15-.1 3.7 1.9 4.7.58 2-1.2 2.76-2.18 3.94a22.52 22.52 0 0 0-5.76 7.62c-1.22 2.2-1.93 4.66-3.17 6.87-2.87 3.6-4.4 1.6-5.73-1.3 1.1-7.3 5-13.4 7.84-20z" class="cls-58"/>
    <path d="M44.18 102.18c1.43-8.28-.84-16.85 2-25 .88-1.34.12-2.66 0-4-2.87-3.67-2.66-7.35 0-11h1c1.48 1.26 2.94 2.56 5.1 2.38 2.24.92 3.42 2.3 1.37 4.44-.85.9-.66 1.78-.7 2.74-.53 3.32-2.13 6.35-2.56 9.7-2.2 4.6.3 9.7-1.6 14.32a21.8 21.8 0 0 1-3.4 6.56 1 1 0 0 1-1.3-.14z" class="cls-59"/>
    <path d="M41.18 22.18c-.6-5.2 1.6-9.6 3.86-14 0 4.5.13 8.9 4.13 12 .45 1.62 1.92 2.7 2.24 4.4.6 2.93-.5 3.7-3.2 2.6a10.08 10.08 0 0 1-7-5z" class="cls-60"/>
    <path d="M51.88 65.27c-4.2 2.95-4.68.26-4.73-3.1 3.4-2.56 1.28-6.9 3.2-9.93 1.72-.45 2.4 4.14 4.7 1l.74.56a9.92 9.92 0 0 1 1.2 6.23c-.2 3.15-1.5 5.4-5.2 5.24z" class="cls-61"/>
    <path d="M24.18 29.18h-2c-4-.55-4.9-3.46-4.9-6.74 0-2.93 1.42-5.18 4.74-5.1s5.55 2 5.64 5.5a8.3 8.3 0 0 1-2.6 6.2c-.22.6-.5.62-.88.14z" class="cls-62"/>
    <path d="M46.18 62.18v11c-3.74 2.06-4.83.37-5.3-3.3-.7-4.8 1.14-7.8 5.3-7.7z" class="cls-2"/>
    <path d="M39.18 78.18c-.15 1.48-.05 3.38-2.42 2.52-1.46-.53-.93-1.57-.45-2.82 1.6-4 2.2-8.1-1.1-11.7l4-8.08v20.08z" class="cls-5"/>
    <path d="M14.18 19.3c-4.6.1-2.6 3.62-3 5.85-.3 1.73.78 4.64-2.92 3-.5-3.3 1.8-7.27-3.92-10.15 4.47-.3 7.53-3.02 9.84 1.3z" class="cls-63"/>
    <path d="M5.47 83.33c2.07.24 2.37 1.87 2.1 3.32-.76 4.1.4 6.67 6.23 6.78-3.74 2-6.18 1.87-8.68.75z" class="cls-64"/>
    <path d="M24.18 29.18a6 6 0 0 1 .85-.12c.06 2.7 1.18 4.34 4.13 4.15.07 2.5-1.57 4.7-.12 7.6-4.86-2.5-6.27-6.3-4.86-11.5z" class="cls-65"/>
    <path d="M48.18 27.18c1.86.08 2.9-.4 1.78-2.48-.75-1.4-1.77-2.8-.8-4.5l4 1.05 2 6.8c-2.38-.07-4.85.88-6.98-.87z" class="cls-66"/>
    <path d="M45.08 102.1a10.93 10.93 0 0 1 3.1-6.52c.62-1.26 1.4-.9 2.22-.24a3 3 0 0 1 .4 1.33 19.6 19.6 0 0 1-1.24 5.23c-.68 1.93-1 4 .9 5.65.76 5.22 1.58 10.44-.4 15.6-1.36 2 .6 4 .07 6-1.62 2.62-.52 5.38-.06 8 .34 1.92 1.06 3.62-1.4 4.24-2.9.7-1.36-2.4-2.48-3.2-1.5-2.9-.8-6.1-1.3-9.2-.5-2.8 0-5.9-2.8-8-1.3-1.6-.7-2.8.8-3.8.6-.6 2.5-.2 1.6-2.1-.8-1.7-.3-3.5-.6-5.2v-1c1.9-2.2-.7-5 1-7.1z" class="cls-67"/>
    <path d="M44.18 118.18c-1.86.2-2.1 1.47-2 3-2.75 3-7.24 3.14-9.94 6.18-3.7 4.44-9.26 3.53-14.05 4.8l-12 1.34c1.2-2 4.2-1.63 5.3-4.18.8-1.86 2.2-.4 3 .64 1.1 1.33 2.3.83 3.6.4 2-.68.4-1.77.4-2.7-.2-2.3 1.1-3.34 3.3-3.37h8c5.5 0 11-4.5 12.2-10.1a8.4 8.4 0 0 0 .9 0c1.4 1 2 2.3 1.1 4z" class="cls-68"/>
    <path d="M23.9 94.18c-2.22 1.42-5.3 1.68-6.6 0-2.12-2.72-1.28-6.36-.46-10.3 2.56 2.12 2 4.5 2.23 6.62.32 2.95 4.1 1 4.83 3.68z" class="cls-69"/>
    <path d="M35.18 117.18c-2.22 3.4-1.88-1-3-1-.84-4.22 1.83-7.75 2.38-11.75 1.16 4.23.62 8.5.62 12.75z" class="cls-70"/>
    <path d="M44.18 118.18l-1-4c.33-1.3-.18-2.84 1-3.94 2.3 1.2-.25 5.12 3.36 5.83.72.1-.36 1.58-3.36 2.1z" class="cls-71"/>
    <path d="M40.18 113.18c-.92.6-1.57 2-3 1 1.3-3.42.88-7.05 1.1-12 1.5 4.46 2.1 7.66 1.9 11z" class="cls-72"/>
    <path d="M45.08 102.1a14.57 14.57 0 0 0 1.3 5.6c1.3 3.54-1.6.8-2.26 1.45-1.93-2.34.47-4.63.1-6.95q.43-.02.86-.1z" class="cls-71"/>
    <path d="M9.26 168.24c-1.08-.78-1.07-1.94-1.1-3.1 2.08-2.34-.43-4-.9-5.92.92-1 1.17-2-.28-2.82-.87-.48-2.76-.06-2.06-2a2.4 2.4 0 0 1 3-1.18c4.65 1.3 7.74-4.77 12.64-2.56.7.32 1.48-1.13 1.54-2.2.05-.9-.26-2-1.2-1.78-5.7 1.4-3.57-1.84-2.82-4.47a11 11 0 0 0 0-3l.12-2c.3-.5.6-.5.92 0 1.67 2.4 1.65 6.1 5.8 6.4 1 .1.82 1.9.53 3.1-.53 2.3 1.05 2.4 2.66 2.4 4.5-.5 2.5 2.3 2.2 4.2-.6 1.4-1.7 2.6-.1 4 .4 1.5-.7 1.7-1.7 1.6-1.5 0-1.6-1.2-1.7-2.4-.2-3.1-1.1-4.3-3.4-1.1l-1 1.1-1-.1c-.7-1-1.7-2.4-3-1.3-1.7 1.6.9 2.8.9 4.4a11.1 11.1 0 0 1-.9 2.1c-5.8-1.3-6.3 4.2-8.9 7z" class="cls-32"/>
    <path d="M46.18 138.18c1.18.3.6 3.17 2.68 2 1.68-1-.28-1.93-.26-2.84.06-2.78-2.83-6.2 1.52-8.18 1.06 6.76 2.87 13.48.7 20.37-.8 2.6 3.24 3.23 2.36 6.4-1.38 5 2.13 10.4-1 15.38-1-.8-.92-2-1-3-.8-3-3.05-5.6-2-9-1.2-7-4.18-13.7-3-21z" class="cls-56"/>
    <path d="M32.1 143.25c-2.23-.66-2.6-3.8-5.2-3.55 1.8-4 5.27-6.4 7.2-9.93.7-1.24 1.56-1.9 2.76-1.3s.4 1.8.17 2.67c-1.08 3.94-1.8 7.7 1.26 11.27 2.4 2.8-1.8 1.6-2.1 3-.4 1.8-1.3 1.7-2.2.1a12.3 12.3 0 0 0-2-2.2l.1-.2z" class="cls-73"/>
    <path d="M23.18 155.18c.18-1.2-.64-3 1-3.34s2.37 1.28 2.85 2.72-.64 4.84 3 2.63c3.43.7 4.14 4.3 6.7 6.1-1.46 1.6-8-2.7-4.4 4a1.48 1.48 0 0 1-.5 1.2 1.26 1.26 0 0 1-1.78-.2c-.76-.9-2.17-2.3-1.93-2.8 1.68-3.5-2.7-5.3-2.1-8.5.5-2.3-.6-3.2-2.84-2z" class="cls-74"/>
    <path d="M19.18 137.18h-.92c-3.06-1.7-.38-3.42 0-5.13 4.43-2.34 9.78-2 14.05-4.8-.9 2.86-2 4.9-5.9 4.1-4.2-.83-5.6 2.88-7.2 5.83z" class="cls-75"/>
    <path d="M42.7 157.78c1.45 3.68-3 6.26-1.08 9.62a2.54 2.54 0 0 1-1.26.37 2.66 2.66 0 0 1-1.07-1.47c-.7-3.36-1-6.7 3.4-8.52z" class="cls-76"/>
    <path d="M49.18 159.18c.6 3 2.33 5.8 2 9-1.82-3.53-5.88-6.08-5.28-11 1.77.14.92 3.46 3.28 2z" class="cls-77"/>
    <path d="M30.26 153.18c-1.2-1.12.66-3.83-2.13-4.14 1.34-2.1 2.83-2 4.2-.12 1.9 2.64-.5 3.26-2.07 4.26z" class="cls-78"/>
    <path d="M24.18 165.18c-1.62.9-2.94.27-3.38-1.25-.6-2.12 1.3-1.53 2.38-1.74z" class="cls-79"/>
    <path d="M64.18 38.18l3-3c8.44-6.82 18.38-8.77 28.87-8.92a49.68 49.68 0 0 1 15.1 3l2 .94c2.12 1.14 5.3-.13 6.55 2.95a2 2 0 0 1-.57 1.4c-4.1 1.4-7.55-1.12-11.3-1.88-3-.4-5.7-1.87-8.77-2-6.82.18-13.83-1.22-20.23 2.42a10.83 10.83 0 0 1-2.3 1.7c-4.84 1-7 5.7-11.2 7.7-2.95-.8-1.7-2.7-1.15-4.4z" class="cls-80"/>
    <path d="M66.18 15.12l4.06-4.88c.93 2 1.76 4 2.8 6a1.67 1.67 0 0 1-.56 2.5c-1.34.78-1.3-.33-1.73-1.3-.83-1.85-4.08.6-4.57-2.32z" class="cls-21"/>
    <path d="M111.18 29.23l-15.1-3c5.28-.34 10.48-.2 15.1 3z" class="cls-6"/>
    <path d="M141.02 42.33l2.87 3.05c1.9.4 2.3 1.65 1.9 3.4-4.4 4.74-5.6 4.7-10-.3a.87.87 0 0 1 .2.35c-2.7 4.47.5 7.24 3.1 9.85 2.1 2.14 1.7 3.46.4 5.94-4 8-10.7 7.52-17.8 6.3a11.62 11.62 0 0 0-3.9-.06 3.34 3.34 0 0 1-3.3-2.26 1.18 1.18 0 0 0-1.4-1.42c-4 0-7.6-1.37-11.3-2.63a3 3 0 0 1-.7-1.25c-.4-2.8 2.1-4.62 2.6-7.12.7-1.75 2.2-3.26 1.7-5.4a2.23 2.23 0 0 1 .4-1.2c1-1.1 2.7-1.2 3.6-2.46a4 4 0 0 1 3.5-.95 4 4 0 0 1-2.9-1.52c-.8-2.35.9-2.27 2.4-2.5a21.57 21.57 0 0 1 6.6 2.22c-1-5.16 5.2-3.72 6.5-6.77 3.2-1.32 5.4 3.12 8.6 1.73l.6-.15z" class="cls-16"/>
    <path d="M131.13 12.18c3.3 3.86 4.06 9 6.93 13.13-1.4 1-1.3 3-2.85 3.9-1.9-3-8-.5-8-6 0-1.1-1-2.5.3-3.2 1.9-1 1.9 1.3 2.8 2a14 14 0 0 0 1.4.9c.8-3.7-1.7-7.1-.4-10.6z" class="cls-81"/>
    <path d="M113.77 5.94c4.45.1 9.28-1.48 12.8 3.22-5.4 3.73-8.74-1.28-12.8-3.22z" class="cls-82"/>
    <path d="M119.18 33.18c-1.4-2.2-4.32-1.38-6-3 5.87-.16 10.7 2.82 15.64 5.33 2.18 1.2 4.25 2.5 6.37 3.7l-.2.3a2.34 2.34 0 0 1-2.8.6c-4.1-2.8-9.5-3.2-13.1-6.8z" class="cls-83"/>
    <path d="M135.18 29.18c.1-1.9-.37-4.24 2.85-3.82l.38 2.7c-.5 1 .7 2.84-1 3.24-1.2.27-1.3-1.58-2.2-2.12z" class="cls-84"/>
    <path d="M128.18 4.18c3.37-.45 4.18 1 3 4-1.72-.8-2.17-2.53-3-4z" class="cls-85"/>
    <path d="M150.18 163.18c-1.5 1.28-3.93 1.16-4.67 3.74-.4 1.64-2.1.73-3.3.28-1.7-4-3.6-7.85-2.9-12.52.3-1.42-.4-3.95-1.4-4.46-5.6-2.85-4.3-8.23-5-12.8a50.4 50.4 0 0 1-.1-14.2c.2-1.34-1-2-1.4-3.06-.3-3.4 1.4-5.68 4.2-7.28 1.4-.25 2.6-1.66 4.3-.83a7.68 7.68 0 0 1 2.7 6.85 3.94 3.94 0 0 1-.6 1.4 4.22 4.22 0 0 1-1.1.9c-4.3 2-4.7 3.34-1.5 7.17a13.72 13.72 0 0 1 3.4 11.5 1.1 1.1 0 0 1-.7.5.74.74 0 0 0 .7-.42 1.28 1.28 0 0 1 1.2.25 3.74 3.74 0 0 1 .7 1.16c-.2 7.87.5 15.47 5.9 21.82z" class="cls-28"/>
    <path d="M116.12 164.18a9.37 9.37 0 0 1-4.8.05l-.14-2.05c-1.56-3 .6-6.27-.6-9.3-.94-2.27-3.23-4.43-.6-7 .78-1 2.26-1.9.3-3-3.08-1.8-2.14-3.53-.06-5.32 2.27-.7 2.92-4.65 6.3-3.17.58 1.4 0 2.3-1.26 3-.9 3.4 2.88 4.9 3.12 7.8.5 4.4-.67 8.9-.45 13.3-.58 1.8.25 4.1-1.8 5.5z" class="cls-86"/>
    <path d="M116.32 158.18a26.65 26.65 0 0 1 2.07-13c2.3 1.22 1.5 3.54 1.6 5.8 6-5.65 6-5.64 8.1 2.22-4-1.57-6.7-1.3-6 4a8.77 8.77 0 0 1-1 5c-.9 1.3-.8 3.66-3 3.4-2.5-.3-1.3-2.55-1.6-4-.2-1.14.2-2.33-.4-3.42z" class="cls-87"/>
    <path d="M129.18 118.32c-3.1.84-2.85 5.1-6 5.9-1.5-.38-2.9.4-4.36.5a2.2 2.2 0 0 1-1.38-1.44c-.38-2.95 2.28-4.46 3.2-6.8 1.13-2.38 2.2-4.8 4.9-5.92a6.74 6.74 0 0 1 4.36.22c3 1.72 2.6 4.1 1.27 6.66a1.9 1.9 0 0 1-2 .88z" class="cls-88"/>
    <path d="M117.96 122.94l1.4 1.4c.78 2.18-.63 3.92-1.2 5.83a2.28 2.28 0 0 0-.12.87c-.58.83 0 2.54-1.88 2.38-.7-.7-.87-2.13-2.38-1.8-2.2-1.9-.7-3.84-.1-5.77a4.7 4.7 0 0 1 1.57-2.36 2.9 2.9 0 0 1 2.7-.6z" class="cls-89"/>
    <path d="M129.18 118.32l1-1.13c2.37-2 .53-6.7 4.84-7.3a3.4 3.4 0 0 1 1.7 3 2 2 0 0 1-.65 1.2c-3.06.8-3 4.2-4.92 6-2.06.9-1.97-.5-1.97-1.8z" class="cls-90"/>
    <path d="M116.25 133.27l1.8-2.24c3.12 2.2 1 4.58 0 6.67-.87 1.8-1.8-.5-2.8-.4l.77-3.24-.17-.47zm1.93-3.1a8.36 8.36 0 0 1 1.22-5.84c1.24-1.42 2.5-1.43 3.82-.1z" class="cls-91"/>
    <path d="M148.08 11.18l.24 3c1.6 1.75 1.8 3.8 1.5 6.07-.48 3.65.57 6.27 4.8 6.56a4 4 0 0 1 3.8 2.8 50.16 50.16 0 0 1 .7 32.7 4.8 4.8 0 0 1-1.1 1.7c-3.08 1.3-.9 3.3-.56 5a8 8 0 0 1-.33 4.6 2.8 2.8 0 0 1-2.27 1.7 28.62 28.62 0 0 0-11.3 2.7 2.68 2.68 0 0 1-2.77-.4c-2-3-1.2-5.7 1-8.2 5-.7 4.4-4.3 4-7.8a32.7 32.7 0 0 0 4.5-13.3c.5-4.6-4-8.3-7.1-11.8-.5-8.7 2.5-16.8 4.8-24.9z" class="cls-92"/>
    <path d="M143.27 36.12c2.66-.22 4.53.23 5.1 3.53.28 1.54.65 3.86 3.43 4.28 1.75.27 1.9 2.74.94 3.7-2.28 2.3-.38 6.36-3.74 8.06-.68.3-.3 1.1 0 1.7 2 3.4-.5 3.5-2.8 3.7-1.73-1.1-1.6-3-1.82-4.7-.9-2.6-1.17-5.1.8-7.4a5.93 5.93 0 0 0-1.3-3.8c2.75-3.3-2.3-6.1-.6-9.3z" class="cls-93"/>
    <path d="M150.18 163.18c-6.24-1.82-6.07-7.3-7.07-12.2a23.26 23.26 0 0 1 .2-9.74c3.7-1.52 4.5 2.37 6.8 3-.2-1-2.7-2.6-.6-4.16s4.4 0 6.6.9c3.1 3.06 8 4.37 9.3 9.3 3.6 1.8 8.2.43 11.4 4-1.8 2.15-4.1 1.37-6.4 1-3.9 1.6-7.1-1-10.5-1.64 3.3 1.8 7 2.5 10.6 3.57 2.4.6 4.9.9 7.1 1.9 2.5 1.2 3.3 3.6 2.9 6.3l-2-.1c-2.1.6-1.2 4.2-4 4a14.1 14.1 0 0 1-2.9-.4c-6.9-2.5-7.2-2.3-8.1 4.5a2.6 2.6 0 0 1-1.9.9c-1.7-.2-3.1-1.3-2.9-2.9a21 21 0 0 0-.7-10.3c-1.2.8-1.9 2.6-2.5 4.4-2.9 2.4-3.5-1.1-5-2.1z" class="cls-94"/>
    <path d="M176.05 133.3l3.06 3c1 1.73 1 3.36-1.4 3.36-2.8 0-5.8 1.07-8.6-.36l-10.6-3.35a3 3 0 0 1-2.1-1.5c-.5-1.6-1.9-2.1-3.3-2.44a3.6 3.6 0 0 1-2-1.8c.1-2.5 1.9-2.9 3.8-2.8 2.5.1 5-.4 7.4 0 2.3.6 3.5 2.8 5.4 3.9 3.3-1.1 6.1-.2 8.6 2.1z" class="cls-95"/>
    <path d="M155.18 142.18a11.54 11.54 0 0 0-5.4-1.52c-.3 2.45 2.57 3.33 2.62 5.5 0 1.08.14 1.9-1.06 2.35-.92.4-1.86.2-1.9-.7-.2-4-4.23-4.2-6.17-6.5v-1c.1-1.3-.35-2.7.55-4a6.6 6.6 0 0 1 7.3-3.3c1.42.3 3.2 0 3.2 2.3l-1.14 1.1c.46 2.1 4.63 3 2 6z" class="cls-49"/>
    <path d="M155.18 142.18c.88-2.5-2.4-3.64-2-6 4.72 4 11.55 3 16.62 6.56a5.07 5.07 0 0 1-.84 1.12c-2.3 1.32-4.47-3.26-6-.76-1.14 1.83 2.46 3 3.2 5 .44 1.14.45 1.9-1 2.07z" class="cls-96"/>
    <path d="M170.18 157.18c-4.36 2.8-13-1.77-13.5-7.87 3.84 4.3 9.13 3.9 13.44 6q.06 1 .06 2z" class="cls-42"/>
    <path d="M169.04 139.26c3 .23 5.75-1.53 8.84-.9 1.5.32 1.1-1.22 1.23-2.1.9 2 3.4 4.28-1.1 5.07-3.2.2-6.4.52-8.9-2.07z" class="cls-97"/>
    <path d="M154.24 135.18c-1.13-1.18-2.64-.8-4-1a3.34 3.34 0 0 0-1.56-3.65 2.22 2.22 0 0 1 .28-1.3c1-.6 1.7-.14 2.25.73l2.1 1.2c1.2 1.23 3.2 1.2 4 3l1.2 1.84z" class="cls-98"/>
    <path d="M176.28 61.08c1.9 3.93.37 8.12 1 12.15-2.72 9.22-5.52 18.43-7.07 27.95a1.82 1.82 0 0 1-.2 2 3.87 3.87 0 0 1-4.5 1.64 6.13 6.13 0 0 1-2.3-1.88 6 6 0 0 1-2-3.94 5.47 5.47 0 0 1 .2-1.48 14.92 14.92 0 0 0-.7-10.63c-.7-1.6-.6-3.3-.7-4.9-.1-2.2.9-3.6 3-3.8 2.5-.3 3.7 1.2 4 3.4.3 1.8.1 3.6.2 5.4a63.32 63.32 0 0 1 1-15.1c0-1.6.2-3.2 1.6-4.2a2.77 2.77 0 0 1 1.4-.3c1.4 0 2.1 1.4 3.2 1.9 1.3-2.6-1.8-6.5 2.3-8.4z" class="cls-99"/>
    <path d="M175.92 89.98a8.23 8.23 0 0 1-.13-6.16c1.7-5.82 4.2-11.5 3.4-17.84-.2-1.37.3-2.9 2-2.86s1.7 1.74 1.9 3c.9 8.66-2.5 16.06-7.2 23.86z" class="cls-100"/>
    <path d="M169.23 102.18l.94-1c1.05-1 2.12-2.06 3.15-3.12 1.22-1.27 6.65-1.1 7.5.35a2.24 2.24 0 0 1-.1 1.8c-4.94 1.6-1.72 4.4-1.1 6.8a2 2 0 0 1-.44 2.2l-.93-.1c-.75 0-2.5-1.5-1.66 1a1.74 1.74 0 0 1-.5 2.2c-1.8 1-3.2.7-4.1-1.1-1.7-.5 1.9-4.7-2.4-3.4a1.68 1.68 0 0 1-1.2-.8 5.34 5.34 0 0 1 .7-4.5z" class="cls-101"/>
    <path d="M116.32 158.18c.3.9.65 1.78.85 2.7.26 1.2-.54 2.92.8 3.52 1.86.84 2-1.68 3.2-2.24.4 5.47-1.78 10.57-2.3 15.92-.22 2.42-3.17 3.1-4.5 4.95-1-6.43 1.72-12.52 1.75-18.85z" class="cls-102"/>
    <path d="M19.18 159.18c-.6-.56-1.18-1.15-1.8-1.68-1.06-.9-3.63.42-3.5-1.73.1-1.77 2.27-2.18 3.9-2.5 2.2-.4 3.53.42 3.46 2.86-3.3-.7-1.57 1.96-2.06 3.05z" class="cls-79"/>
    <path d="M156.18 64.03c3.92-6.52 4.06-13.8 3.65-21-.24-4.23-1.82-8.37-2.53-12.6-.4-2.36-1.92-2.5-3.6-2.36-4.42.32-5.94-1.76-5.53-6 .26-2.63.1-5.3.12-8 2.6.45 6-1.68 7.7 2a2.3 2.3 0 0 1 .9 1.92 4 4 0 0 1-2.1 3.3c-.4.1-1-.1-1.2.5a1 1 0 0 0 .8.5c1.3.1 2.7 1 2.2 2.1-1 2 0 1.6 1.3 1.9 4.1.9 2.6 4.7 3.5 7.1-.1-4.9-3-9.6-2-14.9.8-5.1 2.1-6.3 7.6-5.6a3 3 0 0 1 1.8 3.1c-5.8 4-6.5 9.3-2.3 17.8 2.3.1 1.9-3.7 4.4-3.3a4.33 4.33 0 0 1 1.7 3.1 8.9 8.9 0 0 1-.9 4.3 18.38 18.38 0 0 0-4.3 7.3c-1 1.2-2 2.2-3.8 1.6-.3-.2-.4-.5-.6-.7-.6-.6 0 .2-.3.2.1 1.3.5 2.6 0 3.9-.8 4-1 8-2.6 11.8-.7 1.7-1.2 3.4-3.2 3.9-1.3-.3-1.9-1-1.4-2.4z" class="cls-103"/>
    <path d="M171.18 38.18a7.22 7.22 0 0 1 1-4c-.15-2.68-2.68-5.37 0-8 1.67.58 2.17 4 4.9 2h.07c.73 3.9-.93 7.48-2.15 10.92-2.6 7.3-1.26 14.18 1.08 21.1q.1.44.16.88c-1.9 3.77.78 8-1.37 12.37l-3.7-5.27c-2.54-2.93-.88-6.58-1.67-9.8-.16-3.22-3.1-5.6-2.73-9a5.7 5.7 0 0 1 .37-2.32c1.33-2.96 1.4-6.5 4.04-8.88z" class="cls-104"/>
    <path d="M154.28 21.18l1.8-3c1.8-1.15.77-4 3-4.92l.1-.08c2.67-.4 5.33-2.12 8 0-4.57-.3-6.1 2-6.1 6.38a51.2 51.2 0 0 0 2.25 14.62c.5 1.7 1.83 4.3-.22 4.82-2.7.68-1.7-2.83-2.7-4.25a.73.73 0 0 1 0-.5c.9-5.9-2.1-7.87-8.1-7 1.2-1.75 4-.43 3.8-2.64-.1-1.4-2.2-.1-2.7-1.5-.4-1 .2-1.6 1.1-1.9z" class="cls-25"/>
    <path d="M171.18 31.1c-1.8 1.7-1.1 6.3-4.43 5.62-2.85-.57-2.67-4.54-3.36-7.1a45.07 45.07 0 0 1-1.1-8.27c-.3-3.44 3-5.8 6.8-5l.9.95a23.86 23.86 0 0 1 1.1 13.8z" class="cls-105"/>
    <path d="M171.18 31.1c.52-4.7-1.28-9.2-1.16-13.85 3.3 2.32 1.9 5.83 2.24 8.9v8c-1.08-.77-1.08-1.97-1.08-3.06z" class="cls-25"/>
    <path d="M100.18 161.18c-1.75 5.9-3.3 11.87-7.14 16.88a43.92 43.92 0 0 1-12.92-2.8c1.3-3.82 4.55-1.4 6.83-2.08 1.42-.43 3.62.76 4-1.8.3-2.37-1.24-2.6-3.2-3.14-2.3-.63-4.4-1.37-6.67-.16-2.58-2-4.8-4.08-3.47-7.78 2.3-2.1 5.5-1.28 8-2.7.8-.34 1.5-.73 2.2-1.1 7.9-4.06 8.7-3.77 12.4 4.68z" class="cls-67"/>
    <path d="M78.18 160.18c-.45 3.16 2.44 5.1 2.87 7.94-2.8-.27-2 2.3-2.47 4-4.32-4.5-2.3-11.07-6.33-15.16a3.9 3.9 0 0 1-2.07-2.18 4.4 4.4 0 0 1 .74-4.42c2.87-1 3.25 1.45 4.22 3.08.04 2.67 2.85 4.1 3.04 6.74z" class="cls-106"/>
    <path d="M66 173.12c-3.42 3.66-2.66-2.36-4.65-2-.3-4.63-4-8.4-3.32-13.3 1-2.4 2.37-3.28 4.58-1.3a2.48 2.48 0 0 1-.1 2.5l3.6 12.16a1.13 1.13 0 0 1-.1 1.94z" class="cls-107"/>
    <path d="M66 173.12l.1-1.95c2.6-.24 5.32-4.13 7.67.9 1.66 3.54 1.8 5.55-2.6 6.14a3.2 3.2 0 0 1-1.18-.7c.2-3-1.9-3.7-4-4.3z" class="cls-108"/>
    <path d="M62.48 159.03l-.2-1.85a2.57 2.57 0 0 1 1.7-1.84 30.9 30.9 0 0 0 3-.72 4.34 4.34 0 0 1 1.2 0 20.18 20.18 0 0 1 2.88.65l1.2 1.66a9.45 9.45 0 0 0-1.75 1.7c-3.4 5.77-3.4 5.78-8 .4z" class="cls-109"/>
    <path d="M80.18 175.3a17.83 17.83 0 0 1 12.92 2.8c-1.24.3-2.42.7-2.95 2l-2 2.13c-1.34-.47-3 0-4-1.42.5-1.3 2 .4 2.6-1a7.5 7.5 0 0 0-6.55-2.5z" class="cls-110"/>
    <path d="M50.07 123.18c-1.76-5.56-.7-11.27-.9-16.92-1.35-3.52 1-6.7.94-10.1 2.4-.62 3.5.94 3.7 2.8.4 3.1 2.1 5.76 2.7 8.76.6 1.77 1.3 3.53 1.9 5.3a9.1 9.1 0 0 0 3.5 5.84 12.17 12.17 0 0 1 4.2 7.67c-.4 3.2-2.2 5.7-4 8.2-1.3 1.94-2.5 1.9-4.8.54-1.1-4.87-4.9-8.04-7.1-12.1z" class="cls-111"/>
    <path d="M57.18 135.18c5.55-.3 5.16-6 7.93-8.76 3.2-.35 3.3 2.65 4.4 4.32a11.8 11.8 0 0 0 3.6 4c2.2 1.36 4.1 2.3 5.8-.63a3.74 3.74 0 0 1 3.9-1.8c2.1.5 3.5 1.6 3.7 3.9a5.75 5.75 0 0 0 .3 3.5c-1.3 4-4.9 2.3-7.5 2.9a9.73 9.73 0 0 1-5.3-.5c-.4 0-1.1-.9-1.2.4s-.2 2.6-1.6 3.1c-2.2-.7-.5-2.5-1.2-3.4 0 1 .1 2.4 0 3.7-1.3 2.6-4.5 1.4-6.4 3.3-1 1-2.1-.4-2.6-1.4a8.37 8.37 0 0 0-5-3.8c-.4-2.9-.8-5.8.4-8.7h.9z" class="cls-112"/>
    <path d="M59.13 158.18c.67 4.3 3 8.33 2.22 12.9-2 1.2 1.05 4.37-2 5.18l-2.17-10.08c.32-1.76-.2-3.5 0-5.27.2-1.2-.12-2.8 1.95-2.7z" class="cls-113"/>
    <path d="M56.28 135.18c.27 3-.83 6.17.86 9.06 3.24 2.07.65 4.65.62 7a2 2 0 0 1-2.43.88c-.1-5.66-1.37-11.33.16-17a.44.44 0 0 1 .3-.2 1.3 1.3 0 0 1 .4.26z" class="cls-114"/>
    <path d="M55.33 152.18l2.5-.6c1.5 1.36 1 2.92.57 4.55s-1.28 3.43-.32 5.24c-.37 1.6.74 3.46-.88 4.83-1.62-4.6-1.54-9.36-1.87-14.02z" class="cls-115"/>
    <path d="M176.12 60.18c-4.3-5.76-4.3-12.3-2.92-18.85.93-4.47 2.63-8.8 4-13.17l1.1 1.2a47.08 47.08 0 0 1-2.54 11.5c-2 5.48-.95 10.88.46 16.27z" class="cls-99"/>
    <path d="M155.18 165.18c-2.85-1.44-.74-3.88 0-4.44 2-1.57 4.6-2.47 7.22-.7-.77 1.83-2.65.53-3.58 1.84a2.27 2.27 0 0 0 .63 1c2.4 1 3.2 2.2 1.17 4.4s-2 4.15.54 5.9c1.1 1.88 0 2.28-1.6 2.44s-3-.4-4.38.47a6.8 6.8 0 0 0-.92.1c-1.73 1-3.47 2-2.93-1.5.15-1 .67-2 .53-2.9-.9-5.6 1.9-4.9 5.4-3.2.32-1.9-.84-2.7-2.08-3.6z" class="cls-116"/>
    <path d="M174.18 169.1c.4-.78 1.42-1 1.1-2.44-1-3.93 1.14-2.55 2.93-1.5.1 2.8-1.1 4.2-4 3.93z" class="cls-43"/>
    <path d="M155.18 176.18c1.43-2.12 5.24.62 6-2.93l2-.06 1 4c-2.88-1.7-6-.8-9-1.1z" class="cls-22"/>
    <path d="M100.18 161.18a1.84 1.84 0 0 1-.92-.27c-3.48-7.3-8.18-5.4-13.13-1.7-3.85-1-1.65-3.7-1.58-5.8a4.6 4.6 0 0 1 .55-1.3c4.57-2.7 8.1-7.6 14.35-6.9a3.2 3.2 0 0 1 .56 2.8c-.5 2.1-2.5 2.4-3.2 2.9 3-1.4 4.6 1.2 5.9 4.2a1.65 1.65 0 0 1-.4 1.3z" class="cls-117"/>
    <path d="M102.18 156.23l-.14-1.18a3.47 3.47 0 0 1 .88-4c2-.46 2.43 1.14 3.2 2.54.6-1.9-.22-3.2-1.3-4.4-1.52-1.8-.74-3.5.3-5a3.9 3.9 0 0 1 4.5-1.3c2.06.6 1.77 2.5 1.57 4.1-3.2 2.3.9 3.3.9 5.1-1.2 4.1.1 9.5-5.9 11a8 8 0 0 0-4.2 2.9c-1.7-3.8 2.8-6.8.1-10z" class="cls-118"/>
    <path d="M110.18 179.18c-2.4.8-4.16 1-3.33-2.57a38.9 38.9 0 0 0 .43-6.1c-1.82.6-.45 3.5-2.27 3-2.1-.7-.7-2.8-.8-4.3 1.2-1.1.4-4.8 4-2.8 1.2.7 2.1-1.2 3.1-2 .8 1.7 1.7 3.4-.1 5-1.9 2.4 0 4.8.2 7.1z" class="cls-119"/>
    <path d="M106.25 163.33c3.78-2.72 3.5-7.6 5.9-11.06 1 3.44.1 6.68-1 9.9-1.62.35-2.84 2.57-4.9 1.16z" class="cls-120"/>
    <path d="M159.06 13.3c-1.14 1.54.8 5-3 4.9v-2.06c.05-1.96.77-3.2 3-2.85z" class="cls-121"/>
    <path d="M111.25 176.3c-2.43-1.64-1.63-4.57-2.44-6.8-.6-1.7 1.5-.43 2.4-.33-.5 2.38 1.3 4.72.2 7.12z" class="cls-122"/>
    <path d="M177.18 117.18c2.23 0 3.8-.17 3.68 3.4-.15 4.16 2 8.34.34 12.63-2.38-1.2-4-3.7-7-4a4.22 4.22 0 0 1-4.18-.5c-1.2-2.4-2.14-5-5-6.3a4.84 4.84 0 0 1-2.66-4.4 2.65 2.65 0 0 1 1.5-2.3 3.62 3.62 0 0 1 2.16-.1c3.2 2.5 7.1.5 10.52 1.7z" class="cls-123"/>
    <path d="M170.18 128.13c1.38.2 2.92-.22 4 1.07-.12 1.7 1.44 2.64 1.87 4.1-3-.85-6-1.7-8.94 0-.4-1.9-.7-3.77.9-5.35a1.94 1.94 0 0 1 2.3.18z" class="cls-124"/>
    <path d="M169.32 107.1h.9c1.76.76 1.4 3.1 3 4l3 1 1 5c-1 .6-1.67-.28-2.46-.58-7.25.1-8.98-2.94-5.44-9.4z" class="cls-125"/>
    <path d="M176.18 112.18c.34-2.24-4.08-4.28-.23-6.77l2.3 3.7c-1.2 1.7.57 2.7 1 4z" class="cls-125"/>
    <path d="M102.18 63.18v1c-3.9 3.18-8 .33-11.85 0-4.8-.46-9.77-.75-14.46-2.53-1.73-.66-4-.2-5.9.23-7.57 1.66-10.95-.4-12.84-8a19.37 19.37 0 0 1 3.62-7.46c-.8.05-1.74.56-2.6-.15 1.4-3.12 3.15-6 6.06-8 1.1 1.15-.4 2.94 1 4 2.5-1.34 3.9-4 6.2-5.37 1.5-.9 2.8-3 5.1-1.8a2.57 2.57 0 0 1 .5 2c-.8 2.67-3.3 4-4.8 6.1a37.2 37.2 0 0 1-2.9 2.98c2.9-1 4-.16 3.5 2.58 1.3-1.35 2.4-3.92 4.9-2.9s.1 2.74 0 4.17c.6-.3 1.1-.77 1.7-1.1 1.3-.72 2.8-1.8 4.1-.58s0 2.4-.6 3.52c-.4.68.2 1.22.6 1.75 2.8 5.44 8.3 5.36 13.1 6.64 2.2.62 4.6.6 6 2.92z" class="cls-126"/>
    <path d="M58.18 46.18c1.2-.35 2.13-1.5 3.9-1a17.36 17.36 0 0 1-3.84 8 1.87 1.87 0 0 1-2.8 0l-.34.05c.65-2.5 1.08-5.1 3.08-7.05z" class="cls-80"/>
    <path d="M55.4 53.18h2.8c-1 3.82 3.5 4 4.48 7 1.4 4.24 4.6.75 7 .1 2.83-.77 5.95.52 8.6-1.3 3 4.58 8.1 2.6 12.2 3.66 3.77 1 7.78 1.05 11.7 1.53 2-.6 3.76.1 5.7.62s4 1.8 6.15.8c1.1-.6 2.56-2.2 3.35-.7 1 1.8-1.32 2.5-2.56 3.5-2.12 1.7-4.4.8-6.6.3a21.2 21.2 0 0 0-7.3-1c-6.35 0-12.42-2.7-18.84-2a68.37 68.37 0 0 0-16-1c-.66 0 .16-.1-.46.1-.17 0 0 .5.42.7.88.8 1.78 1.5 1.15 2.9-1.5 1.4-3.4 1.2-5.1 1.1a15.33 15.33 0 0 0-8.4 2 2 2 0 0 1-1.5-.3c-2.2-2.4-2.2-2.4.1-3.6.5-.3.2-1.7-.5-2.5 2.8-.9 3.7-2.8 3.3-5.7a44.47 44.47 0 0 1 .1-6.5z" class="cls-127"/>
    <path d="M55.18 108.18c-1-2.88-2.7-5.57-2.62-8.73.06-1.9-1.24-2.55-2.47-3.37a1.33 1.33 0 0 0-1.9-.5c.3-4.8-2-9.78 1-14.4a3.68 3.68 0 0 1 2 1.9c1 3.9 4.8 6.18 5.8 10.1-.1 2.4-1.2 4.76-.2 7.2.1 2.75.7 5.6-1.7 7.8z" class="cls-128"/>
    <path d="M50.06 83.42l-.88-2.24a18.92 18.92 0 0 1 3.05-9.9.5.5 0 0 1 .67-.18 7.7 7.7 0 0 1 3.8-.92c2.36.6 2.55 2.34 2.34 4.3-1.13 2.55-1.63 5.52-4.44 7-2.13-.85-2.6 2.24-4.54 1.94z" class="cls-129"/>
    <path d="M25.18 22.64c0 1.75-.33 3.25-2.2 3.44-2.17.22-2.92-1.26-2.9-3.14 0-1.7.2-3.62 2.4-3.67s2.56 1.76 2.7 3.37z" class="cls-130"/>
    <path d="M50.1 96.12c.72 3.46-1 6.7-.94 10.1-.55-.08-1.76.6-1.54-.35.76-3.26.56-6.78 2.5-9.75z" class="cls-128"/>
    <path d="M32.1 143.25c-.75-1.62-1.06-3.15 1.15-3.8a1.3 1.3 0 0 1 1.77 1.1c.4 2.36-1.18 2.63-2.9 2.73z" class="cls-131"/>
    <path d="M82.18 54.18c-2.34.8-3.3.3-2.12-2.24.54-1.15 2.33-1.22 2.44-2.85-3.45-.2-4.33 4.9-8.48 3.7.48-2.3 2-4 3.23-5.9-3.25.7-3.93 4.9-7.62 5.5.07-2.1 2.46-3.3 2-5.7-2.22.3-2.6 3.6-5.5 3.1.4-3.5 3-5.4 5.07-7.7 3.67-2.2 7.32-4.4 11.06-6.4 4.43-2.3 9.65-1 14.52-1.2 1.6-.1 3.25.3 4.4.1s.68-.5.6-.4c-1.42.6-2.95.7-4.05-.6-1.87-2.2.8-3.1 1.44-4.6 3.17-.3 6.1.7 9 1.9 1.7 2.5 4.44 3.2 7 4.3 1.52.6 3.2 1 4.35 2.2 1.7 1.9.5 4.5-1 3.8-2.88-1.3-3.38 1.8-5.24 1.7-.64.4-2.1-.9-2 1 1 1.6-2.38 2.2-1 4 .43 4.2-3.3.1-4 2-2.7-1.2-5.52-.1-7.1-.4 1.6.1 4.4-.7 7.12.4 4.26 2.7-.67 4-1 6-2.66 3.8-6.4 2.8-9.83 1.8-2.68-.8-5.13-2.2-8.1-1.3-2.53.8-3.13-2.4-5.2-2.6z" class="cls-132"/>
    <path d="M99.12 29.33c.24 4.1.24 4.1 5.23 4.9a2.72 2.72 0 0 1 2.45 2.22c-7.58-2.1-14.75 1.18-22-.5-.9-.22-2.3 1.1-3.3 1.93-3 2.47-6.2 4.56-10.36 4.3a17.2 17.2 0 0 1 5-5c1.94-3.25 5.1-3.84 8.36-3.82-2.24-1.15-5.27 2.14-7.28-1.2 6.96-3.93 14.37-3.76 21.9-2.83z" class="cls-133"/>
    <path d="M113.18 43.18c.16-3.32 2-3.45 4.54-2.45a1.2 1.2 0 0 0 1.62-.75c.37-1.08-.54-1.43-1.3-1.73-2.32-.9-4.6-1.92-7-2.6s-3.08-2.23-3-4.44l11.14 3c2.74.6 6.07.2 6.95 4-.85 3.2-3.4 4-6.27 4.2.47 2.3 3.36 2 3.4 4.7-3.47-1.2-7-1.8-10.08-3.8z" class="cls-83"/>
    <path d="M77.25 32.18c3.6.57 7.37-1.32 11.47.94a64.1 64.1 0 0 0-12.54 4.06v-2.06q-.53-.32-.35-.63a.48.48 0 0 1 .35-.4z" class="cls-134"/>
    <path d="M126.18 38.18c-1.76-2.3-4.7-2.57-6.95-4v-1c4.13.26 7.38 2.7 10.8 4.57a14 14 0 0 0 5.06 1.7c.2 2.58-1 2.55-3 1.76s-3.7-2.8-6-3z" class="cls-135"/>
    <path d="M76.18 34.18v.95c-4.6.9-6.62 5.83-11 7.06 3.26-3.3 5.28-8.2 11-8.1z" class="cls-136"/>
    <path d="M145.18 49.18a15.53 15.53 0 0 0 .9 7c-.36 1.3-2.8 1.8-1.52 3.67 2.5 3.62.52 6.52-1.34 9.47a8.7 8.7 0 0 0-2 7.83c1.55 1.85-.75 3-.78 4.6 1 4.75 3.16 9.52 0 14.27-1.44 3.75-.64 7.75-1.24 11.6-.4 2.52-.9 4.4-3.14 5.6-.93-.85-.86-2-.87-3.12-1.8-2.14.2-4.93-1.3-7.12 0-4.45 1.2-8.8.9-13.26-.4-2.74-.3-5.66-3.3-7.13a3.94 3.94 0 0 1-1.3-.1c-2.3-2.4-5.8-3.4-7.5-6.5 2.1-1.8 2.1-1.8 5.3-.9a15.5 15.5 0 0 0-4.1-1.4 13.18 13.18 0 0 1-4.2-1.6 3.44 3.44 0 0 1-1.7-2.2c.6-1 1.6-2.3 2.7-1.3 2.1 1.8 4.4 1 6.7 1 3.9 0 8.5 1.1 8.8-5.3 0-1.4 1.6-.7 2.4-1.1 1.5-.9 1.7-2.9.5-3.2-5.4-1.3-4-7.8-8.3-9.9a1 1 0 0 1-.1-1.7 1.25 1.25 0 0 1 1.8.1c.7.6 1 1.7 2.4 1.7.9-2.4-2-2.8-2.1-4.5a7.1 7.1 0 0 1 5 2.6c1.6 2.7 3 4.1 4.8.1a8.63 8.63 0 0 1 2.2.3z" class="cls-137"/>
    <path d="M82.18 54.18c.75-.75 1.52-1.4 2.38-.16.36.52.64 1.1.95 1.66 6.4-3.9 12 4.2 18.4 1.13.5-.2.9-.3 1.4-.5.3 2.9-2.2 4.6-3 7-5-1.1-10.2-1.8-15-3.5-2.1-.8-6-1.3-4.9-5.5z" class="cls-138"/>
    <path d="M118.18 70.04l2 1.13c1.1 2.76-1 3-2.74 3.4-3.16.13-6.32.15-9.48 0-1.92-.66-4.1-.67-5.74-2.12-.27-2-2.86-3.6-1.1-6 4.9-1.5 9.1 1.6 13.7 2z" class="cls-139"/>
    <path d="M110.18 48.18c-2.64-1.15-2.64-1.15 1-4 .75.3 1.52.57 2.24.93 1.48.8 4.5.8 3.77 2.8-1 2.6-2.4-.9-3.9-.7-1.2.2-2.3 0-3.2 1z" class="cls-83"/>
    <path d="M141.3 120.18v-.93c1-1.27 1.52-3 3.43-3.3 2.66-.5-.88-2.95.65-3.3-1.28 1.38-2.72 1-3.62-1.15-.6-1.5-.5-3.27-1.73-4.54.28-2.6-1.2-5.82 2.53-7.22 3.63 1.43.73 5 2.3 7.08a2.47 2.47 0 0 0 2.14.86 2.5 2.5 0 0 1-2.05-.77c-1-2.3.07-3.1 2.24-3.3a5 5 0 0 0 2.6-1.1c4.1-2.7 5.6-2 6.6 3.2-.4 2.2-.8 4.3 2.1 5.2 2 .6 3.9 1.9 3 4.3s-3 1.5-4.7 1.1a1.77 1.77 0 0 0-1.8.8c-3.9 1.4-7 4.1-10.7 5.9a2.66 2.66 0 0 1-3.2-2.5z" class="cls-140"/>
    <path d="M149.12 129.5q-.07.44-.1.88c-1.44 2.07-5.05 2.34-4.83 5.8-.1 1.4.2 2.92-1 4.06h-1c-.4-1.25-.6-2.53-1-3.75s-4-1.7-.8-3.8c.4-.3-1.2-2.1-2.4-2.8a6.45 6.45 0 0 1-2.9-6.3 3.78 3.78 0 0 1 5-3.4 1.34 1.34 0 0 1 .3 1.2c-1.3 1.8-.9 3 1.4 3.4 1.9.7 3.6 2 5.6 2.3a2.5 2.5 0 0 1 1.4 2.2z" class="cls-141"/>
    <path d="M141.18 106.25c2.5 1.36 1 4.28 2.44 6.67 2-2.32 4.2-3.8 6.72-2.25 1.12 2.8-7.74 0-2.1 5 .4.37-1 1.27-1.65 1.28-2.2 0-3.5 1.68-5.4 2.36.2-2.6-1.9-4.5-2.1-7 .2-2.2-1.6-4.9 1.9-6z" class="cls-142"/>
    <path d="M141.18 106.25c-2.74 1.3 1 4.72-2 5.93-1 .73-1.56 2.1-3.08 2a2.57 2.57 0 0 0-.05-.94c2.7-3.62 1.28-8 2.1-12 .4-2 0-4.23 1.08-6.17 4.25-.18 3.3 2.57 2.84 5-1.4 1.94.1 4.24-.9 6.18z" class="cls-143"/>
    <path d="M140.18 121.18v-1h1.1l3.06 1.9c3 1 4 3 3.08 6-2.56.78-4.23-1.32-6.34-2-.67-1.52-4.55-2.48-.9-4.9z" class="cls-142"/>
    <path d="M142.18 140.18c-.4 1.8-1.38 2.9-3.34 2.28a1.82 1.82 0 0 1-.45-1.66c.9-1.9 2.5-.15 3.7-.63z" class="cls-141"/>
    <path d="M111.18 147.13c-1.47-.36.17-3.58-2.88-2.84-1.8.4-2.36 1-2.28 2.6 0 .3-1.7.6-.5 1.1 5.8 2.5 2.12 5.2.2 8.6-.77-2.3-.95-4.3-2.45-5.6-2.07 0-3.6-.8-4.07-3v-3a4.07 4.07 0 0 1 1.38-3.8 6.07 6.07 0 0 1 1.76-1.2c2.47-.7 3.63-2.6 4.57-4.8 1.2-2.7 2.1-5.6 3.8-8 .9-1.3 1.8-4.2 4.3-1.5-.3 1.7-1.8 3.2-.8 5.1 1.4 3.4-1.2 5-3.2 6.9-.5.8-1.5 1.6-1.5 2.4 0 2 1.5.2 2 .6 2.7 2 1.7 4.1-.1 6.1z" class="cls-144"/>
    <path d="M110.94 138.1c1.34-2.2 2.73-4.35 3.23-6.92 2.57-1.17 1.83 1 2.08 2.1a5 5 0 0 1-.2.78c-2.22.7-1.75 4.8-5.1 4.03z" class="cls-145"/>
    <path d="M131.18 82.27v-.57c2.8.73 3.88 2.47 4.58 7.35.43 2.6-.93 5-.67 7.6-1.8 3.06-3.8 6-5.5 9.13-1.1 1.74-1.4 4.07-3.5 5.1a17.1 17.1 0 0 0-4.1 6.23c-2.9-.3-2-3-2.9-4.5 2.1-4.5-2-7.1-3.3-10.5 1.4-1.7 3.7-2 5.4-3 4.5-1.2 6.9-4.4 8.2-8.7 1.8-2.4-.7-5.6 1.4-7.9z" class="cls-146"/>
    <path d="M128.32 105.34c1.54-3 2.6-6.34 5.73-8.25 2 1.6.35 3.5-.07 5-.6 2.1 1.26.2 1.27 1 1.88 2.3.28 4.6-.08 6.9-2.53 1.7-2.3 5.4-5 7.1.94-2.3.16-4.6 0-6.8-1.67-1.2-1.32-3.3-1.85-5z" class="cls-143"/>
    <path d="M120.18 112.18c1.7 1.22.43 3.6 1.9 4.9-.3 2.7-3.26 3.53-4.1 5.84l-1.85 1c-1.65-1-2.64.26-3.8 1-1.67 1.12-3.4 1.8-5.27.37-.7-3.3 2.27-3.9 3.85-5.5a17.1 17.1 0 0 1 3.5-2.3c2.8-.9 2-5.6 5.8-5.5z" class="cls-147"/>
    <path d="M128.32 105.34c1.5 1.36 4.8 2.07 1.85 5-1.35.17-2.36 3.15-4.06.5-.3-2.22 1.3-3.72 2.3-5.5z" class="cls-148"/>
    <path d="M107.1 125.07c2.73.26 4.72-1.1 6.6-2.85 3.4-3.13 2.2.3 2.4 1.7l-1.13 2.12c-2.9-.57-3 2.1-3.75 3.6-1.44 2.74-2.3 5.78-3.64 8.6-1 2.2-2.08 4.88-5.44 2.84-3.68-.78-4.48-3.35-4.13-6.63 1.5-2.78 3.7-5.13 5.4-7.77 1.1-.9 2.1-2 3.8-1.6z" class="cls-149"/>
    <path d="M157.18 66.18c3-3.78 2.95-8.5 4-12.87.25-1.1.07-2.3 1-3.1a1.9 1.9 0 0 1 2.14-.3 3.27 3.27 0 0 1 1 1.2c2.72 6.1-1.38 11.2-2.82 16.6a20.27 20.27 0 0 1-2.88 5.8 2.55 2.55 0 0 1-2.1.7 2.18 2.18 0 0 1-1.23-.8l-.2-4.9c-.7-1.2-.7-2 1-2z" class="cls-150"/>
    <path d="M156.27 73.1l.9.13c1.9 1.23 2.16 2.75.8 4.56-4.1 2.2-8.8 2-13.2 3-2.08 1.4-4.15 3.1-6.47.4.28-1.9 3.06-1.9 2.94-4.1a27.92 27.92 0 0 1 15.03-4.1z" class="cls-151"/>
    <path d="M143.25 69.33c-.1-1.48-.3-3 .7-4.27 1.1-1.43 1-2.6-.25-3.9-1-1.1-2.83-1.87-1.82-4.06 1.1-2.36 3 .28 4.23-.9l.2 5c.6 1.18 3.1 1.35 1.2 3.86-1.4 1.9.4 5.1-.9 7.42-2.8.42.3-4.58-3.3-3.15z" class="cls-16"/>
    <path d="M157.18 66.18l-1 2c-.76-1.23-1.58-2.42-2.25-3.7-.33-.62-1-1.63.13-2s1.62.75 2.16 1.54z" class="cls-152"/>
    <path d="M147.43 128.1l-3.08-6c2.34-3.54 5.8-5.2 9.83-5.93 3.17-.45 6 .73 8.8 1.94 1.3 1.2 1.8 3.1 3.9 3.6 3.5.8 4.06 3.4 3.3 6.5l-2.1.3c-2.1 1.1-4.12-.1-6.17-.2-3.2 2.7-7.5-1.2-10.7 1.8l-2-.4z" class="cls-153"/>
    <path d="M161.9 128.13c2.12-1.67 4.16-1.06 6.17.24 0 1.7.6 3.54-1 5z" class="cls-154"/>
    <path d="M157.24 134.1c-1.28-1-3.9-.3-4-3 2.82-.92 4.4-.32 4 3z" class="cls-155"/>
    <path d="M144.18 136.18c-2.2-5.1.85-5.84 4.83-5.8 2.4.63 2.9 1.85 1.3 3.76-2.5-.74-3.9 1.6-6 2.04z" class="cls-156"/>
    <path d="M144.18 79.25l14-2.07a1.44 1.44 0 0 1 1.7 1.4c-.3 6.68 3.45 12.88 2.33 19.65a8.4 8.4 0 0 0-.1.95c-2.1 1.65-.2 3 .4 4.43-1 2.9-3.4 3.4-6 3.5a2.7 2.7 0 0 1-1.2-.8c0-1.6.4-3.5-1.7-4.2-1.9-.6-2 1.2-2.6 2.2-.9 1.4-2.4.8-3.6 1-1.4-1.7-1.4-4-1.9-6-1.2-4.5 0-9.4-2.4-13.9-1-1.8-.2-4.2 1.3-5.9z" class="cls-157"/>
    <path d="M162.24 98.18c-1-5.78-2.12-11.55-3.08-17.34-.2-1.28.1-2.65-.94-3.7l-1.05-3.9 1.92-.16c3-.1 4.7-1.22 4.4-4.74a17.82 17.82 0 0 1 2.1-9.5c1.2-2.42 2.9-3.64 5.4-1.6v10.92h-1c-1.1-.63-1.1-1.92-1.9-3.42.1 2.87-1.9 5.38.9 7.43-.6 6.36-1.1 12.73-1.7 19.1 0 .42-.9.76-2.3 1.85V82.57c0-1.8-.3-3.5-2.7-3.13s-1.5 2.08-1.4 3.5c.1 3.66 2.8 6.74 2.1 10.58-.3 1.53.3 3.28-1 4.66z" class="cls-158"/>
    <path d="M155.93 106.27c2-1.18 4.66-1.07 6.23-3.13 0-1.6.84-1.7 2-1l1.1 2a13.67 13.67 0 0 1 2.1 12.18 1.13 1.13 0 0 1-1.28.06l-2.1-.4c-1.6-2.2-2.6-4.8-6-5.32-1.8-.33-2.8-2.22-2.05-4.4z" class="cls-159"/>
    <path d="M167.13 116.18c.47-4.2-1.84-8-1.84-12.1 1.8.42 2.7-.95 3.9-1.92q0 2.45.1 4.9a15.9 15.9 0 0 1 .2 3.93c-.7 3.4-1.2 6.2 3.7 3.2 1.7-1 1.6.7 1.8 1.8-2.6 2.1-5.3 2.7-8 .1z" class="cls-160"/>
    <path d="M169.12 72.1c-1 .55-2.32 3.23-2.8-.13a18.57 18.57 0 0 1 .84-9.3c.36-.95.7-2.07 1.9-1.9s1.12 1.4 1.12 2.4c0 1.66-.1 3.32-.14 5-1.1 1.08-.86 2.55-.92 3.94z" class="cls-161"/>
    <path d="M164.18 102.18l-2 1c-1.22-.16-3.18.74-3.38-1-.22-1.9 1.67-2.6 3.36-3 .02 1.4 1.3 2 2.02 3z" class="cls-158"/>
    <path d="M173.18 111.13c-2.67-.08-3-1.9-3-4a19.44 19.44 0 0 1 .44-3.34 1.9 1.9 0 0 1 1.45-1c.78 0 1 .8 1 1.4.1 2.2.1 4.5.1 6.8z" class="cls-162"/>
    <path d="M164.26 51.18q-.08-.5-.08-1a2.13 2.13 0 0 1 .06-3l3-2.06c1.78 0 1.6.9 1 2l-.06 2.06c-1.07 1.15 0 6.4-3.92 2z" class="cls-163"/>
    <path d="M168.18 47.18l-1-2c-.45-3.34 1.34-5.4 4-7zm-4 0q0 1.5-.06 3h-2c.28-2.34-.63-4.88 1-7.23 1.72 1.33.77 2.92 1.06 4.23z" class="cls-25"/>
    <path d="M154.28 21.18l-1.1 1.93c-1.85-.1-2.17-1.2-1.5-2.7.3-.7.56-1.8 1.57-1.6 1.27.3.78 1.6 1.03 2.4z" class="cls-164"/>
    <path d="M164.26 51.18c2.6 1.92 2.78-1 3.9-2-.45 3.22 2.62 5.15 3 8.08-5.66-.44-4.7 4.5-5.7 7.47-.76 2.22-.2 4.87-.32 7.32-.06 1.23.6 2.9-.94 3.5-1.3.54-2.43-.58-3.5-1.33l-1.6-1.12c-1-4.8 3.5-7.68 4.24-12.06.54-3.34 1.9-6.46.92-9.86z" class="cls-152"/>
    <path d="M167.27 33.84c-2.14-2.43-2.2-5-2-7.6.08-1.18.37-2.43 1.82-2.53s2 1.2 2 2.3c0 2.6.6 5.3-1.9 7.9z" class="cls-165"/>
    <path d="M85.18 153.18c.7.84 1.67 1.5.3 2.75s-.18 2.25.7 3.25a10.1 10.1 0 0 1-8 1c-2.32-1.3-4.07-3-4.2-5.9 3.8.25 7.36-1.76 11.2-1.1z" class="cls-166"/>
    <path d="M85.18 153.18c-3.6 1.52-7.07 4.3-11.14 1.1-1.4-1.12-.87-3.48-2.77-4.27l-.64-.2a3.3 3.3 0 0 1-1.43-2.9l.1-.6v-6.5c1.9 1.8-.15 4.4 1.74 5.8 2.14.6 2.83 2.7 4 4.2s2.67 3 5 2.1a7.06 7.06 0 0 1 4.18-.2c.67.4 1.22.8.86 1.7z" class="cls-167"/>
    <path d="M71.1 155.25c-1 .5-2.1 3-3-.1-.5-2.63-.5-4.95 3.1-5V150q-.02 2.6-.1 5.23z" class="cls-168"/>
    <path d="M58.08 161.32c-1.9-3.22-.6-6.53-.26-9.8-1.63-2.3 1-5-.68-7.3 2.78-2.48 3.94.73 4.7 1.93.9 1.4.23 2.86 1.92.32.6-.92 3.6-.25 5.52-.3l-.07-.05c.9 1.24.3 2.15-.8 2.66-1.7.78-1.8 2.42-2.4 3.86-.6 1-1.1 2.15-1.7 3.22l-2 1.33c-1.7-1.8-2.7-1.3-3.1 1-1 .8-.9 1.9-1 3.1z" class="cls-169"/>
    <path d="M65.27 153.18c-.56-3.68-.56-3.68 3.94-7a4.7 4.7 0 0 1 2 4c-2.4.8-1.5 3.65-3.1 5l-1.1.17c-1.4-.04-1.7-.98-1.7-2.17z" class="cls-170"/>
    <path d="M65.27 153.18l1.7 2.18c-.24 3.4-1.75.63-2.7.56-.6-1.3-2.8-3.16 1-2.74z" class="cls-171"/>
    <path d="M55.18 108.18v-9c2.1-4.83 5.68-3.64 9.3-2.32a5.58 5.58 0 0 1 2.92 2c.65 1.74-.53 3.06-1.07 4.53-.68 1.8-1.2 3.6.2 5.4.48 1.6-.32 3.4.66 5a3 3 0 0 1 .1 2.6c-4.7 3.1-7.3-.8-10.3-3.2z" class="cls-172"/>
    <path d="M57.03 113.27c3.63.1 6.17 3.95 10.12 3a2.3 2.3 0 0 1 .77 1.88c-.77 3.05 1.76 4.93 2.65 7.4a15.22 15.22 0 0 0 .7 1.86c2.3 5.2 3.44 5.6 9.6 3.2 1.45.4 2.3 1.1 1.32 2.7a2.84 2.84 0 0 0-1.4.5c-1.6 2.4-3 6.1-6.5 3.6-2.1-1.4-5.6-1.7-6-5.7-.2-1.7-2.2-3.4-3.4-5.1-.9-5.5-7.9-7.3-8.1-13.2z" class="cls-173"/>
    <path d="M84.18 152.18l-4.08.82c-1.5-.13-3.74-.54-3.42-2 .83-3.86-2.1-6.48-2.53-9.83 3.9-1.38 8.4 1.23 12-1.87a1.72 1.72 0 0 1 1.2-.6c3.7.72 5.55-2.3 8-4.08 1.25-.92 2.2-2.93 3.8-.48-.62 3 1.42 4.85 3 6.93l-.97 1.1a79.9 79.9 0 0 1-17 10z" class="cls-174"/>
    <path d="M82.18 133.18c-.12-1.24-.64-2.1-2.05-2-1.4-1.5-1.35-1.6 2.06-3.34 2.1-.55 4.4-.9 4-4 1.7-1.38 3.3-.62 5.1.3-1.7-1.08-3.5-1.95-2.2-4.27 1.6-1.26 3.3-.43 5 0a7.92 7.92 0 0 0 4.3.82c2.4-.4 3.7.7 4.3 3a4 4 0 0 1 0 1.4c-2.9 2.8-6.9 4.2-9.4 7.5-1.4 1-3.5.2-4.7 1.6-1 1.1-.4 4.4-3.5 2.8-.1-2.1-1.5-3.1-3.1-3.9z" class="cls-175"/>
    <path d="M74.18 141.18c.6 1.5 2.18 1.88 3.25 2.84 1.28 1.15 2.84 1.94.67 4.13-2.4 2.4.7 3.48 2 4.87-3.05 2.18-4.55-.44-6-2.2a34 34 0 0 1-3.1-5.4l.3-6.5z" class="cls-111"/>
    <path d="M85.33 137.06c2.7-.4.78-2.86 1.78-4a2.76 2.76 0 0 1 3.7.92c.5 2.9 1.9 6.42-3.6 5.32l-.4-.13-.4.15c-1.8-.14-1.8-1.03-.8-2.26z" class="cls-176"/>
    <path d="M84.18 152.18a162.26 162.26 0 0 1 17-10c-.08 1.37-1.08 2.15-1.93 3-5.1 1.94-9.3 5.5-14.13 7.9z" class="cls-177"/>
    <path d="M99.24 148.13c1.3 1.07 3.34 1.14 4.07 3a6.92 6.92 0 0 1-1.2 3.93c-2.3-.66-2-5.76-6.5-2.54a7.45 7.45 0 0 1 3.7-4.4z" class="cls-178"/>
    <path d="M155.93 106.27a4.94 4.94 0 0 0 4.4 4c3.3.48 4.42 2.5 3.66 5.67a2.26 2.26 0 0 0-1 2.14c-3.1.12-6.2.2-8.8-1.94.2-2.68 1-3.9 3.4-1.53.8.8 2 1.9 2.8.5 1.1-1.6-.5-2.2-1.7-2.7-2.7-1.1-6.5-1.6-3.7-6.1a3.6 3.6 0 0 0 .7.1z" class="cls-179"/>
    <path d="M167.13 116.18c2.7 1.76 5.32 1.07 7.94-.18l2.1 1.18c-3.77 1-7.6 2.62-11.06-.8z" class="cls-36"/>
    <path d="M131.18 82.27c.5 3 1.62 5.93-.12 8.86-3.6-1-2.28-4.38-3.3-6.62a.44.44 0 0 0-.35-.2 1.67 1.67 0 0 0-.7.7 2.06 2.06 0 0 1-1.8.7c-4.8-3.1-9.8-5.1-15.7-4.7-8.8.6-11.7 4.4-9.4 12.8a7.63 7.63 0 0 1 .4 2.5 2.9 2.9 0 0 1-1.6 2.4c-2.4.1-2.5-2.1-3.5-3.4a61.23 61.23 0 0 1-2.6-5.9c-.5-1.4.4-2.9.1-4.3-2.9-1.1-4.8-.6-6 2.6-.5 1.7-2.2 3.1-4 .8-.6-7.7-5.1-11.8-12.3-13.6-4.4-.6-8.1-3.7-12.7-3.4l-4.3-.1c3.9-4.6 9.3-2.6 14.2-3.1 4-2 7.2.9 10.6 1.9 2.4.8 4 2.9 6.5 3.7 1.7 1.6 3.3 1.3 5-.1a3.6 3.6 0 0 1 2 .1 31.35 31.35 0 0 1 4 3.3c2.2 1 3.3-1 4.8-1.6 1.4-.4 2.7-1 4.1-1.4a11.4 11.4 0 0 1 3.8-.1h7.9c2.4 1.1 5.6-.6 7.5 2.3a15.85 15.85 0 0 1 7.8 6.4z" class="cls-180"/>
    <path d="M101.18 66.42c.1.94-.08 2 1.13 2.43 3.2 1 .6 1.65-.1 2.42l-.6.16c-3 .58-6-.4-8.6-1.6a5.1 5.1 0 0 0-4.6 0 3.37 3.37 0 0 1-1.4-.25c-1.2-2.53-5.8-1.5-5.7-5.45a83.5 83.5 0 0 1 20 2.3z" class="cls-181"/>
    <path d="M81.12 64.1c1.36 2.47 5.73 1.25 6.1 5-2.55 2.76-5.1.6-7.66 0-1.33.64.3-3.18-2.12-1.34-1.2.92-2.73 0-3.85-1-2.3-1.57-4.8-1-7.2-.78q-.6.25-1.3.44c-1.3-.52-3 .18-4.5-1.94a48.56 48.56 0 0 1 20.4-.4z" class="cls-182"/>
    <path d="M65.18 66.33l.2-1.38c3-.82 5.95.2 8.92.25 1.06.83 1.65 2.55 3.63 1.37 1.78-1.06 1 .78 1.32 1.42 1.72 1.7 5.06.2 6.25 3a2.5 2.5 0 0 1-1.12 1.1c-2.34 1-4.33-.5-6.46-.9L67.05 68z" class="cls-183"/>
    <path d="M50.06 83.42c0-2.16 3-1.7 3.44-3.78.1-.4.3 1.3.83 1.8a4.8 4.8 0 0 1 1.9 2.26c4.35 8.28 9.83 10.93 19.17 9.24 1.3-.24 2.58-.7 3.94-.33 2.38 2.3.72 3.8-1 5.2a24.16 24.16 0 0 1-11.82.3c-3.4-1.6-7.7-1.4-10.2-5-2.6-2.9-5.87-5.3-6.26-9.6z" class="cls-184"/>
    <path d="M56.28 93.1l10.05 4c-.37 1-1.52.56-2.13 1.12-3.2-1.34-6.25-1.43-9 1-1.38-2.38-.02-4.2 1.08-6.1z" class="cls-185"/>
    <path d="M79.06 93.1c-8.46 5.62-24.7.4-24.73-11.65a13.9 13.9 0 0 1 4.08-7.16c1.3-2.4 3.2-2.3 5.5-1.8 2 .5 4.3-.4 6.3.5a68.86 68.86 0 0 1 7.3 2.8c4.8 2.5 6.5 6.6 5.6 11.9.1 2.8-1 4.7-3.9 5.2z" class="cls-186"/>
    <path d="M70.18 73.1c-4 0-8-.62-11.77 1.2-1.3-.7.2-2.5-1.2-3.14 2.5 0 5.3-4.4 7.7.7.5 1.08 3.8-.36 5.4 1.24z" class="cls-187"/>
    <path d="M93.7 38.6l-6.77 3 3.14 1C86.9 46 83.2 41.33 80 43.35a2.57 2.57 0 0 1-.56-1.15 3.63 3.63 0 0 1 1.54-1.75c3.9-1.03 7.68-3.04 12.7-1.86z" class="cls-133"/>
    <path d="M104.18 53.9h-10v-1.52c3.5.9 6.9.9 10 1.52z" class="cls-138"/>
    <path d="M106.18 50.18h-9.44c3.15-.6 6.33-1.9 9.42 0z" class="cls-16"/>
    <path d="M144.18 79.25c-.38 3.3-.74 6.54 2.27 9a2 2 0 0 1 .62 1.77c-2.24 5.1 1.43 10.1.14 15.13-2.3-.84-1.8.86-1.8 2.12-4-1-.7-5.4-3.2-7.12-2.1-1 .6-4.72-2.8-5 3.3-4.87.4-9.3-.9-13.87 2.9 2.08 3.8-1.64 5.9-2.03z" class="cls-188"/>
    <path d="M123.32 75.97l-7.27-1.65c0-.64.7-.7 1-1.07 1.42-.13 2.94-.1 3.14-2.08 4.4 1.36 9 2.28 13.2 6.3-4.1.22-6.8-3.3-10.1-1.5z" class="cls-189"/>
    <path d="M135.26 103.18c-1.5 1.08-.44 3.2-2.13 4.74-1.05-3.94 1-7.3.92-10.8l1.2-7.9q.45-1 .93 0c1 4.7-.78 9.27-.92 13.96z" class="cls-148"/>
    <path d="M136.18 89.18h-.92a9.28 9.28 0 0 0-4.1-7.5c.13-2 .94-2.57 2.25-.83a13.43 13.43 0 0 1 2.8 8.33z" class="cls-190"/>
    <path d="M85.18 70.27c-2.24-.46-4.48-.92-6.7-1.4a.57.57 0 0 1-.1-.42 7.5 7.5 0 0 1 .87-.46l8 1a2.2 2.2 0 0 0 .95.1c4.9-.9 9.24 1.9 14 2l5.1 1.7q.92.5 0 1c-.9.6-1.8 1.3-3 .9a14.94 14.94 0 0 0-6.42 1 5.27 5.27 0 0 1-1.4.1 4 4 0 0 1-3.42-2 1.6 1.6 0 0 1 0-.5 1.3 1.3 0 0 1 .3-.4 6.53 6.53 0 0 0-3.58-.7c-2.04-.1-3.73-.5-4.6-2.4z" class="cls-191"/>
    <path d="M107.18 74.1v-1.06l9.82.2-1 1.08z" class="cls-192"/>
    <path d="M145.28 107.28c2.15.5 4.16-1.74 6.9-.27a5.73 5.73 0 0 1-6.87.3z" class="cls-193"/>
    <path d="M140.18 121.18c-2.53 2.18 2.32 3 .93 4.92-.7-1.34-3.1 1.1-3.3-1.46-.2-1.8.4-3.16 2.5-3.46z" class="cls-194"/>
    <path d="M120.18 112.18c-2.52 1.7-1.65 5.86-5 7-1.5-1.9-.5-3.72.2-5.57 2.5-6.4 1.63-7.7-5.42-8a13.13 13.13 0 0 1-2-.2c-1.35-.4-2.58-1-3-2.5a2.5 2.5 0 0 1 1.78-1.8c3.24 0 6.68-1.5 9.5 1.4a2.1 2.1 0 0 0 .73.7c6.53 1.2 4.4 5.4 3.2 9.2z" class="cls-195"/>
    <path d="M126.18 84.18c.23-.85-1.08-2.24.3-2.48a2.67 2.67 0 0 1 2.85 2.34c.4 2.42.22 4.94 1.65 7.12a12.65 12.65 0 0 1-8.84 9 4.2 4.2 0 0 1-.67-3.23 4.75 4.75 0 0 1 2-2.7c3.64-2.65 2.7-6.5 2.7-10.05z" class="cls-196"/>
    <path d="M121.95 97.08c1.56.9.67 2 .24 3.06-1.8 1.4-3.9 1.72-6 2.22l-9.9-.33c-3.5-.06-7 .13-8.2-4.3l1-1.7a4 4 0 0 1 3.3.4 20.26 20.26 0 0 0 15.5.8 5 5 0 0 1 3.9-.15z" class="cls-197"/>
    <path d="M108.18 104.25h4c5.08.3 7 3 5.46 7.9-.72 2.36-1.64 4.65-2.48 7-1.42 0-2.23 1-3 2-1.22.83-2.74.62-4.1 1.23-1.84.83-2.58-.45-2.66-2.18.93-2.68 3.77-3.47 5.45-5.46 3.36-4 3.35-5.13-.88-8-.9-.65-2.17-.95-1.8-2.5z" class="cls-198"/>
    <path d="M106.02 119.23c.64 5.1 4.26.8 6.15 1.94-1.47 1.6-4.2 1.54-5.08 3.9-1 .72-1.4 2.2-3 2.13a.94.94 0 0 1-1.1.27c-.8-.62-.4-1.63-.8-2.36a3.56 3.56 0 0 0-.1-.9c.3-2.3.1-4.5-1.9-6.2a2.3 2.3 0 0 1-.4-2 3 3 0 0 1 3.2-1.5c2.3.9 3 2.6 2.8 4.9z" class="cls-199"/>
    <path d="M102.97 126.95l1.2.23c-1.26 2.6-2.45 5.27-5 6.94-3 .3-3.8 3.5-6.12 4.6-1.83.9-3.64 4-5.9.53 3.7.1 2.72-2.88 3.2-4.9.42-1 1.37-1.12 2.28-1.24 3.23-1.4 6.25-3.2 8.3-6.3a2.58 2.58 0 0 1 2.04.2z" class="cls-147"/>
    <path d="M99.87 116.23l1 1.2c-.08 2.87-2.3 3.16-4.35 3.67-6.1-2.52-12.9-1.1-19.07-3.34-1.63-.6-3.6-.1-5.3.56a8.85 8.85 0 0 1-4.56.27l-.6-.5.1-1.9-.9-2c1.5-3.7 4.3-4.5 8-3.6 4.3.1 8.3 1.7 12.6 2.1 2.3-.6 4.3.5 6.4 1.2 2 1.3 4.7.6 6.5 2.2z" class="cls-200"/>
    <path d="M66.18 109.24c-3.88-.44-2.26-3-2.06-5.14s2.2-3.16 3.06-4.88c1.15-1.32 2.72-.92 4.16-1 7.06 0 7.3.2 7.2 6.72a5.87 5.87 0 0 1-2.3 4.2 3.2 3.2 0 0 1-1.32.74c-2.83-.94-5.74-.6-8.74-.64z" class="cls-201"/>
    <path d="M66.18 109.24c2.94-2.86 5.92-2.5 8.93-.12 1.2 1.4.4 2.25-.8 3-3.3-1.82-5.3 1.4-8 2.17-4.1-1.7-.4-3.4 0-5.1z" class="cls-202"/>
    <path d="M70.9 99.07l-3.72.1-3-1c.44-.88 1.34-.9 2.13-1.1a42.85 42.85 0 0 0 12.3-.8c.3 2-.8 2.43-2.5 2.44s-3.5-.3-5.1.4z" class="cls-203"/>
    <path d="M82.18 128.9c.2 1.55-3.32-.3-2.07 2.24-1.3 1.36-1.5 3.4-4.7 2.95-3.9-.6-4-3.5-5.5-5.6a7.44 7.44 0 0 1-.7-2.4 2.2 2.2 0 0 1 1.9-.7c1.2-.1 1.9 1.7 3.2.7.3-1.6-1.8-3.1 0-4.6a3.4 3.4 0 0 1 4 .5 58.5 58.5 0 0 1 3.9 6.6z" class="cls-204"/>
    <path d="M71.18 126.24l-2-.06a48.58 48.58 0 0 0-3.13-4.92c-1.36-1.68-.15-2.3.92-3.12l.34.1c2.2 2.26 6 3.75 3.9 8z" class="cls-205"/>
    <path d="M71.18 126.24c.15-3.34-4.55-4.4-3.78-8a6.48 6.48 0 0 1 3.9-1.07c6.32-.92 12.07 1.35 17.9 3.16a9 9 0 0 0 3.6 3.88h-6.6c-2.93 2.5-5.4 1-7.85-.8a6.5 6.5 0 0 0-4.05-1c-1.57 1.5-.33 2.2.8 2.9s2.22 1.5 1.08 3c-2.3 1-3.98.2-4.98-2z" class="cls-206"/>
    <path d="M89.18 120.3l-17.9-3.12c2.92-2.26 6.16-1.07 9.2-.57 5.58 1 11.1 2.3 16.65 3.5.77-.2 1.64-.5 1.95.6.24.8-.5 1-1.1 1.1a10 10 0 0 1-3.8-.2c-1.63-.7-3.2-1.4-5-1.1z" class="cls-207"/>
    <path d="M78.33 123.3l7.85.88 3.4 1.7c-1.34 3.86-4.73 2.5-7.37 3a4.82 4.82 0 0 1-3.8-5.58z" class="cls-208"/>
    <path d="M94.18 121.42a11.7 11.7 0 0 0 3.26-.3c1.7-.64.13-.8-.3-1.13l3.8-2.6c4.18 2.4 4.46 3.8 1.3 6.7-1.63-4.1-5.78-.8-8.06-2.8zm8.8 5.53l-1.6.37c-2.17 2.33-4.45 4.48-7.73 5.13l-.57-.37a12 12 0 0 1 9.2-7z" class="cls-209"/>
    <path d="M93.18 134.1l-2.82.28-3.22-1.33c1.7-2.2 4-.67 6-1l.27.23a1.2 1.2 0 0 1-.2 1.83z" class="cls-209"/>
    <path d="M121.95 97.08c-7.8 4.58-15.4 4.56-22.72-1-5.48-9.4-2.1-16 8.86-17 6.6-.6 13 0 17.2 6.13 3 3.8 1.5 6.8-1.3 9.8z" class="cls-210"/>
    <path d="M70.9 99.07c2.4-1.42 5.88.2 7.7-2.8.05-1.08 1.86-1.9.46-3.16L83 87.9c3-.9 3.13-1.2 2.8-6a25.4 25.4 0 0 0 4.63 1.17 27.7 27.7 0 0 0 5-.56c-.7 2.5-2.48 4.3-2.22 6.8l-.6.3c-3.2-.6-5.7.3-7.3 3.3-1.7 1.3-.5 3.4-1.3 4.9a2.7 2.7 0 0 1-.8 1c-1.7 1.7 1.6 3.1.3 4.7-.9 1.2-2.8 1.3-3.2 3a3.67 3.67 0 0 1-.8 1 1.57 1.57 0 0 1-2.1-1c.5-4.7-.4-8.2-6.3-7.2z" class="cls-211"/>
    <path d="M83.12 103.34c-.62-1-1.32-1.9-1.85-2.92s-2.8-.7-1.64-2.4c1-1.53 2.36-.23 3.54.17l.43.2c1.76 1 2 4.8 4.35 3.8s2.3-4 2.57-6.5.6-4.9 2.66-6.7c1.6 1.3 2.18 3.3 2.95 5.1-.67 2.4 1.23 4.5.78 6.8-.6 2-2.5 2.9-3.8 4.4a6.5 6.5 0 0 1-4.2 2c-2.9-.1-5.7-.2-5.7-4.2z" class="cls-212"/>
    <path d="M96.18 101.18c-.58-2.3-2.24-4.56-.08-6.88.74 1.1.74 2.65 2.05 3.42 2.36 2.1 5.36 3 8.14 4.3l-1 1a1.92 1.92 0 0 1-1.1.82c-2.2.25-3.9-1-5.7-1.67a4.3 4.3 0 0 1-2.4-1z" class="cls-213"/>
    <path d="M85.18 70.27l10.9 2.27-2.9 1.7a1.72 1.72 0 0 1-2.05.17l-1.88-.3c-1.4-.3-3 .8-4.26-.6a1.7 1.7 0 0 1 .2-2v-1z" class="cls-214"/>
    <path d="M124.02 94.88a11.7 11.7 0 0 0 1.32-9.72l.88-1c2.88 3.57 1.5 7-.3 10.46-.42.8-1.13 1.16-1.9.26z" class="cls-215"/>
    <path d="M85.04 72.94c1.4.33 3.07-.34 4.16 1.13-1.64 1.26-.22 3.5-1.94 5.26l-3.83-5c-.58-1.75.43-1.67 1.6-1.4z" class="cls-216"/>
    <path d="M91.1 74.4l2.04-.15 4 1.16c.9 2.7-.87 2.9-2.76 3-.7-1.7-2.9-2.1-3.3-4z" class="cls-217"/>
    <path d="M85.04 72.94c-.73.25-1.87 0-1.6 1.4-2.26-.3-3.9-1.7-5.52-3.1l7.23.08z" class="cls-218"/>
    <path d="M94.36 78.36c1.12-.8 2.3-1.53 2.76-3a.68.68 0 0 1 .13-.52c1.47-.34 2.62 0 3.15 1.54-1.57 1.1-3.07 2.3-4.72 3.23-1.5.9-1.5-.1-1.32-1.2z" class="cls-219"/>
    <path d="M100.4 76.43l-3.15-1.54c2.3-.7 4.64-2 6.9.1z" class="cls-220"/>
    <path d="M102.18 71.27a46.67 46.67 0 0 1-14-2.1c.67-1.23 1.82-2.5 3.06-1.67 3.34 2.3 7.58 1.68 10.94 3.77z" class="cls-139"/>
    <path d="M74.26 65.18c-3 1.74-5.93-.7-8.9-.25a10.25 10.25 0 0 1 8.9.25z" class="cls-221"/>
    <path d="M104.18 103.28l1.14-.24 2.9 1.2c9.1 4.55 9.25 8.75.63 14.8a3 3 0 0 1-2.8.2c-2.04-.65-1.63-2.93-2.76-4.2a1 1 0 0 1-.3-.8.53.53 0 0 1 .1-.44c1.1-1.88 4.3-1.65 4.8-3.82.5-2.45-2.7-3-3.6-4.84a2.16 2.16 0 0 1-.2-1.86z" class="cls-222"/>
    <path d="M103.3 114.05a9 9 0 0 0 0 1l-3.38 1.2c-2.4.76-4.72.85-6.75-1 .5-1.44 1.73-2.07 2.9-2.78 2.07-.9 4.13 0 6.2 0a1.5 1.5 0 0 1 1.03 1.58z" class="cls-209"/>
    <path d="M93.18 134.1l.2-1.8c2.9-1.3 4.78-4.23 8-5-.15 4.28-5.4 4.2-6.5 7.62z" class="cls-176"/>
    <path d="M74.25 112.07l.87-3c.53-.28 1.54 1.54 1.77-.52.1-1 1.3-.6 2-.34a3.13 3.13 0 0 0 2 .6c1.1-.3 1.7-1.6 2.8-2a2.34 2.34 0 0 1 1.3-.1c.6.3 1.2.5 1.9.7a13.42 13.42 0 0 1 2.3.9c1 .6 2.1 1.2 2 2.6s-1.2 1.8-2.5 1.8a1.68 1.68 0 0 0-1.6 1.6c-4.6 1.1-8.4-2.6-12.9-2z" class="cls-223"/>
    <path d="M87.13 114.18c.1-2.46.1-2.46 3.3-3.1-.73-2.07-3.1-1.52-4.3-2.77 2.54-1.8 5.3-1 8-.6a5.88 5.88 0 0 1 2 5.6c-.08 2-1.58 2-3 2-2.16.5-3.66-2.6-6-1.1z" class="cls-224"/>
    <path d="M78.96 109.1c-1.28-1.17-2.55 2.66-3.83 0-.1-1.55 1.37-1.88 2.1-2.76l1.73.7a1.22 1.22 0 0 1 0 2.06z" class="cls-225"/>
    <path d="M76.18 128.18c-.07-1.84-1.8-2.1-2.84-3-1.7-1.54-1.1-2.48 1-2.86-.47 2.23 4.75 2.73 1.84 5.86z" class="cls-205"/>
    <path d="M93.18 89.18c-1.18 4-.28 8.43-2.48 12.38-.73 1.32-.3 3.32-2.52 3.43s-3.3-1.4-4-3a23.83 23.83 0 0 1-1-3.8c1-1.9.22-4.1 1-6 3.38-5.9 4-6.2 9-3.1z" class="cls-180"/>
    <path d="M85.3 107.18h-1.12c-1 .66-1.82-.2-2.7-.45a4.14 4.14 0 0 1-2.3-.55c-2-5.5 2.1-2.6 3.9-2.83 1 3.12 3.78 2.57 6.1 3-.83 2.35-2.42 1.3-3.88.83z" class="cls-226"/>
    <path d="M79.18 106.18c1-.3 1.33-2.76 3-.9-.08 1.68.6 3.53-1.07 4.85-1.2.77-1.9.38-2.1-1v-2l.2-.95z" class="cls-227"/>
    <path d="M84.18 92.18c1.8 2.34.13 4.12-1 6 .46-2-2.22-4.46 1-6z" class="cls-212"/>
    <path d="M85.3 107.18c1.35-.08 2.8.34 3.9-.85l3.1-2c2.1-1.3 3.5-.58 4.42 1.5-.07 1.6-.7 2.6-2.5 2.34-2.68 1.35-5.4-.28-8.08.06z" class="cls-228"/>
    <path d="M96.28 106.18c-1.08-1.15-2.2-2.23-4-1.82.8-1.7 2.47-2.3 3.9-3.2l2.13-.86c1.3 2.07 1.3 4-.5 5.8a1.3 1.3 0 0 1-1.4.08z" class="cls-229"/>
    <path d="M97.12 106.18l1.2-5.83 5.82 3a9.5 9.5 0 0 0 1.3 1.46c2.16 1.7 5.9 2.7 4.87 6-.8 2.6-4.3 2.8-7 3.4l-1-1.1c-6-.9-6.6-1.7-5.1-6.8z" class="cls-230"/>
    <path d="M97.12 106.18c-.6 4 2.45 5.3 5.2 6.8-2 1.7-4.15.06-6.22.3-1.93-1.2-2.16-3-1.88-5l2.06-2q.42-.1.84-.1z" class="cls-231"/>
    <path d="M81.1 110.12c.4-1.6-.57-3.5 1.08-4.84l2 1.9c-1 1-.53 3.55-3.07 2.94z" class="cls-225"/>
</svg>