<svg xmlns="http://www.w3.org/2000/svg" id="Layer_1" data-name="Layer 1" viewBox="0 0 184.39 184.24"><defs><style>.cls-1{fill:#eceef1;}.cls-2{fill:#2c7bb9;}.cls-3{fill:#347cb7;}.cls-4{fill:#1f191d;}.cls-5{fill:#8eb4d3;}.cls-6{fill:#f4f3f2;}.cls-7{fill:#9dbfd9;}.cls-8{fill:#dae0e6;}.cls-9{fill:#8a909f;}.cls-10{fill:#6999c2;}.cls-11{fill:#e9b947;}.cls-12{fill:#bad0e2;}.cls-13{fill:#8a97ad;}.cls-14{fill:#e1e8ef;}.cls-15{fill:#a8c8e0;}.cls-16{fill:#8db5d6;}.cls-17{fill:#99a2b6;}.cls-18{fill:#fbd361;}.cls-19{fill:#b0c3c4;}.cls-20{fill:#7da8ce;}.cls-21{fill:#8bb2d4;}.cls-22{fill:#d0ac6b;}.cls-23{fill:#f0c248;}.cls-24{fill:#969aac;}.cls-25{fill:#597d9f;}.cls-26{fill:#9e9198;}.cls-27{fill:#c08565;}.cls-28{fill:#747b8d;}.cls-29{fill:#d9e0e8;}.cls-30{fill:#f8d98b;}.cls-31{fill:#d89948;}.cls-32{fill:#c5ccd5;}.cls-33{fill:#b2b6c1;}.cls-34{fill:#b8d3e5;}.cls-35{fill:#969eaf;}.cls-36{fill:#505a6d;}.cls-37{fill:#b1bbc4;}.cls-38{fill:#d08c74;}.cls-39{fill:#565f71;}.cls-40{fill:#386996;}.cls-41{fill:#c5d2de;}.cls-42{fill:#c29889;}.cls-43{fill:#6e809a;}.cls-44{fill:#cca69d;}.cls-45{fill:#7e899b;}.cls-46{fill:#d4c287;}.cls-47{fill:#9e9867;}.cls-48{fill:#a3a2b1;}.cls-49{fill:#c75e5f;}.cls-50{fill:#81848d;}.cls-51{fill:#bcc3cf;}.cls-52{fill:#959dad;}.cls-53{fill:#85929e;}.cls-54{fill:#9ca6b2;}.cls-55{fill:#586071;}.cls-56{fill:#dcdee4;}.cls-57{fill:#b1b1c1;}.cls-58{fill:#1d223c;}.cls-59{fill:#a68b8d;}.cls-60{fill:#af7965;}.cls-61{fill:#8f8f9b;}.cls-62{fill:#9a96a3;}.cls-63{fill:#42292b;}.cls-64{fill:#b8b3bf;}.cls-65{fill:#233155;}.cls-66{fill:#858da1;}.cls-67{fill:#a3acbd;}.cls-68{fill:#5f697c;}.cls-69{fill:#e0dbdc;}.cls-70{fill:#4185c0;}.cls-71{fill:#586082;}.cls-72{fill:#dfe4ea;}.cls-73{fill:#5487bc;}.cls-74{fill:#dfdce0;}.cls-75{fill:#d6987f;}.cls-76{fill:#7a2434;}.cls-77{fill:#6c3f37;}.cls-78{fill:#9f634f;}.cls-79{fill:#be8768;}.cls-80{fill:#bd836d;}.cls-81{fill:#d2ada2;}.cls-82{fill:#b6bac5;}.cls-83{fill:#3f231d;}.cls-84{fill:#58413f;}.cls-85{fill:#b0b39c;}.cls-86{fill:#9fb2af;}.cls-87{fill:#6e7c59;}.cls-88{fill:#4c4a27;}.cls-89{fill:#f6e5bf;}.cls-90{fill:#f1e7d0;}.cls-91{fill:#768552;}.cls-92{fill:#779dbf;}.cls-93{fill:#a1b59d;}.cls-94{fill:#586174;}.cls-95{fill:#585e6c;}.cls-96{fill:#808694;}.cls-97{fill:#676c76;}.cls-98{fill:#626b79;}.cls-99{fill:#808a9b;}.cls-100{fill:#cf9b7f;}.cls-101{fill:#a3a2b2;}.cls-102{fill:#a8b6cb;}.cls-103{fill:#9fa4b5;}.cls-104{fill:#c7ae9c;}.cls-105{fill:#596476;}.cls-106{fill:#a8aec1;}.cls-107{fill:#697085;}.cls-108{fill:#6a707b;}.cls-109{fill:#5f6578;}.cls-110{fill:#716a68;}.cls-111{fill:#616979;}.cls-112{fill:#e6d352;}.cls-113{fill:#7ba8ce;}.cls-114{fill:#715a0e;}.cls-115{fill:#798774;}.cls-116{fill:#f1df30;}.cls-117{fill:#f0b210;}.cls-118{fill:#cfa765;}.cls-119{fill:#ddb561;}.cls-120{fill:#f5de5d;}.cls-121{fill:#90690a;}.cls-122{fill:#794d07;}.cls-123{fill:#c4d9e8;}.cls-124{fill:#acc7dc;}.cls-125{fill:#aeb3c4;}.cls-126{fill:#717a8d;}.cls-127{fill:#535a6f;}.cls-128{fill:#c0c9d9;}.cls-129{fill:#b7c5d9;}.cls-130{fill:#839ea6;}.cls-131{fill:#53684b;}.cls-132{fill:#898ea2;}.cls-133{fill:#7f8a9d;}.cls-134{fill:#b1b9ca;}.cls-135{fill:#767d8e;}.cls-136{fill:#f4b862;}.cls-137{fill:#e7a983;}.cls-138{fill:#e1d5a6;}.cls-139{fill:#e9d687;}.cls-140{fill:#ddce5f;}.cls-141{fill:#6f5d1a;}.cls-142{fill:#acc6d7;}.cls-143{fill:#f5e436;}.cls-144{fill:#d58621;}.cls-145{fill:#f5d25e;}.cls-146{fill:#f0c965;}.cls-147{fill:#7f5a0b;}.cls-148{fill:#bb9f9b;}.cls-149{fill:#aa8078;}.cls-150{fill:#756671;}.cls-151{fill:#aeb2c4;}.cls-152{fill:#dde4ea;}.cls-153{fill:#5b8cbd;}.cls-154{fill:#5e6471;}.cls-155{fill:#8f94a5;}.cls-156{fill:#a27557;}.cls-157{fill:#654a36;}.cls-158{fill:#b89e9f;}.cls-159{fill:#4f5a6b;}.cls-160{fill:#8b9bb3;}.cls-161{fill:#49546d;}.cls-162{fill:#485163;}.cls-163{fill:#d9e0ea;}.cls-164{fill:#f1e133;}.cls-165{fill:#872221;}.cls-166{fill:#825530;}.cls-167{fill:#9b2027;}.cls-168{fill:#7e4e0c;}.cls-169{fill:#d9d2bf;}.cls-170{fill:#707785;}.cls-171{fill:#6b7082;}.cls-172{fill:#7f8899;}.cls-173{fill:#75839c;}.cls-174{fill:#bbcedf;}.cls-175{fill:#d58f83;}.cls-176{fill:#abc6d8;}.cls-177{fill:#e0ba7e;}.cls-178{fill:#af9d99;}.cls-179{fill:#9eadbf;}.cls-180{fill:#838a9d;}.cls-181{fill:#86879e;}.cls-182{fill:#9a9faf;}.cls-183{fill:#7d172a;}.cls-184{fill:#9c9fb3;}.cls-185{fill:#792231;}.cls-186{fill:#b05c64;}.cls-187{fill:#15294f;}.cls-188{fill:#7d3f2c;}.cls-189{fill:#221b28;}.cls-190{fill:#925944;}.cls-191{fill:#aa6e5b;}.cls-192{fill:#51342c;}.cls-193{fill:#bf9589;}.cls-194{fill:#bb815f;}.cls-195{fill:#42252b;}.cls-196{fill:#502329;}.cls-197{fill:#998384;}.cls-198{fill:#b1b0b6;}.cls-199{fill:#636e82;}.cls-200{fill:#7e5157;}.cls-201{fill:#a17d8a;}.cls-202{fill:#d5c2c3;}.cls-203{fill:#8c98af;}.cls-204{fill:#d0c5c7;}.cls-205{fill:#c1cad3;}.cls-206{fill:#d88079;}.cls-207{fill:#53697f;}.cls-208{fill:#9fa7b0;}.cls-209{fill:#b9c0c7;}.cls-210{fill:#adb2bc;}.cls-211{fill:#93929d;}.cls-212{fill:#a3122f;}.cls-213{fill:#89172a;}.cls-214{fill:#7f3d31;}.cls-215{fill:#c68966;}.cls-216{fill:#855135;}.cls-217{fill:#391e1e;}.cls-218{fill:#9c5e43;}.cls-219{fill:#b36e5e;}.cls-220{fill:#7d3d28;}.cls-221{fill:#b87277;}.cls-222{fill:#7b1f27;}.cls-223{fill:#ba6f62;}.cls-224{fill:#533736;}.cls-225{fill:#861d26;}.cls-226{fill:#803a31;}.cls-227{fill:#e3a47f;}.cls-228{fill:#754232;}.cls-229{fill:#8b8558;}.cls-230{fill:#93b0be;}.cls-231{fill:#e0c541;}.cls-232{fill:#6d6841;}.cls-233{fill:#dbd059;}.cls-234{fill:#997a23;}.cls-235{fill:#e2d258;}.cls-236{fill:#d5c96f;}.cls-237{fill:#978328;}.cls-238{fill:#897027;}.cls-239{fill:#efdd4a;}.cls-240{fill:#465568;}.cls-241{fill:#50596d;}.cls-242{fill:#ced7e6;}.cls-243{fill:#737f9a;}.cls-244{fill:#505b6f;}.cls-245{fill:#96aec3;}.cls-246{fill:#8c9aa5;}.cls-247{fill:#b99c44;}.cls-248{fill:#d4b345;}.cls-249{fill:#827155;}.cls-250{fill:#decc4e;}.cls-251{fill:#77420a;}.cls-252{fill:#fbea50;}.cls-253{fill:#9b3735;}.cls-254{fill:#4c1a24;}.cls-255{fill:#c2d0df;}.cls-256{fill:#8c9eb9;}.cls-257{fill:#ab898e;}.cls-258{fill:#a64e48;}.cls-259{fill:#b19ca4;}.cls-260{fill:#ad9ba9;}.cls-261{fill:#513650;}.cls-262{fill:#df8757;}.cls-263{fill:#736114;}.cls-264{fill:#f3e23c;}.cls-265{fill:#978d4b;}.cls-266{fill:#f6f11c;}.cls-267{fill:#884a1d;}.cls-268{fill:#e8bfa0;}.cls-269{fill:#9a4f0f;}.cls-270{fill:#f8de5a;}.cls-271{fill:#bc644f;}.cls-272{fill:#5c460d;}.cls-273{fill:#624d1b;}.cls-274{fill:#a76a4c;}.cls-275{fill:#825f5f;}.cls-276{fill:#9b93a0;}.cls-277{fill:#9a9daf;}.cls-278{fill:#d8ccd2;}.cls-279{fill:#d7d0d4;}.cls-280{fill:#b19296;}.cls-281{fill:#65718c;}.cls-282{fill:#474c59;}.cls-283{fill:#4b5564;}.cls-284{fill:#445167;}.cls-285{fill:#bbc3cb;}.cls-286{fill:#b0b7bf;}.cls-287{fill:#b0bac5;}.cls-288{fill:#9ea7b0;}.cls-289{fill:#9d787b;}.cls-290{fill:#6e3a2e;}.cls-291{fill:#8d612e;}.cls-292{fill:#885a1d;}.cls-293{fill:#603f0b;}.cls-294{fill:#aa8c11;}.cls-295{fill:#8c715c;}.cls-296{fill:#fae46c;}.cls-297{fill:#e8c279;}.cls-298{fill:#f4e136;}.cls-299{fill:#f4e15a;}.cls-300{fill:#d8b944;}.cls-301{fill:#8b7f8e;}.cls-302{fill:#a1b8cf;}.cls-303{fill:#ddddde;}.cls-304{fill:#8ca9be;}.cls-305{fill:#cc696d;}.cls-306{fill:#491d2b;}.cls-307{fill:#f0d2a1;}.cls-308{fill:#564468;}.cls-309{fill:#726791;}.cls-310{fill:#5f5951;}.cls-311{fill:#433035;}.cls-312{fill:#cca57c;}.cls-313{fill:#b1b9bd;}.cls-314{fill:#4c1924;}.cls-315{fill:#a39fb6;}.cls-316{fill:#84606d;}.cls-317{fill:#93122f;}.cls-318{fill:#361d25;}.cls-319{fill:#732839;}.cls-320{fill:#1c2239;}.cls-321{fill:#727387;}.cls-322{fill:#585d77;}.cls-323{fill:#98513c;}.cls-324{fill:#342e3c;}.cls-325{fill:#4b4a5a;}.cls-326{fill:#774d46;}.cls-327{fill:#8b132c;}.cls-328{fill:#8c5551;}.cls-329{fill:#652f38;}.cls-330{fill:#601623;}.cls-331{fill:#8b564f;}.cls-332{fill:#d1a6a9;}.cls-333{fill:#6d7c9a;}.cls-334{fill:#424d64;}.cls-335{fill:#445c79;}.cls-336{fill:#8f4833;}.cls-337{fill:#6f5357;}.cls-338{fill:#84112a;}.cls-339{fill:#a01335;}.cls-340{fill:#a97776;}.cls-341{fill:#9e909f;}.cls-342{fill:#ad635d;}.cls-343{fill:#867a89;}.cls-344{fill:#e2a799;}.cls-345{fill:#77172c;}.cls-346{fill:#9e102f;}.cls-347{fill:#7d4028;}.cls-348{fill:#c57276;}.cls-349{fill:#f4e937;}.cls-350{fill:#efdc41;}.cls-351{fill:#5f5115;}.cls-352{fill:#f9eb2c;}.cls-353{fill:#f3e52f;}.cls-354{fill:#e6c039;}.cls-355{fill:#8c894f;}.cls-356{fill:#534b1c;}.cls-357{fill:#98b9da;}.cls-358{fill:#9f9ea5;}.cls-359{fill:#25254a;}.cls-360{fill:#7b99bc;}.cls-361{fill:#6f6830;}.cls-362{fill:#86a2ab;}.cls-363{fill:#481f2b;}.cls-364{fill:#3b3670;}.cls-365{fill:#afc8dc;}.cls-366{fill:#94a1bb;}.cls-367{fill:#7a333b;}.cls-368{fill:#ceebf9;}.cls-369{fill:#dbeff6;}.cls-370{fill:#be96a6;}.cls-371{fill:#97646a;}.cls-372{fill:#e38e7c;}.cls-373{fill:#ad595d;}.cls-374{fill:#ac293a;}.cls-375{fill:#b55c5f;}.cls-376{fill:#d36151;}.cls-377{fill:#f2dc63;}.cls-378{fill:#d6ba32;}.cls-379{fill:#745e01;}.cls-380{fill:#b97a30;}.cls-381{fill:#cf996b;}.cls-382{fill:#402f64;}.cls-383{fill:#512e2b;}.cls-384{fill:#edd296;}.cls-385{fill:#c1c2b6;}.cls-386{fill:#ba7652;}.cls-387{fill:#bfbfcb;}.cls-388{fill:#9d8190;}.cls-389{fill:#c4a7ab;}.cls-390{fill:#452729;}.cls-391{fill:#8b5a4f;}.cls-392{fill:#6a4a69;}.cls-393{fill:#7b698a;}.cls-394{fill:#3a1520;}.cls-395{fill:#8d6469;}.cls-396{fill:#f8e646;}.cls-397{fill:#966b0e;}.cls-398{fill:#8a7a7f;}.cls-399{fill:#7c500d;}.cls-400{fill:#dfc33c;}.cls-401{fill:#40335d;}.cls-402{fill:#a49ca3;}.cls-403{fill:#634b60;}.cls-404{fill:#483745;}.cls-405{fill:#dddaea;}.cls-406{fill:#d7d6ed;}.cls-407{fill:#7d5e7e;}.cls-408{fill:#9596b9;}.cls-409{fill:#897380;}.cls-410{fill:#37355c;}.cls-411{fill:#5f566a;}.cls-412{fill:#1d1f2d;}.cls-413{fill:#623b34;}.cls-414{fill:#5f3e53;}.cls-415{fill:#814332;}.cls-416{fill:#826060;}.cls-417{fill:#3e253c;}.cls-418{fill:#574c5d;}.cls-419{fill:#92182b;}.cls-420{fill:#a58c93;}.cls-421{fill:#641c2b;}.cls-422{fill:#9f1732;}.cls-423{fill:#9c5b52;}.cls-424{fill:#844534;}.cls-425{fill:#9d082d;}.cls-426{fill:#82131d;}.cls-427{fill:#51111c;}.cls-428{fill:#6b181d;}.cls-429{fill:#691c25;}.cls-430{fill:#ca8b82;}.cls-431{fill:#835547;}.cls-432{fill:#97614e;}.cls-433{fill:#c07267;}.cls-434{fill:#a4414a;}.cls-435{fill:#cd867a;}.cls-436{fill:#a86b53;}.cls-437{fill:#7c2f1c;}.cls-438{fill:#883c39;}.cls-439{fill:#7a132f;}.cls-440{fill:#8d1936;}.cls-441{fill:#874425;}.cls-442{fill:#d9a07a;}.cls-443{fill:#cc7b83;}.cls-444{fill:#9a9eb3;}.cls-445{fill:#b66966;}.cls-446{fill:#291e37;}.cls-447{fill:#6f6189;}.cls-448{fill:#a8b0c3;}.cls-449{fill:#343451;}.cls-450{fill:#2d2e42;}.cls-451{fill:#6a6488;}.cls-452{fill:#504774;}.cls-453{fill:#6d5974;}.cls-454{fill:#83646f;}.cls-455{fill:#7f6e8f;}.cls-456{fill:#71628c;}.cls-457{fill:#3a1b25;}.cls-458{fill:#40325f;}.cls-459{fill:#433469;}.cls-460{fill:#a36c41;}.cls-461{fill:#3d3268;}.cls-462{fill:#9b8e9a;}.cls-463{fill:#736c90;}.cls-464{fill:#291c38;}.cls-465{fill:#41446a;}.cls-466{fill:#5c7ea1;}.cls-467{fill:#a0565b;}.cls-468{fill:#412f60;}.cls-469{fill:#6c5a74;}</style></defs><path d="M.2 132.1v-56c2.57-3.54 6.28-.5 9.27-1.6a20.7 20.7 0 0 0 4.06-.36 10.5 10.5 0 0 1 1.38-.25 28 28 0 0 1 3.6-.2c5.5 1 11 .6 16.4 1.7a5.7 5.7 0 0 0 5-1.6 2.62 2.62 0 0 1 2.8.2c2 1.9 4 3.6 6.9 1.3 3.6-.3 7.3 2.1 10.8-.2 2-.5 4-.2 5.9 0 4.5.3 8.8 2.8 13.4.3 1.4-.7 3.3.1 4.3 1.8.8 4.4-1.8 6.7-5.3 8.4-1.6.8-3.5.9-5.1 1.9l-1.7 1.2c-2 1.7-4.5 2.7-6.8 4-.3.2-.7.5-1.1.7-1.2 1.1-2.5 2.1-3.7 3.2-3.9 3.7-4.3 6.2-1.8 10.9.8 1.4 1.8 2.7 1.7 4.5a3.3 3.3 0 0 1-1 1.8c-5.5 4.4-11.7 3-17.5 1.1-3.2-1-5.8-1.5-8 1.4-1.4 1.9-3.5 1.6-5.4 2.1 1.2 3.3-1.8 4-3.5 5.6-.5.5-1.4.8-1 1.9 2 4.6-1.7 4.3-4 3.8-4.3-.9-8.2.1-12.2 1.1-2.2.1-4.2 2.5-6.72.9z" class="cls-1"/><path d="M117.2.1c21 0 42 .1 63-.1 3.43 0 4.6.67 4.06 4.12a38.2 38.2 0 0 0-.06 6 5.45 5.45 0 0 1-6.77.7c-3-2.2-5-.63-7.28.84a10.62 10.62 0 0 1-5.63 1.83c-6.77-.4-13.24 1.3-19.56 3.2-7.37 2.2-14.8 1.4-22.22 1.4a5.7 5.7 0 0 1-4.67-2.5 3.26 3.26 0 0 1-.5-2.3c1.45-2.9 1.83-5.8.17-8.8-.8-1.4-1.42-3-.54-4.6z" class="cls-2"/><path d="M22.2.1h59c.58 2.63-1.5 3.82-2.86 5.42-2.62 1.54-5.67 1.53-8.5 2.33-1.74.5-3.6.77-4.76 2.33-2.1 2.85-5.06 3.4-8.3 3.38-10.13-.36-20-1.73-29.33-6.13-1.63-.93-3.3-1.8-4.86-2.84-.6-1.5-1.1-3-.4-4.5z" class="cls-3"/><path d="M77.9 5.1c.24-2.22 2.3-3.23 3.3-5h33c1.76 1.5 3.42 3 2.86 5.7 0 1.12-2.05 1.4-1.5 2.1 4.3 5.3-1.45 9.58-1.4 14.45 0 1.74-1.5 3.22-3 4.38-1.9 2.35-3.63 5-7.35 3.86a2.26 2.26 0 0 1-1.4-2.2 4.35 4.35 0 0 1 1-2.5 11.45 11.45 0 0 1 1.4-1.5 16.2 16.2 0 0 1 1.5-1.3c2.7-1.8 2.8-3.4-.3-4.8a4.22 4.22 0 0 1-.7-1.2C104.9 11.5 103 7 97 5.4c-3.76-.67-7.8-2.47-9.77 2.83-1.2 2.84-3.1 5.37-3.4 8.62a2.87 2.87 0 0 1-2.56 2.63 2.9 2.9 0 0 1-2-1.05 11.87 11.87 0 0 1-2.34-5.2c-.24-2.8-.7-5.67 1-8.2z" class="cls-4"/><path d="M171.2 184.1h-23c-2.84-5.55-6.72-5.08-11.57-2.5-3.2 1.7-7.16.9-10.74 1.48-1.3.2-2.7-.13-3.7 1h-9c-.5-2.62 1.9-3.15 3.2-4.43 2.6-2.48 7.4-3.14 6.8-8.43-.2-1.38 1.7-2 3.1-1.38a6.4 6.4 0 0 0 5.3.36 13.77 13.77 0 0 0 2.4-1.23c2.8-2.9 5.9-1.5 9-.4 2.1-.06 3.8-1.64 6-1.38a3.83 3.83 0 0 1 1.3.4c1.3 1.1 1 2.2.2 3.4-1.2 2-.6 4.1.3 6.1.5 1.1 1.5 2 2.6.6 3.8-4.9 8.8-2.5 13.5-2.4a2.33 2.33 0 0 1 .7 1.1c0 1.6-.1 3.2 1.7 4.3 1 .6 2.3 1.4 1.7 3.1z" class="cls-5"/><path d="M.2 176.1v-27c3.2-.12 4.1 2.3 5.13 4.6.32.9 0 2.22.93 2.72 5.07 2.75 7.9 8 12.58 11.16 4.1 1.85 6.7 5.7 10.7 7.72a3 3 0 0 1 1.73 4.1 9.08 9.08 0 0 1-4.8 2 21.58 21.58 0 0 0-6.22 1.35c-4.2 1.26-6.9-.7-7.1-4.84-.23-4.3-3-5.9-7.26-4-1.9.8-3.2 3-5.7 2.3z" class="cls-6"/><path d="M167.2 176.1c-3.25-.5-6.4 1.5-9.76.2-1.6-.63-1.9 1.1-2.4 2.4-1.28 3.46-3.86 2.9-5 .42-1.26-2.9-3.42-6.53.46-9.52a3.46 3.46 0 0 0-.32-1.37c1.58-2 3.87-1.34 5.9-1.57 3.86-.08 2.32-3 2.67-5a8.06 8.06 0 0 1 .84-4.38c2.4-2.08 5.3-.7 8-1a16.42 16.42 0 0 1 2.8.8 5.8 5.8 0 0 0 3.3.3c1-.1 2.6 0 2.6.72 0 5.4 5.5 3.53 7.6 6v3c-3.5 2.1-6.6-.6-9.9-1-2.8-.35-5-1.6-3.5 3.1 1 2.9.7 6.3-3.7 6.9z" class="cls-7"/><path d="M7.2.1h9c.88.64 1.74 1.3 1.75 2.52s1.32 2.38.45 3.75c-1.26 1-2 2.5-3.1 3.52-2.7 2.4.3 2.1 1.2 3 1 .9 2.26 1.7 1.8 3.4-1.42 1.3-3.5.5-5 1.5 0 .4-2.2.1-.37 1.1s3.48 1.5 4.53 3.2a1.7 1.7 0 0 1-1 1.7c-1.9.6-4 0-5.85 1C6.4 27.1 3 25.9.3 22.1c0-6.67.08-13.33-.05-20C.25.4.58-.28 2.3.12 3.9 2 5.56 2.67 7.2.1z" class="cls-8"/><path d="M10.3 75.33c-3.23 2-6.85-1-10.1.78v-15c2.34-1.5 4.7-3 6.25-5.4.84-1.3 2.08-2.7 4.08-2.2a2.18 2.18 0 0 1 1.05.8c.6.4-.65 1.6.45 1.4.53-.1 1-1.1 1.7-1.5 2.9-1.2 5.64-1.7 7.85 1.4 1.3 1.8 2.9 1.3 4.47.5a2.92 2.92 0 0 1-2.1-1c-1.4-1.9-4.23-3.2-2.84-6.3a3 3 0 0 1 1.8-2c.9-.2 2-.2 2.3.6 1.5 3.9 5 5.1 8.2 6.8a1.66 1.66 0 0 1-.3 1.8c-1.2 1-.8 2.3-.4 3.5-.9 1.5-1 3.5-3.1 4-3 1.2-5.5-.5-8.3-1.1-1.5.5-4.2-2.6-4.5 1.6-.9 2.4-3.9-.2-4.8 2.1 0 2.1-2.4 2.6-2.8 4.4a2.84 2.84 0 0 0 1 2.9c.6.8 1.1 1.5.5 2.4z" class="cls-9"/><path d="M184.2 139.1v22c-3.36.34-4.68-2.47-6.66-4.3a6.78 6.78 0 0 0-4.42-4.27 3.47 3.47 0 0 1-.8-1.13c-.77-2.4.2-4.66.43-7 .13-2.5-.6-4.4-3.35-4.9-2.3-.9-6.87.08-4.13-5a18.34 18.34 0 0 1 4.77-3.54c7-2.48 8.68-1.78 12 4.83a10.34 10.34 0 0 0 2.16 3.3z" class="cls-10"/><path d="M4.27 154a10.66 10.66 0 0 0-4.07-4.9v-10a2.8 2.8 0 0 1 3.54.78c3.44 3.93 8.07 5.88 12.63 8 .42 5.9 8.22 13.68 13.86 13.8 1.3-.2 2.52-.8 3.84-1a3.4 3.4 0 0 1 2.35 1.24 2.3 2.3 0 0 1 .12 1.32c-1.05 1.62-.33 3.45-.58 5.17s-.23 3.6-2.24 4.5c-1.53.5-3.22.4-4.14-.8-2.6-3.4-6.6-4.7-9.9-7-1.83-1.9-3.56-4-5.33-5.9a10.63 10.63 0 0 0-8.3-3.8 3.53 3.53 0 0 1-1.78-1.2z" class="cls-11"/><path d="M184.2 106.1v26c-5.5-.3-9.33-3.24-10.27-7.88 1.9-1.8 3.7.48 6.1 0-2.3-3.2-10-3.48-5.12-10.43-5.1.8-6.9-2.4-8.2-6-.2-2.2 1-3.5 2.7-4.5a8.23 8.23 0 0 1 3.3-.6 16.16 16.16 0 0 1 11.7 3.4z" class="cls-12"/><path d="M.2 22.1c4 2.4 7.9 3.92 12.3.7.74-.55 2.5.3 3.8.5a2.18 2.18 0 0 1-.9 2.3 1.58 1.58 0 0 0-.9 1.25c.83.56 1.65 1.1 2.5 1.6 4.5 2.7 4.6 3.16 1 7.45-1.56 1.06-3.16.5-4.76.14a7.86 7.86 0 0 0-4.66-.32c-1.05.22.15.86.14 1.35a2.4 2.4 0 0 1-.12 1.87c-1.55 1.38-3.25-.08-4.84.28-1.34.33-1.7 2.5-3.53 1.9v-19z" class="cls-13"/><path d="M.2 176.1c3.94-3.44 8-6.27 13.57-3.32 1.58.83 2.66 1.17 1.3 3.1-1.15 1.57-1.5 3.5 0 5a3.9 3.9 0 0 0 5.4.38c1.75-1.4 3.73-1 5.68-1.1 0 2.07-1.92 2.73-3 4-6.33 0-12.68-.24-19 .1-3.45.2-4.7-.65-4-4.1a22.12 22.12 0 0 0 .05-4.05z" class="cls-14"/><path d="M167.2 176.1c2.83-2.52 4.65-5.18 1.15-8.56-.83-.8-1.1-1.7 0-2.42s2.15-2.23 4.3-1.17a35.77 35.77 0 0 0 11.55 3.16v3c-.66 1.7-1.38 3.3-3.66 2.8-1.32-.2-2.54-.2-3.34 1.1a8 8 0 0 0-1.22 2.1c-2.17 5.5-4.38 5.7-8.77 1v-1z" class="cls-15"/><path d="M178.2 156.1l6 5v3a12.6 12.6 0 0 1-5.85-.8c-.6-.28-1.8-.57-1.77-.67 1.24-6.35-4.7-2.43-6.4-4.5-.1-1.6-.93-1.62-2.1-1-2.6 1.3-5.2.22-7.82-.06-1.78-1.47-1.35-3.52-1.44-5.44a6.44 6.44 0 0 1 .7-3.1 1.7 1.7 0 0 1 1.16-.82c4 2 8.06 3.8 12.5 4.4 1.97 1 4.02 1.9 5.02 4z" class="cls-16"/><path d="M11.2 53.87c-2.58-.27-4.24 2.16-4.6 3.44C5.5 61.1 3 61.1.2 61.1v-13a7.7 7.7 0 0 1 3.53-2.4c1-.12 2 .13 3 0 1.2-.33 2.3-1.16 3.63-1 2.66 1 4.94 2.38 5.4 5.54a2.13 2.13 0 0 1-.66 1.16c-1 .45-2.17.3-3 1.08-.3.43-.52.97-.9 1.4z" class="cls-17"/><path d="M16.14 148.1c-4.85 0-8.54-2.52-11.67-5.77A14.18 14.18 0 0 0 .2 139.1v-1c3.2-1.93 6.85-2.17 10.4-2.8a6.66 6.66 0 0 1 3.26 2.14c1.5 1.78 2.74 3.76 4.1 5.64s1.64 3.65-.4 5.25a1.2 1.2 0 0 1-1.42-.22z" class="cls-18"/><path d="M132.2 171.56a5.16 5.16 0 0 1-4.35.38c-3-1.2-5.45-2.53-2.66 2.45.5 1-1 1-1.6 1.5-3.5 2.7-7 5.4-10.5 8.2h-7c-1.4-3.3 2.3-2.9 3.2-4.6 1.5-1.4 1.9-3.7 4-4.6a27.64 27.64 0 0 0 7.3-5.5 10.7 10.7 0 0 1 2.7-2.2 4.37 4.37 0 0 1 4.1 1c1 1.6 3.9.8 4.5 3.1z" class="cls-19"/><path d="M167.2 177.1l6.47 2.44c1.16-2.38-.62-6.1 3.54-6.45 5.3 2 6.9 6.3 4 11h-10c-.6-1.6-2-2.2-3.3-2.7-3-1.1-1.8-2.7-.6-4.4z" class="cls-7"/><path d="M122.2 184.1c.48-2.77 2.76-1.7 4.38-2.06 5.14-1.1 10.48-1.2 15.3-3.87 2-1.1 5.34-3 4.8 2.38-.13 1.12 1 2.37 1.52 3.56h-26z" class="cls-20"/><path d="M174.2 124.1c1.7 4.7 6.48 5.57 10 8v7a4 4 0 0 1-3.55-2.33c-3.74-6.67-3.72-6.68-10.57-4.74-1.1-.84-1.58-1.85-.9-3.17 2.5-1.74-.47-2.17-.9-3-2.06-3.74-1.16-5.9 3.06-6.63a4.08 4.08 0 0 1 2.86 4.88z" class="cls-21"/><path d="M64.2 184.1h-20a8 8 0 0 1-1-4.6 4.76 4.76 0 0 1 1.8-3.1c2.62-2.06 5.16-.78 7.7.2a8.44 8.44 0 0 1 4.2 1c.23 2.33 2.04 3 3.86 3.8 1.36.6 3.62.2 3.44 2.7z" class="cls-22"/><path d="M100.2 184.1h-11c-.07-2.27 1.5-1.5 2.52-1.6-.44-.4-1.26-.62-1.9-1.1-1.73-1.26-4.2-2.48-3.58-4.86s3.33-1.54 5.17-2a4.6 4.6 0 0 1 1.4 0 3 3 0 0 0 2.4.3c2.7 2.13 7.6 2 7.6 7-.4 1.22-1.8 1.35-2.5 2.27z" class="cls-23"/><path d="M184.2 69.1v2c-2 1.72-4.83 3.3-.82 5.86-.64 1.9.46 4.42-2 5.67-1.94.12-3.45-1-5.1-1.74a17.24 17.24 0 0 1-4.16-4.3 2.54 2.54 0 0 1-.33-1.2c-1.4-2.5 0-4 2-5.1 2.8-2 6-2.1 9.2-2a3 3 0 0 1 1.1.7z" class="cls-24"/><path d="M170.2 10.1c1.2-.84 2.4-1.67 3.56-2.56.62-.48 1.7-1.43 1.94-.55 1.45 5.1 5.58 2.4 8.5 3.1v2a12.35 12.35 0 0 1-6.7 3.6c-2.85-.9-5.4-.6-7.48 1.8a11.6 11.6 0 0 1-1.57 1.4 3.87 3.87 0 0 1-3.42.8 1.6 1.6 0 0 1-1.1-1.7c1.73-3 4.27-5.2 6.27-8z" class="cls-25"/><path d="M176.2 80.1c2.1-.4 3.42 1.1 5 2 0 2.2 2.42.7 3 2v8c-2.07 1.9-4.4.65-6.62.54a3.87 3.87 0 0 1-1.2-.7 6 6 0 0 1-2-2.83c.55-3-1.18-6.4 1.82-9z" class="cls-26"/><path d="M184.2 96.1v4c-3.4.82-7.12.46-10.18 2.64a3.9 3.9 0 0 1-2.33-.12c-3.1-1.63-3.2-4.3-2.5-7.2 1.9-3.2 5-2.62 8-2.35a12.26 12.26 0 0 1 7 3.04z" class="cls-27"/><path d="M184.2 48.1v2c-2.66 2.1-6.63-.2-9 2.7a4.1 4.1 0 0 1-1.78.85c-1.74-.18-3.4.62-5.12.52a2.9 2.9 0 0 1-1.44-2.2c.1-1.26 1-2 1.8-2.83 3.26-2.48 5.58-6.52 10.43-6.42a11.3 11.3 0 0 1 5.1 5.4z" class="cls-28"/><path d="M177.32 15.1c2-1.7 4.42-2.37 6.88-3v13c-3.52 1.8-4.78-1.82-7.1-2.94-2.28-2.4-1.73-4.74.22-7.05z" class="cls-29"/><path d="M11.2 136.1c-3.56 1.2-7.06 2.73-11 2v-6c2.42-.4 4.32-2.6 7-2.1a1.08 1.08 0 0 1 1.3 0c1.6 1.7 3.5 3.3 2.7 6.1z" class="cls-30"/><path d="M92.2 175.4c-1.52 1.35-3.58.13-5.24 1.12.57 3.12 4.3 3.3 5.65 5.87l-3.4 1.7h-3c-.6-1.3-1-2.7-2.6-3.2a5.77 5.77 0 0 1-2.8-3.7 2.5 2.5 0 0 1 .3-1.3c1-1 2.4-1.3 3.5-2.1 1.3-.9 2.5-2.1 4-2.6a4.52 4.52 0 0 1 3.5.3c1.6 1.2.6 2.5.3 3.8z" class="cls-31"/><path d="M23.2 184.1a5.13 5.13 0 0 1 3-4l5-1c1.07-1 2.25-.6 3.43-.25 1.93.88 3.73 2 5.72 2.78.75.68 1.38 1.4.88 2.53H23.2z" class="cls-32"/><path d="M178.05 21.23c2.4.73 3.1 4.15 6.15 3.88v5c-1 1.4-2.6 1.6-4 2.1-2.08.6-4.1 1-5.58-1.2-1.48-4.1 3.02-6.2 3.43-9.7z" class="cls-33"/><path d="M181.2 184.1c1.54-4.7-.87-8-4-11-.93-3 1.4-2.13 2.38-1.63 2.14 1.07 3.35 0 4.6-1.34 0 3.83-.34 7.7.12 11.5.4 3.14-1.45 2.48-3.1 2.48z" class="cls-34"/><path d="M184.2 69.1h-.76c-.8-.52-1.82-.2-2.6-.73-3.22-1.86-4.9-5.2-7.43-7.72a1.33 1.33 0 0 1 .2-2.12 7 7 0 0 1 7.1.6c.3 2.07 2.1 2.3 3.6 3v7z" class="cls-35"/><path d="M174.2 52.26c2.5-4.54 6.57-1.83 10-2.15v5c-1.1.7-2.24.3-3.36.1-1.73-.6-3.6-.6-5.3-1.3a3 3 0 0 1-1.34-1.5z" class="cls-36"/><path d="M172.2 102.06l1.82-.12c3.4-1 6.83-2.44 10.18.18v4c-4.2.47-7.7-3.2-12-2a1.5 1.5 0 0 1-.55-1 1.6 1.6 0 0 1 .55-1.06z" class="cls-37"/><path d="M64.2 184.1l-9.4-3.65c-.3-1.76 2-1.13 2.4-2.36a1.74 1.74 0 0 1 1.38-.2c3.8 2.7 8.8 2.3 12.66 4.9a1.07 1.07 0 0 1 0 1.3h-7z" class="cls-38"/><path d="M181.1 54.1l3.1 1v3c-.9.87-1.05 2.85-3.06 2l-8-1.25a2.27 2.27 0 0 1-.67-1.17 2.16 2.16 0 0 1 .7-1.86 2.78 2.78 0 0 1 1.33-.16c2.6 1.2 4.58-.24 6.6-1.55z" class="cls-39"/><path d="M116.63 6.02L114.2.12h3c1 3.2 3.58 5.9 3 9.64-.22 1.47.07 3.06-2 3.37-2.18-2.02-.62-4.83-1.57-7.1z" class="cls-40"/><path d="M184.2 34.1v5c-1.64 1.32-3.9.46-5.6 1.6-2.17-.2-2.9-1.62-3-3.57 1-2.75 3.7-2.23 5.67-3.1a3.54 3.54 0 0 1 2.93.08z" class="cls-41"/><path d="M184.2 96.1c-2.75.83-4.53-1.68-6.94-2-.77-.63-2.2-1.2-.2-2.1 2.4-1.36 4.74.66 7.14.13v4z" class="cls-42"/><path d="M4.27 46.05C3.12 47.15 2.1 48.5.2 48.1v-7l3.08-4c2.3 2.1-.53 5.24 1.5 7.4.25.6 1.42 1.6-.5 1.55z" class="cls-43"/><path d="M184.2 102.1l-10.18-.16a8.45 8.45 0 0 1 10.18-1.83v2z" class="cls-44"/><path d="M183.2 77.23c-2.84.37-4.23-1.74-3.8-3.67.3-1.35 2.76-2.44 4.8-2.44v5c-.37.33-.45.94-1 1.1z" class="cls-45"/><path d="M100.2 184.1a1.94 1.94 0 0 1 2-2.05c1.15-1.45 2.16-3.07 4.3-3.16 1.4-.1 2.74 0 3.7 1.2.1 2.7-4.07 1.2-4 4h-6z" class="cls-46"/><path d="M41.2 184.1l-1.06-1.93c-1.38-1.2-3.74-1.23-4.22-3.5a1.3 1.3 0 0 1 .8-1.08c2.73-.2 5.07 1 7.4 2.1.04 1.4 1 2.9.07 4.3h-3z" class="cls-47"/><path d="M183.2 77.23l1-1.12v8l-5.06.9c-.4-1.9 1.74-1.7 2.07-2.8 1.9-1.1-.3-3.9 2-4.8z" class="cls-48"/><path d="M71.2 184.1l.05-1.05c2-2 4.5-1.15 6.82-1.36 2.1-.1 4.4.5 6.1-1.5 3 0 3.22 1.5 2 3.8H71.2z" class="cls-49"/><path d="M16.98 2.95L16.2.1h6c-.27 1.3 3.1 2.46.14 3.85l-.45.5a6.77 6.77 0 0 1-5-1.5z" class="cls-50"/><path d="M7.2.1c-.62 1.22 2.35 3.48-.68 3.7-1.88.1-4.75-.3-4.32-3.7h5z" class="cls-51"/><path d="M184.2 48.1c-2.55-.7-2.85-3.64-4.9-4.84.46-1.12 1.53-1.58 2.42-2.24.84-.43 1.68-.72 2.48.1v7z" class="cls-52"/><path d="M184.2 41.1a2.18 2.18 0 0 0-2 1c-1.8.4-2.7-.48-3.1-2.13 1.1-3.8 3.42-.5 5.1-.87v2z" class="cls-53"/><path d="M184.2 34.1l-2 1c-1.17-.9-2.3-1.86-2.05-3.6 1-1.37 2.72-.85 4-1.4v4z" class="cls-54"/><path d="M181.14 60.1l3.06-2v4c-1.46.75-2.8.2-4.1-.4z" class="cls-55"/><path d="M8.2 130.3l-1-.3c5.07-3.05 10.77-.8 16.33-1.3-.74-2.43-2.65-.9-3.53-2.12.43-1.87 2.14-2.48 3.54-3.56s5.37-1.44 2.83-5.1c-.4-.55-.13-1.05 1-.73 3.5 1 5.05-2 7.1-3.9 1.76-1.6 3.35-1.2 5.4-.3 6 2.6 12.23 3.8 18.34 0 2.3.6 3 1.7 1 3.6-2.5 1.1-5.3 1.6-7.5 3.5-1.9 1.6-4.3 1.3-6.6.8-1.4-.3-2.7-1.4-4.2-.3-3 1.1-6.5 1.5-7.9 5.2.6 2.1 2.4 1.5 3.8 1.7a10.48 10.48 0 0 1 3.6.5 2.14 2.14 0 0 1 1.4 1.7 4.58 4.58 0 0 1-3.8 3.5c-8.1-2.7-16.5-1.9-24.9-2a6.5 6.5 0 0 1-4.7-1.2z" class="cls-56"/><path d="M83.26 77.1c-2.2-.7-4.06-.78-6.23.85-3.33 2.5-6.32-1.88-10-1.2-1.93.34-4.5-.33-6.8-.6-4.6.56-6.22-2.72-7.78-6.08 2.57-4.2 2.6-4.2 6.48-.5 2.2.47 1.37-1.3 1.53-2.2s-.07-2 0-3c.34-3.18 1.7-3.78 4.14-1.57.75.46-.5 2.84 1.78 1.84 3.55.26 6.65-.06 7-4.68a1.47 1.47 0 0 1 2-1c1.84 2.07 2.34 4.86 3.83 7.12a9.92 9.92 0 0 0 2 2.53 28.64 28.64 0 0 1 3.5 7.4c-.1.8-.4 1.4-1.3 1.1z" class="cls-57"/><path d="M63.3 92.28a1.4 1.4 0 0 1 .9-.17c3.08-.6 4.68 1.7 6.5 3.5.15-2.5-1-5.1.38-7.5a.9.9 0 0 1 1.06-.9 5.77 5.77 0 0 1 2.83.7c3 2 6.77 0 9.86 1.7 2.2 2.9 0 4.8-2 5.3-2.93.8-3.58 2.4-3.68 4.9a10.45 10.45 0 0 1-.76 1.9 15.64 15.64 0 0 1-1.8 3 3 3 0 0 1-3.8.6 15.22 15.22 0 0 1-3.1-2.5c-.9-1-1.6-2.1-2.6-3-1.5-2.5-5.4-3.4-4-7.3z" class="cls-58"/><path d="M42.2 75.1a2 2 0 0 0-1.92-.85h-.64c-2.6-.9-1.26-2.72-1-4.3a17.1 17.1 0 0 1 1-2.48c2-2.92 1.27-6.23 1.27-9.43.3-3 2.1-4.22 4.9-4.3 2.4-.32 4.8.26 7.2-.34a2.56 2.56 0 0 1 2.6 1.16c-.5 3.6-2 7-2.4 10.66a3 3 0 0 1-.8 1.1c-3.4-.35-.4-3.6-2.1-4.24.3 2.94.7 6.37-3.7 7.77-1.5.48-1.4 2-1.5 3.34-.2 1.4-.3 3.2-2.7 1.9z" class="cls-59"/><path d="M63.3 92.28c.22 3.3 4.1 4 4.93 6.87-.5 2.42-3 2.22-4.47 3.24-4.06 2.7-4.35 3.3-2 8 .6 1.1 1.42 2.2.64 3.6-2 .8-2.38-1-3.23-2l-2.3-3.8c-3.16-5.4-2.57-8.8 2.27-12.8l4.16-3.3z" class="cls-60"/><path d="M40.3 74.24c-.42 3.1-2.9 2.9-5 2.72-5.72-.48-11.42-1.2-17.13-1.84-1-2.38 1.56-3.94 1.37-6.13 1.2-2 3.08-1.5 4.87-1.3 2.6 1.9 5 4.7 8.7 2.1a2.1 2.1 0 0 1 1.8.8 7.25 7.25 0 0 0 5.3 3.4z" class="cls-61"/><path d="M42.2 75.1a5.86 5.86 0 0 0 1.52-1c-1-3.66-.55-5.92 4.1-6.4 1.4-.13 1.92-3.18 1.24-5.35-.46-1.46-1.16-3.06.17-4.68 3.47 2 .58 6.15 2.94 8.4.54 3.56-2.47 6.43-2 10-3.08 3.4-5.65 2.34-7.97-.96z" class="cls-62"/><path d="M74.2 88.1a2.1 2.1 0 0 1-2-1.1c1.1-1.5 2.87-1.36 4.4-1.9 3.72-1.34 7-3.3 6.7-8l1.1-.9c.38-1.17 1.08-1.66 2.28-1.16 2.3 1.87.7 4.25.87 6.4A11 11 0 0 1 74.2 88.1z" class="cls-63"/><path d="M50.2 76.1c-2.5-4 .4-6.84 2-10q0-.46.06-.93c2.42-1.18 2.63.1 2.13 2-.3 1-1.9 1.53-1.2 3 2.2 2.1 3.5 5.33 7 6a8 8 0 0 1-10-.06z" class="cls-64"/><path d="M71.1 87.95c1.2 3.48-.18 7.46 2.24 10.82-3.5-1.78-5.42-5.45-9.12-6.7 1.8-2.2 4.92-2.2 6.9-4.12z" class="cls-65"/><path d="M10.3 75.33L9.2 73c-.34-1.26 0-2.75 1.2-2.77 2.3 0 .8-1.55 1.2-2.3.4-1.08.5-2.3 1.5-3.07 1.63.47 4.4-1.84 4.64 1.94-.52 1.42-1.85 2.4-2.13 3.94-.1 1.8-1.5 3-2.1 4.6-1 1.03-2.1 0-3.1 0z" class="cls-66"/><path d="M14.2 69.88c.8-1.14 1-2.92 3-2.75a3.34 3.34 0 0 1 2.7 2c2.6 2.9-1.72 3.8-1.7 6l-4 .06c1-1.8 1.47-3.6 0-5.4z" class="cls-67"/><path d="M14.2 69.88a11.22 11.22 0 0 1 .94 1.1c.8 1.2 2.78-2.35 3 .68.16 1.9-1.5 2.15-2.9 2.58a3.42 3.42 0 0 0-1 .93 2.2 2.2 0 0 1-.84.15c-1.4-2.05 1.8-3.44.8-5.44z" class="cls-68"/><path d="M59.2 112.1l3 1.92a1.54 1.54 0 0 1 1.14 1.82c-1.3 1.53-2.7 1.56-4.16.25 1.07-1.5-.38-2.1-1-3z" class="cls-69"/><path d="M170.2 10.1c-.76 3.6-2.47 6.47-6 8-5.08 3.96-11.06 5.15-17.27 5.5-6.8.38-13.62-.36-20.44.05-4 .24-7-1.8-8.9-5.34a2.85 2.85 0 0 1 .6-3.2c6.3 2.5 13 2.3 19.5 1.5 9.1-1.1 17.7-5.3 27.3-4.6 1.6.2 3.4-1.2 5.1-1.8z" class="cls-70"/><path d="M118.27 15.1v3c.18 3.2.3 6.32 4.58 6.9 1.07.14 1.05 1.48.6 2.5a3.55 3.55 0 0 1-3.28 1.4c-3.22-.66-6.56-.8-9.6-2.23l-.5-.6c2.4-2.52 4.73-5.07 2.92-9a2.44 2.44 0 0 1 0-.9c2.4.35 3.3-1.1 3-3.18a24.53 24.53 0 0 0-1.7-5.2c-1.2-3 1.9-.8 2.2-1.8 3.5 1.7.5 4.8 1.6 7.1v2z" class="cls-71"/><path d="M27 6.1c4.62 1.2 9.1 4.12 13.4 4.4 5.57.38 11 2.2 16.63 1.66a12 12 0 0 0 7.13-.2c4.42-1.3 9.06-1.4 13.1 1.72.85 2.93-.76 4.4-3.17 5.4a7.64 7.64 0 0 1-1.5.26c-1.8.1-3.6-.1-4.8 1.55-2.5 1.7-.2 6.4-4.4 7.1-2.3.8-4 .2-5-2a2.22 2.22 0 0 0-2.4-.9c.4 1.2 1.8 1.2 2.4 2 1.7 3.1.6 6-.9 9a4.6 4.6 0 0 1-2.9 1.2c-3.1.5-5.8-1.7-8.8-1.3a3.28 3.28 0 0 1-2.5-1.5 9.87 9.87 0 0 1-1-4.3 2.07 2.07 0 0 0 .1-1c-2.8-4.3.1-4.6 3.2-4.7 1-.1 1.9.5 3 .2-.9-.7-1.9-.2-2.8-.4-1.9.4-3.5-.5-5-1.4a1.74 1.74 0 0 0-2.3 0c-1.2 1.2.4 1.4.8 2.1.8 1 1.2 2.2 2 3.2-.1 2.7-1.8 2.4-3.4 1.6a40.57 40.57 0 0 0-5.8-2.8c-2.2-.8-6.3.3-4-4.6.3-.8-1.8-2.1-2.7-3.2a4.76 4.76 0 0 1-1.4-3.1c-.3-2.2-.5-4.4-.5-6.6A5.1 5.1 0 0 1 27 6.1z" class="cls-72"/><path d="M77.2 14.1c-4.58-1.14-9.25-2.36-13.86-.62-2.6 1-4.3-.5-6.3-1.27 3.2 0 6.1-.2 7.58-4 .75-2 3.56-1.1 5.4-1.7 2.5-.8 5.24-1 7.88-1.4 1.15 3 .06 6 .25 8.9-.26.5-.58.6-.95.1z" class="cls-73"/><path d="M27 6.1L24.3 10c-2 1.52-3.44.7-4.37-1.23-1.16-2.4.46-3.66 2.3-4.72l.1-.14c1.93.1 3.64.5 4.68 2.2z" class="cls-50"/><path d="M63.2 27.1c.7-.8 3-.4 2-2.58s.43-3.34 1.94-4.44a9.83 9.83 0 0 0 5-2h1.13c2.2 1.7 4.44.9 6.68 0l1.38 1c3.36.7 3.32 3 2.7 5.64-1.36 2.8-3.95 3.83-6.66 4.7a13.7 13.7 0 0 1-10.9 3.45c-2.43-1.08-2.84-3.4-3.27-5.76z" class="cls-74"/><path d="M83.2 25.23c0-2.2.32-4.5-1.87-6 2-3.52 1.68-8.1 4.9-11.08 2.4-.2 1.37 2.3 2.48 3.1-.4 4.48 3.5 2.25 5.2 3.35a3.7 3.7 0 0 1 1.6 2.52c.3 2.12.2 4.18-1.2 6a24 24 0 0 1-3.8 3.27c-1.8.3-1.7-2.3-3-2a4.08 4.08 0 0 1 1.8 2.4c.6 1.1.5 2.4 1.7 3.1.4.2.8.4 1.2.7.9.8 2 1.4 1.2 2.9a5.15 5.15 0 0 1-4.9 1.5 4 4 0 0 1-1.9-1.2c-1.2-2.9-4.5-4.9-3.2-8.7z" class="cls-75"/><path d="M104.2 30.1c2.83-.04 4.56-1.7 5.87-4l.48.1a15 15 0 0 1 5.2 5 3.7 3.7 0 0 1 .12 2.1c-1 2.14-1.23 4.7-3.52 6.06-1.46.17-2.1-.86-2.73-1.9-.74-2.9-2.2-2.4-3.88-.78-1 .57-2.1 1.18-3-.22a3.6 3.6 0 0 1-.18-1.35c.5-1.6.64-3.5 1.64-5z" class="cls-76"/><path d="M88.2 34.33l4.83-1.43c2-2.9 4.5-5.4 6.5-8.3a4.25 4.25 0 0 1 4.78 1.6l-1.1 1.9a15.5 15.5 0 0 1-4.5 6.1c-3 1.43-4.4 5.58-8.6 4.67a3.48 3.48 0 0 1-1.8-4.54z" class="cls-77"/><path d="M97.2 4.1c6.48 2.3 9.1 6.13 8.88 12.94a1 1 0 0 1-1.48-.73c-.77-3.5-.86 1.5-1.42.2-2.68-.1-5.43.4-8-.9-1-2.2 1.84-2.2 2.17-3.8.37-1.7.93-3.5-.43-5a3.14 3.14 0 0 1-.37-1.3 2 2 0 0 1 .65-1.2z" class="cls-78"/><path d="M97.2 4.1l-.17 1.13a15.3 15.3 0 0 0-5.63 5.5 4 4 0 0 1-1 .76c-1 .3-2.06-.4-2.94.4-2.3-.7.76-3-1.2-3.8 1.42-7.4 6.62-4.6 10.94-4z" class="cls-79"/><path d="M104.27 26.22l-4.94-1a1.38 1.38 0 0 1-1.47.17c-2.14-1.6-2.48-3.9-2.6-6.3.3-2.4 1.66-3 3.7-2 1.3.6 2.52 1.4 3.75 2.1 1.5 1.6 1.5 4 2.6 5.8z" class="cls-80"/><path d="M105.2 25.1c-2.65-.88-3.57-2.48-2.06-5.06-1-1.3-1.26-2.6-.13-4l1.5-3.65c1.2 1.6.1 3.6 1.6 4.5l.3 1c1.7 2 1.8 4.1 0 6.1z" class="cls-81"/><path d="M79.94 18.2c-1.26.6.35 3-1.1 2.68-1.95-.4-4.83.37-5.58-2.72 2.58-.12 3-2.35 3.93-4l.9-.12z" class="cls-82"/><path d="M98.2 33.1l5-5a2.1 2.1 0 0 0 1 2c1 2 0 3.57-1 5.16-2.24.66-3.7-.55-5-2.15z" class="cls-83"/><path d="M106.37 24.18v-6.14c1.47.5 4.28-.64 4.26 1a5.38 5.38 0 0 1-4.26 5.14z" class="cls-84"/><path d="M157.3 168.1l-7.07.15-1.24-.2c-.6-1.7 0-3.45-.2-5.16.5-3.1-1.6-5.9-1-9 1.7-2.4.1-5.8 2.4-8a1.42 1.42 0 0 1 1.4.4c1.8 3.4.6 7 1 10.6.2 2.4-.7 4.9.8 7.1a4.66 4.66 0 0 0 1.3.6 4.9 4.9 0 0 1 2.7 1.2 1.9 1.9 0 0 1-.2 2.1z" class="cls-85"/><path d="M143.52 169.96c-3.1-.13-6.24-3.05-9.3.12a3.46 3.46 0 0 1-1.25-2.78 3.77 3.77 0 0 1 1.38-3.34 7.18 7.18 0 0 0 5.82-1.38c2.56.2 2.86 2.4 3.7 4.14a5.38 5.38 0 0 1 .63 1.12 1.84 1.84 0 0 1-.98 2.12z" class="cls-86"/><path d="M134.03 167.1l.2 3-2 1.5c-1.63-.9-4.67 1-5-2.5l.43-.47c1.27-.75 2.84-.3 4.1-1.08a2.4 2.4 0 0 1 2.27-.44z" class="cls-87"/><path d="M143.52 169.96l1-1.8c.84-1.88 3.17-2.43 3.9-4.4.5-.5 1-1 1.74-.5.2 1.72.33 3.43-1.14 4.76z" class="cls-88"/><path d="M4.27 154l1.88.12c4.85 2.73 8.43 7 12.75 10.4.82 1.13 2.1 2.1 1.3 3.8a1.52 1.52 0 0 1-2-.23c-5.65-2.2-7.67-8.9-13.48-10.9-.45-.2-.3-2.1-.45-3.2z" class="cls-89"/><path d="M18.2 168.1l2.18-.08c1.5-1 2.9-.34 4.05.52 3 2.22 6.23 4.1 8.7 7 .42 1.5 2.52 2.63 1 4.54l-2.93-.97c-3.17-3.6-7.26-6.2-11.2-8.9-.87-.6-1.66-1-1.8-2.1z" class="cls-90"/><path d="M157.3 168.1l-.1-1.78c.64-1.33-.13-2.88.68-4.2a2 2 0 0 1 1.2-.53 1.17 1.17 0 0 1 1 .7c-.37 2.2 2.12 5.7-2.8 5.7z" class="cls-91"/><path d="M168.1 157.1c-.18-.9-.66-2 1-2 1.2 0 2.35.3 2.64 1.62.25 1.12-.8 1.17-1.57 1.38a2.4 2.4 0 0 1-2.08-1z" class="cls-92"/><path d="M160.05 162.35a7 7 0 0 0-.85-.24c-2.32-4.8-2-8.3.9-11q.1 3 .18 6.1-.08 2.6-.23 5.2z" class="cls-93"/><path d="M26.42 18.9c2.67-.1 1.9 4.43 5.1 3.9l-3 2.2c1.1 1.6 2.7.25 3.76 1.1a1.17 1.17 0 0 1 .05.9c-.3.9-2.7 1.34-.36 2.83 1 .63 0 1.73-1 2.1a5.3 5.3 0 0 1-4.26-.12c-3-3.4-3.4.7-4.8 1.7a10.42 10.42 0 0 1-1 1.6c-1.3.5 0 1.5-.3 2.2a2.37 2.37 0 0 1-1.4 1.2 1.53 1.53 0 0 1-1.1-.3c-.8-.8 0-2-.6-2.9 1.3-1.8 5.4-4-.9-5a16.46 16.46 0 0 1-5.1-2.9c1-1.4 3-.5 3.9-2l1.2-1.9.9-1a2.2 2.2 0 0 1-.5-1.2c.6-1.5-.9-3.8 1.9-4.4 2.5 1.3 5 2.5 7.9 2.3z" class="cls-94"/><path d="M22.2 4.1c-1.73 2.84-3.64 5.72 2.08 5.95.54.66 1.1 5 .76 6-2.07 3-3.75 2.1-4.93-.65-.7-1.8-1-3.84-1.9-5.64a4.9 4.9 0 0 1-.1-3.9c.9-1.42-2.2-1.4-1-2.92 2-.84 3.4 1.1 5.2 1.16z" class="cls-95"/><path d="M19.2 9.1c1.15 1.6 2.14 3.14 2.07 5.33-.1 3.38 1.8 2.8 3.82 1.6l1.3 2.84c-3.4 2.3-5.9.53-8.3-1.9q-.9-.5-.1-1.1c-.6-.87-2-1.32-1.7-2.87.2-3.9.2-4 2.9-3.9z" class="cls-96"/><path d="M19.2 9.1c-2.68 0-.9 3.4-2.9 3.9-1.67 1-3.46.8-4.24-.74-.36-.7 1-2.12 2.07-3.16 1.24-1.2 1.27-3.65 4-3.3z" class="cls-97"/><path d="M17.2 21v1.2a27.52 27.52 0 0 1-7.78-4l3.66-1.27Q17.4 16.6 17.2 21z" class="cls-98"/><path d="M17.2 21a6.82 6.82 0 0 0-4.18-4c1.22-2.67 3.52-.08 5.08-1l.07 1.1c-1.24 1 1.03 3-.97 3.9z" class="cls-99"/><path d="M42.2 59.1c.2 3.22 1.1 6.58-2 9.07-2.85 1.48-6.3-1.34-9 1.23a2.24 2.24 0 0 1-1.83-.86c-1.06-2.1-4.76-4.13-.28-6.48 1.9.07 1.6-2.32 3-2.75a2.76 2.76 0 0 1 2.1-2.5 1.76 1.76 0 0 1 1.2.5c1.1 4.3 3.7 3.7 6.6 1.9z" class="cls-100"/><path d="M29.1 62.06c-3.36 2.7 1.46 4 1.05 6.16-1.94.43-3.88-.1-5.82 0l-4.4.94a3.1 3.1 0 0 1-2.72-2c-.2-3.13-3-.67-4.1-1.86a2.14 2.14 0 0 1-2.8-.13c-1.4-1.55-.2-1.67 1-2 1.7-.44 3.3 1.5 5 .08 1-2 3.3-.93 4.6-2.06 2.9-.7 5.3 2.6 8.3.8z" class="cls-101"/><path d="M11.2 53.87l-1-1.55c1.65-2.08 4.25.58 6-1.2 4.15-2.72 5.27 2.18 7.95 3.16 1.1 1.43 3.33.25 4.37 1.85-4.06 2.17-3.94 2-8.9-1.34-1.43-1-3.76-.7-5.57.3-.9-.5-2.15 0-2.8-1.1v-.2z" class="cls-102"/><path d="M33.28 54.1c-4.3-.06-7.6-1.5-8.68-6.14-.18-.78-.92-.77-1.56-.8a1.8 1.8 0 0 1-.2-2A3.56 3.56 0 0 1 24.68 44a3.25 3.25 0 0 1 2.77.22c.45 3.74 3.77 4.4 6.33 5.9.68 1.38 2.2 2.93-.5 4z" class="cls-103"/><path d="M33.28 54.1c1.6-1.3-.34-2.6 0-3.9-.1-1.13.26-2.22.2-3.35.2-3.72 1.73-5.22 5.35-3.12-.95 4.54.13 9.63-3.62 13.42l-1.2.1c-2.1-.68-2.1-.76-1.3-2.08z" class="cls-104"/><path d="M24.1 54.3c-2.7-.42-4.4-4.62-7.87-2.1-1 .28-1.28-.18-1-1.1 1.22-1.47 1.57-3.7 3.76-4.33 1.5.12 2.2 1.37 3.1 2.38-2 2.76 3.1 2.7 2 5.14z" class="cls-105"/><path d="M12.13 68.02c2.4 3.7-2.44 3.06-3 5-2.56.15-.94-2.3-1.93-3.1 1.3-1.63 2.6-3.1 4.93-1.9z" class="cls-106"/><path d="M20.83 61.2c-.7 2.54-3 1.52-4.57 2.05-.9-.6-2.26-1.08-.65-2.4.9-.66 1.3-2 2.8-1a18.8 18.8 0 0 0 2.5 1.34z" class="cls-107"/><path d="M22.06 49.1a3.2 3.2 0 0 1-2.85-1.86c0-3 1-3.64 3.7-2.15l.2 2z" class="cls-108"/><path d="M12.13 68.02c-2-.23-3.2 1.44-4.9 1.88-.7-2.67 4-1.9 3-4.75l2.77.13z" class="cls-109"/><path d="M32.63 55.1a2.3 2.3 0 0 0 1.3 2.08L32.2 59.3a2.1 2.1 0 0 1-2-2.37c.12-1.58 1.16-1.82 2.43-1.82z" class="cls-110"/><path d="M11.2 54.1c1 .22 2.24-.24 2.8 1.1-.93 1.7-3 1.9-4.34 3.15-1.12-2.1 2.03-2.54 1.54-4.24z" class="cls-111"/><path d="M169.75 129.06l.33 3-3.8 2.9c-.86.9-2 0-3 .46-2.23.9-4.2 2.68-6.9 2.15s-4.62-2.58-6.85-4c-1.54-1.35-3.23-2.6-2.7-5.06 1.76-2.2 4.14-1.7 6.47-1.4 3.44 4 7.16 3 11 .6 2.1-.7 4.1-.8 5.45 1.4z" class="cls-112"/><path d="M173.2 152.1c-5 1.78-8.8-.2-12-4 1.08-1.93 5.3-.4 4.67-4.24a4.68 4.68 0 0 1 3.36-1.4c1.74.2 3.55.23 4.9 1.6z" class="cls-113"/><path d="M163.3 134.28l3 .65c-2.42 5.3 2.78 1.86 3.75 3.27a.82.82 0 0 1 .35.78.5.5 0 0 1-.2.44c-3.54 3-8.4.88-12.13 3.1a1.7 1.7 0 0 1-1.24-.62 3.25 3.25 0 0 1 2.42-4.27c2-.57 2.86-2.05 4.04-3.35z" class="cls-114"/><path d="M170.1 139a4.2 4.2 0 0 0 0-.8c3.25.64 4.33 2.8 4.08 5.9-1.63-.32-3.53.77-4.88-.96a12.75 12.75 0 0 1 .8-4.13z" class="cls-115"/><path d="M178.2 156.1c-1.63-1.36-3.9-2-5-4 3.06-.4 4.72.94 5 4z" class="cls-113"/><path d="M44.12 179.77c-3 1.1-5.28-1.06-7.85-1.88a2.5 2.5 0 0 1-1-1.9 4.6 4.6 0 0 1 .4-2.2c1.82-2.7 1.3-5.6.83-8.6a2.8 2.8 0 0 1-.5-1.9l.16-1.3c-1.54-2.6-.83-4.4 2.05-5.2 4.5-1.3 7.6.1 9 3.7-1.5 3.6-4.4 6.9-3.2 11.3.5 1.7 2.8 3 1.3 5.2z" class="cls-116"/><path d="M16.14 148.1l1.15-.18a1.5 1.5 0 0 1 1.3 0c2.5 1.57 3.8 5.2 7.7 4.78 2.5.17 5.1-.44 7.6.76a2.56 2.56 0 0 1 1 1.25c.5 3.3-1.1 5.6-3.5 7.6-1.5.8-3.7 3.2-4.6 1.1-1.9-4.3-6.2-5.6-9.3-8-3.6-2.7-3.4-4.3-1.5-7.2z" class="cls-117"/><path d="M36.1 176l.17 1.9-.13.37a4.27 4.27 0 0 1-3.9-2.22c-3.72-3-7.4-6.1-11.84-8l-2.2-2.94c0-1.7.82-1.6 2-1 3.74 2 8 3.1 10.4 7.3.67 1.2 2.4.7 3.68.8 1.44.9.5 3 1.82 4z" class="cls-118"/><path d="M20.2 164.1a2.15 2.15 0 0 0-2 1c-4.47-3.16-8.72-6.56-12.06-11 7.68-.86 10.1 5.62 14.06 10z" class="cls-119"/><path d="M46.15 161.8c.6-4.4-2.52-3.57-5.1-3.73-3-.18-5.38.17-4.9 4.07a2.35 2.35 0 0 1-2.12-1.24c-1-2.45.32-4.08 2-5.56 2.68-.7 5.46 0 8.2-.75 4.7-1.4 5-1 4.9 4.4-.74 1.2-.4 3.5-2.98 2.8z" class="cls-120"/><path d="M36.1 176c-2.62-.38-1.38-2.55-1.84-3.94-.65-2.35 2.17-4.8-.37-7.26-.5-.5 1.2-1 2-1.36l1 .7c1.4 3.44.2 6.7-.7 10z" class="cls-121"/><path d="M36.14 155.8a11.54 11.54 0 0 0-2.1 5.1c-1 .13-.56 3.15-2.6 1.38l3-7.08c.88-.83 1.47-.65 1.7.6z" class="cls-122"/><path d="M174.2 124.1c-1.4-1-1-3.45-3-4-2.3-1.14-4-.32-4.27 2-.4 3.27-2.6 4.18-5.13 5-1.87.4-3.7 1.27-5.66.32-3.7-8.94 4.08-16.23 11-19.32 1 .1 2.33.25 2.33 1.4 0 2.9.45 4.24 3.66 2.43 1.45-.8 2.9.34 3.63 1.74s-.14 2-1.42 2.52c-2.9 1.1-1.3 2.5.1 3.4 1.65 1.1 3.53 1.8 5.24 2.8 1 .5 2.27 1.3 1.9 2.6-.5 1.7-2.3 1.1-3.4.9a30.78 30.78 0 0 1-4.98-1.9z" class="cls-123"/><path d="M167.2 108.1c-4.34 2.38-6 7.5-10.17 10a2.5 2.5 0 0 0-.65 2.2c2.52 2.37-.3 4.48-.18 6.7-1 .63-1.75.08-2.55-.38a6.62 6.62 0 0 0-5.5-2.07c-4.47-2.05-1.68-5.07-1-7.82 5.76-1.9 8-7.85 12.7-11 2.86-1.92 5.7-4.36 9.4-1.63-.66 1.4-2.16 2.3-2.05 4z" class="cls-124"/><path d="M169.2 104.1c-6.74.07-11.54 3.27-14.06 9.62a3.22 3.22 0 0 1-3.32 2.33c-1.84 0-3.68 0-4.64 2-2.44 1.85-4.84 2-7.17-.17a2 2 0 0 1 1.2-2.57c3.9-.3 7-1.7 8.9-5.5.8-1.6 2.9-2.6 4.3-4a6.5 6.5 0 0 1 1.7-1.1c2-.6 4.3-.5 5.5-2.8a8.2 8.2 0 0 1 .9-1c4.5-4 7 .1 9.9 2.4v.9z" class="cls-125"/><path d="M8.2 39.1L8.08 37a1 1 0 0 1 1.2-1.2c3 .56 5.73 2.15 8.87 2.1l.1.34c1.44.52 3.1.83 3.15 2.88A5.62 5.62 0 0 1 19.65 44a10.2 10.2 0 0 1-7.94-.3 4.5 4.5 0 0 1-2.4-2.15 9.3 9.3 0 0 1-1.1-2.45z" class="cls-126"/><path d="M8.2 39.1c1.23.17 2 .74 1.78 2.1a2 2 0 0 1-1.2.54c-2.26.15-2 3.58-4.44 3.5-1.73-.54-4.4-.43-1.43-3.33.9-.8.3-3.1.4-4.7z" class="cls-17"/><path d="M18.2 37.86c-3.5 2.55-6.07-.3-8.9-1.56 1.05-1.26 2.2-2.18 4-1.18h4c1 .68.9 1.73.9 2.74z" class="cls-127"/><path d="M13.2 35.1l-4 1.2-1.16.66c-1-.93-2.9-.4-3.9-2.53 3.34.4 6.25-1.2 9.06.68z" class="cls-128"/><path d="M15.1 25.18c.58.25 2.74-.08.7 1.2-1.23.77-3.05.6-4.6.86.54-2.13 2.3-1.96 3.9-2.06z" class="cls-129"/><path d="M166.14 144.22c.8 4.37-2.58 3.5-4.93 3.9h-1a1 1 0 0 1-1.3-.14 3.14 3.14 0 0 1-.1-3.12 3.88 3.88 0 0 1 1.9-1.6c2-.55 4-.84 5.5.96z" class="cls-130"/><path d="M159.4 147.95a4.14 4.14 0 0 0 .8.16l-.1 2.9c-1.55 3.6-.76 7.4-.92 11.1h-.82c-2.7-4.8-2.24-11 1.04-14.1z" class="cls-131"/><path d="M12.2 43.18l7 .12c2.66-1.9 4.8-1.66 6.22 1.53l-2.54.3c-1.77-.22-3.54-.43-3.66 2.15-1.27 1.35-1.9 3.38-4 3.83-.2-3.2-3.3-4-5-6a3.84 3.84 0 0 1 1.98-1.9z" class="cls-132"/><path d="M4.37 45.22c-.44-1.7 5.4-2.46.27-4.6 2-.94 3.25-.05 4.57.5 1.7 2.8-1.4 4-2.1 6-1-.14-2.2.12-2.8-1.08a4.48 4.48 0 0 0 .4-.58 1.17 1.17 0 0 0-.2-.24z" class="cls-133"/><path d="M7.1 47.1c-.52-2.42 2-3.77 2.1-6a7.74 7.74 0 0 1 .8.1l2.2 2c.05 1.4-.8 1.85-2 1.92z" class="cls-134"/><path d="M10.2 49.4c-.57 1.47-5.28-.46-2.78 3.4a3.72 3.72 0 0 1-1 .7A12.24 12.24 0 0 1 4 51.18c-.5-.7.37-1 .9-1.32 1.74-1.02 3.47-.84 5.3-.45z" class="cls-135"/><path d="M15.2 51.1l1 1.12c-2 2-4-.65-6 .1 1.26-2.04 2.94-2.4 5-1.2z" class="cls-132"/><path d="M18.2 148.1a3.9 3.9 0 0 1-.93-.16c1.5-2.05.3-3.42-1-5a38.35 38.35 0 0 1-3-4.88 3 3 0 0 1 2.74-1 4.65 4.65 0 0 1 1.5.4c3.5 2.22 4.8 5.9 6.2 9.46a1.76 1.76 0 0 1-1.7 1.8c-1.3 0-2.6.14-3.7-.6z" class="cls-136"/><path d="M16.2 138.03l-3 .06-2-2-3-5.9 5-.2c.9 2.6 3.28 4.8 3 7.9z" class="cls-137"/><path d="M121.2 170.37a17.3 17.3 0 0 1-7 5.74c-1.7-1-3.18-2-2.94-4.3.65-3 2.86-3.6 5.47-3.7 1.47.8 4.14-.6 4.47 2.4z" class="cls-138"/><path d="M112.12 171.92c0 1.74 1.42 2.76 2 4.18-2.74-.07-1.1 4.2-4 4h-4c-.86-3.32.46-5.84 2.9-8a3.63 3.63 0 0 1 3.1-.18z" class="cls-139"/><path d="M121.2 170.37l-4-1.26a1 1 0 0 1-.08-1.2c.94-1.2 3.07-.6 3.56-2.4.16-2-1.48-3.6-1.56-5.5a3.8 3.8 0 0 1 .84-2.7c4.9.9 4.2 5.5 5.7 8.6-.15 1.5-1.8 1.7-2.44 2.7-.02 1.4-1.02 1.7-2.02 2z" class="cls-140"/><path d="M123.2 168.4l2-2.36c.63-1.5-.56-2.93-.14-4.42.86-3 1-6.3 3.3-8.76a2.53 2.53 0 0 1 2.53 3.43c-1.2 4.2-1.2 8.8-3.7 12.7z" class="cls-141"/><path d="M162.14 126c1.42-1.24 3.7-1.18 3.7-4.36 0-2.12 2.8-3.58 5.37-1.57-1.5.06-3.1.23-2.9 2.37.3 1.82.9 3.54 2.8 4.42 1.1.52 2.8-.1 3.4 1.64-1.4 1.1-3.1.45-4.6.55-1.8-.72-3.7-1.3-5.5-.12a4.8 4.8 0 0 1-2-2.93z" class="cls-142"/><path d="M58.57 178.1h-6c-1.36-1.06-2.67-2.14-2.5-4.14a3.68 3.68 0 0 1 1.87-1c3.15-.47 3.93-1.67 1.22-4-2.27-1.7-4.22-3.57-4.14-6.7a17.18 17.18 0 0 1 1-4.35 12.88 12.88 0 0 1 3.83-5.2c2.55-1.8 4.6-.2 6.75 1 2.9 2.3 2.84 4.4-.4 6.3-3.27 2.6.2 4.1 1.2 5.6 3.66 5.8 3.07 8.8-2.83 12.6z" class="cls-143"/><path d="M50.2 174.2l2.32 3.9c-2.4-.7-4.6-2.8-7.32-.92.23-2.2-2.15-2.68-2.83-4.28.55-2.38 0-5 1.7-7.12a4.77 4.77 0 0 1 3.48-.9c4.5 2.16 5.6 5.96 2.65 9.32z" class="cls-144"/><path d="M110.07 173.1c-3 1.4-1.9 5-3.85 7l-4 1.94c-.5-4.8-6.34-3.43-8-6.9-1.43-2-.57-3.28 1.28-4.28 2.33-.32 5.3 3.14 6.95-1.17a19.54 19.54 0 0 1 1.4-1.5c2.1-1.2 1-5.4 4.75-5 1.3 2.1 1.57 4.7 2.4 7a3.32 3.32 0 0 1-.93 2.9z" class="cls-145"/><path d="M96.26 171.1c-1.14 1.13-2.44 2.17-2.06 4.06-.47.7-.8.46-1.1-.15 0-2.7-2.8-5.6.6-8.1 2.65.4 4 1.5 2.56 4.3z" class="cls-146"/><path d="M94.13 166.9c-1.66 2.53-.47 5.42-1 8.1a3.3 3.3 0 0 0-.88.4c-1.32-1 .48-2.27-.27-3.33a6.56 6.56 0 0 1-.85-6.14c.26-.94.77-2.06 2-1.72a1.64 1.64 0 0 1 1 2.7z" class="cls-147"/><path d="M176.2 80.1l-1 9c-1.68.8-2.7-.47-3.88-1.23a9.74 9.74 0 0 1-2.8-5 22.38 22.38 0 0 1 .85-5.3c.32-1.35 1-2.54 2.77-1.4 2.38.25 2.86 2.48 4.06 3.94z" class="cls-148"/><path d="M172.15 76.1c-3.86 1.1-.18 5.36-2.9 6.9-5-1.9-5.75-6.8-7.5-11 1-2.87 3.1-3.82 6-3.46 1.85 1.92 1.75 5.17 4.44 6.52v1z" class="cls-149"/><path d="M172.13 75.1c-3.15-.8-5.77-2-3.9-6a4.67 4.67 0 0 1 0-1.9 2.4 2.4 0 0 1 1.17-1.5 2.7 2.7 0 0 1 2.5.62c1.28 1.34 4 1.9 2.46 4.73-.6 1.27-3.63 1.7-1.35 4z" class="cls-150"/><path d="M174.4 71c.64-2.7-3-1.92-3.2-3.9 3.8-4.2 6.76-.06 10 1l2.23 1c-2.9 1-6.23.27-9.02 1.9z" class="cls-151"/><path d="M165.35 19.16l2.76-.62c3 1.34 3 3.88 2.7 6.53-.4 1.77-.2 3.65-1 5.33l-.2 1.33a7 7 0 0 1-.8 2.55 16.9 16.9 0 0 0-3.1 5.15 2.8 2.8 0 0 1-1 2.1c-1 .7-2.1 1.3-3.1 2a5 5 0 0 1-1.8.46c-1.5 0-2.7 1-4.1 1.3A4.58 4.58 0 0 0 151 48a2.74 2.74 0 0 1-1.28.7c-3.3-.8-6.37-1.8-6.1-6.1.2-1.1 1.9-1.7 1.4-2.7s-1.63.2-2.5.1a4.92 4.92 0 0 1-1.4-.3 4 4 0 0 1-2.17-1.7c-.3-1.2-.52-2.4-2-2.6-4.33-.56-7.84-3.3-11.9-4.6-1.47-3.56-1.3-3.74 4.3-4.13 4.7.8 9.2-.88 13.76-1.5 2.8-.4 5.5-1.3 8.4-.44 1.8.58 3.1-.64 4.5-1.52 3-1.8 5.8-3.9 9.5-4.1z" class="cls-152"/><path d="M165.35 19.16c-3.53 2.7-8 3.9-11.22 7.1a2.1 2.1 0 0 1-1.8.3c-6.45-2.13-12.4.7-18.46 2-1.53.33-2.48-.54-3.74-.5-2.15-1.3-4.75.4-6.88-1-2.3-1.67-5.86-1.56-6.43-5.68-.26-1.9.86-2.22 1.43-3.23 4.54 6.5 11.4 3.2 17.23 3.9 9.85 1.18 19.4-.7 28.73-3.9z" class="cls-153"/><path d="M168.35 30.1c2.46-1.1-1.67-4.35 1.67-5.2 4.18-3-.2-5.23-.67-7.8 2-3.47 4.56-4.35 8-2 .7 2-1.72 4.32.73 6.1.72 2.1 1.17 4.2-1.32 5.5-1.88 1-1.4 2.8-1.6 4.37a2.36 2.36 0 0 1-1.84.74c-1.83 0-3.7 0-4.97-1.7z" class="cls-154"/><path d="M169.36 17.1c3.48 1.1 4.32 3.28 3.25 6.77-.5 1.94-1.6 1-2.5 1.05a12.9 12.9 0 0 0-1.9-6.4z" class="cls-155"/><path d="M177.05 91.97c-.82.8 0 1.42.2 2.12-2.4 0-4.86-.2-7.07 1.1-1.76.2-2.38-.9-2.54-2.4a3.36 3.36 0 0 1 1.92-2.6c2.54-1.2 4.9-.1 7.3.5z" class="cls-156"/><path d="M176.85 90.87l-8 .88a2.85 2.85 0 0 1 .47-3.58c.8-.9 1.88-.67 2.9-.72l3 1.62z" class="cls-157"/><path d="M168.13 93.18l2 2c0 2.47-.5 5.1 2 6.84v1.1c-3.33-.3-6.14-5.55-10-1.07-2-4.7-1.5-6.32 3.38-10.15a1.86 1.86 0 0 1 2.7 1.28z" class="cls-158"/><path d="M160.93 42.97c.12-2.34 1.78-1.94 3.27-1.84 2.14-1.36 4.6-2.37 5.6-5a2.9 2.9 0 0 1 2.44-.9 6.27 6.27 0 0 1 1.3.24 6.07 6.07 0 0 1 2.8 1.6c1 .93.82 2.92 2.77 2.92l3.1 2.1c-.6 1.2-1.8.9-2.9 1.1-4.1 1-6.8 4.2-10 6.8-2 1.1-3.3.8-3.7-1.7a5.52 5.52 0 0 0-1-3.1c-1.1-1-2.9-.9-3.6-2.4z" class="cls-159"/><path d="M165.37 44.32a4 4 0 0 1 1.4 3.8c-.3 2 1.18 1.92 2.5 1.94l-2.13 2a1.32 1.32 0 0 1-1.3.25c-1.54-1.5-3.34-1.6-5.4-1.2-6.55 1.2-7.54-.2-5.2-6.8 1.62.5 1.93-3.2 4-1.2 1.8 1.6 3.78 2.3 6.13 1.3z" class="cls-160"/><path d="M166.2 52.1a7.48 7.48 0 0 0 .95-.1 2.4 2.4 0 0 1 1 2.1l-.56.52a11.5 11.5 0 0 1-6.9 0c-1.1-.83-1.4-1.93-.3-2.78 1.9-1.44 3.9-1 5.7.27z" class="cls-161"/><path d="M168.2 54.1c1.43-1.28 2.84-2.68 4.94-1.18a3.17 3.17 0 0 1-1.8 3.28c-1.8.4-4.06 1.47-3.1-2.13z" class="cls-162"/><path d="M171.2 55.1l1.92-2.17 1.08-.7 1.13.8c.63 1.42 1 2.77-1.17 3.15l-1-.07c-1.12.7-1.96.7-1.96-1z" class="cls-163"/><path d="M94.13 166.9c-.18-.76-.13-1.78-1.1-1.93-.8-.12-.9.65-.9 1.3 0 1.94-.1 3.87-.15 5.8l-4.07.27c-2.3-.86-2.1-3-1.6-4.57 1.3-4.16.2-7.74-2-11.2a4.84 4.84 0 0 1 0-1.52 7.2 7.2 0 0 1 3.7-4.76 5.67 5.67 0 0 1 3-.2c1.8.4 2.9 1.6 3.9 3 .6 1.6 1.8 3 2.5 4.6.6.4-.4 2.2 1.4 1.5.1-2-.1-4 .1-5.9.4-3.4 1.9-5.3 5.6-3.6a4.26 4.26 0 0 1 1.1 2.3 42.35 42.35 0 0 1-2.2 17.5c-2.7 5.8-2.7 5.8-7 1.3.3-1.9-1.2-2.9-2.1-4.2z" class="cls-164"/><path d="M58.57 178.1c.2-.4.4-.85.63-1.25 4.18-6.73 4.34-7.35-1-12.92-2.55-2.66-1.37-3.66.9-4.94 5.68 1.3 5.64 6.4 6.94 10.6.2.4.37.8.53 1.2 1 3.2 3 4.6 6.4 3.6a7.56 7.56 0 0 1 3.95-.1c1.6.6 3.62.1 4.72 1.9a5.44 5.44 0 0 1-.34.8c-1.75 2.1-4.12 2.2-6.37 2 1.25 1.3 3.94 1.3 4.2 3.9h-7.9c-3.87-.7-7.78-1.2-11.4-2.8-1-.5-1.77-.9-1.26-2.2z" class="cls-165"/><path d="M85 156.1c3.8 3.3 4.28 7.13 2.32 11.65a4.2 4.2 0 0 0 .58 4.64l-2.82 2.5c-3.07-2-2.93-5.5-4-8.4 0-2.5.78-4.9.9-7.3.03-1.8.22-4 3.03-3.1z" class="cls-166"/><path d="M79.14 183.03c-2.3-1.1-4.76-1.94-5.93-4.6l8.1-1.35 2.9 3.17c.9 5.48-3.4 1.8-5 2.78z" class="cls-167"/><path d="M82.2 167.16c1.74 2.27 1.7 5.2 2.88 7.68a3.88 3.88 0 0 1-3.45 1.42c-1.75-.44-3.78.55-5.32-1 2.4-1.33 5.3-2.4 3.8-6.1a3.63 3.63 0 0 1 .9-2 .9.9 0 0 1 1.3 0z" class="cls-168"/><path d="M32.2 176.05l3.9 2.2c.7 2 3.65 1.62 4 3.92-2.48.65-4-1.6-6-2.14z" class="cls-169"/><path d="M176.35 37.06c-1.17 0-2.4.3-3.18-1-.5-1.66-1.6-3.33 0-5h2a7.45 7.45 0 0 0 5 .4c.76 1.17 2.55 1.74 2.05 3.6-1.64 1.7-4.3.2-5.87 2z" class="cls-170"/><path d="M181.2 68.1c-3.35-.22-6.46-2.75-10-1a2 2 0 0 0-1.92-1c-1.55-1.27-1.4-2.92-1-4.62.94-2.13 2-4.06 4.9-3.42a3 3 0 0 1 0 .8c2.83 2.95 6.13 5.5 8.02 9.25z" class="cls-171"/><path d="M174.2 56.2c1.2-.76 1-2 1.17-3.17 2 .18 4-.18 5.75 1.12-1.5 3.52-3.53 5.1-6.92 2.04z" class="cls-172"/><path d="M173.2 58.1a9.57 9.57 0 0 0-3.78 3.06 2 2 0 0 1-2 .45c-1.33-.6-2-2-3-3-.77-1.4-3.64-2-2.1-4.5h6c.2 2.7 1.7 1.6 3 1 .3 1.1 1.24.9 2 1z" class="cls-173"/><path d="M59.2 116.1c1.36 0 2.78.34 4-.6 2.92-1 2.9 1.43 3.58 3-1.76 4.2 2.4 5.92 3.68 8.84-5.27 4-7.37 3.9-10.55-.8-1.2-1.84-2-1.8-3.1 0a7.36 7.36 0 0 1-2.8 2.32 5.76 5.76 0 0 1-4.4-.08c-1.9-1.75-3.3-4-6-4.8a4.75 4.75 0 0 1-3.3-3.87c1-2 2.2-1.7 4-.7 2.6 1.3 5.2 1.7 7.7-1 1.9-2 4.7-2.3 7.4-2.2z" class="cls-174"/><path d="M16.2 138.03c-1.3-2.53-4.2-4.45-3-7.92 7-.5 13.86.2 20.77.8a6.2 6.2 0 0 1 4.1 2.2c1.78-.3 1.6.8 1.44 2-3.1 1.1-6.3 2-9.7.8 0-2.6-2.1-2-3.6-2.1-2.2-.1-4.7-1-6 2-.3.9-.2 2-1 2.8a1.66 1.66 0 0 1-2-.3 9.66 9.66 0 0 1-.9-.1z" class="cls-175"/><path d="M40.2 120.1c2.28 1 3.3 3.82 6.48 3.76 1.2 0 2.86 2 2.56 4.15-.74.9-1.63.7-2.53.4-2-.7-4.2-.3-6.1-1.3a2.1 2.1 0 0 0-.1.5 1.93 1.93 0 0 0 .1.5 1.07 1.07 0 0 1-.4 1l-3.9.1c-1.4-1.4-3.8-1.3-5.1-3 1.7-4 5-5.5 9.1-5.9z" class="cls-176"/><path d="M39.14 135.24a2.14 2.14 0 0 0-1.1-2.2 7.76 7.76 0 0 1 3.2-3c1.47-1 2.9-.67 4.32.16a2.83 2.83 0 0 1 .43 1.93c-.4 1.26-1 2.36-2.6 2.1 1.2.64 3 .45 4 1.75a1.9 1.9 0 0 1 0 1.37 14.92 14.92 0 0 1-6.4 3.45 2.82 2.82 0 0 1-2.2-.58 4.2 4.2 0 0 1-.6-3.72 2.86 2.86 0 0 1 .8-1.26z" class="cls-177"/><path d="M45.2 130.1c-1.34.8-2.67 0-4-.05l-1.1-1.1a3.22 3.22 0 0 0 0-.86c2.32-.7 4.6-1.5 7.1-1a1.86 1.86 0 0 0 2 .8h5c3.55-1.7 5.06-.3 5.08 3.4a4 4 0 0 1-.66 1.6 2.8 2.8 0 0 1-2.34.7c-3.32-2.3-7.62-1.7-11.08-3.7z" class="cls-178"/><path d="M31.12 126.02c2.15.23 4.46.2 5.1 3-2.08-.35-5.02.78-5.1-3z" class="cls-179"/><path d="M64.2 63.2c-.95-.22-2.34-2.28-2.58.5a31.7 31.7 0 0 0 .14 5.32c.25 3.16-1 3.68-3.5 2.07a7.25 7.25 0 0 1-.85-4.8c.4-2.1 1.6-4.3-2.3-4.1-1.5 0-1.6-1.4-1-2.6a40.32 40.32 0 0 0 2.2-5c2.3-1 4.5-.5 6.8-.1 1.4 1.3 3.1 2.5 3.2 4.6.1 1.6.5 3.7-2 3.9z" class="cls-180"/><path d="M74.93 59.06a10.34 10.34 0 0 0-1.1 2.63c-.16 1.1.87 3.5.56 3.3-2.9-1.5-5.6 3.9-8.2 0 1.5-1.7-.1-3.2-.2-4.9s-1.2-3.4-.2-5.1a1.57 1.57 0 0 1 1.2-.3c1 .5 1 1.8 2.1 2.5.1-.9-.9-1.5-.6-2.4.9-2.4 3.1-1.3 4.7-1.8 1.2 0 2.3 0 3 1.2.2 1.3-.6 2.5-.6 3.8a1.35 1.35 0 0 1-.9.9z" class="cls-181"/><path d="M56.2 55.24c1.4 2.47-1.05 3.87-1.8 5.7 1.65 1.5 3.2-1.93 4.9.33 1.57 2.06-.34 3-.7 4.46a29.83 29.83 0 0 0-.4 5.38c-1.58-.8-2.25-6.2-5-1-1.4-1-.44-1.9.2-2.8 1-1.4.35-2-1.15-2.1a15 15 0 0 1 3-10.2.67.67 0 0 1 .95.3z" class="cls-182"/><path d="M86.2 75.2l-1.84 1c-2.7-1.63-2.5-4.94-4.15-7.17-1-1.42-.3-2.4.8-3.3 2.4-.8 4 .6 5.5 2a8.45 8.45 0 0 1 1.3 5 3.2 3.2 0 0 1-1.5 2.47z" class="cls-183"/><path d="M66.2 55.37c.37 2.42-.3 5 2.6 6.73 1.77 1 1.5 1.5-2.53 3-.7.14-1.15 1.6-1.8.87-.5-.57-.22-1.82-.3-2.76 1.42-2.3 2.36-4.5-1.15-6-.68-.3 0-1.1.23-1.7.95-1.2 1.95-1.2 2.95 0z" class="cls-184"/><path d="M74.93 59.06l.4-1.06c1.48-3.06 3.1-2.77 4.8-.2 1.1 2.27-.16 4.7.5 7 .33 1.2-.45 2.54-2.26 2.1a19.42 19.42 0 0 1-3.44-7.84z" class="cls-185"/><path d="M78.36 66.95l1.48-1.18c-2-2.42-.5-5.12-.62-7.7a2.48 2.48 0 0 1 1.33-1.5 2 2 0 0 1 1.9.54 26.46 26.46 0 0 1 .4 6.8 5.28 5.28 0 0 1-1.48 2.3l-1.17 2.9a2.64 2.64 0 0 1-1.84-2.1z" class="cls-186"/><path d="M78.2 99.65c0-1.3-.07-2.62 0-3.92.14-1.5-.66-3.68 2.6-1.66 1.86 1.14 3.94-1.42 4.36-4 2.44-3.08 6.28-2.28 9.42-3.4a23.78 23.78 0 0 0 6.9-2.93c2.12-1.2 3.33-4.57 6.7-2.84 3 4.47 3.05 7.8-1 12.6-3.2 3.77-5.42 6.53-10.5 6.1a3.4 3.4 0 0 0-3.75 2.7c-.76 3-2.43 2.28-4.56 1.5-2.7-1-4.26-4.5-7.8-3.64-.82.1-1.83.8-2.37-.5z" class="cls-187"/><path d="M70.57 102.04c1.36.12 1.6 1.55 2.55 2.17 1.1 1 .57 2.2 0 3.2-1.1 1.9-.7 3.5 1.2 4.6a6.43 6.43 0 0 1 .1-4.6c.56-1.2 1.35-2 2.53-.5 1.13 2.6.47 5.3.73 8-.15 3 1.76 5.6 1.37 8.6-.25 1.9-.35 4-2.2 5.2-3.04.5-4.3-1.7-5.62-3.7-.84-3.6-3.16-6.4-5.6-9.1a24.75 24.75 0 0 1-2.7-3.4c-1.66-2.6-2.24-5.3-.3-7.8s4.8-3.2 7.94-2.3z" class="cls-188"/><path d="M95.37 88L85.2 90.1h-7.7c-1.5 0-3 0-3.3-2 6.9-.56 11.25-3.2 12.08-7.28a16.2 16.2 0 0 1 2-1.63 24.55 24.55 0 0 1 3.5-2 7.7 7.7 0 0 1 2.9-.4c1.6.2 3 .7 3.4 2.5a4 4 0 0 1-.12 1.4 7.6 7.6 0 0 0-2.6 7.2z" class="cls-189"/><path d="M70.57 102.04c-2.7 1.84-8 .3-8 5.6 0 3.7 2.67 6.27 5.27 8.6a11.12 11.12 0 0 1 4.18 8.1 2 2 0 0 1-1.28.25 9.73 9.73 0 0 1-4.5-5.6c-.85-1.4-1.4-3-3.07-3.6l-1-1.5a4.48 4.48 0 0 0-.36-1.4c-5.1-7.7-3.1-12 6.4-13.5a4.33 4.33 0 0 1 2.4 2.9z" class="cls-190"/><path d="M78.2 99.65l2.24-.9c2.47-.3 3.55 1.32 4.4 3.22a3.05 3.05 0 0 1-.26 1.47c-2.35 1.86-3.36 5.83-7.54 4.82-1.2-2.42.44-4.72.3-7.1z" class="cls-191"/><path d="M75.84 106.1c-1.3 2.45-.1 5.17-.83 7.72-1.1.3-.8-1.1-1.5-1.26-4.7-1.23-3.6-3.5-1.2-6.16a6.67 6.67 0 0 0 .9-2.2c1 .4 2 .7 3-.15.7.8 1 1.5-.2 2.06z" class="cls-192"/><path d="M75.84 106.1l.22-2.05 1.27-2.9c2 2.33-1 4.7 0 7 1.3 2.52 2.44 5-1.1 6.74z" class="cls-193"/><path d="M35.2 57.1c1.7-4.16.76-8.9 2.86-13-2.56-3.13.4-3 2.12-3.58 2.6.57 5.34 1 6.33 4.08-.5 2.1-2.5 4-.7 6.38.1 1.34.9 2.64.3 4-3-.3-4.3 1-3.9 4.08-1.1 1.4-1.2 4.4-4.2 3.25-2.2-.8-3.9-2.3-2.8-5.2z" class="cls-194"/><path d="M66.2 55.37l-2.94.07c-2.4 1.36-4.68-.6-7-.2a2.87 2.87 0 0 0-1-.27c-.38-.83-1.13-.75-1.85-.78-2.2.4-4 .4-2.5-2.7a9.6 9.6 0 0 1 6-1 5.26 5.26 0 0 0 5.4 1.1c3.3-1.3 6.7-.9 10-1 2.6-.3 2-3.9 4.6-4.3a2.45 2.45 0 0 1 2.4 2.4 4.18 4.18 0 0 1-2 3.7c-1.1.9-2.7.5-3.8 1.6-1.1 1.4-3-.6-4.1.8a1.36 1.36 0 0 1-2 .2z" class="cls-195"/><path d="M51.3 52.1c-1.07 2.44 1.15 1.66 2.08 2.14-2.23 1.94-4.85.37-7.25.83-1.86-.94-2.1-2.25-.9-3.9.45-1.3.4-3 2.25-3.37a10.72 10.72 0 0 1 4.65 1.58c2.77 1.67.07 1.97-.84 2.73z" class="cls-196"/><path d="M31.2 69.1c2.45-5.7 6-.43 9-.92a2.08 2.08 0 0 1-1 1.94c-1.6.78-2.77 4.06-5 .82l-.87-.8a2.1 2.1 0 0 1-2.13-1.03z" class="cls-197"/><path d="M34.2 70.92c1.92 1.27 3.18-1.58 5-.82.9 1.2-1 3.1 1 4-2.82.5-5.42.58-6-3.18z" class="cls-198"/><path d="M31.2 69.1l2.17 1c-3.66 3.9-4.78 3.65-9-1.9 1.94-3.36 3.88-.78 5.82 0z" class="cls-199"/><path d="M88.2 80.1a1.76 1.76 0 0 1-2 .75c-.45-1.9 1.5-3.8 0-5.67a2.06 2.06 0 0 1 .9-2.12c3.25 1.9 4.33 4.15 1.1 7.05z" class="cls-200"/><path d="M115.12 31.1c-2.25-1-3.35-3-4.6-4.93a22.42 22.42 0 0 1 9.65 1.84c-.08 1.8 3.84 2.6 1.08 4.9-2.46 1-4.34-.2-6.13-1.7z" class="cls-201"/><path d="M121.04 32.1c-.23-1.35-2.76-2.22-.87-4 1.26.45 2.07-.57 3.06-1 2.25.66 4.78-.6 6.88 1-1.4 0-3-.3-4.3.22-2.1.85-.8 1.47.4 1.86 1.4 1.15 3.6 1.8 2.8 4.37a4.23 4.23 0 0 1-3 .5c-1.8-.7-4.4-.1-4.9-2.94z" class="cls-202"/><path d="M39.97 41.22c-1.17.62-2.77 1-1.9 2.9-2.92-1.37-3.36.66-3.76 2.75-.3 1.64-1.3 2.77-3 2.23s-1.5-2.22-1.1-3.68c.7-1.56-.5-2.36-1.3-3.3a3.73 3.73 0 0 1-.5-1.95c-1.2-.37 3.5-3-.8-2.16-2.6-.3-5.8.6-7-3l-.1-1.6c1.5-2.2 4.8.7 6.1-2.1l5.7-.3c-3.8-2.3-1.6-3.5.3-4.8a15.23 15.23 0 0 1 6.9 3.2c1.5 1.3 1.9.4 1.9-1.1 2.2-.7 1.6 1.2 2.1 2.1a4.18 4.18 0 0 1 1 4c-1.5.2-2.9.6-3.5 2.3-.6 1.3.3 2.5.2 3.8a1.42 1.42 0 0 1-.8 1z" class="cls-203"/><path d="M63.2 27.1c2.23 1 2.2 3.4 3.23 5.14-1.22 3.5-4.7 3.35-7.36 4.5a1.9 1.9 0 0 1-1.95-.92c-.63-3 2.74-5.9 0-8.86-.1-1.46.36-2.3 2-1.86.7 2.1 2.02 2.8 4.08 2z" class="cls-204"/><path d="M43.08 30.2L41 28.1c-1.76-.88-2.2-4-5.57-1.86 2.36-5.56 4.78-6.78 8.37-2.76.45.5 1.55.4 2.34.6a.82.82 0 0 1 0 1.07l-4.62 1.63 3.84.5c.2 1.83-1.9 1.67-2.28 2.9z" class="cls-205"/><path d="M40.2 40.1c0-1.4-3.06-2.1-.92-4 2.23-.15 4.42-.7 6.65-.85 3-2.32 5.34 2 8.24.9 1.16 2.1-.33 2.72-1.84 2.82-2.3.14-4.4 1-6.66 1.2-1.8.18-3.63 1.36-5.47-.06z" class="cls-204"/><path d="M46.2 39c2.22-2.24 6.25.63 8.05-2.83l2.92-.33 1.93.18c2.4 1.5 6 2.45 3.15 6.5a2.47 2.47 0 0 1-2.65-.68c-2.8-3.1-5.2-.95-7.64.63-2.34-.54-5.2-.1-5.76-3.46z" class="cls-206"/><path d="M45.96 35.27c-2.12 1.05-4.12 3-6.65.86 1.5-.88.8-7.13 4.8-2a1.8 1.8 0 0 0 1.9 1.14z" class="cls-207"/><path d="M59.2 25.1l-2 1.87c-2.5 1.65-2.2-1.62-3.53-2.08a2.17 2.17 0 0 1 .06-1.3 9.23 9.23 0 0 1 5.85.6.75.75 0 0 1 0 .4 1.62 1.62 0 0 1-.38.4z" class="cls-208"/><path d="M29.96 11.67a7.6 7.6 0 0 1 5.6 1.44c-.77 1.4-2.62 1.5-2.77 3.5a20.32 20.32 0 0 0-2.9-4.9z" class="cls-209"/><path d="M46.2 25.1v-1.07c1.4-.82 2.88-1.57 4.33-.3.75.64.3 1.6-.28 2.18-1.73 1.8-2.9.3-4.05-.8z" class="cls-210"/><path d="M72.14 18.1c-1 2.5-2.38 3.85-5 2 .98-2.36 3.06-2 5-2z" class="cls-211"/><path d="M62.14 41.96c1-3-2.3-3.83-3.08-5.93 1.9-2.34 5.32-1.7 7.37-3.76 3.4-.9 7.45-.2 9.77-3.88 3 .9 6.95-.3 8.42 4.1.5 1.5.87 2.8.17 4.2-2.1.2-2.7 2.3-4.2 3.3-1 .8-3 .7-2.4 3 .5 1.9-.8 3-2.5 3.5a10.13 10.13 0 0 1-3.4.8c-3.4.5-6.2-1.9-9.8-1.5-1.9.2-1.4-2.5-.6-4z" class="cls-212"/><path d="M84.2 37.1c.1-4.1-.57-7.5-5.92-7a1.83 1.83 0 0 1-2.05-1.66 14.74 14.74 0 0 0 7-3.15L87 33.1c-.12 1.55.32 3.3-1.5 4.24a1.45 1.45 0 0 1-1.3-.3z" class="cls-213"/><path d="M90.2 26.1c.2-1.73 1-3 2.9-3.1 4.6-1.7 3.72 2.15 4.44 4.4-1.82 1.78-2.57 5.34-6.37 3.85a3.54 3.54 0 0 0-.76-.24c-.6-1 0-2-.2-3a8.15 8.15 0 0 1 0-1.9z" class="cls-214"/><path d="M97.3 6.03c3.36 2.34 2.45 6.76-1.9 9.22a1.55 1.55 0 0 1 .1 1.87 1 1 0 0 1-1.22.1 2.42 2.42 0 0 0-1.15-2.15c-.86-1.4-3.5-1.48-3-3.94l.25-.17c3.08-.62 5.64-1.85 6.9-4.93z" class="cls-215"/><path d="M90.2 11.1c1.1 1.24 3.1 1.78 3 3.95-4.58.82-4.58.82-5.7-3.12.4-1.82 1.53-1.34 2.7-.82z" class="cls-216"/><path d="M85.13 37.1l1.84-4 1.2 1.24 2 3.77c.62 1.3 3.6-.5 2.9 2.4-3.2 1.9-5.63.4-7.92-1.8a1.33 1.33 0 0 1-.02-1.5z" class="cls-217"/><path d="M94.3 17.2a6.53 6.53 0 0 1 .73-.23c1 .38.4 1.64 1.18 2.15l2 6c.6 1.15.9 2.15-1 2-1.7-1-.6-4.9-4.1-4.1 1.4-1.75 1.2-3.82 1.3-5.8z" class="cls-218"/><path d="M97.2 27.1a2.24 2.24 0 0 0 1.06-2l1.1.1c0 4.3-3.3 5.92-6.35 7.73l-1.8-1.7c3.2.37 3.7-3.12 6-4.12zm-6 0c1.4 1.65.43 2.8-.8 3.9-2.96-.13-1.9-2.4-2.1-4a2.48 2.48 0 0 1 2.9.1z" class="cls-219"/><path d="M91.2 27.1l-2.9-.08a9.45 9.45 0 0 0-1.38-1.9c-1.1-.96-2.2-2.15-.6-3.13 2.5-1.6.5 1.8 1.92 2.1.75.1 1.3 1.3 2 2z" class="cls-220"/><path d="M121.04 32.1c1.37 1.7 3.9.33 5.27 2 2 1.56 4.7 2 6.4 3.88 1.4 2.18 3.5 3.8 4.3 6.38a3.48 3.48 0 0 1-.4 2.83 2.62 2.62 0 0 1-2 .6 6.8 6.8 0 0 1-4.9-4.3c-1.4-3.4-4-5-7.5-5.2-1.2-.5-2.6-.3-3.8-1-.6-1.8-3.3-2-3-4.3v-2c2-.6 3.7 1.8 5.8 1z" class="cls-221"/><path d="M103.2 36.16c.73 1 1.35 0 2-.1a.76.76 0 0 1 1.1-.13c.66 1.44.4 3 .53 4.5-1 5.42-1.87 6-8.1 5.22a2.83 2.83 0 0 1-1.44-2.93 15.47 15.47 0 0 1 .6-4c1.4-1.46 2.9-2.93 5.2-2.56z" class="cls-222"/><path d="M110.28 37.32l1.92 1.8c1.46-.1 2.9-.14 3.77 1.36 3.26 3.08 0 4.93-1.35 7.15-.83 1.25-.42 3.06-1.82 4.06a3.34 3.34 0 0 1-2.84-.2 4 4 0 0 1-1.53-1.8 8.6 8.6 0 0 1-.2-4.9c1.17-2.4-.35-5.6 2.05-7.7z" class="cls-223"/><path d="M103.2 36.16c-1.3 1.57-3.22 2.16-4.93 3.08a4.2 4.2 0 0 1-3.18 1.7 2.33 2.33 0 0 1-2-.9l-2.9-1.94c3.9.38 4.7-4.3 8-5l5 2.13v.93z" class="cls-224"/><path d="M115.3 40.55c-.8.35-1.08-1.54-2-.48-.44.5-.26 2-1.42 1.27-.8-.5.17-1.46.28-2.23 1.24-1.8 1-4.5 3-6 1 1.4 4.66.8 3 4.1 1.15 2.9-1.34 2.7-2.86 3.4z" class="cls-225"/><path d="M110.28 37.32c-.6 2.56.66 5.4-1.12 7.78a1 1 0 0 1-1.26.12 4 4 0 0 1-1-4.44c.8-1.55-.53-3-.32-4.47l-1.4-.2c.9-1.4 1.83-3.2 3.77-2.6s1 2.6 1.33 3.9z" class="cls-226"/><path d="M97.3 6.03c.7 5.83-2.4 6.35-6.87 4.92 1.38-2.87 1.9-6.74 6.62-5.73q.15.4.24.8z" class="cls-227"/><path d="M96.2 19.1a2.7 2.7 0 0 1-1.17-2.14l.36-1.72c2.5.2 5.3-1.67 7.6.85l.1 4a5 5 0 0 1-4.8-2c-1.2-1.6-1.9-.2-2.2 1z" class="cls-228"/><path d="M150.13 163.25l-1 .9a1.1 1.1 0 0 1-1.32-.22 4.7 4.7 0 0 1-.8-2 50.43 50.43 0 0 0-1.6-8.25c-1.1-2.4-1.2-5.3-3.5-7.12a3.85 3.85 0 0 1-1.2-1.73 3.94 3.94 0 0 1 1.5-3.92 3.4 3.4 0 0 1 3.4 1c1.8 3.9 4.7 7.6 3.1 12.3.7 3 2.1 5.9 1.6 9.1z" class="cls-229"/><path d="M148.56 154.1c-.3-4.32-3.43-7.84-3.45-12.24.6-1.9 2-1.6 3.4-1.35 2.4 1.3 3.6 2.9 1.9 5.5-.9 2.6 1.5 6-1.7 8.2z" class="cls-230"/><path d="M159.4 147.95c-2.37 4.56-1 9.4-1 14.12-.84 1.3 1.68 3.52-1.2 4.24l-3-.2a1.32 1.32 0 0 1-.1-1.5c1.9-3.6.17-7.4.7-11.1.44-3.1-.2-6.7 3.17-8.7a1.27 1.27 0 0 1 1.28.8z" class="cls-231"/><path d="M152.88 166.03c-2.7-.32-1.65-2.43-1.68-3.83-.12-5.25-.07-10.5-.08-15.75-.5-1.3-.8-2.5 1.34-2.22 1.63 7.24 4.17 14.46.42 21.8z" class="cls-232"/><path d="M152.88 166.03c.55-7.3-.4-14.55-.9-21.8 1.34-2.76 2.85-2.82 4.5-.27-1.87 5.37-1.15 10.94-1.25 16.45 0 1.7.42 3.3-.87 4.7l-.13 1z" class="cls-233"/><path d="M156.4 143.95c-1.55-1-3.08-1.86-4.43.27l-.85 2.23-.82-.5c.44-2.12-.68-3.5-2.2-4.7 1-2.66 3.35-2.4 5.53-2.45a5.1 5.1 0 0 1 2.27.66c1.08.55.47 2 1.33 2.63a2 2 0 0 1 .74 0c1.82-.5 2.45.4 2.4 2l-1.1 1.2a1.36 1.36 0 0 0-.88-.4c-.7-.5-1.7-.2-2-1.1z" class="cls-234"/><path d="M148.1 164.1a4 4 0 0 1 1 0c.17 3.3-2.9 2.84-4.6 4l-1.3-.26c-.33-2.5-1.4-4.84-1.36-7.4 1.22-1.5 2.46-.93 3 .42.6 1.73 1.9 2.47 3.27 3.25z" class="cls-235"/><path d="M140.4 163.1c-1.48 1.95-2.64 5.53-5.4 1.08a1.9 1.9 0 0 1-.13-2.12 5.64 5.64 0 0 1 3.37-1.65 2.9 2.9 0 0 1 2.16.6 1.85 1.85 0 0 1 0 2.2z" class="cls-236"/><path d="M140.4 163.1l.17-2c-.45-1.27-.45-2.42.94-3.15 1.3.4 1.4 1.2 1 2.28a20.32 20.32 0 0 1 .8 7.7c-1.9-1.02-.5-4-2.7-4.82z" class="cls-237"/><path d="M135.1 162.2q0 1-.1 1.95c-1 .76-.7 2-1 3l-1.84.87c-2.12-2.78-1.1-5.3.63-7.78 1.8-.57 2.6 0 2.3 1.96z" class="cls-238"/><path d="M132.86 159.92c.64 2.76-1.5 5.3-.68 8.07-1.1 3-3.4.4-5 1-.35-4.2.9-8.1 2.1-12 .5-1.6 1.4-3.2-1-4-1.15-.9-1.22-2.2-1.1-3.5.67-2.8 2.74-4.1 5.28-4.9a2.08 2.08 0 0 1 1.42.4 2.35 2.35 0 0 1 .47 3.3c-1.57 1-2.74 2-1.53 4.3a8.2 8.2 0 0 1 .04 7.1z" class="cls-239"/><path d="M26.3 31.24l1.48 3.36c-2.86.16-5-2.2-7.54-1.25 2.2-.9 1.47-4.74 5.15-4.54 3.2.2.5 1.7.9 2.5z" class="cls-240"/><path d="M20.32 35.03c1.92 1.9 4.65 1.14 6.85 2.1.3 1.1.87 2.2.06 3.34a3.66 3.66 0 0 1-4.64.4c-.8-1.32-3.1-1.67-2.4-3.86-.2-.6-1.1-1.3.1-1.9z" class="cls-241"/><path d="M20.2 37.02L23 40.2c.56 1.48-.52 1.3-1.38 1.36l-.57-.36c-.63-1.27-2.67-1.24-2.8-3z" class="cls-242"/><path d="M31.2 45.1c.32 1-1.15 2.28 0 3.08 1.45 1 2-1.1 3.12-1.32 1.68 1.72.17 2.46-1 3.3-3.47-.42-7.74 0-6.13-5.8l.4-.63c1.6-.74 2.9-.4 3.6 1.38z" class="cls-243"/><path d="M25.4 44.82a6.4 6.4 0 0 0-6.2-1.53 2.85 2.85 0 0 1 1.86-2.1h.1c1.7.7 3.75-.4 5.37 1a1.48 1.48 0 0 1 .63 1.8v.3z" class="cls-244"/><path d="M127.95 149.24l.25 3.87c.16 3.2-1.58 5.9-2.1 8.9-.66.8-1.72.8-2 .1-1.53-3.7-4.88-6.5-5.24-10.7a6.66 6.66 0 0 1 .8-3.8c5.05-1.5 7-5.9 9.5-10 1.27-2 2.05-4.5 4.48-5.7a2.2 2.2 0 0 1 2.55 1.8c.6 1.8 1.3.5 2 .1a6.07 6.07 0 0 0 3.4-3.4 5.68 5.68 0 0 1 3.3-2.5 1.8 1.8 0 0 1 2 1.7l3 3.7a1.83 1.83 0 0 1-.9 1.8c-2.1 1.1-5 .4-6.5 2.8-.6 1.3 0 2.7-.1 4l-1.2 3.7c.5 3.1-.2 5.6-3 7.3-2.4-.1-3-1.9-3.1-3.7a4.1 4.1 0 0 0-2-3.6v-.2c-2.2.9-4.9 1.2-5.3 4.3z" class="cls-245"/><path d="M162.14 126c1.85.17 2.23 1.35 2 2.93-1.6 1.66-4 2.06-5.9 3-3 1.5-2.14-3-4-3.77-.55-.9-2.78-.25-2.1-2.27a1.63 1.63 0 0 1 2 .1l2 1z" class="cls-246"/><path d="M149.15 133.96l.8-1c2.9.13 4.2 2.73 6.3 4.1a2.16 2.16 0 0 1-.05 3.05l-2.26-.1c-2.18-1.5-4.87-2.1-6.94-3.8-.32-1.7 1.7-1.1 2.15-2.1z" class="cls-247"/><path d="M156.2 140.1q0-1.53.05-3.07c2.83.28 4.13-3.28 7-2.78 0 1.82.15 3.54-2.52 3.9-2 .25-3.68 1.42-3.54 3.92z" class="cls-248"/><path d="M152.2 126.1l2.08 2.08c-2.5 0-5.16-1.1-7.35 1.08L145.2 128a1.2 1.2 0 0 1-.06-1.42 3.84 3.84 0 0 1 3.46-1.47c1.35-.1 2.6-.1 3.6 1z" class="cls-249"/><path d="M160.38 144.18l-2.4-2.08c3.12-4.62 8.36-.94 12.1-3.08a3.1 3.1 0 0 1-.8 4.13l-3.14 1.08z" class="cls-250"/><path d="M44.25 166.1l-1.85 6.83c-.18-4.18-1.15-8.64 3.75-11.1 1.65-.15.76-2.53 2.37-2.7.72-.78 1.36-1.78 2.65-.9.32 1.54-.87 2.62-1.25 4-.3 1-.27 2.25-1.66 2.57-1.47 0-3.06-.18-4 1.3z" class="cls-251"/><path d="M36.3 174.1l.7-10c1.55 3.5 2.8 6.92-.7 10z" class="cls-252"/><path d="M51.2 158.2l-2.65.9-.7-4.1c-3.8 1.7-7.7 2.4-11.67.8l-1.76-.6-.22-1.1c.4-3.16 3.42-4.3 5.05-6.5 2.55-1 4 .83 5.68 2.1 2.5 2 5.8.63 8.43 2a1.86 1.86 0 0 1 .87 1.8c-.2 2.13-2.97 2.55-3.03 4.7z" class="cls-253"/><path d="M39.28 148.18c-.37 3.13-3.3 4.05-5.12 5.95h-8.9a.9.9 0 0 1-.3-.83.52.52 0 0 1 .2-.44c1.76-1.34 4-1.23 6-1.87a12 12 0 0 0 3.5-1.4c1.95-.6 1.9-3.5 4.13-3.7a1.4 1.4 0 0 1 .4 2.2z" class="cls-254"/><path d="M25.12 153.3a2 2 0 0 0 .14.82c-3.74-.37-5.38-3.2-7-6 1-.4 2.06-1.5 3.05.05 1.5 1.55 3.7 2.58 3.9 5.13z" class="cls-11"/><path d="M148.08 125.86l-3.06 1.3c-1.5 1.06-2.7.33-3.87-.63a4.78 4.78 0 0 1-.65-3.17c.07-2.25-1.14-1.76-2.42-1.2-1.1.26-2.23-.23-3.64.3 1.67-.45 3.1.15 4.43-.5 1.26.78 1.28 1.84.7 3-3 .95-5.42 3.7-9 3.07-5.8.77-6.93-4-9-7.62 0-1.5-.42-3.1.5-4.6 1.9-1.3 4-.5 6.05-.6a5.82 5.82 0 0 1 1.33.4c2.3 1.4 4.56 2.9 7.42 1.5 1.1-.2 2.22-.7 3.32 0 2 2 4.6.7 7 1.1.4 2-1.8 4.5 1 6.1a1 1 0 0 1-.2 1.7z" class="cls-255"/><path d="M148.08 125.86l.17-1.7c2.85-2.1 4.47-.34 5.95 1.9l-2 .06z" class="cls-256"/><path d="M166.2 92.1c-2.65 2.8-5 5.7-4 9.95-1.6 1.78-4.23 1.53-5.93 3.08l-1 1a3.52 3.52 0 0 1-3.62.53c-1.63-1.72.24-2.7.82-4a20.3 20.3 0 0 1 1.45-1.78c1.73-1.32 1.85-3.46 2.7-5.23 2.02-4.23 5.15-5.37 9.58-3.54z" class="cls-257"/><path d="M140.2 117.04c-1 .55-1.9 1.3-3.13 1-2.34-.38-4.6-1-6.25-2.85-.7-2.5-.7-4.8 1.38-6.7a12.72 12.72 0 0 1 4.8-1.6c5.94-1.1 3.62 4 4.93 6.5.42.8.83 1.7.16 2.6-.8.1-1.6 0-1.9.9z" class="cls-258"/><path d="M142.1 116.05v-2.17a15.87 15.87 0 0 1 2.4-4.6c1.47-1.37 2.64-3.12 4.7-3.76a2 2 0 0 1 1.93.5l4.07.1c-1.58 3.08-5.2 4.34-6.5 8-.8 2.3-4.08 2.23-6.6 1.93z" class="cls-259"/><path d="M156.26 105.18c.75-3.38 3.47-3 5.93-3.08-.7 3.56-3.2 3.57-6 3.08z" class="cls-260"/><path d="M25.12 153.3c-1.36-1.65-4.16-2.2-3.84-5.12.76-.17 1.65-.1 2-1.05a2.35 2.35 0 0 1 2.5-.7 5.85 5.85 0 0 1 1.23.53c1.8 1.9 4.4-1.77 6 .86a3.87 3.87 0 0 1-.7 4.17z" class="cls-261"/><path d="M26.2 147.16h-2.9l-6.1-9.05h2a2.6 2.6 0 0 1 3-.4c2.4 2.7 5.16 5.3 4 9.5z" class="cls-262"/><path d="M110.07 173.1l.15-3c1.55-3.44 3.92-4 7-2l-.02 1c-1.9.56-4.64-.45-5 2.8-.7.54-1.07 1.46-2.13 1.2z" class="cls-263"/><path d="M117.2 168.1c-2.7-.67-5 .25-7 2-2.37-1.84-2-4.5-2-7-.78-.8-.5-1.5.26-2.13 1 0 1.92-.2 2.9-.1a4.12 4.12 0 0 0 2.1.63c1.18-1 .32-2.18.37-3.28-.12-1.2-.63-2.3-.78-3.47a9.83 9.83 0 0 1 .3-4.6 2.55 2.55 0 0 1 1.74-1.52c4.7 1 4.8 4.78 5.2 8.43l-.2 3.05c-2.1 2.9.4 4.3 1.9 6-.6 3.3-3.2 1.6-5 2z" class="cls-264"/><path d="M120.3 157.02c-1.16-3-1.88-6.37-5.22-8a1.7 1.7 0 0 1-.3-1.4c2-2.37 3.66-3 4.4.85a11.3 11.3 0 0 0 .9 2.8c2.1 3.5 1.68 8.45 6.07 10.66 0 1.46.46 3-1 4.1z" class="cls-265"/><path d="M122.15 166.1c-1.5-.15-3.55.6-3.82-1.8-.2-1.63-.8-3.72 1.9-4.18.6 2 2.75 3.5 1.92 6z" class="cls-266"/><path d="M65.3 170.1c-1.46-4.04-2.6-8.27-6.2-11.15 3.18-1 3.2-2.76 1.16-5 .92-2 3.85-.06 4.66-2.34a2.16 2.16 0 0 1 2-.7 2.68 2.68 0 0 1 1.2 2c-1.44 5.7-.6 11.7-2.8 17.2z" class="cls-267"/><path d="M65.4 152.28c-.16 5.27-3.7.36-5.15 1.7-2.1.7-3.9-2.16-6.07-.47l-1.25-1.4a5.6 5.6 0 0 1 4.75-4.6 4.44 4.44 0 0 1 1.93.8 6.45 6.45 0 0 0 3.8 1.6c1.1.5 2.5.7 2.1 2.4z" class="cls-268"/><path d="M48.2 164.1l1.73-2c.13 2.9 2.37 4.3 4.22 6 3.53 3.75.14 4.67-2.4 5.93l-1.5.16c.72-3 .37-5.9-2-8.1a1.28 1.28 0 0 1-.05-2z" class="cls-269"/><path d="M51.72 174.05c1.53-1.68 4.95-2.6 2.4-5.92 2.7.42 2.2 2.5 1.92 4.14-.45 2.6-2.68 1.62-4.32 1.78z" class="cls-270"/><path d="M48.2 164.1v2h-4c.23-3 1.74-3.2 4-2z" class="cls-271"/><path d="M115.3 147.93l-.22 1.1-.88 1.08c-1.4 3.8-1.86 7.9-5.1 10.8l-.9 2.3c-2 1.6-.67 5.4-4 6.1-.5-1.1.16-2.3.1-3.4.8-3.4 2.4-6.6 3.64-10 .5-1.1 1-2.2 1.56-3.3 1.56-1.9 1.7-5.7 5.8-4.5z" class="cls-272"/><path d="M105.15 165.97l-.95 3.14a.65.65 0 0 1-.95.7l1-17.6c1-.3 1.4.3 1.8 1a6.5 6.5 0 0 1 .5 2.3c.7 3.7-1.35 7-1.4 10.6z" class="cls-273"/><path d="M172.2 87.45l-2.1.7a1.43 1.43 0 0 1-1.38.14 60.85 60.85 0 0 1-8.23-12.1c-1-1.9-1.3-3.8.6-5.3.8 0 1.4.2 1.1 1.2 2.8 3.3 3.8 7.7 7 10.8z" class="cls-274"/><path d="M162.26 72.1l-1.06-1c-2.25-1-3.6-2.5-3.08-5.16 2.3-2.25 4.83.8 7.2-.3 1.8.2 2.85 1.43 3.88 2.7l-1 .78c-2.25.4-4.45 1.04-5.94 3z" class="cls-275"/><path d="M169.2 68.3c-1.88.22-2.9-1.1-4-2.27-2.1-2.75 1.48-3.27 2-5l2.17.12q0 2.5-.08 5l-.1 2.16z" class="cls-276"/><path d="M162.2 54.06c-.32 2.32 3.36 1.73 3 4.1-3.3.74-4.45 4.8-8 5.2a3.8 3.8 0 0 1-1.7-2.8c.15-2-1.07-3.56-1.94-5.22a7 7 0 0 1-1-3.12 6 6 0 0 0-2.2-5c.33-3.12 2.53-3.15 4.87-2.95.33 7 .4 7.2 7.44 4.76 3.83-1.33 2.16 2.34 3.52 3.12-1.7.1-3.7-.33-4.9.45-1.7 1.07.2 1.14.9 1.46z" class="cls-277"/><path d="M129.2 34.1l-3-4c4.65 1 8.42 4.32 13.64 4.37 2.47 0-.66 2.3-.65 3.65-3.1 3.67-5.2.6-7.4-1.1-.9-.9-3-.83-2.6-2.9z" class="cls-278"/><path d="M141.2 39.1l1.15.13c.93.74 2.57 1 1.84 2.83-.5 4.26 3.6 4.26 5.7 6 1 1 .6 1.86-.4 2.6-4.7.2-9.3-3.52-11.1-9a3.12 3.12 0 0 1 2.6-2.56z" class="cls-279"/><path d="M141.2 39.1l-1.93 2c-.9.9-1.24 2.26-2.46 2.87l-.6.2c-1.1-2.17-4.3-3-4-6.15a1.28 1.28 0 0 1 0-1.9c2 1.93 4 3.46 7 2z" class="cls-280"/><path d="M149.27 50.22a1.86 1.86 0 0 0 .72-2.14 5.26 5.26 0 0 0 .3-.88c3.4.33 4.6 1.84 2.8 5a2.48 2.48 0 0 1-2.8.45c-1-.54-1.6-1.24-1.1-2.43z" class="cls-281"/><path d="M173.2 31.1c-.9 1.68 2.12 3.33 0 5l-.27-.1c-2.87-.43-3.78-2.65-4.57-5a.83.83 0 0 1 0-.86c1.5.86 3.4-.35 4.84.97z" class="cls-282"/><path d="M170.1 35.84c.88 4.94-2.5 5.12-5.9 5.28l.84-1.83c2.07-.9 1.57-3.9 3.9-4.6.74 0 1.26.1 1.17 1z" class="cls-160"/><path d="M169.74 35.22c-2.46.33-1.64 4.45-4.7 4.08a3.6 3.6 0 0 1-2.67-2c3.92 1.8 2.83-3.62 5.74-3.35a1.28 1.28 0 0 1 1.7 1.27z" class="cls-283"/><path d="M165.37 44.32c-3.12 2.44-4 2.24-6.1-1.32h1.66c1.45.52 3.17.18 4.44 1.32z" class="cls-284"/><path d="M163.38 27.1c-.44 1.37-.2 3.38-2.48 2.75-.86-.24-2.52-.12-2.2-1.35.6-2.4 2.9-1.18 4.68-1.4z" class="cls-285"/><path d="M144.2 42.06l-1.84-2.83c1.77-1.4 4.14-1.82 5.07.15.7 1.52-1.54 2.44-3.23 2.68z" class="cls-286"/><path d="M149.38 40.22c.7-1.86 1.75-3.1 3.67-2.84 1.13.16.84 1.14.5 2-1 2.3-2.56 1.18-4.17.84z" class="cls-287"/><path d="M169.74 35.22l-1.64-1.28.22-3 4.57 5-2.8-.12a1.1 1.1 0 0 0-.4-.6z" class="cls-288"/><path d="M169.2 88.1h.93l-1.27 3.6-.74 1.44-1.9-1c-5-.42-8.5 1-9.15 6.64-.18 1.6-1.47 2.53-2.8 3.3-3.87-7.42-1.64-14.63 5.3-17.2 3.8-.6 6.7 1.33 9.63 3.23z" class="cls-289"/><path d="M91.2 150.84l-3.08-.06c-2.18.13-4.4 3.4-6.55-.08a4.28 4.28 0 0 1-.87-2.66 14.64 14.64 0 0 1 .73-2.84c1.1-3.3-.57-8.34 5.38-8.57a2.44 2.44 0 0 1 1.1.93c1.4 2.45-.2 5.33 1.2 7.78 1.8 2 4.6-.1 6.4 1.72.2 2.93-1.7 3.65-4.1 3.78z" class="cls-290"/><path d="M91.2 150.84c1.44-1.12 3.2-1.9 4.06-3.66 1.56-1.8 3.56-1.4 5.54-1.12 1.48.6 3.24.85 3.6 2.86-1.2 1.55-3.6-.25-4.7 1.64-1.25 1.73.62 4.55-2 5.8-1.28.36-1.08-2.7-2.83-1.2z" class="cls-291"/><path d="M82.2 150.1c1.65 3.14 4.2-1.47 6 .7l-3.14 4.4c-1.22.8-2.18.24-3.1-.57-.74-1-1.45-2.06-3-1.5a14.63 14.63 0 0 1-4.1.48 1.4 1.4 0 0 1-1-1c-.13-2 1.3-2.7 2.83-3.4a6.18 6.18 0 0 1 5.5.9z" class="cls-292"/><path d="M82.3 154.1l2.68 1a1.34 1.34 0 0 1 0 .9c-3.47 3.06-1.1 7.6-2.8 11.1l-.9-.05c-2.62-4.48-1.92-8.77 1.02-12.94z" class="cls-293"/><path d="M97.4 156.1c1.65-1.7 0-4.24 1.48-6 1.58 3.92.78 7.9.4 11.88-2.18-.12-2.35-.34-3.07-3.92.8-.44.2-1.7 1.2-1.95z" class="cls-294"/><path d="M104.2 148.9l-2.9-1.73a2.17 2.17 0 0 1 1.48-2.38c2.83-.2 4.4 1.1 4.72 4a7.05 7.05 0 0 1 0 1.5c-.3 1.2-.36 2.7-2.16 2.8l-1.08-1-.44-2a1.14 1.14 0 0 1 .38-1.3z" class="cls-295"/><path d="M104.2 148.9l-.4 1.2c-2.35-.22-3.6.46-3.68 3.22s1 5.92-.82 8.63l-.4-11.88c1.45-1.65 3.58-.43 5.3-1.17z" class="cls-296"/><path d="M97.4 156.1l-1.2 1.95c-.45-1-.9-2-1.36-2.92-.07-1-1.17-2.62.68-2.72 2.75-.1 1.33 2.5 1.88 3.7z" class="cls-297"/><path d="M81.2 169.1a4 4 0 0 0 .06.5c1.3 5.4 1.3 5.4-4.94 5.67a9.94 9.94 0 0 0-2.9.06c-5.25 1.73-6.1 1.28-7.74-4.38.05-2.77 0-5.53 0-8.3 0-1.27-.24-2.72 1.6-3 3.63.9 2.45 4.94 4.5 6.87a9.5 9.5 0 0 1 1.53 1.28c2.6 2.23 4.3-2 6.7-1 1 .44.5 1.7 1.3 2.3z" class="cls-298"/><path d="M68.2 160.1c-2.33.34-1.92 2.14-2 3.7-.18 2.38.53 4.8-.5 7.13q-.17-.4-.38-.8c-.32-6.07-.16-12.1 2-17.88a1.3 1.3 0 0 1 1.83-.4c1.16 2.92 2.05 5.8-.95 8.26z" class="cls-299"/><path d="M81.2 169.1a2.14 2.14 0 0 1-1.1-1.9c-2.5-1.35-2.47-3.73-2.2-6 .37-3.1.53-6.2 1.12-9.25 2.84-1.82 3.22 0 3.27 2.23-.5 4.3-1.5 8.58-1 13z" class="cls-300"/><path d="M157.2 63.05c1.15-1.13 2.9-2.07 3.33-3.42 1-3.1 2.93-1.62 4.66-1.5a3 3 0 0 1 2 2.88c.9 2.3-2.9 2.8-2 5-2.4 2.3-4.7-1.2-7 0-1.6.6-1.6-.6-1.8-1.6a2.1 2.1 0 0 1 .7-1.3z" class="cls-301"/><path d="M71.1 124.3h.95c1.33 1.33 2.27 3.07 4.1 3.88a3.42 3.42 0 0 1 .9 1.13c1.37 5.3-3.46 4-5.7 5.5a8.17 8.17 0 0 1-2.07.6c-3.7 1.2-6.27-1.3-9.16-2.8-.7-2.5-.75-5.4-4-6.4.08-1.3 0-2.7 1.86-2.8a2 2 0 0 1 2.3 1.4c1.7 7.3 6.22 2.9 9.78 2.4-.8-1.3-.3-2.1 1.05-2.7z" class="cls-302"/><path d="M71.1 124.3l-1 2.72c-3.07.12-3.07-4.15-6-4.22l2.2-3.8z" class="cls-303"/><path d="M56.2 126.1c4.82-.32 5.25 2.28 4 6a1.27 1.27 0 0 1-1.94 0c.35-3-1-4.3-4-4z" class="cls-304"/><path d="M22.2 138.1l-3-.06c-1.34-2.4-1.3-5 1.5-5.64 3.1-.7 6.67-1.17 9.45 1.5l-.92 1.1a18.38 18.38 0 0 1-.63 3.56c-1.23 1.8-2.7-.73-4 .26a2.44 2.44 0 0 1-2.4-.7z" class="cls-305"/><path d="M28.2 138.1c-1.42-1.6-.4-2.4 1-3.1 3.3.84 6.66-1.8 9.93.22a1.26 1.26 0 0 1 0 .7 3.37 3.37 0 0 1-1.8 1.3c-2.5.08-4.64 1.57-7.1 1.84a3 3 0 0 1-2.03-.95z" class="cls-306"/><path d="M47.2 127.1c-2.33.56-4.64 1.36-7.1 1-2.13-.3-2.34-1.76-1.46-3.16s2.13-.65 2.65.5c1.3 3 4.4-.72 5.9 1.67z" class="cls-179"/><path d="M56.2 133.1h2a3.25 3.25 0 0 1 1.24 2 9.76 9.76 0 0 1-.25 4.76c-.7 1.5-1.8 1.74-3.2 1-2.3-2.65-6.2-2.3-8.6-4.63-1.6-.27-3.4 0-4.2-1.64-.2-.4 1.3-1.6 2-2.4 3.9-2.8 7.3-.3 10.9.9z" class="cls-307"/><path d="M39.28 148.18c-.15-.76-.14-1.6-1-2-.9-2.16-1.14-4.2 1-5.84l1.86-.1c.13 2.2 1.45.2 2.1.6 3.18.85 3.13 3.12 2.48 5.64a2.86 2.86 0 0 0 3.9-.8 5.08 5.08 0 0 1 2.93-1.78 2.62 2.62 0 0 1 2.13 2.63c-.7 3.2-3.58 3.83-6 5.05-1.48-.12-3 .45-4.43-.45-1.5-1.28-2.54-3.27-4.97-2.95z" class="cls-308"/><path d="M39.2 140.34l-1 5.84c-.54 1.82-.5 4.1-3.26 4.2.86-4.72-.5-9.78 2.24-14.2l1.86-.25z" class="cls-309"/><path d="M47.45 136.27c3.1.86 7-.23 8.82 3.7.83 1.4.4 2.26-1.12 2.65-1-.48-2.1-.06-3.14-.35a18.34 18.34 0 0 0-4-3.5 2.56 2.56 0 0 1-1-1.77z" class="cls-310"/><path d="M47.07 137l1.16 1.2c-.66 2.8-2.14 4.17-5.12 2.86-1.4.65-.4 3.06-2.4 3.33-1.1-1.6 0-2.8.4-4.2a9 9 0 0 1 6-3.3z" class="cls-311"/><path d="M56.2 133.1c-3.68.15-7.18-1.8-10.9-.9v-2.1c3.9 0 7.97-.65 10.9 3z" class="cls-312"/><path d="M58.43 135.38l-.28-2.27.1-1h1.94c3.3-.5 5.6 3.8 9.2 2.2a3.34 3.34 0 0 1 .1 4c-2.4 1.9-4.6 1.1-6.8-.4-1.2-1.4-3.2-1.2-4.4-2.4z" class="cls-313"/><path d="M80.38 57.35l-1.18.76c-1.25-2.7-2.6-.5-3.9 0-1.33-1.4-.45-2.2.75-3 1.07-1.8 2.26-3.4 4.62-1.6a3.6 3.6 0 0 1-.3 4z" class="cls-314"/><path d="M67.2 55.26l2-.22 2.06 2.9c-.74.3-1.54.92-2.2.8-1.96-.33-1.86-2-1.86-3.48z" class="cls-315"/><path d="M80.15 53l-4.08 2c-.7-1.07-1.77-.76-2.76-.78.6-1.27 1.9-1.55 3-2.2 1.5-.33 3.2-1.63 3.9 1z" class="cls-316"/><path d="M85.13 37.1l.18 1.07a1.7 1.7 0 0 1 .8.6c1.7 5.12 4 10 5.3 15.25a6.86 6.86 0 0 1-.3 1.5c-1.2 2.23-1.3 4.74-1.6 7.2-.3 2.13-1 4.22-3.1 5.38l-4.8-2a1.64 1.64 0 0 1 .9-2c1.9-2.15.2-4.58.6-6.85.1-3.13-2-5.34-3.3-7.86.5-3.5-1.8-7 .8-10.3 1.9.3.5-5.5 4-2h1z" class="cls-317"/><path d="M86.2 68.1c2.75-3.84.88-9.1 3.88-12.86 2.3 1.94 1.3 4.67 1.72 7.06-.13 1.2-.85 2.17-1.17 3.3-.3 1.6-.8 3.3.7 4.54 3.35 2.75 1.86 5.35-.12 8a3.08 3.08 0 0 1-3 2c2-2.73-.2-4.8-1.1-7-.9-1.6-.9-3.33-.9-5.03z" class="cls-318"/><path d="M80.1 50c2.8 1.6 4.85 3.53 3.1 7.1a2.4 2.4 0 0 0-1.22.2h-1.6l-.23-4.34c-1-1.55-2.6-.68-3.92-1 .7-.92 2.12-1.32 2-2.8 1.1-.7 1.38.3 1.88.84z" class="cls-319"/><path d="M81.98 57.3c.34-.52.7-1 1.23-.18.8 2.48 2.6 5.1-1 7-.2-2.27-1.5-4.5-.2-6.82z" class="cls-183"/><path d="M84.32 102.03a7.75 7.75 0 0 0-3.9-3.3c5-1.53 6.45 4.27 10.75 4.8-.38-5 3-5.7 7.16-5.45 2.93.18 4.4-.54 6.53-3.72 2.94-4.4 5-7.9 3.4-13l.55-.44a4.32 4.32 0 0 1 4.1 2.4 6.6 6.6 0 0 1 .6 2.07 18.73 18.73 0 0 0 1.7 9.7c1.6 3.2-.4 7.2 2.8 10 1 .9-.5 1.7-1.4 1.9a20.8 20.8 0 0 1-6.3 1.1 43.33 43.33 0 0 0-18.8 3.3 2.53 2.53 0 0 1-1.3-.2 54.72 54.72 0 0 1-5.6-9.3z" class="cls-320"/><path d="M97.04 80.9a2.34 2.34 0 0 1 .16-.8c2.5-2.35 5.83-1 8.64-2a3.6 3.6 0 0 1 2.37.72 1.76 1.76 0 0 1 0 2.3v.22c-3.2-.72-4 2.7-6.1 3.73-3.5.9-5.7.16-5-4.16z" class="cls-321"/><path d="M97.04 80.9c.6 2.73 2.08 4.38 5.08 4.17L95.36 88c-2.76-3.16-3.16-5.74 1.68-7.1z" class="cls-322"/><path d="M76.2 129.1a5.34 5.34 0 0 1-.1-.85c1.2-3.1 2.82-6.07.32-9.42-.63-.85-.15-2.54-.18-3.85 1.64-2 .53-4.53 1.08-6.74 3-.66 3.58-4.63 6.76-5.1a17.44 17.44 0 0 1 5.2 9.77 6.27 6.27 0 0 1-.32 2.2 12.94 12.94 0 0 0-1.53 5.7c-.26 4-.1 8.2-4.1 10.8a3.4 3.4 0 0 1 1.17.6 2.65 2.65 0 0 1 .33 2c-.78 2-2.43 1.4-3.9 1.4a5.4 5.4 0 0 1-2.84-.9c-1.5-1.5-.4-3.9-1.9-5.4z" class="cls-323"/><path d="M108.2 79l-2 .07c-2.18-.76-4.48-1.1-6.64-2-1.9-.8-3.94-.8-5.44 1.1l-2.92-.06c.7-3.2 1.4-6.4-2.13-8.8-.6-.4.14-2.7.27-4.2 2.94 2.1 4.9 5.7 9 6.1 2.32 1.3 4.5 2.9 6.84-.2.8-1.1 2.4-.8 3.6.2 1.5 2 3.13 4 2.1 6.8a2.42 2.42 0 0 1-2.68 1.2z" class="cls-324"/><path d="M94.14 78.1c-1.06-2.16.66-2.7 2-2.82a12 12 0 0 1 10.06 3.83c-2.82 1.9-6 .8-9 1.1-.06-2.1-1.64-1.9-3.06-2.1z" class="cls-325"/><path d="M88.2 113.1c-.4-3.72-3.55-6.33-4.08-10l.2-1.06a15.6 15.6 0 0 1 6 9c.25 1.7-.46 2.35-2.12 2.07z" class="cls-326"/><path d="M62.14 41.96c.6 1.36-.28 4.8 3.3 1.95.5-.4 4.16 2.6 7 2.3 2.13 2.3 0 2.6-1.44 3.2-3.08-.2-5.6 1.8-8.53 2.1-1.72.2-3.6 1-5.24-.3l-5.88 1c-.2-.6 2.3-1.4.14-1.8a5.55 5.55 0 0 1-4.1-2.1c-1.3-.7-1.2-1.8-1.1-3-1.2-2.7-4.4-2.2-6.3-3.9l.2-1.1c2-.2 3.7-1.7 5.9-1.1 1.7 1.5 4.4 1.1 5.9 3 2.6-1.2 5.2-3 8.2-1a1.82 1.82 0 0 0 1.9 1z" class="cls-327"/><path d="M46.26 45.1c1.14.74.88 2 1.07 3l-2.1 3c-4.12-2.73-.94-4.26 1.03-6z" class="cls-328"/><path d="M57.2 51.1c4.9-.25 9.2-3.34 14.24-2.84 2.1.57 3 1.7 1.8 3.84-4.77.16-9.53.2-14.2 1.48-2.3.63-1.6-1.38-1.84-2.47z" class="cls-329"/><path d="M80.1 50l-1.84-.8a2.06 2.06 0 0 0-2.06-2.1.64.64 0 0 1-.05-1.18c.46-.66 1.45-1.7 1.3-1.93-2.77-3.9 1-3.8 2.83-4.9-.8 3.5 1.84 7.2-.17 10.8z" class="cls-330"/><path d="M76.1 45.87l.1 1.24c.9 2.8-1.38 3.7-2.95 5 .4-1.7-.73-2.7-1.8-3.8 1.53-.1 1.5-1 1-2z" class="cls-331"/><path d="M132.2 36.1v1.92a6.8 6.8 0 0 1-5.88-4l2.88.1z" class="cls-332"/><path d="M26.35 43.18l-5.2-1.92c.77-.1 1.57-.14 1.87-1.07 1.4.7 2.77 0 4.15 0a1.32 1.32 0 0 1 2-.1l.12 1.8c-.6 1.3-2.1.6-3 1.2z" class="cls-333"/><path d="M29.2 40.1l-2 .1c-.25-1-1.48-2 0-3 1.7.38 3.7-.65 5.16 1-.22 2-3.16-.38-3.16 1.9z" class="cls-334"/><path d="M26.35 43.18c.58-1.36 1.84-1.1 2.94-1.23 1.8.36 4 .46 1.9 3.2a7.1 7.1 0 0 0-4.1-1.1z" class="cls-335"/><path d="M60.28 41.04c-2.88-.9-5.25 2.54-8.2 1-.23-3.52 2.4-2.63 4.4-3s3.65-.84 3.8 2z" class="cls-336"/><path d="M90.3 54.05c0-.66.2-1.67-.12-1.92-4.84-3.56-3-9.4-4.87-14 2.6.78 4.9 2.82 7.9 1.86l2 .1c.2 2.5-4.8 2.5-2.8 5.9.3 2.6.7 5.2-.6 7.7a1 1 0 0 1-1.3.3z" class="cls-337"/><path d="M151.07 106l-1.8.12c-1.15.6-2.83.35-3.18-.34-2.8-5.32-4.9-1.4-7.2.3a3.66 3.66 0 0 1-1.2.72c-2.2.2-5.8-3.05-5.8 2.45l-.8 5.86c-.4 1-1 1.6-2.1 1.2a4 4 0 0 1-.8-.2 8.3 8.3 0 0 1-2.8-1.4c-1.2-1.7-3.8-1.1-4.8-3-.3-4.2-3.1-8-2.3-12.4 1.7-2.4 2.8-.5 4.1.6 1 .9.4 3.3 1.8 3.1a6.5 6.5 0 0 0 4.7-3.2c.7-1.3.6-2.9 1.9-3.9 1-1 2.7-1.1 3.3-2.7-1.1-1.6-2.7-.5-4-.7a5 5 0 0 1-1.4-.2 22.7 22.7 0 0 1-4.1-3.6c-1.1-2.7 1.6-4.2 2.1-6.4 1.1-4.3 6.1-2.4 8.6-5.4a21.06 21.06 0 0 1-6.2-4.4c-1.4-2.3-3.5-4.1-4.7-6.7 1.3-2.4 1.2-4.5-1.1-6.3-.6-2 .4-4.1-.4-6a4.5 4.5 0 0 1 .3-2.7c2.8-3.5 6.9-2.4 10.5-3l2 .1c1.9.8 2 2 .72 3.4-1.4 1.1-3.4 1.2-4.7 2.57-.84 2.66-1.3 5.2 1.5 7 1.43.45 3 .5 4.3 1.37.1 1.4 1.3 2.1 2.2 3 1 1.7 2.85 1.7 4.4 2.4.86 3.6 4.3 6.14 4.53 10.1a4.22 4.22 0 0 1-1.47 2.3c-2.4 1.2-3.7 2.6-1 4.86 1.4 2.4 1.9 5.4 4.84 6.7 1.55 3.8 2.7 7.8 1.8 12 .1 1.6-1.3 2.14-2.2 3z" class="cls-338"/><path d="M134.2 47.18c-2.66 3.24-7 .7-10 2.94a1.4 1.4 0 0 1-1.75-.78 38 38 0 0 0-2.25-4.93c-2-3-1.3-5.4 1.72-7.2 4.4-.2 7.63 1.3 8.75 6 .45 1.9 2.28 2.8 3.53 4.1z" class="cls-339"/><path d="M136.2 50.1c1.46-1 .38-1.92-.05-2.87q0-1.52.06-3v-.16c2.9-.5 4.2 1.74 5.4 3.52a17.28 17.28 0 0 0 6.6 5.8c1.5 1 3.3 1.3 4.4 2.8a20.1 20.1 0 0 1 3.6 3.9l1 2.9v1a1.07 1.07 0 0 1-1.1.2 47.57 47.57 0 0 0-4.3-2.8c-1.7-1.5-3.4-2.8-5.9-2.7a3.52 3.52 0 0 1-1.8-.7 8.5 8.5 0 0 0-3.6-2.5c-1.5-1.2-3.2-2-4.6-3.2a2.22 2.22 0 0 1 .6-2.5z" class="cls-340"/><path d="M121.92 37.1c-4.24 4.5 1.72 7.9 1.26 12-1.4 2.7-3.45 4.24-6.66 3.6-2.3-1.25-1.5-4.22-3.22-5.8.93-2 4.8-3.14 2-6.36-.44-2.34 3.08-1.3 2.9-3.4 1.24.92 2.47-1.86 3.72-.03z" class="cls-338"/><path d="M91.2 54.1l-.1-9c1.24-2.38 3.75-3 5.88-4.07.75-.38 1.64-.14 1.3 1.13 0 1.1-.53 2.38.82 3.14a1.9 1.9 0 0 1 .8 1.85c-.93 3.46-1.6 6.9-.1 10.43a3.2 3.2 0 0 1-.53 3.63c-5.8-.5-7.84-2.3-8.07-7.1z" class="cls-341"/><path d="M99.1 47.3v-2c3.48-.25 7-.38 7.24-5.2 1.1-.54 2.08-.83 1.88 1-1.84 1.3.26 2.66-.05 4 0 2.17-1.5 3.53-2.64 5.1-2.72.25-5.4.5-6.42-2.9z" class="cls-342"/><path d="M98.25 42.1c-3.1-.75-4.27 3.23-7.18 3-2.58-4.93 3-3.06 4.13-5l3.08-.9c.3 1 1.4 2-.03 2.9z" class="cls-343"/><path d="M108.2 41.1a1.92 1.92 0 0 0-1.88-1c-1-1.34-1-2.62.32-3.78-.06 1.8 3.7 2.33 1.56 4.8z" class="cls-344"/><path d="M116.05 52.05c3 .53 4.65-2.18 7.12-2.92l1 1v2.72c.7 2.35-1.44 2.56-2.63 3.48-.93.5-1.9-.58-2.9.07.08 2.47 2.37 3.33 3.62 4.93a3.88 3.88 0 0 1 .6 1.23c.13 1.45 0 2.82 1.72 3.75 1.88 1 1.9 3 1.16 4.9-1.76 3.9-1 7.5 2.43 11 .13 2.5-3 3.4-3 5.8a2.3 2.3 0 0 1-1.93 1.2c-2.18 0-3.08-1.4-3.68-3.2-.07-2.1-1.1-2.8-3.12-2-.75.8-.66 1.8-1 2.7a2.25 2.25 0 0 1-1.5 1.1c-1.54-.2-1-1.7-1.7-2.5l-.04-1.9c-.7-1.6-2.46-2.8-2-4.9.9-2.9-2.28-4.5-2.18-7.2-1.23-1.2-3.62-.3-4.35-2.4a7.56 7.56 0 0 1-.63-1.1 3.74 3.74 0 0 1-.17-3.2c1.05-1 2.42-.6 3.66-.8 1.5-.4 2 1.9 3.56 1.3 4 1.6 4 1.6 8 5.7 0-2.3-1.9-3.1-3-4.2a12.74 12.74 0 0 1-3.2-3.8c-1.2-3.6 0-7.8-2.8-11a1 1 0 0 1 .2-.3.6.6 0 0 1 .8 0l3-.1c1.2-.5 2 .4 2.8 1.1z" class="cls-345"/><path d="M109.2 65.1c-1.36.88-1.6-1.55-2.87-1-3-.54-3.26-4.18-5.83-5.23-2.36-4.88-2.36-4.88 4.1-7.9 1.42-1 2.87-1.9 4.7-.93l.9 1c1.7 2.3 3.86 4.44 2.26 7.77-.55 1.2.33 2.2.74 3.3a9.6 9.6 0 0 1-4 3.1z" class="cls-346"/><path d="M109.3 50.1l-4.1 1.18a.63.63 0 0 1-.23-.6.37.37 0 0 1 .17-.33c-.43-2.55 1.6-3.7 3-5.25h1z" class="cls-347"/><path d="M116.05 52.05a3.9 3.9 0 0 1-2.85-1c-1-1.4.06-2.73.1-4.1 4.4-.2 1.9 3.37 2.75 5.1z" class="cls-348"/><path d="M142.43 160.17l-1.23-2.25c-1.18.1-2.4 1.22-3.53-.14a3.63 3.63 0 0 1-.33-2c1.57-3.2 2.62-6.65 5-9.4 3.8.87 2.7 4.5 3.87 6.85 1.1 2.88 0 6.23 2 8.93v2c-2.4 1.52-4.3 2.12-4-2a1.73 1.73 0 0 0-1.7-2z" class="cls-349"/><path d="M147.13 135.98a6.43 6.43 0 0 1 6.8 4c-2 0-4.06 0-5.82 1.3-1-.08-2.1-.47-3 .6l-2.6-.42c-1.7-1.17-2.7-2.48-1-4.42 1.8-1.3 3.5-2.55 5.7-1.06z" class="cls-350"/><path d="M142.34 146.35l-4.25 9.4c-1.7.74-1.3-.65-1.5-1.43a4.16 4.16 0 0 1 1.5-2.38l3.1-6.87z" class="cls-351"/><path d="M148.14 162.1c-3.9-2.26-1.1-6-1.94-8.92a21.73 21.73 0 0 1 1.94 8.93z" class="cls-235"/><path d="M156.4 143.95a2.23 2.23 0 0 1 2 1.13c-3.25 5.08-2.34 10.7-1.87 16.16.2 2.17.36 3.55-2.18 3.8-.06-5.77-.12-11.55-.2-17.34-.02-1.72.05-3.37 2.24-3.75z" class="cls-352"/><path d="M137.04 154.1a1.37 1.37 0 0 0 1 1.62l.16 2.4a2.34 2.34 0 0 1 .07 3.1c-.8 1.14-2.08.78-3.2 1a4.3 4.3 0 0 0-2.23-2.3c-1.57-2.75-.18-6.06-2.38-9.07-1.57-2.15 1.6-2.77 3.67-2.67 2.22 1.38 2.46 3.72 2.9 5.93z" class="cls-353"/><path d="M138.3 161.25l-.1-3.14c1 .2 1.78-2.9 3-.2-.2 1.1.23 2.3-.64 3.2z" class="cls-354"/><path d="M137.04 154.1c-1.77-1.6-1.7-4.08-2.9-6l-1-3.1c4.38.34 2.2 5.4 5 6.9a2.1 2.1 0 0 1-1.1 2.2z" class="cls-355"/><path d="M127.95 149.24h-1.42c1.53-2.5 3-5.16 6.66-4.3z" class="cls-356"/><path d="M130.2 127.02c1.78.06 3.68.42 4.8-1.5 1.24-2.06 2.68-1.22 4.15-.37a1.72 1.72 0 0 1 1.5 1c.76 1.22 2.32 2.1 1.66 3.9.3 2.92-.8 4.54-4 4-1.5-.1-1.9-1.67-3-2.38-.8-.55-1.7-1.1-2.6-1.7a5.68 5.68 0 0 0-1.8-.6c-1.1-.25-2.3-.35-2.9-1.58.4-1.3 1.2-1.4 2.3-.8z" class="cls-357"/><path d="M106.38 150.3l-.1-1.1c.78-3.24 3.26-4.35 6.14-5a12.3 12.3 0 0 1 1.92-.88 5.7 5.7 0 0 1 3.48 0 4 4 0 0 1 1.67 1.22 3.7 3.7 0 0 1 .7 1.9v.67l-.2 4.2a4.24 4.24 0 0 1-1.8-2.8c-.5-3-1.9-1.2-3-.5-3.8-.2-3 3.9-5 5.3-2.7.9-3.4-.9-4-2.9z" class="cls-358"/><path d="M133.2 128.8a2.43 2.43 0 0 1 1.9 2.3 1.68 1.68 0 0 1-.92 1c-2.18 3.45-4.72 6.73-6.44 10.4-1.63 3.48-3.8 5.1-7.58 4.57l.16-.12c.77-3 4.53-3.9 4.8-7.18a10.17 10.17 0 0 1 1.43-2.34c2.88-2.38 3.53-6.47 6.65-8.62z" class="cls-359"/><path d="M134.2 132.1l.9-1c2 0 2.33 1.76 3.15 3-.82.73 0 2.6-1.4 2.63s-1.5-1.36-1.72-2.5a9.5 9.5 0 0 0-.93-2.12z" class="cls-360"/><path d="M147.13 135.98l-5.68 1c1.43-3.9 5-2.37 7.7-3.06-.13 1.25-1.46 1.27-2.02 2.06z" class="cls-361"/><path d="M142.28 130.04c-.6-1.27-2.08-2.08-2-3.72a.6.6 0 0 1 .9-.36l3.82 1.2c.08.27.15.56.2.84-1 .62-1.33 2.24-2.92 2.04z" class="cls-362"/><path d="M44.25 151.1l5-.22c2.84-1.4 5.4-3.16 7-6 1.5 0 2.07 1 2.43 2.22a2 2 0 0 1-.46 1.34c-2.55.1-3.4 2.63-5.26 3.7-2.95-.1-6 .83-8.7-1.03z" class="cls-363"/><path d="M37.2 136.2c-.76 4.72 1.38 9.9-2.24 14.17-.78.77-1.33 1.93-2.74 1.6l-.17-5.1a2 2 0 0 1-.14-1.3c.6-1.6 1.6-3.22-.4-4.56-.8-.7-1.8-1.4-1.3-2.8 2.3-.9 4.3-2.9 7.1-2z" class="cls-364"/><path d="M130.2 127.02a2.14 2.14 0 0 0-1.9 1.12c.5 3.6-2 5.75-4 8.16-3.45-1.5-4.6-6.4-9.2-6.24-1.86-.83-2.68-2.15-2-4.2a16.56 16.56 0 0 1 5-5.78c1.2-1 2.62-2.24 4-.12 1.15 2 3.3 3.27 3.84 5.85.52 2.3 3.26-1 4.26 1.3z" class="cls-365"/><path d="M122.13 119.96c-4.36-.17-5.5 3.86-8 6.13-2.77 2.7-6 4-9.93 3.2-.77-1-.72-2.2.2-2.6 5.44-2.5 8.8-7.6 13.7-10.7a4.15 4.15 0 0 1 2.84-.8 2.2 2.2 0 0 1 1.27.8c0 1.3 1 2.6 0 3.8z" class="cls-366"/><path d="M129.08 116.23l2.12-1.12a8.54 8.54 0 0 1 5.88 2.9c-3.3 2.3-5.73.6-8-1.7z" class="cls-367"/><path d="M141.2 125.96l-.9.36-1.18-1.2c0-1.13.22-2.28-.92-3 .67-1.52 2-2.45 3.43-1.86 2.17.9-.7 1.9-.2 3a2.8 2.8 0 0 1-.23 2.7z" class="cls-368"/><path d="M138.2 122.1l-5.85 3c1.08-2.9 2.5-5.05 5.84-3z" class="cls-369"/><path d="M122.2 116.16l-1-.1c.55-3.52 2.8-2.75 5.06-2l2 2c-1.95 1.05-4-.47-6.06.1z" class="cls-370"/><path d="M153.35 103.1c-.07-4.23-1.9-8-3-12a9.43 9.43 0 0 1-1.57-7.04c3.73-4.15 7.4-4.22 12-.26a2.44 2.44 0 0 1-.58 2.3c-4.36.7-6.08 3.43-6 7.62.05 2.8.06 5.58.1 8.37z" class="cls-371"/><path d="M145.33 109.98c-1.58.9-.45 4.1-3.3 3.9-1-1-3.14-.08-3.66-1.94s1.76-1.5 2.36-2.56c-.72-1.67-2.24-1.08-3.38-1.4-.76-1.12.26-1.32.9-1.72v-.15c3.56-.8 6.15 0 7.08 3.9z" class="cls-372"/><path d="M138.26 106.28l-.9 1.73-5.37 1.3c-1.1-1.1-4.9-2-.4-3.5 1.5-.5 1.3-2.2 2.3-3.3 1.7 1.2 1.2 4.6 4.3 4z" class="cls-373"/><path d="M145.33 109.98c-1.76-2.36-4.57-2.8-7-3.85.7-5.8 6.6-2.9 9.36-5.87-.9 2.6-2.7 5.24 1.6 5.87z" class="cls-374"/><path d="M30.14 138.2l2 2c1.62 2 1.23 3.93.07 5.92a4.7 4.7 0 0 0 0 .73c-1.7 1.23-3.1 3.6-5.6 1.14 1.6-2.2 1.1-4.3-.1-6.5-.6-1.1-1.8-2-1.2-3.5 1-1.7 2 1.6 3 0z" class="cls-375"/><path d="M25.2 138.1c.75 1.77 2.47 2.7 3.36 4.55 1.46 3.05.7 4.34-2 5.36a2 2 0 0 1-.3-.8l-4-9z" class="cls-376"/><path d="M109.07 160.8a35.4 35.4 0 0 1 5.13-10.7v5c-.5 2.25-.6 4.67-3 5.92-.8.33-1.6 1.1-2.13-.23z" class="cls-377"/><path d="M111.12 161.03a12.42 12.42 0 0 1 3-5.9l1 3c-1.43 1.36-.26 3.78-2 5-1.35-.02-1.85-.9-2-2.1z" class="cls-378"/><path d="M113.13 163.1c-.06-2 0-3.88 2-5-.6 1.7 3.52 5.33-2 5z" class="cls-379"/><path d="M69.02 152.28h-1.68l-1.14-1.17c.85-1.3.37-3.6 2.76-3.8a4 4 0 0 1 1.32.3c1.54 1.9 4.24 1 5.9 2.6-.7 1-2.2 1.4-2 3 .76.9.5 1.7-.4 2.3-1 .2-1.57-.6-2.27-1.1-.8-.5-1.9-.8-2.4-1.8z" class="cls-380"/><path d="M69.32 148.04c-2 .05-1.7 2.4-3.07 3.1l-.84 1.14c-.8-1.3-2.2-1-3.3-1.33 1.5-2.6 2.3-5.66 5.1-7.33a2.26 2.26 0 0 1 2.7.9 3.42 3.42 0 0 1 .4 2.2 3.7 3.7 0 0 1-.7 1.32z" class="cls-381"/><path d="M58.2 148.43v-1.6c-1.18-2.32-.13-4.45.6-6.6.53-1.56 1.16-3 3.23-2.6a4.83 4.83 0 0 1 2.74 3.48c-1.93 2.5.22 7.5-4.88 8h-.8z" class="cls-382"/><path d="M67.32 144.17c-2.6 1.6-1.27 6.3-5.3 6.78-1.4.1-2.65-.06-2.9-1.82h.08c2-.56 4-.76 3.63-3.94s2.4-3.5 4.67-3.8a1.3 1.3 0 0 1 1.65 1.3c-.1.9-1.38.7-1.83 1.4z" class="cls-383"/><path d="M105.15 165.97c-.9-3.63.2-7.2.33-10.78a2.66 2.66 0 0 1 3.47 1z" class="cls-384"/><path d="M108.94 156.18a5.57 5.57 0 0 1-3.47-1l-.15-2 1-2.88a7.72 7.72 0 0 0 3.9 2.9z" class="cls-385"/><path d="M160.2 86.1v-2c-.1-2.83-3.1-3.14-4.4-5s-3.63-3.2-4.5-5.6c0-4 0-7.93 4.88-9.32h1a2.24 2.24 0 0 0 1.13 1.92l3 5c-1.6 4.38 2 6.95 3.8 10 1.4 2.36 3 4.62 4.3 7.08-3.3.8-5.7-2.84-9-2.07z" class="cls-386"/><path d="M151.2 57.02c.2-2.27-3.53-.28-3.08-2.83-.8-.9-2.85-1.5-1.76-3 1.22-1.6 2.56.4 3.88.7l2.88.3 1 2.9c-.35 1.5-1.14 2.4-2.92 1.9z" class="cls-387"/><path d="M151.2 57.02l3-1.88c2.83.8 1.95 3.08 2 5z" class="cls-388"/><path d="M150.27 51.96l-3.55-.53 1.43 2.76c-2.84-.9-5.47-1.7-6.84-5-.8-2.1-3.3-3.5-5.1-5.2.1-2 1.8-2.3 3.1-2.9 2.2 4.2 5 7.8 10 9z" class="cls-389"/><path d="M102.3 145.1a2.22 2.22 0 0 1-1 2h-6c-2.3-.6-5 2-7-.87.72-1.65 2.92-1.2 3.78-2.66 1.47-2.26 0-5.2 1.74-7.4 2.88-.5 2.26 1.86 2.7 3.33s-.84 3.8 2 4.23a7 7 0 0 1 3.37.8z" class="cls-390"/><path d="M76.2 150.1c-2.14-.33-5.14 1.92-6.06-2a2 2 0 0 1 1.18-.5c1.76.25 3.35.06 4.42-1.6a2.77 2.77 0 0 1 1.2-.5 3.47 3.47 0 0 1 1.3.23c1.08.7 2.34 1.2 3 2.43l.96 1.95z" class="cls-391"/><path d="M81.1 134.22c1-.42 2.15 1 3.16-.13a2.55 2.55 0 0 1 2.24-.6c3 1.4 5 3.2 2.44 6.7-1.7.2-.9-1.6-1.68-2.1l-.3-1.2c-2.1-1.4-2.82 1.5-4.5 1.4a2.63 2.63 0 0 1-1.65-1.1 3.62 3.62 0 0 1-.4-1.3 2.74 2.74 0 0 1 .7-1.9z" class="cls-392"/><path d="M81.3 137.1l1 1a16.15 16.15 0 0 1 0 7.83l-1 2.18c-1.28-.1-2.9.2-3-1.8l.23-.7c2.5-2.2 0-6.2 2.77-8.4z" class="cls-393"/><path d="M82.3 146v-7.83c1.5-.7 2.54-3.24 4.7-1.12-2.87.67-3.86 2.6-3.8 5.37 0 1.24.37 2.63-.9 3.57z" class="cls-394"/><path d="M87.27 138.2l1 1.92c1.3 1.34 1.7 3.56 3.86 4.1a5.16 5.16 0 0 1 1 .9c-1.27 1.75-3.26.58-4.82 1.2-2.5-2.45-.3-5.47-1-8.13z" class="cls-395"/><path d="M79.03 151.92c2 2.14 1.3 4.64.7 7a12.4 12.4 0 0 0 .4 8.23 37.07 37.07 0 0 1-4.76 2.68c-.82.33-3 1.44-2.18-1.4 1-2.72 2-5.43 1.6-8.44a39.42 39.42 0 0 1 .5-6.9c.9-1.5 2.4-1.1 3.7-1.2z" class="cls-396"/><path d="M75.3 153.1c1.48 2.2 1 4.65.87 7-.4.5-.6 1.28-1.46 1.23-2-1.15-.8-3.95-2.7-5.14 0-.8.2-1.4 1.2-1.2a2.12 2.12 0 0 0 1.1-2z" class="cls-397"/><path d="M113.25 145.27c-2.57.87-5.34 1.4-7 3.9.38-3-2.22-3.1-4-4l-.05-.16a3.72 3.72 0 0 1-.85-1.2 3.28 3.28 0 0 1 .57-2.9 5.47 5.47 0 0 1 4.88-1.2c1.12.6 1.47 1.7 2.06 2.6l.74 1c1.08.9 2.92.6 3.65 2.1z" class="cls-398"/><path d="M75.2 161.1l.94-1c0 3.14 1.47 6.77-3 8.3l-1.85-.42c-2.2-5.1-3.8-10.17.9-14.85a1.74 1.74 0 0 1 .8 2l-.9 1c1.6 1.45.6 3.47 1.2 5.15 0 .23-.7 1.87.8.93.4-.2.6-.7 1-1.1z" class="cls-399"/><path d="M72.25 153.16c-2.7 4.8-2.27 9.8-.9 14.86-2.8-2-2-5.3-3.13-7.92 1.1-2.52.5-5.22.8-7.82z" class="cls-400"/><path d="M69.36 147.1l-.16-2c.94-1.9-.3-3.46-.82-5.13a2 2 0 0 1 .9-1.78l.15-4 1.7-.3a2.6 2.6 0 0 1 3.24 0c.76 2.7.15 5.5.67 8.3.85 4.4-.92 5.7-5.68 4.8z" class="cls-401"/><path d="M74.1 134.23l-2.94-.24c.2-1 .7-2.1 1.83-1.7 3.6 1.3 3.1-1.2 3.2-3.3 2.2 1 2.1 2.8 1.8 4.8a1.74 1.74 0 0 1-.7 1c-1.3.7-2.5.7-3.3-.7z" class="cls-402"/><path d="M59.2 140.1a15.84 15.84 0 0 1-1 6.7l-1.82-1.6a2.68 2.68 0 0 1-2.55-1.2 1.5 1.5 0 0 1 .53-1.93 2 2 0 0 0 1.93-2.12c.6.06 1.2 1.07 2 .1a.53.53 0 0 1 .9.06z" class="cls-403"/><path d="M59.2 140.1l-.9-.06c-.18-1.57-.74-3.15.17-4.68 1.5.36 3.28-1.23 4.57.64-.33.67 0 1.62-.88 2-1.54 0-1.96 1.54-2.96 2.1z" class="cls-404"/><path d="M43.1 141.05a10.1 10.1 0 0 0 5.13-2.87c2.15.43 4.1 1.06 3.83 3.88a1.14 1.14 0 0 1-.58 1.22c-.66.1-.44-.6-.42.06a5.42 5.42 0 0 0 .83.36l.2.42c-.7.6-1.1 1.9-2.5 1.18-1.5.9-2.9 2.3-4.9 2-.8-.4-2.1.4-2.2-1.14-.2-2.58 2.6-.9 3.4-2.47-.7-1.2-3.6-.2-3-2.7z" class="cls-405"/><path d="M44.8 147.3c1.62-.65 2.12-4.1 4.87-2-.12 3.96-.7 4.2-4.88 2z" class="cls-406"/><path d="M54.2 144.1a2.3 2.3 0 0 1 2.15 1.14c-1.07 3.5-4 4.75-7.1 5.65.75-2.6 4.4-2.1 4.92-4.9a1.3 1.3 0 0 1 .03-2z" class="cls-407"/><path d="M54.2 144.1v1.94l-2.07-1.93.07.1c-.35-.4-1.12-.6-1.13-1.3l1-.7c.76-.2 1.54-1.3 2.28 0z" class="cls-408"/><path d="M62.13 138.1l.88-2c1.5 2.7 4.1 2 6.4 2.22l-.1 1.8c-1.2 2-3 1.74-4.8 1-.9-1-2.3-1.45-2.2-3z" class="cls-409"/><path d="M91.2 54.1c1.53 3.62 4 6.13 8.06 6.6l.3.64a2.43 2.43 0 0 1-1.43 2.24c-1.76 1.4-3.4-2.68-5.2-.1a1.63 1.63 0 0 1-1.77-.42c-1.38-2.48-.85-5.22-1.08-7.86l.25-1.17a7.23 7.23 0 0 0 .87.08z" class="cls-410"/><path d="M91.14 63.1h2.06a4.74 4.74 0 0 1 2.06 2.63c.37 2.4 3.65 3.45 3 6.34-4.53-.4-7.77-2.4-8.87-7.07a1.73 1.73 0 0 1 1.7-1.9z" class="cls-411"/><path d="M112.26 84.97l1.65 2c2.2 1.3 3.3 3.42 4.2 5.64.4 1.4.5 2.7.8 4 .3.8-.3 1.8.4 2.5a20.8 20.8 0 0 0 2 8.1c.8 1.6 1.3 3.1 0 4.6 0 2-1.5 2.8-2.9 3.8-5.4 4-10.5 8.5-15.9 12.6-1.5 1.2-2.9 2.3-4.8 1a34.24 34.24 0 0 1-2.6-2.7c-2.9-4.6-5.6-9.3-3.8-15.1 3.2-1.6 5.8-3.3 10-3.7 5.2-.6 10.7 1 15.6-1.8-2.4-.5-3.9-1.3-2.1-4.6 1.2-2.1-.6-5.3-1.4-7.7-.8-2.8-.8-5.5-.9-8.2z" class="cls-412"/><path d="M91.2 111.1c.88 5.27 1.83 10.5 5 15a34.4 34.4 0 0 1-1.4 4.22c-.87 3.17-2.7 3.9-5.54 2.4.34-5.9-3.67-11.6-1.06-17.6v-2l2.06-2z" class="cls-413"/><path d="M110.2 78.2a4.62 4.62 0 0 1 2 4.92l-3.95-2V79a1.84 1.84 0 0 1 1.95-.8z" class="cls-414"/><path d="M88.2 115.1c.2 2.9 0 5.67 1.42 8.57 1.15 2.35 1.65 5.64-.4 8.32-1.6 1.7-3.27 1.2-5 .1-1.14 0-2.3 0-3.43-.1a1 1 0 0 1-1.2-1.3c.1-.7.7-1.4 1.4-.9 3.7 2.4 3.4-1.4 4-2.9a15 15 0 0 0 1.1-7.2c-.2-1.9-.1-3.7 1.9-4.7z" class="cls-415"/><path d="M84.2 132.1l5-.12c2.44.67 4.26.6 4.48-2.72.08-1.25.45-3 2.48-3.1L98 128.3c-.47 1.57 1.6 2 1.46 3.48-2.53 3.84-2.33 7.9-.9 12a1.47 1.47 0 0 1-.36 1.33c-2 1.3-2.9.9-3-1.6s.57-4.9-.8-7.2a1.57 1.57 0 0 1-1.25.4c-2.17-1.1-4.6-1.5-6.87-2.4h-2q-.08-1-.08-2z" class="cls-416"/><path d="M77.06 134.04l1-.18 3 .36v1.85c-1.66 1.3-1.45 3.17-1.47 5s-.1 3.63-1.4 5.1v.18l-1-.25c-2.4-4-1.8-8-.2-12.06z" class="cls-417"/><path d="M98.2 72.1c-1-2.28-4-3.2-4-6.17a2.4 2.4 0 0 1 1.44-.4c2.9.7 6 .64 8.5 2.6.6 1.86 3.9.13 3.83 2.87-.8.17-2.17.15-2.3.54-2.06 6.43-4.87 2.02-7.47.57z" class="cls-418"/><path d="M156.2 64.1a12.4 12.4 0 0 0-3.82 9.95c.8 1.56.2 2.75-1.1 3.66s-2.34.8-3.06-.7c-1.27-3.3-4.94-5.6-4-9.8-.16-1.5 3-1.2 1.87-3.3a11.3 11.3 0 0 1 4.2-3.3 3.73 3.73 0 0 1 2 .4c1.5.9 3.6.9 3.8 3.2z" class="cls-419"/><path d="M99.2 131.22c-2.38-.12-3.28-.9-1.26-2.9.6.13 1.44.6 1.74.37 7.22-5.7 14.4-11.3 21.57-17 2 .1 4.1-.1 5 2.3-1.64.8-4-.3-5.06 2-2.8.2-4.3 2.5-6 4.1-3.5 3.3-7.5 5.8-11.1 8.8a2.8 2.8 0 0 1 1.3 1.2 2 2 0 0 1-.3 1.2 5 5 0 0 1-1 .8c-1.9.8-4.1 2.5-5.1-1.1z" class="cls-420"/><path d="M128.2 82.1c-2.34.2-4.8-1.16-4.16-3 .95-2.7-3.2-6 1.08-8 1.68-1 3.36 1.67 5 0 2.42 1.65 4 4.9 8.36 3.5-2.05 3.43-3.63 5.75-7.28 5.18a2.42 2.42 0 0 0-3 2.33z" class="cls-421"/><path d="M129.32 91.1a5.82 5.82 0 0 1 .95 0c2 1.34 4.07 2.68 1 5 .8 5.3-3.82 6.55-6.74 9-1.28 1.1-2.12.44-2.22-1.1v-3.9c1.6-2.9.9-5.95.7-8.96 2.1-2.1 4.3 1.1 6.4-.03z" class="cls-422"/><path d="M148.2 77c3 1.3 3.5-.9 4.16-2.9 3 2.9 6.06 5.68 8.9 8.7 1.5 1.57.67 2-1.06 1.3-3.82-1.3-7.8-4.28-11 1-2.94-.35-2-2.85-2.52-4.54a2.5 2.5 0 0 1 .5-1.37z" class="cls-423"/><path d="M146.2 64.1c1.17 2.27-1.06 2.25-2.05 3-2.67 1.8-4 .44-4.94-2 1.3-1.53.6-2.38-1-3a9.73 9.73 0 0 1-5.1-1c-.2-1.94 1.4-2.22 2.6-2.82 2.5.23 2-3.6 4.6-3.32 2.1.18 4.4.07 4 3.3a34.78 34.78 0 0 1 2.1 5.85z" class="cls-424"/><path d="M135.8 82.1c1.35.38 4-.94 4.13 1.8.1 3.8-3.65 1.46-5.4 2.68-1.15.8-3.6 1-4.14-1.13s1-3.28 3.2-3.34h2.2z" class="cls-425"/><path d="M123.2 91.2c1.3 3.16 3.52 6.42-1 8.93l-3-1.1a1.6 1.6 0 0 1-1-1.7c1.57-1.7.53-3.14-.46-4.58-.28-1.88.92-2.7 2.37-3.36a3.44 3.44 0 0 1 3 .3 1 1 0 0 1 .1 1.4z" class="cls-426"/><path d="M130.2 71.1c-1.68 2.3-3.36.75-5 0-.53-1.45 1.66-4-2.6-4-2.75 0-.25-3.1-.32-4.8 2.36-.4 2.6 1.33 2.94 3 2.3 1.3 3.58 3.6 4.98 5.8z" class="cls-427"/><path d="M136.34 59.1l-3.26 2c-4.57-2.08-2.85-5.63-2.08-9 2.82-.2 2.82 3.4 5.17 3.83.88 1.05 1.13 2.1.17 3.18z" class="cls-428"/><path d="M147.3 80.2c1.66 1.24.22 3.67 1.88 4.9.8 1.92 1.84 3.78 1.14 6-3.67-.47-4-3-3.6-5.93-2.34-1.97-1.75-3.56.57-4.96z" class="cls-429"/><path d="M131.2 96.1c1.54-2 0-3.43-1-5a4.45 4.45 0 0 0 1-.17c2-.85 4-1.35 4.93 1.28s-2.2 2.3-3 3.7c-.2.4-1.25.3-1.93.3z" class="cls-425"/><path d="M135.2 56.1c-4.16 1.62-1.82-3.68-4.2-4 1.4-1.5 3.5-1.24 5.2-2v2.96c-.1 1.1-.1 2.24-1 3.05z" class="cls-430"/><path d="M125.2 65.28l-2.94-3-.22-.27a2.52 2.52 0 0 1 1.5-2.8l.66-.1c4.57 1.4 3.63 3.7 1 6.2z" class="cls-431"/><path d="M123.2 91.2l-.15-1a1.4 1.4 0 0 1 .2-2l1.93-.3c2.47-.33 2.75 2.12 4.1 3.22-1.94 3.2-4.02-.3-6.08.08z" class="cls-432"/><path d="M147.3 80.2a4.07 4.07 0 0 0-.58 4.94c-2.5.3-2.8-.8-2.9-3.2-.13-3.07 1.5-2.76 3.34-2.74z" class="cls-433"/><path d="M121.1 56.1c-.06-2.12 2.54-1.68 3.1-3.2 2.1 2.08.13 4.16 0 6.25-2.15.1-3.12-1-3.1-3.04z" class="cls-434"/><path d="M138.2 62.1c1.14.4 1.47-3.2 2.78-.74.7 1.34 1.46 3.78-1.78 3.75-.13-1-2.06-1.4-1-3z" class="cls-435"/><path d="M135.2 56.1c.23-1-1.5-2.75 1-3 2.22-1.23 3 .56 4 1.9-2.2.54.5 5.7-3.9 4.14-.2-1.03.08-2.33-1.1-3.03z" class="cls-436"/><path d="M146.2 64.1c-2-1.5-3.45-3.18-2.1-5.87l2.1-.12c1.23 1.2 3.4 1.3 4 3.3-1 1.4-2 2.8-4 2.8z" class="cls-437"/><path d="M150.2 61.36c-1.68-.64-3.8-.77-4-3.25 2.93-1 4.53 1 6.16 2.9z" class="cls-438"/><path d="M105.2 50.35a6 6 0 0 0 .06.93c.13 4.64-3.4 1.2-5.16 3 .2.92-.4 2.7 1.3 4a2.83 2.83 0 0 1-.88 3 .88.88 0 0 1-1.14-.2l-.1-.27c-.94-4.4-3.63-8.9-.12-13.4 1.42 2 4.43 1.1 6.04 3z" class="cls-439"/><path d="M109.2 65.1c.72-1.8 1.65-3.35 4-3 1 2.76 3.83 3.8 5.68 5.78 1 1 3.1 1.64 1.4 3.3-1.37 1.38-4.84.32-4.8-.06.5-4.94-4.7-3.56-6.28-6z" class="cls-440"/><path d="M121.1 56.1l3.1 3-2.2 3c-1.55-.85-3.05-1.6-4.08-3.27s-1.74-3.23-.5-4.38c1.83-1.75 2.48.93 3.7 1.66z" class="cls-338"/><path d="M123.28 88.2l-.2 2-2.78-.1c-2.23-.8-4.4-1.66-5.15-4.25a1.76 1.76 0 0 1 0-2.6c2.3-.86 3.55 1.16 5.3 1.87 1.06.92.68 3.16 2.83 3.07z" class="cls-441"/><path d="M99.33 61l1.12-.08c.58-.92 1.4-1.45 2.2-.44s1.75 2.3.58 3.76l.78 2.86c-2.6.22-5.3.44-7.1-2 .2-1 1-1.6 1.4-2.48z" class="cls-418"/><path d="M115.15 85.86l5.15 4.25c-.7 1-2.32 1.3-1.88 3a.78.78 0 0 1-1.17 0c-.68-2.2-3.16-3.5-3.33-6.1z" class="cls-442"/><path d="M103.2 64.25c-.62-1.37 0-3.74-2.8-3.32l.92-2.7c3.53.4 2.94 4.27 5 5.94-.97 1.66-2.04.26-3.12.08z" class="cls-443"/><path d="M97.2 65.1l6.82 2 .17 1c-3.2-.07-6.3-.08-9-2 0-1.7.9-1.53 2-1z" class="cls-444"/><path d="M120.45 85.1c-2.1.37-3.6-1-5.3-1.86.4-4.23 3.8.86 4.8-1.54 1.73.93-.2 2.4.5 3.4z" class="cls-445"/><path d="M124.04 135.87c.54-3.05 3.07-5 4.24-7.72l4-.05a2.7 2.7 0 0 1-1.45 3.3c-2.6.3-2 3.14-3.55 4.38s-1.44 1.4-3.24.1z" class="cls-446"/><path d="M130.2 131.18l2-3.1a.8.8 0 0 1 1 .73c-1.36 3.6-2.9 7-6.06 9.5-1.3-3.3 1.66-4.8 3.06-7z" class="cls-447"/><path d="M105.35 130.18l-1.15-1.12 9.93-3c-.85 1.58-.27 2.58 1.3 3.18.6 4.47 4.3 7.12 6.3 10.8a4.25 4.25 0 0 1-3.55 4h-3.92c-2.7-2.5.63-5.9-1.3-8.5a4 4 0 0 0-1.52-2c-1.7-1.6-4.32-1.73-6.1-3.36z" class="cls-448"/><path d="M114.12 134.22c1.75 3.26.12 6.58.18 9.87l-1 1.1c-1.67-.5-3.88 1.1-5.05-1.3a6.5 6.5 0 0 0 3.72-6.3c-.1-1.4-.42-3.5 2.15-3.5z" class="cls-449"/><path d="M118.2 144.1l3.06-3.9c1.87-.4 2.63.8 3.25 2.22-.9 2.62-3 3-5.3 2.78z" class="cls-450"/><path d="M119.2 145.2c1.53-1.13 4-.77 4.85-2.94-.3-1.72.48-2.38 2.15-2.13 0 3.9-3 5.3-5.82 6.86a1.63 1.63 0 0 1-1.18-1.8z" class="cls-451"/><path d="M126.2 140.1a4 4 0 0 0-2.15 2.14l-2.76-2.05a22 22 0 0 1-6.5-8c-.6-1.3-.7-2.2.6-3 5.5-1.3 6.5 3.4 8.6 6.6 2.5 1.3 2.1-1.5 3.1-2.4a21 21 0 0 0 2.5-3.6.75.75 0 0 1 .4.2 6.8 6.8 0 0 1 .1 1c-.2 2.7-3.1 4.2-3 7z" class="cls-452"/><path d="M32.2 146.1l-.07-5.92c3.74 1.93 2.33 3.93.07 5.93z" class="cls-261"/><path d="M77.06 134.04l.13 12h-1c-.8-2.53-.5-5.06-.4-7.6a49.08 49.08 0 0 0-.1 6.47c.2 3.6-1.3 4.5-4.4 3.2l-1.2.1h-.9a1.56 1.56 0 0 1 0-.9c3.8.2 5.6-1.1 4.3-5.2a10.4 10.4 0 0 1 .4-7.6 2.47 2.47 0 0 0 2.9-.1z" class="cls-453"/><path d="M64.35 141.06l4.8-1c1 1.67 1.62 3.36.1 5.07a1.86 1.86 0 0 0-1.93-1 2.72 2.72 0 0 0 .83-1.16c-.22-1.74-1.32-.6-2-.43-1.43.37-3.27.77-2.78 2.75 1 4.1-1.63 3.8-4.2 3.7 1.46-1.3 3.73-1.9 3.06-4.6-.42-1.7 1.2-2.4 2.12-3.4z" class="cls-454"/><path d="M98.2 145.1v-.86c1-3.07-.9-7 2.8-9.3a2.65 2.65 0 0 1 1.07 1.2c1.5 2.65-1.5 5.32.07 8q0 .48.06.96z" class="cls-455"/><path d="M93.2 136.1l1.2.1c-.3 3 .4 6.14-1.3 8.94l-1-.1c-1.54-3.25-.85-6.18 1.1-8.93z" class="cls-456"/><path d="M71.32 148.1c3 .46 4.24-.78 3.93-3.88a14.15 14.15 0 0 1 .92-6.95v8.84c-.27 4-2.15 4-4.85 2z" class="cls-457"/><path d="M93.2 136.1a28.82 28.82 0 0 1-1.14 8.93c-4.4.82-4-2.12-3.8-4.9 2.4-3-.25-4.3-2-5.93 2.45.23 5.52-1.9 6.94 1.9z" class="cls-458"/><path d="M78.28 146.1c0-2.4 0-4.83-.1-7.24-.1-2.13 1-2.88 3-2.8l.14 1.05c0 2.1-.2 4.2-.1 6.3s-1.02 2.9-2.94 2.8z" class="cls-459"/><path d="M75.2 161.1c-.05 1.17-.08 2.34-.17 3.5a1.7 1.7 0 0 1-1.6 1.64c-1.6.1-1.22-1.25-1.23-2.1 0-2.67 0-5.34.05-8 4.15-.2 1.36 3.7 2.95 4.97z" class="cls-460"/><path d="M105.35 130.18c2.68.06 5.33.17 6.93 2.85a16 16 0 0 1-.08 8.08c-.56 2.2-1.8 3-3.94 2.2-1.33-.7-.87-2.1-1.1-3.2a3.28 3.28 0 0 1-.8-2.6c.96-2.4-1.44-4.1-1.32-6.4a2.9 2.9 0 0 1 .3-.8z" class="cls-461"/><path d="M107.4 137.1l-.3 2.9-4.73 1c-1.4-3.72-.7-6.25 3.75-6.66a1.87 1.87 0 0 1 1.3 2.77z" class="cls-462"/><path d="M108.2 143.33c3.2-.1 3.52-2.57 3.86-4.83a45.78 45.78 0 0 0 .2-5.47 2 2 0 0 1 1.84 1.2c-1.72 1.57-.75 3.66-.95 5.5-.33 3.14-1.55 4.88-5 4.22a6.06 6.06 0 0 1 .05-.62z" class="cls-463"/><path d="M106.06 134.98c-3.2.84-4.07 3.08-3.68 6.1l-.2 3c-2-2.44-.53-5.26-.9-7.88 2.07-3.42 2.92-3.63 4.78-1.22z" class="cls-464"/><path d="M51.06 142.83a1.4 1.4 0 0 1 1.13 1.35c-1.2.2-2.1.23-1.2-1.35z" class="cls-465"/><path d="M97.2 65.1a2.1 2.1 0 0 0-2 1l-.94-.17-1.06-2.82c-.4-.8-1.34-2.1-1.1-2.4 1-1.1 2-.2 2.8.6s1.8 1.9 3.3 1.4a2.33 2.33 0 0 1-1 2.6z" class="cls-466"/><path d="M117.25 93.1h1.16c1.1.2 2.8-.56 2.5 1.78-.2 1.76-1 2.52-2.7 2.47-1.6-1.13-1-2.8-.9-4.24z" class="cls-467"/><path d="M101.2 135.1c-1.78 1.53-.82 3.6-1 5.42-.18 1.5.47 3.38-1.93 3.7-3.45-3.05-2.85-10.62 1-13 1.63 2.26 3.25.3 4.88 0 1.4 3.12-2.07 2.5-2.95 3.9z" class="cls-468"/><path d="M101.2 135.1c.3-1.8 3.05-1.73 2.93-3.85a1.62 1.62 0 0 1 .88-.17c1.4 1.82 4.2 3.06 2.4 6.1-.2-.86-.3-1.8-1.3-2.16-2.2-2.1-3.3.27-4.8 1.2z" class="cls-469"/></svg>