<svg xmlns="http://www.w3.org/2000/svg" id="Layer_1" data-name="Layer 1" viewBox="0 0 184.05 184.17">
    <defs>
        <style>.cls-1{fill:#101514;}.cls-2{fill:#0d0b0b;}.cls-3{fill:#151a1c;}.cls-4{fill:#b2bfcd;}.cls-5{fill:#181e20;}.cls-6{fill:#181617;}.cls-7{fill:#323838;}.cls-8{fill:#252e2f;}.cls-9{fill:#292c2e;}.cls-10{fill:#4b535c;}.cls-11{fill:#424b53;}.cls-12{fill:#0f1012;}.cls-13{fill:#75706d;}.cls-14{fill:#8c8a89;}.cls-15{fill:#6e7b8d;}.cls-16{fill:#303234;}.cls-17{fill:#989390;}.cls-18{fill:#5e6b7d;}.cls-19{fill:#a9afbb;}.cls-20{fill:#1a2426;}.cls-21{fill:#212930;}.cls-22{fill:#3f464a;}.cls-23{fill:#a8b0bb;}.cls-24{fill:#7a797b;}.cls-25{fill:#505b69;}.cls-26{fill:#4c5764;}.cls-27{fill:#1f2a2d;}.cls-28{fill:#2c373d;}.cls-29{fill:#748399;}.cls-30{fill:#7e8fa7;}.cls-31{fill:#6b6663;}.cls-32{fill:#2d313b;}.cls-33{fill:#354249;}.cls-34{fill:#817c79;}.cls-35{fill:#949aa5;}.cls-36{fill:#3d4a56;}.cls-37{fill:#94989f;}.cls-38{fill:#918d8f;}.cls-39{fill:#4e4847;}.cls-40{fill:#95959b;}.cls-41{fill:#6b7481;}.cls-42{fill:#938e8b;}.cls-43{fill:#2b363c;}.cls-44{fill:#534f4e;}.cls-45{fill:#8a8683;}.cls-46{fill:#635f5b;}.cls-47{fill:#585450;}.cls-48{fill:#787373;}.cls-49{fill:#aaacb5;}.cls-50{fill:#3c3c40;}.cls-51{fill:#19181a;}.cls-52{fill:#131112;}.cls-53{fill:#252527;}.cls-54{fill:#211712;}.cls-55{fill:#222b30;}.cls-56{fill:#bdccdd;}.cls-57{fill:#abb6c3;}.cls-58{fill:#c1d1e3;}.cls-59{fill:#c0ccda;}.cls-60{fill:#555f6a;}.cls-61{fill:#b1c0ce;}.cls-62{fill:#252427;}.cls-63{fill:#424142;}.cls-64{fill:#59534e;}.cls-65{fill:#6c615d;}.cls-66{fill:#272e2e;}.cls-67{fill:#57606e;}.cls-68{fill:#515b60;}.cls-69{fill:#1e2222;}.cls-70{fill:#202524;}.cls-71{fill:#394045;}.cls-72{fill:#212021;}.cls-73{fill:#3a4147;}.cls-74{fill:#303436;}.cls-75{fill:#353c42;}.cls-76{fill:#3f464c;}.cls-77{fill:#545f69;}.cls-78{fill:#313942;}.cls-79{fill:#343d45;}.cls-80{fill:#5f6a75;}.cls-81{fill:#5c636b;}.cls-82{fill:#615b57;}.cls-83{fill:#4e4743;}.cls-84{fill:#8e8986;}.cls-85{fill:#78716d;}.cls-86{fill:#59524c;}.cls-87{fill:#928c88;}.cls-88{fill:#7a7672;}.cls-89{fill:#79736e;}.cls-90{fill:#7d8ba2;}.cls-91{fill:#5d6872;}.cls-92{fill:#77869d;}.cls-93{fill:#a0a6ae;}.cls-94{fill:#3d3b3b;}.cls-95{fill:#56504b;}.cls-96{fill:#84807e;}.cls-97{fill:#828182;}.cls-98{fill:#5e6061;}.cls-99{fill:#726e69;}.cls-100{fill:#6b6666;}.cls-101{fill:#514c4a;}.cls-102{fill:#69625b;}.cls-103{fill:#11100f;}.cls-104{fill:#e9e8e6;}.cls-105{fill:#726b65;}.cls-106{fill:#817b74;}.cls-107{fill:#3a3430;}.cls-108{fill:#7e7f7e;}.cls-109{fill:#4a423c;}.cls-110{fill:#d7d4d2;}.cls-111{fill:#b8b9b6;}.cls-112{fill:#d3cbca;}.cls-113{fill:#7e756f;}.cls-114{fill:#c7b9b8;}.cls-115{fill:#b6abab;}.cls-116{fill:#78686e;}.cls-117{fill:#9eabbe;}.cls-118{fill:#989898;}.cls-119{fill:#95969b;}.cls-120{fill:#bccad8;}.cls-121{fill:#969ca4;}.cls-122{fill:#73787f;}.cls-123{fill:#a7aaab;}.cls-124{fill:#938a84;}.cls-125{fill:#7e8996;}.cls-126{fill:#bdc1ca;}.cls-127{fill:#abb4be;}.cls-128{fill:#66707d;}.cls-129{fill:#8b8781;}.cls-130{fill:#767677;}.cls-131{fill:#63605d;}.cls-132{fill:#312d2a;}.cls-133{fill:#344044;}.cls-134{fill:#444e58;}.cls-135{fill:#2c373b;}.cls-136{fill:#3a454f;}.cls-137{fill:#727d90;}.cls-138{fill:#68747e;}.cls-139{fill:#151a18;}.cls-140{fill:#9a9c9c;}.cls-141{fill:#565e64;}.cls-142{fill:#4d5762;}.cls-143{fill:#403a34;}.cls-144{fill:#554e4a;}.cls-145{fill:#807d7c;}.cls-146{fill:#3c3531;}.cls-147{fill:#6a6866;}.cls-148{fill:#6c6a67;}.cls-149{fill:#8e9eb7;}.cls-150{fill:#767371;}.cls-151{fill:#959594;}.cls-152{fill:#777674;}.cls-153{fill:#989691;}.cls-154{fill:#85817d;}.cls-155{fill:#585654;}.cls-156{fill:#d8d1d0;}.cls-157{fill:#3b3534;}.cls-158{fill:#958988;}.cls-159{fill:#292323;}.cls-160{fill:#7f7b76;}.cls-161{fill:#818080;}.cls-162{fill:#615a53;}.cls-163{fill:#b6bbc3;}.cls-164{fill:#828da1;}.cls-165{fill:#5b4c49;}.cls-166{fill:#8a898b;}.cls-167{fill:#8e8680;}.cls-168{fill:#8e8984;}.cls-169{fill:#747474;}.cls-170{fill:#a8a7ad;}.cls-171{fill:#b6b9bd;}.cls-172{fill:#8c8b8c;}.cls-173{fill:#7b7b7c;}.cls-174{fill:#8f9297;}.cls-175{fill:#918a85;}.cls-176{fill:#7d7570;}.cls-177{fill:#2b3438;}.cls-178{fill:#30302d;}.cls-179{fill:#525451;}.cls-180{fill:#4c5765;}.cls-181{fill:#404547;}.cls-182{fill:#605149;}.cls-183{fill:#807167;}.cls-184{fill:#81756c;}.cls-185{fill:#827b73;}.cls-186{fill:#786c62;}.cls-187{fill:#959390;}.cls-188{fill:#888785;}.cls-189{fill:#52606d;}.cls-190{fill:#524d4a;}.cls-191{fill:#625851;}.cls-192{fill:#736c67;}.cls-193{fill:#2c312f;}.cls-194{fill:#6e6c68;}.cls-195{fill:#171514;}.cls-196{fill:#5d524a;}.cls-197{fill:#8b7e75;}.cls-198{fill:#4a392e;}.cls-199{fill:#6e645b;}.cls-200{fill:#3f4340;}.cls-201{fill:#675e56;}.cls-202{fill:#79706a;}.cls-203{fill:#09131b;}.cls-204{fill:#061016;}.cls-205{fill:#4a4c48;}</style>
    </defs>
    <path d="M136.02.07h19a3.9 3.9 0 0 0 4.4 1.33c5-1.2 9.68 0 14.14 2.4 1.87 1 3.58 2.52 3.5 4.46-.25 5.17 3.1 7.1 7 8.8v36a1.17 1.17 0 0 1-.8.54c-4.6-1.4-8.4-.6-11.92 3-1.47 1.5-3.82.56-5.22-1.23-1.18-1.5-1-3 .1-4.57s4.15-1.86 3.68-4.25-3.12-3.28-4.7-5a7.1 7.1 0 0 0-2.6-1.8 36.13 36.13 0 0 1 1.67 9.17c.06 2 .2 4.25-2.35 4.83a4.72 4.72 0 0 1-5.4-2.64c-1.05-1.8-1.43-4-2.17-6-2.65-12-4.78-24.2-11.73-34.7a23.28 23.28 0 0 0-4.73-5.6c-1.6-1.2-2.8-2.5-1.9-4.6z" class="cls-1"/>
    <path d="M93.02.07h20c.95.66 2.2 1.15 2.4 2.4.58 3.26 2.35 4.7 5.73 4.9 2.93.17 4.2 2.26 4 5.23-.26 4.6 1 8.44 5.12 11.14a7.2 7.2 0 0 1 3.14 6.93 6.82 6.82 0 0 0 4.7 7.4c3.4 1.36 5.2 4.1 6.4 7.26.9 2.3 1.6 4.5 3.8 6.18s1.8 4.2-.1 6.2a5.76 5.76 0 0 1-6.4 1.7c-3.8-1.5-6.6-.6-8.8 2.8-5.9.9-10.8-.5-14.2-5.8-1.4-5-.1-10.2-1.6-15.1-1.1-9-4.3-17.4-8.2-25.6-4.3-4.3-9.4-7.3-15.6-8.2a44.8 44.8 0 0 0-5.9-.7c-1.9-.2-3.2-1.1-3-3.2S86 .7 87.8.6s3.62 1.1 5.22-.5z" class="cls-2"/>
    <path d="M.02 18.07v-5c5-2.88 6.53-7.93 8-13h45c.82 2.57-1.34 2.95-2.8 3.88a111.85 111.85 0 0 0-16.78 13.12c-4 3.8-5.1 9.3-8.77 13.16-4.3 2.78-9.32 4.18-13.52 7.3-3.78 2.83-7.66.9-7.38-3.75.36-5.7-2.92-10.38-3.75-15.7z" class="cls-3"/>
    <path d="M146.02 184.07h-26c-.88-1.08-2.67-.9-3.33-2-2.8-4.82-6.1-8.28-12.4-8.05-2.1.08-3-2.8-4.3-4.56-.6-.86-1-2.45-2.6-1.67a2.7 2.7 0 0 0-1.4 3.4c1.1 3 2.4 6.1 5.3 8.1 1.5 1.1 3.5 2.2 2.4 4.7H89c-1.2-.7-2.24-1.6-1.93-3.1 1.05-5.4-.2-10.9.8-16.3.5-2.7-.45-4.6-3.23-5.2a55.77 55.77 0 0 1-12-4.5 2.4 2.4 0 0 1-1-1.3c.3-1.8 1.66-2 3.07-2.3 3.7.2 7.2 1.7 11 1.8 4.6 1.4 9 3.3 13.6 4.5 2.8.9 5.5.1 8.1-.8 2.1-.8 4.1-1 6.1.2 2.4 2.2 3 5.6 5.3 8.1 2.7 3 5.1 5.3 9 4.8 6.4-.9 11.8 3.1 17.9 3.2a13.65 13.65 0 0 0 4-.4c2.8-.8 5-.2 5.9 2.8a5.93 5.93 0 0 1-4.1 7c-1.7.4-3.6 0-5.2 1.2z" class="cls-4"/>
    <path d="M156.02 45.07a15.8 15.8 0 0 1 1 2.82c.4 2.6 1.74 5 4.35 4.4 3.26-.6.4-3.2.64-4.9.4-2.5.2-5-1.8-7a2.3 2.3 0 0 1-.1-3.6c1.2-1.2 2.5-.8 3.6.2a101 101 0 0 1 8.2 7.3c2.6 2.7 1.1 4.8-1.9 6.1-1.3.6-3.2.5-3.2 2.5a2.73 2.73 0 0 0 2.2 2.5c1.8.6 2.8-.6 3.6-2 3.6-6.1 7.7-2.8 11.8-.6v25c-3.4 3-7.4 2.3-11.3 1.6-2.1-.4-4-1.5-6.1-2-6.1-3.3-8.5-8.8-9.5-15.2-.2-3.3-.5-6.6-2.3-9.5-.6-.2.2 0-.4-.3-2.2-1.6-6.2.3-7.3-3.3-1.1-4-.3-7.9 1.5-11.6a2.5 2.5 0 0 1 2.8.1c2 2 2.9 4.8 4.6 7z" class="cls-5"/>
    <path d="M149.02 38.07a16.85 16.85 0 0 1-.57 8.3c-.47 1.3-.55 2.6.7 3.58s2.23.73 3.53-.2c3.13-2.22 3.07.47 3.4 2.44 2.06 3.6-2.76 5.5-2.27 8.7-.9 2-2.7 2.7-4.6 3.3-4.8 1.2-8.9-2.2-13.6-2a4.1 4.1 0 0 1-1.5-.4 2.47 2.47 0 0 1-1-1c.2-4.5 2.2-5.9 6.4-4.2a15.2 15.2 0 0 0 4.4 1 4.24 4.24 0 0 0 4.3-2.9c.8-1.8-.7-2.6-2.2-3.3a1.54 1.54 0 0 1-.8-.5c-1.6-7.6-10-10.4-12.4-16.2-2.2-5.2-3.4-10.2-7.8-14.3-2-1.9-2.2-5.6-1.5-8.6.6-2.5-.3-3.6-2.7-3.3-4.9.6-7.2-1-6.6-6.3.1-.9-.5-1.9-.8-2.8h8c1.5 1.2 3.7 1.4 4.5 3.4a21.77 21.77 0 0 1 6.7 9 14.13 14.13 0 0 0 4.1 5.5 18.86 18.86 0 0 1 6 9.4 11.15 11.15 0 0 0 4.4 6.4c1.4.9 3.2 2 2.3 4.3z" class="cls-6"/>
    <path d="M.02 144.07v-44c1.6-2.23 2.54-4.94 5.1-6.5 1.74-1.05 3.43-2.05 5.48-1.07s1.9 2.87 1.9 4.7a22 22 0 0 1-.23 4.4c-2.83 3.3-4.47 6.78-1.94 11a1.36 1.36 0 0 1 .1 1c-1.83 6.8 1 10.57 7.65 11.94a3.28 3.28 0 0 1 .6 2.77 15 15 0 0 1-3.68 10c-2.54 3-3.52 5.2 1.2 6.8a2.57 2.57 0 0 1 1.5 1.9c.24 2.5-1.36 3.8-3.1 5a4.06 4.06 0 0 1-1.44.4c-3.28-.3-6-1.6-7.08-5s-4.23-1.8-6.06-3.2z" class="cls-7"/>
    <path d="M11.02 102.07c-.46-2.82 1.6-6.93-1.2-8.2s-4.64 2.8-6.87 4.56a5.75 5.75 0 0 1-2.93 1.64v-25c5.23-3.28 5.23-3.28 0-9v-14c2-1.8 1.85-6.2 6.22-5.1 1.74 3.35 0 6.8.18 10.23s.7 6.13 2.57 8.82c1.3 1.9 2.5 3.92 2 6.46.2-.6-.2.34-.1.2.9-3.48 3.2-4.7 6.4-3.33a10.18 10.18 0 0 1 5.5 6.16 4.9 4.9 0 0 1-2.1 4.6 4 4 0 0 0-1.9 3.6c-1.9 5.8-3 11.9-5.6 17.4a3.24 3.24 0 0 1-.9 1.1l-.7.2z" class="cls-8"/>
    <path d="M18.02 83.07c-2-.55-2-1.58-.48-2.63a14.15 14.15 0 0 0 4.48-4.37c3.32-3.05 3.12-6.28 1.1-10.1a38 38 0 0 1-3.8-12.75c-.36-2.77-1.43-4.12-4.47-3.78-2.45.27-5 0-6.9-1.95-.6-3.8 2.85-5.2 4.54-7.6 1.2-.7 2.5-.2 3.8-.1 1.7.1 3.3-1.1 3-2.5-1.1-4.5 2.5-5.9 4.7-8.3C28.8 16.2 39.3 8.9 50.3 2.1c1-.6 2.06-1 2.63-2.1h4c.62 2.9-1.64 3.9-3.47 4.68-6.66 2.8-11.4 8.43-17.07 11 2.5-2.07 6.5-3.47 10.4-4.7 8.3-2.65 16.3-6.75 25.4-6 2.1.17 4.4-.08 5.9 1.9-.4 3.76-4.2 2-5.9 3.6a9.6 9.6 0 0 1-1.5.4c-4.5.5-8.8 2.08-13.3 2.9a5.85 5.85 0 0 1-1.5.36c-5.8 4.1-13.1 4.7-19.4 7.73-2 .93-3.8 2.12-4.7 4.22-1.8 4.3-5.1 8.1-4.5 13.2.3 2.8-2.5 4.6-2.2 7.4-1 8.2 2.1 15.3 5.5 22.5a7.4 7.4 0 0 1 .8 3.5c-1 2.3-.7 5.3-3.1 7.1-2.6 1.1-4.2 3.9-7.4 4.1a4.27 4.27 0 0 1-3.4-1z" class="cls-9"/>
    <path d="M62.02 184.07h-17a31.85 31.85 0 0 0-5.8-2.6c-9.35-2.6-11.68-10.35-5.4-17.9a26.15 26.15 0 0 0 2.38-4.22 2.78 2.78 0 0 1 4 .17c2 1.9 3.9 1.2 6 .62 1.42 1.45.95 3 .25 4.58-1.77 3.9-1.53 8-1 12.15-.05-3.26 2.33-5.43 3.58-8.3-.77 1.22-1.1 3-2.76 2.46s-1.32-2.12-.7-3.4c1.35-2.75.94-6.24 3.53-8.5 1.95-1.07 3.53-.5 4.72 1.2.83 1.2 1.7 2 3.26 1.37 2.8.58 2.62 2.75 2.28 4.7a49.33 49.33 0 0 1-1.28 6.36c-.42 1.32-.53 2.8.68 3.7 1.42 1 2.4-.45 3.5-1.06a7.2 7.2 0 0 1 3.57-1c1.78.4 3.56-.35 5.35 0 2.37 1 3.34 3.27 4.65 5.23a3.88 3.88 0 0 1-.8 4.44h-6c-2.34-3.5-4.68-3.35-7 0z" class="cls-10"/>
    <path d="M14.02 151.02l3-3.92a6.25 6.25 0 0 1 4.57-5.13c3.9-.32 7.8-.67 11.5-2.24 2.4 1.26 5.1-.5 7.6.7 1.2.83 1.2 2 1 3.32a5.25 5.25 0 0 1-4.2 3.8c-3.8.85-4.4 5.15-7.4 6.9-7.7 2.86-8.7 4.24-8.6 11.8.5 6.15-1.8 8.65-8.5 9.2-3.1-1.63-6-3.06-9 .6-1.1 1.4-2.9 1.36-4.3 0v-4c2-3.12 1-6.67 1.3-10a38.32 38.32 0 0 1 .7-5.4c1.8-7.13 3.2-7.78 9.8-4.4 1.4 2.34-.2 3.63-1.9 4.52-1.5.75-2.9 1.3-3.3 3.1a7.35 7.35 0 0 1-.3 1.33c-.5 6.2 4.4 2.85 6.6 3.28 2.7.53 3-2.3 2.3-4.22a24 24 0 0 1-1.4-9.24z" class="cls-11"/>
    <path d="M78.02 7.07c-17-1.25-31.55 5.83-45.83 12.55 1.7-3.87 11.2-12 18.1-15.5 2.3-1.18 5-1.67 6.7-4h10a23.57 23.57 0 0 0 11 0h15c-.8 2.9-2.8 1.3-4.4 1.17s-3.2.1-3.2 2 1.7 1.6 2.9 1.7c1.9.2 4-.5 5.6 1a21.36 21.36 0 0 1-16 1z" class="cls-12"/>
    <path d="M184.02 133.07v8c-.54.8-1.07 1.64-2.25 1.5-3.38-1.13-5.44-4.44-9.4-5-2.42-.35-3.24-3.37-1.72-6.67a18.1 18.1 0 0 1-8.74 4.65c-4.1 1-6-.53-6.2-4.57a4.42 4.42 0 0 1 .6-2c1.7-1.74 3.5-3.38 3-6.2a5.88 5.88 0 0 1 0-1.43c.6-1.8.3-4.18 2.9-4.75a3.9 3.9 0 0 1 3.5 2.54c1.5 3.58 3.8 3.15 6.1 1a13.54 13.54 0 0 0 4.3-7.54 15.43 15.43 0 0 1 3.1-7.06 3.8 3.8 0 0 1 1.4-.43c2.8.2 2.9 2.3 3.3 4.3-.1 4.4-2.9 8-3.3 12.3a2.67 2.67 0 0 1-1.7 2 9.8 9.8 0 0 1-1.7-.1.6.6 0 0 0-.4.1c0 .8.6-.1.8.3a8.5 8.5 0 0 1 2.5 1.9c.9 1.5 2.8 2 3.7 3.4.5 2.1-1.8 2.4-2.4 3.8a2.28 2.28 0 0 1 3.2.3z" class="cls-13"/>
    <path d="M158.9 62.2c1.1 5.54 2.87 10.7 8 14a19.6 19.6 0 0 0 9 3.65 9.83 9.83 0 0 1 8.12 5.22v3c-1.45 1.9-3.48 3.3-4.1 5.88a4 4 0 0 1-3.7 2.87c-2.8.17-5.3 1.67-8.1 1.72a3.1 3.1 0 0 1-1.2-.74c-2.65-3.07-2-5.36 1.7-6.73-7.6-6.94-10.05-16.82-15.22-25a10.27 10.27 0 0 1 .24-6c3.73-4.06 4 .24 5.26 2.13z" class="cls-14"/>
    <path d="M75.02 184.07c0-1.4.2-2.88-1-4-.87-1-.5-2.25-.5-3.4.6-1 1.95-1.18 2.67-2.5-1.2.7-1.6 1.8-2.7 2.15-3.3-2.7-4.5-6.8-2.2-9.83 2.7-3.5 3.7-6.4.8-10.1-.5-.7.1-1.6.6-2.3 4.8 1 9.4 2.7 14.3 3.6 3.3.6 2.7 4 2.4 6.7-.8 6.5-1.4 13-.7 19.6h-4c-1.2-4.1.4-8.1 0-12.2 0-1 .4-1.8.5-2.8.2-2.4-1-1.7-2.2-.9-3.3 3.3-1 7-.4 10.4.2 1.8 1.9 3.5.1 5.3h-8z" class="cls-15"/>
    <path d="M124.02 4.07l-3-4h15c13.72 11.85 16.87 28.4 20 45a9.63 9.63 0 0 1-5-6c-2.57-4.07-5.1-8.16-5.68-13.1a7.2 7.2 0 0 0-2.74-4.57 11.7 11.7 0 0 1-4.23-7.7c-.3-4.27-2.67-5.93-6.2-7.26-2.7-1-5.5-1.37-8.15-2.37z" class="cls-16"/>
    <path d="M168.1 98.07a63.22 63.22 0 0 0 15.92-10v4c-2.78 2.26-.9 5.17-1.1 7.8-.8 2.13-1.15 4.5-3 6.16l-.9.04c-1.38 2.53-3.22 4.7-4 7.7-.85 3.35-3.93 3.45-8.52.77-4-3-4-3-1-8.38-1.78-.85-4-1.38-2.9-4.23 2-1.1 3.13-3.34 5.5-3.86z" class="cls-17"/>
    <path d="M20.02 166.07c.2-1.8.47-3.58.56-5.38.22-4.6 2.18-7.1 7.07-6.8a6.23 6.23 0 0 0 2.28-.9 1.78 1.78 0 0 1 1.2-.5 4 4 0 0 0 4.13-.5c1.34-1 3.07-1.5 4.15.6.2 2.5-2.2 4-2.4 6.4a7 7 0 0 1-2.2 5.8c-5 5.5-2.8 12.9 4.4 14.9a9.27 9.27 0 0 1 5.9 4.2h-4c-1.3-1.2-3-1-4.6-1-1.1 0-2.7.2-3.3-.6-4.3-5.5-7.1-2-10 1.5h-4c-1.5-2 .3-3.3 1.2-4.8 2.4-4.5 3.7-8.9-.1-13.3z" class="cls-18"/>
    <path d="M104.02 184.07c-3.24-4-8.43-6.38-10-11.9-.5-1.78 1.58-7.9 3.3-8.26 1.85-.3 2.65 1.1 3.28 2.5 2 4.2 4.1 7.8 9.86 7 2.33-.3 3.88 2.4 5.3 4.2a69.58 69.58 0 0 1 4.26 6.6h-10c-1.3-1.1-1.26-2.6-1.16-4.1s-.57-2.5-2.75-2.7c1 2.3 3.8 4.1 2 6.8h-4z" class="cls-19"/>
    <path d="M184.02 17.07c-5.9 1.35-8.47-.75-8.26-6.84.06-1.6-.3-3.38-1.5-4-4.57-2.26-8.9-6-14.62-3.46-2.8 1.24-4.5.6-4.62-2.72h16c4 2.6 8.84.23 13 2v15z" class="cls-20"/>
    <path d="M24.02 29.07c-.67 2.87-5.15 4.73-2 8.84.6.8-2.3 3.4-4.1 4.4-2.3 1.4-3.17-1.7-5-2.2-2.2 1.7-4.48.8-6.76.3-3.5-1.2-4.74-4.3-6.23-7.2v-15c2.37 5 7.74 8.9 5.37 15.6-.5 1.4.22 2.6 1.34 3.5A1.76 1.76 0 0 0 9.3 37c3.65-5.15 9.92-5.17 14.72-7.93z" class="cls-21"/>
    <path d="M12.02 153.07l-4.22-1.5s-2.52-.07-2.6 1.4c-.2 4.5-3.84 8.43-1.86 13.43 1 2.46-2.1 3.8-3.3 5.68v-28c5.8-2.78 6.1-2.82 7.94 3.1.9 2.86 3.34 2.8 5.15 4a1.37 1.37 0 0 1-1.1 1.9z" class="cls-22"/>
    <path d="M146.02 184.07c1-2 3.1-1.58 4.65-2.33 2.22-1.07 3.68-3.1 3.15-5.64-.67-3.16-3-1.45-4.82-1.26-1.3.14-2.64.15-4 .2-1-3.04-2.9-6-1.23-9.4 3-1.73 5.68-1.8 7.24 1.84a3.25 3.25 0 0 0 3.5 2.2c2.2-.1 3.7 1.1 5.5 2.07 3.1 2.25 3.7 4.46.3 7.1-1.9 1.48-2.8 4-5.1 5.2h-9z" class="cls-23"/>
    <path d="M173.02 184.07h-5c-.7-2 1-2.8 2.14-3.74a2.34 2.34 0 0 0 .5-3.3c-.15-1.77 1.5-2.38 2.26-3.57 2.74-4.57 5.77-5.77 11.1-4.4v13c-3.44 1.92-7.75-1-11 2z" class="cls-24"/>
    <path d="M20.02 166.07c5.34 4.37 5.75 10.43 1 15.35-.8.82-1.83 1.4-2 2.67h-3c-2.92-2.8-2.72-6.5-3-10 6.38-1.3 7.87-3 7-8.1z" class="cls-25"/>
    <path d="M83.02 184.07c-2-4-2.32-8.47-3.44-12.7s.36-4.4 3.44-4.3c3.12-.43 3.15 2.17 3.94 4 .08 4.42.65 8.93-1.94 13h-2z" class="cls-26"/>
    <path d="M8.02.07v1c.46 8.57.46 8.57-8 12v-5c0-8 0-8 8-8z" class="cls-27"/>
    <path d="M13.02 174.07c3.24 2.65 2.33 6.56 3 10h-3c-1.56-.9-3.07-1.76-3.5-3.78-.63-3.2-2.08-2.9-3.8-.8a29.9 29.9 0 0 1-3.7 4.5c-.63-.4-2.08 1-2-1 .08-2.3 0-4.7 0-7a5 5 0 0 0 4.27-1.9c2.8-3.5 5.7-2.8 8.7-.2z" class="cls-18"/>
    <path d="M6.02 39.07c2.37.06 4.8-.27 7 1 .26 3.7-2.92 4.95-5 7a1.36 1.36 0 0 1-2 0c-2.66.87-2.82 4.75-6 5v-9c1.82-1.62 4.7-1.62 6-4z" class="cls-28"/>
    <path d="M23.02 184.07c.63-1.7 1.34-3.4 1.87-5.12.6-2 1.8-3.26 3.8-3.38s2 1.78 2.4 3.16c.8 2.45 2.9 3 5.1 3.25 1.8.18 3.7.1 4.7 2.1H23z" class="cls-29"/>
    <path d="M2.02 184.07a6.84 6.84 0 0 1 1.8-5.42c1.52-1.6 2.32-4.3 5.35-3.3 2.72.9 2.27 3 2.16 5.27-.05 1.12 1.1 2.3 1.7 3.45h-11z" class="cls-30"/>
    <path d="M184.02 153.07v8c-1.87 1.2-3.8 1.8-5.9.56-1.1-1.43-2.53-2.68-2.6-4.68 1.5-2.25.48-4.55.1-6.84a2.52 2.52 0 0 1 2.16-1.6c3 .3 5.97.6 6.24 4.6z" class="cls-31"/>
    <path d="M184.02 85.07c-5.23-3.9-12.44-4-17.16-8.9 5.48 2.78 11.36 2 17.16 1.9v7z" class="cls-32"/>
    <path d="M.02 66.07c.95.2 2.22.08 2.8.66 1.8 1.85 5.5 2.9 4.36 6.3S2.75 75.48.02 75.06v-9z" class="cls-33"/>
    <path d="M184.02 153.07c-.87-3-4.73-1.48-5.95-4 0-.2-.08-.4-.13-.6-.66-1.33-2.5-1.77-2.67-3.5.6-4.37 3.06-4.8 6.53-3.12l2.22-.78v12z" class="cls-34"/>
    <path d="M108.02 184.07c-.94-2.43-1.6-5-4.94-5.4a2.4 2.4 0 0 1-1.27-1.87c0-1.25 1-1.25 2.1-1.42 6.8-1.14 7.6 0 6.2 8.7h-2z" class="cls-35"/>
    <path d="M6.02 39.07c1 4.66-.08 5.4-6 4v-10a23.9 23.9 0 0 1 6 6z" class="cls-36"/>
    <path d="M155.02 184.07a10.76 10.76 0 0 1 4.3-6.46c3-2 2.08-3.1-.32-4.5-.43-1.6.47-2.2 1.83-2.5a8.75 8.75 0 0 1 5.73 4.1 3.44 3.44 0 0 1 .07 1.5 3.8 3.8 0 0 1-1.17 1.8c-1.38.7-2.6 1.5-2 3.4-.2 2.1-2.4 1.8-3.46 2.9h-5z" class="cls-37"/>
    <path d="M178.02 161.07c2 .08 4-1.37 6 0v2c-1 2.36-2.08 4.2-5.3 3.78-1.63-.2-3.46.62-5.15 1.23a4.7 4.7 0 0 1-1.47.2c-1.7-.25-2.84-1-2.8-2.93.63-2.44 3-3 4.67-4.33a5.1 5.1 0 0 1 3.4-.12z" class="cls-38"/>
    <path d="M184.02 169.07c-3.76 1.3-8.6.8-9.93 6.07a3 3 0 0 1-2.4-.85c-.9-1.6.5-2.9.3-4.4a2.78 2.78 0 0 1 1-2.9l-.1-.1c3.6-1.3 7.3-.4 11-1v3z" class="cls-39"/>
    <path d="M170.97 177.07c1.4.28 3-.4 4.6 1-2.17 2.5-4.9 4.2-7.55 6h-3c-.86-1.23-.3-2.7-.7-4a3.12 3.12 0 0 1 .4-1.33 10.84 10.84 0 0 1 5-2.28 2.14 2.14 0 0 1 1.25.6z" class="cls-40"/>
    <path d="M62.02 184.07v-1.47c.2-2.6 1.4-4.63 4.18-4.33 3.58.4 2.57 3.5 2.77 5.8h-7z" class="cls-41"/>
    <path d="M179.02 120.96c-1.85-4.8 3.27-7.08 3.93-11q.6-.9 1.05.08v8c-1.2 1.78-1.85 4.46-4.98 2.92z" class="cls-42"/>
    <path d="M184.02 110.07l-1.05-.08c-.28-1.9-.85-3.6-3-4-.92-2.6-.64-4.7 2-6 .58-.6.9-1.7 2-1v11z" class="cls-34"/>
    <path d="M184.02 2.07c-4.56.8-9.23 2.34-13-2 3.83 0 7.68.16 11.5-.06 2.05-.1 1.42 1.1 1.5 2.1z" class="cls-43"/>
    <path d="M173.02 184.07c2.75-5.7 7.1-2.7 11-2-.08 1 .56 2.22-1.5 2.06-3.15-.24-6.33-.06-9.5-.06z" class="cls-44"/>
    <path d="M183.02 129.07h-2.9c-3.14 0-2.7-1.3-1.2-3.08.24-3.5 2.22-4 5.08-3v6c-.3.5-.62.5-.98 0z" class="cls-45"/>
    <path d="M184.02 123.07c-1.6 1.15-4 .9-5.1 2.93a2 2 0 0 1-1.93-2c-.3-.84 0-1.28.9-1l1.1-2.07 5-2.9v5z" class="cls-46"/>
    <path d="M183.02 129.07h1v4c-2.46-.5-4 4.1-7.23.8 2.5-1.1 3.4-3.96 6.2-4.8z" class="cls-47"/>
    <path d="M184.02 99.07l-2 1c0-2.83-3.53-6.56 2-8v7z" class="cls-14"/>
    <path d="M184.02 166.07c-3.54 1.78-7.34.68-11 1 1.53-2.52 5.6-2.6 6.4-2.22 2.73 1.32 3.12-1.3 4.6-1.75v3z" class="cls-48"/>
    <path d="M164.92 179.9c3.67 1.3 1.25 2.75.1 4.17h-5l2.9-3.08c.1-1.5.86-1.6 2-1.1z" class="cls-49"/>
    <path d="M78.02.07l-.44 1.88C74.25.25 70.2 2.58 67.02.07h11z" class="cls-50"/>
    <path d="M110.02 14.07c5 8 7.45 16.8 9 26-1 1.36-.32 2.9-.5 4.35-.38 3.1-2.08 3.9-4.74 2.13s-3.3-4.83-4.27-7.67c-1.7-5.26-1.9-5-6.6-2.33a23.3 23.3 0 0 0-9.4 10c-.6 1.28-2 2.66.3 3.62 1.4.6 3.2 2.13 4.4-.07 1.8-3.36 4.4-3.74 7.6-2.5s5.3 3.55 5 7.22c-.2 1.92 1 3.1 1.8 4.5-.1 1.87-1.4 2.67-3 3.14-5 1.14-10.1 2.24-15.3 2.15-2.6 0-5.2-.1-7.6 1-3.1 1.6-6.4 1.8-9.8 2a11.1 11.1 0 0 0-5.2.8 13.1 13.1 0 0 1-1.4.3c-3 1-6.2 1.6-9.2 2.9a18.77 18.77 0 0 1-4.5 0c-5.4-2.2-9.5-6.8-15.4-8.3.1-3.5 0-6.6-4.2-8.2-2.5-.9-2.6-3.6-1.8-6 .9-2.6 3-4.2 5.7-3.8s4.8-.5 7.1-1.5c3.8-1 7.7-1.4 11.5-2.5 2.2-.6 4.7-.9 5.8-3.4 2.4-3 .9-5.3-1.5-7.4a19.1 19.1 0 0 1-2.7-2.2c-1.5-2.1-2-.2-2.7.7a3.07 3.07 0 0 1-2.6.4c-.9-.2-1.6-1.2-2.7-.6a4.63 4.63 0 0 1-2.1 1.3c-2.9-.1-2.8-2.4-3.1-4.3.4-5 6.1-10.3 11.7-10.7 5.1-.4 10.2-.5 14.8-3.2a6 6 0 0 1 4.8-.6c6 2 11.1.3 15.8-3.4 2.3-.7 3.9.5 5 2.3 2.4 4.1 6 5.1 10.5 4.4z" class="cls-51"/>
    <path d="M112.3 59.23c-3.1.18-4.8-.17-3.48-4.23s-2.14-5.22-5.3-6.3c-3.6-1.2-3.23 1.4-3.76 3.42s-1.73 3.4-3.8 1.35-5.95-.82-6.8-3.47 3.17-3.74 3.9-6.38c1.8-6.42 8.6-7.65 12.73-11.7 1.4-1.45 3.5-.18 4.1 2 .7 2.7 2 5.2 2.4 8.04.3 2 2 4.33 4.3 4.14 2-.17 1-2.76 1.5-4.26a10.86 10.86 0 0 1 .8-1.77c0 5.36 1.6 10.6 1 16-1.2 2-3 3-5 4a2.74 2.74 0 0 1-2.7-.84z" class="cls-52"/>
    <path d="M110.02 14.07c-3.73 3.42-9.06 2.36-11.5-2.4-.82-1.62-1.17-3.48-3.44-3.64-6.78 4.74-14.37 3.52-21.85 2.86a2.87 2.87 0 0 1-2.2-1.9c2-2 5.06 0 7-2 5.2-2 10.65-.6 16-1 6.36.6 11.93 2.8 16 8z" class="cls-53"/>
    <path d="M115.02 58.93a7.1 7.1 0 0 1 5-2.86c3.37 4.16 8 4.92 13 5l1.25.14c.1 1.7-1 2.5-2.28 3.2a7 7 0 0 1-4.1.2A25.6 25.6 0 0 1 115 59z" class="cls-54"/>
    <path d="M26.43 4.07c2.25 0 4.2 1.18 3.8 3.75a5.7 5.7 0 0 1-5.72 5.13c-2.2 0-4.6-.6-4.2-3.5.5-3.15 2.2-5.45 6.2-5.38z" class="cls-55"/>
    <path d="M99.02 160.07l-13-5c0-1 .55-1.9.74-2.87 1.35-6.78 3.18-7.8 8.33-5.9-4-.42-8.4-3.34-12.8-6.2s-9.7-1.76-14.6-1.9a11.78 11.78 0 0 1-6.8-5.43c-2.9-4.48 1-12.94 6.2-13.74 2.5-.38 3.8 1.6 5.5 2.76a5.83 5.83 0 0 1 1.3 1.7 9.3 9.3 0 0 1 .9 3.8c-.5 3.5 1.7 4.1 4.3 4.4 3.1.8 6.5 1.1 8.8 3.8a1.84 1.84 0 0 0 1.8.6c7.3-1.8 13.8 2.1 20.7 3a11.42 11.42 0 0 1 2.2 2c5.7 6.6 4.3 11.6-3.7 15.5a30.57 30.57 0 0 1-10.2 3.3z" class="cls-56"/>
    <path d="M144.02 166.07c1.25 2.08-.3 6 4.58 5.64l-3.58 3.4c-3.35.2-6.6.2-9.48-2.1-1.34-1-3.16-.8-4.83-.9-10.3-.2-15.1-4-17.7-14a1.73 1.73 0 0 1-.4-1.2c.5-1.8 2.1-2.9 3.3-4.2 4.9-5.4 3.6-9.8-3.5-12.1-.9-.3-1.8-.7-2.8-1-4.5-1.7-6-6.1-8.5-9.7-1.4-4.6-5.8-2.4-8.7-3.8a9.28 9.28 0 0 0-3.1-1.4c-1.4-.3-2.6-.9-2.6-2.5s1.2-2.2 2.7-2.5a15.55 15.55 0 0 1 5.7 1.4c4.9 1.2 9.7 4 14.9.8a12.9 12.9 0 0 1 8 1.9c2.7 1.5 3.6 3 .3 5.8 8.9-.8 9.6 6 12.3 10.9a2.44 2.44 0 0 1-.9 3.1c-1.6 1.3-2.2 3.2-3 5.1a10.13 10.13 0 0 1-2.1 2.8c-2.2 2-3.3 5-6.2 6.4-.4.5-1 1.4-.7 1.7 2.2 2.2 5.3 2.9 7 6.2 1.1 2.2 5.2 2.6 8.5 1.4 2.2-.8 4.6.7 6.8-.5 1.5-.5 3.1-1.5 4.7-.1z" class="cls-57"/>
    <path d="M68.02 137.07c5.28-1.9 10.58-1.76 15.2 1.34a72.43 72.43 0 0 0 15.42 7.6c1.33.5 3.87 1.1 2.65 3.3-.9 1.6-3 1-4.5 0s-2.8-2-4.5-2c-2.2.1-4.8.4-3.4 3.7s-.9 3.6-3 4.2c-3.9.2-7.6 0-11-2-7-.4-10.8-5.7-15.2-10a3.27 3.27 0 0 1-.4-4.1 4 4 0 0 1 3.8-1.9c1.6.1 3.1 1.5 4.7.1z" class="cls-58"/>
    <path d="M68.02 137.07c-.43 2.8-2 3.05-4.23 1.9-1.3-.64-2.6-.9-3.4.73-.6 1.25.1 2.12 1 3 4.1 4 8.3 7.77 13.5 10.32l-3 .7c-2.5 1.8-4.3.5-6-1.32-1.5-2.5-3.9-4.08-6.1-5.53a36.57 36.57 0 0 1-8.8-8.3 4.8 4.8 0 0 1-.5-1.38c-1-4.4-2.1-6.1-5.5-8.5l-1.6-2.6c-1.1-1.4-1-3-1-4.6 1.3-4.9 3.6-6.2 8.2-4.2a41.78 41.78 0 0 0 4.1 1.5c4.1 1.5 7.3-1.2 10.7-2.7a7.7 7.7 0 0 1 2.3.3c2.6 1.3 5.7 2.4 4 6.4-2.1-.7-3.2-5-6.4-1.2-5.4 6.3-5.7 7.5-2 11.3 1.5 1.4 3 2.6 4.5 3.9z" class="cls-59"/>
    <path d="M67.02 151.07c1 2.08 3.24 1.9 5 2.64l1 .5c3.9 4.8 3.9 9-.4 13.9-1.56 1.8-1.57 5.8 1.36 8.1l.04 4-3-5a4.68 4.68 0 0 1-1-1c-.74-3.8-1.14-7.6 1.58-10.9 1.7-2 .47-3.3-.8-4.7a28.56 28.56 0 0 0-8.3-3.4 5.45 5.45 0 0 1-1.33 0c-2-.6-2.5.6-2.6 2.3s.32 3.6-1.48 4.7c-.3 1.2.5 3-1.3 3.4s-2.5-1.1-2.9-2.7-.7-3.4-3.2-2.6c-2.2-2.1-1.2-4.3.2-6.1a44.87 44.87 0 0 0 3.5-6.2c2.9-2.3 5.6-3.7 8.5.3 1.1 1.5 3.1 2.2 4.8 3.1z" class="cls-60"/>
    <path d="M113.02 157.07v1c-4.84-.57-9 3.3-14 2a39.53 39.53 0 0 0 10.06-4.68c6.68-4.4 7.48-6.8 2.74-13-.6-.8-1.2-1.6-1.82-2.4l.62-.5a6.65 6.65 0 0 1 4.12 1.5c5.78 4.1 7.08 7.3 1.54 12.1a15.42 15.42 0 0 0-3.26 3.8z" class="cls-61"/>
    <path d="M124.02 4.07c5.83-2.74 10.3 1.08 14.67 3.6 3 1.72-.2 6.36 2.7 9.07 1.1 1.08 1.4 3 3.4 3.83 1.1.48 2.5 2.42 2.3 3.55-.7 5.55 4.1 9.62 3.8 15l-2-1c-5.4-3.36-8.5-8-10.3-14.25-1-3.24-5.5-5.28-7.2-8.47-2.2-4.05-4.2-8.08-7.5-11.33z" class="cls-62"/>
    <path d="M158.9 62.2c-1.64-.6-1.78-4.65-4.8-2.1q-.6.8-1.13 0c-1.84-3.75 3.14-4.82 3.1-7.87 3.24 2.65 1.82 6.66 2.83 9.97z" class="cls-63"/>
    <path d="M152.97 60.07h1.13l.93 6c.2 3.13 2.16 5.8 2.2 9-.28 1.48-1 2.56-2.65 2.64-5.2-4.6-11.65-5.7-18.26-6.2a4.94 4.94 0 0 1-1.9-1c-3.58-1.6-3.78-4.3-2.6-7.6l2.43-1.6h.77a48.76 48.76 0 0 0 5.75 2.6c1.38.6 3.44.9 2.3 3.3a3.07 3.07 0 0 1-1.68 1 3.1 3.1 0 0 0 1.6-.9c1.3-2.3 4.1-2.4 5.9-4.1 1.2-1.1 3.3-1.1 4-2.9z" class="cls-64"/>
    <path d="M143.02 67.07c-.74-2.33-3-1.17-4.5-1.9-1.8-.92-3.67-1.44-3.48-4 1.58-1.5 3.2-.9 5-.33 2.9.94 5.64 2.68 8.9 2.13-.68 3.23-3.27 3.68-5.9 4.06z" class="cls-65"/>
    <path d="M21.02 83.07c2.67-.73 4.15-3.55 7-4 1.45 2.08-.32 4.75 1.28 6.8.64.88 1.58 1.5 2.18 2.4 2.77 3 1.63 5.36-1.13 7.52-.88.6-2.26 1.2-1.62 2.6.47 1 1.75.7 2.7.7 1.52 0 3 .1 4.2 1.2a3.6 3.6 0 0 1 1.05 2.6c-.1 4.9-4.3 6.9-6.94 10.1-4.13 3.5-4.3 9.5-8.14 13.3a2.64 2.64 0 0 1-3.58-.3c-9 0-10.1-1.2-9.14-10.5a9.07 9.07 0 0 0-.84-4.9c-1.83-3.9-.6-6.7 2.94-8.8 1.73 3.7-.43 7.8.92 11.6.6 1.6.16 3.8 2.3 4.6s3.28-1.2 4.6-2.4c5.88-5.1 6.2-7 2.55-14.1a2.5 2.5 0 0 1-.46-.9c-.3-5.5 0-11-1.1-16.5-.1-.6.6-1.2 1.2-1.5z" class="cls-8"/>
    <path d="M22.02 143.07l-5 4c-8-2.94-8-2.9-2.83-10.6a16.85 16.85 0 0 0 2.8-8.4c2.6-.9 4.8-2.92 7.7-2.76 4.1 3.5 5.2 8 4.1 13.2-1.2 3.3-4.3 3.5-6.9 4.7z" class="cls-66"/>
    <path d="M12.02 153.07l1.12-1.9.88-.1c2.1 1.75 4 11.5 2.72 13.56-.78 1.2-9.78 2.87-10.87 1.67-1.55-1.7-2.68-3.84-.8-6.16 2.05.72 4 2.8 6.8.24-2.56-1.38-4.8 1.35-6.8-.25.37-2.44 1.34-4.3 4.15-4.57 1.43-.2 2.13-1.34 2.8-2.5z" class="cls-67"/>
    <path d="M25.02 126.07l-8 2 1-2a4 4 0 0 0 3-1c1.2-.66 2.23-1.72 3.8-1.35a1.7 1.7 0 0 1 .73 1.1 1.9 1.9 0 0 1-.53 1.25z" class="cls-68"/>
    <path d="M6.02 47.07h2c2.93-.08 5.73 1.16 8.8.22 2.46-.8 4.06.7 4.23 3.4.38 6.3 2.76 12.1 5.3 17.8 2.27 5.2 1.67 6.1-4.32 7.5-.5-.5-1-.9-1.47-1.3-5.4-5.5-5.4-5.5-9.1 1.3-.6 1-1.26 2.1-2.65 1.5-1.8-.8-1-2.3-.2-3.3 1.7-2 1.5-3.8-.1-5.8-5.6-6.7-4.8-14-2.4-21.6z" class="cls-69"/>
    <path d="M21.02 83.07c-.06 2.7-.12 5.36 2.38 7.22 1.6 1.1 1.3 2.4.14 3.7-2.13 2.5-1.82 5-.34 7.8 3.9 7.2 1.46 14.6-5.93 18.5-3.5 1.8-6.68.2-7.07-4-.44-4.8-1-9.6.83-14.3h1c1.85 1.4 1.27 3.5 1.6 5.4s1.26 4.1 3.65 3.8 2.68-2.6 2.64-4.6a11.3 11.3 0 0 0-.76-3.4c-.88-2.6-1.9-4.9-4.9-1.8a1.74 1.74 0 0 1-2.24.4c2-6.4 1.92-13.4 6-19 1-.4 2-1.2 3 0z" class="cls-70"/>
    <path d="M71.02 9.07c8.1 2.45 16 .5 24-1-3.7 5.28-9.17 5.64-14.7 4.7a10.5 10.5 0 0 0-7.46 1.2c-3.7 2-8 1.86-12.1 2-4.78.2-7.86 3.08-11.1 5.92-1.54 1.3-.2 2.3.17 3.4-3.5 4.5-4.9 9.4-3 15 .52 1.5 2 2.7 1.22 4.6-2.23 1.5-3.75 4.7-7.45 1.5-1.38-1.2-4.12.7-4.46 3.3-.22 1.6-.86 3.6 2.32 3.7 2.9 0 4.2 3 5.55 5 2 3-3.4 1.9-3 4.4l-.4.5a2.62 2.62 0 0 1-1.8.5c-4.6-.9-7.1 1.2-8.1 5.6l-.6.3c-5.4-7.1-7.2-15.3-7-24a8.74 8.74 0 0 1 5.9-2.5 1.8 1.8 0 0 0 0-1.3c-2.8-8.7 1-16.9 9.4-21.1a33.76 33.76 0 0 1 9.2-3.4c3.6-.6 5.9-3.5 8.5-5.7h1c5.2 1.4 9.6-.8 14-3z" class="cls-69"/>
    <path d="M56.02 12.07c-1.12 3-3.33 4.66-6.35 5.73-4.48 1.58-8.84 3.5-13.2 5.38-6 2.57-9 13.3-5.27 18.53.76 1.1 2 1.9 1 3.5a2.28 2.28 0 0 1-3.43.8c-2-1.2-3.84-.2-5.74.2 2.5-3.5 2.17-7.8 3.43-11.6 2.27-6.7 5.3-13.7 13.52-15.6a45.6 45.6 0 0 0 16.04-6.7z" class="cls-53"/>
    <path d="M28.02 87.07c-1.78-2.67-1.05-5.35 0-8 2.36-1.3-.3-5.12 3-6 4.3 1.44 8.47 3.6 13.2 1.88a2.9 2.9 0 0 1 2 1c.34 1.52-.48 2.44-1.64 3.18-3.46.8-6.77 2.37-10.4 2.36-3.8 0-3.97 3.9-6.16 5.5z" class="cls-71"/>
    <path d="M44.14 76.2c-5.1 2-9.5 1.12-13.14-3.1l-1-3a3.13 3.13 0 0 1 2.9-.13c3.67 2.2 8.76 1.9 11.24 6.24z" class="cls-72"/>
    <path d="M71.02 9.07c-2.33 3.8-10.64 5.6-14 3z" class="cls-53"/>
    <path d="M36.95 159.07c-3.75-3.45.54-4.3 2-6.07.75-3 3.92-4.43 4.9-7.3a7.14 7.14 0 0 1 1.3-1.68c.93-.8 1.7-1.74 2.7-2.45 1.84-1 3.8-2.63 5.8-.9 1.78 1.57.6 3.6-.2 5.4a54.1 54.1 0 0 0-3.12 6.3c-1.57 2.27-2.28 5-3.65 7.32l-.66.3-2.2 3.9z" class="cls-73"/>
    <path d="M66.02 176c-1.1.05-2.2.06-3 1-3.76 1.82-4.43-.82-4.4-3.42.08-5 1.35-9.87-.36-14.9-.94-2.76 1.3-4.08 3.87-4.5 4.3 1 7.1 3 6.22 8.2-.28 1.65.33 3.6.9 5.36 1.13 3.52.42 6.5-3.23 8.26z" class="cls-74"/>
    <path d="M54.96 148.07c-1.25 4.2-5.3 7.23-5.12 12-2.14 2.85-2.54 6.3-4.06 10.42 2.76-2.1 2.15-4.9 4.15-6.8 1.32 2.4.2 4.5-.6 6.4-1.1 2.6-2.37 5-1.42 8 .4 1.2.2 2.9-1.6 3a2.94 2.94 0 0 1-3-2.7c-.6-3.9.2-7.6 1.3-11.3.7-2.4 1.8-4.7 1.6-7.3.9-2.4 1.9-4.7 2.7-7.1 1.5-2.3 2.5-4.8 4.1-6.9 2.2-.9 2.8-.2 2.1 2z" class="cls-75"/>
    <path d="M62.02 154.14c-2.53 2.13-2.83 4.1-1.77 7.65a21.85 21.85 0 0 1 .14 11.6c-.7 2.2-.1 3.6 2.5 3.5-1.6 1.8-3.3 2.6-5.5.9s-2.5-3.4-1.5-6c1.1-3.1 3.2-6.3 1-9.8a48.14 48.14 0 0 0-.1-5c-.5-4.9 1.6-5 5-3.1zm4 21.86c3.3-6.42 1.3-17.58-3.9-21.86.47-.87 1.82-2.07 2-1.75 1.66 3.3 5.75 2.3 7.9 4.6a8.34 8.34 0 0 1-.9 7.1c-1.6 2.9-.78 6.5-.07 9.9v1a8 8 0 0 1-5.03.9z" class="cls-76"/>
    <path d="M22.02 143.07c1.87-1.9 4.78-2.53 6.1-5.1.7-3.8 3.23-5.3 6.85-5.5 2.75.74 6.22-2.57 8.4 1.46.2 2.5-2.17 2.95-3.44 4.27a11.1 11.1 0 0 1-7 2.84 11.42 11.42 0 0 1-10.9 2.03z" class="cls-77"/>
    <path d="M46.02 145.4l-.86.66c-1.1 1-2.15 2.07-3.22 3.1-2.36 2.33-4.3 2.32-5.63-1a2.25 2.25 0 0 1 1-2.07c1.9-.2 2.9-1.5 3.9-2.9a1.56 1.56 0 0 0 .2-.5c1.1-2.2 2.5-4.3 5.2-2.7 3 1.7-.1 3.5-.3 5.3z" class="cls-78"/>
    <path d="M32.97 141.07l6.06-4c2.46.35 4.42-2.84 7.1-1a2.18 2.18 0 0 1 .3 1.34c-1.26 2-2.83 3.6-5.32 3.8-2.7.6-5.4 1.6-8.1-.1z" class="cls-79"/>
    <path d="M41.1 141.13l4.82-4.12c1.66-.6 3.46-1.6 4.68.6 1 1.8-.23 3-1.5 4.2a5.16 5.16 0 0 0-1.07 1.6l-2 2.1c-1.26-1.5 2.08-3.2.1-4.3s-3.38 1.3-5 2.1c-.98-.7-.35-1.4-.03-2z" class="cls-80"/>
    <path d="M37.2 146.07l-.28 2c-.54 3.26-2 5.4-5.77 5l-1.2-.06c2.52-2.2 3.2-6.3 7.25-6.9z" class="cls-81"/>
    <path d="M181.8 141.9c-2.4.17-4.88.2-5.73 3.18-1.08 2.22 3.17 1.76 2 4l-1.94 1a11.42 11.42 0 0 1-3.85.3c-6.27.1-6.27.12-5.6-5.93 1.56-3.84 1.56-3.84 5.5-4.44-2.58 0-5 .6-7.52.3-3.5.6-6.45 3.5-10.33 2.4.6-5-3.9-1.8-5.44-3.3-1.4-3 1.5-4.1 2.6-6a6.43 6.43 0 0 1 2.6-2.4 2.92 2.92 0 0 1 2.7.2c1.4 3.7 4.2 4.3 8.6 1.3a41.9 41.9 0 0 1 7.1-3.6c1-.4 2-.3 2.4.9s-.8 1.2-1.4 1.7c-.9.8-3.3 0-2.5 2.7.6 2 1.3 2.5 3.7 2.6 2.7.2 5 2.9 6.7 5.4z" class="cls-82"/>
    <path d="M152.96 134.07c-.4 2.37-3.68 2.6-3.85 5.14a1.54 1.54 0 0 1-.4 1.4c-3.1 1.6-5.5.2-7.3-2.3-2-2.6.2-4.6 1.6-6.6a36.85 36.85 0 0 0 2.6-3c1.6-2.1 2.4-4.5 3.6-6.8a5.5 5.5 0 0 1 4.2-3 11.75 11.75 0 0 0 2.4-.4c4.6-1.5 5.1-1.1 4.5 3.9-.5 2.6-.9 5.2-2.9 7.2l-.1 1.8-2 1c-.7-.5-1.5-.9-2.2-.2a1.5 1.5 0 0 0 .2 2.2z" class="cls-83"/>
    <path d="M167.02 113.07c3.08 1.43 6.55 4.76 7-2.47.1-1.6 3.27-3 5-4.5-1.22 4.5-1.77 9.12-4.16 13.35-1.8 3.18-4.68 4.15-7.55 4.8-2.6.6-2.5-2.42-3.3-4.14.6-2.5-2.6-6.7 3.1-7z" class="cls-84"/>
    <path d="M167.02 113.07c-2.66 1.64-2.1 4.66-3 7-.1-1.43-1.33-2.12-2.07-3.13a3.06 3.06 0 0 1-1.25-1.68c-.6-2.5-.85-5.08-1.5-7.6-.7-2.74-.06-5.17 3.27-5.9l.6.35c1.6 2.7 1.6 2.7 6.34.8-3 1.5-.7 5.7-4.4 7.4-1.8.9 1.6 1.7 2.1 2.8z" class="cls-85"/>
    <path d="M162.02 115.07v1.9l-2 5.1c-.17-2 .3-4.73-3.3-2.62-1 .6-2.47.42-3.73.6a2.5 2.5 0 0 1-.8-2c.9-2.54 2.2-4.93 2.7-7.62a4 4 0 0 1 1.6-1.64c2.7-1.2 4.2-.2 4.2 2.6a8.36 8.36 0 0 0 1.2 3.6zm-4.92 14.16a11.24 11.24 0 0 1 2.92-7.16c2.94 4 .13 5.63-2.9 7.16z" class="cls-86"/>
    <path d="M177.94 123.07l-.92 1c-1.4 1.34-2.72 2.94-5.64 1 2.64-.38 3.47-4 6.56-2z" class="cls-87"/>
    <path d="M156.02 75.07c-1.65-2.87-.74-6-1-9 4 6 6.8 12.68 10.12 19.06 1 1.88 3.08 3.1 5.2 3.88 1.1.4 3.17-.4 2.92 1.7-.2 1.6-1.8 2.4-3.4 2.4-4-.1-3.7 1.6-1.88 4.1-.68 1.2-1.56 2-3.06 1.7a9.7 9.7 0 0 1-5.24-9.5 22.92 22.92 0 0 0-3.66-14.1z" class="cls-88"/>
    <path d="M165.02 98.07l3-1 .12 1c-1 2.14-1.74 4.68-5 4l-.15-.13c-.9-2-.1-3.26 2-3.87z" class="cls-89"/>
    <path d="M73.94 176.14c0-.5 0-1 .06-1.5.17-1.88-.58-4.75 2.28-4.64 2.37.1 2.6 3 2.34 4.8-.46 3.05-2.75 2.04-4.66 1.32z" class="cls-90"/>
    <path d="M86.96 171.07l-3.94-4c.76-1.14 1-3.24 3-2.54s1.88 2.4 1.33 4.16a15.15 15.15 0 0 0-.4 2.3z" class="cls-91"/>
    <path d="M22.02 160.74c-.1-2.2.3-5 4.1-4.56 3.25.4 7.47 0 7.82 5 .15 2.22-4.55 6.47-7.2 6.67s-4.64-2.42-4.72-7.1z" class="cls-92"/>
    <path d="M31.14 153.07l5.77-5c1.5 1.54 2.9 2.1 4.5.2a5.2 5.2 0 0 1 3.8-2.2c-1 3.25-3.5 5.18-6.2 7-1.8-1.5-2.5.6-3.6 1.2-1.7.9-3.4 1.5-4.1-1.2z" class="cls-11"/>
    <path d="M144.02 166.07c-1.65 0-2.67 1.3-4 2-4-.72-7.9-1.5-12-1-1.54.17-4.14.74-4.4-1.93-.26-2.4 1.72-3.35 3.76-3.9 6.68-.84 13.36-.2 20 0 3.07.08 5.4.55 6.52 3.93 1.08 3.22 5 2.57 7.15 4.57a1.2 1.2 0 0 1-.12 1.3l-1.9 2.03a7.6 7.6 0 0 0-4.95-1.72c-1.62 0-3.8-.55-4.1-2.18-.77-3.88-3.48-3.1-5.96-3.1z" class="cls-93"/>
    <path d="M170.97 177.07l-.88.15c-1.8.1-1.8-1.1-1.7-2.3.8-1.67 2-2 3.5-.84l2.1 1.1z" class="cls-94"/>
    <path d="M167.9 144.93c.58 1.4.12 2.8-.2 4.65 3.1-1.55 6-2.22 8.42.53 3.2 2.4 4.73 4.8-.14 7a3.12 3.12 0 0 1-2.38 1.5c-3.66 1.5-7.1 2-10.37-1.1-1.58-1.5-3.65-1-5.5-.1a5.32 5.32 0 0 1-2.7.8c-3.63-.9-2.62-3-.84-4.5a20.2 20.2 0 0 0 4.7-6.8c2.7-1.8 5-6 9-1.8z" class="cls-95"/>
    <path d="M173.02 157.07h2.93c1.15 1.08 3.77 1.4 2 4-3.03.52-5.52.24-4.93-4z" class="cls-96"/>
    <path d="M178.1 149.07c-.6-1.38-3.85-1.42-2-4-.85 2.1 8.16-.77 2 4z" class="cls-31"/>
    <path d="M155.02 157.13l2-1c1.67-.64 2.3.6 3 1.67 1 1.52-.3 4.72 3.66 4.22 1.25-.16.84 2.38.1 3.73.08.1-.58.2-.04.26s.94-.1 1.43-.1c3.72.6 1.8 4 2.94 6 .6 2 .3 3.4-2.1 3.4-1.4-1.7-4.3-1.5-5-4a4.42 4.42 0 0 0 0-.9c-3.3-1.9-6.4-3.9-8.4-7.4-1.1-2-1-3.2.6-4.6.7-.4 1.4-.5 1.9-.9z" class="cls-97"/>
    <path d="M166.02 175.07c.78-.9 1.9-1.7 1-3.13 1.6-3.26 4.06-3.2 6.88-1.82.26 1.75-1.16 2.65-1.93 3.88a4.4 4.4 0 0 0-3.05 1c-.83.9-1.6 2-3 .94z" class="cls-24"/>
    <path d="M165.9 175.95l3-.94a2.67 2.67 0 0 0 1.16 2.2 8.34 8.34 0 0 1-5 2c-.77.6-1.65.6-2-.3-.43-1.3 1.36-1 1.72-1.8z" class="cls-98"/>
    <path d="M164.82 176.93c.12.73-2.4 1.74.24 2.2l-.14.78-2 1.1c-.9-.1-2.34.2-2.25-1 .18-2.4 2.2-2.8 4.15-3z" class="cls-97"/>
    <path d="M162.93 165.9l.3-3.05c-1.8-.57-2.86 1.8-4.94.93 1.7-2.82.9-5.4-1.3-7.68 2.8-1.88 5.5-3.74 8.2.24 2.2 3.37 5.1 1.57 7.8.77a5.67 5.67 0 0 0 5 4c-.8 1-2 1-3.1 1-2.8-.5-4.4 1.9-6.7 2.7-1.8.6-3.4 2-5.5 1.2z" class="cls-99"/>
    <path d="M173.9 170.16l-6.88 1.82c-1.37-.33-3.48-.37-1.57-2.52 1.18-1.33 1.5-2.06-.5-2.56 1.1-2.4 2.67-3.42 5.16-1.74.2 1.9 1.7 1.84 3 2z" class="cls-100"/>
    <path d="M170.1 165.15a7.22 7.22 0 0 0-5.14 1.74c-.85 0-2.1.8-2-1 2.7-1.6 5.4-3 8.08-4.6 1.57-1 2.8-.4 4 .7z" class="cls-101"/>
    <path d="M60.85 69.88c2.94-1.27 5.87-2.6 9.18-2.57a4.6 4.6 0 0 1 .87 2.7c.06-1.2.12-2.5 1.32-3.3 3.3-.3 3 2.1 2.6 4-.76 3.5-1.1 7.1-1.7 10.6.92-5 1-10.3 2.9-15.2l10-1.9c3.52 1.6 2.6 4.3 2 7.1-.64 3-1.54 6.1 1.72 8.4a4.1 4.1 0 0 1 .2 4.2c-4.1 2.5-5.82 1.6-6.43-2.9-.2-1.7 1.5-4.3-1.7-5-1.3 2.1-.8 4.7-2 6.8-1 1.4-2.5 2.4-2.1 4.7a4.2 4.2 0 0 1-1.5 4.5c-2.3 1.1-3.7-.4-5-1.8-1.1-1.8-2.9-3-4.1-4.6a5.73 5.73 0 0 1-.3-2 26.64 26.64 0 0 1 .3-5.3c.8-3.5-.6-4.5-3.9-3.2a2.5 2.5 0 0 1-1.8-1.1c-.8-1.3-.5-2.6-.3-3.7z" class="cls-102"/>
    <path d="M44.14 76.2c-4.2-1.3-8.54-2.3-12.14-5.12-1.23-6.26 0-7.75 6.2-7.62.92 0 2 .45 2.82-.38 5.8-3 8.36 2.67 12.3 4.6 1.1.57 1.9 1.78 2.85 2.7a2.06 2.06 0 0 1 0 1.44c-2.78 2.75-5.35 6-10 4.42h-2z" class="cls-103"/>
    <path d="M48.08 45.07c-6.56-6.5-5-11-1.42-17.92.58-1.12 1.5-2.3 3.18-1.73-.83 1.66-2.27 3.5 1.2 3.83a3 3 0 0 1 1.05 3.3c-.4 1.46-2 2.46-1.5 4.23.4 1.66 1.3 2.4 3 1.83a34 34 0 0 0 4.1-1.5 5.2 5.2 0 0 0 2-2.2c.8-1.1.4-2.5 1-3.7a2.65 2.65 0 0 1 2.7-1.7c1.7.4 3.3 1 2.6 3.2-.6 2 1 3.8.1 5.7.8 3.2-1.7 3.6-3.7 4-4.8 1.1-9.7 1.8-14.5 2.8z" class="cls-104"/>
    <path d="M94.13 63.17c5 0 9.8-2.2 14.86-1.87 1.2 1.14 2.7.27 4.1.46 1.8.26 4-.08 4.4 2.63-2.1 3.2-5.2 5.3-8.4 7.4-2.4.1-4.6-.1-6-2.4-1-1.6-2.6-1.9-4.2-2.2-1.2-.6-2.5-.4-3.8-.5-1.5-.1-3-.3-2.8-2.5a2.8 2.8 0 0 1 1.6-1.2z" class="cls-105"/>
    <path d="M117.02 64.07c-2.34-.18-4.7-.26-7-.6-1.08-.14-3.07-.33-1-2.16l3.3-2 2.7-.3c5-.7 8.37 3.7 13 4.3a2.37 2.37 0 0 1-.55 2.8c-4.27 3.5-7.36.8-10.45-1.9z" class="cls-106"/>
    <path d="M94.13 63.17l-1.13 1c-2.4 3.72-1.25 8.25-2.75 12.2a7.66 7.66 0 0 1-.74 2.3l-.6.36-2 4.45a27.4 27.4 0 0 1-.2-13.08c.5-2.22.7-4.25-.6-6.22 2.6-1.4 5.4-1.22 8.2-1z" class="cls-107"/>
    <path d="M56.02 71.07q.06-.35.15-.7l4.67-.5a3.8 3.8 0 0 1 1.18 3.2c.9 3.94 2.9 7.82.54 11.9-3.3 1.08-3.13-2.17-4.46-3.56a17.6 17.6 0 0 1-2.63-5.4c-.12-1.6 1.26-3.1.55-4.9z" class="cls-108"/>
    <path d="M76.02 66.07L73.9 85.6c-2.16-2.36-1.82-4.34-1.45-6.4.55-3.06 1-6.15 1.42-9.22.23-1.52-.15-2.62-1.9-2.78a.68.68 0 0 1-1-.2c1.52-1.16 3.3-.93 5.05-.93z" class="cls-109"/>
    <path d="M64.02 30.07a2.3 2.3 0 0 0-2.1 2.22c-1.58.6-3.14 1-4.68-.1-1.6-1.8-.86-3.1.73-4.3l-1.7-4.4c4 .4 5.87 3 7.77 5.5q.53.3.34.7a.5.5 0 0 1-.36.3z" class="cls-110"/>
    <path d="M64.02 30.07v-1c3.64.84 4.68 5.3 2.14 9.22-1.67-1.6-2.53-3.5-1.24-5.6.92-1.5.2-2.1-.9-2.7z" class="cls-111"/>
    <path d="M51.93 26.87a14.3 14.3 0 0 1 .63-2.07c1.6.26 2 1.7 2.65 2.92.9 1.93 2.4 3.73 1.4 6.07a1.43 1.43 0 0 1-1.4.5c-2.8-1.8-4.1-4.1-3.1-7.5z" class="cls-112"/>
    <path d="M70.95 66.98l1 .2v7.77c-2.8-2.17-2.45-4.88-1.93-7.63a7 7 0 0 1 .93-.34z" class="cls-113"/>
    <path d="M51.93 26.87c-.33 3 2.7 4.58 3.25 7.23l-.53.55c-1.72.7-3 .3-3.6-1.54v-3.8z" class="cls-114"/>
    <path d="M55.9 34.07l-.7-6.38c.9.3 1.8.8 2.76.2a3.7 3.7 0 0 0 .12 4.3c1.5.6 1.9 1.5 1.07 3A2.34 2.34 0 0 1 55.9 34z" class="cls-115"/>
    <path d="M127.02 65l1-1.78 3.87-.36c.7.57 2 1.18 1.3 2.23-1.8 2.6.8 2.8 1.9 3.9-.4 1.7.6 4.4-2.1 4.8-3.3.4-6.6.1-8.4-3.5 0-2.2 2.1-3.4 2.4-5.4z" class="cls-105"/>
    <path d="M102.02 129.13l8 9.93a.57.57 0 0 1 .28.67.43.43 0 0 1-.28.34c-4.33.24-8.58 0-12.54-2a2.9 2.9 0 0 0-1.82-.58c-6.73 3-11.06-3.1-16.64-4.4 1.8-2.6 4.2-2.5 6.84-1.5-1.87-.8-3.47-2.2-5.6-2.1a5.5 5.5 0 0 1-4.1-3.5 2.93 2.93 0 0 1 1.4-3.6c5-.5 9.53 1.7 14.4 2 2.72 2.8 7.53 1 10.06 4.4z" class="cls-61"/>
    <path d="M77.97 123a2.83 2.83 0 0 0-.67 2.88c-.07 2-1.2 1.54-2.37 1.05-1-.73-1.16-2-1.9-2.88l-1.1-1c-.12-3.12-3.06-3.6-4.83-5.2-1.06-4.5.2-5.75 5.9-5.77 1.62 3.2 5.2 5.14 5.83 9a2.2 2.2 0 0 1-.86 1.92z" class="cls-116"/>
    <path d="M73.02 124.07l2 2c1.4 2.3 3.06 3.85 5.9 2.14 3.9 1.3 8.5 1.4 11.25 6.7-4.85-1.8-8.92-2.8-13.17-1.7-8.4 1.2-5.46-5-5.98-9z" class="cls-117"/>
    <path d="M110.02 123.07c-5.57 3.72-10.77.65-16.06-.87a3.6 3.6 0 0 1 1.9-3.1 5.36 5.36 0 0 1 2.12-.47 6.47 6.47 0 0 1 3.75.7c1.73 1 .7-.6.9-1-1.6-2-4.83-1.27-6.07-3.78a7.3 7.3 0 0 1-.76-1.27c-.7-1.72-2.7-3.45-.75-5.3s3.94-.32 5.6 1c2.12 1.7 4.5 1.76 7 1.3 2.9 1.36 4.88-.68 7.15-1.86 4.1-2.15 8.14-5.58 12.92-1.33a5.34 5.34 0 0 0 5.84 2.3c3.9-.7 7 .8 8.2 5a3.68 3.68 0 0 1-.12 1.4c-3.52 4.1-7.77 6.6-13.4 5.6-3-.6-5.06 1-7.32 2.3-4.75-.4-5.15-1-3.73-6-3.2.9-4.2 4.4-7.2 5.1z" class="cls-118"/>
    <path d="M153.93 158.2c-2.4 3.1 1.68 4.4 1.84 6.8 4.26-.86 3.85 3 5.2 5.12-3.85-.54-8.86.78-8.82-5.8a1.92 1.92 0 0 0-2.3-1.5c-5.28 1.87-10.36-.76-15.56-.6-2.1.08-4.3 2.77-6.3-.14a1.4 1.4 0 0 1-.4-1.28c.2-1.12 2.4-2.16.7-3.2s-2.9 1-4.1 1.94c-1.9 1.08-3.7 2.18-5.8.6-1-1.54-1.2-3.2.5-4.2 2.3-1.38 2.6-3.95 3.9-5.87l2-2c.7-1 1.4-1.93 2.9-1.56 1.7.7 2.2 4.6 5.2 2 5.1-1.8 8-.6 8.4 4.3.3 3.4 1.6 3.9 4.4 3.2a21.5 21.5 0 0 1 7.9 2.3z" class="cls-119"/>
    <path d="M128.02 147.07l-3 1c.84-2.23 1-4.83 3.3-6.3a1.78 1.78 0 0 0 .74-.48c.4-1.4-5.84-9.6-7.36-9.9-2.9-.4-5.9-.7-8-3.3 1.24-2.3 3.9-.2 5.47-2.2-2.94-1.6-5.75-3.1-9.16-3 .8-1.8 2.9-2.7 2.7-5.2s2-1.9 3.3-1.8c2 .1 4.3-.8 6.3 1-1.4 1.6-4.6 1.2-4.5 3.9.1 2 2 1.8 3.5 1.9 1.4-1.3 2.9-1 4.4-.4 4.3 2 6.1 6.8 10.2 9.1 1.6.9 1.1 2.9.6 4.6a3.85 3.85 0 0 1-1.4 1.7 3 3 0 0 1-3.8-.4c.7 1.5 2.5 2.3 2.4 4.2a4.62 4.62 0 0 1-.4 2.1 7.55 7.55 0 0 1-1.9 2.1c-.8.8-1.7 1.7-3 1z" class="cls-93"/>
    <path d="M119.02 160.07l5-2c2.6-.66 4 .25 4 3v1c-1.2 1-3 1.4-3.45 3.8 5.4-.3 10.78-1 15.46 2.2-5.48.7-11.67 2-16.17-.5-3-1.68-6.23-5.12-8.9-8.17-1.17-1.33.82-2.52 2.07-3.33 1.5.9.74 3 2 4z" class="cls-23"/>
    <path d="M77.97 123l.14-1.86c.5-4 2.9-5.8 6.7-6.12 2.4.76 3.9 2.65 5.4 4.37l-.1.6c-.7.5-2 1-2.2 1.7-.3 1.4 1.1 1.2 2 1.3a3.87 3.87 0 0 1 3.1 2 .5.5 0 0 1-.8.1c-4.8 0-9.9 1.4-14.2-2.2z" class="cls-120"/>
    <path d="M110.02 140.07v-1c5.4-1 8.5 2.36 10.3 6.4 1.6 3.64-1.43 6.36-4 8.75-1.06 1-2.22 1.92-3.34 2.87.2-2.4 2.08-3.7 3.6-5.1 3.25-3 3-5.8-.45-8.1-1.94-1.4-3.5-3.5-6.1-3.9z" class="cls-4"/>
    <path d="M92.15 125.15q.42-.05.83-.14a18.76 18.76 0 0 1 7.84 1.2c1.32.6 2.5 1.3 1.2 3-3.62-.5-7.48-.4-9.87-3.9z" class="cls-121"/>
    <path d="M119.02 160.07c-1.7-.8-2.07-2.3-2-4 3-1 3.56-4.43 6-6 .83 4.18-4.78 5.8-4 10z" class="cls-93"/>
    <path d="M96.02 120.07l-2 2.08c-1-1.3-4 1.08-3.93-2.1q2.8-2.86 5.8.02z" class="cls-122"/>
    <path d="M59.02 80.15c1.95 1.06 1.53 3.6 3.05 4.9 1.42-.32 1.42-1.46 1.48-2.6a46.7 46.7 0 0 1 .14-4.87c.2-1.53.7-3.08 2.6-2.8 1.6.24 1.7 1.68 1.5 3.08-.3 1.75-.7 3.52.2 5.23v2c2 4.1 4.2 8 5.2 12.5.4 1.7 0 3.4-1.7 4.3-1.9 1-2.6-.6-3.5-1.8-.5-.8-1-1.7-1.5-2.5-.7-2.8-2.8-4.4-4.8-6.1-2.2-1.5-4.5-1.2-6.7-.1a10.4 10.4 0 0 1-2 .3c-3 1-5.2 3.5-8 4.8-1.3.5-1.9 1.4-.8 2.6 2.1 2.3 2.2 5.4 3 8.2 1.1 4.6 5.6 6.1 8.8 2.9 4.8-2.5 7-1.8 10 2.9 0 1.3.7 2.7-.5 3.8-2.3 4.9-6.7 3.7-10.6 3.7-2.3-3-5.8-3.9-9-4.9-1.6-.5-2 .4-2.3 1.7-.5 1.9-.2 4.1-2.2 5.3a69.1 69.1 0 0 1-6.8 1.4 4.07 4.07 0 0 1-3-1.1 1.84 1.84 0 0 1-.3-1.5c8.1-3.6 6.1-10.6 5.4-17-.4-3.6-.9-7.2-.5-10.8 1.4-4.6 1.7-9.7 5.9-13 1.9-1.1 3.8-1.8 6-1.1 1.9.6 3.5-.1 5.2-.7 1.9-.86 3.3 1.82 5.3.7z" class="cls-123"/>
    <path d="M65.84 117.2l-.82-3.13c1-2.2 1.08-4.63 1.45-7 .6-2.77.3-5.82 2.63-8 .62.7 1.38 2 1.83 1.94 1.14-.2 1.1-1.5.85-2.5a27.84 27.84 0 0 0-2.76-7.4c-1.07-1.8-2.2-3.7-1-6a4.42 4.42 0 0 1 3.93 3.1c.9 3.6 3.7 6.1 4.67 9.6 2.35-.3 3.14-2.8 5.22-3a15.82 15.82 0 0 1 5.94 2.9 4 4 0 0 1-.7 4.9 2.83 2.83 0 0 1-1.64 1c-4.6.3-6.4 3.1-6.56 7.3a3.74 3.74 0 0 1-.7 2.3c-1.3 1.2-2.64 1.7-4.12.3-3.07.5-6.77 0-7 4.7z" class="cls-124"/>
    <path d="M48.02 143.33a3.4 3.4 0 0 1 .3-1.43c2.8-3.43.86-4.48-2.4-4.9l-.1-.07c.82-2.8-2.42-1.23-2.86-2.66-2.57-3.1-5.34 1.88-7.94-.2.83-3.43 4.25-3.84 6.53-5.58.77-.7 1.62-1.4 2.4-2a3.76 3.76 0 0 1 1.12-.5l1.15 2c2.78 2.8 4.4 6.3 5.82 10l15 13a6.76 6.76 0 0 1-5.24-1.7c-3.07-2.7-3.3-2.5-6.82-1.4-.13-1.4-.4-2.5-2-1-.93.3-1.32 0-1.1-1l1.56-4.4c-2.42-.8-3.77.9-5.42 1.7z" class="cls-125"/>
    <path d="M42.02 121.92c1.77-3-1.05-6.64 1.52-9.58 4.76 1 8.14 9 14.9 2.6 0 3.3-2.64 4.1-3.26 6-1.65-.68-3.3-1.33-4.94-2.06-3.65-1.64-6-1-6.43 3.43a1.3 1.3 0 0 1-1.7-.3z" class="cls-126"/>
    <path d="M52.02 138.07a25 25 0 0 1-5.82-10c1.34 1.15 2.7 1.84 4.48.76.84-.5 1.9-.9 2.7.07a2 2 0 0 1-.27 2.73c-2 1.88-1.1 4.2-1 6.44z" class="cls-127"/>
    <path d="M42.02 121.92l1.8.44L45 126l-.24 1.16c-4.48 1.3-7.05-1.92-10-4.25 2.24-1.6 4.88-.6 7.24-.9z" class="cls-128"/>
    <path d="M71.02 174.07c-1.73-2.85-.5-6.45-2.42-9.3a1.5 1.5 0 0 1 .7-2.1c2.86-1 1.82-3.75 2.68-5.63 2.7 2.5 3.14 5.05.5 8-2.46 2.62-1.16 6.03-1.46 9.03z" class="cls-10"/>
    <path d="M124.94 70.15c1.9 2.1 4.8 1.46 7.14 2.44 2.72 1.1.1-3.9 3-3.6l1 .9c1.47 1 3.82 1.3 3.52 3.9-.5 2.4.37 4.4 2 6.2s3.4 4.1 2.44 7a3.2 3.2 0 0 1-4.18.2c-5.55-4-10.7-1.6-15.9.7a3.9 3.9 0 0 1-3.34-1.2c-1.6-2.2-3.1-4.3-1.5-7.1 1.34-2.4-.47-4.8 0-7.1-.3-2.3.72-3.6 2.92-3.9a3 3 0 0 1 2.9 1.4z" class="cls-129"/>
    <path d="M139.02 74.07l-2.9-4.16c4.87-.7 9.4 1.4 14.12 1.9 2.72.3 3.22 3 3.92 5.2 2.8 1.8 4.92 3.9 3.22 7.6-2.84 2.8-6 2.3-9.2.9-4.16-2.8-6.8-6.9-9.16-11.2z" class="cls-130"/>
    <path d="M157.02 84.07l-2.9-7.08a1.94 1.94 0 0 0 1.9-2c5.26 2.7 6.74 6.9 5.22 12.5-1.1 4.1 2.5 6.9 3.78 10.4l-2 3.9c-2.53 1.7-3.28 4.1-1.75 6.7 1.18 2.1.84 4.2.8 6.3a3.9 3.9 0 0 1-2-3.6c-.12-2.3-1.5-2.1-3.04-1.5-2.43-2-2-4.6-1.58-7.2a53.15 53.15 0 0 0 1.08-5.3c.22-2.8.53-5.5-.22-8.3a6 6 0 0 1 .8-5.2z" class="cls-131"/>
    <path d="M143.02 67.07c-.34.53-.58 1.38-1.05 1.54a5.52 5.52 0 0 1-5.1-.7 1.33 1.33 0 0 1 0-1.2c1.48-1 2.78.5 4.2.4h2z" class="cls-132"/>
    <path d="M38.02 94.07c-1 7.5 1.66 14.7 2 22.1.15 3.13 0 5.37-4.08 5-1.23-.1-2.53.65-3.8 1-2.12 1.48-4.12 3.8-7.12 1.9l-4 1c1.25-2.9 2.62-5.74 3.72-8.7.8-2.16 1.77-3.93 4.28-4.3a3 3 0 0 1 1.14-.92c4.2-1.08 6-3.83 5.82-8.08l-1-2c-.63-3.45-1.64-7 2.3-9.3 1.33.43 1.53 1.2.74 2.3z" class="cls-133"/>
    <path d="M38.02 94.07l-1-2c-3.48 1.7-4.24-3-7-3l-2-2c-.3-5 1.36-7.55 7.07-7.34 2.8.1 5.7-2.2 9-1.66 1.2 1.38 1 2.67-.3 3.9-3.2 3.5-3.8 8.1-5.9 12.1z" class="cls-134"/>
    <path d="M30.02 89.07c3-.6 4.66 2 7 3-1.53 2.82.63 6.46-2 9-1.3-.7-2.6-.24-3.88 0-2.15.38-4.73 1-5.48-1.7-.63-2.26 1.14-4.18 3.23-5 3.2-1.3 3.8-2.84 1.1-5.3zm5.95 14c1.65 6.27.07 8.33-7 9z" class="cls-135"/>
    <path d="M43.02 129.07c-2 2.67-5.2 3.53-8 5-3.58-1-4.22 3.28-6.9 3.93l-1.27-.6c2.5-4.3-1.48-7.52-1.85-11.34v-1c2.23-.67 4.17-2.5 6.77-1.63 3.47 1.5 1.65 2.94 0 4.5 3.17-2.45 6.65-2.4 10.27-1.35 1.46.5 1.88 1.2.98 2.5z" class="cls-136"/>
    <path d="M5.02 160.07c2.6-1.3 5-3 8.15-3.44-.3 2.46 2.75 5.7-1.42 7.12-3.1 1-5.93.2-6.73-3.67z" class="cls-137"/>
    <path d="M32.02 124.07l-7 1v-1c2.46-.3 4.44-2.46 7.13-1.85a7.2 7.2 0 0 1-.12.84q.53.35.35.7a.5.5 0 0 1-.36.3z" class="cls-138"/>
    <path d="M12.02 102.07c2.13-1.36 1.8-5.9 5.27-5 3 .77 3.1 4.34 4.1 6.93a5.7 5.7 0 0 1 .3 1c.6 3.3.4 6.3-2.7 8.42-1.3.88-2.6 1.64-4 .26-2.5-2.34-4.9-4.66-3.4-8.6a10.48 10.48 0 0 0 .2-3z" class="cls-139"/>
    <path d="M41.02 63.07c-.7.37-1.47 1.16-2.1 1.06-5.6-.92-6.2 3-6.9 6.94l-2-1c.23-7.23 2.26-8.5 11-7z" class="cls-51"/>
    <path d="M43.8 82l.22-3.93 2.12-1.86c4-.2 6.07-4.4 9.88-5.1 5 1.6 2.73 3.3 0 4.9.36 1.9-1.56 2.6-2 4.1-1.58 2.4-3 4.7-6.15 1.5-.98-1.1-2.7.2-4.06.6z" class="cls-140"/>
    <path d="M49.08 153.22a11.88 11.88 0 0 1-3.06 6.85 12 12 0 0 1 2.93-8.18.75.75 0 0 1 .13 1.3z" class="cls-141"/>
    <path d="M49.08 153.22l-.14-1.3a14.37 14.37 0 0 1 2.92-5.88l1.1 1a19.88 19.88 0 0 1-3.88 6.18z" class="cls-60"/>
    <path d="M42.97 134.27c1.4 0 3-2 4.2.24.78 1.5-.1 2.1-1.34 2.5-2.3-1.3-4.5 2.2-6.8.1z" class="cls-142"/>
    <path d="M167.9 144.93c-3.48-1.13-5.88.48-7.88 3.12a5.57 5.57 0 0 1-1.94 1 2.73 2.73 0 0 1-3.28-1 2.63 2.63 0 0 1-.2-1.4 7.26 7.26 0 0 1 4.86-4.5 8.45 8.45 0 0 0 4.65-4l12.5 1.52c-3 1.97-7.7.23-8.7 5.26z" class="cls-143"/>
    <path d="M164.1 138.14c-.34 5.76-6.16 5.85-9.17 8.85a4.06 4.06 0 0 1-4.5-2 2.62 2.62 0 0 1 .23-2.2c1-1.2 2.24-1 3.53-.8 3.2-1.4 6.9-1.9 9.9-4z" class="cls-144"/>
    <path d="M154.2 142.13c-.87 1.07-2.1.75-3.22.85a2.82 2.82 0 0 1-2.16-2.33v-.67a8.45 8.45 0 0 1 .3-.8c2.7-.4 4.24-3.58 7.4-3.17.8 2.7-1.74 4.1-2.32 6.2z" class="cls-145"/>
    <path d="M152.96 134.07c-1.15.37-2.85 1.45-2.6-1 .18-1.8.6-4.25 3-4.36s1.3 2.1 1.57 3.4z" class="cls-146"/>
    <path d="M158.02 97.07l-1.1 12.94-.9 1.1c-2.5 1.7-1.4 4.9-3 7v2c-3.5 2.4-3.88 6.8-6.1 9.9a1.64 1.64 0 0 1-1.92.5 1.62 1.62 0 0 1-.8-1.1 18 18 0 0 0-3.18-14.2c.7-3 .08-5-3.5-5.1-1.15 0-2.14-.7-3.24-1.1-1.48-1.3-4.33-1.4-3.76-4.4 1.13-1.8 3-1 4.56-1.3a6.23 6.23 0 0 1 2.67.9c3 .8 5.6 4 9 1.1a5.7 5.7 0 0 1 .9-1c2.27-1.2.6-3.7 1.6-5.3a6.27 6.27 0 0 1 2.5-2.5c2.27-.6 4.4-.8 6.27 1z" class="cls-145"/>
    <path d="M145.02 129.97h1.93a11.55 11.55 0 0 1-1 1c-1.87 1.53-4.48 3.3-3.57 5.7s3.65 3.48 6.5 3.25l.37.18c-.4 3-4.7 8-7.4 8.6-3.1.68-8.1-1.75-9.6-4.67v-1.87a9 9 0 0 1 .9-2c3-2.52 6.08-5 7.6-8.83.75-1.97 2.18-2.72 4.27-1.36z" class="cls-147"/>
    <path d="M153.02 118.07c.67-2.48-2-6.37 3-7-.34 2.6-.54 5.3-3 7z" class="cls-148"/>
    <path d="M28.5 158.64c1.15.43 3.4-1 3.12 1.15-.36 2.8-2.76 4.3-5.5 4.8a2 2 0 0 1-2.32-2.5c.52-2.4 1.82-4.3 4.7-3.5z" class="cls-149"/>
    <path d="M150.94 145.07c1.42.45 3.46-.38 4 1.9a2.65 2.65 0 0 1-1.88 2.1 17.13 17.13 0 0 1 2.68-.56 4.35 4.35 0 0 0 2.42-.3l1.86-.1c-1 2.9-1.65 5.8-5.17 6.9-.94.3-1.93 1.7.17 2.3l-1.1 1.1c-2.85 1.3-5.36.2-7.84-1.1-3.9-.9-5-3.5-3.83-7a7.83 7.83 0 0 1 8.7-4.9z" class="cls-150"/>
    <path d="M86.87 97.07c-4.74 6.73-2.8-2.23-4.76-2-1.5-.95-1.7-2.44-1.6-4 .2-1.36.7-2.74-.9-3.8a2.4 2.4 0 0 1-.9-3.32c1.4-1.27 3-1.16 4.7-.74 1.8 1.3 3.4 3.1 5.7.9v-5l.1.1c.6-3.7 1.7-6.9 6.5-6.2 2.9 5 8.8 2.7 12.6 5.2 2.7 3.1.2 4.3-2 5.5-2.5 1.3-5.3 1.3-8 2.2a8.73 8.73 0 0 0-3.4.9c-4.2 1.2-3.4 5.6-5.2 8.4-.7.9-1.3 2-2.6 2.3z" class="cls-151"/>
    <path d="M82.1 90.07V95l-5.5 7.1c-2.13-4.93-4.54-9.1-4.65-14 1.2 1.2 1.64 3.4 4 2.92 3.33-3.72 3.8-3.8 6.15-.95z" class="cls-152"/>
    <path d="M83.02 84.07c-1.3 1.43-2.64 0-4 0a1.32 1.32 0 0 1-.1-2 10.87 10.87 0 0 1 1.15-7.9c1.5-1.17 3-.94 3.58.76 1.04 3.02 2.13 6.25-.63 9.14z" class="cls-153"/>
    <path d="M79.02 82.07q0 1 .1 2c.07 1.9 1.9 1.9 3 2.72 1.46 1 1.8 2.2 0 3.3-1.82-1-3.27-1.2-4.2 1.2-.74 1.9-1.34.4-1.9-.3.5-3.2-2.4-7.5 3-9z" class="cls-154"/>
    <path d="M68.02 83.07c-1.86-2-.23-4.87-1.86-7.4-2.08 3.14-.68 6.44-1.2 9.45-2.47-.34-1.86-2.35-1.86-3.8 0-2.45-.43-4.9.12-7.33.9-1 .36-3.8 2.2-3.3 2.2.6 3.34 3.1 3.37 5.5A52.5 52.5 0 0 1 68 83z" class="cls-124"/>
    <path d="M63.2 74c2.34 3.44-.6 7.7 1.75 11.14-1 2.92-2 1.5-2.92-.08-.37-3.35.7-6.87-1.36-10-.78-1.2.33-1.68 1.35-2z" class="cls-155"/>
    <path d="M83.02 84.07c1.9-6.2 1.26-8.34-2.9-9.87.57-1.18 1.13-2.62 2.74-2.23 1.2.3 1.56 1.7 1.73 2.8a27.13 27.13 0 0 1 .3 5.38c-.2 2.9.9 4.4 4 3.87-1.9 5.2-3.9 1.4-5.9.05z" class="cls-154"/>
    <path d="M55.9 34.07l3 1a2.1 2.1 0 0 1 2 .9l-1.63 2.1c-1.83.5-4.73-1.52-5.22 2.2-3.23 1.9-4.32-.13-5.07-2.77 1.07-2.72 3.6-2.9 5.93-3.42H56z" class="cls-156"/>
    <path d="M54.02 40.3c-1.2 0-3.53.68-1.76-1.84 2-2.85 4.53-2.66 7-.36-.92 2.66-3.8.68-5.24 2.2z" class="cls-157"/>
    <path d="M54.9 34.07c-2.52.17-3.15 3.66-5.92 3.42-.3-2-2.73-4.9 2.06-4.5a6.07 6.07 0 0 0 3.87 1z" class="cls-158"/>
    <path d="M61.02 36c-.94.3-1.48-.33-2-.9l-.86-2.86c1.28-.88 2.57-2 3.82.05.58 1.4-.1 2.6-.96 3.7z" class="cls-159"/>
    <path d="M97.02 83.97c3.06-1.75 7-.37 9.9-2.84.94-.8 2.32-1.37.08-2.2a12 12 0 0 0-4.82-6.23 9.2 9.2 0 0 1-3.54-6.07l.38-.56c2.54-.07 4.92-.16 6 3 .5 1.55 2.7 1.24 4 2a9.62 9.62 0 0 1 2.6-.16c3.44-.6 6.63-.1 9.38 2.2.26 1.5-.74 3 .77 4.6 2.54 2.7-1.36 1.4-1.72 2.4-2.18 3.2-5.58 5-8.26 7.7-2.1.3-3.9-1-5.9-1-3-.8-6.7.6-8.9-2.6z" class="cls-160"/>
    <path d="M96.02 74.07c-3.63-.16-5.58 2-7 5-2-4.4 1.8-8.52.63-13-.4-1.5 1.63-2.23 3.33-1.94.36 1.9 1.7 1.1 2.7.9 1.34-.28 2.58-.53 3.3 1.04-.4 2.87 1.3 6.57-2.96 8z" class="cls-161"/>
    <path d="M111.02 72l-2-.94a26.74 26.74 0 0 1 8-7 2.68 2.68 0 0 1 3.46.4 5.2 5.2 0 0 0 6.5.56c1.9 2.74.92 4.34-2.04 5.14l-2.9-.16c-4.02-1.43-7.42.93-11.02 2z" class="cls-162"/>
    <path d="M54.08 80.07c-1-2.17.5-3.1 2-4.08a5.2 5.2 0 0 1 2.94 4.2c-1.77 3.8-3.32.3-4.94-.2z" class="cls-163"/>
    <path d="M80.94 128.17c1.48 4.27-1.32 2.24-3 2.07-2.67-.27-3.12-2-2.93-4.2.8.3 1.6.82 2.3-.16z" class="cls-164"/>
    <path d="M74.07 113.2l3.88-1.17a2.86 2.86 0 0 1 1.26-1.43 3.06 3.06 0 0 1 1.3-.15c1.2.54 2.5.44 3.7 1a5.78 5.78 0 0 1 1.9 1.73 2.54 2.54 0 0 1 .5 1.8 2.4 2.4 0 0 1-1.4 1.1c-3.3.33-4.3 3.7-6.8 5.1-1.7-2-3.5-3.9-5-6-.6-.9.7-1.35 1.1-2z" class="cls-165"/>
    <path d="M145.02 129.97c-4.4 1.4-4.2 6.72-7.76 9-1.36.9-2.37 2.17-4.17 2.17-.9-1.65.2-2.83 1-4.1l1-1c2.7-2.45 3.1-4.85-.8-6.26-3.6-1.3-5.1-5.6-9.3-5.73l-4.1-.98c.3-3.6 3.6-4.27 5.6-3.7 5.9 1.7 9.9-1.6 14.3-4.26a1.58 1.58 0 0 0 .3.4c8.3 3.1 4.9 9.1 3.6 14.6z" class="cls-166"/>
    <path d="M108.02 112.07c-3.1.12-6.22.2-8.8-2-1-.8-1.82-2.48-3.15-1.44-1.53 1.2.48 2.18.85 3.27a18.1 18.1 0 0 0 1.1 2.17 2.24 2.24 0 0 1-3 0 6 6 0 0 1-2.8-4.73c-2.35-6.3-1.75-7.26 4.9-7.8a11.46 11.46 0 0 0 2.4-.43l1.33-.4a8.64 8.64 0 0 0 3.5-1.9c2.44-2.1 2.9-5.7 5.44-7.7a3 3 0 0 1 3.6 0c1.6 2 .8 4 .1 6-2 4.8-5.7 7.3-10.5 8.6-.6.2-1.9 0-1.4 1.3.2.5 1.1.5 1.8.6 2.9.5 5.5-2.6 8.5-.6 1.5 3.9-1.9 4.1-3.9 5.4z" class="cls-167"/>
    <path d="M108.02 112.07l4-5c1-3.08 3.6-3.86 6.4-4.27 3.9-.46 7.77-1.3 11.7-.28a1.15 1.15 0 0 1 .9 1.55c.22 2.43 3.35 2 4 4-2.66 2.86-5.35.46-8 0-5-3.56-8.46.5-12.23 2.57-2.3 1.24-4.2 2.7-6.8 1.43z" class="cls-168"/>
    <path d="M127.02 108.07c2.66-3.37 5.36 1.26 8 0a29.07 29.07 0 0 1 3.34.22c1.9.3 4.2.3 5 2.3s-1.24 3-2.34 4.4c-2.15-2.7-3.94-5.5-8.4-3.7-2.26.9-4.92-.1-5.6-3.3z" class="cls-166"/>
    <path d="M96.02 113.07l2 1c2.6 2.3 6.13 1.65 9.68 2.64-1.54 1.9-3.32 1.3-4.74 1.7-2.4 1-4.8-.1-7.2 0a3.1 3.1 0 0 1-2.5-2.1c-.24-2 .36-3.4 2.76-3.2z" class="cls-169"/>
    <path d="M93.95 116.2l2.07.87c.5 1.1 2.4 1.2 2 2.9l-2 .1h-5.9c-2-1-4.16-1.8-5.12-4.1l.9-1.06c2.9-1.1 5.52-.1 8.05 1.3z" class="cls-170"/>
    <path d="M98.02 119.97c.16-1.55-4.65.37-2-2.9a16 16 0 0 1 6.92 1.32l4.92 2.9c-4.12 1.7-6.76-1.5-9.84-1.4z" class="cls-171"/>
    <path d="M150.94 145.07c-2.27.2-3.93 1.5-5.47 3-3.14 3.1-2.88 5.1 1 7.77a.47.47 0 0 1 .16.4 5.78 5.78 0 0 1-.53.78c-4.75 2.46-5.84-.58-6.27-4.3-.5-4.23-2.7-4.38-5.84-2.73a6.62 6.62 0 0 1-4.1-5.1l2.3-.9c7.2 4.8 8.2 4.7 14-2 .9-1.1 2.8-.2 3-2a3.28 3.28 0 0 1 1.7 2.8z" class="cls-172"/>
    <path d="M128.02 161.07l-4-3c.28-.4.52-.83.83-1.2 1.7-2 3.92-2.06 6.24-1.47a1.58 1.58 0 0 1 1.3 1.74 5.26 5.26 0 0 1-4.5 3.93z" class="cls-93"/>
    <path d="M129.9 144.96a6.2 6.2 0 0 1 4.12 5.1l-6 3.38c.36-2.5.8-4.45.07-6.32z" class="cls-173"/>
    <path d="M125.02 124.07c5.32-.84 8.4 3.86 12.87 5.27 1.8.6.5 2.85.5 4.43-.1 2.58-1.8 2.28-3.4 2.3-.1-1.1 1-2.9-.1-3.15-5.1-1.1-6.1-6.52-9.9-8.85zm9 13l-1 4.1-.88 1a20.55 20.55 0 0 1-2.87-9c2.28.7 1.13 5.53 4.75 3.9z" class="cls-174"/>
    <path d="M57.07 112.07c-1.06 1.5-2.33 3.52-4.28 2.5-3.2-1.6-6.7-3.12-7.4-7.36-.5-2.8-.3-5.9-3.5-7.7-1.5-.8-.6-2.8.6-3.2 3.8-1.5 6.5-5 10.6-6.1a2 2 0 0 1 .3 1.4c-.8 2.8-4.5 3.4-4.9 6.5 1.6 1.2 3.9-.2 5.3 1.5a34.94 34.94 0 0 0 5.4 7.7c-1.6 3.7-4.5 2.2-7.2 1.7 1.8.9 4.1.9 4.8 3.3z" class="cls-175"/>
    <path d="M57.07 112.07a20.72 20.72 0 0 0-3.82-.94c-4.22-.24-4.65-2.64-3.85-6.2 3.13 1.82 5.85 4.34 9.58 2.24 1.17-2.2 3.47-1.5 5.27-2.1 2-.06 2.3 2 3.6 2.82 0 2.4.06 4.9-2.78 6-2.05-3-4.35-5.3-8-1.9z" class="cls-176"/>
    <path d="M62.75 90.2c2.27 1.87 4.67 3.68 5.27 6.87 1 1.3 0 2.56-.07 3.83-.15 2.52-1.67 3.8-4.08 4.28-3.38.68-4.77-1.54-6.07-4a8.27 8.27 0 0 1-.4-3.9c1.18-2 2.77-2.17 4.65-1.05.68.4 1.3.78.47-.42a2.7 2.7 0 0 0-.8-.6c-1.13-.9-3.34-1.1-2.82-3.2.5-1.9 2.12-2 3.85-1.7z" class="cls-177"/>
    <path d="M65.02 106.07a14.85 14.85 0 0 1-6 1.18c-4.33-.44-4.4-4.42-5.93-7.16a14.23 14.23 0 0 1-1.2-2c-2-2.8 0-4.9 1-7.1l.2-.9 1.8-.2c1.4-.6 3.1-1.1 4 .2s-1.2 2.1-1.4 3.4c-1.9 6.4 0 9.5 6.7 11a1 1 0 0 1 .8 1.5z" class="cls-178"/>
    <path d="M65.02 106.07c-.7-.9-1.7-.85-2.68-1-6.22-.93-8.56-5.42-6.3-12 1.87-.38 2.13 1.15 1.73 2.08-.92 2.12.27 3.47 1.22 5 1.1 1.74 1.6 4.28 4.4 3.77 3.7-.67 3.7-4.1 4.6-6.82l1.1 2c.4 3.1-.8 6-1.3 8.94-3 2.25-2.9.03-2.9-1.97z" class="cls-179"/>
    <path d="M32.02 124.07v-1l2.8-.14c4.44-1.2 6.44 3.36 10 4.24a3 3 0 0 1-1.8 1.9c-.9-2.77-2.95-1.94-4.88-1.56-2.55.5-5 1.8-7.74 1.4-.38-1.9 3.62-2.4 1.62-4.8z" class="cls-180"/>
    <path d="M58.95 100.07c-3.57-1.27-2-4.7-2.95-7.06l1.8-2.6-2.87-.3c2.63-1.3 5.25-2 7.8.2-.93.8-2.88.7-2.67 2.3.08.6 1.87.9 2.9 1.4-1 2-4 1.1-4.93 3.2z" class="cls-181"/>
    <path d="M101.1 102.18c-1.08 1-2.44.9-3.75 1-5.7.27-5.7.26-3.46 5.7-2.6 2.35-5.9 3.56-8.9 5.23l-1-2c-.7-2.8-2.7 0-3.9-.9l-.2-.1c-1.9-2.3-.8-4.1 1-5.9 1.4-1.4 3.5-1.7 5-3a7.08 7.08 0 0 0 .9-5l1.1-3c2.3 4.6 5.8 7.3 11.2 6.7a2 2 0 0 1 1.8 1.4z" class="cls-182"/>
    <path d="M86.02 102.07a6.82 6.82 0 0 1-3.5 4 4.77 4.77 0 0 0-2.52 5l-2 1c-1.22-7.14.8-9.67 8.02-10z" class="cls-183"/>
    <path d="M119.02 104.07c-2.72.1-4.4 2.65-7 3l-9 2c-1.42-2.44.1-4 2-4.42 3.9-.94 5.94-3.65 7.8-6.74.74-5.3 4.43-8.6 8.2-11.8l3 1a3 3 0 0 1 1.27 2.5c-.3 2.3-.6 4.5.8 6.6a3.56 3.56 0 0 1 .2 4.2c-3.2-.1-4.8 2.8-7.4 3.8z" class="cls-184"/>
    <path d="M124.02 90.07v-3c4.37-4.57 8.67-5.27 14.13-2.46 1.88 1 3.9 1.7 5.87 2.5l.65.2c2.34 3.4 6.08 5.7 7.35 9.8l-2 2c-3.13 1.4-4.64-2.7-7.5-2.2a2.56 2.56 0 0 1-1-.9c-2.2-5.4-4.77-6.5-9.62-3.9-3.24 1.7-5.63.3-7.88-1.8z" class="cls-185"/>
    <path d="M121.02 86.07c.24 2.43.76 4.73-3 5.16-4 .45-1.48 5.24-4 6.9a1.8 1.8 0 0 1-2-1c.43-2 1.28-3.88.94-6 1.36-1.78-1.76-2.5-1-4.14-.43-6 5.32-4.7 8.05-7-1.6 2.3 2.4 3.7 1.1 6z" class="cls-186"/>
    <path d="M139.02 74.07c4.5 2 6.5 6.23 9 10 .56 3.8 0 4.25-4 3-2.5-1.57-1.25-6.33-5.48-6.44.3-2.22-.67-4.17-1.4-6.16z" class="cls-187"/>
    <path d="M111.02 72c3.12-3.72 6.47-6.2 11-2-2.1.43-1.62 1.72-1 3.06z" class="cls-105"/>
    <path d="M144.02 87.07c2.13.06 4.1-.07 4-3a19.58 19.58 0 0 0 9 0c1.06 4.28 3.12 8.48 1 13-2 1.37-4-.17-6 0a13.4 13.4 0 0 1-8-10z" class="cls-188"/>
    <path d="M32.2 81.32c2.4.06 3.08 1.86 3.48 3.63s-.7 2.9-2.46 3a3.45 3.45 0 0 1-3.87-3.1c-.26-1.97 1.16-2.97 2.85-3.53z" class="cls-189"/>
    <path d="M158.14 148.2c-2.53 1.18-5 2.4-7.6 3.5-.82.38-2 1.32-2.6.14s.34-2.22 1.47-2.7c1.9-.77 3.7-1.4 5.6-2.1.9 1.03 2.1 1.03 3.2 1.17z" class="cls-190"/>
    <path d="M124.02 90.07c3.43.07 6.84 1 10.23-.9s6.06 1.15 8.82 2.05c2.57.84-1.14 3-1 4.83-.17 2.78-1.8 1.52-3 1s-1.95-2.3-3.8-2.26c-2.32 3 2.28 6.2-.17 9.2-1.32 1.5-2.65.6-4 0l-1-1c-1.83-.3-4.1 0-4-3a4.7 4.7 0 0 0-1.57-3.5c-3.04-2.1-2.2-4.3-.5-6.6z" class="cls-186"/>
    <path d="M135.02 104.07c-.45-2.57-2.58-4.4-2.6-7.36 0-1.7-1.36-3 1.1-4.2s3.76.2 5.14 1.6c1 1 .8 3.7 3.37 2.1h1c3.82 1.9 6.1 4.5 5.07 9.1-1.26 2-2.76 2.5-4.95 1.2-1.82-1.1-3.85-1.8-6.1-1.2z" class="cls-191"/>
    <path d="M148.1 105.07c-1.25-3.27-4.38-5.5-5.08-9.07 3.8-2.35 4.5 2.43 7 3-.2 2.23 4.08 5.82-1.93 6.07zm-11.08 0c1.55-2.93 3.8-1.47 5.52-.54 1.88 1 3.53 1.75 5.5.53-.13 2.9-1.83 3.77-4.3 3a73.1 73.1 0 0 1-6.72-3z" class="cls-192"/>
    <path d="M110.08 92.07c-1.17 3-2.06 6.14-5 8-1.18.47-1.8-.26-2.36-1.1-1.46-2.15-.8-4.73-1.5-7-.14 2.45.76 4.83.48 7.28-2.64 3.46-4.4.3-6.4-.86-.95-.6-.35-3-2.5-2-4-2.1-2.07-5.1-1.18-7.9.44-1.4 2.37-1.8 2.3-3.5l3.1-1.1c3.4-.4 6.66.7 10 1.2 2.6 1.5 5.55 3 3.06 6.8z" class="cls-193"/>
    <path d="M96.02 74.07l3-8c3.15 1.66 3.15 6.3 7.7 7.14 2.73.6 1.6 3.7.24 5.8-3.33-1.1-6.56-1.3-9.23 1.2-2.1-1.8.13-4.4-1.7-6z" class="cls-194"/>
    <path d="M93.93 85.07c2.64 1 .4 2-.13 2.82-1.7 2.6-2.65 5.3-.87 8.3 2.35 2.9 6.13 3.5 8.94 5.7l-.78.2c-1.9 0-3.7 0-5.5-.1-7.4-.7-7.4-.7-7.7-8 1.3-3.5 1.6-7.6 5.9-9.1z" class="cls-195"/>
    <path d="M110.08 92.07c.27-2.9-1.06-5.07-3.13-6.9 1.94-.14 3.36 1.2 5.06 1.77 1.5 2 3.4-.36 5.2.66a5.23 5.23 0 0 1-4.2 3.47z" class="cls-196"/>
    <path d="M85.02 114.07c1.45-4.3 4.37-6.1 8.85-5.23a5.4 5.4 0 0 0 2.15 4.23 3.6 3.6 0 0 0-2.07 3.13c-3.13 2.4-5.53.07-8.08-1.25z" class="cls-197"/>
    <path d="M80.14 111.15a17.23 17.23 0 0 1 5.87-4.63c.8 2.67-1.2 3.88-2 5.54-1.5.87-2.9 1.13-3.8-.9z" class="cls-198"/>
    <path d="M112.02 97.07l2 1c-1 3.92-3.9 6-7.32 7.53-1.68.75-3.52 1.17-3.7 3.46-2.57.2-4.23-1.48-6.75-3.36 5.77-2.5 12.68-2.44 15.77-8.63z" class="cls-199"/>
    <path d="M101.87 101.93c-3.48-1.15-7.58-1.33-8.94-5.77l.22-4.2a3.16 3.16 0 0 1 3.07 3.4c0 3.5 1.82 4.28 4.8 3.76a2.15 2.15 0 0 1 3-1.12l1.1 2.13a4.2 4.2 0 0 1-3.25 1.8z" class="cls-200"/>
    <path d="M126.02 100.07c1 1.38 3.72.54 4 2.95a7 7 0 0 1-.84 1.1c-3.4-1.67-6.8.72-10.17-.06a2.3 2.3 0 0 0 .7-.7c1.1-3.68 2.4-4.3 6.4-3.3z" class="cls-145"/>
    <path d="M52.9 91c.1 2.38-1 4.75-.06 7.14-1.93.43-3.6 2.38-5.85 1-1.2-.83-3.7-1.27-.8-3.18 2.3-1.54 4.4-3.3 6.6-4.96z" class="cls-201"/>
    <path d="M47.02 99.07l5.85-1 .15 2c-1.82-1.44-4.52 2.62-6-1z" class="cls-202"/>
    <path d="M58.02 97.07c.23-3.24 2.8-2.86 4.92-3.2 2.9 2.1 2.43 4.62 1.2 7.56-2.64-1.04-1.78-6.44-6.12-4.36z" class="cls-203"/>
    <path d="M104.02 98l-3 1.12c-1.8-2.23-.5-6.08-4-7.45-.78-.3-.3-1.2.26-1.57a5.22 5.22 0 0 1 5.6-.35c1.24.66 2.24 1.8 1.42 3.2-1 1.72-1.4 3.3-.28 5.06z" class="cls-204"/>
    <path d="M107.87 90.57a7.9 7.9 0 0 1-4.2-4.23c2.3.6 3.96 1.1 4.2 4.23z" class="cls-205"/>
</svg>