<svg xmlns="http://www.w3.org/2000/svg" id="Layer_1" data-name="Layer 1" viewBox="0 0 184.34 184.17"><defs><style>.cls-1{fill:#33251c;}.cls-2{fill:#3f2d21;}.cls-3{fill:#524034;}.cls-4{fill:#3e2f26;}.cls-5{fill:#4d3b2e;}.cls-6{fill:#3a271d;}.cls-7{fill:#4d3728;}.cls-8{fill:#9d6f31;}.cls-9{fill:#2e1f18;}.cls-10{fill:#c3954c;}.cls-11{fill:#ad753a;}.cls-12{fill:#be8447;}.cls-13{fill:#764027;}.cls-14{fill:#6f4329;}.cls-15{fill:#87693f;}.cls-16{fill:#4a2d21;}.cls-17{fill:#8e5a35;}.cls-18{fill:#b9874e;}.cls-19{fill:#623628;}.cls-20{fill:#715e4d;}.cls-21{fill:#69574d;}.cls-22{fill:#392319;}.cls-23{fill:#b88049;}.cls-24{fill:#765733;}.cls-25{fill:#837260;}.cls-26{fill:#746555;}.cls-27{fill:#a36f3e;}.cls-28{fill:#8f5924;}.cls-29{fill:#b28a3f;}.cls-30{fill:#ab7d3d;}.cls-31{fill:#a0753d;}.cls-32{fill:#453126;}.cls-33{fill:#3f2c20;}.cls-34{fill:#9c703a;}.cls-35{fill:#a2793d;}.cls-36{fill:#b08f56;}.cls-37{fill:#6d4d17;}.cls-38{fill:#46362a;}.cls-39{fill:#4c392f;}.cls-40{fill:#584335;}.cls-41{fill:#493428;}.cls-42{fill:#b2874e;}.cls-43{fill:#745834;}.cls-44{fill:#c0993e;}.cls-45{fill:#b18637;}.cls-46{fill:#af8235;}.cls-47{fill:#c48a44;}.cls-48{fill:#af6c40;}.cls-49{fill:#855829;}.cls-50{fill:#825224;}.cls-51{fill:#906419;}.cls-52{fill:#a67b27;}.cls-53{fill:#c38333;}.cls-54{fill:#ca9940;}.cls-55{fill:#c7a156;}.cls-56{fill:#985939;}.cls-57{fill:#c8a45d;}.cls-58{fill:#daa458;}.cls-59{fill:#763d27;}.cls-60{fill:#5a3123;}.cls-61{fill:#936f43;}.cls-62{fill:#645340;}.cls-63{fill:#a2773c;}.cls-64{fill:#996c3a;}.cls-65{fill:#b69345;}.cls-66{fill:#a37d2a;}.cls-67{fill:#af823e;}.cls-68{fill:#946c47;}.cls-69{fill:#a67b46;}.cls-70{fill:#8d5a37;}.cls-71{fill:#a76c3d;}.cls-72{fill:#c5853f;}.cls-73{fill:#a76633;}.cls-74{fill:#ab6036;}.cls-75{fill:#964f2e;}.cls-76{fill:#925d26;}.cls-77{fill:#955f1d;}.cls-78{fill:#ca9138;}.cls-79{fill:#c39d3e;}.cls-80{fill:#996a35;}.cls-81{fill:#b78c3c;}.cls-82{fill:#ca9b47;}.cls-83{fill:#a57724;}.cls-84{fill:#9c701c;}.cls-85{fill:#b48a3c;}.cls-86{fill:#916638;}.cls-87{fill:#ae8142;}.cls-88{fill:#91663c;}.cls-89{fill:#65421d;}.cls-90{fill:#926b3c;}.cls-91{fill:#926b33;}.cls-92{fill:#aa8353;}.cls-93{fill:#593812;}.cls-94{fill:#724c1d;}.cls-95{fill:#7a5628;}.cls-96{fill:#522e0b;}.cls-97{fill:#704710;}.cls-98{fill:#a58151;}.cls-99{fill:#805a26;}.cls-100{fill:#6f4a1f;}.cls-101{fill:#ca984d;}.cls-102{fill:#73523f;}.cls-103{fill:#b67e49;}.cls-104{fill:#9d7b4b;}.cls-105{fill:#a57b3d;}.cls-106{fill:#614223;}.cls-107{fill:#b2733d;}.cls-108{fill:#cc9b41;}.cls-109{fill:#bb7f3f;}.cls-110{fill:#7b522f;}.cls-111{fill:#bb914d;}.cls-112{fill:#845b36;}.cls-113{fill:#754b1e;}</style></defs><path d="M27.1.15h141c2.65 5.82 2 8.3-2.75 12.13-2.32 1.86-3.87 4.48-6 6.58-3.44 3.4-7.52 4.83-12.3 5.42a91.5 91.5 0 0 1-14.57.9c-2.7-1.06-3.94-3.48-5.35-5.73a5.77 5.77 0 0 0-3.18-2.83 62.5 62.5 0 0 1-6.25-2.68 11.4 11.4 0 0 0-8.2-1 25.15 25.15 0 0 0-13.3-.88c-5.06.88-10.13 1.84-15.16 2.93-5.4 1.1-9.67 4.2-13.43 8.1-5.6 1.2-6.8 5.9-9 10.3-2.6 5.2-6.6 9.8-7.7 15.9-.4 2.5-4.5 2.1-7.8.2-9.3-5.6-11.3-14.2-10.6-24 .4-5-.7-9.2-4.9-12.4-7-5.5-7-7-.4-13.1z" class="cls-1"/><path d="M27.1.15a6 6 0 0 1-.38 1.95c-2.6 4.37-1.5 7.63 3.08 9.5 6.67 2.75 6 8.82 5.3 13.76a27.85 27.85 0 0 0 2.6 15.46c1.42 3.14 5.66 4.63 8.5 7 2 1.66 3.15-1.1 3.33-2.87.38-3.9 1.82-6.75 5.46-8.77 2.5-1.4 2.8-4.77 4-7.3 1.5-3.24 2.7-6.83 7-7.72 3 2.08.6 4.15-.3 6-3.1 6.6-6.6 13-8.7 20-2 5.44-1.6 11.37-3.5 16.84-1.8 4.47-1.6 9.1-1.1 13.75 0 2 0 4.08-.1 6.12-3.8 5.3-6.8 11-7.9 17.45a4.33 4.33 0 0 1-1.9 2.86c-2.4.15-4.5 2.08-7.1 1.33-3.2-4.1-4.2-9.4-6.5-14-.6-1.2.4-2.5 1.3-3.5 2.6-3.3 2.4-7.7 4.6-11.3 1.1-1.9-1.2-5.1-.7-8 .2-1.3-1.8-.9-2.9-.8-2.4 0-5 .7-7-1.2a5 5 0 0 1-.9-1.1c-.9-1.6.3-2.8.9-4.1 2.3-4.8 1.6-7.2-3-9.7a91 91 0 0 0-8.5-4c-2.4-.9-3.2-3.1-1.7-4.6 5.5-6 2.1-12.4 1.6-18.8-.5-6.9-5.4-12.4-6.1-19.2-.2-1.6-1-3.2.4-4.7h20z" class="cls-2"/><path d="M184.1 85.15v9c-1.14 4.9-.2 9.9-.5 14.83-1.7 2.2-4.22 2.1-4.43-.53-.4-5.17-5.34-9-3.87-14.57a3.05 3.05 0 0 0-2-3.67 11.55 11.55 0 0 1-7.82-7.9c-4.7-2-9.52-3.7-14.15-6-5.53-2.6-6.6-6.3-3.3-11.1.7-1 1.55-2 2.73-1.8 4.33.6 4.93-2.5 5.42-5.5a51.66 51.66 0 0 0 .9-9.4c-.1-3.9 2.83-6.3 6.44-4.8 2.2.9 3.22.6 4.6-1a7.3 7.3 0 0 1 5.8-2.4c2.7 0 4.96-1.4 4.5-4.1-.92-5.7 1-11.4-.07-17.1-.46-2.4-2.32-4-2.68-6.3 1.32-3.7 3.84-5 8.4-4.2v54a106.5 106.5 0 0 0 .02 23z" class="cls-3"/><path d="M184.1 8.15c-1.35 3.07-5.3 2.47-7 5 3 7.45-1.85 13.7-3.28 20.44-.34 1.5-2.3 2.1-3.77 1.8-7.2-1.5-9.7 3.8-12.22 8.6-2.33 4.4-7.8 7-12.55 5.2-3-1.1-2.1-3.7-2.14-5.8-.06-3.3.4-6.8-4.58-6.6-2.78-2.6-4.14-6.2-5.94-9.4-.87-1.6-.92-3.1.6-4.4 7.5.1 14.32-3.3 21.62-4.1 1.4-.2 2.1-1.5 3.06-2.4 2.86-2.7 4.36-6.5 8-8.6 2.43-1.5.78-5.4 2.2-7.9 4 0 8 .3 12-.1 3.46-.3 4.7.6 4 4.1a22.12 22.12 0 0 0 0 4z" class="cls-4"/><path d="M7.1.15c4.56 8.54 8.07 17.5 8.8 27.2.26 3.48 3.6 6.14 1.66 10.38-1.08 2.35-1.63 4.75-4.34 6.3 4.5 3.75 10.22 4.5 14.18 8.55 2.94 3 3.93 4.9.62 8-1.28 1.2-2 3-2.95 4.57-.34 7.06.9 14.12-.36 21.2-.9 5.07-5.5 6.64-8.6 9.5-1.3 1.2-2.7-1.33-4.1-2.08a6.55 6.55 0 0 1-1.2-.9c-1.5-1.3-2.5-3-1.1-4.74 3-3.54 1.6-7.37.9-11-.5-2.87-.8-5.53.2-8.3 1-2.6.9-4.87-1.7-6.73-.6-.44-2-1.54-1.4-2.76 1.6-3.54-.5-6.6-1-9.85-1.7-10-3.3-20.1-3.8-30.3-.1-2.7-1.1-4.7-2-6.9-.4-3.4.6-6.8-.6-10.2.4-.7-1-2.1 1-2s4 0 6 0z" class="cls-5"/><path d="M168.1 184.15h-5a3.7 3.7 0 0 1-1.2-1.68c1.4-2.2 2.17-4.4.13-6.64a71.28 71.28 0 0 0-5.23-8.65c-.64-2.62-.94-5.14 1-7.46 1.54-1.83 1.35-4 .72-6.17 0-3.76 3.77-5.6 4.44-9 1.42-4.5 4.16-8.54 4.25-13.52 0-3 2.4-4.47 5-4.92 3.2-.5 8.5 2.6 8.6 5.7.2 4 2.5 7.3 2.8 11.1v25.7c-.1 3.5-1.7 3.5-4.1 1.7-1.2-.9-1.4-2.6-3-3.3-4.4 3.6-8 7.6-6.8 13.9.4 1.6-.4 2.5-1.4 3.4z" class="cls-6"/><path d="M12.1 92.15c3.5 2 9.38-1.2 10.73-6.2.73-2.68 1.34-5.5.62-8.32a17.17 17.17 0 0 1 1.64-12.48c5 2.46 4.2 6.37 3.3 10.88-1.1 6-1.4 12.15-2.1 18.22a2.8 2.8 0 0 1-.2 1.45c-4.4 4.5-3.5 12.27-8.2 15.75-3.9 2.92-3.9 6.78-5.9 10-1.8 2.74-1.5 4.82.9 6.82a4.93 4.93 0 0 1-.1 2.26c-2.4 2.88-2.9 5.74-2.8 9.8.2 8.47 3.6 17.17-.6 25.58a5.27 5.27 0 0 0 .8 6c1.2 1.5 1 3.1 1 4.7-.2 3-1 5.6-3.4 7.6H6c-3-3.9-5.57-8-4.5-13.3 2.07-10.2 2.94-20.7 1.1-30.9-1.37-7.6.3-14.8.72-22.1a18.3 18.3 0 0 1 4.48-10.7c2.6-3 4.72-6.9 2.57-11.4-.93-1.9-.6-3.2 1.7-3.6z" class="cls-7"/><path d="M65.1 184.15h-23c-1-.95-2.22-2.12-1-3.37 2.24-2.3 1.1-4.57.47-6.92-1-4.8-.27-10.25-5.05-13.64a5.3 5.3 0 0 1-.52-6c1-1.87.8-3.8 1.43-5.62 1.52-1.84.3-5.5 3.95-5.9 3.46.2 7.05-.4 10.2 1.65 1.16 1.25 1 2.73.78 4.24-.7 2.3-4.17 1.5-4.73 4.1-.53 1.1-1.67 2.1-.56 3.6 2.76 3.5 3.78 8.1 7.18 11.4a14.76 14.76 0 0 1 4.24 9.4c.3-.5-.2-2 .7-3 .9-.7 1.8-1.6 3.1-1.6h1.4a26 26 0 0 0 3.5.1c2.8.1 2.5 3 3.8 4.5.4 1.1 1.4 2.1 1.2 3.5-1.6 3-5.3 1.3-7.3 3.3z" class="cls-8"/><path d="M12.1 92.15c-1.4 2.77 2.18 4.66 1.2 7.55-1.22 3.55-.1 8.1-4.9 10-.56.22-.83 1.37-1.1 2.14-.2.62-.16 1.32-.33 2-2.57 9.45-4.57 18.87-1.92 28.74 2.26 8.42 0 16.8-1.24 25.13-.5 4-1.8 7.7 1.5 11.3 1 1.1.6 3.5.8 5.3h-5c-2 .1-.6-1.4-1-2 1-1.5.5-3.2.5-4.8v-53.3c3.3-9.2 3.2-19.1 6-28.4 1-3 1.4-5.7 5.5-3.5z" class="cls-5"/><path d="M168.1 184.15c-2.4-6.12-2.16-11.68 3.4-16.13a5.2 5.2 0 0 0 2.08-4.82c-.17-1.76-.06-3.55 2.3-3.58 2.06 0 2.84 1.54 3.1 3.3a10.45 10.45 0 0 0 3.93 7.26c1.3 4.64.9 9.3.2 14h-15z" class="cls-9"/><path d="M8.1 184.15l1-8c.1-3.16-1.55-6.58 1.33-9.34 6.1-.7 6.9-2 4.2-6.4-1.3-3.6-1.68-7 1.14-10.1 1.57-.7 1.54-2.3 1.7-3.6.65-4.8 3.15-9 4.96-13.4.68-1.6 1.84-2.7 3.84-2.4a2.3 2.3 0 0 1 2.3 2 8.14 8.14 0 0 1-1.07 7.3 3.24 3.24 0 0 0-.1 4c.2 1.2-.35 2.3-.44 3.5.7 3.1-1.1 5-3.1 6.9-1.4 1.3-2.24 2.6 0 3.9 1 .9.74 2.2 1.1 3.2s1.24 2 1.3 3.3c-.55 2.4-1 4.5.4 7 1.7 3.2-2.42 9.3-6.16 9.7a20.2 20.2 0 0 0-8.4 2.8h-4z" class="cls-10"/><path d="M112.1 184.15h-28c-1.27-2.9 1.3-4.3 2.43-6.27a5.12 5.12 0 0 1 4.17-1.3c5.35.75 10.43.5 14.9-3 5.16-.92 9.7-3.72 14.78-4.94.63.2 1.23.47 1.84.72 1.77.73 3.86 1.65 4.12 3.5.3 2.18-1.76 3.27-3.46 4.52a60.75 60.75 0 0 1-10.8 6.77z" class="cls-11"/><path d="M12.1 184.15c1.64-3.24 3.83-5.46 7.86-5.68 3.48-.2 4.75-4.3 3.62-5.7-2.6-3.2.17-5.08.5-7.5 2-2 3.4-.73 4.76.84 2.33 2 5.44 2.4 8.06 3.8 1.67.9 3.55 2.8 1.56 4-4.07 2.7-5.55 7.5-9.37 10.3h-17z" class="cls-12"/><path d="M29.1 184.15a16.86 16.86 0 0 1 8-10.9l-9.9-5.18c-1.7-1.8-.82-3.26.76-4.44 2.58-1.92 3.32-4.64 3.56-7.62 1-4 3.27-6.6 7.66-6.7l4.64-1.8c-4.12 3.8-7.18 6.8-6.57 11.5 3 4 3.2 9.1 4.9 13.6-1.24 5.3-4.78 8.7-9 11.7h-4z" class="cls-13"/><path d="M121.1 184.15h-4c-1.48-2.4.9-2.78 2-3.88 2.1-2.18 5.08-3.27 7.13-5.54 1.4-1.56 2.52-2.9-.7-3.85a18.8 18.8 0 0 1-4.54-2c-1.7-1.65-2.7-3.38-.8-5.52a2.94 2.94 0 0 1 1.4-.62 3.7 3.7 0 0 1 1.4.07c7.3 2.8 14.5 3.9 20.7-2.5a1.6 1.6 0 0 1 1.4 0c3.1 6.5.5 11.6-3.7 16.5-5.3 2.8-11.2 3.6-16.7 5.5a8.92 8.92 0 0 0-3.8 2z" class="cls-14"/><path d="M163.2 182.2l-.1 1.95h-2c-2.36-1.48-6.7-1.4-4.82-5.73.07 1.9-.15 4.14-2.2 5.73h-2a27.7 27.7 0 0 0-2.33-2c-2.14-6.1.52-11.58 3-16.73 1.84-3.9 4.22 0 6.3.82 2.88 2.25 4 5.56 5.3 8.75.65 2.5-1.47 4.6-1.14 7.2z" class="cls-15"/><path d="M140.1 174.15c3.76-3.37 3.56-8.33 5-12.62a.85.85 0 0 1 .77-.9c1.8.73 2.72 2.66 4.55 3.35 1.9 1.4 1.34 3.4.62 4.85-.92 1.84-.46 3.65-.74 5.45-.17.46-.58.82-.73 1.24-1.8 5-4.7 8.6-10.54 8.6h-2c-2.68-2.28-2.7-4.54.06-6.77 1.2-.9 1.6-2.5 3-3.2z" class="cls-16"/><path d="M122.1 168.22c3.27.32 6.54.63 9.82 1 1.1.1 2.58-.07 2.82 1.4s-1.08 1.85-2.13 2.35c-5.8 2.8-10.7 6.92-15.5 11.2h-5c2-3.48 5.7-4.87 8.6-7.23 1.3-1 3.4-1.4 3.1-3.43s-2.2-2-3.8-2.5c-.8-2.1.3-2.8 2.2-2.7z" class="cls-17"/><path d="M33.1 184.15c1.58-4.45 3.46-8.68 8-11.05.72-.55 1.38-.65 1.9.27 5.73 4.1 5.72 5 .08 9.07a4.9 4.9 0 0 0-1 1.7h-9z" class="cls-18"/><path d="M140.1 174.15c-1.66 3.13-3.3 6.27-3 10h-16a9.62 9.62 0 0 1 8.5-6.46c4.04-.2 7.2-1.9 10.5-3.6z" class="cls-19"/><path d="M1.2 123.15l-.14 52.2c0 2.3.18 4.66-1 6.8v-96a1.38 1.38 0 0 1 1.74.06 8.23 8.23 0 0 1 1.23 2.7c.7 11.5 1.45 23-1.82 34.3z" class="cls-20"/><path d="M183.1 184.15l-.2-14q0-14 .05-28c-.94-4.44-2.7-8.77-2-13.47 1.5-4.43-.25-9 .5-13.47.32-1.8.1-3.6 1.54-5 .5-5.3-.8-10.7 1-16q0 43-.1 86c0 1.3 1.1 3.1-1 4z" class="cls-21"/><path d="M139.1 184.15c5.9-.77 5.34-8 10-10 1.8-1.1 2.27 0 2.42 1.5.22 2.24-.37 4.53.38 6.74l.2 1.7h-13z" class="cls-22"/><path d="M65.1 184.15c1.25-2.47 4-2.72 6-3.95-.5-2.3.67-3.3 2.76-3.47a31.4 31.4 0 0 1 6.06 0c2.46.62 2.5 2.16 1.63 4.08-.56 2.4-2.76 2.5-4.46 3.4h-12z" class="cls-23"/><path d="M154.1 184.15c0-2.44-.1-4.9 0-7.33 0-1.07-.33-2.65 1.08-2.94s2.35 1.2 2.68 2.37a35.27 35.27 0 0 0 3.23 7.9h-7z" class="cls-24"/><path d="M.96 86.03q-.44 0-.87.12v-42a1.48 1.48 0 0 1 1.9.52 152.32 152.32 0 0 1 1.2 27.17c-.2 3.42.4 6.86-.5 10.26-.4 1.48-.3 3.07-1.8 3.95z" class="cls-25"/><path d="M.96 44.23q-.44 0-.87-.08v-42c1.8 3.5.6 7.33 1.1 11 2.5 3.92.7 8.38 1.5 12.5A54.15 54.15 0 0 1 3.1 42c-.63.83-1.08 1.86-2.2 2.23z" class="cls-26"/><path d="M79.98 181v-3c.9-4.44 4.25-1.65 6.46-2.14a2.3 2.3 0 0 1 1.16 1.1c-.62 3-3 4.8-4.5 7.18h-1a6 6 0 0 1-2.12-3.15z" class="cls-27"/><path d="M184.1 85.15a54.92 54.92 0 0 1 0-23v23z" class="cls-21"/><path d="M79.98 181c2.3 0 1.92 1.76 2.1 3.15h-5zm3.12 3.15a12.88 12.88 0 0 1 4-6.08.64.64 0 0 1 .07 1.18l-3.08 4.9h-1z" class="cls-28"/><path d="M54.92 45.8c2.1-8.92 7.06-16.56 11-24.64a29.06 29.06 0 0 1 18.17-9.48c8.6-1.27 17.1-4.08 26-1.58a3.08 3.08 0 0 0 1.7.9c1.5.32 3.1.68 3.1 2.6a3.66 3.66 0 0 1-3 3.58c-3 .85-5.3 2.7-7.9 4.18a16.35 16.35 0 0 0-7.2 8.68c-3 7.56-3.6 7.92-11.6 6.85 1.3 2.3 2.7 4.5.8 7-.6.8-1 1.8 0 2.6a2.3 2.3 0 0 0 3.2-.4c3-3.3 5.1-1.6 7.1 1.2a7.17 7.17 0 0 0 5.4 1.8c1.9-.1 4-.4 5.5 1.2 2.1 1.8 7.2.6 6.3 5.7-1 1.3-2 1.1-3.5.5-2.5-1-4.9-2.2-7.2-2.4 2 0 4 1.3 6.3 2 1.3.3 2.5 1.1 2.32 2.8S110 61 108.6 61.2c-13.4 1.5-26.73 5.1-40.3.9-1.7-1.9-1.2-3.4.98-4.3C74.36 55.7 79 52 85 53.4c-5.77-.9-10.76 1.1-15.5 4.2a5 5 0 0 1-2.9.2c-.86-.5-1.65-1.1-2.46-1.6a4.63 4.63 0 0 1-.9-1 2.65 2.65 0 0 0-2.4-1.5c-5.4 1-7-1-6.3-8.2z" class="cls-29"/><path d="M94.1 49.15c-.3-.65-.6-2.24-1.32-1.36-3.3 4-7.18 2.3-10.9 1.3-2.66-.7-3.15-2.4-.74-4.2s3.4-3.3.54-6.2c-2.15-2.2-.2-5.1 1.85-6.9 1.9-1.7 3.42-1.2 4.77 1.1 1.76 3 4.1 1.7 4.77-.6 2.62-9.2 9-14.3 17.44-17.7 3.5-1.4.2-3.1-.4-4.7 5.5.2 10.8 1.2 15 5 1.9 3.3 2.2 6.2-1 9.2-2.6 2.3-2.3 6.1-3.2 9.2-2 6.7-2.8 7.2-9.5 5.9-3.6-.8-5.6 1.5-6.6 4-1.9 5.2-4.7 7.8-10.4 5.7z" class="cls-30"/><path d="M94.1 49.15L96.9 45c1.9-.2.5 2.48 2.2 2.6a36.44 36.44 0 0 1 7.3-10.56c2-2 4.08-3.56 6.73-.66 1.86 2 4.32 1.48 4.45-1 .5-7.58 5.75-13.23 7.5-20.23l8.12 8 6.84 12c5 4.4 2.44 10.38 3.33 15.63 0 2.86-2.1 3.74-4.32 3.7s-2.87-2.23-3-4c-.22-2.58-.82-4-3.84-3.35-1.4.34-2.8-.6-4.2-1.1-3.3-1.2-6-2.4-8.7 2-1.3 2.13-5.1 3.58-8.3 3.36a17.08 17.08 0 0 0-4.6.6c-4.1-.7-8.4-.5-12.1-2.9z" class="cls-31"/><path d="M11.1 128.15a4 4 0 0 1-1.3-4.93c1.33-3 2.1-5.76.75-9.06-.8-1.95.1-3.37 2.84-3.18 3.1.22 6.9-5.9 5.2-8.58-2.5-4.08-2.9-6.62 3.1-6.43a1.54 1.54 0 0 0 1.8-1.8c-.6-6.12 2.1-11.86 2-18 0-3.7 1.7-7.4-.6-11a9.34 9.34 0 0 0 7.6-1 4.57 4.57 0 0 1 5.5.2c1.6 1.37.4 3.1-.4 4.5-1.4 2.5-1.2 4.46 1.6 5.63 3.4 1.4 2 2.45-.1 3.86-5.6 3.85-7.9 12.57-5 18.65a16.15 16.15 0 0 1 1.6 7.2c2.6 2.7 0 4-1.5 5.6-1.7 1.1-3.4-1.4-5 .1-3.1.7-5.4 2-5.8 5.7-.16 1.5-1.1 3.4-3 3.6-3.96.3-5.13 3.2-6.16 6.2-.67 1.8-1.16 3.6-3.67 2.9z" class="cls-32"/><path d="M33.1 108.15a5.38 5.38 0 0 0 3-4c1.92-.84 3.86-1.58 6-1a2.15 2.15 0 0 1 1.4 1.78c-1.36 4.13-5.28 6.35-7.4 9.9-.44.7-.53 1.55-1 2.23-2.96 5.1-5 10.75-9.27 15-3.53 6-5.12 12.8-7.94 19.07-4.2 1.14-8.8-1.53-8.3-5.32.7-5.2-.9-10.6 1.4-15.6v-2c1.1-3.1 2.2-6.2 3.5-9.2.9-2.1 1.2-5.1 5-3.3 1.6.8 1.6-.8 1.6-2.1.1-5.3 2.8-7.5 7.8-6.3 1.3.4 2.3 2.2 4 1z" class="cls-33"/><path d="M42.1 105.15l.07-2c1.17-7.48 2.2-15 8.9-20 .32-1.12.1-2.57 1.8-2.8 4.3.36 3.8 3.9 3.38 6.3a31 31 0 0 0-.5 7 3.42 3.42 0 0 1-1.7 2.8 24.17 24.17 0 0 0-7.93 7.48c-.94 1.22-2.17 2.68-4.03 1.22z" class="cls-34"/><path d="M54.92 45.8c1.45 5.42 2.2 5.82 6.57 3.64.7-.36 1.2.2 1.5.78-.8 1.93.4 4.1-.7 6-3.4 2.7-5.7 6.75-10.2 8 .6-6.2 1.1-12.4 2.7-18.4z" class="cls-35"/><path d="M52.16 64.15a42.82 42.82 0 0 1 9-8.93c1-1.4 2-2.83 3.9-1.06v.9c.36 2.4-2.34 3-2.87 4.83a10 10 0 0 1-3 3.9c-3.9 2.7-5 6.7-5.6 11.1-.2 1.3.5 3.7-2.4 3.1a17.73 17.73 0 0 1 .9-13.9z" class="cls-36"/><path d="M51.3 78.04c1.04-6 1.52-12.2 6.1-16.93 1.16-1.1 2.1-2.5 3.68-3.2a1.92 1.92 0 0 1 1.22 1 3.44 3.44 0 0 1-1.18 4c-2.47 2.3-3.62 5.4-4.46 8.6-.2 1.7-.87 3.4-.57 4.9.6 3.4-1.4 4.3-4 4.9l-1.1 2a5.53 5.53 0 0 1 .2-5.1z" class="cls-37"/><path d="M27.6 30.64a1.06 1.06 0 0 1-.94-1.4 2.08 2.08 0 0 1 1.8-2c.83-.07 1.1.62.92 1.33a2.4 2.4 0 0 1-1.77 2.07z" class="cls-1"/><path d="M140.9 52.15a50 50 0 0 0-.87-17c4.34.14 4.78 3.25 5.07 6.56.18 2 0 5.6 2.75 4.6 2.16-.8 6.63 2 6.9-3.6.16-3.3 4.55-4.5 5.72-7.8 1.53-4.4 5.06-3.2 8.35-2.3a2.2 2.2 0 0 0 3-1.8c.88-5.4 5.4-10 3-16.1-1-2.4 1-1.6 2.25-1.3a9.07 9.07 0 0 1 4.83 10.3 36.92 36.92 0 0 0-.25 13.3c.5 4.2-1.23 6.2-5.08 6.1-4.4-.1-7.5.9-8.07 5.9a2.2 2.2 0 0 1-2.3 2.2c-1.3-.1-1.9-1.2-2.4-2.3s-.7-2.8-2.54-2.4-1.45 2-1.4 3.3c.2 6.6-2.08 12.6-3.64 18.8-.5 2-1.7.8-2.65.3-1.22-.6-1.86-4-3.87-.6-1.4 2.3-.73 4.3 1.4 4.9 4.4 1.17 7.4 5.17 12.1 5.6a4.74 4.74 0 0 1 3.9 2.88c.3 3.3.48 6.43-4.5 5.25-.78-.2-1.53.4-2.27.7-5-1.36-8.45-5.34-12.93-7.56a13.2 13.2 0 0 0-6.6-1.17c-1.44 0-3-.13-3.85-1.65-1.17-1.66-.88-3.47-.67-5.3.4-3.3 1.3-6.56 1.2-9.9-.1-3.64.8-6.8 3.42-9.4z" class="cls-38"/><path d="M160.1 85.15c2.6-.86 5.72-.85 7-4 2.36 3.8 5.43 6.3 10.17 6.9 2.26.27 3.78 2.27 1.85 4.78-1.66 2.17-1.8 4.18.13 6.2 1.4 1.48 1.47 3.23 1.16 5.1a5.74 5.74 0 0 0 2.6 6l-.1 19c-3.1 2.6-4.5 0-4.7-2.23-.3-4.14-2-8.06-1.5-12.32.4-3-1.2-4.1-4.2-3.75-6.1.7-6.8-.37-5.7-6.7.6-3.58.2-6.9-4.1-8.18-.9-3.56-3-6.87-2.5-10.8z" class="cls-39"/><path d="M1.2 42.15v-29c3 .24 2.9 2.43 3.22 4.66C5.88 28.3 7.5 38.7 9.07 49.1c.2 1.33.46 2.84 1.67 3.48 5 2.64 4.56 4.9-1.77 7.15 7.36 2 7.38 5.57 4.44 10.2-1.1 1.75 0 3.6.2 5.46.6 4.3 3.9 9.1-.7 13.1a3.16 3.16 0 0 0-.7 3.6c-.7.6-2.1 1.2-2.1 1.8-.2 7.3-4.7 13.6-5 21-.1 3.2-1 6.1-3.8 8.2V88.3C3 83.2 2.9 77.9 3.4 72.62c.72-9.15-1.26-18-1.4-27.08a8.46 8.46 0 0 0-.76-3.4z" class="cls-40"/><path d="M163.98 95.3c2-1.5 5.1.3 5.52 3.2a10.56 10.56 0 0 1-1.15 5.8c-.52 1.2-1 2.58.15 3.7s2.5.52 3.7-.06c2-.95 3.8-2.14 5.9-.14s2.16 4.18 1.73 7.13c-.72 4.9-.1 10 3.06 14.23v13c-1.7-3-3.9-5.64-4.3-9.3-.4-2.82-2.8-4-5.5-4.08-3-.1-3.3 2.36-4.2 4.6-1.7 4.25-1.3 9.33-5 12.8-2.2-2-2.8-4.65-3.1-7.4.9-8.27 3.3-16.32 2.6-24.83-.4-4.08-3.1-7.82-1.7-12.1.9-2.1-.2-4.86 2-6.56z" class="cls-41"/><path d="M164.85 138.23l-.76 7.92c-1 2.83-5 4.12-3.9 8-1.2 3.9-2.8 7.5-7.4 8.54-2.8.8-5.1-1.4-7.7-1.4v.2c-7 6.8-15 5.9-23.2 2.6-3.3-2.2-7.3-3.6-9.2-7.5a13.6 13.6 0 0 0-1.6-2.2c-.7-1-2.2-.9-2.9-2-1.2-1.6-3.9-2.1-3.2-4.9a4.24 4.24 0 0 1 1.7-1.7 27.77 27.77 0 0 1 4.8.1c4 .6 6.1 2.9 7.7 6.6 1.7 4 3.4 8.5 9.2 8.1 4.8 2.5 8.8 1.6 12.3-2.6 3.1-3.8 7.6-5 12.2-5.9 3.9-3.4 5.5-8.1 7.5-12.6.9-2.2 1.9-3.7 4.3-1.7z" class="cls-42"/><path d="M152 160l8.22-5.88c.6-.52 1.2-1.46 1.82-1.47 1.1 0 1.18 1.38.82 1.84a7.4 7.4 0 0 0-1.28 7.2c.25.8-.1 1.3-1.35 1.3-2.73 0-1.13 1.9-1.23 3.1-4.68-1-6.35 1.7-6.64 5.7-.25 3.4-.28 6.9-.4 10.4-1.24-2.7.58-6.4-2.82-8.3-2.26-2.8 2-6.3-1.1-8.9-.38-3.1 1.95-4 3.95-5.2z" class="cls-43"/><path d="M163.2 182.2c-1.6-2.72-1.46-5.17 1.1-7.25 1.2 2.65 1.3 5.14-1.1 7.25z" class="cls-24"/><path d="M11.1 130.15c1.06 2.42.44 4.9 0 7.3-1.1 6.3 1.13 10.83 6.82 13.68a8.73 8.73 0 0 0-.94 9.08 9.5 9.5 0 0 1-4.9 8.2c-2.5 2-2.26 5.1-3 7.8a31.4 31.4 0 0 1-.4-19.4c1.48-5.2 0-10.8-.3-16.1-.3-4.1.26-7.3 2.7-10.4z" class="cls-32"/><path d="M67.1 173.95a2.85 2.85 0 0 1-3.13.18c-.27-.65-.57-.67-.9 0l-3 1a1.2 1.2 0 0 1-2-.43c-2.73-7.4-9-12.75-11.78-20.07-.6-1.42-2.8-1.52-2.3-3.4 1.7-2.5 4.2-3.23 7-3.27 4.5-1.42 7.6.77 10.2 4.1 1.1 2.63-.5 4.7-1.4 7-1.3 3-.5 4.6 3.1 3.55 4-.7 8.2-.3 12.2-1.5a32.5 32.5 0 0 0 8.3-4.2 3 3 0 0 1 1.5.6c4.2 7.3 5.4 7.4-4.3 10.8-4.7 1.6-8.6 5-13.6 5.8z" class="cls-44"/><path d="M67.1 173.95c2.32-5.8 8.25-6.36 12.93-7.93s6.35-3.34 4.05-7.88c1.1-2.4 3.12-.75 4.7-1.07a2.43 2.43 0 0 1 1.38.73c1.2 1 2.63 1.7 3.83 2.7 1.3 4.08-.9 8.15-5.6 9.77-3.2 1.1-6.3 2.08-9.6 2.94a10.08 10.08 0 0 0-5.6 3.6c-1 .8-2 1.6-3.4 1.4-6.8 2.8-1.3-3.2-2.9-4.1z" class="cls-45"/><path d="M44 151.15a38.5 38.5 0 0 1 9.67 12.22c1.88 4 6.68 6.45 6.4 11.7a6.5 6.5 0 0 1-2.7 5.6c-1.17.77-2.46 2-4 .84-.8-.5-1.4-2.4-.88-2.4 2.5-.1-1.4-4.7 2.7-3.6 1.1.3 1.6-.4.1-2.6-3.3-5-7.6-9.3-9.6-15-.8-2.1-3.7-3.8-1.9-6.7z" class="cls-46"/><path d="M51.26 145.9l-10.17-1.75c-2.4 4.23-7 6.27-9.6 10.34-2.1 3.2-5.4 3.4-8.9 2.7-2.3-2.5-.5-5 .8-6.6A44.7 44.7 0 0 0 28 143c6-4 12.5-2.9 19-1.73 1.8.52 3.65 1 5.5 1.53 2 .56 4.72 1 4.12 4.33-2.4 1.95-3.92.36-5.4-1.3z" class="cls-47"/><path d="M23.23 156.2c6.3-1.88 10.35-6.64 14.15-11.52 1.4-1.8 2.38-1 3.68-.5a12.35 12.35 0 0 1-1.92 5.06c-2 2.44-5.1 4.2-5.2 7.9-2.15 5.55-6.52 7.6-10.74 5.04l-1.1-3.03c-.26-1.2-.64-2.48 1.13-2.95z" class="cls-48"/><path d="M42.95 173.37l-1.9-.27c-1.5-4.67-3.6-9.17-3.85-14.17l2.33-4.2c.2 5.88 2.16 11.17 3.94 16.5a1.6 1.6 0 0 1-.52 2.14z" class="cls-49"/><path d="M69.97 178.06l2.12-1.9A50.93 50.93 0 0 1 82.3 172c5.3-1.53 5.42-1.26 7.4 4.15-.4 1.45-1.2 1.87-2.54 1-2.45-.06-4.9-.15-7.2.85-3 .4-6.44-.73-8.84 2.2a1.7 1.7 0 0 1-1.2-2.14z" class="cls-50"/><path d="M51.26 145.9l5 1.63c2.82-1.15 4.17 1.36 5.77 2.64s.9 2.22-1.56 2.82c-2.46-3-6.1-3.7-9.38-5.1-.5-.5-1.4-.6-1-1.4a2.63 2.63 0 0 1 1.1-.6z" class="cls-51"/><path d="M63.1 174.1c.25-2.4 1.16-4.28 4.7-5.48l-3.84 5.53z" class="cls-52"/><path d="M47.1 143.15c-6.5-.82-13.1-2.64-19 1.95-.7 1.16-1.14 2.64-3 2.15l.92-3.14c.07-4.3 3.4-5.6 6.56-7 1.24-.5 2.37-.2 1.83-2.3-.4-1.8 1-3.4 2.2-4.8 4.5-5.1 13.2-7.3 19.7-5.5 4.8 1.4 9.7.6 14.3-1.3a3.37 3.37 0 0 1 2 .7c1.3 1.3 1.1 2.5.1 3.8-.2.3-1.7 1.1.3 1a17.55 17.55 0 0 1 2.1 1.9c2.4 9.6 2.5 9.7 11.9 5.7 2.2-.9 4.1-1.3 5.7.9 1.4 2 .7 3.8-.7 5.5-3.7 4.7-9.4 6.7-13.6 10.8-1.3 1.3-4.5.9-6.7-.1-.7-.5-.4-1.7-1.4-1.9 0 .1-.4.3-.4.3-2.7 2-4.6 1.8-7.1-1-2.83-3.1-6-6.5-10.55-7.5-1.56-.4-3.16-1.2-4.64.2z" class="cls-53"/><path d="M70.03 125.15c-5.78 2-11.4 4.44-17.6.76-2.7-1.6-13.42 3.6-14.68 6.5-1 2.2.6 2.5 2 3 1.08.4 2.54.8 2.2 2.2s-1.9.9-3 .9c-5.1.1-9.12 2.7-13 5.6-3.47-3.7.52-6.6 1-10 1.22-6.1 4.76-11.1 7.7-16.4a64.2 64.2 0 0 1 5.65-8.1c1.7-2 3.92-1.1 6-1a21.3 21.3 0 0 1 4.44.4 11.7 11.7 0 0 1 7.62 5.3c2.16 3.3 5.54 5.4 9 7.1 1.86 1 3.34 1.7 2.67 4z" class="cls-54"/><path d="M42.1 112.15c-5.54 5.13-9.94 11-12.12 18.33-.52 1.73-1.23 3-3 3.67l-1.18-2.06c.67-4.2 3.45-7.4 5.4-10.9.86-1.6 2-3 2-5-.2-1.2-.74-2.4.93-2.9l7.96-8.2c2.8-4.5 7.9-7 10.2-11.9a1.4 1.4 0 0 1 1.5-.2 23 23 0 0 1 4.5 12.1 26.3 26.3 0 0 1-1 3.5c-1.9 2.8-4.8.7-7.1 1.4H47c-1-2 1-2.4 1.6-3.2-2.05 1.6-4.35 3.3-6.6 5.2z" class="cls-55"/><path d="M23.2 162.15c3.4-2 7.75-2.1 10.73-5.05.44 5.32-3.2 8.1-6.77 10.94-1.74-.16-2.12-1.82-3.1-2.82-.9-.2-2.2.87-2.65-.36s1.2-1.7 1.8-2.7z" class="cls-56"/><path d="M12.1 168.32c.32-3.5 2.3-6 4.88-8.1 1.7 1.25 4.55 2.23 1.86 5-1.75 1.76-3 5.26-6.75 3.1z" class="cls-57"/><path d="M25.1 147.23l3-2.15c.1 2.54-2.22 3.5-3.44 5.15-1.33 1.82-2.1 3.7-1.42 6l-1.15 2.92c-2.6-.46-2-2.14-1.5-3.76a24.07 24.07 0 0 1 4.4-8.2z" class="cls-58"/><path d="M87.17 177.15l1.93-1a8.08 8.08 0 0 1 2.1-7.8c1.06-1.14 2.15-2.38 2.23-4.1a.94.94 0 0 1 .1-.48c5.94-2.88 11-7.6 17.66-9 1-.2 1.9.34 2.9.34l7.8 9-1.2.1c-4.4 1-8.4 2.5-10.3 7.1a2.43 2.43 0 0 1-2 1.4c-3.4 0-1.5 2.1-1.4 3.5-4.7 2.1-9.5 3.5-14.8 2.4a9 9 0 0 0-5.3.7v-2z" class="cls-59"/><path d="M107.2 176.23c-2.64-.6-6.73 1.37-7.74-1.5-1.12-3.17 3.76-3.32 5.37-5.5.54-.7 1.68-3.82 3.18-.1.6 1.38 1.4-.52 1.8-1.18 3.7-6.57 4.7-6.93 11.1-3.66.6 1.2 1.7 2.3 1.3 3.9l-2.1 2.7z" class="cls-60"/><path d="M152 160l-4 5.22-2.87-4c1.74-3.52 4.66-.42 6.86-1.22z" class="cls-61"/><path d="M1.2 42.15c1.5 5.35 3.14 10.67 4.42 16.07.38 1.6.43 3.24 1.46 4.64.38.52 1 1.43.8 1.74-4.36 7.05.4 16.44-5.93 22.95-.23.24-.5.45-.73.67l-.26-2.18v-41.8z" class="cls-62"/><path d="M69.1 61.15c13.6 2.13 27 .88 40.53-3.15-3.4-3.3-8.15-2.76-12.8-4.5 6.3-1 11.1 1.82 16.26 2.6l.6.13c1.2 1.45 1.8 3.26 2.8 4.87.7 2.43 3.1 3.78 3.8 6.22-4 6.16-3.9 13.4-5.3 20.26-3.4 8.94-16 13.68-23.8 9-.9-2.2-1.4-4.57-3.7-6-1.9-1.22-1.7-3.13-1.1-5 .3-1.44.9-2.78 1.1-4.3.4-4.57 2.6-5.76 6.7-3.7a11.06 11.06 0 0 1 4.2 3.7c1 1.58 2.4 2.8 4.5 1.94a3.75 3.75 0 0 0 2.3-3.55c.1-2-.6-3.56-2.7-4.23a12.36 12.36 0 0 1-1.9-.53c-1.4-1.5-2-3.8-4.5-4q-.7-.1-1.3-.4c-1.4-.7-3-1.2-3.8-2.7a2.4 2.4 0 0 0-2.2-.6c-3.2.3-5.2 1.8-5.8 5a1.93 1.93 0 0 1-1.7 1.6c-2.5-.1-5 .8-7.4-.3a6.6 6.6 0 0 1-1.1-1.4c.3.7 1.1 1.2 1.2 2.1-2.8 5.4-5.1 6.5-10.8 4.8a13.63 13.63 0 0 0-4.4-.6c-2 .1-3.2-.7-3.3-2.8 1-5 2-10.1 6.7-13.2 2-1.4 4.2-2.9 6.7-1.1z" class="cls-63"/><path d="M140.9 52.15c-.8 8-1.1 16-2.74 23.93a2 2 0 0 1-1.67 2.4 6.66 6.66 0 0 1-4.6-.78c-4.5-3-7-7.94-11.3-11.08-3-3.14-5.2-6.94-7.6-10.54-1.7-2.4-4.6-2.77-6.9-4.1 1.7-2.24 3.7-4.25 4.4-7.38 1.7 1.1.2 2.7 1.4 3.87 1.7-1 1.8-5.73 5.7-3.12.3.22 1.6-2.95 2.2-4.66 1-2.9 2.3-3 4.1-.8A10.56 10.56 0 0 0 127 43c4.6 2.4 6.6 1.9 9.53-2.9 2 2.5 2.1 5.2 1.83 8-.2 1.8-.6 3.8 2.2 4z" class="cls-64"/><path d="M69.1 61.15C62.66 63.7 59.02 68.7 57 75.07c-2.8-.15-2.8-.15-2-5 .58-4.47 3.08-7.83 6.24-10.82 1.55-1.8 3.08-3.6 5.85-3.08l2-.84c6.8-1.94 13.7-3.48 21-2.18A4.75 4.75 0 0 1 86.2 55c-6.77-.78-11.92 2.74-17.13 6.15z" class="cls-65"/><path d="M90.1 53.15c-7.13-.44-14 1.76-21 2.17 6.7-3.6 13.72-3.96 21-2.17zM65.04 54.2l-3.9 1.07c-.62-2.16 1-3.48 1.9-5.05-.52 1.93 6.57.04 2 4zm2.06 1.95l-5.86 3.08-.15-1.4L65 55.1z" class="cls-66"/><path d="M33.1 108.15c-1.93 2-3.15 1.23-4-1 1.58-.7 2.76.25 4 1zm1.08 5.17c-.1 1 .28 2.2-.93 2.9-.93-.9-2.3-1.83-1.5-3.25.7-1.24 1.66-.18 2.43.35z" class="cls-2"/><path d="M55 70.04c.2 1.87.1 3.85 2 5 3.25.06 6.3-.7 9.63 1.46 2.27 1.48 5-1.1 6.28-3.9a.76.76 0 0 1 .8-.7c2.6-1.82 5-1.85 7.5.2 2.6 1.7 1.5 3.58.3 5.45a4 4 0 0 1-2.1 1.15c-3.4 2.34-7.5 3.75-9.3 8.1-.4 1.2-2 1.6-3.3 1.94-3.5 1-7 1.72-9.5 4.82-1.1 1.44-2.6 1-3.7-.5l-1.1.07c2.1-4 3-8.08-.1-12.1 2.8-3.14 1.4-7.43 2.8-11z" class="cls-67"/><path d="M163.98 95.3l.14 6.92c.72.9.47 1.9.3 2.88-2.9 1.3-2.92-1-2.8-2.6.16-2.34-.55-4.45-1-6.65-.33-1.58-1.47-1.53-2.6-1.62-3.44 1.3-2.2 4.3-2.43 6.7-.4 3.44.8 7.34-3.2 9.57a5.1 5.1 0 0 1-1.5-.08c-3.2-3.43-5.3-7.8-9.3-10.58a20 20 0 0 0-1.9-2.9 8.47 8.47 0 0 0-2.4-3c-1-.9-2.5-1.08-3.5-2.1-.3-2.14.3-4.5-1.5-6.3 0-1.37-.3-2.8.5-4.1 1.9-1.24 4.2-1.6 6.1-2.88 3.2-.53 6.5.82 9.7-.2 4.5.8 7.6 4.2 11.1 6.8 2.5 2.92 2.8 6.68 3.9 10.13z" class="cls-68"/><path d="M149 78.33c-2.2 3.52-6.16 1-8.9 2.6a3.27 3.27 0 0 1-4.7-.34c-1-1.2-.32-2.5.6-3.5l2.16-1A30.17 30.17 0 0 1 149 78.3z" class="cls-69"/><path d="M164.02 105.15l.1-2.93c1.86 7 1.13 14.12 1 21.18-.1 4.94-.92 9.87-.26 14.83-3.12 3.23-3.37 8.06-6.4 11.4-1.42 1.56-2.47 3.45-4.37 4.55-1.7-.55-3.1-1.33-3.2-3.3-.6-9.4-2.9-18.6-2.7-28.07a17.3 17.3 0 0 1 6-4.1c2.2-.7 4 1.1 6 1a1 1 0 0 0 1.3-1.2c.2-3.6-.3-7.2.3-10.7.2-1.3 1.2-1.9 2.2-2.6z" class="cls-70"/><path d="M150.1 123.15l4 31c-4.34 1.6-8.84 2.87-12.2 6.36-3.87 4-8.72 4.3-13.82 3.5-2.37-1.4-5-2.7-5.33-6 .44-3.9 4.05-2.3 6.08-3.5a1.87 1.87 0 0 1 .47-.1c2.43-.3 5.05 3.5 7.13.3 1.93-3 3.13-6.8 1.95-10.4a56.5 56.5 0 0 1-3-17 7.12 7.12 0 0 1-.33-4.4c.85-2.7 2.4-3.5 4.6-1.2a4.47 4.47 0 0 1 .32.4l.35.4c-.08-3.5 2.4-5.5 4.62-7.6 1-.9 1.9-1.7 1.85-3.3-.1-3.6 2.2-2.8 4.3-2.1h1c2.2.4 2.7 2.1 2.8 4-2.5 3-2.6 7-4.9 10.1z" class="cls-71"/><path d="M139.04 123.26c-3.67.9-.52 3.25-1 4.82-1.4 2.24-2.7 4.47-2.3 7.32s-2 3-3.8 3.1c-3 .13-4.9.7-4.74 4.5.18 4.5-4.53 3.46-6.86 5.17-3.7.78-6.36-3-10.18-2.26-1.18.3-2.34-.1-3 1.2l-1.13 1.1c-1.9 2.5-4 1.2-6.12.4-1.5-1.5-4.1-2.5-3.2-5.5 1-3.1 3.5-4.1 6.6-4.4 5.8-.6 11.4-1.5 16-5.9 2.1-2 1.7-5.6 4.9-6.6 2-.8 4.1-1.9 4.8-4.1 1-3.3 3.4-5.5 5.9-7.7 3.5-.5 5 2.3 7.2 4.1-.8 1.8.5 4.7-2.8 5z" class="cls-72"/><path d="M107.1 147.1c-.74-.94-3-.8-2.3-2.6.48-1.2 2-.58 3.13-.7 4.3-.4 8.47-.26 12.15 2.4 3.67.5 6.05 2.93 8.37 5.5 1.25 1.4 1.6 2.8.62 4.46-.5 3.6-3.5 1-5 2-1.36.8-2-.1-2.7-1.06-2.7-3.88-6.56-6.44-10.45-9z" class="cls-73"/><path d="M89.25 159.05h-.87c-1.5-1.07-3.44-1.48-4.58-3.1a3.12 3.12 0 0 1 2.34-4c6.87-1.85 13.8-3.55 21-1.3a6.14 6.14 0 0 0 3 .5l2.95 2c-1.3 2.22-15.9 8.43-18.1 7.62-2-.62-3.7-1.75-5.8-1.72z" class="cls-74"/><path d="M89.25 159.05a4.88 4.88 0 0 1 4.23-.8c.8.23 2 .82 2.34.5 4.82-4.8 12.22-1.53 17.23-5.58l1.07 2c-5 3-11 4.07-14.74 9.24-.55.8-3.4 0-5.17-.1-1.6-.3-1.2-2.1-2.1-3z" class="cls-75"/><path d="M110.9 148.15c5.5 1.9 9.38 5.88 13.15 10 .23 2.7 3.72 3.18 4 5.85a6 6 0 0 1-5.08-2.7 65.85 65.85 0 0 0-12.07-13.15z" class="cls-76"/><path d="M110.1 151.15l-2 1c-2.73-1.75-5.8-1.82-8.88-2.14-1.5-.1-4.66 0-3.3-3.4 1.48-1 2.8-.3 4.08.5l6 1.2z" class="cls-77"/><path d="M100.1 146.98l-3.76.26a5.3 5.3 0 0 1-5.3 3.47c-1.9 0-3.46.8-5 1.4-1.82.7-2.64 2.3-.66 4l3 3c-1.57.4-2.88-.5-4.3-.9h-1c-3.33 1.9-6.32-1-9.54-.6-1.6.2-2.57-1.2-3.87-1.8-1.14-.5-4-1.1-2.6-3.3 1.07-1.7 3.2-2.1 5-.3 4.75 1 7.17-2.6 10.24-5 2.4-1.8 4.7-3.7 7-5.6.8-.6 1.4-1.6.7-2.6a1.53 1.53 0 0 0-2.2-.1c-4 2.9-9 1.9-13.2 4.2-1.5.8-3.9.3-2.6-1.5 2.5-3.4.2-6.8 1.2-10.1 0-3.7-.4-7.7 4.9-8.5 4.3-.6 8.5 1.8 12.8.2 3.9 5.9 9.8 5.2 15.3 4.2 6.1-1.2 12.1-1 18.2-.6a1.93 1.93 0 0 1 2 1.8c-2.9 3.2-5.6 6.5-8.7 9.6a10 10 0 0 1-7.2 2.9c-2.3 0-4.6.3-6.9.6-3.7.4-4.9 2.3-3.1 5.8z" class="cls-78"/><path d="M72.1 152.03l-4.17.44 7.23 2.68c-.13 3-2.74 3.42-4.7 4.38-2.6 1.28-5.37 2.27-7.3 4.62-1.34 1.33-3.17 2.82-4.5.8-1.64-2.47-3.72-5.34-1.66-8.57a21.18 21.18 0 0 1 3.44-3.4c.7-3.44-3-3.5-4.2-5.46-2.06-3.5-6-3-9.12-4.4-.43-3.8 1.9-2.6 3.75-2a32.4 32.4 0 0 1 12.62 7.53c1.4 1.36 3 3.16 4.7.34 1.1-1 1.4-3.6 3.8-1.9v4.9z" class="cls-46"/><path d="M63.16 164.15c-1.84-1.5-2.37-2.84.28-4.15 3.8-1.88 7.5-4 11.7-4.85 3.05-.07 5.56 1.27 7.92 3A5.38 5.38 0 0 1 79.6 162c-5.34 1.78-10.6 4.4-16.44 2.15z" class="cls-79"/><path d="M92 161.25l2.2 3a29.1 29.1 0 0 1-5.1 11.9c-3.16-2.83-6.55-3.18-10.34-1.26a14.8 14.8 0 0 1-6.67 1.2c4-5.3 10.6-5.7 16-8.3 3.2-1.7 4.7-3.2 3.9-6.7z" class="cls-80"/><path d="M91.1 124.15c-4.42 1.6-8.8-.23-13.2-.1-1.54-1.1-2.33.4-3.4 1a1.56 1.56 0 0 1-2.3.14h-2.14c-5.3-3.9-12.3-5.7-15.4-12.4-.8-1.7-3.6-.7-4.48-2.7 1.55-1.9 3.86-1.6 5.9-2 4.53-.2 6.2 3.8 8.9 6.2 3.4 3.8 7.6 5.3 12.73 5.2 10.7-.3 21.3.6 32-.6a5.68 5.68 0 0 1 5.4 3.4 2.52 2.52 0 0 1-1.6 2.8 32.23 32.23 0 0 1-20.3 1.1 4 4 0 0 1-2-2.2z" class="cls-81"/><path d="M72.16 125.2l1.8-1c1.2 2.4.16 3.9-2 5-1.16 1.5-.74 3.95-2.85 4.9-3.7-4.7 2.4-5.85 3.1-8.9z" class="cls-82"/><path d="M72 129.15l2-5c1.3-.47 2.58-.87 3.9-.08-3.28 1.23-3.14 4.75-4.77 7.08z" class="cls-83"/><path d="M72.1 147.15c-1.45.27-2 2.4-3.83 1.82.17-1.42-.06-3.14 1.38-3.84.37-.16 1.58 1.33 2.44 2.02z" class="cls-84"/><path d="M42.1 112.15c1.9-3.88 6.63-5.42 8.06-9.74a.87.87 0 0 1 1.57-.2c1 1.3 1.36 2.8.2 4-1.43 1.6-3.78 2-4.95 4z" class="cls-85"/><path d="M62.9 115.25c-2.76-1.9-4.64-4.67-6.85-7.12l-1-3c.75-.85 2.73-.64 2.6-2-.48-5 3.66-5 6.5-6.65 3.26-1.9 6.4-3.5 10.3-2.28a4.7 4.7 0 0 0 1.46.2c1.9 0 4.6 1.12 5.4-1s-2-2.56-3.4-3.57c-3.2-2.38-3.1-3.14.8-6 2.9-1.4 5.8-1.18 8.8-.74a1.55 1.55 0 0 1 .7 2c-.5 4.3 5 5.8 4.9 10 1.7 4 5.1 6.7 7.3 10.4-.2 4.5-3.7 4.6-6.9 4.9-8.1.8-16.3 1.2-23.3 6-2.7 1.8-4.6-2-7.2-1.2z" class="cls-86"/><path d="M79.1 85.15c-1 1.24-.55 2.12.7 2.82a40.63 40.63 0 0 1 3.9 2.28c1.82 1.3 4.56 2.3 3.57 5.26-.93 2.8-3.53 1.9-5.62 1.8-6.6-.5-13.2-1.6-19 3.2-1 .9-2.28 1.3-2.5 2.8-.52 3.7-2.6 3.2-5 2 .1-4.1-2.44-7.8-1.74-12a20.85 20.85 0 0 1 12.6-7c3.7-.7 5.1-5 8-7.2 1.4-1 2.5-2.1 4.4-1.6a2.2 2.2 0 0 1 .3 2.4c-.5.8-1.2 1.6-.3 2.5.8.8 2.1 1.4.9 2.9z" class="cls-34"/><path d="M88.2 85.08l-1-1a2.7 2.7 0 0 1-1.23-.65c-.87-1.82-2.17-3.44-2.55-5.5a13.63 13.63 0 0 1-.63-2.85c.2-3.67 1.4-6.84 5-8.6a4.1 4.1 0 0 1 2.3-.26c1.1.5 1.1 1.4 1 2.45-.4 4.58.4 5.33 5 4.62 1.5-.5 3-1.7 4.7-.3 4.5-2.9 5.1-2.6 6.8 2.4 1.5 4.1 1.4 7.9-2.6 10.6-3.1 2-6 1.7-8-1.7a43.77 43.77 0 0 0-2.7-4.2 2.75 2.75 0 0 0-3.1-1.2c-1.5.4-1.5 1.6-1.1 2.8.5 1.9-.3 2.9-2.1 3.2z" class="cls-87"/><path d="M113.1 86.15c.38-4.47 1.5-8.86 1.2-13.4-.18-3.17 1.68-4.88 4.7-5.44 5 .9 5 5.3 6.3 8.8-2.06 1.8-3.5 3.6-3.73 6.7-.4 5.4-3 6.5-8 4.1z" class="cls-88"/><path d="M99.1 105.15c-5.5-1.25-5.85-5.57-6-10 7.08 3.65 15.92-.33 20-9 2.6 1.25 1.83 3.18 1 5.1-1.9 4.6-5.5 8.17-7.56 12.67a9.22 9.22 0 0 1-1.47.76c-1.7 1.13-3.55.16-5.3.4z" class="cls-88"/><path d="M124.03 76.15c-1.53-3-2.56-6.36-5-8.85a18.58 18.58 0 0 1-4.46-6.76c3.78-1.38 5 1.83 6.92 3.83 1.7 2.94 4.1 5.37 6.1 8.1 1.1 1.6 2.1 3 .3 4.63a4.47 4.47 0 0 1-3 .94 1.38 1.38 0 0 1-1-1.9z" class="cls-89"/><path d="M97.16 75.25c-3 1.56-5.5.28-7.6-1.77s-.4-4.26.5-6.32c2.38-2.63 4.12-2.64 7 0-.65.12-1.6 0-1.86.4-.54.77.55.95.9 1.42-.13 1.32.85 1.63 1.8 2 2.5 1.9-.72 2.78-.74 4.27z" class="cls-90"/><path d="M88.1 67.15c-1.15 2.72-3.88 4.83-3.2 8.26-.9 2.7-2 4.7-4.86 1.7l1-4.9c-.22-5.6 4-6.2 8-7 .78 1.3-.45 1.5-.95 2.1z" class="cls-91"/><path d="M121.2 65.15c-2-1.9-3.64-4.2-6.65-4.6l-1.46-4.4c3.3 2.63 7.4 4.62 9 9-.3.45-.6.43-.9 0z" class="cls-92"/><path d="M73.6 71.94l-.7.7c-1.08-1-2-.3-3.1.1a1.77 1.77 0 0 1-2.48-.85 2.4 2.4 0 0 1-.06-1.9c.53-1 1.63-1 2.6-.8a4.48 4.48 0 0 1 3.75 2.7z" class="cls-93"/><path d="M88.1 67.15l1-2a11.42 11.42 0 0 1 7.5-.16c1.2.3 2.28 1 .47 2.1a7.32 7.32 0 0 0-7 0z" class="cls-94"/><path d="M97.16 75.25c-1.8-1 .47-2.12-.12-3.15a2 2 0 0 1-.07-2.75 4.15 4.15 0 0 1 3.9 3.7z" class="cls-95"/><path d="M96.97 69.34a2.83 2.83 0 0 1 .07 2.75c-1.47.2-3.2 1.3-3.46-1.5-.24-2.5 1.63-1.3 2.58-1.7a4 4 0 0 0 .8.3z" class="cls-96"/><path d="M69.77 65.37c2.48-1 3.82-.6 5.26 1-1.85.65-3.14-.22-5.26-1z" class="cls-97"/><path d="M121.2 65.15h.9c4.24 2.8 6.32 7.56 9.86 11 2.16 1.43 3.82 3.06 2.23 5.9a3.58 3.58 0 0 1 0 3.06c-2 .4-3.2-1.1-4.7-2-1-1.6-.8-3.8-2.7-5a1.72 1.72 0 0 1 .2-2c.3-4.8-4.2-7.1-5.9-10.9z" class="cls-98"/><path d="M134.2 82.05l-2.24-5.9 4 1c0 2.7 1.33 4 4.08 3.78-1.6 1.98-3.85.92-5.85 1.12z" class="cls-99"/><path d="M80.1 77.08c1.8 0 3.52-.25 4.85-1.64v2.46q-4.18 6.55-7.62 1.15l.94-1.8z" class="cls-100"/><path d="M141.1 118.15c-2.5.82-4-1.26-6-2-4 2.55-5.6-.07-6.95-3.2.72-5.22 3.55-9.57 5.9-14.1.62-1.22 1.54-2.3 2.08-3.6 2-1.77 3.9-1.8 5.8.1l2 2c1.42 2.9 3.7 5.33 3.53 9-.28 5.1-2 9.1-6.37 11.8z" class="cls-101"/><path d="M153.1 113.15l-.96-4a33.55 33.55 0 0 0 .42-13.15c-.56-4.34.84-6.38 5.46-4.8 2.44.63 2.5 2.8 2.87 4.65 1.5 7.6.5 15.28.4 22.93a2.7 2.7 0 0 1-1.4 2.32c-2.9 5.87-3.3-.2-4.8-1-2.9-1.65-4-3.86-2.1-6.95z" class="cls-102"/><path d="M141.1 118.15c-.1-4.43 4.42-7.2 3.8-12.24-.35-2.7-.15-5.6-1-8.4 3.35 3.4 6.1 7.1 7.23 11.8-2.32 7-10.4 10.5-9.92 19.4-2.4-2-1.8-3.8-2.1-5.3a8.48 8.48 0 0 0 2.1-5.1z" class="cls-103"/><path d="M159.96 121.1c-.26-10 1.8-20.14-1.94-29.9 3.16-.74 3.6 1.6 4.07 3.72.7 3.4 1.3 6.82 1.9 10.23v3c-1.3 3.9.4 8.06-1 12-.3 1.87.3 4-1.7 5.67-2-1.16-1-3.2-1.4-4.73z" class="cls-104"/><path d="M137.1 97.15l-8.13 14.9c.27 5-2.15 7.55-7.94 8.53-2.4-1.57-1.4-3.32-.18-5 2.2-3 4-6.2 4.38-10 2-4 5.2-7.44 5.85-12.12.7-2 2.5-2 4.13-2.22l3.9.87c.5 2.2-1.6 3.3-1.9 5.1z" class="cls-105"/><path d="M135.24 91.23l-1.34 3.68c-1.25 1-2.3.5-2.67-.7-.78-2.6-2.63-4.9-2.6-7.8 1.08-1.7-1.16-5.6 3.35-5l2.23 3.8c.6 2.1 5.4 3.4 1.1 6.2z" class="cls-106"/><path d="M137.1 97.15a8.28 8.28 0 0 1 2-5.07 7 7 0 0 1 2.8 3.25 5.77 5.77 0 0 0-4.8 1.82z" class="cls-103"/><path d="M153.1 113.15c.85 2.26 2 4.42 2.06 6.93l-5 3c.26-3.48-1.17-7.52 2.93-9.93zm10 7c.2-4-.58-8.07 1-12-.23 4 .58 8.08-1 12z" class="cls-68"/><path d="M129.1 156.15l-9-10c5.62-2.8 5.63-2.84 1.17-9 2-.38 3.87-.8 5.74-1 3.3-.4 7.4.85 6.3-5.26-.3-2 3.2-1.9 4.8-2.9a21.75 21.75 0 0 0 2.8 13.9c2.8 5 .4 9.5-1.2 13.6-2.2 5.7-5.4 5.6-10.4.6z" class="cls-107"/><path d="M121.16 118.96a20.32 20.32 0 0 0 7.84-6.9c1.9 1.55 3.44 3.6 6 4.07a17.48 17.48 0 0 0-3.14 6 7.54 7.54 0 0 1-5.8 6c-1.06.48-2.14.9-3.16 1.45-1.9 1-3.6 3.8-5.4-.53-.7-1.74-3.7-1.06-5.57-.54-5 1.4-10.2 1.5-15.3 1.2-3-.1-7.12-.3-5.64-5.5 7.8 1 15.6 1.8 23.1-2 2-1.7 3.7-4.3 7-3.2z" class="cls-108"/><path d="M85.33 156.03c-1.32-.6-3.4-.7-3.45-2.37-.05-1.9 2.06-2.46 3.54-3 3.58-1.27 7.25-2.3 10.9-3.43 3.5 2.68 8.75 1.13 11.83 4.86-5.86-1.9-11.65.2-17.47.4-2.24.1-4.65.7-5.35 3.5z" class="cls-109"/><path d="M130.1 87.15c5 .72 2.8 5 3.8 7.74-.48 4.4-4.25 7.2-5.88 11.1-2.8 8.6-11.36 15.7-18.74 15.4-13.42 1.1-26.83 2-40.06-1.6a11 11 0 0 1-6.32-4.6c2-2.3 4.1-3 6.2-.1a3.73 3.73 0 0 0 3.65-.2c7-4 14.87-3.3 22.28-4.9 7.63-1.7 15.9-2.5 21.9-8.9 3.04-3.3 5.76-6.4 5.68-11.2a13.48 13.48 0 0 1 .4-2.4c.4-2.4 1.8-4.1 4.2-4.4 2.8-.2 2 2.5 3 3.8z" class="cls-110"/><path d="M109.28 121.43c7.14-1 11.54-5.67 15.4-11.16 1-1.47 2.22-2.83 3.34-4.24 1.13 2.28-.4 3.73-1.7 5.2-2.04 2.37-4.2 4.66-5.16 7.73-2.26 1.23-4.32 2.92-7 3.2z" class="cls-111"/><path d="M130.1 87.15c-3.8-2.22-4.72-.2-5 3.23-.8 9.68-11.95 19.34-21.56 20.64-7.2 1-14.44 1.26-21.62 2.23a5.2 5.2 0 0 0-3.52 1.7c-3 3.74-6.14 3.3-9.32.22a14.82 14.82 0 0 1 11-4.72c5.2-.06 9.9-2.3 15-2.6 1.74-.1 2.94-1.35 3.93-2.73 1.2-1.84 3.4-1.88 5-3 3.4-1.16 5.6-3.7 7.5-6.54 2.2-3.26 3.2-7.4 7.7-8.8 1.5-.47 1.7-2.67 2.3-4.23.5-1.33.3-3 2-3.64 1.7-.2 3-1.4 4.6-1.5a4.3 4.3 0 0 1 3.9 4z" class="cls-112"/><path d="M87.1 83.15a6.13 6.13 0 0 0 .1 1c-2.55 1.5-5.5-.15-8.1 1-1.55-.88-3.54 1.07-4.93-.8 3.2-4.4 8.3-4.87 12.92-1.2z" class="cls-113"/><path d="M87.1 83.15c-4.43-.9-8.83-1.48-12.93 1.2.12-2.32.82-4.3 3.12-5.32 2.8 1.74 5.1-.3 7.6-1.15.6 1.8 2.3 3.17 2.2 5.27z" class="cls-63"/><path d="M125.1 80.15c-4.47 5.7-9 11.33-13.37 17.1-2 2.65-4.24 4.63-7.67 4.86 4.2-4.6 9.26-8.8 9-16 4.55.4 7.42-1.1 7.37-6.3 0-2 1.73-3 3.55-3.6l1.1.8c1.4 1.1-.08 2.2 0 3.3zm-21 22a8.23 8.23 0 0 1-5 3c.83-2.4 2.76-2.95 5-3z" class="cls-86"/><path d="M125.1 80.15a4.3 4.3 0 0 1 0-3.33l2-.73 1 1.2z" class="cls-88"/></svg>